<?xml version="1.0" encoding="UTF-8"?>
<svg id="Layer_2" data-name="Layer 2" xmlns="http://www.w3.org/2000/svg" viewBox="0 0 76.82 148.39">
  <g id="Layer_1-2" data-name="Layer 1">
    <g>
      <path d="m22.73,51.72c-2.23-2.83-4.05-5.99-5.5-9.29-1.49-3.39-2.61-6.96-3.36-10.59-.74-3.58-1.13-7.25-1.11-10.91.02-3.4.4-6.8,1.29-10.09.46-1.7,1.03-3.41,1.91-4.94.98-1.71,2.3-3.17,3.72-4.52.34-.32.69-.64,1.03-.96-.14-.06-.28-.12-.43-.18-.14,2.47.3,4.92,1.16,7.23.88,2.38,2.14,4.59,3.52,6.71,1.48,2.27,3.11,4.43,4.71,6.61,1.62,2.22,3.23,4.46,4.63,6.82,1.39,2.34,2.58,4.82,3.33,7.44.79,2.75,1.06,5.62.77,8.46-.14,1.34-.39,2.68-.61,4-.21,1.22-.42,2.44-.69,3.65-.43,1.99-.94,4.11-2.06,5.84-.4.62-.91,1.19-1.58,1.53-.65.33-1.39.38-2.1.23-1.04-.22-1.99-.77-2.85-1.38-1.36-.95-2.56-2.12-3.69-3.33-.71-.72-1.41-1.52-2.09-2.33-.21-.25-.56.11-.35.35,1.29,1.54,2.64,3.04,4.14,4.37,1,.89,2.07,1.74,3.28,2.32.8.39,1.7.67,2.6.6.76-.06,1.46-.37,2.04-.86,1.41-1.2,2.08-3.17,2.58-4.9.69-2.38,1.08-4.83,1.47-7.27.23-1.43.47-2.85.52-4.3.05-1.45-.04-2.89-.27-4.32-.44-2.74-1.4-5.38-2.65-7.86-1.26-2.49-2.79-4.83-4.41-7.11-1.61-2.26-3.29-4.47-4.89-6.74-1.51-2.15-2.95-4.37-4.07-6.75-1.06-2.25-1.8-4.67-1.94-7.16-.03-.62-.03-1.23,0-1.85.01-.23-.28-.31-.43-.18-1.44,1.31-2.84,2.67-3.98,4.26-1.12,1.56-1.86,3.29-2.44,5.1-1.03,3.25-1.52,6.67-1.65,10.08-.14,3.7.16,7.41.82,11.04.67,3.72,1.72,7.37,3.15,10.87,1.39,3.4,3.14,6.66,5.32,9.61.26.35.52.69.79,1.03.22.28.57-.08.37-.33Z"/>
      <path d="m10.23,77.92c2.53-3.31,7.23-3.04,10.85-2.13,1.05.26,2.09.6,3.1.98.23.09.44-.26.24-.42-2.97-2.35-6.15-4.45-9.54-6.15-.2-.1-.4-.2-.6-.3-.18-.09-.4-.25-.6-.27-.3-.04-.74.16-1.02.26-.62.21-1.23.5-1.77.88-.94.67-1.64,1.62-1.89,2.76-.33,1.51.11,3.04.79,4.38.15.29.58.03.43-.25-.61-1.21-1.04-2.61-.75-3.97.25-1.18,1.02-2.12,2.04-2.74.68-.41,1.43-.67,2.2-.85-.06-.01-.13-.02-.19-.03,3.76,1.78,7.28,4.04,10.54,6.61.08-.14.16-.28.24-.42-1.94-.74-3.96-1.29-6.03-1.51-1.98-.21-4.07-.09-5.9.77-1.03.49-1.9,1.21-2.59,2.12-.17.28.26.53.45.28Z"/>
      <path d="m48.97,146.87c1.04.5,2.08.99,3.12,1.49.14.07.33.02.37-.15,1.56-6.6,2.67-13.34,3.03-20.11.18-3.35-.08-6.7.07-10.05.13-2.81.64-5.56,1.3-8.29.6-2.48,1.23-4.95,1.57-7.49.32-2.4.39-4.82.41-7.24.04-4.92-.19-9.9.68-14.77.45-2.52,1.22-5.01,2.6-7.19,1.47-2.32,3.58-4.08,6.04-5.28.18-.09.15-.34,0-.43-1.59-1.01-3.17-2.04-4.78-3.02-.38-.23-.59-.13-1.06.01-.84.24-1.65.54-2.44.91-1.38.66-2.64,1.57-3.63,2.74-1.86,2.2-2.58,5.05-2.88,7.86-.35,3.26-.24,6.57-.26,9.85-.03,3.74.11,7.68-.74,11.35h.48c-3.27-8.76-6.82-17.41-10.41-26.05-1.49-3.59-3.18-7.52-2.98-11.48.15-2.96,1.37-5.91,2.48-8.61,2.22-5.4,4.7-10.76,3.84-16.75-.55-3.87-2.29-7.46-4.43-10.69-1.95-2.95-4.42-5.55-6.15-8.65-.88-1.59-1.53-3.3-1.79-5.11-.07-.51-.11-1.03-.12-1.55,0-.31.13-.88-.02-1.15-.25-.47-1.25-.86-1.72-1.06-2.72-1.11-5.29.37-6.89,2.59-.25.35-.48.71-.69,1.08-.13.23-.26.47-.38.71-.08.17-.19.61-.32.72-.08.07-.09.21-.04.3,3.95,7.09,9.95,12.91,13.21,20.41,1.74,4,2.48,8.36,1.84,12.69-.46,3.1-.93,6.26-1.83,9.27-.56,1.88-1.51,4.62-3.71,5.08-1.16.24-2.36-.26-3.34-.83-1.74-1.02-3.23-2.47-4.6-3.93-6.69-7.12-10.4-16.77-11.62-26.38-.29-2.33-.44-4.68-.41-7.02.01-.54.02-1.07.05-1.61.01-.28.03-.57.05-.85.02-.24.12-.64.06-.88-.09-.32-.5-.62-.73-.85-.37-.38-.77-.73-1.18-1.06-1.28-1.03-2.8-1.86-4.46-2.03-1.67-.17-3.26.45-4.5,1.56-.82.74-1.47,1.65-2.03,2.6-.07.11-.03.28.09.34,2.87,1.45,3.88,4.22,4.15,7.26.12,1.37.13,2.75.2,4.13.07,1.42.27,2.83.51,4.24,1.12,6.46,3.65,12.79,7.81,17.91,2.02,2.48,4.42,4.65,7.14,6.33,1.4.87,2.91,1.51,4.36,2.28,1.46.76,2.85,1.65,4.17,2.63,5.11,3.81,8.94,9.07,11.91,14.66,3.37,6.34,5.71,13.15,7.9,19.96.15-.06.3-.13.46-.19-3.32-5.1-6.84-10.11-10.89-14.66-4.11-4.62-8.92-9.05-14.72-11.42-3-1.23-6.24-1.79-9.47-1.37-.22.03-.38.35-.13.47,10.48,4.98,19.13,13.45,25.71,22.9,3.31,4.76,6.31,9.88,8.11,15.41,1.91,5.85,2.67,12.02,2.78,18.16.13,6.72-.51,13.43-1.29,20.1-.04.32.46.32.5,0,1.42-12.08,2.41-24.66-.95-36.52-1.61-5.68-4.39-10.87-7.63-15.77-3.23-4.88-6.97-9.45-11.18-13.51-4.66-4.5-9.94-8.41-15.8-11.19-.04.16-.08.31-.13.47,5.93-.76,11.51,1.84,16.13,5.36,5.1,3.88,9.33,8.87,13.12,14,1.89,2.56,3.67,5.19,5.4,7.85.15.23.55.09.46-.19-3.81-11.86-8.25-24.69-17.88-33.16-2.41-2.12-5.08-3.82-7.97-5.19-3.07-1.45-5.82-3.46-8.16-5.91-4.72-4.95-7.64-11.42-9.02-18.07-.36-1.72-.64-3.46-.75-5.21-.1-1.6-.09-3.21-.25-4.81-.32-3.09-1.47-5.88-4.37-7.35.03.11.06.23.09.34,1.08-1.85,2.66-3.63,4.91-3.9,1.91-.23,3.76.67,5.23,1.82.39.31.76.64,1.12.99.16.16.32.32.47.48.26.28.23.44.2.81-.08,1.14-.12,2.28-.11,3.42.01,2.38.19,4.75.52,7.11,1.33,9.45,5.06,18.88,11.65,25.89,1.36,1.44,2.82,2.86,4.52,3.9.99.6,2.14,1.12,3.33,1.07,2.16-.1,3.38-2.12,4.1-3.92,1.12-2.79,1.56-5.85,2.05-8.8.32-1.99.63-3.96.58-5.99-.05-2.08-.41-4.14-1.01-6.13-2.43-7.97-8.41-14.08-12.83-20.94-.52-.81-1.03-1.64-1.5-2.49-.01.1-.03.2-.04.3.21-.18.33-.68.45-.93.23-.46.49-.91.78-1.35.46-.7,1.01-1.35,1.66-1.88,1.14-.94,2.6-1.42,4.06-1.09.69.16,1.34.47,1.93.87.16.11.25.16.3.33.06.21,0,.57,0,.79,0,.47.04.94.1,1.41.2,1.62.7,3.17,1.42,4.63,1.52,3.09,3.88,5.66,5.86,8.45,2.29,3.21,4.21,6.81,4.96,10.71.57,2.98.34,6.02-.46,8.94-.75,2.73-1.92,5.33-3.01,7.94-1.09,2.62-2.18,5.34-2.61,8.16-.52,3.44.62,6.94,1.83,10.12,1.66,4.35,3.55,8.62,5.31,12.94,1.69,4.16,3.35,8.33,4.95,12.52.41,1.07.81,2.14,1.21,3.21.08.21.42.26.48,0,.68-2.96.68-6.1.73-9.12.05-3.35-.02-6.7.13-10.05.12-2.84.49-5.82,1.94-8.32.74-1.27,1.76-2.35,2.98-3.16.73-.49,1.51-.89,2.33-1.21.39-.15.78-.29,1.17-.41.18-.06.69-.28.81-.26.3.05.74.47,1,.63.55.35,1.09.69,1.64,1.04.77.49,1.55.98,2.32,1.47v-.43c-4.26,2.09-7.04,5.77-8.31,10.3-1.31,4.69-1.24,9.66-1.25,14.49,0,2.45,0,4.9-.15,7.34-.18,2.71-.67,5.36-1.3,7.99-.6,2.49-1.23,4.97-1.56,7.51-.43,3.3-.2,6.58-.24,9.9-.1,7.8-1.33,15.61-3.12,23.19.12-.05.24-.1.37-.15-1.04-.5-2.08-.99-3.12-1.49-.28-.16-.54.27-.25.41Z"/>
      <path d="m73.74,77.15c1.37-.76,2.51-1.92,2.91-3.47.35-1.36.12-2.81-.39-4.1-.54-1.35-1.36-2.66-2.48-3.61-1.31-1.11-2.95-1.78-4.63-2.09-2.05-.39-4.18-.28-6.18.29-.21.06-.24.34-.06.46,1.33.84,2.67,1.69,4,2.53.65.41,1.25.8,1.84,1.3,1.26,1.06,2.39,2.3,3.21,3.73.83,1.45,1.31,3.08,1.4,4.75.02.32.52.32.5,0-.17-3.19-1.71-6.01-4.02-8.18-.72-.67-1.47-1.27-2.3-1.79-.84-.53-1.69-1.07-2.53-1.6-.62-.39-1.23-.78-1.85-1.17-.02.15-.04.3-.06.46,3.18-.9,6.95-.67,9.74,1.24,1.19.81,2.05,1.97,2.68,3.25.57,1.17.92,2.49.77,3.79-.2,1.7-1.34,2.98-2.8,3.79-.29.15-.04.58.25.42Z"/>
      <g>
        <g>
          <path d="m34.07,30.21c.07-.06.12-.13.16-.2.04-.08.06-.16.07-.24,0-.17-.04-.34-.15-.47s-.27-.21-.44-.22c-.09-.01-.17.01-.25.03-.17.05-.3.17-.37.32-.04.08-.07.16-.07.25,0,.17.04.34.15.47s.27.21.44.22c.08.01.17-.01.25-.04.08-.03.15-.07.21-.12Z"/>
          <path d="m32.41,27.39h0s-.05.04-.08.06h0c-.3.19-.7.1-.9-.2h0c-.19-.3-.1-.7.2-.89h0c.3-.2.7-.11.89.19.19.27.13.63-.11.84Zm-1.83-2.72h0s-.03.03-.05.04h0c-.3.21-.7.14-.91-.16h0c-.2-.29-.13-.7.16-.9h0c.29-.2.69-.14.9.16.2.27.14.65-.1.86Zm-1.92-2.64h0s-.02.02-.03.03h0c-.3.21-.7.15-.91-.14h0c-.21-.29-.15-.69.14-.9h0c.29-.21.69-.15.9.14.2.26.15.65-.1.87Zm-1.93-2.65h0s-.03.03-.05.04h0c-.29.2-.7.14-.9-.15h0c-.22-.29-.15-.69.14-.9h0c.29-.22.7-.14.91.14h0c.19.27.15.65-.1.87Zm-1.89-2.67h0s-.05.03-.06.04h0c-.29.2-.7.12-.9-.17h0c-.2-.3-.12-.7.17-.9h0c.3-.2.7-.12.9.17.18.28.13.65-.11.86Zm-1.78-2.75h0s-.05.05-.08.06h0c-.31.18-.71.09-.89-.22h0c-.18-.31-.09-.71.22-.9h0c.31-.18.7-.08.89.23.15.28.09.63-.14.83Zm-1.57-2.87h0c-.05.04-.09.07-.14.09h0c-.32.16-.71.03-.87-.29h0c-.16-.32-.03-.71.29-.87h0c.32-.17.71-.03.87.29.14.27.07.59-.15.78Zm-1.27-3.02h0c-.06.05-.14.09-.21.13h0c-.34.11-.71-.07-.82-.4h0c-.12-.34.06-.71.39-.83h0c.34-.12.71.06.83.4.09.25,0,.53-.19.7Z"/>
          <path d="m19.39,4.91c.13-.11.21-.27.22-.44.01-.09,0-.17-.03-.25-.03-.09-.07-.16-.12-.22-.11-.13-.27-.21-.44-.22-.26-.02-.51.12-.63.36-.04.08-.06.15-.07.24-.01.09.01.17.03.25s.07.16.12.22c.11.13.27.21.44.22.09,0,.17,0,.25-.03.09-.04.16-.08.23-.13Z"/>
          <path d="m17.18,37.02h0c-.07.06-.14.1-.22.12h0c-.35.11-.7-.08-.81-.42h0c-.11-.34.08-.7.42-.81h0c.34-.11.71.08.81.42.08.27,0,.53-.2.69Zm-.88-3.21h0c-.08.07-.16.12-.27.14h0c-.35.08-.7-.13-.78-.48h0c-.08-.35.13-.69.48-.79h0c.35-.08.7.14.78.48.05.25-.04.49-.21.65Zm-.69-3.26h0c-.09.07-.19.13-.31.15h0c-.35.06-.69-.18-.75-.53h0c-.06-.35.17-.68.52-.74h0c.35-.07.69.16.75.52h0c.05.23-.04.45-.21.6Zm-.49-3.3h0c-.09.08-.21.14-.35.15h0c-.35.04-.67-.21-.72-.57h0c-.04-.35.22-.68.57-.72h0c.36-.05.68.21.72.57.04.23-.06.44-.22.57Zm-.26-3.32h0c-.1.09-.24.15-.39.15h0c-.36.02-.66-.25-.68-.61h0c-.01-.36.27-.66.62-.68h0c.35-.02.66.26.68.62,0,.21-.09.4-.23.52Zm-.05-3.33h0c-.12.1-.27.16-.43.16h0c-.36-.01-.64-.3-.64-.66h0c.01-.36.31-.64.66-.64h0c.36.01.64.31.64.66,0,.2-.09.36-.23.48Zm.21-3.33h0c-.13.11-.31.17-.49.16h0c-.35-.04-.61-.35-.58-.71h0c.03-.36.35-.62.71-.58h0c.35.04.61.35.58.71-.02.17-.11.32-.22.42Zm.47-3.29h0c-.14.12-.34.18-.54.15h0c-.35-.08-.58-.41-.51-.77h0c.07-.34.41-.58.76-.51h0c.35.06.58.4.51.76-.03.15-.1.28-.22.37Zm.81-3.23h0c-.16.14-.39.19-.61.12h0c-.34-.11-.53-.48-.43-.81h0c.11-.34.47-.54.81-.43h0c.34.11.53.48.43.81-.04.13-.11.23-.2.31Zm1.2-3.1h0c-.19.16-.48.21-.72.08h0c-.32-.16-.44-.55-.28-.87h0c.17-.32.55-.44.87-.28h0c.32.17.44.55.28.88-.03.07-.08.13-.15.19Z"/>
          <path d="m18.27,40.18c.07-.06.12-.13.16-.2.04-.08.06-.15.07-.24.01-.17-.04-.34-.15-.47-.06-.07-.13-.12-.2-.16s-.15-.06-.24-.07-.17.01-.25.03c-.17.05-.3.17-.38.33-.04.08-.06.15-.07.24s.01.17.03.25.07.16.12.22c.11.13.27.21.44.22.09.01.17,0,.25-.03.08-.02.16-.06.22-.12Z"/>
        </g>
        <g>
          <path d="m14.53,40.73c.07-.06.12-.13.16-.2s.06-.15.07-.24c.01-.17-.04-.34-.15-.47-.06-.07-.13-.12-.2-.16-.08-.04-.16-.06-.24-.07-.09-.01-.17.01-.25.03-.25.08-.43.31-.45.57-.01.17.04.34.15.47s.27.21.44.22c.17.01.34-.04.47-.15Z"/>
          <path d="m13.51,37.67h0c-.07.06-.14.1-.24.12h0c-.34.11-.7-.09-.81-.43h.01c-.1-.34.09-.71.43-.81h0c.34-.1.7.09.81.43h0c.08.25-.01.52-.2.69Zm-.85-3.13h0c-.08.07-.17.12-.27.14h0c-.35.08-.7-.13-.78-.48h0c-.08-.35.13-.7.48-.79h0c.35-.08.69.13.78.48.06.26-.03.5-.21.65Zm-.67-3.15h0c-.09.07-.19.13-.31.15h0c-.35.05-.68-.17-.75-.53h0c-.07-.35.16-.69.52-.75h0c.35-.06.69.17.76.52h0c.04.24-.05.46-.22.61Zm-.48-3.19h0c-.09.08-.21.14-.34.15h0c-.36.05-.68-.21-.72-.56h0c-.04-.35.21-.68.56-.72h0c.35-.04.68.22.72.57h.01c0,.21-.08.42-.23.56Zm-.3-3.22h0c-.1.09-.24.15-.39.15h0c-.35.03-.66-.25-.68-.61h0c-.02-.35.25-.66.61-.68h0c.36-.02.66.25.68.61.02.2-.07.4-.22.53Zm-.11-3.23h0c-.11.1-.26.16-.42.16h0c-.36,0-.65-.29-.65-.65h0c0-.35.29-.65.65-.65h0c.36,0,.65.29.65.65h0c0,.2-.09.37-.23.49Z"/>
          <path d="m11.21,18.52c.13-.11.21-.27.22-.44.01-.09-.01-.17-.03-.25s-.07-.16-.12-.22c-.06-.07-.12-.11-.2-.16-.07-.04-.16-.06-.24-.07-.25-.02-.51.12-.63.36-.04.08-.06.15-.07.24-.01.08.01.17.03.25.03.09.07.16.12.22s.13.12.2.16c.08.04.16.06.24.07.09.01.17-.01.25-.03s.17-.08.23-.13Z"/>
          <path d="m8.79,16.62h0c-.2.17-.49.21-.74.08h0c-.31-.18-.43-.57-.26-.88h0c.18-.31.57-.43.88-.26h0c.31.16.43.57.25.88-.03.08-.08.13-.13.18Zm-2.98-.63h0c-.09.07-.19.13-.31.15h0c-.35.05-.68-.17-.75-.53h0c-.06-.36.18-.69.53-.75h0c.35-.06.69.17.75.53.04.24-.05.46-.22.6Z"/>
          <path d="m3.25,17.64c.07-.06.11-.12.16-.2.04-.08.06-.15.07-.24.01-.08-.01-.17-.03-.25s-.07-.16-.12-.22c-.06-.07-.12-.11-.2-.16-.08-.04-.16-.06-.24-.07-.26-.02-.51.12-.63.36-.04.08-.06.15-.07.24s.01.17.03.25c.03.09.07.16.12.22.06.07.13.12.2.16.08.04.15.06.24.07s.17-.01.25-.03.16-.08.22-.13Z"/>
          <path d="m9.69,41.65h0c-.05.05-.11.08-.18.11h0c-.34.13-.71-.03-.84-.36h0c-.13-.33.03-.71.36-.85h0c.33-.13.71.03.84.36.1.28.02.57-.18.74Zm-1.18-3.43h0c-.07.06-.14.1-.24.13h0c-.34.09-.7-.1-.81-.45h0c-.1-.34.1-.7.44-.8h0c.34-.1.7.09.81.44.08.26-.01.52-.2.68Zm-.86-3.52h0c-.08.07-.18.12-.29.14h0c-.35.08-.69-.16-.76-.51h0c-.07-.35.16-.69.51-.76h0c.35-.07.69.16.76.51.04.24-.05.48-.22.62Zm-.56-3.58h0c-.09.08-.21.14-.35.15h0c-.35.04-.68-.22-.72-.57h0c-.03-.36.22-.68.58-.72h0c.35-.04.68.22.71.57h0c.03.23-.07.44-.22.57Zm-.2-3.62h0c-.1.09-.24.15-.4.16h0c-.36.01-.66-.26-.68-.63h0c-.01-.36.27-.66.62-.67h0c.36-.02.66.26.68.62h.01c0,.21-.09.4-.23.52Zm-.32-3.61h0c-.09.08-.2.13-.32.15h0c-.36.06-.69-.18-.75-.53h0c-.06-.36.18-.69.54-.75h0c.35-.06.68.18.74.53.05.24-.04.46-.21.6Zm-1.06-3.44h0s-.08.06-.14.08h0c-.32.16-.71.03-.87-.29h.01c-.16-.33-.03-.72.29-.88h0c.32-.16.7-.03.87.29h0c.13.28.06.61-.16.8Z"/>
          <path d="m11.19,44.96c.13-.11.21-.27.22-.44.01-.09-.01-.17-.03-.25s-.07-.16-.12-.22-.12-.11-.2-.16c-.08-.04-.15-.06-.24-.07-.25-.02-.51.12-.63.36-.04.07-.06.15-.07.24-.01.17.04.34.15.47.06.07.13.12.2.16.08.04.15.06.24.07.18,0,.35-.05.48-.16Z"/>
        </g>
        <g>
          <path d="m40.98,26.6c.13-.11.21-.27.22-.44,0-.09,0-.17-.03-.25-.02-.08-.07-.16-.12-.22-.11-.13-.27-.21-.44-.22-.26-.02-.51.12-.62.35-.04.08-.07.16-.07.25,0,.17.04.34.15.47.06.07.12.11.2.16.08.04.15.06.24.07.09.01.17,0,.25-.04.09-.04.16-.08.22-.13Z"/>
          <path d="m39.09,23.73h0s-.03.02-.04.03h0c-.3.21-.7.14-.91-.14h0c-.21-.29-.15-.69.14-.91h0c.29-.21.7-.14.9.15.21.27.16.65-.09.87Zm-2.08-2.75h0s-.02.02-.03.02h0c-.29.22-.69.16-.91-.12h0c-.22-.28-.16-.69.12-.91h0c.28-.22.69-.16.91.12.2.29.16.67-.09.89Zm-2.03-2.78h0s-.04.03-.06.05h0c-.3.2-.7.12-.91-.18h0c-.2-.3-.12-.69.17-.9h0c.3-.2.71-.12.91.18h0c.19.28.14.64-.11.85Zm-1.73-2.96h0s-.08.06-.14.09h0c-.32.16-.71.02-.86-.31h0c-.15-.32-.02-.71.3-.87h0c.32-.15.71-.02.86.31h0c.13.27.06.59-.16.78Zm-1.17-3.23h0c-.08.07-.17.11-.27.14h0c-.35.08-.7-.13-.78-.48h0c-.08-.35.13-.7.48-.78h0c.35-.08.69.13.78.48.06.23-.03.49-.21.64Z"/>
          <path d="m31.64,8.59c.13-.11.21-.27.22-.44s-.04-.34-.15-.47-.27-.21-.44-.22c-.26-.02-.51.12-.63.36-.04.07-.06.15-.07.24,0,.17.04.34.15.47s.27.21.44.22c.09.01.17-.01.25-.03.1-.03.17-.07.23-.13Z"/>
          <path d="m28.3,7.92c-.21-.29-.61-.35-.91-.14h0c-.29.21-.35.61-.14.91h0c.21.29.61.35.91.14h0s.03-.02.04-.03h0c.25-.22.3-.59.1-.88Z"/>
          <path d="m25.95,11.66c.13-.11.21-.27.22-.44s-.04-.34-.15-.47-.27-.21-.44-.22c-.26-.02-.51.12-.63.36-.04.08-.06.15-.07.24-.01.17.04.34.15.47s.27.21.44.22c.09.01.17-.01.25-.03.1-.04.17-.08.23-.13Z"/>
          <path d="m37.24,28.34h0s-.07.06-.11.07h0c-.31.18-.71.06-.87-.25h0c-.18-.31-.06-.71.25-.88h0c.31-.18.71-.06.88.25h0c.15.28.08.61-.15.81Zm-1.72-2.88h0s-.04.03-.07.05h0c-.3.19-.71.1-.9-.2h0c-.19-.3-.1-.7.2-.89h0c.3-.2.7-.11.89.19h0c.19.28.12.64-.12.85Zm-1.87-2.79h0s-.04.02-.05.03h0c-.29.2-.7.14-.91-.16h0c-.2-.29-.13-.7.16-.9h0c.3-.21.7-.14.91.16.19.28.14.66-.11.87Zm-1.97-2.73h0s-.03.02-.04.03h0c-.29.2-.7.14-.91-.14h0c-.2-.29-.14-.7.14-.91h0c.29-.21.69-.15.91.14h0c.21.28.16.66-.1.88Zm-1.99-2.71h0s-.02.02-.03.03h0c-.29.2-.7.14-.91-.14h0c-.21-.29-.14-.7.14-.91h0c.29-.2.7-.14.91.14.19.28.15.66-.11.88Zm-1.93-2.74h0s-.03.03-.06.04h0c-.3.21-.7.13-.91-.17h.01c-.2-.3-.12-.7.17-.91h0c.3-.2.7-.12.9.17h0c.19.29.14.65-.11.87Z"/>
          <path d="m38.73,31.36c.07-.06.12-.13.16-.2.04-.08.06-.15.07-.24,0-.09,0-.17-.03-.26-.03-.08-.07-.15-.12-.21-.11-.13-.27-.21-.44-.22-.08-.01-.17,0-.25.02-.16.06-.3.17-.37.32-.04.08-.06.17-.07.25,0,.17.04.34.15.47.11.12.27.21.44.22.09.01.17-.01.25-.04.08-.01.15-.05.21-.11Z"/>
        </g>
        <g>
          <path d="m32.46,31.17c.05-.04.08-.08.1-.13.03-.05.05-.11.04-.16,0-.05,0-.12-.02-.17,0-.06-.05-.11-.08-.15s-.08-.08-.13-.1c-.05-.03-.11-.05-.16-.04-.05-.01-.12,0-.17.02-.11.03-.2.11-.25.21-.03.05-.04.11-.04.16,0,.05,0,.12.02.17,0,.06.05.11.08.15.04.05.08.08.13.1.05.03.11.04.16.04.12.01.24-.03.32-.1Z"/>
          <path d="m30.81,28.36h0s-.03.03-.05.04h0c-.21.13-.47.07-.6-.13h0c-.13-.2-.07-.46.14-.6h0c.2-.13.46-.07.59.13h0c.12.19.08.42-.08.56Zm-1.82-2.7h0s-.02.02-.03.02h0c-.2.14-.47.09-.61-.1h0c-.13-.19-.08-.47.11-.6h0c.2-.14.47-.09.6.11.14.18.1.43-.07.57Zm-1.9-2.63h0s0,.01-.03.01h0c-.19.14-.47.1-.61-.08h.01c-.14-.21-.1-.48.09-.61h0c.19-.14.46-.1.6.09s.11.44-.06.59Zm-1.92-2.63h0s-.01.01-.03.02h0c-.19.13-.47.09-.61-.1h0c-.14-.2-.09-.47.1-.61h0c.19-.14.46-.1.61.1.13.19.1.44-.07.59Zm-1.89-2.66h0s-.03.02-.04.03h0c-.19.13-.46.09-.6-.11h0c-.13-.19-.08-.47.11-.6h0c.2-.14.47-.09.6.11.13.18.1.43-.07.57Zm-1.78-2.72h0s-.03.03-.05.03h0c-.21.13-.47.06-.6-.14h0c-.13-.21-.06-.47.14-.59h0c.21-.13.48-.07.6.14h0c.11.18.08.42-.09.56Zm-1.59-2.85h0s-.05.05-.08.06h0c-.22.11-.48.02-.58-.19h0c-.11-.22-.02-.48.19-.59h0c.2-.11.47-.02.57.19.1.19.05.4-.1.53Z"/>
          <path d="m18.59,9.19c.09-.07.14-.18.15-.3.01-.05,0-.12-.02-.17-.01-.06-.04-.1-.08-.15s-.08-.08-.13-.1c-.05-.03-.11-.05-.16-.04-.05-.01-.12,0-.17.02-.11.03-.2.11-.25.21-.03.05-.04.11-.04.16-.01.05,0,.12.02.17.01.06.04.1.08.15s.08.08.13.1c.05.03.11.04.16.04.05.01.12,0,.17-.02.05,0,.1-.03.14-.07Z"/>
          <path d="m18.9,36.69h0c-.05.04-.09.07-.15.09h0c-.23.07-.47-.05-.54-.28h0c-.07-.22.05-.47.27-.54h0c.23-.07.47.05.55.28.06.17,0,.35-.13.45Zm-.95-3.36h0c-.05.05-.11.07-.18.08h0c-.23.06-.47-.08-.53-.31h0c-.06-.24.09-.47.32-.53h0c.22-.06.46.09.52.32.05.17,0,.34-.13.44Zm-.72-3.43h0c-.06.05-.13.09-.21.1h0c-.24.04-.46-.12-.49-.35h0c-.04-.24.11-.46.34-.5h0c.24-.04.46.12.51.35h0c0,.16-.04.3-.15.4Zm-.49-3.46h0c-.07.06-.14.09-.23.1h0c-.24.02-.45-.15-.47-.38h-.01c-.02-.24.15-.46.39-.48h0c.24-.03.44.14.47.38h0c.01.15-.05.29-.15.38Zm-.25-3.49h0c-.07.06-.17.1-.26.1h0c-.24,0-.44-.18-.45-.42h0c0-.24.19-.43.43-.45h0c.23-.01.44.18.44.42,0,.14-.06.26-.16.35Zm.03-3.51h0c-.09.07-.19.11-.3.11h0c-.24-.01-.42-.22-.41-.45h0c.02-.24.22-.42.45-.41h0c.24.01.42.22.41.45h0c0,.12-.06.23-.15.3Zm.33-3.48h0c-.09.08-.21.11-.34.1h0c-.24-.03-.4-.25-.37-.49h0c.04-.24.26-.4.49-.37h0c.24.04.4.25.37.49-.01.11-.07.2-.15.27Zm.67-3.43h0c-.1.09-.25.12-.39.09h0c-.23-.06-.37-.3-.32-.53h0c.06-.23.29-.38.53-.32h0c.23.06.37.3.31.53,0,.09-.06.17-.13.23Z"/>
          <path d="m20.09,40c.09-.08.14-.18.15-.3s-.03-.23-.1-.31-.18-.14-.29-.15c-.16-.02-.34.08-.42.23-.03.05-.04.11-.04.16-.01.11.03.23.1.31s.18.14.3.14c.05.01.12,0,.17-.02.04,0,.09-.03.13-.06Z"/>
        </g>
        <g>
          <path d="m12.31,43.2c.09-.07.14-.18.14-.3.01-.05,0-.12-.02-.17-.01-.06-.04-.1-.08-.15s-.08-.08-.13-.1c-.05-.03-.11-.04-.16-.04-.17-.01-.34.07-.42.23-.03.05-.04.11-.04.16-.01.05,0,.12.02.17.01.06.04.1.08.15.07.09.18.14.29.15.05.01.12,0,.17-.02.06-.02.12-.05.15-.08Z"/>
          <path d="m10.99,40.15h0s-.08.06-.13.08h0c-.22.09-.47-.03-.56-.25h0c-.08-.23.03-.47.25-.56h0c.23-.08.47.03.56.25.08.17.02.36-.12.48Zm-1.06-3.16h0c-.05.04-.1.07-.16.09h0c-.23.07-.47-.07-.54-.29h0c-.06-.23.07-.47.29-.54h0c.23-.07.47.06.54.29.06.18,0,.34-.13.45Zm-.82-3.22h0c-.05.05-.12.08-.19.1h0c-.23.05-.46-.1-.51-.33h0c-.06-.24.09-.46.33-.52h0c.23-.05.46.1.51.33.04.17-.02.32-.14.42Zm-.6-3.27h0c-.07.06-.14.09-.23.1h0c-.23.03-.45-.14-.47-.38h0c-.03-.24.14-.45.37-.48h0c.24-.02.45.15.48.39.02.14-.04.28-.15.37Zm-.2-3.32h0c-.07.06-.16.1-.27.11h0c-.23.01-.44-.18-.44-.42h0c-.01-.24.18-.44.41-.45h0c.25-.01.44.18.45.42.01.14-.06.26-.15.34Zm-.18-3.32h0c-.07.06-.15.09-.23.1h0c-.24.02-.45-.15-.48-.39h0c-.02-.23.15-.45.39-.47h0c.23-.03.44.14.47.38.01.16-.05.29-.15.38Zm-.68-3.25h0s-.08.06-.14.08h0c-.23.08-.48-.04-.55-.27h0c-.08-.23.04-.47.27-.55h0c.22-.08.47.04.55.27.05.18,0,.36-.13.47Z"/>
          <path d="m5.89,17.68c.05-.04.08-.08.1-.13.03-.05.04-.11.04-.16.01-.05,0-.12-.02-.17-.01-.06-.05-.11-.08-.15s-.08-.08-.13-.1c-.05-.03-.11-.04-.16-.04-.05-.01-.12,0-.17.02-.16.05-.28.21-.29.38-.01.05,0,.11.02.17.02.05.04.1.08.15s.09.07.13.1c.05.02.11.05.16.04.12.01.23-.03.32-.11Z"/>
          <path d="m7.78,17.88c.11-.22.02-.48-.19-.58h0c-.21-.11-.46-.02-.58.19h0c-.11.21-.02.46.19.58h0c.17.09.34.06.48-.06h0s.08-.09.1-.13Z"/>
          <path d="m9.19,19.09c.09-.07.14-.18.14-.3.02-.12-.03-.23-.1-.31-.03-.04-.08-.08-.13-.1-.05-.03-.11-.05-.16-.04-.22-.02-.44.16-.46.39-.02.12.03.23.1.31.07.09.18.14.3.14.05.01.12,0,.17-.02.05-.01.09-.03.14-.07Z"/>
          <path d="m12.02,38.99h0c-.05.04-.09.07-.15.09h0c-.23.07-.47-.05-.54-.28h0c-.07-.23.05-.47.28-.55h0c.23-.07.47.06.54.29.05.17,0,.34-.13.45Zm-.91-3.24h0c-.05.05-.11.07-.18.1h0c-.23.05-.47-.09-.52-.32h0c-.06-.23.08-.47.31-.53h0c.23-.06.47.08.52.32.05.16,0,.33-.13.43Zm-.73-3.28h0c-.06.05-.12.08-.2.1h0c-.24.04-.46-.1-.51-.35h0c-.04-.23.11-.46.34-.5h0c.23-.05.46.1.51.34.03.16-.03.31-.14.41Zm-.56-3.32h0c-.07.06-.14.09-.22.1h0c-.23.04-.45-.13-.49-.36h0c-.04-.24.13-.46.36-.49h0c.24-.04.46.13.49.36.02.15-.04.3-.14.39Zm-.39-3.34h0c-.07.06-.15.09-.25.1h0c-.23.02-.44-.16-.46-.39h0c-.02-.24.15-.45.39-.47h0c.23-.02.44.16.47.4,0,.14-.05.27-.15.36Zm-.21-3.36h0c-.07.06-.17.1-.27.1h0c-.24.01-.44-.18-.45-.41h0c-.01-.24.18-.44.41-.45h0c.24-.01.43.17.45.41,0,.14-.04.27-.14.35Z"/>
          <path d="m13.12,42.18c.05-.04.08-.08.1-.13.03-.05.04-.11.04-.16.01-.05,0-.12-.02-.17-.01-.06-.04-.1-.08-.15s-.08-.08-.13-.1c-.05-.03-.11-.05-.16-.04-.17-.01-.34.08-.42.23-.03.05-.05.11-.04.16-.01.05,0,.12.02.17.01.06.05.11.08.15s.08.08.13.1c.05.03.11.04.16.04.05.01.12,0,.17-.02.06-.02.11-.05.15-.08Z"/>
        </g>
        <g>
          <g>
            <path d="m33.53,19.39c.09-.08.14-.19.15-.3,0-.06,0-.11-.02-.17-.02-.05-.05-.1-.09-.14-.04-.05-.08-.08-.13-.11-.05-.02-.11-.04-.17-.05-.16-.01-.34.08-.42.24-.03.05-.04.1-.05.16,0,.06,0,.12.02.17.02.05.04.1.08.15.03.04.09.07.13.1.05.02.11.03.16.04.06,0,.11,0,.17-.02.08-.01.13-.04.17-.07Z"/>
            <path d="m31.74,16.42h0s-.05.05-.08.06h0c-.21.1-.47.03-.58-.19h0c-.11-.22-.03-.47.18-.59h0c.22-.11.48-.02.59.19.09.19.04.4-.11.53Zm-1.32-3.19h0c-.05.04-.1.06-.16.08h0c-.23.07-.47-.05-.54-.28h0c-.07-.23.06-.47.29-.54h0c.23-.07.47.05.54.28.05.17,0,.35-.13.46Z"/>
            <path d="m29.74,9.83c.05-.04.08-.08.11-.14.03-.05.04-.1.04-.16,0-.05,0-.11-.02-.17-.02-.05-.05-.1-.09-.14-.07-.09-.18-.14-.29-.15-.17-.01-.34.08-.42.24-.02.05-.04.1-.04.16,0,.11.03.23.1.31.04.05.09.07.13.1.05.02.11.04.16.04.06,0,.12,0,.17-.02.05,0,.11-.04.15-.07Z"/>
            <path d="m27.94,11.46c.05-.04.07-.09.1-.13.02-.05.04-.11.04-.16,0-.06,0-.12-.02-.17,0-.06-.05-.11-.09-.15-.03-.04-.08-.08-.13-.1-.05-.03-.1-.04-.16-.04-.05,0-.11,0-.17.02-.11.03-.2.11-.25.21-.02.05-.04.11-.04.16,0,.06,0,.11.02.17.02.05.05.11.08.15.04.05.09.08.14.11.05.02.1.04.16.04.05,0,.11,0,.17-.02.05-.03.11-.05.15-.09Z"/>
            <path d="m31.62,16.77h0s-.02.02-.03.02h0c-.19.14-.47.09-.61-.1h0c-.14-.19-.1-.46.1-.61h0c.19-.14.46-.1.61.1.13.19.1.45-.07.59Zm-1.9-2.62h0s-.02.02-.03.02h0c-.2.14-.47.09-.6-.11h0c-.14-.2-.09-.47.11-.6h0c.19-.13.46-.09.6.11.13.19.09.44-.08.58Z"/>
          </g>
          <g>
            <path d="m38.95,27.69c.09-.07.14-.18.14-.29,0-.05,0-.12-.02-.17,0-.06-.04-.1-.08-.15-.07-.09-.18-.14-.3-.14-.05-.01-.12,0-.17.02-.11.03-.2.11-.25.21-.03.05-.04.11-.04.16,0,.05,0,.12.02.17,0,.06.05.11.08.15.04.05.08.08.13.1.05.03.11.05.16.04.13.01.24-.03.33-.1Z"/>
            <path d="m37.02,23.74h0c-.13-.2-.4-.26-.59-.13h0c-.21.13-.26.4-.14.6h0c.13.21.4.26.6.13h0s.03-.02.05-.04h0c.16-.14.2-.38.08-.56Z"/>
            <path d="m34.72,21.04c.05-.04.08-.08.1-.13.03-.05.04-.11.04-.16,0-.05,0-.12-.02-.17,0-.06-.05-.11-.08-.15s-.08-.08-.13-.1c-.05-.03-.11-.05-.16-.04-.05-.01-.12,0-.17.02-.11.03-.2.11-.25.21-.03.05-.04.11-.04.16,0,.05,0,.12.02.17,0,.06.05.11.08.15.04.05.08.08.13.1.05.03.11.05.16.04.05.01.12,0,.17-.02.06,0,.11-.04.15-.08Z"/>
          </g>
        </g>
        <g>
          <path d="m19.83,20.14c.05-.04.07-.09.1-.13.03-.06.04-.11.05-.17,0-.12-.03-.22-.11-.31-.07-.08-.17-.14-.29-.15-.06,0-.11,0-.17.02-.11.03-.2.11-.25.21-.02.05-.04.1-.04.16,0,.12.03.24.1.31.08.09.19.14.3.15.06,0,.11,0,.17-.02.04,0,.1-.03.14-.07Z"/>
          <path d="m20.29,25.98h0c-.06.05-.14.09-.22.1h0c-.24.03-.46-.13-.49-.37h0c-.04-.23.13-.45.37-.49h0c.23-.03.45.13.49.37h0c.02.16-.04.3-.15.39Zm-.32-2.91h0c-.07.06-.15.09-.25.1h0c-.24.02-.45-.15-.47-.4h0c-.02-.23.16-.44.4-.47h0c.24-.01.45.16.46.4.02.15-.03.28-.14.37Z"/>
          <path d="m20.78,28.87s.08-.08.1-.13c.03-.05.04-.11.04-.16.01-.05,0-.11-.02-.17-.02-.05-.04-.1-.08-.15-.07-.09-.19-.14-.29-.15-.05-.01-.12,0-.17.02-.11.03-.2.11-.25.21-.03.05-.04.11-.05.17-.01.11.03.22.1.31.04.05.08.08.13.1.05.03.11.04.16.05.06,0,.12,0,.17-.02.07,0,.12-.04.16-.08Z"/>
        </g>
        <g>
          <path d="m22.72,20.02c.09-.07.14-.18.15-.3.01-.05,0-.12-.02-.17-.01-.06-.04-.1-.08-.15-.07-.09-.18-.14-.29-.15-.05-.01-.11,0-.17.02-.16.05-.28.21-.29.38-.01.05,0,.12.02.17.01.06.05.11.08.15.04.05.08.08.13.1.05.03.11.04.16.04.05.01.12,0,.17-.02.04,0,.09-.03.14-.07Z"/>
          <path d="m26.08,24.81h-.01c-.18.16-.46.13-.61-.06h0c-.15-.18-.13-.45.06-.6h0c.19-.15.45-.13.6.06.16.18.14.44-.04.6Zm-1.76-2.34h0s-.02.02-.03.03h0c-.2.14-.47.09-.6-.11h0c-.13-.19-.09-.46.11-.6h0c.19-.13.47-.08.6.11h.01c.11.18.08.43-.09.57Z"/>
          <path d="m28.01,27c.05-.04.08-.08.11-.14.02-.05.04-.1.04-.16,0-.11-.03-.23-.1-.31-.04-.05-.09-.07-.13-.1-.05-.02-.11-.04-.17-.05-.23-.01-.44.17-.47.4,0,.06,0,.12.02.17.02.05.04.1.08.15.07.09.19.14.29.15.06,0,.11,0,.17-.02.07-.02.12-.06.16-.09Z"/>
        </g>
        <g>
          <path d="m23.1,24.66c.05-.04.08-.08.1-.13.03-.05.05-.11.05-.16,0-.06,0-.12-.02-.17-.02-.06-.05-.11-.09-.15-.03-.04-.08-.08-.13-.1-.05-.03-.1-.04-.16-.04-.05-.01-.11,0-.17.02-.16.05-.28.21-.29.38,0,.06,0,.12.02.17.01.06.05.11.08.15.08.09.18.14.3.15.05,0,.11,0,.16-.02.06-.03.11-.06.15-.1Z"/>
          <path d="m24.48,27.49s.08-.08.11-.13c.02-.05.03-.11.04-.16,0-.06,0-.11-.02-.17-.02-.05-.05-.1-.09-.14-.03-.04-.08-.08-.13-.11-.05-.02-.11-.04-.16-.04-.17-.01-.34.08-.42.24-.02.05-.04.1-.04.16s0,.11.02.17c.02.05.05.11.08.15.04.05.09.07.13.1.06.03.11.04.17.05.06,0,.11,0,.17-.02.05-.03.09-.06.14-.1Z"/>
        </g>
        <path d="m19.68,71.23c4.37,1.2,8.22,3.83,11.63,6.76,1.7,1.46,3.32,3.02,4.88,4.63,1.58,1.62,3.24,3.23,4.44,5.16.1.15-.13.34-.27.23-1.71-1.36-3.09-3.08-4.61-4.64-1.57-1.63-3.2-3.21-4.92-4.68-3.42-2.93-7.17-5.35-11.2-7.35-.04-.04-.02-.13.05-.11h0Z"/>
        <path d="m12.65,71.83c-.04.13-.15.21-.25.3-.13.12-.27.22-.4.34-.24.23-.44.52-.6.81-.17.3-.26.63-.38.95-.07.18-.12.37-.21.54-.08.15-.21.29-.34.4-.06.06-.18.04-.21-.05-.07-.18-.13-.38-.12-.57.01-.21.07-.42.12-.62.1-.41.3-.82.53-1.18.22-.35.52-.64.87-.86.24-.15.71-.37.97-.13.03.02.03.05.02.07h0Z"/>
        <path d="m13.1,73.87s-.06.01-.08.01c-.11.01.03-.02-.04.01-.05.02-.1.05-.15.07-.12.04-.23.07-.35.12-.2.08-.46.18-.63.3-.21.14-.4.32-.58.5-.17.18-.38.46-.66.54.04-.02.08-.04.12-.06-.08.08-.2.18-.3.22-.08.03-.16-.01-.18-.09-.02-.12.02-.3.07-.41,0,.04-.01.09-.01.13-.04-.33.21-.65.43-.88s.46-.42.73-.58c.23-.14.53-.3.8-.32.14-.01.3-.02.44,0,.15.03.28.1.42.16.11.06.12.25-.03.28h0Z"/>
        <path d="m43.56,92.45c2.01,2.3,3.54,4.88,4.77,7.68.59,1.34,1.12,2.71,1.55,4.11.43,1.42.91,2.89.8,4.39,0,.15-.22.19-.29.05-.64-1.31-.88-2.77-1.31-4.15-.44-1.42-.94-2.83-1.52-4.2-1.15-2.7-2.61-5.3-4.13-7.8-.05-.07.07-.15.13-.08h0Z"/>
        <path d="m50.88,115.14c1.04,4.62,1.13,9.39,1.02,14.11-.11,4.78-.29,9.67-1.11,14.39-.02.09-.14.08-.14-.01-.1-4.71.45-9.43.54-14.14.1-4.78-.16-9.55-.46-14.32,0-.1.12-.13.15-.03h0Z"/>
        <path d="m53.09,100.01c.15.72.31,1.43.4,2.16.09.75.14,1.51.19,2.26.04.72.07,1.43.06,2.15,0,.77-.1,1.5-.24,2.26,0,.07-.12.09-.13.01-.1-.71-.19-1.4-.21-2.11-.02-.76-.04-1.51-.06-2.27-.02-.73-.06-1.47-.09-2.2-.03-.75,0-1.5-.03-2.25,0-.07.1-.07.11-.01h0Z"/>
        <path d="m55.81,91.66c1,3.33.82,7.12.5,10.55-.16,1.75-.43,3.49-.79,5.21-.18.85-.37,1.7-.6,2.53-.24.88-.66,1.72-1.04,2.56-.03.07-.17.06-.15-.03.16-.79.25-1.6.42-2.39.2-.91.45-1.81.64-2.72.35-1.72.61-3.46.77-5.21.16-1.71.2-3.42.21-5.14,0-1.79-.15-3.57-.07-5.35,0-.07.09-.07.11,0h0Z"/>
        <path d="m37.95,60.3c.32,1.24.74,2.47,1.07,3.72.31,1.2.66,2.38,1.02,3.56.76,2.53,1.63,5.02,2.58,7.48,1.81,4.67,3.99,9.17,5.95,13.78.52,1.21,1,2.43,1.4,3.69.22.68.42,1.36.6,2.05.19.71.19,1.4.24,2.13,0,.1-.12.12-.15.03-1.37-4.87-3.49-9.38-5.54-13.99-2.02-4.55-3.91-9.16-5.41-13.91-.43-1.36-.81-2.74-1.14-4.13-.17-.72-.33-1.44-.47-2.17-.14-.75-.15-1.47-.24-2.21-.01-.07.07-.09.09-.03h0Z"/>
        <path d="m30.76,61.14c.97,1.05,1.84,2.13,2.62,3.33.37.58.74,1.16,1.08,1.76.37.65.58,1.32.86,2.01.06.13-.13.22-.2.09-.37-.6-.81-1.16-1.18-1.77-.34-.58-.68-1.16-1.04-1.73-.76-1.18-1.53-2.37-2.33-3.53-.09-.12.07-.28.19-.16h0Z"/>
        <path d="m65.25,67.96c-1.62,1.31-3.12,2.73-4.29,4.46-.58.86-1.1,1.77-1.55,2.71-.45.92-.78,1.9-1.43,2.69-.05.06-.16.04-.16-.05.04-1.06.53-2.01.99-2.93.49-.99,1.05-1.95,1.68-2.85,1.21-1.72,2.72-3.32,4.71-4.1.04-.03.09.04.05.07h0Z"/>
        <path d="m64.17,66.74c-.81.17-1.64.7-2.28,1.21-.64.51-1.21,1.09-1.75,1.69-.57.63-1.09,1.29-1.52,2.02-.23.39-.42.8-.62,1.2-.19.38-.47.66-.69,1.02-.08.13-.25.04-.26-.09-.02-.52-.07-.89.11-1.39.16-.43.37-.83.61-1.21.51-.83,1.14-1.61,1.84-2.29.65-.64,1.38-1.23,2.16-1.7.78-.48,1.5-.67,2.4-.54.04.01.05.07,0,.08h0Z"/>
        <path d="m61.9,66.19c-.19.08-.35.23-.53.34-.17.11-.35.2-.52.31-.33.19-.65.42-.95.65-.3.23-.59.49-.85.77-.28.3-.54.56-.9.74-.09.05-.22-.03-.2-.14.12-.84.91-1.44,1.56-1.9.35-.25.72-.45,1.11-.62.19-.08.39-.17.6-.21.21-.04.43-.02.65-.07.06,0,.1.1.03.13h0Z"/>
        <path d="m74.29,75.21c0-.2-.07-.39-.09-.58-.02-.2,0-.39-.03-.59-.02-.41-.08-.83-.16-1.23-.08-.39-.21-.77-.35-1.14-.14-.39-.22-.81-.39-1.2-.05-.11.09-.19.17-.11.33.31.65.6.86,1,.21.41.33.86.42,1.31.08.44.11.88.08,1.33-.02.22-.03.44-.1.65s-.19.38-.29.57c-.03.07-.12.05-.12,0h0Z"/>
        <path d="m73.71,68.74c-.4-.55-.94-.97-1.45-1.41-.52-.45-1.07-.85-1.68-1.17-.59-.31-1.24-.53-1.88-.69-.62-.15-1.35-.08-1.89-.47-.09-.06-.11-.21-.02-.28.59-.43,1.36-.22,2.01-.07.74.17,1.44.46,2.09.84.63.36,1.23.81,1.74,1.33.53.53.83,1.2,1.15,1.87.04.05-.04.1-.07.05h0Z"/>
        <path d="m13.54,48.79c.82.97,1.73,1.88,2.6,2.81.9.97,1.85,1.91,2.82,2.8,1.98,1.81,4.23,3.25,6.24,5,.1.09.03.29-.12.23-2.45-.98-4.55-2.78-6.47-4.55-1.01-.93-1.96-1.92-2.85-2.97-.89-1.04-1.58-2.12-2.3-3.27-.04-.05.04-.09.08-.05h0Z"/>
        <path d="m14.9,43.79c1.68,2.9,3.34,5.82,5.36,8.49,1.98,2.63,4.35,4.86,6.58,7.26.13.14-.06.34-.21.24-2.76-1.86-5.01-4.51-7-7.15-2.02-2.69-3.78-5.58-4.85-8.78-.04-.08.07-.14.12-.06h0Z"/>
        <path d="m18.66,37.63c.07,3.6,1.55,7.09,3.28,10.19,1.86,3.34,4.42,6.11,6.97,8.92.12.13-.06.32-.2.22-3.33-2.18-5.81-5.56-7.69-9.04-.91-1.68-1.67-3.44-2.21-5.27-.5-1.69-.78-3.35-.26-5.05.02-.06.11-.03.11.03h0Z"/>
        <path d="m22.96,42.26c.66,2.84,1.94,5.3,3.56,7.7.77,1.14,1.56,2.27,2.25,3.46.66,1.13,1.34,2.35,1.4,3.68,0,.19-.25.19-.33.06-.73-1.27-1.23-2.66-2-3.92-.8-1.3-1.7-2.54-2.53-3.82-1.38-2.12-2.76-4.56-2.48-7.17.01-.06.11-.06.13.01h0Z"/>
        <path d="m27.56,46.59c.27.96.82,1.92,1.3,2.79.46.84.92,1.69,1.29,2.58.35.83.64,1.68.79,2.57.14.81.28,1.77-.14,2.51-.1.18-.35.08-.39-.08-.12-.42-.11-.83-.13-1.26-.02-.45-.09-.89-.18-1.33-.19-.92-.5-1.81-.87-2.67-.36-.85-.8-1.66-1.2-2.48-.2-.41-.38-.82-.51-1.25-.15-.47-.15-.88-.15-1.36-.01-.13.16-.13.19-.02h0Z"/>
        <path d="m25.04,34.94c1.48,3.98,3.87,7.55,5.51,11.45.69,1.63,1.23,3.35,1.46,5.11.21,1.61.28,3.42-.59,4.84-.06.1-.21.03-.2-.07.03-1.78.3-3.46,0-5.25-.31-1.78-.93-3.48-1.68-5.11-1.64-3.62-3.97-6.95-4.59-10.94-.03-.06.07-.1.1-.03h0Z"/>
        <path d="m31.46,42.69c1.3,1.84,1.98,3.99,2.28,6.22.15,1.09.2,2.19.16,3.28-.04,1.06-.06,2.29-.68,3.2-.05.08-.19.05-.2-.04-.17-1,.1-2.04.15-3.05.05-1.09,0-2.19-.13-3.27-.28-2.15-.98-4.22-1.74-6.24-.04-.09.09-.19.16-.1h0Z"/>
        <path d="m31.24,34.47c1.82,3.41,2.91,7.26,3.4,11.09.24,1.86.32,3.74.21,5.61-.1,1.73-.29,3.82-1.16,5.35-.07.12-.24.04-.23-.08.05-.92.3-1.8.44-2.71.15-.91.24-1.82.3-2.74.12-1.86.03-3.72-.22-5.57-.5-3.75-1.7-7.31-2.86-10.9-.02-.07.08-.12.12-.05h0Z"/>
        <path d="m33.1,32.64c1.99,3.98,3.3,8.33,3.57,12.79.12,2,.05,4.03-.32,6-.18.98-.42,1.95-.73,2.89-.28.86-.58,1.79-1.2,2.47-.12.13-.36,0-.33-.17.14-.88.57-1.7.84-2.54.32-.97.56-1.96.73-2.97.33-1.97.43-3.97.29-5.96-.29-4.29-1.6-8.42-2.94-12.48-.02-.04.06-.09.09-.03h0Z"/>
        <path d="m38.48,30.75c1.06,4.36,1.98,8.66,2.06,13.18.03,2.01-.09,4.04-.46,6.02-.31,1.69-.65,3.89-1.89,5.16-.07.07-.18,0-.18-.09.04-.91.38-1.76.64-2.63.28-.95.5-1.92.67-2.89.32-1.9.45-3.82.43-5.75-.04-4.32-.75-8.69-1.34-12.97,0-.06.06-.07.07-.03h0Z"/>
        <path d="m41.31,36.76c.23.7.5,1.36.61,2.1.13.78.22,1.56.27,2.35.11,1.54.08,3.08-.09,4.61-.33,3.04-1.06,6.19-2.95,8.65-.06.07-.17.02-.14-.07.78-2.88,1.84-5.67,2.25-8.64.2-1.42.28-2.87.27-4.31,0-.8-.06-1.59-.14-2.38-.08-.76-.07-1.52-.16-2.27,0-.06.06-.09.08-.04h0Z"/>
      </g>
    </g>
  </g>
</svg>