<?xml version="1.0" encoding="UTF-8"?>
<svg id="Layer_2" data-name="Layer 2" xmlns="http://www.w3.org/2000/svg" viewBox="0 0 67.31 74.38">
  <g id="Layer_1-2" data-name="Layer 1">
    <g>
      <path d="m24.21,39.48c-1.59-1.96-2.51-4.35-3.08-6.79-.63-2.69-.86-5.45-1.04-8.2-.18-2.86-.29-5.72-.6-8.57-.29-2.69-.74-5.39-1.72-7.93-.93-2.42-2.36-4.63-4.36-6.3-.26-.21-.52-.42-.79-.61-.02.15-.04.3-.06.46,2.26-.62,4.72-.58,6.57,1.02,1.8,1.55,2.69,3.95,3.27,6.2.74,2.85,1.03,5.81,1.23,8.74.2,2.94.26,5.88.41,8.82.06,1.22.19,2.44.28,3.66.02.25-.08.51-.14.75-.08.34-.16.69-.22,1.03-.13.64-.23,1.28-.32,1.93-.17,1.36-.23,2.74-.12,4.11.05.65.14,1.29.27,1.93.06.32.54.18.48-.13-.54-2.76-.3-5.61.31-8.34.07-.32.15-.64.23-.97.04-.18.02-.33,0-.51-.03-.29-.06-.59-.09-.89-.05-.62-.1-1.25-.13-1.88-.17-2.94-.23-5.89-.4-8.83-.18-3.01-.46-6.05-1.15-8.99-.56-2.36-1.41-4.88-3.16-6.64-.75-.76-1.68-1.33-2.71-1.64-1.19-.35-2.45-.33-3.67-.11-.36.07-.72.15-1.07.25-.22.06-.23.34-.06.46,2.12,1.55,3.69,3.68,4.7,6.09,1.04,2.48,1.55,5.16,1.86,7.82.33,2.83.44,5.68.62,8.52.17,2.76.38,5.54.95,8.25.51,2.44,1.34,4.87,2.8,6.92.17.25.36.48.55.72.21.26.56-.1.36-.35Z"/>
      <path d="m16.93,6.21c-1.74-.86-4.13-1.13-5.9-.21.1.01.2.03.3.04-1.45-1.31-.08-3.75,1.3-4.53h-.25c1.8,1.32,3.21,3.05,4.21,5.04.14.29.58.03.43-.25-1.04-2.07-2.52-3.85-4.39-5.22-.07-.05-.18-.04-.25,0-1.66.93-3.1,3.77-1.4,5.31.09.08.2.09.3.04.83-.43,1.8-.52,2.72-.47.92.06,1.85.27,2.67.68.29.14.54-.29.26-.43Z"/>
      <path d="m29.03,45.55c-.35,2.2-.98,4.35-1.48,6.51-.5,2.12-.96,4.33-.84,6.52,0,.19.28.36.43.18,3.14-4,6.78-7.76,11.4-10.03,4.45-2.19,9.6-2.71,14.48-2,2.27.33,4.84.93,6.58,2.53.08-.14.16-.28.24-.42-6.66-1.63-13.73-.28-19.59,3.18-1.45.86-2.88,1.83-4.14,2.96-1.04.94-1.93,2.03-2.72,3.19-1.52,2.23-2.62,4.69-3.85,7.08-.57,1.11-1.17,2.23-1.95,3.2-.63.78-1.4,1.46-2.39,1.71-.1.03-.19.13-.18.24.06.9.13,1.8.19,2.7.06-.08.12-.16.18-.24-.72.19-1.39.53-1.88,1.09.14.06.28.12.43.18-.06-1.79-1.23-3.27-2.22-4.68-.67-.95-1.29-1.9-1.8-2.94-1-2.02-1.66-4.19-2.3-6.34-1.28-4.28-2.62-8.72-6.01-11.84-2.39-2.19-5.42-3.47-8.54-4.23.02.15.04.3.06.46,1.78-.79,3.71-1.24,5.66-1.11,1.69.11,3.32.68,4.77,1.54,3.08,1.84,5.33,4.87,7,7.99.96,1.79,1.75,3.67,2.39,5.61.08.26.5.23.49-.07-.07-2.13.13-4.27.37-6.38.28-2.38.65-4.76,1.13-7.1.1-.5.21-.99.33-1.49.05-.2.17-.46.13-.66-.02-.12-.12-.25-.16-.35-.09-.19-.17-.39-.25-.59-.5-1.25-.79-2.57-.92-3.91-.25-2.66.14-5.34.81-7.92,1.2-4.66,3.33-9.04,6.09-12.98,2.79-3.97,6.22-7.51,10.14-10.37,3.76-2.74,8-4.89,12.54-5.95.53-.12,1.07-.23,1.61-.33l-.24-.42c-1.32,1.27-1.87,3.01-2.49,4.69-.18.5-.37.99-.58,1.48-.12.29-.22.34-.49.47-.24.11-.49.23-.73.35-.86.42-1.71.87-2.54,1.35-3.32,1.92-6.37,4.3-9.1,7-1.43,1.41-2.77,2.92-4.02,4.49-1.21,1.51-2.41,3.08-3.36,4.77-1.92,3.43-3.03,7.29-4.05,11.06-.26.96-.51,1.92-.76,2.89-.21.81-.39,1.65-.4,2.5,0,1.08.33,2.2,1.39,2.67,1.23.54,2.74.14,3.99-.12,1.73-.36,3.43-.88,5.07-1.54,6.54-2.62,12.18-7.41,15.76-13.49.91-1.54,1.68-3.16,2.31-4.84.75-2.02,1.35-4.1,2.03-6.15.72-2.19,1.48-4.37,2.41-6.49.1-.23.19-.53.33-.74.13-.19.36-.31.57-.43.45-.26.92-.47,1.42-.62.9-.26,1.86-.32,2.78-.13.87.18,1.67.57,2.34,1.15.02-.13.03-.26.05-.39-2.63,1.67-4.23,4.4-5.4,7.21-1.33,3.16-2.21,6.48-3.5,9.65-.64,1.59-1.39,3.14-2.34,4.58-1.09,1.64-2.47,3.11-3.91,4.44-2.9,2.7-6.31,4.81-9.97,6.31-3.57,1.46-7.34,2.38-11.14,2.97-.48.08-.96.14-1.45.21-.32.04-.18.53.13.48,3.84-.52,7.65-1.33,11.29-2.68s7.08-3.23,10.07-5.7c1.6-1.32,3.08-2.8,4.39-4.41,1.06-1.3,1.91-2.76,2.62-4.28,1.47-3.13,2.39-6.47,3.59-9.7,1.08-2.93,2.44-5.97,4.92-7.99.3-.24.62-.47.94-.67.13-.08.18-.28.05-.39-1.32-1.15-3.06-1.6-4.79-1.33-.91.14-1.78.48-2.55.97-.16.1-.37.21-.49.36-.15.2-.23.51-.33.73-.23.52-.45,1.03-.66,1.56-.84,2.09-1.55,4.22-2.25,6.36-.64,1.97-1.22,3.97-2,5.88-2.68,6.53-7.71,12-13.87,15.41-3.05,1.68-6.37,2.86-9.8,3.43-1.03.17-2.47.32-3.13-.7-.77-1.19-.25-2.95.07-4.19,1-3.85,2-7.74,3.61-11.39,1.55-3.53,3.99-6.63,6.57-9.47,2.6-2.86,5.53-5.43,8.76-7.55,1.57-1.03,3.22-1.97,4.92-2.78.21-.1.42-.2.63-.29.25-.11.3-.18.41-.43.2-.45.38-.91.56-1.37.34-.91.64-1.83,1.05-2.71.36-.78.82-1.5,1.44-2.1.19-.19,0-.46-.24-.42-7.24,1.26-13.82,5.28-19.04,10.36-5.38,5.23-9.56,11.82-11.56,19.08-1.22,4.45-1.67,9.36.41,13.63,0-.06-.02-.13-.03-.19-1.01,4.09-1.63,8.34-1.9,12.54-.07,1.03-.1,2.06-.07,3.09.16-.02.33-.04.49-.07-1.17-3.57-2.86-7.04-5.24-9.97-2.24-2.76-5.25-5.05-8.86-5.48-2.22-.27-4.43.23-6.45,1.12-.2.09-.14.41.06.46,2.79.68,5.54,1.77,7.77,3.62,1.73,1.44,3.05,3.26,4.03,5.28,1.92,3.98,2.58,8.42,4.37,12.46.5,1.12,1.08,2.21,1.79,3.22,1.04,1.48,2.48,3.07,2.54,4.97,0,.2.28.35.43.18.44-.5,1.02-.8,1.66-.96.1-.03.19-.13.18-.24-.06-.9-.13-1.8-.19-2.7-.06.08-.12.16-.18.24,1.88-.47,3.06-2.27,3.95-3.85,1.28-2.25,2.28-4.64,3.6-6.87.72-1.22,1.52-2.4,2.47-3.46,1.05-1.17,2.29-2.13,3.58-3.01,2.87-1.94,6.07-3.38,9.45-4.16,3.72-.86,7.62-.87,11.33.04.23.06.43-.24.24-.42-1.56-1.44-3.73-2.1-5.77-2.49-2.43-.47-4.95-.57-7.42-.39-2.51.19-4.97.74-7.29,1.73-2.4,1.02-4.59,2.45-6.57,4.13-2.27,1.93-4.26,4.17-6.1,6.51.14.06.28.12.43.18-.12-2.19.34-4.38.85-6.51.5-2.12,1.12-4.23,1.46-6.39-.01-.31-.49-.44-.54-.13Z"/>
      <path d="m66.73,58.89c-.59,4.32-4.6,8.15-9.09,7.79-1.42-.12-2.76-.67-3.93-1.45-.02.15-.04.3-.06.46,2.88-.85,5.56-2.52,7.13-5.14,1.31-2.2,1.71-4.84,1.22-7.34-.3-1.52-.9-3.2-2.05-4.28-.08.14-.16.28-.24.42,1.98.53,3.86,1.37,5.22,2.95,1.03,1.19,1.65,2.71,1.83,4.28.09.8.08,1.6-.03,2.4-.04.32.46.32.5,0,.2-1.53.06-3.12-.48-4.57-.64-1.7-1.83-3.12-3.36-4.09-1.09-.69-2.3-1.12-3.54-1.45-.24-.06-.43.24-.24.42.99.94,1.52,2.33,1.83,3.64.28,1.16.35,2.36.22,3.54-.28,2.51-1.57,4.79-3.51,6.39-1.34,1.11-2.95,1.87-4.61,2.36-.21.06-.24.34-.06.46,2.12,1.42,4.71,1.95,7.18,1.18,2.2-.69,4.07-2.26,5.27-4.21.67-1.1,1.14-2.33,1.31-3.6.02-.34-.46-.48-.51-.16Z"/>
      <path d="m27.3,38.98c.96-3.69,1.91-7.41,3.35-10.95.67-1.64,1.46-3.22,2.46-4.68,1.03-1.49,2.13-2.93,3.3-4.32,2.25-2.66,4.77-5.1,7.55-7.21,2.71-2.06,5.65-3.8,8.77-5.14,3.15-1.35,6.47-2.28,9.86-2.78.45-.07.89-.12,1.34-.17-.06-.14-.12-.28-.18-.43-3.06,3.32-4.88,7.57-6.37,11.77-.78,2.2-1.47,4.43-2.2,6.65-.67,2.03-1.43,4-2.47,5.88-1.98,3.6-4.69,6.78-7.89,9.35-3.18,2.55-6.86,4.5-10.77,5.65-.98.29-1.96.53-2.96.71-.8.15-1.66.33-2.48.18-.55-.1-1.05-.36-1.33-.86-.35-.62-.35-1.41-.28-2.1.06-.53.17-1.04.3-1.55.08-.31-.4-.45-.48-.13-.35,1.38-.77,3.44.44,4.54,1.17,1.08,3.08.59,4.45.31,4.07-.83,7.96-2.52,11.39-4.86,3.47-2.37,6.49-5.41,8.8-8.93,1.16-1.76,2.13-3.65,2.9-5.61.85-2.17,1.49-4.43,2.22-6.65,1.47-4.45,3.1-9.04,6.02-12.77.34-.43.69-.84,1.06-1.24.13-.14.05-.45-.18-.43-3.46.39-6.87,1.21-10.12,2.48-3.21,1.25-6.26,2.92-9.06,4.92-2.86,2.04-5.47,4.42-7.81,7.04-1.2,1.35-2.34,2.76-3.4,4.23-1.06,1.45-2,2.95-2.75,4.58-1.61,3.52-2.63,7.29-3.61,11.02-.12.45-.23.9-.35,1.35-.08.33.4.46.48.15Z"/>
      <path d="m65.94,33.66c-1.59-1-3.41-1.47-5.29-1.35-1.67.1-3.28.61-4.85,1.17-.81.29-1.62.6-2.44.86.08.14.16.28.24.42.97-1.03,1.89-2.11,2.66-3.31.75-1.17,1.37-2.43,1.92-3.7-.05.04-.1.08-.15.11,1.71-.38,3.55-.32,5.21.26,1.34.47,2.68,1.41,2.95,2.89.17.95-.15,1.9-.61,2.72-.16.28.28.53.43.25.6-1.08.96-2.37.53-3.58-.37-1.05-1.22-1.83-2.18-2.34-1.15-.6-2.45-.88-3.74-.94-.68-.03-1.36.01-2.04.11-.31.05-.75.04-.89.35-.21.44-.4.89-.61,1.33-.47.96-1,1.9-1.6,2.78-.66.97-1.44,1.85-2.24,2.7-.16.17,0,.5.24.42,1.87-.59,3.66-1.41,5.59-1.8,1.05-.21,2.12-.3,3.19-.18,1.22.14,2.38.59,3.42,1.24.28.19.53-.24.26-.41Z"/>
      <path d="m3.4,54.49C-.06,53.54.03,49.06,1.44,46.48c.41-.75.95-1.44,1.66-1.92-.06.01-.13.02-.19.03,1.11.27,2.2.6,3.26,1.01-.04-.14-.07-.28-.11-.42-2.22,1.77-3.11,4.84-3.14,7.58,0,.68.04,1.37.17,2.04.06.32.54.18.48-.13-.3-1.55-.18-3.2.21-4.71.43-1.69,1.24-3.32,2.63-4.42.16-.13.04-.36-.11-.42-.81-.31-1.63-.58-2.46-.81-.33-.09-.77-.32-1.08-.11-.2.13-.38.29-.55.45-.72.68-1.24,1.55-1.61,2.47-.73,1.83-.89,4.12.1,5.89.56.99,1.48,1.67,2.57,1.97.31.08.44-.4.13-.49Z"/>
      <g>
        <path d="m54.61,10.14c-.17.03-.35-.01-.49-.11-.21-.14-.38-.4-.38-.66,0-.33.31-.61.64-.61s.63.26.71.58-.03.68-.48.8Z"/>
        <path d="m50.83,9.74c-.17.03-.35-.01-.49-.11-.21-.14-.38-.4-.38-.66,0-.33.31-.61.64-.61s.63.26.71.58-.03.68-.48.8Z"/>
        <path d="m46.33,7.54c-.17.03-.35-.01-.49-.11-.21-.14-.38-.4-.38-.66,0-.33.31-.61.64-.61s.63.26.71.58c.09.32-.02.68-.48.8Z"/>
        <path d="m62.2,12.23c-.17.03-.35-.01-.49-.11-.21-.14-.38-.4-.38-.66,0-.33.31-.61.64-.61s.63.26.71.58c.09.33-.02.69-.48.8Z"/>
        <path d="m59.82,18.28c-.17.03-.35-.01-.49-.11-.21-.14-.38-.4-.38-.66,0-.33.31-.61.64-.61s.63.26.71.58c.09.32-.03.68-.48.8Z"/>
        <path d="m57.79,8.46c-.13.02-.26-.01-.37-.08-.16-.11-.29-.31-.29-.5,0-.25.24-.47.49-.47s.48.2.54.44-.02.52-.37.61Z"/>
        <path d="m58.67,10.49c-.13.02-.26-.01-.37-.08-.16-.11-.29-.31-.29-.5,0-.25.24-.47.49-.47s.48.2.54.44c.06.25-.02.52-.37.61Z"/>
        <path d="m60.99,6.14c-.13.02-.26-.01-.37-.08-.16-.11-.29-.31-.29-.5,0-.25.24-.47.49-.47s.48.2.54.44c.06.24-.02.52-.37.61Z"/>
        <path d="m59.74,8.26c-.13.02-.26-.01-.37-.08-.16-.11-.29-.31-.29-.5,0-.25.24-.47.49-.47s.48.2.54.44-.02.52-.37.61Z"/>
        <path d="m57.38,12.68c-.13.02-.26-.01-.37-.08-.16-.11-.29-.31-.29-.5,0-.25.24-.47.49-.47s.48.2.54.44c.06.24-.02.52-.37.61Z"/>
        <path d="m55.97,7.33c-.13.02-.26-.01-.37-.08-.16-.11-.29-.31-.29-.5,0-.25.24-.47.49-.47s.48.2.54.44c.06.24-.03.52-.37.61Z"/>
        <path d="m56.42,10.48c-.13.02-.26-.01-.37-.08-.16-.11-.29-.31-.29-.5,0-.25.24-.47.49-.47s.48.2.54.44-.02.52-.37.61Z"/>
        <path d="m48.75,5.67c-.13.02-.26-.01-.37-.08-.16-.11-.29-.31-.29-.5,0-.25.24-.47.49-.47s.48.2.54.44c.06.25-.02.52-.37.61Z"/>
        <path d="m47.17,5.28c-.13.02-.26-.01-.37-.08-.16-.11-.29-.31-.29-.5,0-.25.24-.47.49-.47s.48.2.54.44-.03.52-.37.61Z"/>
        <path d="m49.87,3.89c-.13.02-.26,0-.37-.08-.16-.11-.29-.31-.29-.5,0-.25.24-.47.49-.47s.48.2.54.44-.02.52-.37.61Z"/>
        <path d="m50.55,6.63c-.13.02-.26-.01-.37-.08-.16-.11-.29-.31-.29-.5,0-.25.24-.47.49-.47s.48.2.54.44-.03.52-.37.61Z"/>
        <path d="m58.46,6.64c-.13.02-.26-.01-.37-.08-.16-.11-.29-.31-.29-.5,0-.25.24-.47.49-.47s.48.2.54.44-.03.52-.37.61Z"/>
        <path d="m53.26,8.44c-.13.02-.26-.01-.37-.08-.16-.11-.29-.31-.29-.5,0-.25.24-.47.49-.47s.48.2.54.44-.02.52-.37.61Z"/>
        <path d="m52.28,10.71c-.13.02-.26-.01-.37-.08-.16-.11-.29-.31-.29-.5,0-.25.24-.47.49-.47s.48.2.54.44-.02.52-.37.61Z"/>
        <path d="m45.99,15.47c-.13.02-.26-.01-.37-.08-.16-.11-.29-.31-.29-.5,0-.25.24-.47.49-.47s.48.2.54.44c.06.25-.03.53-.37.61Z"/>
        <path d="m48.18,14.35c-.13.02-.26-.01-.37-.08-.16-.11-.29-.31-.29-.5,0-.25.24-.47.49-.47s.48.2.54.44-.03.52-.37.61Z"/>
        <path d="m52.44,19.13c-.13.02-.26-.01-.37-.08-.16-.11-.29-.31-.29-.5,0-.25.24-.47.49-.47s.48.2.54.44c.06.24-.03.52-.37.61Z"/>
        <path d="m60.84,13.72c-.13.02-.26-.01-.37-.08-.16-.11-.29-.31-.29-.5,0-.25.24-.47.49-.47s.48.2.54.44-.03.52-.37.61Z"/>
        <path d="m57.87,23.47c-.1.02-.2-.01-.28-.06-.12-.08-.22-.23-.22-.38,0-.19.18-.36.37-.35s.36.15.41.34c.05.17-.02.38-.28.45Z"/>
        <path d="m55.2,18.89c-.1.02-.2-.01-.28-.06-.12-.08-.22-.23-.22-.38,0-.19.18-.36.37-.35s.36.15.41.34c.05.17-.02.38-.28.45Z"/>
        <path d="m54.49,15.06c-.1.02-.2-.01-.28-.06-.12-.08-.22-.23-.22-.38,0-.19.18-.36.37-.35.19,0,.36.15.41.34.05.17-.01.38-.28.45Z"/>
        <path d="m53.61,12.22c-.1.02-.2-.01-.28-.06-.12-.08-.22-.23-.22-.38,0-.19.18-.36.37-.35.19,0,.36.15.41.34.05.18-.02.39-.28.45Z"/>
        <path d="m53.56,17.01c-.1.02-.2-.01-.28-.06-.12-.08-.22-.23-.22-.38,0-.19.18-.36.37-.35.19,0,.36.15.41.34.04.18-.02.39-.28.45Z"/>
        <path d="m52.26,14.86c-.1.02-.2-.01-.28-.06-.12-.08-.22-.23-.22-.38,0-.19.18-.36.37-.35s.36.15.41.34c.05.18,0,.39-.28.45Z"/>
        <path d="m50.24,12.19c-.1.02-.2-.01-.28-.06-.12-.08-.22-.23-.22-.38,0-.19.18-.36.37-.35s.36.15.41.34c.05.18-.02.39-.28.45Z"/>
        <path d="m46.81,11.97c-.1.02-.2-.01-.28-.06-.12-.08-.22-.23-.22-.38,0-.19.18-.36.37-.35.19,0,.36.15.41.34.05.17-.02.38-.28.45Z"/>
        <path d="m48.56,7.47c-.1.02-.2-.01-.28-.06-.12-.08-.22-.23-.22-.38,0-.19.18-.36.37-.35s.36.15.41.34c.05.17,0,.38-.28.45Z"/>
        <path d="m41.85,8.26c-.1.02-.2-.01-.28-.06-.12-.08-.22-.23-.22-.38,0-.19.18-.36.37-.35s.36.15.41.34-.02.38-.28.45Z"/>
        <path d="m44.58,6.54c-.1.02-.2-.01-.28-.06-.12-.08-.22-.23-.22-.38,0-.19.18-.36.37-.35s.36.15.41.34-.02.39-.28.45Z"/>
        <path d="m52.07,2.63c-.1.02-.2,0-.28-.06-.12-.08-.22-.23-.22-.38,0-.19.18-.36.37-.35.19,0,.36.15.41.34.05.18-.02.38-.28.45Z"/>
        <path d="m44.92,10.05c-.1.02-.2-.01-.28-.06-.12-.08-.22-.23-.22-.38,0-.19.18-.36.37-.35s.36.15.41.34c.05.17-.02.38-.28.45Z"/>
        <path d="m40.14,10.32c-.1.02-.2-.01-.28-.06-.12-.08-.22-.23-.22-.38,0-.19.18-.36.37-.35s.36.15.41.34c.04.18-.02.39-.28.45Z"/>
        <path d="m38.65,14.84c-.1.02-.2-.01-.28-.06-.12-.08-.22-.23-.22-.38,0-.19.18-.36.37-.35s.36.15.41.34c.05.18-.02.38-.28.45Z"/>
        <path d="m32.6,18.89c-.1.02-.2-.01-.28-.06-.12-.08-.22-.23-.22-.38,0-.19.18-.36.37-.35.19,0,.36.15.41.34.05.17-.02.38-.28.45Z"/>
        <path d="m33.79,17.58c-.1.02-.2-.01-.28-.06-.12-.08-.22-.23-.22-.38,0-.19.18-.36.37-.35s.36.15.41.34,0,.38-.28.45Z"/>
        <path d="m38.46,12.58c-.1.02-.2-.01-.28-.06-.12-.08-.22-.23-.22-.38,0-.19.18-.36.37-.35.19,0,.36.15.41.34.05.18-.02.38-.28.45Z"/>
        <path d="m39.8,12.96c-.1.02-.2-.01-.28-.06-.12-.08-.22-.23-.22-.38,0-.19.18-.36.37-.35s.36.15.41.34-.01.38-.28.45Z"/>
        <path d="m42.43,10c-.1.02-.2-.01-.28-.06-.12-.08-.22-.23-.22-.38,0-.19.18-.36.37-.35.19,0,.36.15.41.34.05.17,0,.38-.28.45Z"/>
        <path d="m41.54,12.02c-.1.02-.2-.01-.28-.06-.12-.08-.22-.23-.22-.38,0-.19.18-.36.37-.35s.36.15.41.34,0,.38-.28.45Z"/>
        <path d="m42.58,14.67c-.1.02-.2-.01-.28-.06-.12-.08-.22-.23-.22-.38,0-.19.18-.36.37-.35.19,0,.36.15.41.34.05.17-.02.38-.28.45Z"/>
        <path d="m39.24,17.57c-.1.02-.2-.01-.28-.06-.12-.08-.22-.23-.22-.38,0-.19.18-.36.37-.35s.36.15.41.34c.05.17-.01.38-.28.45Z"/>
        <path d="m40.48,16.76c-.1.02-.2-.01-.28-.06-.12-.08-.22-.23-.22-.38,0-.19.18-.36.37-.35.19,0,.36.15.41.34.05.17-.02.38-.28.45Z"/>
        <path d="m51.86,13.68c-.1.02-.2-.01-.28-.06-.12-.08-.22-.23-.22-.38,0-.19.18-.36.37-.35s.36.15.41.34c.05.18-.02.39-.28.45Z"/>
        <path d="m49.4,14.68c-.1.02-.2-.01-.28-.06-.12-.08-.22-.23-.22-.38,0-.19.18-.36.37-.35.19,0,.36.15.41.34.05.17-.02.38-.28.45Z"/>
        <path d="m48.96,10.62c-.1.02-.2-.01-.28-.06-.12-.08-.22-.23-.22-.38,0-.19.18-.36.37-.35s.36.15.41.34c.05.17-.02.38-.28.45Z"/>
        <path d="m44.67,13.15c-.1.02-.2-.01-.28-.06-.12-.08-.22-.23-.22-.38,0-.19.18-.36.37-.35.19,0,.36.15.41.34.04.17-.02.38-.28.45Z"/>
        <path d="m41.65,17.31c-.1.02-.2-.01-.28-.06-.12-.08-.22-.23-.22-.38,0-.19.18-.36.37-.35s.36.15.41.34c.04.17-.02.38-.28.45Z"/>
        <path d="m52.76,22.62c-.1.02-.2-.01-.28-.06-.12-.08-.22-.23-.22-.38,0-.19.18-.36.37-.35.19,0,.36.15.41.34.04.18-.02.39-.28.45Z"/>
        <path d="m49.6,25.32c-.1.02-.2-.01-.28-.06-.12-.08-.22-.23-.22-.38,0-.19.18-.36.37-.35s.36.15.41.34c.05.17-.02.38-.28.45Z"/>
        <path d="m51.18,23.19c-.1.02-.2-.01-.28-.06-.12-.08-.22-.23-.22-.38,0-.19.18-.36.37-.35.19,0,.36.15.41.34.05.18-.02.38-.28.45Z"/>
        <path d="m53.97,21.35c-.1.02-.2-.01-.28-.06-.12-.08-.22-.23-.22-.38,0-.19.18-.36.37-.35s.36.15.41.34c.05.17,0,.38-.28.45Z"/>
        <path d="m51.87,21.24c-.1.02-.2-.01-.28-.06-.12-.08-.22-.23-.22-.38,0-.19.18-.36.37-.35s.36.15.41.34c.05.18,0,.39-.28.45Z"/>
        <path d="m51.45,24.75c-.1.02-.2-.01-.28-.06-.12-.08-.22-.23-.22-.38,0-.19.18-.36.37-.35.19,0,.36.15.41.34.05.17-.02.38-.28.45Z"/>
        <path d="m50.47,27.3c-.1.02-.2-.01-.28-.06-.12-.08-.22-.23-.22-.38,0-.19.18-.36.37-.35s.36.15.41.34-.02.38-.28.45Z"/>
        <path d="m56.08,24.78c-.1.02-.2-.01-.28-.06-.12-.08-.22-.23-.22-.38,0-.19.18-.36.37-.35.19,0,.36.15.41.34.04.17-.02.38-.28.45Z"/>
        <path d="m62.17,15.1c-.13.02-.26-.01-.37-.08-.16-.11-.29-.31-.29-.5,0-.25.24-.47.49-.47s.48.2.54.44-.02.52-.37.61Z"/>
        <path d="m63.14,13.51c-.13.02-.26-.01-.37-.08-.16-.11-.29-.31-.29-.5,0-.25.24-.47.49-.47s.48.2.54.44c.06.25-.03.52-.37.61Z"/>
        <path d="m64.6,10.96c-.13.02-.26-.01-.37-.08-.16-.11-.29-.31-.29-.5,0-.25.24-.47.49-.47s.48.2.54.44c.07.25-.02.52-.37.61Z"/>
        <path d="m60.3,16.43c-.13.02-.26-.01-.37-.08-.16-.11-.29-.31-.29-.5,0-.25.24-.47.49-.47s.48.2.54.44-.03.52-.37.61Z"/>
        <path d="m55.13,12.76c-.13.02-.26-.01-.37-.08-.16-.11-.29-.31-.29-.5,0-.25.24-.47.49-.47s.48.2.54.44c.06.25-.03.52-.37.61Z"/>
        <path d="m29.28,24.56c-.44.55-.94,1.04-1.35,1.62-.46.66-.86,1.36-1.22,2.08-.7,1.37-1.22,2.81-1.57,4.3-.35,1.46-.53,2.96-.6,4.46-.04.78-.03,1.59.07,2.37.11.83.39,1.49.69,2.25.07.17.35.17.35-.05,0-.72.07-1.43.04-2.16-.03-.73-.08-1.45-.09-2.18-.02-1.49.15-2.97.46-4.43.3-1.38.72-2.75,1.24-4.06.55-1.39,1.21-2.9,2.05-4.13.05-.05-.03-.12-.07-.07h0Z"/>
        <path d="m22.62,20.09c-.19,1.12-.34,2.22-.38,3.36-.04,1.05-.14,2.3.34,3.26.07.15.27.08.32-.04.19-.49.22-1.05.23-1.57,0-.55,0-1.1,0-1.65,0-1.1-.02-2.19-.03-3.29.01-.27-.43-.35-.48-.07h0Z"/>
        <path d="m16.05,1.44c1.37,2.29,2.62,4.54,3.33,7.14.38,1.38.64,2.8.85,4.22.22,1.53.31,3.08.69,4.58.07.26.41.18.43-.06.15-1.54-.05-3.09-.26-4.62-.22-1.55-.53-3.07-1-4.56-.77-2.48-1.89-5.1-3.91-6.8-.07-.06-.18.01-.13.1h0Z"/>
        <path d="m21.71,29.21c-.25,1.26-.1,2.64.09,3.9.1.64.23,1.27.4,1.9.08.31.18.62.31.92.14.33.34.61.5.92.1.2.41.06.36-.15-.07-.31-.09-.65-.15-.97s-.15-.63-.23-.94c-.15-.6-.29-1.22-.39-1.83-.11-.63-.18-1.26-.26-1.89-.07-.62-.08-1.25-.18-1.86-.03-.23-.41-.22-.45,0h0Z"/>
        <path d="m52.92,1.26c-3.97,1.18-7.66,3.02-11.1,5.32-3.35,2.25-6.61,4.94-8.96,8.25-.15.21.18.45.35.27,2.85-2.88,5.66-5.74,8.99-8.09,3.31-2.33,6.97-4.19,10.73-5.66.07-.02.05-.11,0-.09h0Z"/>
        <path d="m43.38,18.65c-2.87,2.49-5.64,5.06-8.17,7.9-1.22,1.36-2.38,2.78-3.46,4.26-1.05,1.44-2.22,2.96-2.73,4.68-.03.11.12.21.2.12,1.14-1.34,1.97-2.95,3-4.38,1.11-1.54,2.32-3,3.59-4.42,2.47-2.76,5.12-5.36,7.68-8.04.08-.08-.03-.19-.11-.12h0Z"/>
        <path d="m37.93,19.88c-1.94,2.1-3.69,4.32-5.24,6.73-.78,1.21-1.51,2.44-2.21,3.69-.7,1.26-1.37,2.47-1.7,3.87-.03.12.12.17.19.08.85-1.12,1.43-2.37,2.1-3.6.69-1.26,1.41-2.5,2.18-3.71,1.5-2.38,3.1-4.72,4.79-6.97.05-.07-.05-.15-.11-.09h0Z"/>
        <path d="m40.2,26.41c-1.1.77-2.2,1.52-3.22,2.39-1.05.91-2.07,1.85-3.05,2.85-.95.97-1.87,1.97-2.74,3.01-.88,1.06-1.78,2.14-2.39,3.39-.09.19.14.39.3.23.95-.96,1.73-2.07,2.59-3.12s1.76-2.07,2.69-3.05c1.86-1.95,3.85-3.84,5.93-5.54.09-.07-.02-.22-.11-.16h0Z"/>
        <path d="m48.36,26.79c-1.9,3.47-4.94,6.18-8.13,8.42-1.63,1.15-3.31,2.23-5.02,3.27-.91.55-1.85,1.08-2.83,1.5-.95.41-2.06.55-2.96,1.04-.17.09-.15.4.06.44.95.15,1.97-.28,2.83-.64,1.06-.44,2.07-1,3.05-1.59,1.81-1.1,3.58-2.27,5.3-3.5,3.27-2.34,6.3-5.05,7.91-8.81.06-.14-.13-.27-.21-.13h0Z"/>
        <path d="m40.24,30.8c-1.53,1.6-2.91,3.32-4.57,4.81-.82.74-1.69,1.44-2.59,2.08-.9.64-1.86,1.18-2.71,1.89-.15.13,0,.39.19.33,1.06-.35,1.97-.98,2.87-1.63.93-.66,1.82-1.38,2.67-2.14,1.66-1.49,3.31-3.21,4.31-5.22.06-.1-.08-.22-.17-.12h0Z"/>
        <path d="m38.56,39.42c-1.43.76-3,1.33-4.56,1.77-.77.22-1.55.38-2.34.51-.72.12-1.56.08-2.21.44-.13.07-.08.24.04.28.71.29,1.62.07,2.35-.05.81-.14,1.62-.35,2.4-.6,1.59-.51,3.01-1.29,4.39-2.23.07-.05.01-.16-.07-.12h0Z"/>
        <path d="m51.34,35.06c-3.09,2.21-6.36,4.21-9.79,5.83-1.73.81-3.51,1.53-5.32,2.14-1.77.6-3.67.95-5.35,1.79-.17.08-.08.34.09.34,1.88.01,3.73-.72,5.47-1.35,1.82-.66,3.61-1.42,5.34-2.27,3.48-1.71,6.73-3.8,9.65-6.34.09-.07,0-.2-.09-.14h0Z"/>
        <path d="m65.73,31.6c-.14-.33-.29-.63-.54-.89-.25-.25-.55-.45-.86-.62-.35-.18-.72-.33-1.1-.43-.21-.05-.42-.1-.64-.11-.21-.01-.4,0-.61.02-.18.01-.27.26-.1.35.16.09.32.18.49.25.18.07.35.13.53.19.34.1.68.2,1,.35.28.13.53.3.78.48.24.18.5.37.67.62.16.26.49.05.38-.21h0Z"/>
        <path d="m53.93,47.55c-4.56-.66-9.18-.62-13.54,1.03-4.02,1.52-7.53,4.13-10.43,7.27-1.64,1.77-3.44,3.79-4.43,6.02-.07.16.13.37.27.21,1.4-1.56,2.49-3.37,3.87-4.95,1.41-1.62,2.96-3.12,4.66-4.42,3.44-2.63,7.46-4.41,11.79-4.86,2.57-.27,5.19-.17,7.77-.03.15.01.19-.25.04-.27h0Z"/>
        <path d="m53.68,47.82c-1-.11-1.95-.24-2.97-.22-.94.02-1.89.08-2.83.21-1.85.26-3.91.56-5.54,1.51-.11.07-.07.28.07.26,1.83-.24,3.6-.86,5.43-1.13,1.91-.28,3.9-.49,5.83-.52.08,0,.08-.1,0-.11h0Z"/>
        <path d="m23.47,68.04c-1.06-.72-2.02-1.63-2.71-2.72-.77-1.19-1.2-2.58-1.71-3.9-.07-.17-.34-.16-.34.05.04,1.56.59,3.02,1.47,4.32.78,1.15,1.83,2.12,3.17,2.56.18.05.27-.21.12-.31h0Z"/>
        <path d="m23.07,65.47c-.94-.96-1.68-2.17-2.31-3.35-.32-.59-.55-1.23-.87-1.82-.33-.6-.66-1.2-.99-1.8-.05-.09-.19-.03-.16.07.18.68.34,1.37.57,2.04.23.67.59,1.33.93,1.95.33.6.72,1.18,1.15,1.72.21.27.43.52.68.75.26.25.55.44.84.66.12.11.28-.11.16-.22h0Z"/>
        <path d="m23.45,63.23c-.09-.37-.14-.74-.27-1.1-.11-.33-.25-.65-.4-.97-.32-.67-.68-1.31-1.1-1.92-.4-.59-.84-1.15-1.32-1.68-.24-.27-.5-.56-.79-.77-.28-.19-.56-.44-.88-.56-.13-.05-.23.12-.17.22.16.28.41.52.6.78.2.28.46.53.69.79.47.53.91,1.09,1.31,1.67.38.57.74,1.15,1.05,1.75.33.63.7,1.25.99,1.9.08.16.33.05.29-.11h0Z"/>
        <path d="m23.17,59.94c-.16-1-.6-1.99-.99-2.91s-.83-1.81-1.33-2.67c-.95-1.67-2.13-3.46-3.7-4.6-.09-.06-.2.06-.15.15.51.83,1.11,1.57,1.69,2.34.6.8,1.15,1.64,1.68,2.49.51.83.98,1.68,1.41,2.55.44.89.76,1.84,1.23,2.72.06.09.18.02.16-.07h0Z"/>
        <path d="m4.08,45.4c-.12.11-.26.2-.37.32-.13.13-.25.27-.35.42-.21.29-.36.61-.49.94-.24.65-.38,1.37-.04,2.01.06.11.23.11.29,0,.07-.13.12-.27.17-.41-.03.05-.05.09-.08.14.19-.22.24-.57.31-.85.07-.27.14-.54.24-.8.1-.26.21-.51.32-.77.11-.25.22-.51.36-.74.13-.22-.17-.42-.36-.26h0Z"/>
        <path d="m1.35,48.03c-.15.49-.32.94-.38,1.45-.06.49-.05,1,0,1.49.05.5.13.98.28,1.46.14.47.29,1,.68,1.32.15.12.41.05.4-.17-.02-.48-.26-.9-.4-1.35-.14-.43-.24-.87-.32-1.31-.08-.45-.1-.9-.12-1.36,0-.5-.06-1.02.02-1.51.02-.07-.12-.12-.15-.02h0Z"/>
        <path d="m62.91,54.2c0,.6-.1,1.22-.16,1.82-.06.63-.16,1.26-.3,1.88-.28,1.24-.68,2.47-1.31,3.58-.57,1-1.29,1.96-2.28,2.57-.47.29-.97.48-1.51.57-.52.09-1.23.11-1.69.38-.06.04-.06.11-.02.17.63.76,1.99.5,2.77.2.93-.37,1.72-.99,2.35-1.75,1.39-1.67,2.12-3.9,2.41-6.02.08-.57.13-1.15.14-1.73,0-.57-.11-1.11-.2-1.67-.01-.15-.21-.12-.2,0h0Z"/>
        <path d="m65.91,56.94c-.23,1.15-.74,2.35-1.29,3.38-.58,1.08-1.32,2.06-2.22,2.89-.86.79-1.89,1.44-3.04,1.72-1.19.3-2.38-.04-3.58.01-.09,0-.16.1-.11.19.76,1.17,2.34,1.14,3.54.89,1.32-.28,2.53-.99,3.5-1.91.99-.93,1.81-2.08,2.39-3.31.59-1.25.83-2.47.94-3.84.02-.08-.11-.1-.13-.02h0Z"/>
        <path d="m63.86,9.48c-.47-.01-.93.03-1.4.12-.23.05-.45.11-.66.2-.21.08-.36.23-.53.37-.07.06,0,.16.08.14.2-.05.39-.05.58-.13.21-.08.42-.15.63-.23.42-.14.86-.24,1.3-.29.12,0,.12-.18,0-.18h0Z"/>
      </g>
    </g>
  </g>
</svg>