<?xml version="1.0" encoding="UTF-8"?>
<svg id="Layer_2" data-name="Layer 2" xmlns="http://www.w3.org/2000/svg" viewBox="0 0 73.59 174.17">
  <g id="Layer_1-2" data-name="Layer 1">
    <g>
      <path d="m39.23,68.12c-.21-.43-.43-.86-.65-1.29-.2-.38-.46-.75-.6-1.15-.15-.41-.25-.84-.33-1.27-.24-1.23-.33-2.48-.4-3.73-.15-2.94-.1-5.9.15-8.83.14-1.59.3-3.17.32-4.77.02-1.5-.05-3-.24-4.5-.31-2.57-.95-5.09-1.95-7.48-1.77-4.21-4.59-7.78-7.61-11.16-1.46-1.63-2.96-3.24-4.38-4.91-.71-.83-1.4-1.68-2.05-2.56-.05-.07-.18-.2-.21-.26-.04-.11-.02-.29-.03-.41-.02-.3-.03-.61-.03-.91,0-.59.04-1.17.12-1.76.3-2.22,1.24-4.74,3.45-5.69,2.41-1.04,5.78,0,6.95,2.41.3.62.42,1.3.4,1.98.08-.08.17-.17.25-.25-1.2.01-2.36.5-2.62,1.78-.29,1.42.33,2.97.92,4.24.86,1.86,2.03,3.58,3.3,5.17,1.41,1.77,2.72,3.57,3.85,5.53.98,1.69,1.85,3.46,2.55,5.28.61,1.59,1,3.17,1.22,4.86.62,4.88.13,9.81-.63,14.64-.71,4.5-1.7,8.97-2.08,13.52-.05.53-.08,1.07-.11,1.61-.02.32.48.32.5,0,.21-4.45,1.14-8.83,1.88-13.21.79-4.67,1.43-9.42,1.16-14.17-.11-1.92-.31-3.89-.88-5.74-.5-1.63-1.18-3.21-1.94-4.74-.95-1.91-2.04-3.76-3.27-5.5-1.24-1.75-2.67-3.34-3.81-5.17-.92-1.47-1.81-3.09-2.13-4.81-.2-1.06-.07-2.31,1.12-2.68.32-.1.66-.13.99-.13.14,0,.25-.11.25-.25.09-2.95-2.47-4.99-5.24-5.25-1.27-.12-2.58.13-3.64.86-.96.67-1.66,1.64-2.12,2.7-.49,1.12-.75,2.33-.86,3.54-.05.6-.07,1.2-.05,1.8,0,.26-.02.63.08.88.09.24.34.47.49.68,1.35,1.79,2.84,3.47,4.34,5.13,1.52,1.68,3.05,3.34,4.47,5.1,1.47,1.81,2.81,3.73,3.9,5.8,1.19,2.24,2.05,4.64,2.57,7.13.63,3.02.74,6.12.53,9.19-.1,1.52-.28,3.03-.36,4.55-.08,1.54-.1,3.08-.08,4.62.02,1.44.09,2.88.25,4.32.11,1.01.24,2.08.62,3.03.15.38.39.74.59,1.11.23.44.46.89.68,1.34.11.32.54.07.4-.22Z"/>
      <path d="m42.12,38.79c-.18-1.51-.45-2.98-.96-4.42-.56-1.61-1.27-3.18-2.06-4.69-.53-1.02-1.11-2.02-1.72-3,0,.06.02.13.03.19.29-1.71,1.1-3.34,2.31-4.59.81-.84,2.11-1.85,3.38-1.58.66.14,1.11.66,1.36,1.27.06-.1.12-.21.17-.31-.68.21-1.09.8-1.34,1.44-.35.87-.46,1.84-.54,2.77-.25,2.69-.17,5.39-.38,8.08-.12,1.61-.33,3.21-.73,4.78-.08.31.4.44.48.13.7-2.69.83-5.49.92-8.25.04-1.28.07-2.56.15-3.83.06-.98.14-1.98.4-2.94.18-.66.48-1.46,1.19-1.69.12-.04.23-.18.17-.31-.46-1.1-1.37-1.81-2.6-1.64-1.31.18-2.46,1.12-3.3,2.09-1.04,1.21-1.89,2.8-2.1,4.4-.03.26.15.44.28.65.17.28.33.55.5.83.3.51.58,1.03.86,1.55.52.98,1,1.98,1.43,3.01.39.93.75,1.88,1.03,2.85.3,1.05.46,2.13.59,3.21.02.31.52.31.48,0Z"/>
      <path d="m73.34,81.09c-2.14-.86-4.47-1.05-6.71-.48-1.84.47-3.53,1.41-5.05,2.52-.69.51-1.36,1.05-2.01,1.61.13.1.26.2.39.3,1-1.75,2.08-3.45,3.25-5.09.6-.84,1.22-1.67,1.87-2.48.11-.14.25-.39.38-.47.08-.05.22-.07.32-.1.21-.06.43-.11.64-.16,1.82-.37,4.21-.31,5.65,1.04.96.9,1.15,2.23.97,3.48-.05.31.44.45.48.13.18-1.23.07-2.53-.71-3.54-.65-.85-1.65-1.34-2.67-1.58-1.07-.25-2.2-.26-3.29-.11-.49.07-.97.17-1.43.32-.4.13-.62.54-.88.86-.33.42-.65.84-.97,1.26-1.47,1.97-2.82,4.04-4.04,6.18-.15.26.18.48.39.3,2.69-2.28,5.77-4.36,9.44-4.33,1.33.01,2.62.31,3.85.8.29.14.42-.35.13-.46Z"/>
      <path d="m61.69,169.61c-1.11,1.28-1.83,2.87-2.93,4.15.13.02.26.03.39.05-2.42-5.5-4.34-11.21-6.17-16.93-1.89-5.9-3.66-11.84-5.67-17.7-1.98-5.77-4.17-11.49-6.95-16.93-2.66-5.22-5.88-10.2-9.91-14.47-4.32-4.59-9.55-8.24-15.37-10.68-.98-.41-1.98-.79-2.99-1.14v.48c6.6-1.41,13.76.74,19.46,4.07,2.33,1.36,4.46,3.03,6.3,5,1.66,1.79,3.07,3.79,4.31,5.89,1.43,2.41,2.66,4.92,3.94,7.41.12.24.45.1.47-.13.44-6.36.85-12.74,2.11-19,1.25-6.18,3.33-12.64,7.74-17.33,2.44-2.59,5.52-4.41,8.95-5.33-.08-.14-.16-.28-.24-.42-4.02,4.96-7.24,10.52-9.54,16.47-2.26,5.85-3.62,12.02-4.26,18.25-.64,6.34-.53,12.75.12,19.08.66,6.43,1.88,12.8,3.49,19.07,1.59,6.18,3.57,12.27,5.85,18.23.27.72.55,1.43.83,2.14.12.3.6.17.48-.13-2.32-5.87-4.35-11.84-6.03-17.93-1.7-6.17-3.03-12.45-3.83-18.8-.79-6.29-1.08-12.65-.65-18.98.42-6.21,1.55-12.38,3.55-18.29,2.03-6,4.98-11.68,8.76-16.76.5-.68,1.02-1.34,1.56-2,.15-.18.02-.49-.24-.42-3.1.82-5.94,2.37-8.28,4.56-2.27,2.13-4,4.77-5.33,7.57-2.87,6.08-4.02,12.87-4.73,19.51-.37,3.5-.6,7-.84,10.51.16-.04.31-.08.47-.13-2.3-4.47-4.48-9.08-7.84-12.87-3.91-4.42-9.33-7.49-14.98-9.07-3.79-1.06-7.88-1.49-11.75-.66-.26.06-.22.41,0,.48,6.34,2.19,12.11,5.71,16.9,10.42,4.18,4.11,7.53,8.98,10.29,14.14,2.86,5.35,5.12,11,7.13,16.71,2.04,5.81,3.82,11.71,5.68,17.57,1.8,5.69,3.66,11.37,5.96,16.88.27.64.54,1.27.81,1.9.06.14.3.16.39.05,1.1-1.29,1.82-2.87,2.93-4.15.22-.23-.13-.59-.34-.34Z"/>
      <path d="m18.38,98.72c-4.63.93-9.26,3.1-12.52,6.58-1.04,1.11-1.94,2.36-2.63,3.72.15.02.3.04.46.06-.54-1.6-.84-3.31-.55-4.99.23-1.37.83-2.64,1.73-3.69,1.73-2.04,4.3-3.25,6.86-3.87.08-.02.18-.06.26-.06.11,0,.25.08.36.11.3.1.59.21.89.32.59.22,1.17.45,1.75.69,1.13.48,2.25,1,3.34,1.58.28.15.54-.28.25-.43-2.03-1.07-4.15-1.97-6.32-2.72-.35-.12-.71.03-1.06.13-.35.09-.69.2-1.03.31-.67.22-1.32.49-1.95.8-2.55,1.25-4.78,3.34-5.46,6.19-.46,1.92-.18,3.92.45,5.77.06.19.35.26.46.06,2.31-4.54,6.77-7.53,11.5-9.16,1.1-.38,2.22-.68,3.36-.91.3-.08.16-.56-.15-.49Z"/>
      <path d="m14.4,58.91c-2.33-.79-4.37-2.17-6.23-3.75-1.58-1.34-3.04-2.83-4.74-4.04-.84-.59-1.74-1.1-2.73-1.38.06.1.12.21.17.31.39-1.02,1.17-1.78,2.27-1.94,1.29-.19,2.61.35,3.72.96-.04-.05-.08-.1-.11-.15.72,2.03,1.7,3.96,2.99,5.68,1.29,1.73,2.79,3.3,4.42,4.72.24.21.6-.14.35-.35-2.39-2.07-4.57-4.5-6.04-7.31-.37-.7-.69-1.41-.98-2.15-.1-.26-.16-.69-.38-.86-.28-.22-.7-.36-1.03-.5-1.04-.44-2.23-.73-3.36-.45-1.15.28-1.93,1.15-2.34,2.23-.05.13.05.27.17.31,1.84.52,3.35,1.83,4.75,3.07,1.67,1.48,3.3,3.01,5.17,4.23,1.18.77,2.45,1.4,3.78,1.86.32.09.45-.39.15-.49Z"/>
      <path d="m33.84,68.51c-4.91-1.49-9.77-3.27-14.2-5.88-4.21-2.49-8.19-5.85-10.7-10.11-2.3-3.92-3.12-8.45-3.35-12.93-.11-2.1-.1-4.2-.1-6.3,0-1.84,0-3.69-.18-5.52-.28-2.79-1.08-5.85-3.87-7.12-.33-.15-.68-.28-1.03-.38.06.08.12.16.18.24-.24-1.91,0-4.07,1.51-5.44,1.33-1.21,3.26-1.35,4.94-.91,1.25.33,2.4.95,3.44,1.7-.04-.09-.08-.19-.11-.28-.14,1.01-.32,2.01-.44,3.02-.12,1.04-.22,2.08-.28,3.12-.13,2.11-.15,4.22-.05,6.33.2,4.19.87,8.37,2.02,12.4,1.15,3.99,2.78,7.84,4.92,11.4,1.04,1.73,2.19,3.44,3.51,4.97,1.22,1.42,2.69,2.6,4.21,3.69,3.01,2.15,6.34,4.02,8.51,7.1.28.4.56.81.77,1.26.14.29.57.04.43-.25-.8-1.66-2.19-3.1-3.57-4.29-1.38-1.18-2.9-2.19-4.4-3.21-1.52-1.03-3.03-2.09-4.37-3.36-1.45-1.38-2.64-3.02-3.74-4.69-2.27-3.44-4.03-7.2-5.3-11.12-1.29-3.98-2.08-8.11-2.4-12.28s-.18-8.37.42-12.5c.07-.48.16-.97.23-1.45.02-.12-.01-.21-.11-.28-1.78-1.3-4.01-2.25-6.26-1.95-1.87.25-3.37,1.45-4.04,3.22-.46,1.21-.5,2.55-.34,3.82.01.11.07.21.18.24,1.33.38,2.47,1.15,3.2,2.33.76,1.23,1.08,2.69,1.26,4.11.22,1.79.24,3.6.24,5.4.01,2.09-.02,4.18.07,6.27.18,4.43.85,8.92,2.91,12.9,2.23,4.32,5.99,7.8,10.03,10.42,4.27,2.76,9.04,4.67,13.86,6.22.61.2,1.23.39,1.84.57.33.1.47-.38.16-.48Z"/>
      <path d="m46.53,118.56c-.6-1.17-1.2-2.35-1.81-3.52-.29-.55-.58-1.11-.88-1.66-.27-.5-.67-1.01-.71-1.59-.15-1.85-.12-3.72-.23-5.57-.25-4.2-.7-8.39-1.38-12.54-.77-4.71-1.84-9.38-3.26-13.94-.74-2.39-1.59-4.76-2.53-7.08-.87-2.14-1.7-4.34-3.18-6.15-2.41-2.96-5.84-4.75-8.84-7.01-3.27-2.46-5.62-5.8-7.58-9.35-3.94-7.13-5.89-15.28-6.09-23.39-.21-8.12,1.3-16.34,4.65-23.76.4-.88.82-1.75,1.27-2.61-.16-.04-.31-.08-.47-.13,0,3.47.57,6.93,1.9,10.15,1.13,2.75,2.75,5.25,4.6,7.57,3.74,4.7,8.3,8.73,11.36,13.95,1.69,2.88,2.85,6.03,3.4,9.33.34,2.01.46,4.05.42,6.08-.04,2.22-.34,4.42-.45,6.64-.11,2.3-.13,4.61,0,6.91.09,1.62.13,3.53.79,5.05.44,1.01,1.05,1.97,1.53,2.97.56,1.16,1.08,2.35,1.57,3.54.98,2.41,1.82,4.87,2.55,7.37,1.61,5.5,2.69,11.15,3.33,16.83.33,2.96.54,5.93.63,8.9.02.73-.11,1.46-.19,2.18-.09.8-.17,1.6-.24,2.41-.14,1.47-.26,2.95-.36,4.42-.1,1.37-.19,2.74-.28,4.11-.02.32.48.32.5,0,.2-2.92.39-5.85.67-8.76.14-1.51.46-3.07.41-4.58-.05-1.47-.12-2.94-.23-4.41-.42-5.71-1.27-11.41-2.61-16.98-1.21-5.04-2.83-10.02-5.03-14.72-.5-1.06-1.03-2.11-1.59-3.14-.37-.67-.51-1.43-.63-2.18-.35-2.17-.4-4.41-.39-6.61,0-4.38.77-8.74.46-13.12-.25-3.5-1.08-6.93-2.56-10.11-2.58-5.52-6.95-9.76-10.89-14.29-1.96-2.24-3.8-4.6-5.2-7.24-1.56-2.93-2.51-6.14-2.82-9.44-.09-.94-.13-1.89-.13-2.84,0-.24-.35-.35-.47-.13-3.72,7.1-5.67,15.08-5.97,23.08-.3,8.11,1.11,16.33,4.43,23.76,1.61,3.6,3.67,7.21,6.32,10.15,2.63,2.91,6.18,4.68,9.21,7.12,1.52,1.23,3,2.7,3.93,4.44.66,1.24,1.18,2.6,1.71,3.9.48,1.17.93,2.35,1.36,3.55,1.68,4.67,2.96,9.47,3.91,14.34.85,4.35,1.42,8.74,1.77,13.15.16,1.96.27,3.93.34,5.9.02.45.03.9.04,1.34,0,.41-.06.94.04,1.34.12.48.53.99.77,1.43.31.58.62,1.17.93,1.75.59,1.14,1.17,2.28,1.75,3.42.15.31.59.06.44-.23Z"/>
      <g>
        <path d="m36.89,64.2c-.05.67-.66,1.35-1.38,1.43-.73.09-1.55-.31-2.26-.52-.26-.08-.56-.18-.7-.4-.12-.19-.12-.42-.08-.62.11-.53.47-1,.97-1.26.62-.5,1.23-.98,1.85-1.47.2-.15.44-.31.67-.21.2.08.27.3.32.48.17.64.33,1.26.5,1.9.06.21.12.44.11.67Z"/>
        <g>
          <g>
            <path d="m35.87,33.09c-.08-.01-.16-.04-.23-.08-.07-.03-.13-.09-.18-.16-.05-.06-.09-.14-.1-.21-.02-.08-.03-.16-.02-.24s.04-.15.08-.23c.03-.07.09-.13.16-.18.06-.05.14-.08.21-.1.16-.04.33-.02.47.06.07.04.13.09.18.16.05.06.08.14.1.21.02.09.03.16.02.24s-.04.16-.08.23-.09.13-.16.18c-.06.05-.14.09-.21.1-.07.03-.15.04-.24.02Z"/>
            <path d="m33.84,30.08h0c-.18-.29-.1-.67.18-.85h0c.28-.18.67-.1.85.18h0c.18.28.11.67-.18.85h0c-.13.08-.27.11-.42.09h0c-.16-.02-.32-.12-.43-.27Zm-1.8-2.55c-.21-.27-.16-.66.11-.87h0c.27-.2.66-.15.86.12h0c.2.27.16.66-.11.86h0c-.14.11-.3.14-.46.12h0c-.15-.02-.3-.1-.4-.23Zm-1.98-2.44c-.22-.25-.18-.65.07-.86h0c.26-.22.65-.19.87.06h0c.22.26.19.65-.07.87h0c-.13.12-.31.16-.48.14h0c-.15-.02-.28-.09-.39-.21Zm-2.09-2.36c-.22-.25-.2-.64.05-.87h0c.25-.22.64-.2.87.05h0c.23.25.21.64-.05.87h0c-.14.13-.32.18-.49.16h0c-.14-.03-.28-.1-.38-.21Zm-2.12-2.36h0c-.23-.25-.21-.65.05-.87h0c.26-.23.64-.21.87.05h0c.22.25.2.64-.05.87h0c-.14.12-.33.17-.5.15h0c-.14-.02-.27-.08-.37-.2Zm-2.1-2.41c-.21-.26-.18-.65.08-.87h0c.26-.22.65-.18.87.08h0c.22.26.18.65-.08.87h0c-.14.11-.31.16-.47.13h0c-.15-.02-.29-.09-.4-.21Zm-1.66-3.05c0-.34.28-.62.61-.61h0c.34,0,.62.28.61.61h0c0,.34-.28.62-.61.61h-.08c-.3-.04-.53-.3-.53-.61Zm.88-2.54c-.33-.09-.51-.44-.41-.77h0c.1-.32.44-.51.77-.41h0c.33.09.51.44.41.77h0c-.09.29-.38.47-.68.43h0s-.05,0-.09-.02Zm1.35-2.87c-.2-.28-.14-.66.14-.86h0c.28-.2.66-.13.86.14h0c.2.28.14.66-.13.86h0c-.14.1-.29.13-.44.1h0c-.18-.01-.33-.09-.43-.24Zm3.4-.22c-.33-.08-.53-.4-.45-.73h0c.08-.34.41-.54.74-.46h0c.33.08.53.4.45.74h0c-.08.3-.37.51-.68.46h0s-.04,0-.06,0Z"/>
            <path d="m30.29,11.1c-.16-.02-.31-.11-.41-.24-.05-.06-.09-.14-.1-.21-.02-.08-.03-.16-.02-.24s.04-.16.08-.23c.03-.07.09-.13.16-.18.19-.15.47-.17.68-.04.07.04.13.09.18.16.05.06.08.14.1.21.02.09.03.16.02.24s-.04.15-.08.23c-.04.07-.09.13-.16.18-.06.05-.14.08-.21.1-.09.03-.16.03-.24.02Z"/>
            <path d="m34.44,26.92c-.19-.27-.12-.66.17-.85h0c.27-.19.66-.12.85.17h0c.18.28.12.66-.17.85h0c-.13.09-.28.12-.43.1h0c-.17-.03-.32-.12-.42-.27Zm-1.85-2.47c-.21-.26-.17-.65.09-.86h0c.26-.22.65-.17.87.09h0c.21.26.17.65-.09.86h0c-.14.11-.31.16-.47.13h0c-.16-.03-.31-.1-.4-.22Zm-1.91-2.58h0c-.19-.28-.12-.66.17-.85h0c.28-.18.66-.11.85.17h0c.18.28.11.67-.17.85h0c-.14.09-.28.12-.43.1h0c-.17-.03-.32-.12-.42-.27Zm-1.65-2.77c-.16-.3-.03-.67.27-.83h0c.29-.15.67-.03.82.27h0c.15.3.03.67-.27.83h0c-.12.06-.24.07-.36.06h0c-.19-.03-.37-.14-.46-.33Zm-1.2-3.06c-.08-.33.12-.66.45-.74h0c.33-.09.66.11.75.44h0c.08.33-.12.66-.45.74h0c-.08.02-.16.03-.23.02h0c-.24-.03-.45-.21-.52-.46Zm.36-2.66c-.33-.09-.52-.44-.42-.76h0c.09-.33.43-.52.75-.43h0c.33.09.52.44.42.76h0c-.09.3-.38.48-.67.44h0s-.06-.01-.09-.01Z"/>
            <path d="m36.52,29.86c-.08-.01-.16-.04-.23-.08-.07-.04-.13-.09-.18-.16-.05-.06-.08-.14-.1-.21-.02-.08-.03-.16-.02-.24.02-.16.11-.31.24-.41.06-.05.14-.08.21-.1.24-.07.5.03.65.22.05.06.08.14.1.21.02.08.03.16.02.24s-.04.16-.08.23-.09.13-.16.18c-.13.1-.29.14-.45.12Z"/>
          </g>
          <g>
            <path d="m8.87,36.13c-.16-.02-.31-.11-.41-.24s-.14-.29-.12-.45c.01-.08.04-.15.08-.23.03-.07.09-.13.16-.18.06-.05.13-.08.21-.1.15-.04.33-.02.47.07.07.04.13.09.18.16.05.06.08.14.1.21.02.09.03.16.02.24-.02.16-.11.31-.24.41-.13.09-.29.13-.45.11Z"/>
            <path d="m7.86,32.45h0c-.04-.34.2-.64.53-.68h0c.34-.04.64.2.69.53h0c.04.34-.2.64-.53.69h0c-.06.01-.11,0-.16-.01h0c-.27-.04-.49-.25-.53-.53Zm-.3-3.21c-.03-.34.23-.63.57-.66h0c.33-.02.63.24.65.57h0c.03.34-.23.64-.57.66h0s-.08.01-.12,0h0c-.29-.04-.51-.27-.53-.57Zm-.13-3.21h0c.01-.34.28-.62.61-.62h0c.35-.01.63.27.63.61h0c0,.34-.27.62-.61.62h-.09c-.31-.05-.54-.31-.54-.61Zm.05-3.22h0c.01-.34.3-.6.64-.59h0c.34.01.6.31.58.64h0c-.01.34-.3.6-.63.58h-.06c-.31-.04-.54-.31-.53-.63Zm.23-3.21h0c.03-.34.33-.59.67-.55h0c.34.03.58.33.55.67h-.01c-.03.33-.33.58-.66.55h-.03c-.32-.05-.56-.35-.52-.67Z"/>
            <path d="m8.63,17.1c-.16-.02-.31-.11-.41-.24s-.14-.29-.12-.45c.02-.16.11-.31.24-.41.06-.05.13-.08.21-.1.24-.07.5.03.65.22.1.13.14.29.12.46-.02.16-.11.31-.24.41-.06.05-.13.08-.21.1-.07.01-.15.02-.24.01Z"/>
            <path d="m2.52,16.81c-.25-.23-.25-.62-.02-.86h0c.22-.25.62-.26.86-.03h0c.25.23.26.62.03.87h0c-.14.15-.34.21-.53.18h0c-.12-.02-.24-.07-.34-.16Zm2.67-1.42c.04-.33.34-.58.67-.54h.01c.34.03.58.33.54.67h0c-.03.34-.34.58-.67.54h-.02c-.33-.05-.56-.34-.53-.67Z"/>
            <path d="m1.92,19.87c-.16-.02-.31-.11-.41-.24s-.14-.29-.12-.45c.02-.16.11-.31.24-.41.25-.2.66-.14.86.12.1.13.14.29.12.45-.02.16-.11.31-.24.41-.12.1-.28.15-.45.12Z"/>
            <path d="m6.37,31.62c0-.34.27-.62.61-.62h0c.34,0,.62.27.62.61h0c0,.34-.27.62-.61.62h-.09c-.31-.05-.54-.31-.53-.61Zm-.15-3.49c-.03-.34.23-.64.56-.67h0c.34-.03.64.22.67.56h0c.03.33-.23.63-.56.66h0s-.09,0-.13,0h0c-.29-.03-.52-.26-.54-.55Zm-.55-3.37c-.09-.33.11-.66.44-.76h0c.33-.09.66.11.75.43h0c.09.33-.1.66-.43.75h0c-.09.02-.17.03-.25.02h0c-.24-.03-.45-.2-.51-.44Zm-1.39-2.97h0c-.21-.27-.16-.66.11-.86h0c.28-.2.66-.15.86.12h.01c.2.27.15.65-.12.86h0c-.14.1-.3.14-.45.12h0c-.16-.03-.31-.11-.41-.24Z"/>
            <path d="m6.9,35.76c-.16-.02-.31-.11-.41-.24s-.14-.29-.12-.45c.02-.16.11-.31.24-.41.19-.15.47-.16.68-.04.07.04.13.09.18.16.05.06.08.14.1.21.02.09.03.16.02.24-.02.16-.11.31-.24.41-.06.05-.14.09-.21.1-.07.03-.16.03-.24.02Z"/>
          </g>
          <g>
            <path d="m13.66,41.14c-.16-.02-.31-.11-.41-.24-.05-.06-.08-.14-.1-.21-.02-.09-.03-.16-.02-.24s.04-.15.08-.23c.04-.07.09-.13.16-.18.19-.15.47-.17.68-.04.07.04.13.09.18.16.05.06.08.14.1.21.02.09.03.16.02.24s-.04.15-.08.23c-.04.07-.09.13-.16.18-.06.05-.13.08-.21.1-.08.03-.16.03-.24.02Z"/>
            <path d="m12.26,37.36h0c-.07-.32.13-.66.46-.73h0c.33-.08.66.12.74.46h0c.07.33-.13.66-.47.74h0c-.08.01-.14.02-.22.01h0c-.24-.04-.44-.22-.51-.48Zm-.66-3.39h0c-.05-.34.17-.65.51-.71h0c.33-.05.65.17.71.51h0c.05.33-.17.65-.51.7h0c-.06.01-.13.02-.18.01h0c-.27-.04-.49-.24-.53-.51Zm-.45-3.44c-.03-.34.22-.64.55-.67h0c.34-.04.64.21.67.55h0c.04.34-.21.64-.55.67h0s-.1.01-.15,0h0c-.26-.03-.48-.26-.52-.55Zm-.21-3.45c-.02-.34.25-.63.59-.64h0c.33-.01.62.26.63.6h0c.01.34-.25.62-.59.63h0s-.07,0-.1-.01h0c-.3-.03-.53-.27-.53-.58Zm-.01-3.46c.01-.35.29-.61.63-.6h0c.35.01.61.29.6.64h0c-.01.34-.3.6-.64.59h-.07c-.31-.04-.53-.31-.52-.63Zm.2-3.45c.03-.34.33-.59.67-.56h0c.33.03.58.33.55.67h0c-.03.34-.33.58-.66.55h-.03c-.33-.05-.56-.33-.53-.66Zm.94-2.74c-.34-.05-.57-.36-.52-.7h0c.05-.33.37-.56.7-.52h0c.34.05.57.37.51.71h0c-.05.33-.35.56-.69.51h0Zm.6-3.37c-.34-.07-.54-.41-.47-.73h0c.07-.33.4-.54.73-.47h0c.33.08.54.41.46.73h.01c-.08.31-.37.52-.69.48h0s-.03,0-.04-.01Zm.8-3.33c-.33-.09-.51-.43-.42-.76h0c.1-.33.43-.51.76-.42h0c.33.09.52.44.42.76h.01c-.09.3-.38.48-.68.44h0s-.06,0-.09-.02Z"/>
            <path d="m14.64,7.5c-.08-.01-.16-.04-.23-.08-.07-.03-.13-.09-.18-.16-.1-.13-.14-.29-.12-.45s.11-.31.24-.41c.19-.15.47-.17.68-.04.07.04.13.09.18.16.1.13.14.29.12.45-.02.16-.11.31-.24.41-.06.05-.14.09-.21.1-.08.02-.16.03-.24.02Z"/>
            <path d="m28.77,28.99c-.21-.26-.17-.65.09-.86h0c.27-.21.65-.17.86.1h0c.21.27.17.65-.09.86h0c-.14.1-.31.15-.47.13h0c-.15-.02-.29-.1-.39-.23Zm-2.11-2.51c-.22-.25-.2-.64.05-.86h0c.26-.23.65-.2.87.05h0c.22.25.2.64-.05.87h0c-.14.12-.32.17-.49.15h0c-.14-.02-.28-.09-.38-.21Zm-2.2-2.45h0c-.23-.25-.21-.63.04-.86h0c.25-.23.63-.21.86.04h0c.23.25.21.64-.04.87h0c-.14.13-.32.18-.5.15h0c-.13-.02-.26-.09-.36-.2Zm-2.22-2.48c-.22-.25-.2-.64.06-.86h0c.25-.23.64-.2.87.05h0c.22.25.19.65-.06.87h0c-.14.12-.32.17-.49.15h0c-.14-.02-.28-.08-.38-.21Zm-2.13-2.56c-.21-.27-.16-.66.1-.86h0c.27-.21.66-.17.86.1h0c.21.27.17.65-.1.86h0c-.14.1-.3.15-.46.13h0c-.16-.02-.3-.1-.4-.23Zm-1.97-2.72c-.18-.29-.11-.67.18-.85h0c.28-.18.66-.11.85.18h0c.18.28.11.66-.18.85h0c-.14.08-.28.11-.43.09h0c-.16-.02-.31-.12-.42-.27Zm-1.7-2.91c-.16-.3-.04-.67.26-.82h0c.3-.16.67-.04.82.26h0c.16.3.04.68-.26.83h0c-.12.06-.24.07-.36.06h0c-.19-.03-.37-.14-.46-.33Zm-1.36-3.09h0c-.12-.32.04-.67.37-.79h0c.31-.11.67.05.78.36h0c.12.32-.04.68-.37.79h0c-.1.04-.2.05-.29.03h0c-.21-.02-.41-.17-.49-.39Z"/>
            <path d="m31.11,31.89c-.16-.02-.31-.11-.41-.24-.05-.06-.09-.14-.1-.21-.02-.08-.03-.16-.02-.24s.04-.15.08-.23c.03-.07.09-.13.16-.18.19-.15.46-.17.68-.04.07.04.13.09.18.16.05.06.08.14.1.21.02.09.03.16.02.24s-.04.16-.08.23-.09.13-.16.18-.14.08-.21.1c-.08.03-.16.03-.24.02Z"/>
          </g>
          <g>
            <path d="m27.63,19.3c-.11-.01-.2-.08-.27-.16-.06-.08-.1-.2-.08-.3.02-.11.07-.21.16-.27.17-.13.44-.1.57.08.04.04.06.09.07.14.02.05.02.1,0,.16,0,.05-.02.1-.05.15-.02.05-.06.09-.11.12-.08.06-.19.1-.3.08Z"/>
            <path d="m25.44,16.95h0c-.14-.18-.12-.44.05-.58h0c.17-.14.43-.12.58.05h0c.14.17.12.43-.05.57h0c-.09.08-.21.11-.32.1h0c-.09-.01-.19-.06-.26-.14Zm-1.38-2.76c.02-.23.21-.4.44-.39h0c.22.02.39.22.38.44h0c-.02.23-.21.39-.44.38h-.02c-.22-.03-.37-.22-.36-.43Zm.93-2.45c-.2-.1-.28-.34-.17-.54h0c.1-.2.35-.28.55-.18h0c.2.1.27.35.17.55h0c-.08.16-.26.24-.42.22h0s-.09-.02-.13-.05Z"/>
            <path d="m27.59,10.84c-.11-.02-.21-.07-.28-.15-.06-.08-.09-.19-.07-.31,0-.11.07-.21.15-.27.14-.1.32-.1.46-.03.05.03.08.06.12.11.06.08.1.2.08.3-.02.11-.08.2-.16.28-.08.06-.19.08-.3.07Z"/>
            <path d="m26.31,16.19c-.05-.22.09-.44.31-.49h0c.22-.05.43.08.49.31h0c.05.21-.09.43-.31.49h0s-.1.01-.15,0h0c-.16-.02-.3-.14-.34-.31Zm-.2-3.1h0c.03-.22.24-.38.46-.35h0c.23.03.38.23.35.46h0c-.02.22-.24.38-.45.35h0c-.23-.03-.39-.23-.36-.46Z"/>
          </g>
          <g>
            <path d="m6.42,21.19c-.11-.02-.21-.07-.28-.15-.06-.09-.09-.19-.07-.31.01-.11.07-.21.15-.27.05-.03.09-.05.14-.07.16-.04.34.02.43.15.06.08.1.2.08.3-.01.11-.08.2-.16.28-.08.06-.19.08-.29.07Z"/>
            <path d="m5.03,19.68c-.17-.16-.17-.41-.02-.58h0c.16-.16.42-.17.59-.01h0c.16.16.17.42,0,.58h0c-.09.1-.23.14-.35.13h0c-.08-.02-.17-.05-.22-.12Z"/>
            <path d="m3.81,18.68c-.11-.02-.21-.07-.28-.15-.06-.08-.09-.19-.07-.3s.07-.21.15-.28c.17-.12.44-.1.58.08.06.08.1.2.08.31-.01.11-.08.2-.16.27-.08.06-.19.08-.3.07Z"/>
            <path d="m4.67,17.22c-.02-.23.14-.43.37-.45h0c.23-.02.43.14.45.37h0c.02.23-.15.43-.38.44h0s-.06.01-.09,0h0c-.18-.02-.33-.17-.35-.36Z"/>
            <path d="m6.76,17.9c-.11-.01-.2-.08-.27-.16-.03-.04-.05-.09-.06-.14-.02-.05-.02-.11-.01-.16.02-.11.07-.21.15-.28.17-.12.45-.09.58.08.07.09.1.2.08.31-.01.05-.02.1-.05.15-.03.05-.06.08-.11.12-.09.06-.2.09-.31.08Z"/>
            <path d="m6.22,19.09h0c.02-.22.22-.39.45-.37h0c.23.02.39.23.37.46h0c-.02.22-.23.38-.45.36h-.01c-.23-.03-.39-.23-.36-.45Z"/>
          </g>
          <g>
            <path d="m14.94,38.98c-.06-.01-.1-.02-.15-.05-.05-.02-.09-.06-.12-.11-.07-.08-.1-.2-.08-.3.01-.06.02-.1.05-.15.02-.05.06-.09.11-.12.04-.04.09-.06.14-.07.1-.03.21-.01.31.04.05.02.09.06.12.11.04.04.06.09.07.14.02.05.02.1.01.16-.01.11-.07.21-.16.27-.04.04-.09.06-.14.07-.05.02-.11.02-.16,0Z"/>
            <path d="m13.85,35.45h0c-.04-.22.1-.43.32-.48h0c.22-.04.44.09.49.32h0c.04.23-.1.44-.32.49h0s-.09.01-.14.01h0c-.17-.03-.32-.16-.35-.34Zm-.54-3.26c-.03-.22.13-.43.35-.46h0c.23-.03.43.13.46.35h.01c.03.22-.13.43-.35.46h0s-.08.01-.12,0h0c-.18-.02-.33-.16-.35-.35Zm-.33-3.29c-.02-.23.16-.42.38-.44h0c.23-.02.42.15.44.37h0c.02.23-.16.42-.38.44h-.08c-.2-.02-.35-.18-.36-.37Zm-.13-3.31c0-.22.18-.41.41-.41h0c.22,0,.41.18.41.41h-.01c0,.22-.18.41-.4.41h0s-.04,0-.06,0h0c-.19-.03-.35-.2-.35-.41Zm.08-3.3c.01-.23.2-.4.43-.39h0c.23.01.4.2.39.43h0c-.02.23-.2.4-.43.39h-.03c-.22-.03-.37-.22-.36-.43Zm.28-3.31c.03-.22.23-.38.45-.36h0c.23.03.39.23.36.45h0c-.02.23-.23.39-.45.36h-.01c-.22-.02-.38-.23-.35-.45Zm.83-2.79c-.23-.04-.38-.25-.33-.48h0c.04-.22.25-.37.48-.33h0c.22.05.37.26.32.47h.01c-.05.22-.25.36-.46.33h-.02Z"/>
            <path d="m14.74,12.98c-.11-.01-.21-.07-.27-.16-.07-.08-.1-.2-.08-.3.01-.11.07-.21.16-.27.17-.13.44-.1.57.08.07.08.1.2.08.3-.01.11-.07.21-.16.27-.08.07-.19.09-.3.08Z"/>
            <path d="m26.87,29.1c-.15-.18-.12-.43.05-.58h0c.17-.14.43-.12.57.05h0c.14.17.12.43-.05.58h0c-.09.07-.2.1-.32.09h0c-.09,0-.18-.06-.25-.14Zm-2.24-2.58h0c-.15-.16-.13-.42.04-.57h0c.16-.15.42-.14.57.03h0c.15.17.14.42-.03.58h0c-.09.08-.21.11-.33.1h0c-.09-.02-.17-.06-.25-.14Zm-2.29-2.53h0c-.15-.17-.14-.43.03-.58h0c.17-.15.42-.14.57.03h0c.15.17.14.43-.03.58h0c-.09.08-.21.11-.33.1h0c-.08-.02-.17-.05-.24-.13Zm-2.26-2.59h0c-.14-.18-.12-.44.05-.58h0c.17-.15.43-.12.57.05h0c.15.18.12.43-.05.58h0c-.09.08-.21.1-.32.09h0c-.08,0-.18-.06-.25-.14Zm-2.13-2.7h0c-.13-.18-.1-.44.09-.57h0c.18-.13.43-.1.58.09h0c.13.18.1.44-.09.58h0c-.09.06-.2.09-.3.07h0c-.11-.03-.21-.08-.28-.17Zm-1.92-2.88h0c-.11-.2-.05-.44.14-.57h0c.2-.11.44-.05.56.14h0c.12.2.05.45-.14.56h0c-.09.05-.18.07-.27.05h0c-.11-.01-.22-.07-.29-.18Z"/>
            <path d="m29.22,31.95c-.11-.01-.21-.07-.27-.16-.04-.04-.06-.09-.07-.14-.02-.05-.02-.11,0-.16,0-.11.07-.21.16-.27.12-.1.31-.11.45-.03.05.02.09.06.12.11.07.08.1.2.08.3,0,.11-.07.21-.16.27-.04.04-.09.06-.14.07-.06.02-.11.02-.16.01Z"/>
          </g>
          <g>
            <path d="m16.25,36.92s-.1-.02-.15-.05c-.05-.02-.09-.06-.12-.1-.07-.09-.1-.2-.08-.31.01-.11.07-.21.16-.27.04-.04.09-.06.14-.07.1-.03.22-.01.31.04.05.02.08.06.12.11.07.08.1.2.08.3-.01.11-.07.21-.16.28-.04.03-.09.05-.14.06-.05.02-.11.02-.16.01Z"/>
            <path d="m15.29,33.47c-.04-.22.11-.43.34-.47h0c.22-.04.43.11.47.33h0c.03.23-.11.44-.34.47h0s-.08.01-.12,0h0c-.18-.02-.33-.15-.35-.33Zm-.42-3.17c-.03-.23.14-.43.37-.45h0c.22-.02.42.14.45.37h0c.02.23-.14.43-.37.45h0s-.07.01-.1,0h0c-.19-.03-.34-.18-.35-.37Zm-.23-3.19c-.01-.23.17-.42.39-.43h0c.22-.01.41.16.43.39h0c.01.22-.16.42-.39.43h-.07c-.2-.03-.35-.19-.36-.39Zm-.03-3.19h0c.01-.23.2-.41.42-.41h0c.23.01.4.2.4.42h0c-.01.23-.2.41-.42.41h0s-.03,0-.05-.01h0c-.19-.03-.35-.21-.35-.41Zm.18-3.2c.01-.23.21-.4.44-.38h0c.23.02.39.22.38.45h0c-.02.22-.22.39-.45.37h-.02c-.22-.03-.37-.22-.35-.44Z"/>
            <path d="m15.51,18s-.1-.02-.15-.05c-.05-.02-.09-.06-.12-.11-.07-.08-.1-.2-.08-.3.01-.11.07-.21.16-.27.04-.04.09-.06.14-.07.16-.04.33.02.43.15.07.08.1.2.08.3-.01.06-.02.1-.05.15-.02.05-.06.09-.11.12-.04.04-.09.06-.14.07-.05.02-.11.02-.16,0Z"/>
            <path d="m25.09,29.68c-.14-.17-.12-.43.05-.57h0c.18-.15.43-.13.58.05h0c.15.17.12.43-.05.57h0c-.09.08-.21.11-.32.1h0c-.1-.02-.19-.07-.26-.15Zm-2.02-2.3h0c-.15-.17-.14-.43.03-.58h0c.17-.15.42-.14.58.03h0c.15.17.13.42-.04.58h0c-.09.08-.21.11-.33.1h0c-.08-.01-.18-.05-.24-.13Zm-2.07-2.28c-.15-.17-.14-.42.03-.57h0c.17-.15.42-.14.58.03h0c.15.17.13.42-.04.57h0c-.09.09-.21.12-.33.1h0c-.08-.01-.17-.06-.24-.13Zm-2.03-2.33h0c-.15-.17-.13-.43.05-.57h0c.17-.15.43-.13.57.05h0c.15.17.13.43-.05.57h0c-.09.08-.21.11-.32.1h0c-.1-.02-.19-.06-.25-.15Zm-1.95-2.41c-.13-.18-.1-.43.08-.57h0c.18-.14.44-.11.58.07h0c.13.18.1.44-.08.58h0c-.09.07-.2.1-.31.08h0c-.1,0-.2-.07-.27-.16Z"/>
            <path d="m27.27,32.23c-.11-.01-.21-.07-.27-.16-.07-.08-.1-.2-.08-.3,0-.11.07-.21.16-.27.04-.04.09-.06.14-.07.1-.03.22-.01.31.04.05.02.09.06.12.11.04.04.06.09.07.14.02.05.02.1,0,.16,0,.11-.07.21-.16.27-.04.04-.09.06-.14.07-.05.02-.11.02-.16,0Z"/>
          </g>
          <g>
            <path d="m17.81,27.45c-.11-.01-.21-.07-.27-.15-.06-.09-.1-.2-.08-.31,0-.05.03-.1.05-.15.03-.05.07-.09.11-.12.05-.04.09-.06.14-.07.11-.03.22-.01.32.04.05.02.08.06.12.11.06.08.09.19.07.3,0,.11-.07.21-.15.28-.04.03-.09.05-.14.06-.06.02-.11.02-.17.01Z"/>
            <path d="m17.7,28.91c-.03-.23.13-.43.35-.46h0c.22-.02.43.13.45.36h0c.03.23-.13.43-.35.46h0s-.08.01-.11,0h0c-.17-.03-.33-.18-.34-.36Z"/>
            <path d="m18.27,31.07c-.11-.01-.2-.08-.27-.16-.04-.05-.05-.09-.07-.14-.02-.05-.02-.11,0-.16,0-.06.02-.1.05-.15s.06-.09.11-.13c.13-.09.31-.11.45-.02.05.02.09.06.13.1.03.05.05.1.07.15,0,.05.02.1,0,.16,0,.05-.03.1-.05.15-.03.05-.07.08-.11.12-.05.03-.1.05-.15.07-.06.01-.11.02-.16.01Z"/>
          </g>
          <g>
            <path d="m19.02,25.62c-.11-.01-.21-.07-.27-.15-.04-.05-.05-.09-.07-.14-.02-.06-.02-.11,0-.17,0-.11.08-.2.16-.27.13-.1.31-.11.45-.03.04.03.09.06.13.11.06.09.1.2.08.3,0,.06-.03.1-.05.16-.03.05-.07.08-.11.12-.04.03-.1.05-.15.07-.05,0-.1,0-.16,0Z"/>
            <path d="m19.83,27.32c-.11-.19-.05-.44.15-.56h0c.2-.11.44-.05.56.15h0c.11.19.05.44-.15.56h0c-.08.05-.17.07-.26.06h0c-.12-.02-.24-.1-.3-.21Z"/>
            <path d="m21.23,29.42c-.11-.01-.2-.08-.27-.16-.07-.08-.1-.2-.08-.3,0-.06.02-.1.05-.15.02-.05.06-.09.11-.12.12-.1.31-.11.45-.03.05.02.09.06.12.11.07.08.1.2.08.3,0,.11-.07.21-.16.27-.08.06-.19.09-.3.08Z"/>
          </g>
        </g>
        <path d="m65.88,80.03c.47-.14.96-.2,1.44-.28.44-.07.88-.12,1.33-.14.44-.02.88.01,1.32.08.23.04.47.09.7.13.12.02.23.04.36.02.11-.02.21-.08.31-.1.1-.02.17-.14.1-.23-.17-.18-.26-.35-.52-.43-.25-.08-.5-.12-.76-.15-.52-.06-1.04-.07-1.56-.02-.49.04-1,.15-1.46.32-.47.17-.88.46-1.28.75-.02.02,0,.06.02.05h0Z"/>
        <path d="m3.89,105.96c.32-.63.78-1.2,1.24-1.72s.91-1.05,1.44-1.5c.52-.45,1.09-.84,1.69-1.18.56-.32,1.26-.51,1.69-1.02.08-.09.01-.21-.09-.23-.71-.15-1.42.29-2,.63-.64.37-1.23.82-1.76,1.33-.52.49-1.03,1.02-1.39,1.64-.38.64-.64,1.33-.9,2.03-.03.04.05.07.08.02h0Z"/>
        <path d="m3.93,104.3c.17-.52.49-1.04.78-1.5.29-.48.61-.93.99-1.34.37-.4.79-.75,1.25-1.06.24-.16.48-.3.73-.45.23-.13.4-.33.59-.51.05-.05.01-.14-.06-.15-.27-.01-.55-.01-.8.11-.27.12-.53.29-.77.46-.5.34-.95.77-1.35,1.23-.38.44-.74.94-.99,1.47-.12.26-.23.53-.31.81-.08.3-.11.6-.16.91-.02.05.08.08.1.02h0Z"/>
        <path d="m31.75,105.91c.47,1.15,1.29,2.14,1.98,3.17.71,1.07,1.42,2.14,2.11,3.22,1.44,2.24,2.79,4.54,4.06,6.88,2.5,4.62,4.68,9.43,6.5,14.35,1.02,2.77,1.83,5.62,2.91,8.37.08.2.41.12.37-.1-.44-2.56-1.28-5.01-2.14-7.45-.9-2.54-1.9-5.04-2.99-7.51-2.14-4.83-4.66-9.5-7.5-13.96-.78-1.23-1.58-2.45-2.43-3.63-.84-1.16-1.65-2.49-2.78-3.39-.05-.03-.1.01-.09.05h0Z"/>
        <path d="m38.39,111.92c1.34,2.24,2.76,4.47,3.98,6.78,1.19,2.25,1.98,4.64,2.81,7.04.03.1.17.05.17-.04-.06-2.61-1.21-5.07-2.43-7.34-1.27-2.34-2.78-4.43-4.41-6.52-.07-.07-.16,0-.12.08h0Z"/>
        <path d="m49.19,130.91c.02,1.21-.03,2.39.07,3.6.1,1.19.24,2.38.41,3.56.34,2.36.83,4.7,1.4,7.02,1.13,4.55,2.56,9.12,4.76,13.27.09.17.34.07.28-.11-1.64-4.46-3.33-8.88-4.46-13.51-.54-2.23-.97-4.48-1.34-6.75-.38-2.34-.8-4.72-1.04-7.08-.01-.06-.08-.05-.08,0h0Z"/>
        <path d="m49.33,125c-.02-2.24.03-4.49.15-6.72.12-2.1.49-4.21.45-6.31,0-.14-.22-.16-.27-.04-.7,2.05-.78,4.36-.85,6.51-.07,2.22.04,4.39.34,6.59.02.1.18.08.18-.03h0Z"/>
        <path d="m47.72,121.1c.27-3.29.55-6.61.99-9.88.44-3.29,1.15-6.53,1.59-9.81.01-.11-.15-.16-.19-.05-1.07,3.15-1.58,6.49-1.99,9.78-.41,3.32-.61,6.62-.49,9.96,0,.05.08.05.09,0h0Z"/>
        <path d="m37,106.73c1.75,2.79,3.85,5.36,5.63,8.14,1.77,2.77,3.18,5.77,5,8.49.07.1.21,0,.17-.1-.96-3.14-2.84-6.08-4.61-8.82-1.79-2.75-3.68-5.57-6.14-7.77-.03-.02-.07.03-.05.06h0Z"/>
        <path d="m38.1,75.99c1.58,5.71,3.23,11.43,4.27,17.27.51,2.86.88,5.74,1.09,8.64.11,1.48.16,2.96.19,4.44.02.81.02,1.63,0,2.44,0,.67-.08,1.36.06,2.02.02.12.21.17.26.04.34-1.05.24-2.28.26-3.38.02-1.1,0-2.19-.04-3.28-.1-2.35-.31-4.7-.61-7.04-.61-4.59-1.56-9.15-2.83-13.6-.74-2.58-1.59-5.09-2.56-7.59-.04-.05-.12,0-.1.04h0Z"/>
        <path d="m38.12,69.66c1.81,4.56,3.61,9.09,4.82,13.86,1.19,4.67,1.98,9.44,2.5,14.22.15,1.34.28,2.69.41,4.04.13,1.39.14,2.79.48,4.15.03.11.19.13.21,0,.14-1.19,0-2.36-.08-3.55-.08-1.22-.18-2.43-.31-3.64-.26-2.51-.57-5.02-.98-7.51-.79-4.8-1.89-9.58-3.53-14.16-.92-2.59-1.99-5.11-3.44-7.45-.04-.04-.1,0-.08.04h0Z"/>
        <path d="m2.21,49.55c.33,0,.66.13.97.25.28.11.54.26.8.4.49.28.96.61,1.41.96.44.35.86.72,1.26,1.11.2.19.37.42.58.6.19.17.42.27.64.4.1.06.18-.07.16-.16-.09-.29-.17-.57-.37-.81-.19-.24-.42-.46-.64-.67-.45-.44-.94-.83-1.46-1.19-.5-.34-1.03-.67-1.58-.91-.28-.12-.61-.24-.92-.28-.3-.03-.59.06-.86.17-.09.04-.05.13.01.13h0Z"/>
        <path d="m35.27,65.55c-2.78-1.6-5.55-3.05-8.01-5.16-2.44-2.1-4.23-4.67-6.17-7.2-.12-.16-.38-.01-.31.18,1.13,3.06,3.48,5.62,5.92,7.73,2.4,2.07,5.38,3.98,8.53,4.57.08,0,.09-.09.04-.12h0Z"/>
        <path d="m35.68,63.29c-2.35-1.15-4.58-2.71-6.46-4.53-.93-.9-1.8-1.89-2.57-2.94-.79-1.06-1.38-2.26-2.2-3.29-.08-.1-.3-.04-.26.11.32,1.25,1.11,2.36,1.86,3.39.8,1.09,1.7,2.1,2.69,3.02,2.03,1.9,4.32,3.31,6.92,4.28.03.01.04-.03.02-.04h0Z"/>
        <path d="m33.16,60.85c-1.41-2.27-2.94-4.47-4.39-6.71-.72-1.1-1.42-2.22-2.09-3.35-.7-1.17-1.31-2.37-2.22-3.37-.07-.07-.18-.01-.15.09.37,1.27,1.07,2.35,1.76,3.47.7,1.16,1.43,2.3,2.17,3.43,1.48,2.26,3.07,4.49,4.88,6.49.01.03.06,0,.04-.05h0Z"/>
        <path d="m34.5,59.39c-2.65-4.25-5.47-8.44-7.64-12.97-1-2.09-1.89-4.24-2.58-6.45-.73-2.32-1.07-4.71-1.65-7.07-.03-.13-.25-.16-.26,0-.12,2.31.48,4.6,1.15,6.8.71,2.35,1.64,4.63,2.74,6.82,2.28,4.59,5.12,8.82,8.19,12.91.02.05.07,0,.05-.04h0Z"/>
        <path d="m35.73,58.03c-1.5-2.68-2.96-5.4-4.34-8.15-.68-1.35-1.3-2.73-1.84-4.15-.55-1.45-.95-2.95-1.54-4.38-.05-.12-.22-.06-.21.06.08,1.51.56,2.91,1.08,4.31.56,1.5,1.22,2.96,1.94,4.39,1.41,2.79,3.14,5.34,4.87,7.93,0,.03.05.01.04-.01h0Z"/>
        <path d="m36.48,56.5c-.95-2.35-1.88-4.7-2.66-7.11-.4-1.23-.76-2.48-1.07-3.74-.29-1.19-.44-2.44-.98-3.53-.04-.09-.19-.08-.2.03-.14,1.25.24,2.51.55,3.71.32,1.23.68,2.46,1.09,3.66.83,2.45,1.87,4.81,3.23,7.02,0,.02.05-.01.04-.04h0Z"/>
        <path d="m35.25,45.56c.04.73.34,1.42.48,2.14.07.36.11.72.17,1.08.06.37.17.73.23,1.1.02.11.18.11.2,0,.08-.39.17-.75.15-1.15,0-.4-.08-.8-.17-1.19-.17-.73-.36-1.53-.91-2.07-.06-.06-.15.02-.15.09h0Z"/>
        <path d="m1.61,20.1c.1-.24.21-.47.29-.72.07-.25.12-.51.2-.77.14-.49.32-.98.57-1.43.19-.35.45-.67.75-.93.15-.13.31-.26.48-.36.24-.14.44-.22.57-.48.09-.18-.02-.41-.19-.48-.49-.21-1.06.23-1.41.54-.38.35-.69.77-.92,1.23-.26.49-.42,1.03-.51,1.58-.05.29-.1.59-.11.89-.01.31.04.6.09.9.02.1.15.12.19.03h0Z"/>
        <path d="m14.84,3.84c-.55,1.03-1.06,2-1.46,3.11-.36.99-.67,1.99-.93,3-.28,1.07-.51,2.15-.69,3.24-.18,1.06-.46,2.17-.18,3.22.03.1.15.13.2.03.42-.91.42-1.93.57-2.92.17-1.09.39-2.17.65-3.24.53-2.14,1.19-4.31,1.93-6.39.03-.08-.06-.11-.09-.05h0Z"/>
        <path d="m21.81,14.95c.21-.77.42-1.53.6-2.31.18-.75.43-1.49.79-2.16.3-.55.67-1.07,1.14-1.49.24-.22.5-.41.78-.57.27-.15.53-.25.64-.56,0-.03,0-.09-.03-.11-.55-.34-1.29.29-1.71.64-.53.46-.97,1.02-1.31,1.63-.39.7-.63,1.48-.8,2.26-.2.9-.22,1.75-.21,2.67.02.06.1.05.11,0h0Z"/>
        <path d="m38.68,26.57c.08-.26.19-.5.33-.74.14-.23.24-.48.37-.71.27-.46.61-.9,1-1.27.38-.36.81-.67,1.28-.9.24-.12.49-.23.74-.31.29-.1.6-.15.8-.4.17-.21.07-.49-.15-.61-.32-.17-.7-.02-1.02.1-.29.11-.57.24-.84.4-.53.31-1,.71-1.41,1.17-.39.44-.73.96-.96,1.5-.11.26-.23.55-.26.84-.03.3-.03.6-.03.9.02.08.13.1.15.03h0Z"/>
      </g>
    </g>
  </g>
</svg>