<?xml version="1.0" encoding="UTF-8"?>
<svg id="Layer_2" data-name="Layer 2" xmlns="http://www.w3.org/2000/svg" viewBox="0 0 54.89 76.38">
  <g id="Layer_1-2" data-name="Layer 1">
    <g>
      <path d="m20.7,44.78c-2.65-4.47-4.89-9.14-6.13-14.2-.64-2.61-1.05-5.28-1.34-7.95-.36-3.31-.43-6.65-.8-9.96-.46-4.15-1.29-8.24-1.63-12.4-.16.04-.31.08-.47.13,1.57,2.79,3.89,5.13,6.25,7.26,1.26,1.14,2.56,2.23,3.88,3.29,1.23,1,2.48,1.96,3.64,3.04,4.41,4.09,7.5,9.25,10.34,14.49,3.18,5.88,6.05,11.99,7,18.67.24,1.68.35,3.38.33,5.07,0,.45-.02.9-.04,1.35-.02.43-.03.85-.16,1.26-.19.61-.51,1.17-.94,1.64-.77.85-1.88,1.44-3.04,1.48-.61.02-1.14-.14-1.7-.36-.74-.28-1.46-.6-2.17-.95-2.69-1.33-5.16-3.08-7.36-5.1-1.82-1.67-3.5-3.52-4.89-5.56-.27-.39-.53-.79-.77-1.2-.16-.28-.6-.03-.43.25,1.2,2.01,2.71,3.84,4.34,5.51,2.06,2.11,4.39,3.98,6.93,5.48,1.38.81,2.82,1.52,4.31,2.08,1.12.43,2.24.44,3.36-.03,1.11-.47,2.05-1.34,2.57-2.44.14-.3.26-.61.34-.93.1-.4.09-.84.11-1.26.04-.89.05-1.79.02-2.68-.23-6.88-2.64-13.42-5.76-19.49-1.49-2.91-3.07-5.81-4.79-8.59-1.56-2.53-3.3-4.96-5.33-7.14-1.02-1.1-2.12-2.14-3.27-3.11-1.28-1.08-2.61-2.09-3.89-3.17-2.62-2.19-5.23-4.52-7.26-7.29-.43-.59-.84-1.21-1.2-1.85-.12-.21-.49-.13-.47.13.31,3.77,1.02,7.49,1.49,11.24.43,3.41.51,6.85.85,10.27.51,5.18,1.47,10.29,3.46,15.12,1.16,2.83,2.61,5.52,4.17,8.15.18.28.62.03.45-.25Z"/>
      <path d="m29.83,3.76c-.7,1.08-1.08,2.33-.98,3.62.09,1.21.54,2.37,1.16,3.41.67,1.13,1.54,2.15,2.5,3.06s2,1.72,2.95,2.64c3.58,3.5,6.25,7.8,7.88,12.52.82,2.36,1.39,4.79,1.77,7.25.43,2.76.64,5.55.48,8.34-.16,2.99-.7,5.95-1.58,8.81-.22.69-.45,1.38-.71,2.06-.13.35-.27.69-.41,1.04-.13.31-.29.5-.12.81.54,1,1.08,2,1.61,3.01,2.42,4.58,4.96,9.17,8.59,12.92.47.49.96.96,1.47,1.42.04-.14.07-.28.11-.42-1.35.53-2.7,1.07-4.06,1.6.08.02.16.04.24.06-2.61-2.47-5.29-4.88-7.66-7.57-1.1-1.24-2.13-2.54-3.08-3.91-.49-.71-.96-1.44-1.4-2.18-.22-.36-.43-.73-.63-1.1-.07-.12-.12-.31-.25-.39-.13-.07-.35-.05-.5-.06-4.97-.42-9.91-1.91-14.19-4.51-4.25-2.58-7.8-6.34-9.71-10.97-1.03-2.5-1.56-5.17-1.65-7.87-.09-2.61-.09-5.26-.57-7.84-.41-2.21-1.3-4.26-2.67-6.04-.4-.51-.82-1-1.27-1.47-.46-.48-.92-.98-1.46-1.36-1.05-.74-2.4-1.08-3.67-1.2-.61-.06-1.22-.05-1.83.06.11.08.21.16.32.24-.1-2.04.6-4.06,2.55-4.97,1.87-.88,4.15-.48,5.96.36,1.27.6,2.4,1.44,3.37,2.45-.02-.06-.05-.12-.07-.18.25,3.71.59,7.42,1.31,11.07.6,3.05,1.5,6.03,2.71,8.89.64,1.52,1.37,3,2.14,4.45.75,1.41,1.53,2.83,2.41,4.16,1.68,2.51,3.76,4.76,6.06,6.72,1.39,1.19,2.87,2.27,4.44,3.21,1.56.94,3.26,1.84,5.02,2.38,1.27.39,2.7.01,3.76-.74.57-.41,1.07-.93,1.43-1.53.19-.32.34-.66.46-1.01.16-.48.17-.96.2-1.46.42-8.25-2.46-16.08-6.25-23.26-3.43-6.5-7.11-12.99-12.8-17.79-.77-.65-1.57-1.27-2.35-1.91.02.06.05.12.07.18-.18-1.93.38-3.9,1.6-5.42,1.08-1.34,2.69-2.33,4.45-2.3,1.09.02,2.09.44,2.96,1.07.26.19.51-.24.25-.43-1.67-1.21-3.74-1.47-5.62-.6-1.83.85-3.18,2.6-3.8,4.5-.17.52-.28,1.05-.34,1.59-.03.26-.05.53-.05.79s-.05.63.05.88c.09.25.49.46.69.62.29.24.59.47.88.71.5.4,1,.82,1.48,1.24,1.81,1.6,3.46,3.39,4.93,5.32,1.49,1.95,2.8,4.03,4.03,6.14,1.37,2.35,2.67,4.75,3.9,7.18,2.51,4.98,4.55,10.27,5.21,15.84.17,1.41.25,2.83.24,4.25-.01.73-.01,1.48-.09,2.21-.06.56-.33,1.13-.64,1.6-.54.83-1.37,1.48-2.31,1.79-.97.33-1.86.24-2.81-.12-4.58-1.75-8.65-4.81-11.92-8.43-2.84-3.14-4.91-6.88-6.67-10.71-1.82-3.95-2.99-8.12-3.65-12.41-.4-2.56-.64-5.14-.82-7.73-.02-.29.03-.7-.07-.97-.08-.23-.38-.43-.55-.59-.38-.36-.79-.7-1.22-1-.78-.57-1.64-1.03-2.54-1.37-1.56-.59-3.35-.82-4.97-.32-1.48.46-2.64,1.53-3.17,2.99-.31.86-.39,1.78-.35,2.69.01.17.15.27.32.24,1.06-.19,2.18-.05,3.21.24.53.15,1.04.34,1.52.61.47.26.85.62,1.23,1,1.42,1.39,2.66,2.97,3.45,4.81,1.64,3.82,1.17,8.07,1.53,12.1.37,4.13,1.83,8.11,4.32,11.43,2.37,3.17,5.54,5.68,9.05,7.48,3.58,1.84,7.5,2.98,11.49,3.44.49.06.99.1,1.48.14-.07-.04-.14-.08-.22-.12,2.49,4.58,5.92,8.42,9.67,12,1.11,1.06,2.23,2.1,3.35,3.16.06.06.16.1.24.06,1.35-.53,2.7-1.07,4.06-1.6.16-.06.26-.28.11-.42-4.22-3.79-7.06-8.73-9.69-13.69-.65-1.23-1.3-2.46-1.97-3.68v.25c1.7-3.9,2.68-8.1,2.95-12.34.24-3.89-.19-7.84-1.03-11.64-.77-3.45-1.98-6.82-3.71-9.91-1.78-3.17-4.12-6.02-6.86-8.42-1.65-1.45-3.27-2.88-4.31-4.86-.48-.92-.81-1.94-.83-2.98-.02-1.1.33-2.13.93-3.05.14-.27-.29-.52-.47-.26Z"/>
      <g>
        <path d="m20.14,20.63c-.04.2-.15.37-.31.48-.24.17-.58.24-.86.13-.35-.13-.53-.58-.39-.93s.54-.56.91-.52c.37.04.71.31.65.84Z"/>
        <path d="m14.32,7.34c-.04.2-.15.37-.31.48-.24.17-.58.24-.86.13-.35-.13-.53-.58-.39-.93s.54-.56.91-.52c.37.04.71.3.65.84Z"/>
        <path d="m17.09,14.26c-.04.2-.15.37-.31.48-.24.17-.58.24-.86.13-.35-.13-.53-.58-.39-.93s.54-.56.91-.52c.36.04.7.3.65.84Z"/>
        <path d="m15.16,12.97c-.04.2-.15.37-.31.48-.24.17-.58.24-.86.13-.35-.13-.53-.58-.39-.93s.54-.56.91-.52c.37.04.71.3.65.84Z"/>
        <path d="m16.58,9.75c-.04.2-.15.37-.31.48-.24.17-.58.24-.86.13-.35-.13-.53-.58-.39-.93s.54-.56.91-.52c.37.04.71.31.65.84Z"/>
        <path d="m6.77,17.92c-.04.2-.15.37-.31.48-.24.17-.58.24-.86.13-.35-.13-.53-.58-.39-.93s.54-.56.91-.52c.37.04.71.31.65.84Z"/>
        <path d="m12.03,20.01c-.04.2-.15.37-.31.48-.24.17-.58.24-.86.13-.35-.13-.53-.58-.39-.93s.54-.56.91-.52c.37.04.71.31.65.84Z"/>
        <path d="m8.76,19.35c-.03.16-.13.3-.26.39-.2.14-.48.19-.7.11-.29-.11-.43-.48-.32-.77.11-.29.44-.46.74-.43s.59.27.54.7Z"/>
        <path d="m14.91,15.9c-.03.15-.12.28-.24.36-.18.13-.44.18-.65.1-.27-.1-.4-.44-.3-.71s.41-.43.69-.4.55.25.5.65Z"/>
        <path d="m15.39,18.96c-.03.15-.12.28-.24.36-.18.13-.44.18-.65.1-.27-.1-.4-.44-.3-.71s.41-.43.69-.4.54.24.5.65Z"/>
        <path d="m17.81,17.77c-.03.15-.12.28-.24.36-.18.13-.44.18-.65.1-.27-.1-.4-.44-.3-.71s.41-.43.69-.4c.29.05.55.25.5.65Z"/>
        <path d="m10.22,16.8c-.03.16-.13.31-.26.4-.2.14-.49.2-.72.11-.3-.11-.45-.49-.33-.79.11-.3.45-.48.77-.44.3.04.59.27.54.72Z"/>
        <path d="m3.94,18.17c-.03.16-.13.31-.26.4-.2.14-.49.2-.72.11-.3-.11-.45-.49-.33-.79.11-.3.45-.48.77-.44s.59.27.54.72Z"/>
        <path d="m18.35,12.62c-.03.15-.12.28-.24.36-.18.13-.44.18-.65.1-.27-.1-.4-.44-.3-.71s.41-.43.69-.4c.29.04.54.24.5.65Z"/>
        <path d="m21.6,12.94c-.13.08-.29.1-.43.07-.22-.05-.43-.21-.52-.41-.11-.27.06-.6.32-.7.27-.1.59.01.76.24s.19.56-.13.8Z"/>
        <path d="m21.3,14.81c-.04.17-.14.32-.27.42-.21.15-.51.21-.75.12-.31-.12-.46-.51-.35-.82.12-.31.47-.5.8-.46s.62.27.57.74Z"/>
        <path d="m26.98,9.17c-.04.17-.14.32-.27.42-.21.15-.51.21-.75.12-.31-.12-.46-.51-.35-.82.12-.31.47-.5.8-.46.33.03.63.27.57.74Z"/>
        <path d="m14.54,10.33c-.03.15-.12.28-.24.36-.18.13-.44.18-.65.1-.27-.1-.4-.44-.3-.71s.41-.43.69-.4.54.24.5.65Z"/>
        <path d="m28.52,12.98c-.03.15-.12.28-.24.36-.18.13-.44.18-.65.1-.27-.1-.4-.44-.3-.71s.41-.43.69-.4c.29.05.55.25.5.65Z"/>
        <path d="m29.06,4.71c-.03.15-.12.28-.24.36-.18.13-.44.18-.65.1-.27-.1-.4-.44-.3-.71s.41-.43.69-.4c.28.05.54.25.5.65Z"/>
        <path d="m25.07,7.55c-.03.15-.12.28-.24.36-.18.13-.44.18-.65.1-.27-.1-.4-.44-.3-.71s.41-.43.69-.4.55.24.5.65Z"/>
        <path d="m25.82,11.12c-.03.15-.12.28-.24.36-.18.13-.44.18-.65.1-.27-.1-.4-.44-.3-.71s.41-.43.69-.4c.28.04.54.24.5.65Z"/>
        <path d="m24.31,9.55c-.03.15-.12.28-.24.36-.18.13-.44.18-.65.1-.27-.1-.4-.44-.3-.71s.41-.43.69-.4c.29.05.54.25.5.65Z"/>
        <path d="m26.54,5.03c-.03.15-.12.28-.24.36-.18.13-.44.18-.65.1-.27-.1-.4-.44-.3-.71s.41-.43.69-.4c.28.05.54.25.5.65Z"/>
        <path d="m27.56,6.96c-.03.15-.12.28-.24.36-.18.13-.44.18-.65.1-.27-.1-.4-.44-.3-.71s.41-.43.69-.4c.29.04.55.24.5.65Z"/>
        <path d="m18.43,22.1c-.03.15-.12.28-.24.36-.18.13-.44.18-.65.1-.27-.1-.4-.44-.3-.71s.41-.43.69-.4.55.24.5.65Z"/>
        <path d="m16.43,25.37c-.02.11-.09.21-.18.27-.14.1-.33.13-.49.08-.2-.07-.3-.33-.22-.53s.3-.32.52-.3.4.18.37.48Z"/>
        <path d="m12.15,27.05c-.02.11-.09.21-.18.27-.14.1-.33.13-.49.08-.2-.07-.3-.33-.22-.53s.3-.32.52-.3c.21.03.41.18.37.48Z"/>
        <path d="m11.92,25.28c-.02.11-.09.21-.18.27-.14.1-.33.13-.49.08-.2-.07-.3-.33-.22-.53s.3-.32.52-.3c.21.03.41.18.37.48Z"/>
        <path d="m11.57,22.57c-.02.11-.09.21-.18.27-.14.1-.33.13-.49.08-.2-.07-.3-.33-.22-.53s.3-.32.52-.3c.21.03.4.18.37.48Z"/>
        <path d="m5.03,16.29c-.03.12-.1.23-.19.3-.15.11-.36.15-.53.08-.22-.08-.33-.36-.24-.58.08-.22.33-.35.56-.32s.43.19.4.52Z"/>
        <path d="m7.18,15.88c-.02.11-.09.21-.18.27-.14.1-.33.13-.49.08-.2-.07-.3-.33-.22-.53s.3-.32.52-.3c.21.03.4.18.37.48Z"/>
        <path d="m9.43,22.08c-.02.11-.09.21-.18.27-.14.1-.33.13-.49.08-.2-.07-.3-.33-.22-.53s.3-.32.52-.3.4.18.37.48Z"/>
        <path d="m13.95,32.88c-.02.11-.09.21-.18.27-.14.1-.33.13-.49.08-.2-.07-.3-.33-.22-.53s.3-.32.52-.3c.21.02.4.17.37.48Z"/>
        <path d="m18.4,31.08c-.02.11-.09.21-.18.27-.14.1-.33.13-.49.08-.2-.07-.3-.33-.22-.53s.3-.32.52-.3c.21.02.4.17.37.48Z"/>
        <path d="m20.38,18.21c-.02.11-.09.21-.18.27-.14.1-.33.13-.49.08-.2-.07-.3-.33-.22-.53s.3-.32.52-.3c.21.03.4.18.37.48Z"/>
        <path d="m26.36,16.98c-.02.11-.09.21-.18.27-.14.1-.33.13-.49.08-.2-.07-.3-.33-.22-.53s.3-.32.52-.3c.21.02.4.18.37.48Z"/>
        <path d="m28.17,19.75c-.02.11-.09.21-.18.27-.14.1-.33.13-.49.08-.2-.07-.3-.33-.22-.53s.3-.32.52-.3c.21.03.4.18.37.48Z"/>
        <path d="m22.73,16.55c-.02.11-.09.21-.18.27-.14.1-.33.13-.49.08-.2-.07-.3-.33-.22-.53s.3-.32.52-.3c.21.03.4.18.37.48Z"/>
        <path d="m27.01,21.54c-.02.08-.07.16-.13.21-.1.07-.25.1-.37.06-.15-.06-.23-.25-.17-.4.06-.15.23-.24.39-.23.16.02.3.13.28.36Z"/>
        <path d="m21.49,24.34c-.03.14-.11.25-.22.33-.16.12-.4.16-.59.09-.24-.09-.37-.4-.27-.65.09-.24.37-.39.63-.36s.49.22.45.59Z"/>
        <path d="m24.56,14.92c-.02.11-.09.21-.18.27-.14.1-.33.13-.49.08-.2-.07-.3-.33-.22-.53s.3-.32.52-.3c.21.03.4.18.37.48Z"/>
        <path d="m33.72,18.86c-.02.11-.09.21-.18.27-.14.1-.33.13-.49.08-.2-.07-.3-.33-.22-.53s.3-.32.52-.3c.21.02.4.18.37.48Z"/>
        <path d="m29.35,10.39c-.02.11-.09.21-.18.27-.14.1-.33.13-.49.08-.2-.07-.3-.33-.22-.53s.3-.32.52-.3c.21.03.4.18.37.48Z"/>
        <path d="m32.26,16.9c-.02.11-.09.21-.18.27-.14.1-.33.13-.49.08-.2-.07-.3-.33-.22-.53s.3-.32.52-.3c.21.02.4.18.37.48Z"/>
        <path d="m28.66,8.47c-.02.11-.09.21-.18.27-.14.1-.33.13-.49.08-.2-.07-.3-.33-.22-.53s.3-.32.52-.3c.21.03.4.18.37.48Z"/>
        <path d="m33.07,14.76c-.02.11-.09.21-.18.27-.14.1-.33.13-.49.08-.2-.07-.3-.33-.22-.53s.3-.32.52-.3c.22.02.41.17.37.48Z"/>
        <path d="m30.42,15.1c-.02.11-.09.21-.18.27-.14.1-.33.13-.49.08-.2-.07-.3-.33-.22-.53s.3-.32.52-.3c.21.03.4.18.37.48Z"/>
        <path d="m30.83,12.86c-.02.11-.09.21-.18.27-.14.1-.33.13-.49.08-.2-.07-.3-.33-.22-.53s.3-.32.52-.3c.21.03.4.18.37.48Z"/>
        <path d="m15.06,21.58c-.02.11-.09.21-.18.27-.14.1-.33.13-.49.08-.2-.07-.3-.33-.22-.53s.3-.32.52-.3c.21.02.4.18.37.48Z"/>
        <path d="m24.96,18.55c-.03.14-.11.26-.23.35-.17.12-.42.17-.62.1-.25-.1-.38-.42-.28-.67s.39-.41.66-.38c.27.02.51.21.47.6Z"/>
        <path d="m25.66,20.44c-.03.14-.11.26-.23.35-.17.12-.42.17-.62.1-.25-.1-.38-.42-.28-.67s.39-.41.66-.38c.26.03.51.22.47.6Z"/>
        <path d="m17.41,27.36c-.02.11-.09.21-.18.27-.14.1-.33.13-.49.08-.2-.07-.3-.33-.22-.53s.3-.32.52-.3c.21.03.4.18.37.48Z"/>
        <path d="m22.92,28.17c2.64,3.32,5.1,6.84,7.32,10.46,1.12,1.82,2.17,3.68,3.15,5.58.48.92.94,1.86,1.38,2.8.45.96.84,1.97,1.46,2.84.15.22.51.04.46-.21-.39-2.01-1.59-3.97-2.52-5.78-.99-1.93-2.06-3.83-3.2-5.68-2.25-3.68-4.82-7.09-7.67-10.31-.21-.24-.57.05-.38.3h0Z"/>
        <path d="m29.5,30.97c2.11,3.45,4.02,7.07,5.61,10.79.8,1.87,1.52,3.78,2.16,5.7.63,1.89.99,3.98,1.84,5.78.13.28.65.25.65-.11-.04-1.98-.8-3.99-1.4-5.86-.64-1.98-1.4-3.92-2.25-5.82-1.7-3.81-3.77-7.37-6.27-10.7-.14-.17-.46.02-.34.22h0Z"/>
        <path d="m31.65,28.49c2.94,3.86,5.1,8.28,6.51,12.91.69,2.29,1.19,4.63,1.53,7,.17,1.18.29,2.37.37,3.56.04.59.05,1.18.08,1.77.04.6.23,1.12.34,1.7.04.2.29.17.33-.01.14-.69.33-1.25.32-1.98-.01-.55-.04-1.1-.07-1.65-.07-1.19-.19-2.38-.36-3.56-.34-2.43-.89-4.83-1.62-7.17-1.47-4.72-3.74-9.19-6.91-12.99-.28-.34-.79.07-.52.42h0Z"/>
        <path d="m24.16,35.89c1.71,3.35,3.73,6.47,6.03,9.45,1.14,1.47,2.32,2.9,3.58,4.28,1.25,1.37,2.52,2.89,4.07,3.92.21.14.46-.11.3-.32-1.07-1.44-2.48-2.64-3.69-3.97-1.25-1.37-2.46-2.79-3.61-4.25-2.31-2.93-4.42-6.07-6.35-9.25-.12-.19-.44-.07-.33.14h0Z"/>
        <path d="m21.01,37.05c2.28,3.89,4.98,7.52,7.99,10.88,1.49,1.66,3.05,3.24,4.67,4.77.8.75,1.62,1.48,2.45,2.2.82.71,1.7,1.5,2.7,1.92.12.05.21-.1.14-.19-.62-.85-1.53-1.53-2.31-2.21-.79-.69-1.58-1.38-2.34-2.1-1.69-1.57-3.3-3.23-4.84-4.95-2.96-3.31-5.63-6.85-8.09-10.54-.15-.2-.5.01-.37.22h0Z"/>
        <path d="m18.78,38.42c1.5,3.48,3.45,6.9,5.95,9.76,1.25,1.43,2.6,2.77,4.05,3.99.71.6,1.44,1.17,2.19,1.71.69.5,1.48,1.21,2.36,1.24.17.01.33-.17.24-.34-.37-.72-1.15-1.11-1.79-1.57-.75-.54-1.48-1.11-2.19-1.71-1.45-1.22-2.82-2.54-4.08-3.96-2.52-2.84-4.71-5.87-6.34-9.31-.11-.24-.5-.07-.39.19h0Z"/>
        <path d="m15.73,42.93c2.02,3.03,4.36,5.83,6.99,8.36,1.25,1.2,2.57,2.34,3.93,3.4,1.37,1.07,2.82,2.26,4.44,2.91.27.11.41-.24.23-.41-1.28-1.17-2.84-2.05-4.21-3.12-1.38-1.07-2.7-2.22-3.98-3.42-2.59-2.44-4.9-5.17-6.94-8.08-.23-.32-.67.05-.46.36h0Z"/>
        <path d="m14.77,47.79c2.59,3.27,5.85,5.84,9.47,7.89,1.75.99,3.56,1.86,5.42,2.62,1.91.77,3.93,1.63,5.99,1.83.22.02.27-.27.08-.36-1.77-.86-3.72-1.34-5.54-2.08-1.93-.78-3.82-1.67-5.63-2.69-3.5-1.99-6.7-4.53-9.39-7.53-.21-.26-.61.05-.4.32h0Z"/>
        <path d="m41.22,29.26c1.54,3.51,2.38,7.31,2.67,11.13.15,2.07.14,4.14.04,6.21-.11,2.12-.43,4.24-.36,6.37.01.17.28.28.33.08.55-2.07.65-4.24.75-6.37.1-2.09.1-4.18-.04-6.26-.28-3.94-1.12-7.82-2.91-11.36-.16-.31-.61-.11-.48.2h0Z"/>
        <path d="m38.78,29.14c1.3,4.08,2.36,8.27,3.1,12.48.73,4.18,1.35,8.59.8,12.83-.02.18.23.22.29.07.9-2.01.79-4.1.61-6.25-.18-2.23-.47-4.44-.84-6.64-.74-4.35-1.88-8.59-3.45-12.72-.12-.35-.61-.11-.51.23h0Z"/>
        <path d="m38.49,60.38c.85,2.16,2.1,4.12,3.48,5.98.69.93,1.42,1.82,2.2,2.68.74.81,1.53,1.64,2.57,2.06.09.04.18-.06.14-.15-.44-.98-1.19-1.77-1.89-2.57-.77-.87-1.5-1.76-2.21-2.67-1.38-1.8-2.61-3.71-3.89-5.58-.16-.23-.5.01-.4.25h0Z"/>
      </g>
    </g>
  </g>
</svg>