<?xml version="1.0" encoding="UTF-8"?>
<svg id="Layer_2" data-name="Layer 2" xmlns="http://www.w3.org/2000/svg" viewBox="0 0 62.45 82.01">
  <g id="Layer_1-2" data-name="Layer 1">
    <g>
      <path d="m12.24,71.25c.43-.7.83-1.42,1.22-2.14.37-.7.72-1.41,1.05-2.13.16-.35.27-.74.46-1.08.14-.25.36-.46.54-.68,1.71-2.15,3.16-4.5,4.54-6.87,1.7-2.92,3.3-5.91,4.87-8.91.21-.39.41-.78.62-1.17.1-.19.2-.37.29-.56.08-.16.27-.38.26-.56,0-.17-.16-.34-.25-.48-.09-.15-.18-.31-.27-.47-.22-.4-.43-.81-.61-1.22-.65-1.43-1.08-2.97-1.26-4.53-.62-5.45,1.74-10.68,4.77-15.07,2.47-3.58,5.59-6.63,8.23-10.07,2.68-3.49,5.64-8.07,4.52-12.69-.13-.52-.31-1.02-.53-1.51-.03.11-.06.23-.09.34.64-.46,1.45-.72,2.23-.52,1.09.27,1.74,1.28,2.13,2.26.1.25.49.23.49-.07,0-.93.65-1.68,1.42-2.13.71-.42,1.73-.7,2.51-.29.7.37.96,1.25,1.07,1.97.1.67.11,1.45-.13,2.1-.07.2.2.41.37.28.88-.66,1.9-.73,2.84-.15.63.38,1.26,1.01,1.53,1.71.04-.09.08-.19.11-.28-2.37,1.13-4.41,2.83-5.64,5.18-1.24,2.37-1.65,5.08-1.91,7.7-.35,3.49-.47,7-.8,10.49-.24,2.55-1.23,4.91-2.48,7.13-1.56,2.79-3.54,5.38-5.92,7.53-1.22,1.1-2.54,2.08-3.99,2.85-.7.37-1.43.7-2.18.96-.18.06-.37.12-.56.18-.16.05-.39.07-.52.17-.04.03-.06.07-.09.11-.27.38-.5.79-.74,1.19-.49.79-.98,1.57-1.47,2.36-1.26,2.02-2.53,4.04-3.79,6.06-.86,1.37-1.72,2.75-2.58,4.12-.09.15-.11.18-.23.25-.44.24-.86.6-1.27.89-.43.31-.86.62-1.28.93-1.8,1.34-3.55,2.74-5.25,4.19-.89.76-1.78,1.54-2.65,2.33-.24.22.12.57.35.35,2.89-2.62,5.91-5.1,9.08-7.38.36-.25.71-.51,1.07-.76.16-.11.36-.21.48-.37.06-.07.1-.16.15-.24.27-.43.53-.85.8-1.28,2.02-3.22,4.03-6.45,6.05-9.67.58-.92,1.15-1.85,1.73-2.77-.05.04-.1.08-.15.11,3.58-.95,6.65-3.29,9.12-5.98,2.36-2.57,4.33-5.56,5.66-8.79.49-1.18.9-2.41,1.06-3.68.26-2.08.37-4.2.5-6.29.22-3.41.32-6.93,1.32-10.22.41-1.33,1-2.61,1.84-3.73.9-1.2,2.08-2.16,3.38-2.91.37-.21.75-.41,1.14-.6.09-.04.15-.19.11-.28-.33-.85-1.05-1.6-1.83-2.06-1.07-.62-2.28-.54-3.27.2.12.09.24.19.37.28.22-.59.24-1.28.19-1.9-.06-.73-.23-1.51-.67-2.11-.98-1.35-2.93-.94-4.09-.06-.73.56-1.26,1.36-1.27,2.3.16-.02.33-.04.49-.07-.44-1.13-1.18-2.25-2.41-2.59-.93-.25-1.91.01-2.68.56-.12.08-.15.21-.09.34,1.31,2.9.55,6.09-.83,8.82-1.51,3-3.68,5.63-5.86,8.15-1.83,2.12-3.7,4.18-5.31,6.48-1.98,2.82-3.67,5.91-4.54,9.26-1.02,3.92-.74,8.03,1.06,11.68.26.52.54,1.02.85,1.51v-.25c-2.01,3.83-4.01,7.66-6.2,11.39-.9,1.53-1.83,3.04-2.84,4.5-.46.66-.93,1.32-1.44,1.95-.19.24-.44.47-.6.72-.13.21-.2.49-.3.72-.12.28-.24.55-.37.82-.62,1.32-1.31,2.62-2.08,3.86-.15.31.28.56.45.29Z"/>
      <path d="m15.88,61.27c-.45-2.28-1.47-4.56-3.44-5.91-1.61-1.1-3.7-1.35-5.57-.83-1.5.42-2.83,1.27-4.03,2.23.14.04.28.07.42.11-1.37-3.88,1.53-9.62,6.08-9.14,2.21.23,4.17,1.69,5.22,3.61.92,1.69,1.24,3.66,1.27,5.57.02,1.45-.09,2.95-.43,4.36-.08.31.41.45.48.13.31-1.3.44-2.68.45-4.02.02-2.02-.26-4.11-1.15-5.94-1.01-2.07-2.9-3.63-5.17-4.11-2.36-.5-4.55.57-5.94,2.47-1.32,1.8-1.96,4.25-1.5,6.45.05.25.12.51.21.75.07.19.27.23.42.11,1.8-1.43,3.94-2.55,6.3-2.31,1.85.19,3.44,1.27,4.45,2.8.75,1.15,1.19,2.46,1.46,3.8.05.31.53.18.47-.13Z"/>
      <path d="m4.77,81.54c-1.39-.93-2.85-1.76-4.37-2.46.02.13.03.26.05.39,3.07-2.79,5.8-6.05,7.66-9.77,1.55-3.09,2.51-6.57,2.19-10.05-.17-1.84-.69-3.62-1.54-5.26-.07.13-.14.25-.22.38,1.44-.05,2.85.37,3.98,1.27,1.39,1.11,2.21,2.76,2.66,4.45.19.71.31,1.37.22,2.11-.08.69-.28,1.37-.5,2.03-.48,1.42-1.12,2.78-1.82,4.1-.4.77-.82,1.53-1.28,2.26-.15.25.19.49.39.3,4.65-4.22,9.64-8.11,15.07-11.29,4.05-2.37,8.38-4.37,12.95-5.52,3.36-.84,6.9-1.23,10.34-.67,2.66.43,5.27,1.46,7.32,3.23,1.9,1.64,3.23,3.83,3.88,6.25.08.31.15.62.22.93.14-.08.28-.16.42-.24-2.17-1.91-4.79-3.21-7.59-3.9-3.2-.79-6.55-.82-9.81-.4-4,.51-7.89,1.66-11.63,3.16-4.56,1.82-8.9,4.15-13.05,6.76-4.94,3.11-9.62,6.65-14.07,10.42-.6.51-1.19,1.02-1.78,1.54-.24.21.11.56.35.35,4.45-3.9,9.12-7.55,14.06-10.8,4.14-2.72,8.47-5.17,13.01-7.13,3.74-1.62,7.65-2.91,11.68-3.59,3.26-.55,6.64-.69,9.91-.08,2.8.52,5.49,1.61,7.75,3.36.27.21.54.43.8.66.19.17.47,0,.42-.24-.5-2.53-1.69-4.91-3.52-6.75-1.93-1.94-4.45-3.19-7.1-3.79-3.35-.77-6.86-.58-10.2.1-4.51.91-8.81,2.72-12.84,4.91-5.38,2.93-10.34,6.61-14.97,10.62-.67.58-1.32,1.16-1.98,1.75.13.1.26.2.39.3,1.21-1.95,2.29-4.05,3.05-6.21.25-.71.47-1.44.58-2.18.1-.7.07-1.35-.09-2.04-.41-1.8-1.21-3.6-2.6-4.86-1.27-1.16-2.93-1.73-4.63-1.68-.19.01-.3.21-.22.38,1.51,2.9,1.85,6.22,1.23,9.42-.7,3.59-2.46,6.91-4.64,9.81-1.43,1.9-3.07,3.64-4.83,5.24-.11.1-.09.33.05.39,1.52.7,2.98,1.53,4.37,2.46.3.19.55-.24.28-.42Z"/>
      <path d="m8.66,76.8c1.64-1.11,3.35-2.13,5.01-3.22,1.69-1.12,3.39-2.22,5.1-3.31,3.37-2.13,6.89-4.05,10.15-6.34.14-.1,0-.31-.16-.25-3.64,1.59-7.01,3.8-10.35,5.94-1.66,1.07-3.31,2.16-4.93,3.29-1.7,1.18-3.3,2.48-4.94,3.74-.11.08.01.22.12.15h0Z"/>
      <path d="m4.48,78.98c.89-.7,1.85-1.32,2.76-2.02.9-.69,1.78-1.42,2.66-2.13.83-.68,1.72-1.33,2.49-2.09.74-.73,1.36-1.55,1.97-2.39.09-.12-.09-.23-.18-.13-1.46,1.59-3.19,2.93-4.85,4.29-1.7,1.39-3.28,2.9-4.96,4.31-.11.09.01.24.11.16h0Z"/>
      <path d="m10.43,65.69c-.27,1.08-.82,2.02-1.39,2.97-.64,1.06-1.28,2.12-1.91,3.18-.58.98-1.15,1.98-1.79,2.92s-1.39,1.79-2.11,2.67c-.09.11.05.28.18.21,2.05-1.12,3.19-3.58,4.32-5.52,1.15-1.98,2.63-4.06,3.03-6.36.03-.18-.28-.26-.33-.07h0Z"/>
      <path d="m12.25,57.28c.24.9.46,1.84.46,2.78,0,.46-.02.93-.08,1.4s-.07.95-.17,1.41c-.03.17.2.19.27.06.22-.44.45-.88.54-1.37.1-.5.14-1.01.12-1.52-.03-1-.22-2.01-.71-2.89-.1-.22-.5-.14-.43.13h0Z"/>
      <path d="m10.56,56.59c.23.6.43,1.22.55,1.86.06.31.1.62.14.93.05.33.1.66.13.98,0,.17.25.13.28-.01.07-.33.13-.65.14-.99,0-.35-.03-.69-.1-1.04-.14-.68-.37-1.32-.73-1.91-.15-.24-.51-.09-.41.18h0Z"/>
      <path d="m4.29,54.39c.71-.5,1.49-.92,2.3-1.24.39-.16.8-.28,1.21-.4.2-.06.41-.11.6-.18.2-.08.41-.12.61-.2.08-.03.05-.15-.03-.16-.89-.11-1.79.16-2.6.5-.85.35-1.61.84-2.31,1.43-.16.14.04.38.22.25h0Z"/>
      <path d="m4.08,53.6c.21-.28.47-.5.74-.72s.54-.45.83-.63c.29-.18.59-.32.9-.45.15-.07.31-.13.47-.19.16-.07.34-.1.5-.18.12-.06.09-.23-.04-.26-.34-.06-.74.05-1.06.15-.37.12-.7.3-1.03.51-.31.2-.6.43-.85.71-.25.29-.43.63-.62.96-.05.1.08.2.16.1h0Z"/>
      <path d="m4.3,52.24c.42-1.03,1.45-1.89,2.4-2.42.97-.54,2.02-1,3.14-1.01.15,0,.24-.19.11-.28-.47-.35-1.07-.26-1.6-.1-.66.2-1.3.51-1.89.85-.56.32-1.1.7-1.53,1.18-.45.5-.69,1.04-.86,1.69-.06.16.17.25.23.09h0Z"/>
      <path d="m42.69,30.38c-.89,2.73-1.98,5.49-3.29,8.05-1.34,2.62-3.07,4.95-4.82,7.3-.07.1.06.22.16.14,2.27-1.81,3.82-4.35,5.09-6.92,1.35-2.74,2.25-5.57,3.01-8.52.02-.09-.12-.15-.15-.05h0Z"/>
      <path d="m40.45,30.11c-1.02,3.22-2.4,6.31-4.08,9.23-.82,1.42-1.7,2.8-2.66,4.12-.97,1.34-2.21,2.56-3.04,4-.1.17.09.35.25.23,1.32-.95,2.31-2.45,3.25-3.76,1-1.4,1.92-2.85,2.74-4.36,1.62-2.97,2.85-6.13,3.73-9.4.03-.11-.15-.18-.19-.06h0Z"/>
      <path d="m36.83,33.52c-.91,2.34-2.06,4.63-3.28,6.83-1.21,2.17-2.64,4.19-3.89,6.33-.07.12.08.29.19.18,1.73-1.85,3.02-4.04,4.21-6.27,1.2-2.25,2.13-4.57,2.98-6.98.05-.15-.16-.23-.21-.09h0Z"/>
      <path d="m33.61,34.26c-1.29,1.5-2.24,3.25-2.94,5.1s-1.31,3.8-1.48,5.78c0,.12.15.15.2.05.75-1.8,1.11-3.73,1.77-5.57.67-1.83,1.53-3.61,2.76-5.13.16-.2-.15-.41-.31-.23h0Z"/>
      <path d="m35.18,26.77c-2.25,2.82-4.08,5.87-5.48,9.2-1.36,3.23-2.54,6.85-2.6,10.38,0,.14.21.21.25.06.43-1.7.74-3.42,1.19-5.11.45-1.7,1.01-3.37,1.67-5.01,1.32-3.3,3.07-6.5,5.15-9.39.08-.12-.09-.24-.18-.13h0Z"/>
      <path d="m30.11,29.13c-1.14,2.82-2.41,5.61-3.3,8.52-.75,2.48-1.45,5.35-.72,7.9.03.12.23.14.23-.01.03-1.32.02-2.64.2-3.95.19-1.38.54-2.72.94-4.05.86-2.8,1.88-5.57,2.85-8.34.06-.13-.15-.2-.2-.07h0Z"/>
      <path d="m31.89,22.97c-2.3,2.02-3.87,4.61-4.91,7.46-1.03,2.83-1.74,5.99-1.65,9.01,0,.18.27.14.29-.01.55-2.94.86-5.87,1.85-8.71.98-2.8,2.48-5.46,4.54-7.6.1-.08-.02-.23-.12-.15h0Z"/>
      <path d="m44.08,15.39c-.08-.12-.11-.26-.09-.39.03-.2.17-.41.36-.5.24-.11.56.02.66.27.11.24.02.55-.19.72-.2.16-.51.2-.74-.1Z"/>
      <path d="m40.06,16.19c-.08-.12-.11-.26-.09-.39.03-.2.17-.41.36-.5.24-.11.56.02.66.27s.02.55-.19.72-.5.19-.74-.1Z"/>
      <path d="m38.11,16.29c-.08-.12-.11-.26-.09-.39.03-.2.17-.41.36-.5.24-.11.56.02.66.27s.02.55-.19.72-.5.19-.74-.1Z"/>
      <path d="m40.88,13.02c-.08-.12-.11-.26-.09-.39.03-.2.17-.41.36-.5.24-.11.56.02.66.27.11.24.02.55-.19.72-.2.16-.51.2-.74-.1Z"/>
      <path d="m42.56,13.49c-.08-.12-.11-.26-.09-.39.03-.2.17-.41.36-.5.24-.11.56.02.66.27s.02.55-.19.72c-.2.15-.5.19-.74-.1Z"/>
      <path d="m39.18,14.28c-.08-.12-.11-.26-.09-.39.03-.2.17-.41.36-.5.24-.11.56.02.66.27.11.24.02.55-.19.72-.2.15-.5.19-.74-.1Z"/>
      <path d="m41.96,15.74c-.08-.12-.11-.26-.09-.39.03-.2.17-.41.36-.5.24-.11.56.02.66.27.11.24.02.55-.19.72-.19.15-.5.19-.74-.1Z"/>
      <path d="m39.38,17.92c-.08-.12-.11-.26-.09-.39.03-.2.17-.41.36-.5.24-.11.56.02.66.27.11.24.02.55-.19.72s-.5.19-.74-.1Z"/>
      <path d="m43.45,17.93c-.08-.12-.11-.26-.09-.39.03-.2.17-.41.36-.5.24-.11.56.02.66.27s.02.55-.19.72-.51.2-.74-.1Z"/>
      <path d="m44.98,20.06c-.08-.12-.11-.26-.09-.39.03-.2.17-.41.36-.5.24-.11.56.02.66.27s.02.55-.19.72-.5.2-.74-.1Z"/>
      <path d="m45.54,17.5c-.08-.12-.11-.26-.09-.39.03-.2.17-.41.36-.5.24-.11.56.02.66.27s.02.55-.19.72-.5.19-.74-.1Z"/>
      <path d="m43.12,20.66c-.08-.12-.11-.26-.09-.39.03-.2.17-.41.36-.5.24-.11.56.02.66.27.11.24.02.55-.19.72s-.5.19-.74-.1Z"/>
      <path d="m43.98,25.72c-.08-.12-.11-.26-.09-.39.03-.2.17-.41.36-.5.24-.11.56.02.66.27s.02.55-.19.72-.5.2-.74-.1Z"/>
      <path d="m38.02,19.8c-.08-.12-.11-.26-.09-.39.03-.2.17-.41.36-.5.24-.11.56.02.66.27s.02.55-.19.72-.5.19-.74-.1Z"/>
      <path d="m35.53,22.11c-.08-.12-.11-.26-.09-.39.03-.2.17-.41.36-.5.24-.11.56.02.66.27.11.24.02.55-.19.72s-.5.19-.74-.1Z"/>
      <path d="m33.63,22.21c-.06-.09-.08-.19-.06-.29.02-.15.13-.31.27-.37.18-.08.41.02.5.2.08.18,0,.41-.14.53-.16.12-.39.15-.57-.07Z"/>
      <path d="m34.6,24.06c-.06-.09-.08-.19-.06-.29.02-.15.13-.31.27-.37.18-.08.41.02.5.2.08.18,0,.41-.14.53-.16.12-.39.15-.57-.07Z"/>
      <path d="m36.5,17.62c-.06-.09-.08-.19-.06-.29.02-.15.13-.31.27-.37.18-.08.41.02.5.2s0,.41-.14.53c-.17.12-.4.15-.57-.07Z"/>
      <path d="m34.92,20.71c-.06-.09-.08-.19-.06-.29.02-.15.13-.31.27-.37.18-.08.41.02.5.2.08.18,0,.41-.14.53-.16.12-.39.15-.57-.07Z"/>
      <path d="m36.06,19.6c-.08-.12-.11-.26-.09-.39.03-.2.17-.41.36-.5.24-.11.56.02.66.27.11.24.02.55-.19.72s-.5.2-.74-.1Z"/>
      <path d="m44.1,22.42c-.04-.07-.06-.15-.05-.22.02-.12.1-.23.2-.28.14-.06.32.01.38.15.06.14,0,.31-.11.41-.12.09-.29.11-.42-.06Z"/>
      <path d="m46.14,21.3c-.04-.07-.06-.15-.05-.22.02-.12.1-.23.2-.28.14-.06.32.01.38.15.06.14,0,.31-.11.41s-.29.11-.42-.06Z"/>
      <path d="m45.78,26.28c-.04-.07-.06-.15-.05-.22.02-.12.1-.23.2-.28.14-.06.32.01.38.15s0,.31-.11.41c-.11.09-.28.11-.42-.06Z"/>
      <path d="m45.6,29.73c-.04-.07-.06-.15-.05-.22.02-.12.1-.23.2-.28.14-.06.32.01.38.15s0,.31-.11.41c-.11.08-.28.11-.42-.06Z"/>
      <path d="m46.63,22.76c-.04-.07-.06-.15-.05-.22.02-.12.1-.23.2-.28.14-.06.32.01.38.15.06.14,0,.31-.11.41-.12.09-.29.11-.42-.06Z"/>
      <path d="m47.47,16.89c-.04-.07-.06-.15-.05-.22.02-.12.1-.23.2-.28.14-.06.32.01.38.15.06.14,0,.31-.11.41-.11.08-.28.1-.42-.06Z"/>
      <path d="m48.47,12.7c-.04-.07-.06-.15-.05-.22.02-.12.1-.23.2-.28.14-.06.32.01.38.15s0,.31-.11.41c-.12.08-.29.1-.42-.06Z"/>
      <path d="m46.98,18.59c-.04-.07-.06-.15-.05-.22.02-.12.1-.23.2-.28.14-.06.32.01.38.15.06.14,0,.31-.11.41s-.29.1-.42-.06Z"/>
      <path d="m47.72,14.54c-.04-.07-.06-.15-.05-.22.02-.12.1-.23.2-.28.14-.06.32.01.38.15.06.14,0,.31-.11.41-.11.09-.28.11-.42-.06Z"/>
      <path d="m46.65,12.77c-.08-.12-.11-.26-.09-.39.03-.2.17-.41.36-.5.24-.11.56.02.66.27.11.24.02.55-.19.72-.2.16-.5.19-.74-.1Z"/>
      <path d="m48.91,9.36c-.08-.12-.11-.26-.09-.39.03-.2.17-.41.36-.5.24-.11.56.02.66.27.11.24.02.55-.19.72s-.5.2-.74-.1Z"/>
      <path d="m46.01,15.4c-.08-.12-.11-.26-.09-.39.03-.2.17-.41.36-.5.24-.11.56.02.66.27s.02.55-.19.72-.5.2-.74-.1Z"/>
      <path d="m44.48,12.95c-.08-.12-.11-.26-.09-.39.03-.2.17-.41.36-.5.24-.11.56.02.66.27.11.24.02.55-.19.72-.2.16-.51.2-.74-.1Z"/>
      <path d="m43.27,11.48c-.08-.12-.11-.26-.09-.39.03-.2.17-.41.36-.5.24-.11.56.02.66.27s.02.55-.19.72-.5.2-.74-.1Z"/>
      <path d="m41.58,9.85c-.08-.12-.11-.26-.09-.39.03-.2.17-.41.36-.5.24-.11.56.02.66.27.11.24.02.55-.19.72-.19.15-.5.19-.74-.1Z"/>
      <path d="m43.74,9.63c-.08-.12-.11-.26-.09-.39.03-.2.17-.41.36-.5.24-.11.56.02.66.27.11.24.02.55-.19.72s-.5.2-.74-.1Z"/>
      <path d="m41.9,3.23c-.08-.12-.11-.26-.09-.39.03-.2.17-.41.36-.5.24-.11.56.02.66.27s.02.55-.19.72c-.2.15-.5.19-.74-.1Z"/>
      <path d="m43,6.56c-.08-.12-.11-.26-.09-.39.03-.2.17-.41.36-.5.24-.11.56.02.66.27s.02.55-.19.72-.5.2-.74-.1Z"/>
      <path d="m44.51,8.23c-.08-.12-.11-.26-.09-.39.03-.2.17-.41.36-.5.24-.11.56.02.66.27.11.24.02.55-.19.72-.2.16-.5.2-.74-.1Z"/>
      <path d="m46.62,5.58c-.08-.12-.11-.26-.09-.39.03-.2.17-.41.36-.5.24-.11.56.02.66.27.11.24.02.55-.19.72-.2.16-.5.2-.74-.1Z"/>
      <path d="m48.4,4.77c-.08-.12-.11-.26-.09-.39.03-.2.17-.41.36-.5.24-.11.56.02.66.27.11.24.02.55-.19.72s-.5.2-.74-.1Z"/>
      <path d="m49.79,6.79c-.08-.12-.11-.26-.09-.39.03-.2.17-.41.36-.5.24-.11.56.02.66.27.11.24.02.55-.19.72s-.5.19-.74-.1Z"/>
      <path d="m52.2,6.77c-.08-.12-.11-.26-.09-.39.03-.2.17-.41.36-.5.24-.11.56.02.66.27s.02.55-.19.72c-.2.16-.5.19-.74-.1Z"/>
      <path d="m48.03,2.55c-.08-.12-.11-.26-.09-.39.03-.2.17-.41.36-.5.24-.11.56.02.66.27s.02.55-.19.72-.5.19-.74-.1Z"/>
      <path d="m46.32,9.08c-.08-.12-.11-.26-.09-.39.03-.2.17-.41.36-.5.24-.11.56.02.66.27.11.24.02.55-.19.72-.2.16-.5.2-.74-.1Z"/>
      <path d="m47.51,7.65c-.08-.12-.11-.26-.09-.39.03-.2.17-.41.36-.5.24-.11.56.02.66.27.11.24.02.55-.19.72-.2.16-.5.19-.74-.1Z"/>
      <path d="m44.68,5.88c-.08-.12-.11-.26-.09-.39.03-.2.17-.41.36-.5.24-.11.56.02.66.27.11.24.02.55-.19.72-.2.15-.5.19-.74-.1Z"/>
      <path d="m46.15,3.29c-.08-.12-.11-.26-.09-.39.03-.2.17-.41.36-.5.24-.11.56.02.66.27s.02.55-.19.72c-.2.15-.5.19-.74-.1Z"/>
      <path d="m43.67,4.15c-.08-.12-.11-.26-.09-.39.03-.2.17-.41.36-.5.24-.11.56.02.66.27.11.24.02.55-.19.72s-.5.2-.74-.1Z"/>
      <path d="m42.11,8c-.08-.12-.11-.26-.09-.39.03-.2.17-.41.36-.5.24-.11.56.02.66.27.11.24.02.55-.19.72s-.5.2-.74-.1Z"/>
      <path d="m45.39,10.85c-.08-.12-.11-.26-.09-.39.03-.2.17-.41.36-.5.24-.11.56.02.66.27.11.24.02.55-.19.72-.2.16-.5.2-.74-.1Z"/>
      <path d="m47.22,11.04c-.08-.12-.11-.26-.09-.39.03-.2.17-.41.36-.5.24-.11.56.02.66.27s.02.55-.19.72-.5.2-.74-.1Z"/>
    </g>
  </g>
</svg>