<?xml version="1.0" encoding="UTF-8"?>
<svg id="Layer_2" data-name="Layer 2" xmlns="http://www.w3.org/2000/svg" viewBox="0 0 89.74 147.64">
  <g id="Layer_1-2" data-name="Layer 1">
    <g>
      <path d="m85.09,0c-4.36.31-8.62,1.5-12.43,3.65-3.52,1.99-6.55,4.75-9.01,7.95-2.47,3.22-4.35,6.86-5.71,10.68-1.37,3.83-2.21,7.84-2.56,11.89-.17,1.97-.22,3.95-.14,5.92.09,2.19.25,4.45,1.03,6.52.51,1.36,1.45,2.88,3.09,2.83,1.97-.06,3.45-1.81,4.68-3.12,3.68-3.91,6.64-8.43,8.72-13.38,1.74-4.14,2.83-8.49,3.69-12.88.71-3.64,1.21-7.36,2.27-10.92.85-2.85,2.17-5.67,4.6-7.51.59-.45,1.24-.83,1.91-1.16.29-.14.04-.57-.25-.43-1.33.65-2.54,1.54-3.53,2.65-.97,1.1-1.7,2.37-2.28,3.7-1.34,3.12-1.91,6.53-2.52,9.86-.75,4.1-1.51,8.2-2.77,12.18-1.49,4.72-3.67,9.2-6.59,13.21-.85,1.16-1.76,2.28-2.72,3.36-.49.55-.99,1.08-1.5,1.61-.47.48-.94,1.03-1.49,1.42-1.02.71-2.41,1.36-3.53.47-.65-.52-1.04-1.33-1.32-2.1-.43-1.16-.67-2.4-.8-3.63-.19-1.9-.26-3.8-.21-5.71.1-3.97.7-7.93,1.78-11.75,1.1-3.87,2.69-7.61,4.86-11,2.13-3.33,4.82-6.31,8.03-8.62,3.39-2.43,7.29-4.05,11.4-4.79,1.09-.2,2.2-.33,3.3-.41.32,0,.32-.51,0-.49Z"/>
      <path d="m58.86,59.7c-3.24,1.86-5.6,4.91-7.31,8.18-.5.95-.95,1.93-1.36,2.92.16.02.33.04.49.07.28-4.44,1.96-8.67,3.25-12.88.57-1.87,1.12-3.77,1.31-5.72.04-.42.12-.88-.03-1.28-.21-.56-.42-1.13-.62-1.69-.39-1.1-.76-2.21-1.11-3.32-1.39-4.49-2.37-9.15-2.46-13.86-.09-4.76.79-9.51,2.83-13.83,1.7-3.59,5.13-7.79,2.81-11.9-.28-.5-.63-.95-1.02-1.37v.35c1.34-1.46,3.16-2.47,5.18-2.51,1.81-.03,3.55.74,4.76,2.08.76.84,1.27,1.87,1.56,2.96.02-.08.04-.16.06-.24-2.75,2.57-5,5.62-6.77,8.93-1.79,3.34-3.09,6.94-3.96,10.62-.86,3.65-1.3,7.41-1.29,11.16,0,1.79.05,3.63.34,5.4.26,1.57.64,3.32,1.66,4.59.62.78,1.52,1.2,2.52,1.05.5-.08.98-.27,1.43-.52.74-.41,1.31-.96,1.9-1.55,3.01-3.01,5.62-6.43,7.67-10.17,1.76-3.2,3.09-6.62,4.09-10.13.88-3.1,1.5-6.26,2.08-9.42.13-.73.26-1.45.4-2.18.07-.35.13-.7.2-1.06s.08-.76.32-1.04c1.15-1.38,2.64-2.54,4.42-2.94,2.78-.63,5.63.96,6.62,3.63.25.67.38,1.37.4,2.08l.25-.25c-1.69-.11-3.36.29-4.63,1.45-1.31,1.19-2.03,2.93-2.48,4.61-.58,2.13-.67,4.33-1.16,6.48-.44,1.92-1.12,3.79-2.02,5.55-1.68,3.29-4.08,6.13-6.67,8.74-2.51,2.53-5.21,4.88-7.66,7.48-2.34,2.49-4.44,5.26-5.69,8.47-.16.4-.3.81-.42,1.22-.1.31.39.44.48.13,1.02-3.27,2.97-6.12,5.24-8.66,2.33-2.6,4.96-4.91,7.45-7.35,2.58-2.52,5.04-5.21,6.9-8.33.96-1.62,1.75-3.34,2.33-5.13.31-.96.56-1.95.74-2.94.2-1.09.3-2.2.49-3.29.55-3.32,1.84-7.46,5.74-7.9.45-.05.91-.05,1.37-.02.13.01.25-.12.25-.25-.07-2.78-1.86-5.34-4.57-6.12-1.39-.4-2.88-.26-4.21.29-.79.33-1.51.79-2.16,1.34-.38.32-.73.67-1.06,1.03-.16.18-.32.36-.46.55-.12.16-.13.32-.17.51-.58,2.97-1.07,5.97-1.72,8.93-.74,3.35-1.68,6.66-2.99,9.84-1.51,3.67-3.51,7.13-5.96,10.26-1.39,1.78-2.92,3.46-4.55,5.02-.7.67-1.87,1.29-2.87,1.17-1.09-.14-1.74-1.18-2.14-2.1-.74-1.72-.96-3.62-1.09-5.48-.25-3.68-.05-7.4.57-11.04.63-3.74,1.7-7.42,3.25-10.89,1.54-3.44,3.54-6.69,6.07-9.5.6-.67,1.24-1.31,1.89-1.93.06-.06.09-.16.06-.24-.54-1.99-1.81-3.76-3.68-4.69-1.75-.87-3.82-.93-5.63-.19-1.16.47-2.18,1.22-3.02,2.14-.09.1-.09.25,0,.35.77.84,1.34,1.82,1.56,2.94.19,1,.07,2.03-.2,3-.6,2.17-1.88,4.04-2.89,6.03-2.12,4.18-3.17,8.82-3.24,13.5-.07,4.62.74,9.21,1.99,13.64.64,2.25,1.43,4.44,2.21,6.64.14.4.04.9-.01,1.31-.05.45-.12.9-.21,1.35-.19.96-.43,1.92-.7,2.86-1.21,4.21-2.89,8.32-3.48,12.69-.07.51-.12,1.02-.15,1.54-.02.31.39.3.49.07,1.39-3.35,3.26-6.62,6-9.05.75-.67,1.57-1.26,2.44-1.76.29-.16.03-.59-.25-.43Z"/>
      <path d="m49.02,112.5c-3.18-3.52-7-6.48-11.27-8.57-4.17-2.04-8.76-3.23-13.41-3.27-2.36-.02-4.76.24-7.04.85-2.43.64-4.76,1.69-6.93,2.96-2.19,1.28-4.25,2.79-6.14,4.48-1.17,1.06-2.28,2.18-3.06,3.57C.4,113.91,0,115.47,0,117.06c0,2.12.72,4.19,1.7,6.05.33.62.69,1.22,1.07,1.8.15.23.56.09.46-.19-.39-1.1-.66-2.27-.52-3.44.15-1.23.8-2.3,1.68-3.15.59-.57,1.27-1.03,1.97-1.44.19-.11.41-.2.58-.32.15-.1.27-.25.4-.37.28-.25.56-.5.84-.73,1.14-.95,2.38-1.77,3.68-2.48,5.25-2.86,11.45-3.66,17.33-2.86,6.03.82,11.99,3.28,16.66,7.21,4.6,3.87,7.8,9.03,10.86,14.13,3.09,5.16,6.13,10.44,10.4,14.73.54.54,1.1,1.06,1.67,1.57.13.12.29.08.39-.05.89-1.17,1.68-2.41,2.58-3.58.07-.09.03-.23-.04-.3-4.05-4.48-7.73-9.3-10.76-14.53-3.11-5.37-5.67-11.22-6.7-17.37-1.09-6.5-.61-13.11-.6-19.67.01-3.85.15-7.79-.76-11.56-.42-1.72-1.08-3.42-2.2-4.81-1.14-1.42-2.75-2.36-4.52-2.75-.5-.11-1-.18-1.51-.22-.18-.02-.32.23-.22.38,1.14,1.63,1.7,3.58,2.03,5.52.4,2.38.46,4.81.47,7.21.01,5.73-.37,11.46.02,17.18.23,3.29.7,6.58,1.65,9.74.09.31.57.18.48-.13-1.71-5.71-1.88-11.75-1.8-17.67.04-2.82.14-5.65.15-8.47.01-2.46-.04-4.93-.39-7.37-.31-2.19-.88-4.43-2.17-6.26-.07.13-.14.25-.22.38,1.91.16,3.75.83,5.12,2.2,1.24,1.24,1.99,2.88,2.46,4.55,1.05,3.71.93,7.65.92,11.46-.02,6.33-.45,12.7.4,19,.83,6.15,3.15,11.99,6.12,17.41,2.85,5.2,6.36,10.03,10.24,14.51.48.55.96,1.09,1.44,1.63-.01-.1-.03-.2-.04-.3-.89,1.17-1.68,2.41-2.57,3.58.13-.02.26-.03.39-.05-4.7-4.13-7.99-9.49-11.17-14.81-3.11-5.2-6.23-10.55-10.73-14.7-4.55-4.2-10.45-6.94-16.53-8.04-5.93-1.07-12.21-.57-17.7,1.99-1.36.63-2.66,1.39-3.88,2.26-.6.43-1.19.9-1.75,1.38-.31.27-.59.57-.94.77-.4.23-.8.46-1.18.72-1.11.76-2.13,1.74-2.67,2.99-.45,1.06-.52,2.2-.33,3.32.1.6.27,1.18.47,1.75.15-.06.3-.13.46-.19-2.13-3.27-3.65-7.38-1.95-11.17.55-1.22,1.36-2.29,2.31-3.22,1.76-1.72,3.71-3.26,5.79-4.59,2.11-1.35,4.36-2.5,6.74-3.29,2.2-.73,4.53-1.1,6.84-1.2,4.54-.19,9.08.75,13.24,2.56,4.23,1.85,8.07,4.56,11.31,7.84.41.41.8.83,1.19,1.26.22.23.57-.12.36-.36Z"/>
      <path d="m52.79,80.15c-.59-2.25-1.65-4.41-3.55-5.83.04.09.08.19.11.28.99-3.13,2.27-6.2,4.09-8.94,1.77-2.66,4.14-5.02,7.14-6.26,1.81-.75,3.76-1.06,5.71-1.01-.06-.14-.12-.28-.18-.43-2.43,2.2-4.57,4.71-6.46,7.39-2.04,2.88-3.8,5.97-5.24,9.2-.81,1.82-1.53,3.69-2.12,5.6-.1.31.39.44.48.13,2.05-6.62,5.52-12.9,10.01-18.17,1.14-1.34,2.36-2.61,3.67-3.79.17-.15.03-.42-.18-.43-3.48-.09-6.81,1.02-9.5,3.23-2.59,2.13-4.46,5.03-5.87,8.04-.81,1.72-1.47,3.5-2.05,5.3-.04.12.03.22.11.28,1.79,1.35,2.76,3.42,3.32,5.54.11.31.59.18.51-.13Z"/>
      <path d="m3.22,124.71c-.4-1.12-.68-2.33-.51-3.52.18-1.25.86-2.32,1.78-3.17.73-.67,1.58-1.21,2.46-1.67-.1-.13-.2-.26-.3-.39-.98,1.21-1.6,2.73-1.27,4.3.27,1.27,1.16,2.38,2.32,2.94.7.34,1.47.49,2.24.45-.07-.13-.14-.25-.22-.38-.77,1.15-1.83,2.34-3.22,2.7-1.35.36-2.51-.37-3.35-1.38-.2-.25-.56.11-.35.35.93,1.13,2.27,1.88,3.76,1.53,1.55-.37,2.74-1.68,3.59-2.95.1-.15-.03-.39-.22-.38-1.52.08-3-.68-3.73-2.04-.86-1.61-.31-3.45.78-4.8.17-.21-.04-.53-.3-.39-1.45.77-2.88,1.75-3.75,3.18-.65,1.07-.88,2.32-.74,3.56.09.75.28,1.48.53,2.19.12.31.6.18.5-.13Z"/>
      <g>
        <path d="m75.89,33.53c-1.42,2.6-3.07,5.13-4.97,7.4-1.86,2.22-4.02,4.11-6.06,6.16-.1.11.05.3.18.23,2.59-1.4,4.74-3.58,6.57-5.86,1.91-2.39,3.45-4.97,4.56-7.82.06-.18-.19-.27-.28-.11h0Z"/>
        <path d="m54.49,23.08c-1.03,3.72-1.43,7.53-1.35,11.38.08,3.83.44,7.91,1.89,11.48.07.17.34.1.31-.08-.57-3.75-1.36-7.41-1.46-11.22-.1-3.83.3-7.69.96-11.46.04-.2-.29-.3-.35-.1h0Z"/>
        <path d="m52.1,25.61c-.64,3.93-.51,7.92.06,11.85.28,1.89.66,3.77,1.15,5.62.51,1.93,1.09,3.8,2.14,5.51.03.05.12.01.11-.04-.36-1.83-.97-3.57-1.46-5.36-.52-1.91-.93-3.86-1.22-5.82-.58-3.88-.67-7.82-.61-11.74,0-.11-.16-.13-.17-.02h0Z"/>
        <path d="m61.59,23.68c-.52,3.59-1.16,7.2-2.04,10.73-.45,1.8-.97,3.59-1.54,5.36-.54,1.66-1.28,3.31-1.57,5.05-.02.12.15.19.22.09,1.01-1.44,1.53-3.19,2.08-4.84.57-1.74,1.07-3.5,1.51-5.27.89-3.65,1.46-7.32,1.61-11.07,0-.19-.24-.22-.27-.05h0Z"/>
        <path d="m66.39,19.9c-.49,4.42-1.72,8.81-3.09,13.04-.68,2.09-1.42,4.16-2.33,6.16-.92,2.04-2.08,3.93-3.15,5.89-.15.28.27.46.45.26,1.5-1.64,2.55-3.66,3.48-5.67.96-2.09,1.76-4.25,2.44-6.44,1.33-4.31,2.4-8.67,2.57-13.19.02-.25-.34-.3-.37-.05h0Z"/>
        <path d="m68.55,28.23c-1.27,3.29-2.5,6.63-4.04,9.8-.78,1.61-1.65,3.17-2.66,4.65-.5.73-1.03,1.44-1.59,2.12-.54.65-1.17,1.23-1.53,2-.05.11.08.24.19.19,1.42-.66,2.48-2.35,3.35-3.6,1.04-1.47,1.95-3.04,2.74-4.66,1.64-3.34,2.78-6.83,3.83-10.39.04-.18-.22-.3-.29-.11h0Z"/>
        <path d="m61.63,46.82c2.08-1.6,3.92-3.4,5.58-5.43,1.63-1.99,3.22-4.19,4.06-6.64.04-.12-.13-.24-.21-.12-1.47,2.05-2.7,4.27-4.25,6.28-1.59,2.06-3.4,3.99-5.31,5.76-.09.07.02.23.13.15h0Z"/>
        <path d="m46.38,74.3c.39,1.97.82,3.93,1.07,5.92.12.98.2,1.96.23,2.94.03.97-.06,2.04.19,2.98.05.19.34.16.4,0,.34-.89.27-2,.23-2.94-.04-1.03-.14-2.06-.28-3.08-.28-2.03-.76-4.02-1.63-5.88-.03-.12-.24-.08-.21.06h0Z"/>
        <path d="m46.56,74.38c.56.5,1.02,1.25,1.44,1.88.39.59.73,1.21,1.03,1.85.59,1.29.97,2.66,1.16,4.06.19,1.43.21,2.86.04,4.3-.16,1.44-.5,2.85-.68,4.29-.03.22.26.27.36.09,1.43-2.64,1.63-6.18,1.12-9.09-.25-1.43-.7-2.83-1.35-4.12-.32-.63-.69-1.23-1.11-1.79-.54-.72-1.09-1.2-1.85-1.65-.14-.09-.28.08-.16.18h0Z"/>
        <path d="m63.63,58.99c-.86.42-1.65.83-2.4,1.43-.77.62-1.48,1.31-2.16,2.03-.68.73-1.3,1.51-1.89,2.31-.3.4-.6.8-.87,1.21-.23.35-.47.69-.4,1.12.02.1.11.19.22.17.78-.16,1.28-1.27,1.72-1.86.55-.75,1.13-1.47,1.72-2.19,1.2-1.47,2.63-2.91,4.18-4.01.1-.09,0-.27-.12-.21h0Z"/>
        <path d="m55.07,65.26c.59-.69,1.29-1.35,1.96-1.96.64-.58,1.3-1.14,2.01-1.64.73-.51,1.5-.96,2.31-1.33.4-.19.82-.36,1.23-.52.35-.13.74-.22.98-.53.08-.1.04-.27-.08-.31-.37-.13-.73.01-1.09.14-.45.16-.89.34-1.31.55-.83.4-1.64.87-2.39,1.4-.73.51-1.43,1.09-2.05,1.73-.7.73-1.2,1.5-1.71,2.37-.06.08.07.19.14.1h0Z"/>
        <path d="m81.59,23.56c.63-1.88,1.18-3.91,2.41-5.51.53-.69,1.18-1.29,1.94-1.71.72-.4,1.5-.49,2.28-.73.18-.05.19-.37,0-.42-1.68-.46-3.55,1-4.55,2.21-1.41,1.72-1.95,3.94-2.31,6.09-.02.14.19.2.23.07h0Z"/>
        <path d="m58.3,4.03c.55-.11,1.1-.13,1.66-.17.57-.04,1.16,0,1.72.14s1.1.36,1.56.7c.47.34.86.8,1.23,1.25.2.25.53.02.45-.26-.34-1.28-1.73-2.11-2.95-2.39-.62-.14-1.26-.15-1.89-.09-.65.07-1.24.3-1.84.55-.15.06-.1.3.06.27h0Z"/>
        <path d="m81.58,1.56c-1.67,1.15-2.8,2.73-3.63,4.57-.81,1.81-1.46,3.86-1.56,5.84-.01.23.33.35.41.11.59-1.84.91-3.73,1.67-5.51s1.87-3.51,3.23-4.89c.06-.07-.05-.17-.12-.12h0Z"/>
        <path d="m32.08,105.61c3.02.63,5.92,1.88,8.5,3.57,2.57,1.68,4.65,3.87,6.76,6.07.11.12.35.02.27-.15-1.36-2.88-3.86-5.13-6.52-6.81-2.73-1.72-5.76-2.78-8.95-3.22-.35-.06-.41.47-.06.54h0Z"/>
        <path d="m4.07,113.77c1.45-1.42,3.2-2.67,4.89-3.79,1.8-1.2,3.74-2.19,5.75-2.97,1.98-.76,4.03-1.32,6.12-1.65,1.02-.16,2.05-.28,3.08-.33,1.07-.06,2.14-.03,3.19-.27.12-.03.17-.21.03-.26-1.92-.7-4.32-.32-6.3-.01-2.16.35-4.29.93-6.32,1.74-2.03.81-3.97,1.84-5.78,3.06-1.84,1.25-3.31,2.73-4.79,4.37-.04.06.07.17.13.11h0Z"/>
        <path d="m1.19,119.53c2.53-3.33,6.12-5.82,9.71-7.9,1.67-.97,3.41-1.83,5.2-2.54,1.81-.72,3.7-1.25,5.54-1.91.17-.06.08-.3-.08-.29-3.96.09-7.85,2.06-11.19,4.04-3.56,2.11-7.48,4.69-9.38,8.48-.06.13.12.23.2.12h0Z"/>
        <path d="m1.85,114.46c1.14-1.7,2.6-3.38,4.07-4.81,1.34-1.3,2.8-2.47,4.38-3.46,3.3-2.1,7.04-3.25,10.84-4.09.19-.04.15-.29-.04-.29-4,.03-7.83,1.55-11.18,3.66-1.64,1.04-3.17,2.25-4.53,3.64-.73.74-1.42,1.52-2.04,2.35-.7.93-1.15,1.87-1.63,2.91-.06.09.07.17.13.09h0Z"/>
        <path d="m8.09,124.08c-.29.23-.6.4-.95.52-.32.11-.64.21-.98.21s-.68-.07-.98-.21c-.15-.07-.26-.15-.42-.26-.08-.06-.16-.12-.25-.17-.09-.04-.16-.04-.23-.09-.15-.09-.38,0-.35.2,0,.04.02.09.03.13.02.08.02.09,0,.03,0,.05,0,.09,0,.14.03.13.11.23.2.33.17.18.37.3.59.41.41.21.88.29,1.34.27.44-.02.92-.15,1.3-.38.37-.22.71-.51,1-.82.19-.17-.12-.47-.32-.31h0Z"/>
        <path d="m77.38,6.19c-.15.04-.3.03-.44-.04-.2-.1-.37-.31-.4-.53-.04-.28.2-.57.49-.6s.57.16.68.43c.1.27.05.59-.33.74Z"/>
        <path d="m69.38,10.31c-.09.03-.19.02-.27-.02-.13-.06-.23-.19-.25-.33-.02-.18.13-.36.31-.38.18-.02.36.1.43.27.05.16.02.36-.22.46Z"/>
        <path d="m65.07,17.37c-.09.03-.19.02-.27-.02-.13-.06-.23-.19-.25-.33-.02-.18.13-.36.31-.38.18-.02.36.1.43.27.05.16.01.36-.22.46Z"/>
        <path d="m65.98,14.82c-.09.03-.19.02-.27-.02-.13-.06-.23-.19-.25-.33-.02-.18.13-.36.31-.38.18-.02.36.1.43.27.06.16.02.36-.22.46Z"/>
        <path d="m61.81,18.31c-.09.03-.19.02-.27-.02-.13-.06-.23-.19-.25-.33-.02-.18.13-.36.31-.38.18-.02.36.1.43.27.06.16.02.37-.22.46Z"/>
        <path d="m64.34,13.31c-.09.03-.19.02-.27-.02-.13-.06-.23-.19-.25-.33-.02-.18.13-.36.31-.38.18-.02.36.1.43.27.06.16.02.36-.22.46Z"/>
        <path d="m62.25,8.77c-.09.03-.19.02-.27-.02-.13-.06-.23-.19-.25-.33-.02-.18.13-.36.31-.38.18-.02.36.1.43.27.06.16.02.37-.22.46Z"/>
        <path d="m58.02,6.97c-.09.03-.19.02-.27-.02-.13-.06-.23-.19-.25-.33-.02-.18.13-.36.31-.38.18-.02.36.1.43.27.06.16.02.37-.22.46Z"/>
        <path d="m58.03,10.04c-.09.03-.19.02-.27-.02-.13-.06-.23-.19-.25-.33-.02-.18.13-.36.31-.38.18-.02.36.1.43.27.06.16.02.36-.22.46Z"/>
        <path d="m55.81,16.31c-.09.03-.19.02-.27-.02-.13-.06-.23-.19-.25-.33-.02-.18.13-.36.31-.38.18-.02.36.1.43.27.06.16.02.37-.22.46Z"/>
        <path d="m57.19,13.31c-.09.03-.19.02-.27-.02-.13-.06-.23-.19-.25-.33-.02-.18.13-.36.31-.38s.36.1.43.27c.06.16.02.37-.22.46Z"/>
        <path d="m64.01,7.73c-.09.03-.19.02-.27-.02-.13-.06-.23-.19-.25-.33-.02-.18.13-.36.31-.38.18-.02.36.1.43.27.06.16.02.37-.22.46Z"/>
        <path d="m61.11,6.58c-.09.03-.19.02-.27-.02-.13-.06-.23-.19-.25-.33-.02-.18.13-.36.31-.38.18-.02.36.1.43.27s.02.37-.22.46Z"/>
        <path d="m57.77,16.1c-.09.03-.19.02-.27-.02-.13-.06-.23-.19-.25-.33-.02-.18.13-.36.31-.38.18-.02.36.1.43.27.06.16.02.37-.22.46Z"/>
        <path d="m62.57,15.8c-.09.03-.19.02-.27-.02-.13-.06-.23-.19-.25-.33-.02-.18.13-.36.31-.38s.36.1.43.27c.06.16.02.36-.22.46Z"/>
        <path d="m60.4,21.05c-.09.03-.19.02-.27-.02-.13-.06-.23-.19-.25-.33-.02-.18.13-.36.31-.38.18-.02.36.1.43.27.05.16.02.37-.22.46Z"/>
        <path d="m63.63,18.8c-.09.03-.19.02-.27-.02-.13-.06-.23-.19-.25-.33-.02-.18.13-.36.31-.38.18-.02.36.1.43.27.05.16.02.37-.22.46Z"/>
        <path d="m67.97,17.4c-.09.03-.19.02-.27-.02-.13-.06-.23-.19-.25-.33-.02-.18.13-.36.31-.38.18-.02.36.1.43.27.06.16.02.36-.22.46Z"/>
        <path d="m71,16.26c-.09.03-.19.02-.27-.02-.13-.06-.23-.19-.25-.33-.02-.18.13-.36.31-.38.18-.02.36.1.43.27.06.16.02.36-.22.46Z"/>
        <path d="m74.71,17.29c-.09.03-.19.02-.27-.02-.13-.06-.23-.19-.25-.33-.02-.18.13-.36.31-.38.18-.02.36.1.43.27s.02.37-.22.46Z"/>
        <path d="m83.54,13.77c-.12.03-.25.02-.35-.03-.16-.08-.3-.25-.32-.43-.03-.23.17-.46.4-.49s.46.13.55.35c.07.22.02.48-.28.6Z"/>
        <path d="m85.77,13.17c-.12.03-.25.02-.35-.03-.16-.08-.3-.25-.32-.43-.03-.23.17-.46.4-.49.23-.03.46.13.55.35.08.21.03.47-.28.6Z"/>
        <path d="m86.22,14.47c-.12.03-.25.02-.35-.03-.16-.08-.3-.25-.32-.43-.03-.23.17-.46.4-.49.23-.03.46.13.55.35.08.21.03.47-.28.6Z"/>
        <path d="m82.19,16.02c-.12.03-.25.02-.35-.03-.16-.08-.3-.25-.32-.43-.03-.23.17-.46.4-.49.23-.03.46.13.55.35.08.21.03.47-.28.6Z"/>
        <path d="m72.69,14.73c-.09.03-.19.02-.27-.02-.13-.06-.23-.19-.25-.33-.02-.18.13-.36.31-.38s.36.1.43.27c.06.16.02.36-.22.46Z"/>
        <path d="m75.11,14.3c-.09.03-.19.02-.27-.02-.13-.06-.23-.19-.25-.33-.02-.18.13-.36.31-.38.18-.02.36.1.43.27.05.16.02.36-.22.46Z"/>
        <path d="m75.07,12.13c-.09.03-.19.02-.27-.02-.13-.06-.23-.19-.25-.33-.02-.18.13-.36.31-.38.18-.02.36.1.43.27.05.16.02.36-.22.46Z"/>
        <path d="m77.98,18.68c-.09.03-.19.02-.27-.02-.13-.06-.23-.19-.25-.33-.02-.18.13-.36.31-.38s.36.1.43.27c.05.16.02.36-.22.46Z"/>
        <path d="m76.96,24.05c-.09.03-.19.02-.27-.02-.13-.06-.23-.19-.25-.33-.02-.18.13-.36.31-.38.18-.02.36.1.43.27.06.15.02.36-.22.46Z"/>
        <path d="m80.93,13.94c-.09.03-.19.02-.27-.02-.13-.06-.23-.19-.25-.33-.02-.18.13-.36.31-.38.18-.02.36.1.43.27.05.16.02.37-.22.46Z"/>
        <path d="m83.92,11.52c-.09.03-.19.02-.27-.02-.13-.06-.23-.19-.25-.33-.02-.18.13-.36.31-.38.18-.02.36.1.43.27.06.16.02.37-.22.46Z"/>
        <path d="m78.38,20.42c-.09.03-.19.02-.27-.02-.13-.06-.23-.19-.25-.33-.02-.18.13-.36.31-.38.18-.02.36.1.43.27.06.16.02.37-.22.46Z"/>
        <path d="m78.12,15.47c-.09.03-.19.02-.27-.02-.13-.06-.23-.19-.25-.33-.02-.18.13-.36.31-.38.18-.02.36.1.43.27.06.16.02.37-.22.46Z"/>
        <path d="m80.22,17.2c-.09.03-.19.02-.27-.02-.13-.06-.23-.19-.25-.33-.02-.18.13-.36.31-.38.18-.02.36.1.43.27.05.16.02.36-.22.46Z"/>
        <path d="m76.6,8.66c-.09.03-.19.02-.27-.02-.13-.06-.23-.19-.25-.33-.02-.18.13-.36.31-.38.18-.02.36.1.43.27.06.16.02.37-.22.46Z"/>
        <path d="m78.25,3.19c-.09.03-.19.02-.27-.02-.13-.06-.23-.19-.25-.33-.02-.18.13-.36.31-.38.18-.02.36.1.43.27.05.16.02.37-.22.46Z"/>
        <path d="m68.32,14.73c-.09.03-.19.02-.27-.02-.13-.06-.23-.19-.25-.33-.02-.18.13-.36.31-.38.18-.02.36.1.43.27.05.15.02.36-.22.46Z"/>
        <path d="m71.36,19.32c-.09.03-.19.02-.27-.02-.13-.06-.23-.19-.25-.33-.02-.18.13-.36.31-.38.18-.02.36.1.43.27.06.15.02.36-.22.46Z"/>
        <path d="m72.31,22.59c-.09.03-.19.02-.27-.02-.13-.06-.23-.19-.25-.33-.02-.18.13-.36.31-.38.18-.02.36.1.43.27.06.15.02.36-.22.46Z"/>
        <path d="m71.41,8.52c-.09.03-.19.02-.27-.02-.13-.06-.23-.19-.25-.33-.02-.18.13-.36.31-.38.18-.02.36.1.43.27.05.16.02.37-.22.46Z"/>
        <path d="m74.67,7.55c-.14.04-.29.03-.41-.04-.19-.09-.35-.29-.38-.5-.04-.27.19-.53.46-.57.27-.03.54.15.64.4.1.26.05.56-.31.71Z"/>
        <path d="m74.42,22.55c-.14.04-.29.03-.41-.04-.19-.09-.35-.29-.38-.5-.04-.27.19-.53.46-.57.27-.03.54.15.64.4s.05.56-.31.71Z"/>
        <path d="m84.59,15.84c-.14.04-.29.03-.41-.04-.19-.09-.35-.29-.38-.5-.04-.27.19-.53.46-.57s.54.15.64.4c.11.26.05.57-.31.71Z"/>
        <path d="m82.63,17.73c-.14.04-.29.03-.41-.04-.19-.09-.35-.29-.38-.5-.04-.27.19-.53.46-.57s.54.15.64.4c.1.26.05.57-.31.71Z"/>
        <path d="m80.94,19.96c-.14.04-.29.03-.41-.04-.19-.09-.35-.29-.38-.5-.04-.27.19-.53.46-.57.27-.03.54.15.64.4.1.26.04.56-.31.71Z"/>
        <path d="m73.57,10.42c-.14.04-.29.03-.41-.04-.19-.09-.35-.29-.38-.5-.04-.27.19-.53.46-.57s.54.15.64.4c.1.26.05.56-.31.71Z"/>
        <path d="m60.37,9.1c-.14.04-.29.03-.41-.04-.19-.09-.35-.29-.38-.5-.04-.27.19-.53.46-.57.27-.03.54.15.64.4.1.26.04.57-.31.71Z"/>
        <path d="m61.12,11.72c-.14.04-.29.03-.41-.04-.19-.09-.35-.29-.38-.5-.04-.27.19-.53.46-.57.27-.03.54.15.64.4.11.26.05.57-.31.71Z"/>
        <path d="m59.1,13.8c-.14.04-.29.03-.41-.04-.19-.09-.35-.29-.38-.5-.04-.27.19-.53.46-.57s.54.15.64.4c.11.26.05.57-.31.71Z"/>
        <path d="m72.29,12.17c-.14.04-.29.03-.41-.04-.19-.09-.35-.29-.38-.5-.04-.27.19-.53.46-.57s.54.15.64.4c.1.27.05.57-.31.71Z"/>
      </g>
    </g>
  </g>
</svg>