<svg xmlns="http://www.w3.org/2000/svg" width="180" height="180" viewBox="0 0 180 180" fill="none">
  <rect width="180" height="180" fill="#17130F"/>
  <g opacity="0.18" stroke="#C7A96B" stroke-width="1.2">
    <path d="M30 90C30 56.8629 56.8629 30 90 30C123.137 30 150 56.8629 150 90C150 123.137 123.137 150 90 150C56.8629 150 30 123.137 30 90Z"/>
    <path d="M90 16V164"/>
    <path d="M16 90H164"/>
    <path d="M45 45L135 135"/>
    <path d="M135 45L45 135"/>
    <path d="M60 20C80 38 100 38 120 20"/>
    <path d="M60 160C80 142 100 142 120 160"/>
    <path d="M20 60C38 80 38 100 20 120"/>
    <path d="M160 60C142 80 142 100 160 120"/>
  </g>
</svg>
