<?xml version="1.0" encoding="UTF-8"?>
<svg id="Layer_2" data-name="Layer 2" xmlns="http://www.w3.org/2000/svg" viewBox="0 0 48.72 182.25">
  <defs>
    <style>
      .cls-1 {
        fill: #070707;
      }
    </style>
  </defs>
  <g id="Layer_1-2" data-name="Layer 1">
    <g>
      <path class="cls-1" d="m48,.18c-7.67,10.96-12.19,23.66-14.82,36.7-2.64,13.05-3.55,26.36-4.47,39.62-.45,6.58-.9,13.15-1.56,19.71-.32,3.23-.79,6.43-1.14,9.65-.36,3.3-.32,6.63-.11,9.94.43,6.96,1.59,13.85,2.48,20.75.85,6.62,1.58,13.36.98,20.03-.47,5.23-1.93,10.31-4.94,14.66-2.94,4.26-7.18,7.52-12.08,9.21-1.36.47-2.75.81-4.16,1.07.15.15.31.31.46.46.48-1.58.96-3.16,1.45-4.73.25-.79.49-1.58.74-2.36.17-.54.55-1.24.55-1.8-.09.12-.18.24-.28.36,2.7-.69,5.33-1.8,7.4-3.71,1.77-1.63,2.97-3.75,3.75-6,2.43-6.98,1.28-14.75-.7-21.69-2.06-7.19-5.23-14.18-9.41-20.39-3.96-5.88-6.75-12.43-8.53-19.28C.16,89.14.14,75.04,1.85,61.53c1.58-12.49,4.77-25.09,10.63-36.29,2.81-5.36,6.29-10.42,10.7-14.59,5.31-5.02,11.92-8.45,19.17-9.52,1.97-.29,3.97-.4,5.96-.38.48,0,.48-.75,0-.75-7.31-.07-14.47,1.91-20.55,6.01-5.11,3.45-9.28,8.12-12.65,13.25-6.86,10.47-10.68,22.83-12.9,35.06-2.35,12.93-3.01,26.39-1.1,39.41,1.02,6.94,2.85,13.78,5.79,20.16,1.48,3.2,3.3,6.14,5.22,9.09,2.05,3.15,3.8,6.49,5.31,9.93,3.23,7.33,5.75,15.53,5.41,23.63-.24,5.7-2.2,11.68-7.49,14.54-1.4.76-2.9,1.27-4.44,1.66-.16.04-.28.2-.28.36,0,.31-.27.78-.36,1.09-.11.34-.21.67-.32,1.01-.23.73-.46,1.46-.69,2.19-.45,1.46-.9,2.93-1.34,4.39-.09.29.19.51.46.46,5.16-.93,9.97-3.28,13.69-7.01,3.26-3.26,5.59-7.39,6.83-11.81,1.73-6.13,1.62-12.67,1.09-18.96-.58-6.96-1.75-13.86-2.59-20.79-.42-3.47-.77-6.95-.88-10.45-.1-3.33.13-6.59.56-9.89.85-6.59,1.4-13.21,1.88-19.83.98-13.55,1.66-27.15,3.86-40.57,2.19-13.33,5.97-26.55,13.05-38.16.88-1.44,1.8-2.84,2.77-4.22.29-.39-.36-.77-.64-.37Z"/>
      <path class="cls-1" d="m35.04,17.7c-8.25,20.84-10.69,43.36-10.73,65.63,0,6.44.14,12.87.65,19.29.02.28.44.29.44,0-.2-11.19-.56-22.35.04-33.54.6-11.22,1.98-22.44,4.53-33.39,1.41-6.07,3.19-12.06,5.35-17.91.07-.19-.22-.26-.28-.08h0Z"/>
      <path class="cls-1" d="m20.44,90.81c-.75,8.81-1.65,17.92.24,26.65.02.09.17.07.16-.02-1.02-8.89-.65-17.73-.08-26.63,0-.2-.3-.2-.32,0h0Z"/>
      <path class="cls-1" d="m15.06,96.05c-.29,6.77.05,13.87,1.92,20.42.04.14.28.12.26-.04-.39-3.38-.91-6.75-1.22-10.14-.3-3.4-.48-6.83-.51-10.24,0-.29-.44-.29-.45,0h0Z"/>
      <path class="cls-1" d="m29.13,15.24c-.72,1.91-1.46,3.82-2.15,5.75-.69,1.92-1.42,3.83-1.86,5.83-.03.15.18.26.26.11.91-1.81,1.55-3.74,2.23-5.65.7-1.96,1.34-3.93,2-5.91.09-.31-.37-.43-.48-.13h0Z"/>
    </g>
  </g>
</svg>