<?xml version="1.0" encoding="UTF-8"?>
<svg id="Layer_2" data-name="Layer 2" xmlns="http://www.w3.org/2000/svg" viewBox="0 0 159.02 114.43">
  <defs>
    <style>
      .cls-1 {
        fill: none;
        stroke: #070707;
        stroke-miterlimit: 10;
        stroke-width: .75px;
      }

      .cls-2 {
        fill: #070707;
      }
    </style>
  </defs>
  <g id="Layer_1-2" data-name="Layer 1">
    <g>
      <path class="cls-2" d="m157.83,14.52c-2.83,7.08-7.9,12.83-14.47,16.68.18.14.37.28.55.42,2.02-8,1.9-16.41.78-24.53-.31-2.29-.72-4.56-1.19-6.82l-.46.46c2.99.64,5.89,1.75,8.36,3.59,2.12,1.58,3.8,3.67,4.95,6.05.67,1.38,1.14,2.85,1.48,4.35.11.47.83.27.72-.2-.6-2.69-1.69-5.27-3.36-7.47-1.73-2.27-4.02-4.05-6.59-5.27-1.71-.81-3.51-1.37-5.36-1.77-.29-.06-.52.17-.46.46,1.64,7.89,2.48,16.06,1.62,24.11-.25,2.31-.65,4.59-1.21,6.84-.08.31.26.59.55.42,6.75-3.95,11.91-9.85,14.81-17.12.18-.45-.54-.65-.72-.2Z"/>
      <path class="cls-1" d="m124.32,71.9c-31.37,11.87-62.81-2.04-92.36,9.42-14.68,5.7-20.57,18.98-26.55,32.63l-4.92-1.9c2.56-6.35,5.37-13.3,8.55-20.32,7.41-17.05,21.45-28.67,37.58-37.27,30.49-16.26,67.96-7.29,96.94-22.95,6.1-3.55,11.46-8.87,14.64-16.9,3.82,17.31-17.59,51.11-33.88,57.29Z"/>
      <path class="cls-2" d="m67.95,54.9c-6.64,1.06-13.04,3.23-19.26,5.73-6.14,2.46-12.24,5.1-18.22,7.95-.23.11-.07.5.18.42,12.53-4.35,24.3-11.06,37.46-13.55.35-.07.19-.61-.16-.55h0Z"/>
      <path class="cls-2" d="m107.77,57.29c-10.9.06-21.78.82-32.58,2.4-10.85,1.58-21.66,4.01-31.88,8.04-5.66,2.23-11.05,4.91-16.07,8.36-.2.14-.02.46.2.33,9.41-5.3,19.4-9.4,29.84-12.15,10.56-2.78,21.41-4.34,32.28-5.28,6.06-.52,12.14-.95,18.21-1.37.22,0,.22-.33,0-.33h0Z"/>
      <path class="cls-2" d="m83.68,64.79c-8.73.05-17.44,1.05-25.98,2.87-8.53,1.82-16.95,4.36-24.84,8.1-.11.05-.03.24.08.19,16.21-6.41,33.31-10.13,50.74-10.89.18.01.18-.27,0-.27h0Z"/>
      <path class="cls-2" d="m55.77,73.27c2.51-.59,5.06-1,7.62-1.3,2.5-.29,5-.37,7.5-.56.17-.01.17-.25,0-.26-5.07-.48-10.34.42-15.23,1.72-.27.06-.15.46.11.4h0Z"/>
      <path class="cls-2" d="m101.25,70.8c2.42-.24,4.84-.5,7.25-.85,1.22-.18,2.43-.37,3.64-.58,1.24-.21,2.54-.38,3.74-.79.17-.06.15-.34-.04-.33-2.35.1-4.74.72-7.07,1.08-2.5.38-5,.76-7.52,1.07-.25.03-.26.43,0,.4h0Z"/>
      <path class="cls-2" d="m104.33,65.58c1.56-.25,3.1-.56,4.63-.95,1.46-.37,3-.8,4.37-1.44.17-.08.05-.33-.12-.29-1.49.38-2.96.9-4.45,1.3-1.49.41-3,.75-4.52,1.02-.25.04-.15.39.09.36h0Z"/>
      <path class="cls-2" d="m133.75,51.21c7.17-2.46,12.82-7.94,17.06-14.06.08-.12-.11-.28-.21-.16-4.65,5.7-9.86,11.33-16.94,13.9-.2.07-.11.39.09.32h0Z"/>
      <path class="cls-2" d="m133.88,56.27c1.2-.47,2.36-1.05,3.46-1.74,1.1-.7,2.08-1.5,2.97-2.45.07-.08-.03-.18-.11-.11-1.94,1.6-4.08,2.98-6.43,3.88-.27.1-.16.52.11.42h0Z"/>
      <path class="cls-2" d="m148.5,24.01c1.02-1.59,1.67-3.39,1.92-5.26.23-1.74.22-3.83-.6-5.43-.07-.13-.32-.08-.29.08.11.85.32,1.68.38,2.55.06.9.08,1.79-.01,2.69-.19,1.83-.8,3.6-1.76,5.17-.15.22.21.42.36.2h0Z"/>
      <path class="cls-2" d="m152.96,20.07c1.53-5.13,1.23-11.46-2.07-15.89-.1-.13-.36-.06-.29.12,1,2.42,1.92,4.87,2.3,7.48.39,2.72.3,5.5-.34,8.18-.05.26.32.36.4.11h0Z"/>
    </g>
  </g>
</svg>