<?xml version="1.0" encoding="UTF-8"?>
<svg id="Layer_2" data-name="Layer 2" xmlns="http://www.w3.org/2000/svg" viewBox="0 0 199.53 222.7">
  <defs>
    <style>
      .cls-1 {
        fill: none;
        stroke: #070707;
        stroke-miterlimit: 10;
        stroke-width: .75px;
      }

      .cls-2 {
        fill: #070707;
      }
    </style>
  </defs>
  <g id="Layer_1-2" data-name="Layer 1">
    <g>
      <path class="cls-1" d="m72.54,50.11c23.19-14.68,51.57-18.07,76.39-27.01,2.11-.76,4.19-1.55,6.24-2.4,13.96-5.78,23.39-15.38,42.22-17.6-45.24-10.78-89.67,11.62-124.85,47.01Z"/>
      <path class="cls-1" d="m2.56,222.17l2.12-1.05c.42-5.39,1.61-20.49,1.71-21.24,2.35-17.14,10.46-34.91,23.24-48.79,1.65-1.81,3.37-3.54,5.18-5.2,1.47-1.34,2.94-2.69,4.41-4.03,40.94-37.34,81.92-71.83,109.7-118.75-24.83,8.94-53.2,12.33-76.39,27.02-18.65,18.77-34.72,41.2-46.91,64.25-2.62,4.94-5.05,9.92-7.31,14.9h0C5.25,158.14-1.39,187,.78,209.99c.44,4.46.96,9.57,1.78,12.18Z"/>
      <g>
        <path class="cls-2" d="m61.51,74.24c7.48-6.34,14.18-14.42,17.95-23.55.06-.14-.17-.23-.24-.1-2.33,4.32-4.74,8.54-7.69,12.47-3,4.01-6.44,7.68-10.22,10.96-.16.14.06.35.2.22h0Z"/>
        <path class="cls-2" d="m70.25,80.4c10.27-8.4,18.57-19.72,22.65-32.4.05-.14-.17-.19-.22-.06-4.98,12.42-12.39,23.56-22.61,32.28-.14.1.05.28.18.18h0Z"/>
        <path class="cls-2" d="m81.45,78.02c5.11-6.1,10.27-12.15,15.21-18.38,4.36-5.49,8.72-11.32,11.05-17.99.07-.2-.25-.33-.34-.14-3.1,6.58-7.07,12.51-11.59,18.19-4.82,6.06-9.74,12.04-14.59,18.08-.12.17.12.42.26.24h0Z"/>
        <path class="cls-2" d="m96.54,71.34c6.87-8.84,13.21-18.18,18.41-28.1.07-.13-.12-.24-.2-.12-5.61,9.71-11.61,19.13-18.47,28.01-.12.16.15.36.26.21h0Z"/>
        <path class="cls-2" d="m108.24,68.8c9.65-9.96,15.77-22.86,20.97-35.56.04-.11-.14-.19-.19-.08-5.93,12.45-11.34,25.3-21.01,35.41-.15.15.08.39.23.23h0Z"/>
        <path class="cls-2" d="m57.21,95.04c-17.84,17.43-32.67,37.92-43.89,60.19-3.15,6.25-6.14,12.61-8.38,19.25-.06.19.24.32.32.14,2.64-5.67,5.11-11.42,7.88-17.02,2.72-5.48,5.63-10.87,8.75-16.14,6.37-10.77,13.62-20.95,21.55-30.63,4.42-5.4,9.08-10.61,13.94-15.61.12-.12-.06-.29-.17-.18h0Z"/>
        <path class="cls-2" d="m58.42,105.87c-14.14,13.91-26.4,29.78-36.38,46.93-2.87,4.92-5.55,9.93-7.89,15.12-.1.21.2.4.32.19,4.68-8.74,9.48-17.4,14.93-25.69,5.46-8.32,11.45-16.3,17.92-23.86,3.65-4.27,7.39-8.46,11.29-12.5.11-.12-.07-.31-.19-.19h0Z"/>
        <path class="cls-2" d="m59.67,116.76c-5.43,4.27-10.44,9-14.96,14.22-.11.13.07.31.19.19,4.65-5.07,9.69-9.82,15.09-14.09.24-.18-.09-.5-.32-.32h0Z"/>
      </g>
    </g>
  </g>
</svg>