<?xml version="1.0" encoding="UTF-8"?>
<svg id="Layer_2" data-name="Layer 2" xmlns="http://www.w3.org/2000/svg" viewBox="0 0 226.93 215.48">
  <defs>
    <style>
      .cls-1 {
        fill: #070707;
      }
    </style>
  </defs>
  <g id="Layer_1-2" data-name="Layer 1">
    <g>
      <path class="cls-1" d="m158.69,76.4c-2.84-6.43-5.28-13.08-6.54-20.01-1.33-7.32-1.23-14.82.37-22.08,1.23-5.59,3.2-11.03,6.27-15.88,2.37-3.75,5.37-7.11,8.87-9.84,3.26-2.54,6.96-4.53,10.87-5.86,3.79-1.29,7.78-1.96,11.79-1.99,3.97-.03,7.94.58,11.72,1.82s7.35,3.11,10.49,5.56c3.27,2.54,6.05,5.69,8.2,9.23,2.41,3.96,4,8.37,4.88,12.91.24,1.23.42,2.47.56,3.72.16-.12.32-.24.47-.36-12.75-4.95-27.05-5.17-39.66.33-10.58,4.62-19.35,13.04-24.3,23.47-2.85,6-4.4,12.55-4.67,19.18-.02.48.73.48.75,0,.47-11.47,4.96-22.53,12.84-30.91,8.32-8.85,19.91-14.23,32.02-15.02,7.79-.51,15.57.86,22.83,3.67.21.08.5-.13.47-.36-.53-4.86-1.78-9.63-3.92-14.04-1.89-3.89-4.48-7.45-7.65-10.4-3-2.79-6.48-5.04-10.25-6.63-3.72-1.57-7.68-2.51-11.71-2.81-4.08-.3-8.21.06-12.17,1.06-4.06,1.03-7.96,2.73-11.46,5.02-3.7,2.42-6.95,5.49-9.63,9.01-3,3.95-5.22,8.44-6.75,13.15-2.4,7.41-3.39,15.22-2.66,22.98.66,7.11,2.66,13.99,5.29,20.6.65,1.63,1.34,3.25,2.05,4.86.18.44.82.05.63-.38Z"/>
      <path class="cls-1" d="m105.73,154.27c-7.5,1.91-15.22,2.04-22.89,2.64-6.72.53-13.69,1.56-19.39,5.43-3.48,2.37-6.2,5.61-8.29,9.24.23.06.47.13.7.19-.58-7.01-.47-14.14,1.01-21.03,1.15-5.37,3.16-10.57,6.3-15.1,2.77-4,6.38-7.36,10.55-9.85,4.15-2.48,8.77-4.08,13.51-4.98,5.1-.97,10.33-1.12,15.49-.72,5.52.43,10.98,1.5,16.29,3.04,5.47,1.59,10.79,3.7,15.88,6.25,5.07,2.54,9.92,5.53,14.44,8.96,4.34,3.3,8.38,7.03,11.89,11.2,3.27,3.88,6.09,8.17,8.13,12.83.49,1.11.92,2.24,1.31,3.39.16.46.8.27.72-.2-2.13-12.31-7.87-23.54-17.1-32.02-8.71-8.01-19.57-13.25-30.63-17.19-11.49-4.09-23.38-6.73-35.2-9.68-14.53-3.63-27.53-11.39-41.17-17.29-6.51-2.82-13.24-5.28-20.26-6.49-7.02-1.22-14.22-1.1-21.13.7-1.91.5-3.78,1.11-5.62,1.83.12.21.24.42.36.63,12.14-11.36,26.67-20.22,42.87-24.35,14.33-3.65,29.41-3.43,43.72.19,14.38,3.64,27.82,10.53,39.62,19.46,12.39,9.37,23.06,21.03,31.51,34.06,8.54,13.18,14.86,27.82,18.27,43.16.42,1.9.8,3.81,1.13,5.73.06.37.64.34.72,0,2.44-9.84,3.32-20.03,2.17-30.12-.99-8.66-3.41-17.06-6.65-25.13-3.08-7.68-6.85-15.05-10.5-22.47-.89-1.8-1.77-3.61-2.63-5.43-.43-.9-.85-1.8-1.26-2.71-.2-.43-.39-.87-.59-1.3-.27-.61-.27-1.08-.23-1.74.3-4.74,1.28-9.44,2.93-13.89,3.19-8.57,8.91-16.13,16.27-21.56.89-.66,1.81-1.28,2.74-1.88-.17-.04-.34-.09-.51-.13,5.81,9.61,9.62,20.28,11.84,31.27,2.31,11.43,2.95,23.15,2.52,34.79-.44,11.91-2,23.76-4.34,35.44-2.41,12.08-5.92,23.84-9.18,35.7-1.66,6.04-3.26,12.1-4.69,18.2-.67,2.85-1.29,5.7-1.87,8.57-.14.67-.23,1.36-.4,2.02-.23.9-.88,1.64-1.41,2.4-1.03,1.47-2.06,2.93-3.11,4.39-1.01,1.41-2.02,2.81-3.05,4.21.23.1.46.19.69.29,1.38-9.55,2.54-19.22,2.42-28.89-.09-7.38-.85-15.27-4.37-21.9-.34-.64-.69-1.35-1.17-1.89-.44-.49-.96-.94-1.45-1.39-1.01-.92-2.06-1.79-3.15-2.61-2.17-1.63-4.5-3.02-6.96-4.15-5.64-2.59-11.81-3.74-17.99-3.96-9.69-.36-19.43,1.42-28.81,3.84-.47.12-.27.84.2.72,14.13-3.64,30.2-6.29,44.24-.82,4.89,1.9,9.7,4.9,13.3,8.77,1.04,1.12,1.71,2.81,2.28,4.21.65,1.57,1.15,3.2,1.56,4.85.94,3.78,1.36,7.67,1.52,11.55.45,10.51-.81,21.08-2.32,31.46-.06.42.43.64.69.29,2.11-2.89,4.2-5.8,6.25-8.74.4-.56,1.02-1.21,1.27-1.85.27-.69.31-1.58.45-2.3.29-1.45.59-2.89.91-4.34,1.31-6.02,2.82-12,4.42-17.96,3.26-12.17,7-24.19,9.66-36.52,2.51-11.65,4.28-23.48,4.98-35.39.69-11.7.35-23.5-1.58-35.07-1.85-11.09-5.22-21.99-10.58-31.91-.67-1.24-1.37-2.46-2.1-3.66-.1-.17-.34-.25-.51-.13-7.52,4.81-13.67,11.62-17.56,19.67-2,4.13-3.4,8.55-4.16,13.08-.19,1.11-.34,2.23-.45,3.36-.1.97-.4,2.29-.16,3.23.25.95.86,1.93,1.28,2.82.42.91.84,1.81,1.27,2.71,3.59,7.51,7.48,14.88,10.83,22.51,3.52,8.03,6.4,16.37,7.87,25.03,1.7,10,1.42,20.23-.6,30.16-.28,1.38-.59,2.75-.93,4.11h.72c-2.74-15.72-8.52-30.86-16.68-44.57-8.02-13.47-18.34-25.63-30.46-35.59-11.56-9.5-24.83-17.06-39.17-21.46-14.12-4.33-29.17-5.44-43.7-2.68-16.06,3.06-30.85,10.78-43.33,21.23-1.72,1.44-3.4,2.93-5.04,4.47-.26.24.01.76.36.63,6.98-2.7,14.41-3.78,21.87-3.12,7.06.63,13.92,2.72,20.49,5.32,13.59,5.39,26.22,13.05,40.18,17.55,5.94,1.91,12.1,3.13,18.14,4.65,5.85,1.47,11.68,3.04,17.42,4.89,11.23,3.61,22.4,8.32,31.72,15.7,9.57,7.58,16.34,17.85,19.33,29.7.41,1.63.75,3.28,1.04,4.94.24-.07.48-.13.72-.2-1.64-4.82-4.13-9.31-7.15-13.4-3.23-4.38-7.05-8.31-11.21-11.81-4.37-3.68-9.12-6.91-14.12-9.69-5.07-2.82-10.39-5.19-15.88-7.05-5.36-1.82-10.89-3.15-16.51-3.88-5.31-.69-10.71-.83-16.02-.18-4.9.6-9.74,1.86-14.2,4-4.38,2.1-8.33,5.06-11.5,8.75-3.48,4.05-5.95,8.85-7.53,13.93-1.98,6.36-2.6,13.09-2.47,19.72.04,1.94.15,3.88.31,5.81.03.35.5.53.7.19,1.93-3.35,4.39-6.38,7.55-8.64,2.73-1.95,5.84-3.26,9.08-4.1,6.82-1.77,13.97-1.7,20.94-2.28,4.23-.35,8.44-.9,12.55-1.95.48-.12.28-.84-.18-.72Z"/>
      <path class="cls-1" d="m178.69,170.58c7.31-18.82,9.32-39.64,6.24-59.57-.88-5.68-2.22-11.31-4.15-16.73-.07-.2-.38-.12-.32.09,2.53,9.83,4.32,19.77,4.74,29.93.41,9.96-.42,19.98-2.5,29.73-1.19,5.56-2.72,11.03-4.62,16.38-.14.39.47.55.61.17h0Z"/>
      <path class="cls-1" d="m169.73,86.92c-2.21-4.75-3.59-10.06-4.02-15.28-.02-.26-.41-.26-.4,0,.07,2.73.32,5.39.97,8.05.65,2.64,1.57,5.2,2.7,7.67.24.5.99.06.75-.44h0Z"/>
      <path class="cls-1" d="m176.19,83.21c-1.7-3.67-3.17-7.43-4.48-11.26-1.27-3.72-2.23-7.53-3.31-11.31-.04-.16-.32-.13-.29.04,1.05,7.92,4.04,15.69,7.64,22.78.15.3.58.04.44-.25h0Z"/>
      <path class="cls-1" d="m180.54,79.04c-.78-3.1-1.65-6.17-2.63-9.21-.94-2.91-1.85-5.99-3.31-8.69-.1-.19-.39-.06-.34.14.8,3.01,2.07,5.93,3.03,8.9.97,2.98,1.84,6,2.62,9.04.1.4.73.23.63-.18h0Z"/>
      <path class="cls-1" d="m186.55,71.31c-2.09-7.33-5.24-14.46-9.92-20.51-.11-.14-.34.04-.25.19,3.92,6.49,7.36,13.21,9.55,20.49.11.4.73.23.62-.17h0Z"/>
      <path class="cls-1" d="m160.43,153.34c-5.79-8.11-14.66-13.01-24.05-15.82-5.47-1.63-11.1-2.61-16.75-3.39-5.65-.78-11.42-1.52-17.12-.77-5.28.69-10.34,2.66-13.79,6.85-.16.19.09.44.27.27,8.11-7.35,19.22-6.74,29.33-5.42,10.26,1.34,20.58,3.32,29.7,8.43,4.6,2.57,8.82,5.95,12.08,10.12.14.18.47-.07.33-.27h0Z"/>
      <path class="cls-1" d="m143.43,148.58c-4.81-1.79-9.86-2.75-14.99-2.8-4.79-.05-10.29.39-14.66,2.51-.3.14-.07.55.21.5,2.35-.42,4.64-1.09,7.01-1.46,2.54-.4,5.1-.61,7.66-.59,4.96.03,9.91.84,14.62,2.39.35.11.49-.42.15-.55h0Z"/>
      <path class="cls-1" d="m125.52,129.28c-3.2-.88-6.45-1.62-9.72-2.16-3.14-.52-6.43-1.01-9.63-.94-.21.01-.28.34-.05.38,3.21.5,6.47.74,9.68,1.25,3.23.51,6.42,1.16,9.59,1.97.32.07.45-.42.13-.5h0Z"/>
      <path class="cls-1" d="m81.83,150.5c-7.53-2.63-16.61-.07-21.64,6.07-.19.23.11.55.34.34,5.62-5.46,13.57-7.7,21.18-5.96.29.06.4-.35.12-.45h0Z"/>
      <path class="cls-1" d="m125.53,115.54c-8.99-2.2-17.28-5.91-25.52-10.06-.18-.09-.33.16-.16.27,7.62,5.14,16.61,8.34,25.53,10.33.35.08.51-.45.15-.54h0Z"/>
      <path class="cls-1" d="m144.77,121.42c-12.38-10.64-26.8-18.92-42.2-24.34-4.44-1.56-9.01-2.76-13.6-3.79-.22-.05-.31.28-.09.34,15.65,4.2,30.74,10.84,44.24,19.81,3.9,2.59,7.7,5.34,11.36,8.26.2.16.49-.11.29-.28h0Z"/>
      <path class="cls-1" d="m153.15,123.78c-9.33-12.35-21.41-22.22-34.9-29.74-14.72-8.21-30.95-13.46-47.52-16.31-9.78-1.68-19.72-2.65-29.64-2.48-.19,0-.19.29,0,.3,8.83.54,17.66,1.19,26.41,2.55,8.53,1.32,16.97,3.25,25.19,5.89,15.08,4.84,29.44,12.13,41.86,22.01,6.71,5.34,12.92,11.34,18.35,17.98.1.15.36-.05.25-.2h0Z"/>
      <path class="cls-1" d="m68.97,87.02c-2.4-.84-4.86-1.51-7.36-1.97-2.38-.44-4.94-.9-7.37-.66-.13.01-.19.23-.04.26,2.46.39,4.95.44,7.41.88s4.88,1.07,7.24,1.87c.26.07.36-.3.12-.38h0Z"/>
      <path class="cls-1" d="m64.8,92.39c-3.28-1.12-6.54-2.28-9.86-3.26-.12-.04-.17.14-.05.19,3.24,1.24,6.54,2.29,9.83,3.4.2.06.29-.26.08-.33h0Z"/>
      <path class="cls-1" d="m153.74,119.68c-9.92-15.98-24.63-29.22-40.7-38.82-2.31-1.38-4.67-2.69-7.08-3.87-2.29-1.12-4.67-2.34-7.11-3.11-.26-.08-.41.3-.18.43,2.03,1.18,4.22,2.08,6.26,3.23,2,1.12,4.02,2.18,6,3.33,4.01,2.33,7.91,4.86,11.66,7.6,7.57,5.53,14.51,11.91,20.74,18.91,3.55,4,6.86,8.23,10.03,12.52.17.22.54.02.38-.22h0Z"/>
    </g>
  </g>
</svg>