<?xml version="1.0" encoding="UTF-8"?>
<svg id="Layer_2" data-name="Layer 2" xmlns="http://www.w3.org/2000/svg" viewBox="0 0 143.28 154.35">
  <defs>
    <style>
      .cls-1 {
        fill: none;
        stroke: #070707;
        stroke-miterlimit: 10;
        stroke-width: .75px;
      }

      .cls-2 {
        fill: #070707;
      }
    </style>
  </defs>
  <g id="Layer_1-2" data-name="Layer 1">
    <g>
      <path class="cls-1" d="m3.69,153.68l-3.27-2.27C-.44,117.81,11.07,83.92,13.66,50.44c2.07,1.09,4.13,2.2,6.21,3.3,1.81-8.38,4.51-16.56,8.02-24.38,2.1,1.43,4.18,2.86,6.27,4.29,3.05-7.39,6.34-12.39,12.23-17.81,3.15.72,4.81,1.79,6.5,4.05,3.7-3.44,8.21-6.34,13.03-8.63,5.29-2.54,10.97-4.36,16.42-5.42-1.1,3.12-.63,5.77-.55,8.54,3.08-2.85,11.02-6.1,18.21-8.41,5.62-1.8,10.77-3.04,12.81-3.07,0,0-.14,4.72,3.25,8.41,8.74-2.45,15.96-1.96,25.46-9.45-12.8,18.34-27.25,24.47-46.22,32.92-8.6,3.83-18.15,8.15-28.89,14.3-1.46.85-2.94,1.71-4.46,2.62-26.46,15.97-51.82,46.36-58.26,101.98Z"/>
      <g>
        <path class="cls-2" d="m9.78,108.96c4.6-12.55,10.96-24.47,18.85-35.26,7.95-10.87,17.45-20.62,28.14-28.81,5.92-4.54,12.18-8.67,18.69-12.32.12-.07.01-.24-.11-.18-12.03,6.16-22.9,14.3-32.47,23.82-9.51,9.46-17.69,20.26-24.18,32-3.66,6.62-6.71,13.52-9.19,20.67-.06.18.21.25.27.08h0Z"/>
        <path class="cls-2" d="m18.74,80.81c6.77-17.25,19.83-31.07,33.88-42.72,4.17-3.46,8.53-6.71,12.69-10.18.15-.13-.05-.39-.21-.28-8,5.45-15.57,11.8-22.55,18.5-6.59,6.32-12.62,13.26-17.41,21.05-2.65,4.3-4.9,8.83-6.67,13.56-.06.17.21.24.27.07h0Z"/>
        <path class="cls-2" d="m14.51,82.38c2.55-7.95,5.93-15.64,10.02-22.91,2-3.56,4.18-7.01,6.54-10.34,2.39-3.39,5.06-6.55,7.57-9.86.12-.16-.14-.35-.28-.21-2.94,2.92-5.48,6.36-7.86,9.74-2.39,3.39-4.61,6.91-6.63,10.53-4.07,7.28-7.31,14.97-9.74,22.95-.09.24.3.34.38.1h0Z"/>
      </g>
    </g>
  </g>
</svg>