<?xml version="1.0" encoding="UTF-8"?>
<svg id="Layer_2" data-name="Layer 2" xmlns="http://www.w3.org/2000/svg" viewBox="0 0 152.95 138.62">
  <defs>
    <style>
      .cls-1 {
        fill: none;
        stroke: #070707;
        stroke-miterlimit: 10;
        stroke-width: .75px;
      }

      .cls-2 {
        fill: #070707;
      }
    </style>
  </defs>
  <g id="Layer_1-2" data-name="Layer 1">
    <g>
      <path class="cls-1" d="m152.49,115c.26,7.7,0,17.69-1.13,22.87l-5.03-5.07c2.43-19.84-3.36-42.09-14.89-57.52-2.4-3.21-4.99-6.27-7.75-9.14C87.65,30.5,39.15,26.24.43,47.86-1.29,21.9,41-13.23,70.86,7.85c.2-2.71.63-4.79,1.77-7.28,6.82,4.91,13.33,10.27,19.4,16.08.44-2.14,1.88-3.66,3.22-5.39,6.41,6.26,11.95,12.38,17.6,19.34,1.16-1.95,2.97-4.34,4.14-6.3,6.89,10.13,12.78,20.36,17.73,30.93,1.88,4,3.64,8.07,5.25,12.23,5.76,14.72,11.92,29.44,12.52,47.54Z"/>
      <g>
        <path class="cls-2" d="m126.3,58.11c-7.49-12.36-18.96-22.23-32.13-28.13-3.71-1.66-7.63-3.2-11.65-3.86-.18-.03-.25.21-.07.27,3.43,1.26,6.91,2.33,10.27,3.79,3.2,1.39,6.3,3,9.28,4.81,6.11,3.7,11.68,8.27,16.49,13.54,2.78,3.04,5.36,6.24,7.66,9.66.07.1.21.02.15-.08h0Z"/>
        <path class="cls-2" d="m126.62,64.27c-12.28-12.32-26.55-23.36-43.26-28.85-4.63-1.52-9.41-2.53-14.27-2.96-.09-.01-.09.13,0,.14,17.52,2.25,33.12,10.88,46.61,21.97,3.76,3.09,7.36,6.38,10.83,9.79.06.05.14-.03.09-.09h0Z"/>
        <path class="cls-2" d="m69.86,8.66c-8.35-4-18.1-4.16-26.59-.47-.17.07-.2.35-.06.46,2.12,1.73,4.24,3.47,6.36,5.2.13-.17.27-.35.4-.52-4.89-3.23-11.42-1.93-16.53,0-6.86,2.59-13.14,6.92-18.31,12.09-2.73,2.73-5.4,5.81-6.91,9.39-.15.35.4.55.59.25,1.82-2.83,3.7-5.58,5.99-8.07,2.45-2.66,5.2-5.04,8.15-7.14,5.31-3.77,11.63-7.09,18.22-7.69,2.93-.27,5.95.1,8.46,1.73.31.2.7-.28.4-.52-2.14-1.72-4.28-3.43-6.42-5.15-.02.15-.04.31-.06.46,8.27-3.68,17.97-3.63,26.22.1.1.06.18-.07.09-.12h0Z"/>
      </g>
    </g>
  </g>
</svg>