<?xml version="1.0" encoding="UTF-8"?>
<svg id="Layer_2" data-name="Layer 2" xmlns="http://www.w3.org/2000/svg" viewBox="0 0 88.03 113.21">
  <defs>
    <style>
      .cls-1 {
        fill: none;
        stroke: #070707;
        stroke-miterlimit: 10;
        stroke-width: .75px;
      }

      .cls-2 {
        fill: #070707;
      }
    </style>
  </defs>
  <g id="Layer_1-2" data-name="Layer 1">
    <g>
      <path class="cls-1" d="m87.27,2.64c-13.74,6.27-19.98,22.7-31.24,31.42l-35.84,37.65c-11.26,9.51-13.86,26.24-14.53,41.12H.38c.47-30.04,1.74-71.38,26.96-91.48C40.6,10.09,75.37-5.51,87.27,2.64Z"/>
      <g>
        <path class="cls-2" d="m17.65,68.66c-1.25,1.64-2.52,3.28-3.74,4.94-.07.1.09.22.17.13,1.29-1.63,2.54-3.29,3.8-4.94.1-.13-.13-.26-.23-.13h0Z"/>
        <path class="cls-2" d="m9.92,77.34c2.31-5.75,6.41-10.65,10.61-15.12,5.19-5.52,10.98-10.49,16.83-15.28.09-.08-.03-.24-.13-.17-6.23,4.72-12.15,9.83-17.46,15.57-4.05,4.38-7.92,9.32-10.09,14.94-.05.15.18.21.24.06h0Z"/>
        <path class="cls-2" d="m9.42,68.22c3.44-6.03,8.34-11.18,13.39-15.88,4.93-4.59,10.23-8.77,15.68-12.72,2.04-1.48,4.11-2.9,6.23-4.26.17-.11.02-.37-.16-.27-4.57,2.59-8.83,5.79-12.95,9.04-5.69,4.49-11.14,9.41-15.91,14.87-2.45,2.81-4.73,5.8-6.56,9.06-.09.18.18.34.28.16h0Z"/>
        <path class="cls-2" d="m10.06,57.75c3.48-6.11,8.51-11.36,13.56-16.2,5.5-5.27,11.39-10.16,17.56-14.63,2.65-1.92,5.37-3.77,8.23-5.35.09-.05.01-.18-.08-.14-5.69,3.05-10.95,6.97-15.94,11.04-6.1,4.97-11.97,10.33-17.14,16.29-2.39,2.76-4.66,5.66-6.46,8.84-.1.17.17.33.27.15h0Z"/>
        <path class="cls-2" d="m11.78,48.7c2.76-5.76,6.81-10.89,11.22-15.48,6.4-6.67,13.73-12.32,21.55-17.23,5.54-3.48,11.36-6.33,17.17-9.32.17-.09.05-.39-.14-.32-5.44,2.1-10.7,4.94-15.7,7.92-4.39,2.62-8.62,5.51-12.64,8.68-6.29,4.95-12.1,10.59-16.82,17.08-1.93,2.65-3.67,5.45-5.05,8.43-.13.27.28.52.41.24h0Z"/>
      </g>
    </g>
  </g>
</svg>