<?xml version="1.0" encoding="UTF-8"?>
<svg id="Layer_2" data-name="Layer 2" xmlns="http://www.w3.org/2000/svg" viewBox="0 0 165.39 244.31">
  <defs>
    <style>
      .cls-1 {
        fill: none;
        stroke: #070707;
        stroke-miterlimit: 10;
        stroke-width: .75px;
      }

      .cls-2 {
        fill: #070707;
      }
    </style>
  </defs>
  <g id="Layer_1-2" data-name="Layer 1">
    <g>
      <path class="cls-1" d="m8.31,220.21c-.38,7.99-.68,15.88-.94,23.67l-6.98-.94c.25-7.58.55-15.27.93-23.06.58-11.92,1.99-24.78,3.49-38.39,3.58-32.4,7.27-65.9-1.49-83.25l-1.24-1.62c-.34-.43-.05-1.07.5-1.08,4.43-.18,8.68-2.19,12.76-5.93.24-.22.61.03.52.34-.65,2.07-1.15,5.41-1.6,9.19-.5,4.23-.4,8.51.23,12.73,2.65,17.65-1.73,46.07-4.23,69,3.88-10.03,10.66-25.08,14.74-32.39l4.36,2.43c-7.14,12.84-15.7,32.75-19.54,49.68-.66,6.8-1.2,13.36-1.51,19.62Z"/>
      <path class="cls-2" d="m124.58,127.91c-4.92-4.31-11.12-6.19-17.59-6.26-7.33-.08-14.6,1.7-21.63,3.58-3.96,1.06-7.89,2.21-11.83,3.31-3.54.99-7.13,1.77-10.48,3.29-6.16,2.8-11.42,7.19-16.91,11.06-2.7,1.91-5.49,3.73-8.49,5.15-1.46.69-2.97,1.28-4.52,1.72-.76.22-1.54.4-2.32.54-.39.07-.78.14-1.17.18-.18.02,0,.07-.15.04-.1-.02-.21-.12-.3-.17-.37-.2-.73-.41-1.1-.61.04.17.09.34.13.51,5.76-8.91,11.87-17.64,19.01-25.52,3.38-3.73,7.07-7.33,10.9-10.49,3.77-3.11,7.8-5.89,12.08-8.25,4.44-2.44,9.13-4.4,14-5.81,4.26-1.23,8.63-2,13.07-1.92,7.27.13,14.62,2.54,19.87,7.71,5.09,5.01,7.45,12.01,7.12,19.08-.05,1.01-.15,2.01-.29,3.01-.07.47.65.68.72.2,1.05-7.26-.4-14.74-5.01-20.57-4.53-5.74-11.45-9.01-18.61-9.91-9.26-1.17-18.68,1.53-27.01,5.42-9.2,4.28-17.25,10.54-24.29,17.74-7.58,7.75-14.03,16.54-20,25.57-.74,1.12-1.47,2.24-2.2,3.36-.11.17-.04.42.13.51.37.2.73.41,1.1.61.12.07.25.17.38.21.3.1.66,0,.97-.05,1.57-.23,3.12-.62,4.63-1.14,3.03-1.05,5.86-2.6,8.56-4.34,5.63-3.62,10.73-8.04,16.55-11.39,2.98-1.71,6.07-2.95,9.39-3.83,4.02-1.06,8.01-2.22,12.01-3.35,7.25-2.04,14.64-4.11,22.18-4.63,6.5-.45,13.13.51,18.56,4.34.7.5,1.37,1.03,2.02,1.6.35.35.89-.18.52-.5Z"/>
      <path class="cls-2" d="m99.22,52.75c-2.24,3.61-4.54,7.2-7.19,10.53-2.38,3-4.97,5.83-7.45,8.75-5.05,5.97-9.97,12.06-14.49,18.44-4.5,6.37-8.62,13.05-11.89,20.14-.38.83-.75,1.66-1.11,2.5-.18.41-.35.82-.52,1.24-.03.08-.06.15-.09.23.01.18-.05.26-.19.24-.19.21-.45.38-.66.57-1.48,1.29-2.92,2.63-4.32,4-2.83,2.78-5.5,5.71-8.05,8.75-5.75,6.86-10.85,14.23-15.71,21.74.17-.04.34-.09.51-.13-.96-.54-1.92-1.07-2.88-1.61.06.11.12.22.19.32,2.01-17.82,3.49-35.77,8.27-53.12,4.22-15.33,11.01-29.82,20.18-42.82,8.49-12.03,18.89-22.77,30.76-31.5,10.43-7.68,22.11-14.2,34.71-17.45,6.6-1.7,13.41-2.7,20.23-2.82,7.04-.12,14.22.7,20.81,3.3,1.55.61,3.05,1.33,4.5,2.15.06-.23.13-.47.19-.7-13.73,1.43-26.61,6.73-37.9,14.59-2.86,1.99-5.61,4.13-8.27,6.37-1.4,1.18-2.62,2.38-3.77,3.81-2.96,3.68-5.63,7.6-8.31,11.48-2.53,3.67-4.94,7.4-7.55,11-.28.39.37.77.65.38,5.03-6.93,9.52-14.25,14.74-21.05.94-1.23,1.9-2.5,3.02-3.57,2.38-2.27,5.08-4.29,7.73-6.23,5.41-3.97,11.21-7.44,17.37-10.13,7.08-3.09,14.61-5.09,22.29-5.89.35-.04.54-.5.19-.7-6.06-3.42-13-4.96-19.9-5.41-7.01-.46-14.09.18-20.97,1.53-5.92,1.16-11.7,2.88-17.22,5.33-6.44,2.85-12.61,6.31-18.45,10.24-5.98,4.03-11.63,8.56-16.89,13.5-5.43,5.1-10.44,10.63-14.99,16.52-4.66,6.04-8.84,12.46-12.45,19.18-3.75,6.99-6.88,14.31-9.35,21.85-2.89,8.79-4.88,17.85-6.34,26.98-1.41,8.84-2.35,17.75-3.3,26.65-.23,2.18-.47,4.36-.72,6.54-.01.13.08.27.19.32.96.54,1.92,1.07,2.88,1.61.18.1.4.04.51-.13,4.4-6.81,9.01-13.51,14.13-19.81,2.48-3.05,5.08-6.01,7.82-8.83,1.37-1.41,2.79-2.78,4.24-4.11.68-.62,1.36-1.23,2.06-1.83.24-.21.51-.39.67-.66.27-.46.42-1.03.63-1.52,6.2-14.49,15.88-27.22,25.94-39.23,2.72-3.25,5.55-6.4,8.24-9.67,2.96-3.59,5.49-7.52,7.94-11.47.25-.43-.4-.8-.66-.39Z"/>
      <path class="cls-2" d="m90.59,122.17c1.44-.77,3.01-1.15,4.62-1.38.79-.11,1.58-.19,2.37-.24.75-.05,1.56-.08,2.3-.25.14-.03.16-.28,0-.31-1.56-.25-3.32-.03-4.86.24-1.61.28-3.18.81-4.58,1.65-.18.12-.03.38.15.29h0Z"/>
      <path class="cls-2" d="m81.16,120.49c8.72-3.32,18.11-3.75,27.23-2,.12.02.17-.15.05-.19-9.01-2.53-18.73-1.58-27.35,1.93-.16.07-.09.33.07.26h0Z"/>
      <path class="cls-2" d="m46.57,136.53c14.95-13.22,32.98-25.51,53.86-24.27,5.77.34,10.97,2.07,16.36,4.03.17.06.25-.18.12-.27-4.13-2.74-9.28-3.89-14.15-4.42-5.04-.55-10.16-.25-15.14.7-10.15,1.94-19.54,6.74-27.89,12.72-4.76,3.41-9.13,7.26-13.38,11.27-.17.15.06.38.22.24h0Z"/>
      <path class="cls-2" d="m56.7,121.53c5.05-4.19,10.71-7.74,16.75-10.3,6.08-2.58,12.5-4,19.03-4.87.26-.03.28-.43,0-.42-13.13.39-26.48,6.44-35.99,15.38-.15.13.06.33.21.21h0Z"/>
      <path class="cls-2" d="m88.05,58.28c-1.65,2.21-3.25,4.45-4.81,6.72-.77,1.12-1.53,2.24-2.26,3.38-.74,1.17-1.57,2.34-2.17,3.59-.05.1.09.23.17.13.81-1.03,1.47-2.21,2.2-3.3.78-1.16,1.54-2.34,2.32-3.5,1.57-2.32,3.18-4.6,4.84-6.85.12-.18-.17-.34-.29-.17h0Z"/>
      <path class="cls-2" d="m85.32,31.39c-12.49,13.19-23.47,27.75-32.74,43.37-2.64,4.45-5.1,8.98-7.36,13.62-.06.12.12.23.18.11,8.61-16,18.36-31.22,29.9-45.27,3.28-3.99,6.68-7.87,10.19-11.65.11-.13-.07-.3-.17-.18h0Z"/>
      <path class="cls-2" d="m86.25,24c-11.28,10.18-21.35,21.6-30.11,34.01-2.51,3.55-5.02,7.16-7.14,10.96-.08.15.13.27.23.13,4.33-6.35,8.46-12.77,13.18-18.85,4.63-5.95,9.59-11.65,14.79-17.11,2.96-3.1,6.01-6.12,9.14-9.04.08-.06-.02-.16-.09-.1h0Z"/>
      <path class="cls-2" d="m114.27,14.23c-12.87,9.52-24.48,20.74-34.6,33.15-10.26,12.59-19.06,26.39-25.97,41.09-3.84,8.16-7.02,16.63-9.54,25.29-.03.11.14.15.17.05,4.6-15.38,11.38-30.12,19.74-43.81,8.43-13.8,18.53-26.62,29.99-38.03,6.35-6.32,13.13-12.2,20.32-17.54.13-.09,0-.28-.11-.2h0Z"/>
      <path class="cls-2" d="m97.61,38.56c-11.86,11.56-22.29,24.76-30.58,39.1-2.22,3.85-4.23,7.83-6.09,11.87-.08.17.17.32.26.15,7.29-14.5,16.61-28.16,27.27-40.38,3.08-3.54,6.3-6.95,9.64-10.24.32-.32-.17-.81-.5-.5h0Z"/>
    </g>
  </g>
</svg>