<?xml version="1.0" encoding="UTF-8"?>
<svg id="Layer_2" data-name="Layer 2" xmlns="http://www.w3.org/2000/svg" viewBox="0 0 104.45 111.04">
  <defs>
    <style>
      .cls-1 {
        fill: none;
        stroke: #070707;
        stroke-miterlimit: 10;
        stroke-width: .75px;
      }

      .cls-2 {
        fill: #070707;
      }
    </style>
  </defs>
  <g id="Layer_1-2" data-name="Layer 1">
    <g>
      <path class="cls-1" d="m37.27,86.31c-6.48,4.78-16.3,12.83-24.35,19.53-1.98.71-3.96,1.43-5.94,2.15-1.78.66-3.55,1.34-5.31,2.01,6.84-6.35,14.04-14.08,19.26-19.08,4.39-9.9,7.91-20.51,12.03-30.62C45.9,28.6,77.7,17.5,103.84.83c-13.37,50.02-37.24,70.77-66.57,85.48Z"/>
      <path class="cls-2" d="m94.16,16.37c-18.86,11.18-28.34,31.82-40.6,49.06-1.91,2.69-3.92,5.3-6.01,7.85-2.02,2.47-4.25,4.75-6.32,7.18-.07.08.02.22.12.15,4.19-3.22,7.61-7.57,10.76-11.77,3.36-4.48,6.44-9.17,9.47-13.88,5.86-9.11,11.62-18.38,18.99-26.39,4.12-4.48,8.64-8.61,13.79-11.89.19-.11.01-.43-.2-.31h0Z"/>
      <path class="cls-2" d="m49.82,57.19c-1.79,3.04-3.7,6.02-5.65,8.97-1.94,2.93-4.19,5.7-5.98,8.72-.11.19.15.39.3.23,2.45-2.46,4.4-5.52,6.31-8.4,1.98-3,3.78-6.1,5.46-9.27.15-.28-.27-.53-.44-.25h0Z"/>
      <path class="cls-2" d="m42.89,59.46c-.69,1.67-1.53,3.27-2.5,4.78-.47.72-.99,1.41-1.45,2.13-.49.77-1.15,1.41-1.67,2.14-.09.13.1.25.21.16.69-.59,1.23-1.35,1.84-2.02.61-.66,1.11-1.44,1.59-2.21.97-1.54,1.79-3.17,2.47-4.86.13-.29-.36-.42-.49-.12h0Z"/>
      <path class="cls-2" d="m86.35,29.59c-2.36,2.15-4.44,4.56-6.35,7.12-.96,1.28-1.87,2.59-2.72,3.94-.88,1.4-1.6,2.86-2.36,4.33-.12.24.22.45.36.21.81-1.32,1.74-2.58,2.59-3.88.88-1.33,1.79-2.65,2.73-3.94,1.89-2.59,3.93-5.08,5.96-7.57.14-.14-.06-.35-.21-.21h0Z"/>
    </g>
  </g>
</svg>