<?xml version="1.0" encoding="UTF-8"?>
<svg id="Layer_2" data-name="Layer 2" xmlns="http://www.w3.org/2000/svg" viewBox="0 0 184.17 167.27">
  <defs>
    <style>
      .cls-1 {
        fill: none;
        stroke: #000;
        stroke-miterlimit: 10;
        stroke-width: .75px;
      }
    </style>
  </defs>
  <g id="Layer_1-2" data-name="Layer 1">
    <g>
      <path class="cls-1" d="m114.81,78.1c9.34,3.53,16.13,8.17,23.58,13.27,4.68,3.21,10.3,5.12,15.64,7.25,3.24,1.29,6.77,1.87,9.98,2.73-4.09,1.66-15.28.67-20.34-2.27-7.2-4.19-14.09-8.95-21.43-12.88-4.02-2.15-9.73-3.58-14.03-1.8,9.09,3.52,17.52,16.52,30.41,23.37,4.62,2.46,10.53,5.28,10.38,11.85,3.07-1.57,3.71-3.93,3.78-5.85,4.28,1.21,7.85,1.21,13.64,1.36,2.93.07,6.47,2.93,8.28,4.93,2.58-2.9,1.38-6.21-.95-8.9,8.24-2.43,11.53-14.64,9.43-23.09-3.24,1.8-5.23,8.46-10.66,6.09,1.05-2.81.9-7.09-.81-9.59-7.68,8.66-12.82-1.85-19.14,0,1.35-4.65.21-7.71-2.93-9.43-1.79,2.43-8.42,1.37-12.35.43-5.09-1.21-13.89-.51-19.42-.4-1.49.65-2.13,1.5-3.06,2.93Z"/>
      <path class="cls-1" d="m97.27,88.94c5.14,4.64,8.52,24.45,4.37,31.4,1.9,2.09,6.09,3.9,8.71.67-.62,10.71,4.05,17.33.29,24.85,1.56.5,4.84-.45,6-2.43-.17,12.09,10.19,21.77,21.47,23.37-3.19-6.95-1.61-16.49-1.95-23.61,4.57.57,6.19-2.62,6.19-2.62-1.1-1.78-2.4-4.6-3.38-7.85-1.19-3.95-.44-5.9-.9-8-.48-2.14-3-3.81-2.95-7.66,4.05-.52,5.03-3.73,4.28-6.62-9.09-.1-12.2-3.14-17.78-11.24-4.24-5.48-8.68-10.73-16.7-14.16,13.79,20.38,20.99,42.37,22,65.91-2.9-6.81-4.81-10.81-6.28-21.48-2.11-15.32-9.83-29.76-18.98-42.31,0,0-2.86-.04-4.39,1.78Z"/>
      <path class="cls-1" d="m111.76,61.53c7.35-12.21,19.17-17.17,31.96-17.59,6.23-.21,15.85.62,18.59,1.14-16.98,2.48-37.74,2.71-49.2,17.44l2.2,2.01c6.49-7.43,16.64-10.95,24.21-10.95,6.53,0,13.11-.07,19.64-.58,9.14-.71,20.26-9.14,18.16-18.3-7.62,5.31-15.83,4.81-24.96,3.6-11.3-1.49-20.05,1.3-28.65,7.47-5.39,3.87-10.33,9-13.29,14.89.51.34.99.7,1.34.87Z"/>
      <path class="cls-1" d="m115.93,65.5c.31.82.67,1.57.95,2.28,6.78-5.07,13.76-7.11,20.92-7.17,6.71-.2,13.99,2.42,17.94,8.3-5.53-4.32-11.47-6.59-18.26-6.34-6.61.25-13.23,2.42-17.84,7.35.12.45.67,2.43.67,2.43,6.52-4.14,17.4-4.71,26.23-2,8.04,2.45,15.52,7.43,17.61,15.2,9.27-7.88-4.71-22.87-12.78-26.08-9.69-4.77-24.64-3.68-35.44,6.03Z"/>
      <path class="cls-1" d="m96.27,79.23c.23,1.13,1.87,1.35,2.55.54.73-.86-.11-3.08-1.03-3.15-.74-.07-1.66,1.61-1.52,2.61Z"/>
      <path class="cls-1" d="m100.63,73.09c.23,1.13,1.87,1.35,2.55.54.73-.86-.11-3.08-1.03-3.15-.75-.07-1.67,1.61-1.52,2.61Z"/>
      <path class="cls-1" d="m105.29,78.56c.23,1.13,1.87,1.35,2.55.54.73-.86-.11-3.08-1.03-3.15-.74-.06-1.66,1.62-1.52,2.61Z"/>
      <path class="cls-1" d="m92.09,74.44c.44.01.87-.16,1.15-.48.73-.87-.12-3.14-1.15-3.14"/>
      <path class="cls-1" d="m119.85,10.59c-.07,3.67-.93,7.62-1.87,11.11-1.87,6.96-5.98,12.76-9.96,18.22-4,5.47-8.95,13.38-4.05,18.28.75-5.84,3.71-10.92,7.43-15.23,4.12-4.77,7.41-9.6,8.33-15.71.44,5.76-1.43,11.14-5.08,15.78-3.51,4.47-8.39,11.07-6.68,16.35,2.69-7.72,9.81-12.04,13.04-20.8,3.42-9.23,3.98-20.21-1.16-28Z"/>
      <path class="cls-1" d="m97.33,13.07c4.66,8.85,5.41,18.09,4.17,29.51,5.57-2.95,8.21-8.95,8.19-15.08,2.49-2.32,5.46-4.42,5.78-8.36-1.97.62-3.42,2.33-4.68,4.28.43-4.28,3.26-8.65,5.72-12.42-6.99-2.37-9.75,7.89-10.64,13.76-.46-6.43-3.27-10.5-8.54-11.69Z"/>
      <path class="cls-1" d="m96.39,66.66c.23,1.13,1.87,1.34,2.55.54.45-.53.3-1.54-.08-2.29-.55-.18-1.1-.35-1.67-.48-.49.53-.9,1.55-.8,2.23Z"/>
      <path class="cls-1" d="m101.17,84.09c.83-.41,1.61-.89,2.39-1.43-.25-.4-.56-.7-.88-.73-.64-.04-1.41,1.19-1.51,2.16Z"/>
      <path d="m98.34,85.22c-.29.08-.59.16-.91.23-1.94-2.28-3.75-4.54-5.36-6.77-1.61,2.23-3.42,4.49-5.36,6.77-.31-.08-.62-.16-.91-.23l.12-.15c2.11-2.47,4.06-4.94,5.79-7.35l.35-.48.35.48c1.73,2.4,3.68,4.88,5.79,7.35l.14.15Z"/>
      <path d="m105.73,81.12c-.23.18-.46.35-.68.51-5.15-4.65-9.73-10.63-12.96-16.89-3.23,6.26-7.82,12.24-12.96,16.89-.22-.17-.45-.34-.68-.51l.07-.06c5.24-4.73,9.89-10.84,13.1-17.23.16-.01.31-.01.48-.01s.32,0,.48.01c3.21,6.39,7.86,12.5,13.1,17.23l.05.06Z"/>
      <path d="m101.17,65.84l.41.62c2.19,3.46,4.83,7.48,7.81,11.14l.03.04c.19-.2.38-.4.58-.6-2.74-3.39-5.22-7.11-7.3-10.4,0,0,0,0,0-.01h0c-.5-.27-1-.55-1.51-.79Z"/>
      <path d="m102.3,66.43l-.03.04c-3.09,4.54-6.41,9.04-9.86,13.36l-.34.39-.34-.39c-3.45-4.32-6.77-8.81-9.86-13.36l-.03-.04c.25-.13.49-.27.75-.39h0c2.96,4.36,6.16,8.68,9.46,12.84,3.3-4.16,6.5-8.48,9.46-12.84h0c.28.12.53.26.77.39Z"/>
      <path d="m95.63,85.78c.48-.07.95-.15,1.39-.25,3.36-3.88,7.83-9.51,10.84-14.98-.21-.21-.43-.4-.65-.59l-.04.1c-3.07,5.63-7.75,11.44-11.14,15.34l-.4.38Z"/>
      <path class="cls-1" d="m104.92,85.03c13.79,20.38,20.99,42.37,22,65.91-2.9-6.81-4.81-10.81-6.28-21.48-2.11-15.32-9.83-29.76-18.98-42.31,1.61-.32,2.82-.94,3.26-2.12Z"/>
      <path class="cls-1" d="m114.81,78.1c9.34,3.53,16.13,8.17,23.58,13.27,4.68,3.21,10.3,5.12,15.64,7.25,3.24,1.29,6.77,1.87,9.98,2.73-4.09,1.66-15.28.67-20.34-2.27-7.2-4.19-14.09-8.95-21.43-12.88-4.02-2.15-9.73-3.58-14.03-1.8,2.86-1.79,5.38-3.73,6.6-6.3Z"/>
      <path class="cls-1" d="m69.36,78.1c-9.34,3.53-16.13,8.17-23.58,13.27-4.68,3.21-10.3,5.12-15.64,7.25-3.24,1.29-6.77,1.87-9.98,2.73,4.09,1.66,15.28.67,20.34-2.27,7.2-4.19,14.09-8.95,21.43-12.88,4.02-2.15,9.73-3.58,14.03-1.8-9.09,3.52-17.52,16.52-30.41,23.37-4.62,2.46-10.53,5.28-10.38,11.85-3.07-1.57-3.71-3.93-3.78-5.85-4.28,1.21-7.85,1.21-13.64,1.36-2.93.07-6.47,2.93-8.28,4.93-2.58-2.9-1.38-6.21.95-8.9-8.24-2.43-11.53-14.64-9.43-23.09,3.24,1.8,5.23,8.46,10.66,6.09-1.05-2.81-.9-7.09.81-9.59,7.68,8.66,12.82-1.85,19.14,0-1.35-4.65-.21-7.71,2.93-9.43,1.79,2.43,8.42,1.37,12.35.43,5.09-1.21,13.89-.51,19.42-.4,1.49.65,2.13,1.5,3.06,2.93Z"/>
      <path class="cls-1" d="m86.89,88.94c-5.14,4.64-8.52,24.45-4.37,31.4-1.9,2.09-6.09,3.9-8.71.67.62,10.71-4.05,17.33-.29,24.85-1.56.5-4.84-.45-6-2.43.17,12.09-10.19,21.77-21.47,23.37,3.19-6.95,1.61-16.49,1.95-23.61-4.57.57-6.19-2.62-6.19-2.62,1.1-1.78,2.4-4.6,3.38-7.85,1.19-3.95.44-5.9.9-8,.48-2.14,3-3.81,2.95-7.66-4.05-.52-5.03-3.73-4.28-6.62,9.09-.1,12.2-3.14,17.78-11.24,4.24-5.48,8.68-10.73,16.7-14.16-13.79,20.38-20.99,42.37-22,65.91,2.9-6.81,4.81-10.81,6.28-21.48,2.11-15.32,9.83-29.76,18.98-42.31.01,0,2.87-.04,4.39,1.78Z"/>
      <path class="cls-1" d="m92.08,59c-9.55.23-19.4,3.5-24.81,13.47,5.3,1.53,7.55,5.93,11.02,8.52,4.04,3.02,7,5,13.79,5h0c6.8,0,9.75-1.98,13.79-5,3.47-2.59,5.71-7,11.02-8.52-5.41-9.97-15.27-13.25-24.82-13.47h0Z"/>
      <path class="cls-1" d="m72.4,61.53c-7.35-12.21-19.17-17.17-31.96-17.59-6.23-.21-15.85.62-18.59,1.14,16.98,2.48,37.74,2.71,49.2,17.44l-2.2,2.01c-6.49-7.43-16.64-10.95-24.21-10.95-6.53,0-13.11-.07-19.64-.58-9.14-.71-20.26-9.14-18.16-18.3,7.62,5.31,15.83,4.81,24.96,3.6,11.3-1.49,20.05,1.3,28.65,7.47,5.39,3.87,10.33,9,13.29,14.89-.5.34-.98.7-1.34.87Z"/>
      <path class="cls-1" d="m68.24,65.5c-.31.82-.67,1.57-.95,2.28-6.78-5.07-13.76-7.11-20.92-7.17-6.71-.2-13.99,2.42-17.94,8.3,5.53-4.32,11.47-6.59,18.26-6.34,6.61.25,13.23,2.42,17.84,7.35-.12.45-.67,2.43-.67,2.43-6.52-4.14-17.4-4.71-26.23-2-8.04,2.45-15.52,7.43-17.61,15.2-9.27-7.88,4.71-22.87,12.78-26.08,9.69-4.77,24.63-3.68,35.44,6.03Z"/>
      <path class="cls-1" d="m87.89,79.23c-.23,1.13-1.87,1.35-2.55.54-.73-.86.11-3.08,1.03-3.15.75-.07,1.67,1.61,1.52,2.61Z"/>
      <path class="cls-1" d="m83.54,73.09c-.23,1.13-1.87,1.35-2.55.54-.73-.86.11-3.08,1.03-3.15.74-.07,1.66,1.61,1.52,2.61Z"/>
      <path class="cls-1" d="m78.87,78.56c-.23,1.13-1.87,1.35-2.55.54-.73-.86.11-3.08,1.03-3.15.75-.06,1.67,1.62,1.52,2.61Z"/>
      <path class="cls-1" d="m92.08,74.44c-.44.01-.87-.16-1.15-.48-.73-.87.12-3.14,1.15-3.14"/>
      <path class="cls-1" d="m64.31,10.59c.07,3.67.93,7.62,1.87,11.11,1.87,6.96,5.98,12.76,9.96,18.22,4,5.47,8.95,13.38,4.05,18.28-.75-5.84-3.71-10.92-7.43-15.23-4.12-4.77-7.41-9.6-8.33-15.71-.44,5.76,1.43,11.14,5.08,15.78,3.51,4.47,8.39,11.07,6.68,16.35-2.69-7.72-9.81-12.04-13.04-20.8-3.41-9.23-3.97-20.21,1.16-28Z"/>
      <path class="cls-1" d="m86.84,13.07c-4.66,8.85-5.41,18.09-4.17,29.51-5.57-2.95-8.21-8.95-8.19-15.08-2.49-2.32-5.46-4.42-5.78-8.36,1.97.62,3.42,2.33,4.68,4.28-.43-4.28-3.26-8.65-5.72-12.42,6.99-2.37,9.75,7.89,10.64,13.76.46-6.43,3.27-10.5,8.54-11.69Z"/>
      <path class="cls-1" d="m92.08,15.16c-4.42,13.85-3.62,25.87-2.26,41.2h-3.55c-4.07-25.61,1.11-36.63,5.81-54.86,4.7,18.23,9.88,29.26,5.81,54.86h-3.55c1.36-15.33,2.16-27.35-2.26-41.2Z"/>
      <path class="cls-1" d="m87.77,66.66c-.23,1.13-1.87,1.34-2.55.54-.45-.53-.3-1.54.08-2.29.55-.18,1.1-.35,1.67-.48.5.53.9,1.55.8,2.23Z"/>
      <path class="cls-1" d="m83,84.09c-.83-.41-1.61-.89-2.39-1.43.25-.4.56-.7.88-.73.63-.04,1.4,1.19,1.51,2.16Z"/>
      <path class="cls-1" d="m92.08,59c-9.54.22-19.41,3.5-24.81,13.47,1.96.57,3.5,1.53,4.84,2.64,5.16-6.33,11.15-11.29,19.97-11.29h0c8.81,0,14.81,4.96,19.97,11.29,1.34-1.11,2.89-2.07,4.84-2.64-5.4-9.97-15.27-13.25-24.82-13.47"/>
      <path d="m83,65.84l-.41.62c-2.19,3.46-4.83,7.48-7.81,11.14l-.03.04c-.19-.2-.38-.4-.58-.6,2.74-3.39,5.22-7.11,7.3-10.4,0,0,0,0,0-.01h0c.49-.27,1-.55,1.51-.79Z"/>
      <path d="m88.54,85.78c-.48-.07-.95-.15-1.39-.25-3.36-3.88-7.83-9.51-10.84-14.98.21-.21.43-.4.65-.59l.04.1c3.07,5.63,7.75,11.44,11.14,15.34l.4.38Z"/>
      <path class="cls-1" d="m79.24,85.03c-13.79,20.38-20.99,42.37-22,65.91,2.9-6.81,4.81-10.81,6.28-21.48,2.11-15.32,9.83-29.76,18.98-42.31-1.6-.32-2.81-.94-3.26-2.12Z"/>
      <path class="cls-1" d="m69.36,78.1c-9.34,3.53-16.13,8.17-23.58,13.27-4.68,3.21-10.3,5.12-15.64,7.25-3.24,1.29-6.77,1.87-9.98,2.73,4.09,1.66,15.28.67,20.34-2.27,7.2-4.19,14.09-8.95,21.43-12.88,4.02-2.15,9.73-3.58,14.03-1.8-2.86-1.79-5.38-3.73-6.6-6.3Z"/>
      <path class="cls-1" d="m93.37,85.97c.46-.98-.34-2.92-1.29-2.92h0c-.95,0-1.75,1.94-1.29,2.92"/>
    </g>
  </g>
</svg>