<?xml version="1.0" encoding="UTF-8"?>
<svg id="Layer_2" data-name="Layer 2" xmlns="http://www.w3.org/2000/svg" viewBox="0 0 53.54 63.87">
  <defs>
    <style>
      .cls-1 {
        fill: none;
        stroke: #000;
        stroke-miterlimit: 10;
        stroke-width: .75px;
      }
    </style>
  </defs>
  <g id="Layer_1-2" data-name="Layer 1">
    <g>
      <path class="cls-1" d="m49.29.72c-1.63,8.91-15.48,9.18-18.85,16.53-2.13,4.65-2.13,9.01-7.64,11.41-.81-3.33.97-6.71,1.2-10.13.29-4.22-4.72-9.12-9.53-8.66,2.24,6.93-8.79,10.02-7.58,20.02.59,4.84,6.89,8.15,5.43,13.56-5.55-7.87-10.95-5.55-11.88-2.33,4.47,2.89,7.32,10.61,6.57,15.69-.26,1.74-1.02,3.8.25,5.01l5.82,1.19c7.01-6.76,15.51,5.84,25.03-2.47-2.49-6.21-7.35-6.37-12.29-6.97,6.37-6.53,10.41,3.67,15.98-3.8,1.59-2.13,3.02-5.27,5.65-5.62.34-6.87-8.04-11.44-13.63-7.44-2.36-3.45-.74-5.22,1.24-5.98,4.74-1.81,14.33,1.92,15.88-9.43.93-6.75,5.33-14.41-1.65-20.58Z"/>
      <path class="cls-1" d="m44.51,14.37c-1.2-.54-3.78.32-4.88,1.02-9.63,6.11-15.97,16.02-21.39,26.11-2.09-5.96-1.78-13.47.57-19.33.37-.91.79-1.89.51-2.82-.26-.9-1.15-1.52-2.07-1.66-.93-.13-1.88.18-2.67.66-3.07,1.82-4.07,5.89-3.6,9.41.49,3.53,2.13,6.77,3.22,10.16,1.03,3.48,2.06,10.68-.94,11.11-1.26.19-1.82-1.85-2.44-2.88-.89-1.49-2.31-2.8-3.4-1.65-.7.74.28,2.49,1.07,3.38.9,1,1.9,2.6,2.52,3.8,1.86,3.59-.2,7.79-3.45,10.21l5.52,1.12c1.43-4.34,5.19-6.4,10.02-3.52,2.3,1.36,8.83,3.19,9.37-.03.69-4-5.18-2.47-7.93-2.49-3.62-.04-6.51-2.27-9.09,0,1-4.38,2.19-9.83,7.09-11.76,4.53-1.78,6.75,1.54,11.4,1.45,1.77-.04,5.65-.45,5.82-2.52.31-4.02-3.41-5.17-8.78-3.18-2.79,1.05-5.13-.53-8.74.87,5.37-7.44,5.28-10.95,19.46-19.32,1.54-.91,3.12-1.92,3.94-3.51.83-1.58.48-3.89-1.13-4.63Z"/>
    </g>
  </g>
</svg>