<?xml version="1.0" encoding="UTF-8"?>
<svg id="Layer_2" data-name="Layer 2" xmlns="http://www.w3.org/2000/svg" viewBox="0 0 78.84 104.44">
  <defs>
    <style>
      .cls-1 {
        fill: none;
        stroke: #000;
        stroke-miterlimit: 10;
        stroke-width: 1.5px;
      }
    </style>
  </defs>
  <g id="Layer_1-2" data-name="Layer 1">
    <g>
      <path class="cls-1" d="m52.74,86.64c3.05-3.99,7.87-8.6,12.05-7.96-5,5.5-9.54,14.81-9.12,21.62-5.98-.41-11.01.38-16.26,3.28-5.25-2.9-10.27-3.69-16.25-3.28.42-6.8-4.12-16.12-9.13-21.62,4.18-.64,9,3.97,12.05,7.96-5.6-12.25-9.1-27.94-24.41-34.32,4.6-2.73,10.72.05,14.5,3.58-.2-2.39-.11-5.25.41-7.51,5.79,5.47,8.77,12.81,11.69,20.46.32.84,1.04,2.16,1.99,1.62.97-.57.27-2.22.02-3.15-2.6-9.89-6.39-19.79-11.32-28.93,4.35.4,9.38,6.46,9.63,6.77-.08-.21-1.31-3.56-1.96-5.4-1.94-5.43-2.01-11.44.83-16.38,3.29,2.84,5.55,7.11,5.39,11.45-.11,2.87,1.26,4.85,2.69,4.32.87-.32.97-1.87.98-2.78.08-4.34-1.91-8.91-2.44-13.45-.86-7.34,2.19-14.47,5.33-21.16,3.15,6.69,6.19,13.82,5.34,21.16-.53,4.54-2.52,9.11-2.44,13.45.02.92.12,2.46.97,2.78,1.44.53,2.81-1.45,2.7-4.32-.17-4.34,2.1-8.61,5.38-11.45,2.85,4.94,2.78,10.95.84,16.38-.66,1.84-1.89,5.2-1.96,5.4.25-.31,5.28-6.37,9.63-6.77-4.92,9.14-8.71,19.04-11.31,28.93-.24.92-.94,2.58.02,3.15.94.55,1.67-.77,1.99-1.62,2.92-7.65,5.9-14.99,11.69-20.46.52,2.26.6,5.12.41,7.51,3.77-3.53,9.88-6.31,14.5-3.58-15.32,6.38-18.83,22.08-24.43,34.32Z"/>
      <path d="m51.52,94.72c.02-.43.08-.83.15-1.24l.54-1.07c.74-1.42,1.56-2.8,2.47-4.11l.7-.98c1.15-.85,1.13-.89.6.45-.68.92-1.38,1.95-1.96,2.93-.89,1.31-1.3,2.92-2.5,4.02h0Z"/>
      <path d="m45.34,96.05c1.04-6.35,3.62-12.33,6.06-18.25,2.63-5.84,5.22-11.81,9.17-16.9-2.82,5.74-6.02,11.28-8.48,17.2-2.62,5.84-4.44,11.98-6.75,17.95h0Z"/>
      <path d="m42.85,84.08c-.55-6.23.64-12.54,2.06-18.58,1.57-6.01,3.48-12.14,6.87-17.39-.48,1.24-1.2,3.1-1.65,4.37-3.41,7.8-5.62,16.17-6.48,24.64-.16,2.16-.55,4.81-.8,6.96h0Z"/>
      <path d="m49.49,34.98c-.51,7.91-5.4,14.66-6.87,22.33-1.03,5.09-.97,10.33-1.02,15.51-.06,5.22-.27,10.42-.3,15.64-.15,2.6-.23,5.21-.32,7.82-.21-2.6-.32-5.21-.43-7.82.02-5.21.24-10.43.3-15.64.05-5.22,0-10.5,1.04-15.65,1.53-7.74,6.01-14.48,7.6-22.19h0Z"/>
      <path d="m39.41,38.29c.16.91.25,1.81.38,2.72v16.32c-.13.91-.22,1.81-.38,2.72-.15-.91-.25-1.81-.38-2.72v-16.32c.13-.91.22-1.81.38-2.72,0,0-.16.91,0,0Z"/>
      <g>
        <path d="m27.3,94.72c-1.2-1.1-1.61-2.71-2.51-4.03-.58-.98-1.29-2.01-1.96-2.93-.52-1.32-.57-1.32.6-.45l.7.98c.91,1.32,1.74,2.69,2.47,4.11l.54,1.07c.08.41.14.82.16,1.25h0Z"/>
        <path d="m33.48,96.05c-2.31-5.97-4.13-12.1-6.75-17.95-2.46-5.91-5.67-11.45-8.48-17.2,3.95,5.09,6.55,11.06,9.17,16.9,2.45,5.92,5.02,11.89,6.06,18.25h0Z"/>
        <path d="m35.97,84.08c-.24-2.14-.64-4.8-.79-6.96-.87-8.47-3.07-16.84-6.48-24.64-.45-1.27-1.17-3.12-1.65-4.37,3.39,5.25,5.3,11.38,6.87,17.39,1.4,6.04,2.6,12.35,2.05,18.58h0Z"/>
        <path d="m29.33,34.98c1.59,7.71,6.07,14.44,7.61,22.18,1.04,5.15.99,10.43,1.04,15.65.06,5.21.27,10.43.3,15.64-.11,2.61-.22,5.22-.43,7.82-.09-2.61-.17-5.21-.32-7.82-.02-5.22-.24-10.42-.3-15.64-.05-5.19.01-10.42-1.02-15.51-1.47-7.66-6.37-14.41-6.88-22.32h0Z"/>
        <path d="m39.41,13.21c.28,3.74-2.25,7.16-2.16,10.82.19,3.72,2.49,7.04,2.53,10.87h-.75c.04-3.82,2.34-7.15,2.53-10.87.09-3.66-2.42-7.08-2.15-10.82h0Zm0,0c.44,3.78,3.09,6.89,2.91,10.84-.17,3.79-2.47,7.11-2.53,10.84h-.75c-.01-1.79-.61-3.56-1.2-5.32-.58-1.76-1.25-3.57-1.33-5.52-.08-1.97.58-3.82,1.2-5.57.73-1.71,1.52-3.4,1.7-5.27h0Z"/>
      </g>
    </g>
  </g>
</svg>