<?xml version="1.0" encoding="UTF-8"?>
<svg id="Layer_2" data-name="Layer 2" xmlns="http://www.w3.org/2000/svg" viewBox="0 0 64.12 144.28">
  <defs>
    <style>
      .cls-1 {
        fill: none;
        stroke: #000;
        stroke-miterlimit: 10;
        stroke-width: .75px;
      }
    </style>
  </defs>
  <g id="Layer_1-2" data-name="Layer 1">
    <g>
      <path class="cls-1" d="m54.36,58.31c-7.36-16.58-16.86-34.44-22.29-56.73-5.43,22.29-14.94,40.15-22.3,56.73C5.03,68.98.37,78.81.38,89.99c.01,11.65,3.64,24.19,13.79,38.89,5.6,8.11,10.32,13.51,17.9,15.01,7.57-1.5,12.29-6.9,17.89-15.01,10.15-14.69,13.78-27.23,13.79-38.89.01-11.18-4.66-21.01-9.39-31.68Zm-4.57,51.61c-.69-.56-.46-1.67-.85-2.47-.57-1.22-2.53-1.21-3.4-.17-1.4,1.65-.5,5.33,1.79,5.67.62.04,1.24-.26,1.85-.17,1.32.24,1.6,2.08,1.08,3.31-.53,1.22-3.39,8.25-5.31,10.35-.88.56-2,.15-3-.08-1.01-.22-2.37-.06-2.61.94-.25,1,.92,1.81,1.94,1.89,2.08-.11,2.24,1.32.97,2.76-2.25,2.62-4.51,5.25-6.76,7.89-.17.19-.38.42-.64.44-.56.06-.84-.61-.96-1.22-.4-1.96-3.41-1.97-3.68,0-.09.63-.4,1.28-.96,1.22-.26-.03-.47-.25-.64-.44-2.25-2.64-4.51-5.26-6.76-7.89-1.26-1.44-1.11-2.87.97-2.76,1.03-.08,2.19-.89,1.94-1.89-.24-1-1.6-1.17-2.61-.94-1,.24-2.12.64-3,.08-1.92-2.1-4.78-9.12-5.31-10.35-.51-1.22-.24-3.07,1.08-3.31.61-.1,1.22.21,1.85.17,2.29-.33,3.19-4.01,1.79-5.67-.88-1.04-2.83-1.06-3.4.17-.39.81-.15,1.92-.85,2.47-.93.71-2.14-.4-2.76-1.39-3.31-5.25-6.76-11.35-5.11-17.33.21-.75.53-1.53,1.19-1.94,1.65-1.03,3.6.9,5.54,1,2.58.13,4.11-3.56,2.64-5.67-1.49-2.12-6.76,1.44-7-1.12-.5-5.54,1.46-10.03,3.18-15.69.38-1.26,1.62-3.43,2.93-3.6,1.53-.18,2.17,2.04,3.58,2.67,1.42.61,3.1-.86,3.03-2.4-.07-1.53-1.43-2.76-2.93-3.14-.93-.24-2.08-.28-2.58-1.11-.36-.61-.21-1.37-.04-2.06,1.11-4.53,2.21-9.06,3.32-13.58.17-.64.33-1.32.74-1.83.99-1.24,3.24-.99,3.92.43.51,1.06.28,2.53,1.22,3.21,1.08.76,2.67-.49,2.67-1.81-.06-2.82-3.62-3.83-4.58-6.21-.99-2.4.85-4.93,2.25-7.1,4.04-6.22,5.43-13.79,6.54-21.11,1.11,7.32,2.49,14.89,6.53,21.11,1.4,2.17,3.24,4.69,2.25,7.1-.96,2.37-4.53,3.39-4.58,6.21,0,1.32,1.58,2.57,2.67,1.81.94-.68.71-2.15,1.22-3.21.68-1.42,2.93-1.67,3.92-.43.4.51.57,1.19.74,1.83,1.11,4.53,2.21,9.06,3.32,13.58.17.68.32,1.44-.04,2.06-.5.83-1.65.87-2.58,1.11-1.5.37-2.86,1.61-2.93,3.14-.07,1.54,1.61,3.01,3.03,2.4,1.42-.63,2.06-2.85,3.58-2.67,1.31.17,2.56,2.33,2.93,3.6,1.72,5.67,3.68,10.15,3.18,15.69-.24,2.57-5.51-1-7,1.12-1.47,2.11.06,5.79,2.64,5.67,1.94-.1,3.89-2.03,5.54-1,.67.42.99,1.19,1.19,1.94,1.65,5.99-1.81,12.08-5.11,17.33-.63.99-1.84,2.1-2.77,1.39Z"/>
      <path class="cls-1" d="m43.97,115.01c-4.15-.23-8.33,2.13-10.27,5.79.16-5.16,1.18-10.38,3.69-14.9,2.51-4.51,6.63-8.26,11.61-9.65-6.8-.14-11.46,2.3-13.53,7.04-.58-11.3,2.49-24.29,13.55-29.5-5.21-.04-10.38,2.4-13.65,6.45,1.13-7.62,2.66-15.19,4.58-22.65.78-3.03,1.68-6.15,3.69-8.55-4.66,2.19-8.17,6.67-9.18,11.72.35-8.8.25-17.62-.28-26.42-.2-3.3-.7-6.68-2.11-9.67-1.41,2.99-1.9,6.37-2.11,9.67-.54,8.79-.63,17.61-.28,26.42-1.01-5.05-4.52-9.53-9.18-11.72,2.01,2.4,2.91,5.52,3.69,8.55,1.92,7.46,3.46,15.02,4.58,22.65-3.27-4.05-8.45-6.49-13.65-6.45,11.06,5.21,14.12,18.2,13.55,29.5-2.07-4.75-6.74-7.18-13.53-7.04,4.98,1.39,9.09,5.14,11.61,9.65,2.51,4.51,3.54,9.73,3.69,14.9-1.95-3.67-6.13-6.03-10.27-5.79,4.01,1.98,7.13,5.68,8.41,9.96,1.1,3.71,1.62,7.84,3.5,11.21,1.89-3.38,2.4-7.51,3.5-11.21,1.26-4.28,4.38-7.99,8.39-9.96Z"/>
    </g>
  </g>
</svg>