<?xml version="1.0" encoding="UTF-8"?>
<svg id="Layer_2" data-name="Layer 2" xmlns="http://www.w3.org/2000/svg" viewBox="0 0 126.85 139.33">
  <defs>
    <style>
      .cls-1 {
        stroke-linecap: round;
        stroke-width: 1.76px;
      }

      .cls-1, .cls-2 {
        fill: none;
        stroke: #000;
        stroke-miterlimit: 10;
      }

      .cls-2 {
        stroke-width: .5px;
      }
    </style>
  </defs>
  <g id="Layer_1-2" data-name="Layer 1">
    <g>
      <path class="cls-2" d="m118.06,66.81c-2.22,1.51-4.39,4.01-5.33,6.53s-1.36,5.19-1.83,7.84c-2.13,11.98-5.51,24.18-13.24,33.57-1.76,2.13-3.72,4.09-5.68,6.05-2.8,2.8-5.6,5.59-8.4,8.39.39.56,1.94-.16,2.49-.56,3.13-2.26,5.22-4.62,8.29-6.96s6.58-4.33,10.42-4.73c-1.81-.66-3.83-.73-5.69-.19,5.26-4.5,8.57-9,16.26-11.31-3.3-.1-6.61.5-9.66,1.76,3.38-2.25,4.18-6.02,5.79-9.74s4.54-7.94,8.31-9.45c-2.74-.55-5.76.95-6.98,3.46,1.45-4.14.94-6.91,1-10.9.07-4.74,1.27-10.12,4.25-13.76Z"/>
      <path class="cls-2" d="m85.26,108.78c6.61-2.18,3.96-14.78,12.89-15.35-1.19-.22-2.41-.43-3.59-.18-1.18.25-2.32,1.08-2.56,2.26.44-3.9.9-7.84,2.32-11.5,1.12-4.03,4.99-5.39,8.87-4.81-1.37-1.6-3.41-2.71-5.51-2.61-2.1.11-4.16,1.61-4.56,3.68.08-2.66.43-5.3,1.04-7.89.56-2.41,1.52-4.99,3.69-6.19,1.77-.98,3.92-.8,5.93-.59-1.82-1.35-4.25-1.84-6.46-1.3-2.2.54-4.13,2.11-5.12,4.15-.72-8.42-1.29-17.39-1.46-25.84-1.13,1.86-1.45,4.1-1.63,6.27-.86,10.06.54,20.16.95,30.25.42,10.1-.19,20.67-4.8,29.65Z"/>
      <path class="cls-2" d="m8.7,66.81c2.22,1.51,4.39,4.01,5.33,6.53s1.36,5.19,1.83,7.84c2.13,11.98,5.51,24.18,13.24,33.57,1.76,2.13,3.72,4.09,5.68,6.05,2.8,2.8,5.6,5.59,8.4,8.39-.39.56-1.94-.16-2.49-.56-3.13-2.26-5.22-4.62-8.29-6.96s-6.58-4.33-10.42-4.73c1.81-.66,3.83-.73,5.69-.19-5.26-4.5-8.57-9-16.26-11.31,3.3-.1,6.61.5,9.66,1.76-3.38-2.25-4.18-6.02-5.79-9.74s-4.54-7.94-8.31-9.45c2.74-.55,5.76.95,6.98,3.46-1.45-4.14-.94-6.91-1-10.9-.07-4.74-1.26-10.12-4.25-13.76Z"/>
      <path class="cls-2" d="m41.51,108.78c-6.61-2.18-3.96-14.78-12.89-15.35,1.19-.22,2.41-.43,3.59-.18,1.18.25,2.32,1.08,2.56,2.26-.44-3.9-.9-7.84-2.32-11.5-1.12-4.03-4.99-5.39-8.87-4.81,1.37-1.6,3.41-2.71,5.51-2.61,2.1.11,4.16,1.61,4.56,3.68-.08-2.66-.43-5.3-1.04-7.89-.56-2.41-1.52-4.99-3.69-6.19-1.77-.98-3.92-.8-5.93-.59,1.82-1.35,4.25-1.84,6.46-1.3,2.2.54,4.13,2.11,5.12,4.15.72-8.42,1.29-17.39,1.46-25.84,1.13,1.86,1.45,4.1,1.63,6.27.86,10.06-.54,20.16-.95,30.25-.43,10.1.18,20.67,4.8,29.65Z"/>
      <path class="cls-2" d="m63.38,20.99c-.79,12.39.21,23.66-1.64,36.03-2.21,13.49-8.49,26.23-14.54,38.49,1.29-2.7,1.3-5.61.63-8.52s-2-5.63-3.31-8.33c2.12,1.6,3.65,3.97,4.24,6.56,1.55-3.77,3.28-7.71,3.52-11.78s-1.08-8.47-4.36-10.9c2.92.86,5.43,3.04,6.69,5.82,1.3-3.45,2.63-7.06,2.22-10.72-.61-5.47-4.9-9.75-9.27-13.11,4.53.6,8.62,3.77,10.34,8,.42-4.53.69-9.11-.02-13.61s-2.48-8.93-5.66-12.18c3.5.48,6.66,2.93,8.01,6.19.76-8.4,2.27-16.8,3.14-25.19.88,8.39,2.38,16.79,3.14,25.19,1.35-3.26,4.51-5.71,8.01-6.19-3.18,3.25-4.95,7.68-5.66,12.18s-.44,9.08-.02,13.61c1.71-4.23,5.81-7.4,10.34-8-4.36,3.36-8.66,7.64-9.27,13.11-.41,3.66.92,7.27,2.22,10.72,1.27-2.77,3.77-4.95,6.69-5.82-3.28,2.43-4.6,6.83-4.36,10.9s1.97,8,3.52,11.78c.59-2.59,2.12-4.95,4.24-6.56-1.31,2.69-2.63,5.41-3.31,8.33s-.66,5.82.63,8.52c-6.06-12.26-12.33-25-14.54-38.49-1.83-12.37-.83-23.63-1.62-36.03Z"/>
      <path class="cls-1" d="m50.06,138.45c-3.16-5.18-10.9-6.27-14.09-1.28-2.79-3.63-4.25-4.76-9.07-6.64,1.77-.67,3.69-.79,6.86-.23-3.04-2.95-8.32-3.57-12.03-.05-1.06-1.41-1.72-2.23-3.32-2.96.66-.45,1.39-.8,2.14-1.06-2.52.33-4.56-1.07-5.23-3.06h0c.64-.79,1.1-1.59,1.44-2.39h0c5.01,4.44,9.69,2.19,14.51,4.38-2.77-2.36-6.26-3.56-9.56-4.66-2.38-.79-3.81-1.75-4.28-2.92-.19-.49-.22-1.01-.08-1.56.07-.29.18-.58.34-.89.54-1.05,3.99-.79,5.71-.22-3.03-2.59-5.79-4.19-8.61-5.29-.83-.33-1.66-.61-2.51-.86h-.01c-1.24-.37-2.51-.67-3.84-.95-1-.21-1.88-.99-2.21-1.86-1.2-4.47,2.19-7.95,6.25-4.62.56.11.9-.71.61-1.19-1.1-1.24-4.65-1.61-5.85-.51-.55.71-1.53.49-1.84-.35-.19-.53-.12-1.11-.14-1.68-.07-3.67-3.78-6.86-2.79-10.64.19-.67.53-1.28.71-1.95.45-1.66-.14-3.66,1-5.11.55-.68,1.6-1.03,2.34-.56.58.37.93,1.17,1.61,1.24,1.56-.1,1.18-2.17-.06-2.59-.77-.37-1.69-.38-2.46-.03-.37.17-.73.42-1.14.37-.76-.09-.95-1.07-1.16-1.81-.6-2.07-2.98-3.85-2.3-6.18.53-1.66,2.56-2.25,3.75-3.52,1.85-2.44,2.65-6.18,6.54-4,6.61,2.67,6.22,10.58,7.56,16.51,2.7,13.65,9.77,26.02,17.5,37.58.99,1.52,2.21.49,1.16-.83-1.99-2.69-3.92-5.43-5.77-8.22-1.26-1.79-.34-3.34,1.71-2.17,2.07,1.01,2.75-1.13.69-1.84-1.24-.51-2.53.01-3.78-.02-.61-.15-.97-.76-1.26-1.31-1.46-3.67-5.88-7.95-3.57-12,1.84-2.53,3.48,1.39,5.36.94,3.15-1.76-1.99-8.55-6.42-1.56-2.89-3.94-4.46-8.84-4.38-13.73-.09-1.54.65-3.78,2.52-3.51,1,.42,2.32.94,3.12-.14.43-.57.4-1.48-.14-1.98-.85-.79-2.21-.24-3.23.31-4.17,2.34-3.78-2.49-4.94-5.09-1.6-4.15.49-4.98,2.11-8.35,1.25-3.56,4.11-4,5.96-.61.7,1.26,1.25,2.71,2.49,3.44-.1-3.92-5.38-6.43-4.59-10.53.77-3.25,4.7-4.03,6.74-6.26,1.19-1.31,1.76-3.06,2.78-4.5,2.05-2.93,5.51-2.81,6.53.74,1.09,3.07,1,6.41,1.05,9.67.08,5.28.55,10.56,1.39,15.78.36,2.24.8,4.54.3,6.76-1.22,3.7-3.11,7.29-2.82,11.33.33,5.33,1.75,10.54,2.59,15.8,0,.91,1.08,1.06,1.5.32.24-.45.18-.99.09-1.49-1.3-7.26-4.83-15.72-.2-22.45.86-1.44,2.14-.4,2.64.9.45,1.24,2.03,2.24,2.5.63.28-1.1-.57-2.18-1.51-2.83s-2.05-1.14-2.7-2.06c-.62-.88-.72-2-.82-3.07-.04-.51-.07-1.09.26-1.5.32-.41,1.13-.39,1.24.11.7.66.89-1.01.42-1.54-.42-.48-.94-.86-1.35-1.33-1.1-1.45-1.62-5.88.33-6.68,2.01-.78,3.9.69,4.66,2.18,1.21,2.37,2.52.98,1.33-.98-1.44-2.37-4.56-3.18-6.93-2.44-.5.15-1.04.02-.98-.57-.02-1.46.16-2.91.17-4.38.02-2.8-1.75-4.9-1.3-7.61.22-1.32,1.05-2.44,1.3-3.76.23-1.2-.24-2.65.6-3.55,1-1.08,2.9-.42,3.93.62,1.04,1.06,2.02,2.13,2.92,1.56,1.07-.66-2.51-2.66-3.8-3.42-.85-.5-1.57-1.21-1.44-2.35.45-3.7,1.76-7.4,4.31-10.1,1.24-1.31,2.83-2.33,3.84-3.84,1.2-1.54,1.25-4.27,3.18-5.11,3.14.28,2.76,8.05,2.06,9.25-.64,1.16-.32,2.87.95.99,1.77-2.62.41-5.81-.62-8.58-2.63-7.68.02-9.46,4.89-14.66,4.87,5.21,7.52,6.99,4.89,14.66-1.03,2.78-2.39,5.96-.62,8.58,1.27,1.88,1.59.18.95-.99-.71-1.2-1.09-8.96,2.06-9.25,1.92.84,1.98,3.56,3.18,5.11,1.01,1.51,2.59,2.52,3.84,3.84,2.56,2.7,3.86,6.41,4.31,10.1.13,1.14-.59,1.84-1.44,2.35-1.29.76-4.87,2.76-3.8,3.42.9.56,1.88-.5,2.92-1.56,1.03-1.04,2.94-1.69,3.93-.62.84.9.37,2.35.6,3.55.25,1.32,1.08,2.44,1.3,3.76.45,2.71-1.31,4.81-1.3,7.61.01,1.46.19,2.91.17,4.38.06.59-.48.72-.98.57-2.37-.75-5.5.06-6.93,2.44-1.19,1.96.12,3.35,1.33.98.76-1.49,2.65-2.96,4.66-2.18,1.95.8,1.43,5.23.33,6.68-.41.48-.93.86-1.35,1.33-.47.54-.27,2.21.42,1.54.11-.5.92-.52,1.24-.11.33.41.3.99.26,1.5-.1,1.07-.2,2.19-.82,3.07-.65.93-1.76,1.41-2.7,2.06s-1.79,1.73-1.51,2.83c.47,1.61,2.05.62,2.5-.63.49-1.3,1.78-2.34,2.64-.9,4.63,6.72,1.09,15.18-.2,22.45-.09.5-.15,1.04.09,1.49.42.74,1.5.59,1.5-.32.84-5.26,2.26-10.47,2.59-15.8.29-4.04-1.61-7.63-2.82-11.33-.5-2.21-.06-4.52.3-6.76.85-5.21,1.31-10.49,1.39-15.78.05-3.26-.04-6.6,1.05-9.67,1.01-3.55,4.48-3.67,6.53-.74,1.02,1.44,1.59,3.19,2.78,4.5,2.04,2.22,5.97,3.01,6.74,6.26.79,4.1-4.49,6.62-4.59,10.53,1.24-.73,1.79-2.18,2.49-3.44,1.85-3.39,4.71-2.96,5.96.61,1.61,3.36,3.71,4.2,2.11,8.35-1.16,2.6-.77,7.43-4.94,5.09-1.02-.55-2.38-1.1-3.23-.31-.54.49-.57,1.4-.14,1.98.8,1.09,2.13.56,3.12.14,1.87-.26,2.61,1.98,2.52,3.51.08,4.89-1.48,9.78-4.38,13.73-4.43-6.99-9.57-.19-6.42,1.56,1.88.45,3.52-3.47,5.36-.94,2.31,4.05-2.11,8.33-3.57,12-.29.55-.65,1.16-1.26,1.31-1.24.03-2.53-.49-3.78.02-2.06.71-1.39,2.85.69,1.84,2.05-1.16,2.97.38,1.71,2.17-1.85,2.79-3.78,5.53-5.77,8.22-1.05,1.31.17,2.35,1.16.83,7.73-11.56,14.8-23.93,17.5-37.58,1.34-5.93.95-13.83,7.56-16.51,3.89-2.19,4.68,1.55,6.54,4,1.19,1.27,3.22,1.86,3.75,3.52.68,2.34-1.7,4.11-2.3,6.18-.2.74-.4,1.72-1.16,1.81-.41.05-.77-.2-1.14-.37-.77-.35-1.69-.34-2.46.03-1.24.42-1.62,2.5-.06,2.59.69-.06,1.03-.86,1.61-1.24.74-.47,1.79-.11,2.34.56,1.14,1.45.55,3.45,1,5.11.18.67.52,1.28.71,1.95,1,3.78-2.72,6.97-2.79,10.64-.02.56.05,1.15-.14,1.68-.32.85-1.3,1.07-1.84.35-1.2-1.1-4.75-.72-5.85.51-.29.49.05,1.31.61,1.19,4.06-3.33,7.45.15,6.25,4.62-.33.87-1.21,1.65-2.21,1.86-1.32.28-2.59.58-3.84.95h-.01c-.85.26-1.68.54-2.51.86-2.82,1.1-5.58,2.71-8.61,5.29,1.72-.56,5.17-.83,5.71.22.16.31.26.6.34.89.14.56.11,1.08-.08,1.56-.47,1.17-1.9,2.13-4.28,2.92-3.3,1.09-6.79,2.29-9.56,4.66,4.83-2.19,9.5.06,14.51-4.38h0c.34.8.8,1.61,1.44,2.39h0c-.67,1.99-2.71,3.39-5.23,3.06.76.26,1.48.61,2.14,1.06-1.6.73-2.26,1.55-3.32,2.96-3.71-3.52-8.99-2.89-12.03.05,3.17-.56,5.08-.44,6.86.23-4.82,1.89-6.28,3.02-9.07,6.64-3.19-4.99-10.93-3.9-14.09,1.28"/>
    </g>
  </g>
</svg>