<?xml version="1.0" encoding="UTF-8"?>
<svg id="Layer_2" data-name="Layer 2" xmlns="http://www.w3.org/2000/svg" viewBox="0 0 97.67 111.96">
  <defs>
    <style>
      .cls-1 {
        fill: none;
        stroke: #000;
        stroke-miterlimit: 10;
        stroke-width: .75px;
      }
    </style>
  </defs>
  <g id="Layer_1-2" data-name="Layer 1">
    <g>
      <path class="cls-1" d="m96.87,49.61c-1.69-1.33-3.43-1.85-5.52-1.8,1.88-2.53,3.27-9.5,4.27-11.65-3.06.15-9.39,1.49-12.8,3.12.94-1.08.97-3.44.46-4.78-2.2,2.89-9.14,3.25-12.95,6.52,1-2.6-1.83-3.34-3.39-3.84,1.74,4.12-4.12,8.96-4.49,15.14-.93-1.29-1.77-1.77-3.09-1.8.95,5.65-3.15,7.84-1.43,14.94-2.31,1.61-5.04,5.94-6.76,6.1,2.93-5.64,3.76-11.56,4.36-17.6,3.76-3.52,4.79-10.59,9.34-13.52-.9-.18-2.11,0-3.01-.19.37-3.28,3.25-5.61,5.66-7.58-.93-.74-2.38-1.02-3.44-.98,1.13-4.35-.98-5.34,1.8-11.25-2.05-.03-4.07,1.25-5.27,2.9.21-5.35-.84-7.23,1.86-12.4-2.11-.41-4.74.98-5.29,3.23-.28-3.67-4.25-5.17-3.57-7.51-.7.27-1.66.76-1.96,1.45-.97-2.87-5.35-4.6-7.43-7.36-1.17,2.84-7.33,5.23-5.36,10.03-1.44-.97-3.12-1-4.88-.31,1.58,2.45,1.86,5.6.75,8.88-1.28-1.04-3.34-1.47-4.56-.16,4.01,3.58,2.42,5.03,4.8,10.9-1.54-.41-3.09.24-4.8,1.83,5.98,1.9,4.2,4.9,9.33,11.44-1.13.15-1.63,1.58-1.54,3.05,4.32.31,8.45,3.78,10.77,6.92,5.4,7.36,2.23,14.41-1.28,21.57-.93-4.08-.1-8.34-3.89-9.52,3.05-6.52.55-13.09-3.29-17.12-.45.52-.5.97-.48,1.37-1.76-2.91-5.11-5.15-5.56-7.76-.67,1.33-1.01,2.53.17,4.33-2.61-2.45-6.78-5.77-6.71-9.09-1.22.67-2.09,3.23-2.59,4.66-2.8-4.79-7.89-5.25-6.23-7.53-2.4-.81-3.25.89-3.33,2.9-2.73-2.33-5.05-3.3-6.24-4.28-.6.88-.54,2.11-.22,3.12-2.43-1.61-5.8-.79-8.55-.47,1.04,2.56,1.26,5.55,3.72,6.87-1.46.95-2.51,2-2.62,3.81,2.78.56,3.17,2.73,5.42,3.83-1.48.32-2.7,1.41-3.19,3.16,5.04,1,5.5,4.31,9.26,4.97-1.27.42-2.27,1.72-3.01,2.83,5.46,1.26,6.5,3.21,10.38,4.66-.52.24-.98,1-1.01,1.46,3.73.53,5.9,2.61,9.16,2.9-1.12,1.61-1.14,2.79.71,3.51,2.93-4.58,6.73-2.66,9.12-5.08,6.5.39,7.6,6.68,6.57,12.89-.51,3.02-2.22,5.78-2.71,8.29-.46,2.29.43,4.93.3,7.63-.31,6.91-1.16,13.76,5.46,14.27-2.02-2.16-3.88-5.07-3.76-7.96.14-3.2,3.05-6.34,3.57-10.48.5-3.92.22-7.05,1.78-11.49,2.28-6.49,8.58-11.06,11.44-12.8,2.37,1.03,5.62,1.8,9.6,2.09,1.23.63,1.52,2.41,1.38,3.7.93-1.04,1.55-2.36,1.76-3.75,5.06.58,10.22-5.59,14.28-2.34.21-2.27-1.01-3.45-2.17-4.23,6.19-3.6,4.05-12.59,10.9-14.64Zm-57.68-24.16c-.55-6.1,3.18-12.07,5.1-17.38,13.27,9.03,18.27,30.06,9.67,42.76-10.92-1.67-14.05-17.21-14.77-25.38Zm.91,38.77c-3.17,2.88-6.06,1.48-9.51.26-5.17-1.84-10.25-4.97-13.63-8.88-3.82-4.43-5.63-9.76-5.97-13.76,7.1.92,14.04,2.19,20.12,6.84,5.94,4.54,11.38,9.45,8.99,15.54Zm21.14.24c2.41-15.82,12-25.33,27.64-19.88-.95,13.93-10.77,26.08-27.64,19.88Z"/>
      <path class="cls-1" d="m23.48,47.03c-4.1-1.48-6.28-1.51-9.6-2.07,4.26,9.31,11.51,18.03,22.84,18.35-2.09-1.09-3.81-2.67-5.48-4.36-2.25-2.09-4.54-4.09-6.93-6.02l.12-.18c2.77,1.37,5.36,3.09,7.89,4.85,1.87,1.17,3.58,2.49,4.99,4.13.75-7.08-7.55-12.44-13.83-14.7Z"/>
      <path class="cls-1" d="m63.98,60.33c2.21-1.62,4.62-2.83,7.09-4.11,3.2-1.81,6.21-3.93,9.08-6.3l.15.16c-2.42,2.87-5.25,5.4-8.28,7.6-2.56,2.03-5.38,3.64-8.54,4.4-.07.31-.14.62-.19.93,10.26,1.86,18.79-7.53,22.02-16.22-9.46.47-18.35,4.8-21.33,13.54Z"/>
      <path class="cls-1" d="m45.98,15.91c-5.65,5.77-5.38,23.62,5.46,31.72-.89-2.04-1.34-4.21-1.7-6.45-.64-3.04-1.4-6.05-2.52-8.97l.2-.1c1.72,2.66,2.93,5.63,3.99,8.6,1.08,2.59,1.78,5.23,1.7,8.04.13.09.26.16.4.24,6.46-10.27-1.29-25.68-7.53-33.08Z"/>
    </g>
  </g>
</svg>