<?xml version="1.0" encoding="UTF-8"?>
<svg id="Layer_2" data-name="Layer 2" xmlns="http://www.w3.org/2000/svg" viewBox="0 0 84.61 113.54">
  <defs>
    <style>
      .cls-1 {
        fill: none;
        stroke: #000;
        stroke-miterlimit: 10;
        stroke-width: .75px;
      }
    </style>
  </defs>
  <g id="Layer_1-2" data-name="Layer 1">
    <g>
      <g>
        <path class="cls-1" d="m52.71,72.66c4.14-6.29,9.02-11.82,14.95-16.47,1.98-1.55,3.79-3.33,5.55-5.13,4.77-4.88,3.74-15.02.48-17.95.32,4.26-3.57,8.46-4.25,12.27-.39,2.16-.15,3.82-.45,5.75-.29,1.89-1.95,3.69-3.46,4.9-9.51,7.54-15.68,16.5-20.11,27.07-1.93,4.59-2.32,10.69-1.78,15.4.76-8.83,4.99-19.65,9.07-25.84Z"/>
        <path class="cls-1" d="m55.97,71.2c6.8,1.18,12.31-2.66,18.32-4.06-5.58-5.91-13.82-4.64-18.32,4.06Z"/>
        <path class="cls-1" d="m48.41,58.06c-3.9,3.56-4.86,9.13-4.23,20.58,2.91-5.64,5.64-7.8,6.26-10.59.57-2.55-.09-5.21-2.03-9.99Z"/>
        <path class="cls-1" d="m65.05,74.87c-2.63-.31-5.93-1.67-8.35-1.26-2.67.46-6.83,4.68-5.69,9.12,4.47-4.32,11.18-5.84,14.04-7.86Z"/>
        <path class="cls-1" d="m53.79,63.63c3.45-3.3,5.1-5.67,5.23-8.33.1-2.03-1.25-4.08-2.25-7.13-3.16,2.52-4.42,10.77-2.98,15.46Z"/>
        <path class="cls-1" d="m66.17,60.43c6.07,1.82,9.6-2,13.33-5.52-3.37-3.9-10.03.58-13.33,5.52Z"/>
        <path class="cls-1" d="m66.27,44.7c-3.36,2.67-4.35,6.18-4.96,11.4,4.68-1.11,6.36-4.91,4.96-11.4Z"/>
        <path class="cls-1" d="m45.58,94.59c2.57-2.73,5.11-7.3,8.17-8.67-4.34-2.83-6.93,2.23-7.05,2.62-.43,1.45-1.12,4.28-1.12,6.05Z"/>
      </g>
      <path class="cls-1" d="m81.75,24.48c-9.8-4.22-15.67,8.27-18.59,14.56,0-12.57-20.84-30.04-20.84-39.04,0,9.01-20.84,26.48-20.84,39.04-2.92-6.29-8.79-18.77-18.59-14.56,1.48,9.01-2.57,22.22-2.51,28.79.14,15.69,9.27,21.13,22.41,30.03,7.09,4.81,15.09,21.25,18.35,29.87h2.34c3.26-8.62,11.26-25.06,18.35-29.87,13.14-8.9,22.27-14.34,22.41-30.03.08-6.57-3.97-19.78-2.49-28.79Zm-13.55,52.16c-14.74,7.95-20.01,20.54-25.87,30.93-5.87-10.39-11.13-22.98-25.87-30.93-9.28-5-13.18-12.8-13.14-23.42.03-8.6,3.13-15.42,2.44-26.35,11.79.78,13.99,19.49,16.59,19.49,3.93,0,.74-9.5,6.29-20.08,3.15-6.01,10.35-11.84,13.68-16.93,3.33,5.09,10.53,10.92,13.68,16.93,5.55,10.58,2.36,20.08,6.29,20.08,2.6,0,4.81-18.71,16.59-19.49-.69,10.93,2.41,17.75,2.44,26.35.06,10.63-3.84,18.42-13.12,23.42Z"/>
      <path class="cls-1" d="m42.82,54.69c0-4.35,1.06-10.59,4.78-13.84,5.52-3.9,7.93-8.95,6.51-16.33-8.24,1-7.29,11.8-9.92,18.38-.29.73-.94,1.68-1.41,2.25,0-.76-.12-7.3,0-8.15.31-2.15.98-3.94,1.76-7.68,1.19-5.73,1.69-10.63-2.21-16.28-3.91,5.65-3.4,10.56-2.21,16.28.78,3.74,1.46,5.54,1.76,7.68.12.86,0,7.39,0,8.15-.48-.57-1.12-1.52-1.41-2.25-2.62-6.58-1.67-17.39-9.92-18.38-1.42,7.38.99,12.43,6.51,16.33,3.72,3.25,4.78,9.49,4.78,13.84-2.92-9.13-9.85-14.69-15.24-11.5,3.11,2.42,6,6.65,7.76,8.51,10.72,11.38,6.74,23.88,7.97,33,1.23-9.12-2.75-21.62,7.97-33,1.76-1.87,4.64-6.1,7.76-8.51-5.39-3.19-12.32,2.37-15.24,11.5Z"/>
      <path class="cls-1" d="m31.95,72.66c-4.14-6.29-9.02-11.82-14.95-16.47-1.98-1.55-3.79-3.33-5.55-5.13-4.77-4.88-3.74-15.02-.48-17.95-.32,4.26,3.57,8.46,4.25,12.27.39,2.16.15,3.82.45,5.75.29,1.89,1.95,3.69,3.46,4.9,9.51,7.54,15.68,16.5,20.11,27.07,1.93,4.59,2.32,10.69,1.78,15.4-.76-8.83-4.99-19.65-9.07-25.84Z"/>
      <path class="cls-1" d="m28.69,71.2c-6.8,1.18-12.31-2.66-18.32-4.06,5.57-5.91,13.82-4.64,18.32,4.06Z"/>
      <path class="cls-1" d="m36.25,58.06c3.9,3.56,4.86,9.13,4.23,20.58-2.91-5.64-5.64-7.8-6.26-10.59-.57-2.55.09-5.21,2.03-9.99Z"/>
      <path class="cls-1" d="m19.61,74.87c2.63-.31,5.93-1.67,8.35-1.26,2.67.46,6.83,4.68,5.69,9.12-4.47-4.32-11.18-5.84-14.04-7.86Z"/>
      <path class="cls-1" d="m30.87,63.63c-3.45-3.3-5.1-5.67-5.23-8.33-.1-2.03,1.25-4.08,2.25-7.13,3.16,2.52,4.42,10.77,2.98,15.46Z"/>
      <path class="cls-1" d="m18.49,60.43c-6.07,1.82-9.6-2-13.33-5.52,3.37-3.9,10.03.58,13.33,5.52Z"/>
      <path class="cls-1" d="m18.39,44.7c3.36,2.67,4.35,6.18,4.96,11.4-4.68-1.11-6.36-4.91-4.96-11.4Z"/>
      <path class="cls-1" d="m39.08,94.59c-2.57-2.73-5.11-7.3-8.17-8.67,4.34-2.83,6.93,2.23,7.05,2.62.43,1.45,1.12,4.28,1.12,6.05Z"/>
    </g>
  </g>
</svg>