<?xml version="1.0" encoding="UTF-8"?>
<svg id="Layer_2" data-name="Layer 2" xmlns="http://www.w3.org/2000/svg" viewBox="0 0 52.81 51.1">
  <defs>
    <style>
      .cls-1 {
        fill: none;
        stroke: #000;
        stroke-miterlimit: 10;
        stroke-width: .75px;
      }
    </style>
  </defs>
  <g id="Layer_1-2" data-name="Layer 1">
    <g>
      <g>
        <path class="cls-1" d="m19.27,23.93c-.21,4.75,3.53,8.53,8.44,8.29,3.24-.15,5.79-3.26,5.9-6.95.11-3.86-2.2-7.27-7.09-7.32-3.6-.04-6.74,2.82-7.25,5.98Zm2.19.21c.4-1.92,2.48-3.98,5.04-3.98,1.62.02,2.86.48,3.7,1.35.83.86,1.27,2.18,1.22,3.7-.08,2.57-1.73,4.74-3.7,4.84h-.34c-1.7,0-3.24-.63-4.35-1.78-1.04-1.1-1.6-2.56-1.57-4.13Z"/>
        <path class="cls-1" d="m27.1,27.68c1.03-.05,1.9-1.18,1.94-2.53.02-.79-.2-1.48-.64-1.94s-1.09-.69-1.93-.7c-1.33,0-2.42,1.08-2.63,2.08-.01.82.27,1.59.82,2.16.58.6,1.38.93,2.27.93.06.01.11,0,.17,0Z"/>
      </g>
      <path class="cls-1" d="m6.34,34.83c1.54,2.34,4.76,4.11,7.5,4.11.76,0,1.48-.14,2.12-.38-.16,2,.38,4.06,1.84,5.64,2,2.15,4.9,3.5,7.55,3.5,3.33,0,5.89-2.07,6.85-5.54.1-.33.15-.66.19-1,1.84,2.32,3.95,2.74,5.22,2.74,2.64,0,5.35-1.78,6.89-4.51,1.55-2.76,1.59-6.68.09-9.35-.59-1.04-1.38-1.85-2.33-2.41,1.63-.73,2.79-2.14,3.43-4.18.94-2.99.34-6.45-1.55-9.02-1.37-1.85-3.26-2.93-5.17-2.93-.83,0-1.87.2-2.94.86.15-1.79-.25-3.57-1.19-5.12-1.52-2.51-4.18-4-7.13-4-.7,0-1.42.09-2.13.26-1.73.4-2.98,1.22-3.72,2.42-.89,1.47-.83,3.09-.55,4.59-1.75-2.22-4.1-3.08-6.06-3.08-2.59,0-4.96,1.39-6.16,3.65-1.3,2.44-1.49,6.03,1.1,9.57-1.75.38-3.26,1.57-4.25,3.4-1.74,3.22-1.58,7.76.4,10.78Zm7.74-11.37c2.04,1.18,2.03-.31,1.57-.64-5.78-3.86-6.01-8.26-4.69-10.74,1.92-3.6,7.98-3.8,10.05,2.39.24.7.88,1.24,1.62,1.15.68-.08,1.09-.36,1.3-.79,1.15-2.26-3.38-7.96,2.14-9.26,5.56-1.32,9.68,4.22,7.05,9.3-1.18,2.27.55,3.9,2.03,1.48,4.17-6.78,10.36.56,8.52,6.46-1.03,3.29-3.37,3.55-6.24,3.06-2-.35-1.82,1.29-.98,2.09.56.53,1.57.93,2.72.96,4.61.14,5.25,6.28,3.48,9.41-2.02,3.58-7.14,5.8-9.95-.89-.38-.88-1.53-2.49-2.36-1.49-.88,1.06.31,3.81-.2,5.64-1.6,5.75-7.73,4.45-10.8,1.15-2.13-2.29-1.37-6.3.6-8.26,1.06-1.04-.3-2.32-1.05-1.89-.76.45-1.69,1.63-2.18,2.57-1.63,3.18-6.84,1.19-8.59-1.5-3.09-4.73-.24-13.76,5.96-10.2Z"/>
      <path class="cls-1" d="m19.55,1.21c-1.23-1.61-3.98-.7-4.45,1.09-.49,1.92,2.53,4.78,4.04,4.2,1.23-.46,1.4-3.83.41-5.29Z"/>
      <path class="cls-1" d="m43.36,7.59c.91-1.77-1.05-3.85-2.84-3.51-1.92.37-3.2,4.26-2.05,5.37.93.89,4-.36,4.89-1.86Z"/>
      <path class="cls-1" d="m50.31,30.76c1.99-.13,2.76-2.88,1.54-4.24-1.3-1.46-5.3-.55-5.65,1.01-.29,1.25,2.37,3.24,4.11,3.23Z"/>
      <path class="cls-1" d="m32.64,49.82c1.13,1.64,3.89.88,4.43-.86.58-1.87-2.26-4.83-3.77-4.33-1.23.4-1.56,3.7-.66,5.19Z"/>
      <path class="cls-1" d="m9.36,43c-.82,1.82,1.25,3.79,3.02,3.35,1.9-.47,2.97-4.42,1.77-5.47-.99-.84-3.99.58-4.79,2.12Z"/>
      <path class="cls-1" d="m2.37,16.82c-1.98.23-2.61,3.02-1.32,4.31,1.38,1.39,5.32.27,5.59-1.3.23-1.27-2.53-3.11-4.27-3.01Z"/>
      <path class="cls-1" d="m20.92,41.3c-1.24-1.33-.74-4.03.53-5.28.8-.78,1.15-1.81,1-2.82,1.45.76,3.1,1.16,4.83,1.16.18,0,.36,0,.54-.01.46-.02.9-.08,1.34-.19-.16.13-.3.27-.44.44-1.05,1.28-.85,2.93-.68,4.39.09.71.19,1.59.07,2.03-.6,2.16-1.85,2.41-2.74,2.41-1.48.01-3.26-.85-4.45-2.13Zm13.75-4.69c-.14-.32-1.39-3.1-3.72-3.1h-.04c1.67-.87,3.05-2.35,3.9-4.19.06.07.13.13.2.2.99.92,2.49,1.48,4.11,1.54.82.02,1.37.36,1.77,1.08.77,1.36.73,3.72-.08,5.16-.78,1.38-2.08,2.34-3.18,2.34-1.47,0-2.48-1.89-2.96-3.03Zm-20.82-1.93c-1.34,0-3.18-1.01-3.94-2.18-1.27-1.94-1.11-4.79-.22-6.43.46-.85,1.04-1.29,1.71-1.29.46,0,1.02.18,1.61.53.85.49,1.61.73,2.32.73s1.36-.25,1.84-.69c.18,1.85.85,3.58,1.95,5.04-.45.02-.89.14-1.31.38-1.21.71-2.37,2.23-2.99,3.43-.08.18-.23.48-.97.48h0Zm23.95-10.9c-.33-.06-.62-.08-.88-.08-.44,0-.86.07-1.23.2-.16-1.58-.67-3.04-1.5-4.27.77-.15,1.85-.65,2.77-2.16.67-1.08,1.4-1.7,2.01-1.7.54,0,1.2.45,1.75,1.2.89,1.21,1.52,3.29.92,5.22-.46,1.49-1.09,1.75-2.24,1.75-.44,0-.97-.05-1.6-.16Zm-20.97-2.73c-4.49-3-4.95-6.16-3.99-7.96.46-.86,1.38-1.39,2.4-1.39,1.62,0,3.02,1.29,3.75,3.46.37,1.09,1.17,1.94,2.15,2.34-1.58,1.08-2.83,2.62-3.52,4.4-.19-.33-.46-.62-.79-.85Zm9.72-5.22h-.12c-.21,0-.42.01-.62.02.01-.01.01-.03.02-.04.76-1.5.36-3.16-.03-4.78-.23-.96-.58-2.4-.29-2.87.12-.19.51-.38,1.06-.51.39-.09.78-.14,1.15-.14,1.47,0,2.73.71,3.48,1.94.8,1.32.81,2.94.04,4.44-.48.92-.69,1.88-.62,2.76-1.21-.53-2.57-.81-4.07-.82Z"/>
    </g>
  </g>
</svg>