<?xml version="1.0" encoding="UTF-8"?>
<svg id="Layer_2" data-name="Layer 2" xmlns="http://www.w3.org/2000/svg" viewBox="0 0 110.5 94.8">
  <defs>
    <style>
      .cls-1 {
        stroke-width: .25px;
      }

      .cls-1, .cls-2 {
        fill: none;
        stroke: #000;
        stroke-miterlimit: 10;
      }

      .cls-2 {
        stroke-linecap: round;
        stroke-width: 1.35px;
      }
    </style>
  </defs>
  <g id="Layer_1-2" data-name="Layer 1">
    <g>
      <g>
        <path d="m37.8,62.93c3.24,1.94,7.69.7,10.69,3.11.6.63.78,1.96,0,2.51-1.15.65-2.24.55-3.49.14l.86-.8c.38.8.91,1.5,1.52,2.14s1.34,1.18,2.14,1.6l-.46-.06c2.04-.45,4.08-.96,6.21-1.26s4.32-.28,6.44-.01l-.42.09c7.42-4.43,16.43-3.84,24.68-4.47,13.53-8.12,25.86-18.83,22.62-37.46-.86-6.5-6.24-10.64-10.32-15.28.61-2.16.99-5.14-.47-7.01l-.28-.31c1.73-.59,3.2-1.68,4.23-3.19.31-.51.91-.76,1.47-.8-1.28.14-1.57,1.47-2.33,2.29-.72.91-1.74,1.56-2.77,2.07l.08-.46c1.81,1.97,1.65,4.94,1.23,7.43l-.13-.52c.97.98,2.01,1.9,3.02,2.87,3.03,2.99,5.98,6.33,7.12,10.58.44,1.17.58,2.99.77,4.22,2.34,17.31-10.1,29.29-24.11,36.91-8.17.65-16.85-.01-24.11,4.29l-.2.11c-2.11-.28-4.22-.32-6.32-.02-2.1.29-4.22.83-6.35,1.29-.99-.51-1.91-1.14-2.71-1.94-1.17-1.05-1.75-2.75-2.29-4.19.92.49,1.96,1.17,3.09,1.07.33-.03.64-.06.8-.24.02-.13.05-.25.05-.37-.03-1.15-1.68-1.56-2.64-1.89-2.52-.78-5.4-.91-7.62-2.44h0Z"/>
        <path d="m104.14.92c-2.81-1.82-5.64.79-7.48,2.83l-.37-.43c-4.98-5.16-14.27,1.79-15.99,7.13-.51,2.53,1.4,4.82,2.87,6.73l.86,1.05c1.26,1.32,1.56,3.46-.28,4.46-2.67,1.22-5.45.91-8.22,1.61-7.99,1.34-15.78,3.97-22.61,8.32-5.3,3.47-10.27,7.37-15.31,11.23,10.69-11.39,22.11-18.37,37.68-20.87,2.53-.63,5.37-.45,7.77-1.44,1.66-.96-.23-2.56-.93-3.51-1.48-1.85-2.98-3.87-3.27-6.32-.18-6.77,13.37-16.14,18.22-8.98l-.73-.06c1.96-1.81,5.34-3.92,7.79-1.75h0Z"/>
        <path class="cls-2" d="m80.02,30.01c-.36.9-.41,2.25.31,2.89,1.49,1.32,5.78-2,8.74.76,1.52,1.97-.27,5.05-1.82,6.61-.68.68-1.07,1.53-2.19,1.78-1.87.42-4.32-.82-6.26.46-.52-.86-.37-1.85-.16-2.83-1.55.54-2.87.66-3.79-.29-.61-.63-.71-1.74.36-3.23-1.93.19-2.64.15-3.92-.68s-1.72-3-.43-3.81c-1.08.04-2.14-.74-2.41-1.79s.28-2.25,1.25-2.74c-.99-1.2.88-2.55,2.54-2.84"/>
        <path class="cls-1" d="m78.35,48.38c-1.58.33-3.81.74-4.69-.7-.72-1.16.75-2.71,1.75-3.22-.88.31-1.79.6-2.72.56-.93-.04-1.99-.39-2.44-1.2-.45-.82-.3-2.16.56-2.53-2.36,1.05-5.48-.15-3.44-3.67-1.27.06-2.98.71-3.59-.37-.62-1.1.7-2.99,1.76-3.56-3.24.82-3.69-2.88-.71-3.61-1.85-1.25-.2-3.33.79-4.29-1.29.49-2.58.66-3.8,1.31-1.93,1.03-1.2,2.7.71,2.71-1.46.1-2.88,1.23-2.98,2.69-.11,1.46,1.4,2.5,2.94,2.48-3.12,2.52-1.26,5.26,2.18,4.39-2.72,1.91-.81,4.95,2.68,4.61-1.91,2.26,1.07,3.43,3.58,2.89-1.84,4.4,1.98,4.62,4.95,3.29,1.01-.47,1.91-1.09,2.47-1.78Z"/>
        <path class="cls-1" d="m69.73,53.39c-.88-.04-2.08-.14-2.45-.93-.38-.8-.05-1.98.78-2.66-1.57.51-3.32,1.59-4.7.69-1.36-.89-.13-2.78-.13-2.78-3.61,1.1-5.1-2.07-2.58-4.49-2.72-.2-6.14-1.74-2.89-4.43-3.96.88-4.97-2.46-1.08-4.04-.68.04-1.69,0-1.83-.49-.03-1.79,2.61-4.49,3.8-5.82-2,1.42-5.13,1.63-6.61,3.66-.91,1.7-.81,2.85-.13,4.11-.97,1.23-2.86,3.24-2.03,4.39.69.97,2.3.6,3.48.17-.74.5-1.5,1.01-2.01,1.75-.51.73-.71,1.75-.26,2.52.38.65,1.15,1,1.9,1.05s1.5-.15,2.22-.36c-.89.53-1.84,1.22-1.97,2.25-.13,1.04.74,2.04,1.76,2.27,1.02.23,2.11-.17,2.94-.82-.82.51-.98,1.75-.45,2.56.53.81,1.58,1.17,2.54,1.04.96-.13,1.82-.68,2.49-1.37-1.33,5.78,4.7,3.72,7.21,1.73Z"/>
        <path class="cls-1" d="m57.63,54.06c1.34.46,2.81.6,4.23.76-1.17.73-2.34,1.46-3.5,2.19-.16.1-.32.2-.5.25-.21.06-.43.04-.65.03-.97-.05-1.95.04-2.9.24,1.24-1,2.57-2.06,3.32-3.47Z"/>
        <path class="cls-1" d="m55.26,51.98c.39.52.97.9,1.61,1.04-1.33,1.25-2.66,2.49-3.99,3.74-.11.1-.22.21-.36.27-.16.07-.35.08-.52.09-1.14.05-2.27.22-3.37.51,2.55-1.65,4.69-3.3,6.63-5.65Z"/>
        <path class="cls-1" d="m51.28,47.91c.05,1.19,1.24,2.27,2.34,2.7-2,1.93-4,3.86-5.99,5.8-.19.18-.38.36-.61.47-.24.11-.52.12-.78.14-1.5.08-2.99.15-4.49.23,3.72-2.48,6.97-5.69,9.53-9.34Z"/>
        <path class="cls-1" d="m49.1,44.39c.08.87.7,1.74,1.42,2.24-3.54,3.57-7.29,6.94-11.22,10.08-.16.13-.33.26-.53.33s-.41.07-.62.07c-1.41-.01-2.83-.01-4.24-.02,2.19-1.21,4.4-2.43,6.36-4,1.5-1.2,2.83-2.6,4.16-3.99,1.51-1.58,3.15-3.13,4.67-4.71Z"/>
        <path class="cls-1" d="m48.5,40.53c-.17.56-.15,1.23.24,1.66.1.11.23.24.22.39,0,.13-.1.23-.2.31-5.02,4.78-10.08,9.58-15.88,13.36-.45.3-.92.59-1.44.72-.62.16-1.28.09-1.92.02-1.74-.2-3.49-.4-5.23-.6,4.5-1.86,9.03-3.74,13.03-6.51,2.04-1.42,3.92-3.05,5.8-4.68,1.79-1.56,3.59-3.11,5.38-4.67Z"/>
        <path class="cls-1" d="m49.75,36.09c.03.35.07.7.1,1.05-6.71,7.79-15.75,13.18-24.82,18.03-.98.52-1.97,1.05-2.77,1.82-1.23-1.21-3.72-.64-4.57-2.13,5.81-2.19,10.79-3.61,17.17-7.32,7.47-4.33,9.98-6.86,14.89-11.45Z"/>
        <path d="m91.17,5.51c-.78,1.09-1.14,2.99-2.7,3.15-.43-.05-.74-.44-.73-.87.14-.8.92-1.19,1.61-1.41.36-.06.77-.04,1.05.18-.33-.14-.68-.05-.99.07-.57.16-1.32.56-1.42,1.18.05.8.89.7,1.33.21.73-.75,1.02-1.84,1.85-2.51h0Z"/>
        <path class="cls-1" d="m107.13,28.84c-.69.92-2.62,1.34-3.61.75-.2,1.77-1.72,2.72-3.32,2.89-1.46.15-2.96-.39-4-1.14-.64.83-1.48,1.8-3.71,1.61-1.39-.12-2.62-1.18-3.14-2.48-4.09,2.01-6.81-.14-6.47-3.61-1.15.61-2.86,1.8-4.16,1.84-1.3.05-2.79-.67-3.02-1.95-.5-2.75,3.06-3.51,5.2-3.97-.29,1.86,1.49,2.79,2.89,3.05.17,2.66,3.98,3.84,5.9,2.55.45,1.26,1.73,1.96,3.07,2.05s2.7-.69,3.31-1.88c1.18.72,2.68.89,4,.48,1.32-.42,2.44-1.44,2.98-2.71,2.79,1.71,4.53-.63,3.61-4.67.5.76.94,1.57,1.33,2.45.2,1.46.14,3.4-.86,4.74Z"/>
        <path class="cls-1" d="m105.34,46.92c-.7,1.15-1.54,2.39-2.86,2.68-1.53.34-3.02-.8-3.87-2.12-.45,1.13-1.66,1.91-2.88,1.85-1.22-.07-2.34-.97-2.66-2.15-.43.89-1.63,1.23-2.55.89-.93-.35-1.57-1.23-1.87-2.17-.3-.94-.29-1.95-.27-2.94-2.25,1.17-3.19,4.33-1.95,6.55s4.42,3.06,6.6,1.76c.11,1.21,1.09,2.28,2.29,2.5,1.19.21,2.49-.45,3.01-1.55,1.15.8,2.7.98,4,.46"/>
        <path class="cls-1" d="m100.45,54.6c-1.57,1.4-3.63,2.23-5.73,2.3-.47.02-.97-.01-1.35-.29-.83-.6-.57-1.88-.22-2.85-1.13.83-2.55,1.25-3.94,1.17-.45-.03-.91-.11-1.29-.35-1.05-.66-1.1-2.15-1.02-3.39-.61.51-1.61.3-2.13-.31s-.6-1.49-.41-2.26c.19-.77.61-1.46,1.03-2.14-1.29.55-2.6,1.12-3.63,2.07s-1.72,2.38-1.42,3.75c.3,1.37,1.85,2.44,3.15,1.93-.86.67-.87,2.08-.19,2.94s1.84,1.21,2.93,1.17,2.13-.43,3.16-.8c-.19,1.44,1.15,2.75,2.59,2.93s2.86-.53,3.96-1.47,3.48-3.37,4.51-4.4Z"/>
        <path class="cls-1" d="m91.15,61.96c-1.34.48-2.85.68-4.17.17-1.33-.51-2.39-1.86-2.23-3.28-1.04.7-2.55.84-3.52.05-.97-.8-.89-2.5.14-3.39-1.47-.17-2.4-1.02-2.56-2.32-.16-1.31.34-2.59.86-3.8-1.83.98-3.72,2.2-4.51,4.12-.35.86-.44,1.89,0,2.7.45.82,1.53,1.31,2.37.9-.63.41-1.28.84-1.69,1.47-.86,1.33-.32,3.27.98,4.18,1.29.91,3.1.86,4.5.12.55,1.81,2.78,2.66,4.64,2.3,1.84-.35,3.73-1.99,5.18-3.22Z"/>
        <path class="cls-1" d="m80.35,66.89c-2.89.13-5.76.26-8.6.69-1.35-1.14-1.57-1.96-.71-3.39-1.44.38-2.7-.06-3.22-1.24s0-2.66,1.03-3.42c-1.27.26-2.62-.94-2.53-2.23.09-1.17,1.12-2.05,2.14-2.64,1.45-.84,3.06-1.41,4.72-1.66-.96.59-1.49,1.79-1.27,2.89.21,1.1,1.15,2.02,2.25,2.2-1.08.44-1.8,1.7-1.5,2.83.3,1.12,2.75,1.37,2.75,1.37-.07,1.33.03,2.48,1.82,2.5,1.68.02,3.06,1.25,3.12,2.1Z"/>
        <path class="cls-1" d="m70.54,67.78c-1.75.32-3.48.77-5.19,1.41-.16-.73.15-1.74.32-2.43-1.15.32-2.53.07-3.26-.88s-.43-2.6.7-2.99c-1.24.02-2.4-.92-2.73-2.11-.33-1.2.14-2.55,1.08-3.35.95-.81,2.3-1.06,3.51-.75-.5.83-.59,1.88-.24,2.79.34.9,1.12,1.63,2.04,1.92-1.69,2.94,1.55,5.49,3.77,6.39Z"/>
        <path class="cls-1" d="m64.37,69.59c-.92.39-1.84.84-2.74,1.37-1.31-.16-2.48-.22-3.57-.2-.63-.96-.81-2.21-.46-3.3-3.26.98-4.21-2.5-1.12-4.05-1.01-.25-1.63-1.41-1.43-2.43.22-1.22,1.57-2.21,2.77-2.17-.22,1.35.62,2.85,1.78,3.55-.81.65-1.12,1.86-.73,2.82.4.96,1.48,1.59,2.52,1.47.49,1.23,1.72,2.44,2.98,2.94Z"/>
        <path class="cls-1" d="m56.51,70.84c-1.47.13-2.89.4-4.47.74-.79-1.09-1.8-2.64-.32-4.43-1.04.14-1.94-.96-1.83-2s.99-1.86,1.97-2.2c-.77-.17-1.51-.58-1.98-1.22-.46-.65-.59-1.55-.22-2.25.56-1.04,1.92-1.29,3.1-1.35-.79,1.46-.44,3.44.79,4.54-1.35,1.05-1.38,3.26.28,4.16-.22,1.91,1.29,3.55,2.68,4.01Z"/>
        <path class="cls-1" d="m48.84,64.52c-.55-.66-1.23-1.94-.68-2.88-.91-.63-1.22-1.98-.67-2.94-.54.04-1.08.2-1.5.54-.41.34-.68.9-.59,1.43s.59.99,1.12.96c-.38.69-.31,1.6.18,2.22s1.38.89,2.14.67Z"/>
        <path class="cls-1" d="m43.54,58.67c-1.25,1.03-.2,2.67.96,3.28-1.12.18-2.55.17-3.44-.63-.26-.24-.23-.76-.04-1.04.61-.88,1.56-1.44,2.52-1.61Z"/>
        <path class="cls-1" d="m99.84,14.1c-.02.92-.55,1.62-1.26,2.2-.71.58-1.68.83-2.58.67-.43,1.08-1.39,1.93-2.51,2.24s-2.38.07-3.3-.64c-1.29,1.83-4.48,1.8-6.19.74,1.01,2.07,4.61,3.59,5.95,1.12,1.03.77,2.4,1.04,3.65.74s2.34-1.19,2.89-2.34c.85.03,1.74-.01,2.44-.49,1.21-.83,1.84-2.52.91-4.24Z"/>
        <path d="m47.44,75.99c0-1.53.18-3.14,1.37-4.32l.81,1.08c-1.18.57-1.79,2.01-2.18,3.24h0Z"/>
        <path d="m104.14.92s-.92.95-.93.95c-.55.07-1.11.35-1.38.85-.89,1.48-2.21,2.67-3.8,3.34l.03-.18c.47.45.76,1.04.94,1.64.89,3.59.38,9.01-4.45,8.79l.12-.08c-.38.94-1.21,1.68-2.19,1.95s-2.07.05-2.88-.57l.19-.04c-.23.46-.64.8-1.09.99-1.39.63-2.93-.05-4.16-.67l.15-.03c-.35.38-.84.64-1.36.69-1.71-1.85-3.5-4.14-3.92-6.77-.21-2.72,1.79-4.93,3.59-6.71,3.32-3.44,10.07-6.72,13.76-2.13l-.17-.02c1.9-1.84,5.04-3.97,7.55-2h0Zm0,0c-2.55-1.88-5.55.29-7.38,2.18-.13.12-.08.09-.17-.02-4.82-5.41-12.8.46-15.89,5.09-1.63,2.25-1.12,4.93.39,7.09.69,1.08,1.51,2.08,2.33,3.07l-.11-.04c.46-.04.89-.27,1.2-.61.08-.1.06-.07.15-.03,1.48.82,3.88,1.58,4.92-.21.09-.19.05-.14.19-.04,1.55,1.25,4.07.52,4.71-1.36,1.93.15,3.98-1.04,4.28-3.05.47-2.25.71-5.09-.85-6.96l-.12-.12.15-.06c1.6-.62,2.9-1.75,3.83-3.18.28-.5.93-.8,1.43-.83,0,0,.94-.92.94-.92h0Z"/>
        <path class="cls-1" d="m100.92,23.8c-.21,1.07-1.07,1.98-2.13,2.26s-2.25-.1-2.96-.94c.2,1.03-.44,2.11-1.37,2.61-.92.5-2.05.5-3.06.22-1.18-.33-2.31-1.11-2.69-2.27-1.15.69-2.75.17-3.59-.87-.85-1.04-1.24-2.27-.87-3.46.44,1.06,1.52,1.78,2.76,2.2,1.24.42,2.87-.1,3.23-1.35.71.88,1.78,1.56,2.9,1.49,1.13-.07,2.21-1.11,2.04-2.23.48.98,1.77,1.49,2.79,1.09,1.02-.4,1.62-1.65,1.3-2.7,1.53.44,3.82-.46,2.81-3.58.87.87,1.72,1.74,2.52,2.66.97,2.33-1.05,5.98-3.68,4.87Z"/>
        <path class="cls-1" d="m109.8,34.43c-.67,1.51-3.2,2.93-4.71.97-.36,1.37-1.36,2.62-2.72,3.01s-3.02-.28-3.51-1.61c-.79,2.04-3.37,3.1-5.79,2.48-1.11-.28-1.88-1.32-2.3-2.37-.42-1.06-.52-2.22-.61-3.36,1.2,1.31,2.71,2.48,4.47,2.7,1.77.22,3.77-.79,4.16-2.52.65,1.26,2.33,1.98,3.63,1.43,1.31-.55,2.1-1.82,2.64-3.14,1.39,1.72,4.09-.79,4.37-2.48.26,1.68.38,3.32.37,4.89Z"/>
        <path class="cls-1" d="m109.63,37.63c-.28,2.58-.89,4.99-1.78,7.24-1.1.77-2.81.56-3.63-.52-.61,1.59-2.31,2.63-4.01,2.65-1.7,0-3.34-.9-4.39-2.23-1.58,1.28-4.49,1.36-5.63-.33-1.13-1.68-.92-4.37.63-5.68.35,1.58,1.2,3.07,2.56,3.86,1.02.59,2.37.36,3.33-.32.97-.67,1.61-1.71,2.13-2.77,1.2,4.53,3.57,4.15,5.09.07.41,1.13,2.01,1.2,3.06.62,1.02-.56,2.1-1.59,2.64-2.59Z"/>
        <path d="m69.73,53.39c2.77-2.46,6.38-3.57,9.22-5.93,3.05-2.1,5.16-5.22,8.3-7.18-1.41,3.55-4.62,5.9-7.49,8.26-3.05,2.11-6.22,4.55-10.03,4.85h0Z"/>
        <path class="cls-1" d="m40.34,57.94c0,.45.04,1.05.04,1.51-7.61,6.13-13.66,15.84-17.02,22.87-3.88,1.83-8.45,3.11-12.88,2.57,6.62-6.94,12.43-13.66,18.82-20.08-.69,1.5-1.46,3.6-.9,5.15,3.05-5.66,7.5-8.41,11.94-12.02Z"/>
        <path class="cls-1" d="m26.48,64.8c.32-1.59.69-2.89,1.26-4.35-2.63,1.38-4.83,1.62-7.8,1.66,1.11-1.6,2.27-2.82,3.2-4.53-.02,3.66,3.89,1.1,5.86.75-.04,3.17,5.31.49,7.21.49-3.81,2.37-6.75,3.98-9.73,5.98Z"/>
        <path class="cls-1" d="m19.59,63.35c2.33.62,6.34-.9,6.34-.9,0,0-.68,1.35-.94,2.15-2.52,1.12-3.63,1.93-5.41,2.86,0-1.37.06-3.07.01-4.11Z"/>
        <path class="cls-1" d="m25.98,65.65c-6.84,4.76-11.33,11.92-16.74,18.45-1.13-1.51-2.35-3.04-3.48-4.55,1.94-2.11,4.05-4.38,6.27-6.14,2.23-1.77,4.53-3.3,6.48-5.38-.66,1.76-2.26,3.7-3.15,5.28,3.04-3.1,7.37-6.88,10.62-7.66Z"/>
        <path class="cls-1" d="m18.54,65.21c-3.29,5.32-9.6,7.46-13.59,13.34-2.36-1.55-2.71-4.47-4.72-6.1,7.58-3.74,13.83-9.32,19.84-14.77-.68,4.79-5.02,8.33-8.89,11.34,2.19-.61,4.93-1.93,7.36-3.81Z"/>
      </g>
      <path class="cls-1" d="m52.01,74.06c-1.09-.44-2-.23-2.58.45,0,0,1.6,7.39,1.44,12.38-2.06.49-4.64,1.41-5.05,3.77.85-1.57,4.49.16,4.08-2.6.33-.24.76-.47,1.07-.6,1.15,1.37,2.75,1.4,2.75,1.4,0-1.32.46-1.93,1.54-2.55-.65-.04-1.27-.06-1.7-.49-1.79-1.85-1.23-8.01-1.55-11.76Z"/>
      <path class="cls-1" d="m55.61,86.86c3.65.2,5.15-.06,10.26-.04.79,0,1.57,1.01,1.7,2.02-.45-.49-1.5-1.49-2.06-1.33-1.16.34-1.22,1.54-2.43,1.6-.83.05-1.39-.9-2.36-.94-.97-.05-1.52.69-2.45.49-1.29-.27-1.17-.78-2.66-1.8Z"/>
      <path class="cls-1" d="m56.6,88.85c2.39,2.83,8.8-.05,7.59,5.54-.49-1.13-.67-1.62-1.12-1.73-.79-.2-1.79.67-2.76.44-1.11-.26-1.08-1.52-2.1-2.08-.65-.35-1.5.15-2.16-.33-.87-.63-.57-1.57-1.29-2.61,0,0,1.02-.02,1.84.77Z"/>
      <path class="cls-1" d="m64.43,85.38c-1.13-.77-2.25-.7-3.31-.36-.11,1.02-1.53,1.51-2.39,1.03-1.04.46-1.99.72-2.79.05,3.46-.6,5.19-2.44,6.36-2.47,1.17-.03,1.87,1.05,2.13,1.75Z"/>
      <path class="cls-1" d="m72.49,89.18c-.38.02-1.09.82-1.9.62-.26-.06-.51.1-.67.27-.54.49-.07,1.14-.5,1.7-.66.86-1.94-.14-2.53.76-.26.39-.24,1,.03,1.85-1.23-.44-1.15-1.53-.76-2.45.75-1.78,2.79-1.85,4.89-4.48-3.56-4.29-9.48-6.88-13.42-11.19-.37-.41-.8-1.08-.77-1.64.04-.77.72-.74,1.23-2.63,1.18.04,1.91.13,3.09.17-.11,1.2-.11,2.49.19,3.56.91,3.17,7.1,7.48,11.43,10.87,4.67,1.32,8.87-.23,11.02,1.32.64.46.81.88.94,1.95-.47-.9-1.16-1.16-1.63-1.18-.75-.04-.85.81-2.19.73-1.14-.06-1.55-1.12-1.91-1.12s-.56,1.07-1.65,1.03c-1.06-.04-1.54-.8-2.03-1.22-.46-.39-.92-.58-1.23-.14-.41.58-.22.94.02,1.18,1.39,1.42,5.02,1.07,7.04,2.15.88.47,1.4,1.18.34,2.53.12-.53-.04-.81-.36-.94-.49-.19-.99.02-1.57-.07-.52-.07-.96-.82-1.35-.89-.92-.17-1.03.51-2.03.16-.46-.16-.56-1.17-1-1.36-.57-.24-1.05-.09-1.6-.39-.39-.21-.74-1.17-1.12-1.15Z"/>
      <path class="cls-1" d="m75.18,86.78c1.3-.26,2.6-.56,3.87-.95.87-.26,2.08-.16,2.88.42-.11-.66-1.25-1.54-2.25-1.58-1.63-.05-3,1.48-4.5,2.11Z"/>
    </g>
  </g>
</svg>