<?xml version="1.0" encoding="UTF-8"?>
<svg id="Layer_2" data-name="Layer 2" xmlns="http://www.w3.org/2000/svg" viewBox="0 0 30.88 40.96">
  <defs>
    <style>
      .cls-1 {
        fill: none;
        stroke: #000;
        stroke-miterlimit: 10;
        stroke-width: .75px;
      }
    </style>
  </defs>
  <g id="Layer_1-2" data-name="Layer 1">
    <g>
      <path class="cls-1" d="m.42,24.32s1.39,16.53,14.94,16.26c13.55-.28,15.1-17.42,15.1-17.42-10.49,2.81-20.57,3.56-30.04,1.16Z"/>
      <g>
        <polygon class="cls-1" points="8.13 35.2 11.79 32.14 8.13 35.2 4.85 31.27 8.78 27.99 11.22 30.92 8.78 27.99 11.47 25.75 8.78 27.99 6.64 25.44 8.78 27.99 4.85 31.27 4.37 30.69 4.85 31.27 2.96 32.84 4.85 31.27 8.13 35.2 5.96 37 8.13 35.2 11.41 39.13 10.54 39.86 11.41 39.13 12.42 40.34 11.41 39.13 12.32 38.37 11.41 39.13 8.13 35.2"/>
        <polygon class="cls-1" points="4.25 25.11 1.58 27.34 .73 26.32 1.57 27.34 1.07 27.77 1.57 27.34 4.37 30.69 1.58 27.34 4.25 25.11"/>
        <polygon class="cls-1" points="11.79 32.14 12.05 31.92 13.55 33.71 12.05 31.92 12.3 31.72 12.05 31.92 11.22 30.92 12.05 31.92 11.79 32.14"/>
        <polygon class="cls-1" points="27.13 26.02 29.26 28.58 27.13 26.02 30.45 23.25 27.13 26.02 25.68 24.29 27.13 26.02 23.19 29.31 19.91 25.37 20.04 25.26 19.91 25.37 19.83 25.27 19.91 25.37 15.98 28.65 13.55 25.74 15.98 28.65 12.3 31.72 15.98 28.65 19.26 32.58 15.34 35.86 13.55 33.71 15.34 35.86 12.32 38.37 15.34 35.86 18.61 39.78 18.03 40.27 18.61 39.78 18.85 40.07 18.61 39.78 18.91 39.54 18.61 39.78 15.34 35.86 19.26 32.58 21.79 35.61 19.26 32.58 20.72 31.37 19.26 32.58 15.98 28.65 19.91 25.37 23.19 29.31 20.72 31.37 23.19 29.31 26.46 33.23 22.54 36.51 21.79 35.61 22.54 36.51 18.91 39.54 22.54 36.51 23.51 37.68 22.54 36.51 26.46 33.23 26.91 33.76 26.46 33.23 27.84 32.08 26.46 33.23 23.19 29.31 27.13 26.02"/>
      </g>
      <path class="cls-1" d="m13.55.38C4.55.85,3.05,15.26,2.51,24.79c7.11,1.45,14.57,1.2,22.27-.31C26.19,15.41,22.49-.07,13.55.38Z"/>
    </g>
  </g>
</svg>