<?xml version="1.0" encoding="UTF-8"?>
<svg id="Layer_2" data-name="Layer 2" xmlns="http://www.w3.org/2000/svg" viewBox="0 0 324.17 218.22">
  <defs>
    <style>
      .cls-1 {
        fill: none;
        stroke: #000;
        stroke-miterlimit: 10;
        stroke-width: .75px;
      }
    </style>
  </defs>
  <g id="Layer_1-2" data-name="Layer 1">
    <g>
      <g>
        <path class="cls-1" d="m201.2,110.2c11.94-3.58,18.72-11.87,19.22-25.41.57-15.68-6.42-28.06-16.56-39.34-5.95-6.62-11.41-13.77-13.34-23.2-10.13,11.31-14.79,26.62-13.4,42.33,1.22,10.09,12.83,20.97,15.51,25.41,3.21,5.3,6.74,13.25,8.57,20.21Z"/>
        <path class="cls-1" d="m187.83,67.46c7.28,3.86,12.31,10.03,13.62,17.89-4.4-7.07-5.87-8.71-9.26-9.8-1.18-.38-3.54-.44-4.01.68-.87,2.08.35,3.57,1.52,4.21,1.43.78,2.99,1.39,4.52,2.18,5.61,2.89,8.54,9.09,6.5,14.01-.52-2.43-1.21-4.29-2.04-6-.76-1.58-2.34-4.05-4.24-2.63-1.74,1.3.41,3.95,1.49,5.18,2.12,2.43,3.97,5.62,2.4,8.47,1.15,2.83,2.13,5.74,2.86,8.49,0,.01.01,0,.01,0-.12-5.05,1.39-6.88,7.38-8.34,2.73-.67,4.51-3.01,3.31-4.9-1.47-2.32-4.29-.8-5.65.45-1.57,1.42-3.19,3.47-5.34,4.69,3.04-4.02,3.41-10.62,11.04-13.37,3.66-1.33,7.2-7.43,3.74-9.59-5.86-3.66-8.74,7.03-11.46,12.58.21-1.81.11-4.25.32-5.73,1.13-7.94,13.63-19.82,6.71-22.35-4.72-1.73-7.11,15.05-8.28,19.2-3.32-7.45-4.2-16.72.29-25.44,1.28-2.48,1.45-6.55-1.13-7.29-5.94-1.72-5.6,11.73-5.56,17.73-3.84-4.87-3.65-12.26-3.65-16.17-.01-4.73,1.34-15.37-4.64-15.7-4.16-.24-2.53,8.84-1.5,12.49,1.85,6.62,3.88,13.03,6.84,18.68-1.35-1.4-3.45-3.92-4.85-5.4-2.23-2.61-6.11-6.26-8.14-3.62-2.22,2.87,3.3,7.33,7.2,9.4Z"/>
        <path class="cls-1" d="m233.52,98.46c-3.69,14.6-20.72,16.9-32.14,23.33.76,5.9.69,12.39-2.85,17.64,1.85,5.77-.47,11.4-4.47,15.8,16.81,9.59,40.68,0,46.84-18.39,4.33-12.96.58-28.44-7.38-38.38Z"/>
        <path class="cls-1" d="m199.12,144.79c1.5-.17,3.06-.21,4.01.15,1.75.66,3.12,1.86,4.01,3.66,1.64,3.32,4.87,6.57,7.87,3.47,1.03-1.07.76-2.77-.11-3.79-2.55-3.4-7.01-4.32-11.28-4.91,2.48-.71,5.09-1.45,7.57-2.15.53-.16,1.1-.31,1.62-.16.56.16,1.42.55,1.82.95,4.04,3.92,13.89,7.57,15.2,4.61,1.1-2.49-3.14-5.07-4.6-5.76-2.89-1.41-6-.53-8.96-.9-.49-.04-1.13-.24-1.09-.72.03-.33.38-.52.69-.64,2.29-.87,5.04-1.34,7.21-.2,2.23,1.16,4.32,2.04,6.69,2.18,2.49.14,4.8-1.13,6.71-2.75.93-.78,1.82-1.68,2.21-2.82.38-1.14.08-2.6-.97-3.21-.77-.44-1.76-.34-2.56.04-.81.38-1.47.99-2.15,1.58-1.32,1.14-2.73,2.2-4.34,2.85-1.62.65-3.99.84-5.64.27,6.2-2.96,13.58-9.1,14.65-16.13.55-3.59-.88-10.87-4.53-9.95-3.54.9-1.97,5.87-2.28,8.77-.94,8.55-4.49,10.95-8.81,13.67,2.11-3.27,4.44-6.3,5.22-10.7.49-2.77,0-7.47-3.07-6.91-2.93.55-2.07,5.46-2.14,7.8-.32,9.89-4.76,14.37-11.5,12.85,3.11-2.3,5.31-4.97,5.96-8.33.62-3.24-.67-6.97-3.25-6.88-3.57.13-3.03,4.37-2.95,6.87.19,5.69-1.64,9.75-8.02,12.51,1.51-1.67,3.52-5.06,3.7-7.91.11-1.75-.51-4.48-2.1-4.19-2.5.46-1.37,3.87-1.84,6.81-.36,2.25-1.62,3.97-3.24,5.59.33,1.47.42,2.95.29,4.38Z"/>
        <path class="cls-1" d="m192.89,158.84c-1.4,3.27-4.06,6.34-8.27,7.25-1.93,4.44-4.41,8.24-8.77,10.2,1.46,10.45,22.12,28.95,7.47,36.24,9.88,10.91,29.3,3.45,34.74-8.38,10.12-21.99-6.16-41.51-25.17-45.31Z"/>
        <path class="cls-1" d="m183.1,178.93c.21,2.67,3.68,3.63,5.15.08,1.44-3.51-.36-8.03.23-11.07,6.39,1.87,6.09,8.88,5.73,9.94-.62,1.83-4.56,4.25-5.14,8.46-.73,5.41,4.1,5.63,6.15,1.84,2.69-5,.16-9.91.39-14.9,5.96,3.58,6.78,20.55,3.16,21.81-1.49.51-3.84.15-5.01,1.8-2.05,2.88,1.74,5.02,4.3,3.81,8.01-3.8,5.24-13.07,4.23-18.36,7.6,12.76-.49,16.33-2.18,26.2-.48,2.79,2.8,4.88,5.33,3.21,8.94-5.91,4.17-20.4.08-28.94,4.82,3.92,4.83,10.47,9.26,14.27,2.6,2.23,5.59-.4,4.51-3.51-2.23-6.36-7.61-11.38-14.08-12.92-1.47-2.54-3.13-4.8-4.76-7.14,4.4,2.03,6.66,6.7,11.65,6.82,4.83.11.23-6.5-3.67-7.86-5.85-2.03-7.12-.47-9.71-1.55-1.36-.57-3.1-1.87-6.05-4.79,3.69.21,7.43,4.53,10.81,3.47,2.34-.74,2.6-1.91,1.75-3.03-1.1-1.46-4.17-2.51-6.81-2.89-3.95-.55-6.69.91-9.22.19-.98.82-2.13,1.47-3.46,1.91,2.14,7.03-2.96,9.29-2.64,13.15Z"/>
        <path class="cls-1" d="m244.25,143.49c-3.98,13.77-15.75,20.78-27.42,22.51,9.02,13.79,22.09,19.57,39.9,19.89,23.54.42,30.32-21.85,22.92-32.71-4.6,8.12-18.15,2.05-26.11-4.45-2.52-2.07-5.64-6.13-9.29-5.24Z"/>
        <path class="cls-1" d="m232.04,160.25c6.7,5.69,3.44,16.2,8.2,18.25,2.84,1.22,3.62-2.5,3.3-4.95-.5-3.83-3.7-8.76-5.68-10.74,5.02,1.58,7.59,7.26,9.2,12.23,1.41,4.38,1.93,8.03,4.52,8.01,3.24-.02,3.03-3.83,2.63-5.76-.78-3.76-5.5-7.9-7.92-10.74,7.57,2.23,10.15,7.64,14.03,11.89,2.1,2.3,5.61,5.03,7.83,2.77,1.45-1.47-.08-3.59-1.28-5.11-2.75-3.45-8.34-6.69-12.35-8.37,6.96.35,16.71,7.24,22.91,1.2,2.43-2.36.33-5.57-3-4.84-7.1,1.57-10.57,5.04-17.16,2.12,2.14.27,4.61.2,6.77-.6,4.26-1.58,5.37-6.64,2.46-7.78-2.57-1.02-5.2,2.31-9.04,4.72-2.78,1.74-6.75,2.87-10.99,1.87,4.67-1.36,11.98-2.35,12.39-8.42.13-1.85-1.36-3.66-3.08-3.63-4.32.07-5.48,7.26-9.94,9.16-1.69.71-4.91,1.44-8.14-.78,2.28-.07,7.35-1.99,9.86-4.75,2.14-2.36,1.2-6.43-1.28-5.96-1.87.35-2.07,2.68-3.39,4.67-1.69,2.54-4.94,4.72-8.5,3.82-.76.6-1.54,1.18-2.35,1.72Z"/>
        <path class="cls-1" d="m197.48,27.7c6.76,5.55,11.65,10.65,11.22,14.5,4.81,3.69,8.04,9.66,10.45,16.84,15.28-10.91,15.55-25.56,13.73-35.05-1.96-10.25-14.51-26.22-27.77-23.26,7.52,7.72.4,21.36-7.63,26.97Z"/>
        <path class="cls-1" d="m207.41,37.84c.95,1.58,1.44,3.04,1.29,4.36.6.47,1.18.96,1.74,1.5,1-.68,2.19-.86,2.88-.8,3.16.29,6.26,6.91,10.75,5.2,2.17-.82,2.52-4.09.29-5.55-2.89-1.91-7.9-2.81-10.29-2.4,1.17-3.75,10.2-1.17,14.31-3.32,4.4-2.3,2.75-7.9-1.8-6.45-3.1.99-6.05,5.12-9.98,5.62,1.57-3.22,3.74-4.88,6.25-6.67,2.58-1.84,4.85-4.63,5.4-9.32.5-4.23-4.45-4.58-4.98-.99-.62,4.3-1.54,6.8-4.29,9.25,1.38-6.39,3.35-14.13-.43-20.51-1.12-1.88-4.84-4.4-6.08-2.49-2.14,3.25,1.01,5.08,3.19,9.54,1.63,3.33,3.21,10.24.46,16.32.12-2.96.02-10.36-2.24-13.98-1.14-1.82-3.76-3.93-5.07-1.81-1.57,2.52,2.56,6.21,3.93,9.77,1.81,4.74,1.23,10.46-2.8,14.21,2.02-4.74,1.25-12.15-1.52-15.5-1.68-2.02-4.5-2-4.74.82-.24,2.69,3.1,3.92,4.15,7.37.72,2.4.56,3.97-.42,5.83Z"/>
        <path class="cls-1" d="m221.04,69.19c4.56,8.34,8.94,18.77,3.14,28.79,1.81,2.49,4.32-1.51,6.16-2.1,9.07-2.92,15.01,1.68,24.67-3.78,8.77-4.95,14.3-14.28,16.14-24.24,3.01-16.33-1.96-33.86-14.94-41.82,3.43,14.87-3.06,19.83-15.01,21.92-8.32,1.45-16.08,8.36-20.16,21.23Z"/>
        <path class="cls-1" d="m225.82,80.18c.36,1.24.64,2.48.83,3.74,4.2-.06,7.03,2.32,10.63,5.02,2.53,1.9,5.72-2.08,3.06-4.44-4.99-3.82-7.6-1.25-11.11-2.96,4.68-2.4,9.56-3.43,11.73-2.2,3.51,1.99,4.21,5.5,8.27,6.48,1.76.42,4.62-.56,4.19-2.98-1.07-6.01-7.78-7.6-15.18-6.96,4.07-2.87,7.92-3.56,12.07-3.28,5.7.4,9.47,3.98,12.37,1.96,4.21-2.94-.61-7.68-5.58-7.34-2.6.18-6.48,1.17-9.09,2.07,2.3-2.14,3.87-3.98,7.76-4.37,4.06-.4,8.54-.66,11.27-2.57,2.76-1.92,2.02-6.35-2.07-5.84-3.65.45-6.24,4.29-10.09,5.38,9.28-6.23,11.01-15.1,10.03-20.23-.91-4.71-5.38-5.3-5.59-.68-.25,5.64.76,8.95-1.4,13.65-1.32,2.85-3.78,4.93-5.64,7.46.11-2.22,2.45-7.05,2.13-11.26-.17-2.37-2.18-4.79-4.19-2.45-1.85,2.17.29,5.4.56,9.22.27,3.66-2.56,10.09-10.52,13.6,2.3-1.93,5.32-7.7,4.91-12.33-.2-2.22-1-4.61-3.4-5.31-2.03-.6-2.89,1.48-2.15,3.03,2.41,5.06.9,8.98-.05,11.39-1.03,2.6-3.83,5.4-8.19,8.07,2.21-2.86,4.91-8.44,4.09-12.63-.47-2.39-1.38-3.99-2.69-4.53-1.48-.62-2.96.54-2.93,2.25.06,4.36,1.66,8.82.25,12.87-.79,2.29-2.35,4.41-4.28,6.17Z"/>
        <path class="cls-1" d="m222.24,71.45c1.1,2.16,2.14,4.43,2.96,6.78,1.47-1.34,2.29-3.45,2.56-5.39.72-5.28-5.5-6.65-5.52-1.39Z"/>
        <path class="cls-1" d="m239.47,103.59c8.87,6.14,11.12,32.25,5.71,35.78,5.9,1.58,13.8,1.81,19.47-.41,10.59-4.15,22.74,1.52,26.54,10.64,15.32-13.97,4.5-37.94-12.02-47.45-12.9-7.42-26.58-2.96-39.7,1.44Z"/>
        <path class="cls-1" d="m246.78,117.46c.18.79.35,1.58.49,2.38,1.6.23,3.09,1.47,3.92,2.91,2.19,3.59,2.71,12.3,7.04,11.28,1.48-.35,1.14-3.95.68-5.89-.8-3.39-4.59-8.51-9.07-9.46,2.72-2.13,6.95-1.91,9.95.4,4.25,3.26,6.12,7.66,7.4,12.77.4,1.64,2.48,2.63,4.13,2.22,1.72-.43,2.15-2.73,2-4.48-.56-6.37-9.31-12.5-15.05-13.02,6.79-2.22,14.43,2.19,17.67,8.81,1.29,2.65,1.12,5.89,2.36,8.5,1.19,2.52,4.14,3.49,4.84.54,1.5-6.3-4.34-10.97-8.11-14.7,4.01.99,7.05,4.07,9.75,8.82,1.91,3.37,2.38,7.6,5.26,9.71,2.58,1.89,4.99-.35,4.7-3.22-.76-7.66-10.91-14.01-16.89-16.58,3.16-.69,6.36,2.7,9.36,3.18,1.55.25,3.46-.14,3.74-2.04.53-3.65-4.99-6.36-8.82-5.14-4.36,1.39-8.96,1.9-14.33.46,2.26-1.05,5.03-1.72,7.69-1.72,2.87,0,6.1-2.02,4.92-4.85-.4-.96-2.55-1.29-3.81-1.24-4.75.24-6.65,2.98-10.4,5.5-3.31,2.23-8.88-.16-12.48,2,1.18-1.21,2.68-2.67,4.71-3.35,3.43-1.15,8.29-1.45,8.46-5.83.16-3.57-6.96-1.82-9.69.25-4.76,3.59-6.17,9.18-10.42,11.79Z"/>
        <path class="cls-1" d="m244.46,110.34c.52,1.17.99,2.43,1.4,3.74.68-2.05,1.7-4.07,3.59-5.19,1.53-.92,2.53-3.41,1.04-4.63-2.06-1.69-4.43,1.38-5.25,3.54-.26.73-.54,1.61-.78,2.54Z"/>
        <path class="cls-1" d="m273.83,70.27c.64,9.12-.64,20.4-8.62,24.64,13.53.97,19.85,3.13,26.59,12.62,11.54-1.09,23.13-9.4,27.67-19.33,7.16-15.63,5.48-33.42-5.38-39.29,3.69,19.28-26.66,9.51-40.26,21.36Z"/>
        <path class="cls-1" d="m269.6,91.12c1.82,2.51,3.4,2.78,4.35,1.75,1.25-1.33.19-3.37-2.85-4.14-.44.85-.94,1.65-1.5,2.39Z"/>
        <path class="cls-1" d="m271.9,87c6.09,1.35,9.64,7.8,14.12,11.69,2.28,1.98,5.74-.54,4.55-3.39-1.73-4.18-6.86-6.49-11.16-7.65,15.15.78,14.56,9.81,22.2,11.54,5.05,1.14,5.09-2.49,4.31-3.9-3.49-6.27-12.23-4.91-16.55-7.64,8.42-1.71,17.6,5.98,25.42,1.33,2.33-1.39,3.09-5.79.15-7.11-5.02-2.25-8.18,7.34-19.17,3.52,8.69.08,19.28-7.15,22.45-17.15,1.56-4.91-3.71-9.08-5.93-3.75-3.54,8.54-9.78,20.23-18.75,19.1,4.52-2.84,9.44-6.93,9.71-12.12.24-4.52-4.2-6.16-6.2-2.65-3.98,6.97-4.13,18.12-16.4,16.06,3.85-1.43,8.5-3.39,9.79-8.7.49-2.03-1.77-4.81-3.81-4.33-4.41,1.03-1.64,6.46-5.79,9.58-1.49,1.13-4.14,2.65-8.02,2.72-.26.98-.57,1.93-.92,2.85Z"/>
        <path class="cls-1" d="m273.33,81.9c3.49-.11,6.05-2.77,6.27-6.29.2-3.54-3.47-4.14-3.86-1.4-.05,1.99-.46,3.59-1.94,4.09-.1,1.21-.26,2.42-.47,3.6Z"/>
      </g>
      <g>
        <path class="cls-1" d="m122.97,110.2c-11.94-3.58-18.72-11.87-19.22-25.41-.57-15.68,6.42-28.06,16.56-39.34,5.95-6.62,11.41-13.77,13.34-23.2,10.13,11.31,14.79,26.62,13.4,42.33-1.22,10.09-12.83,20.97-15.51,25.41-3.21,5.3-6.74,13.25-8.57,20.21Z"/>
        <path class="cls-1" d="m136.34,67.46c-7.28,3.86-12.31,10.03-13.62,17.89,4.4-7.07,5.87-8.71,9.26-9.8,1.18-.38,3.54-.44,4.01.68.87,2.08-.35,3.57-1.52,4.21-1.43.78-2.99,1.39-4.52,2.18-5.61,2.89-8.54,9.09-6.5,14.01.52-2.43,1.21-4.29,2.04-6,.76-1.58,2.34-4.05,4.24-2.63,1.74,1.3-.41,3.95-1.49,5.18-2.12,2.43-3.97,5.62-2.4,8.47-1.15,2.83-2.13,5.74-2.86,8.49,0,.01-.01,0-.01,0,.12-5.05-1.39-6.88-7.38-8.34-2.73-.67-4.51-3.01-3.31-4.9,1.47-2.32,4.29-.8,5.65.45,1.57,1.42,3.19,3.47,5.34,4.69-3.04-4.02-3.41-10.62-11.04-13.37-3.66-1.33-7.2-7.43-3.74-9.59,5.86-3.66,8.74,7.03,11.46,12.58-.21-1.81-.11-4.25-.32-5.73-1.13-7.94-13.63-19.82-6.71-22.35,4.72-1.73,7.11,15.05,8.28,19.2,3.32-7.45,4.2-16.72-.29-25.44-1.28-2.48-1.45-6.55,1.13-7.29,5.94-1.72,5.6,11.73,5.56,17.73,3.84-4.87,3.65-12.26,3.65-16.17.01-4.73-1.34-15.37,4.64-15.7,4.16-.24,2.53,8.84,1.5,12.49-1.85,6.62-3.88,13.03-6.84,18.68,1.35-1.4,3.45-3.92,4.85-5.4,2.23-2.61,6.11-6.26,8.14-3.62,2.23,2.87-3.3,7.33-7.2,9.4Z"/>
        <path class="cls-1" d="m90.66,98.46c3.69,14.6,20.72,16.9,32.14,23.33-.76,5.9-.69,12.39,2.85,17.64-1.85,5.77.47,11.4,4.47,15.8-16.81,9.59-40.68,0-46.84-18.39-4.34-12.96-.59-28.44,7.38-38.38Z"/>
        <path class="cls-1" d="m125.06,144.79c-1.5-.17-3.06-.21-4.01.15-1.75.66-3.12,1.86-4.01,3.66-1.64,3.32-4.87,6.57-7.87,3.47-1.04-1.07-.76-2.77.11-3.79,2.55-3.4,7.01-4.32,11.28-4.91-2.48-.71-5.09-1.45-7.57-2.15-.53-.16-1.1-.31-1.62-.16-.56.16-1.42.55-1.82.95-4.04,3.92-13.89,7.57-15.2,4.61-1.1-2.49,3.14-5.07,4.6-5.76,2.89-1.41,6-.53,8.96-.9.49-.04,1.13-.24,1.09-.72-.03-.33-.38-.52-.69-.64-2.29-.87-5.04-1.34-7.21-.2-2.23,1.16-4.32,2.04-6.69,2.18-2.49.14-4.8-1.13-6.71-2.75-.93-.78-1.82-1.68-2.21-2.82-.38-1.14-.08-2.6.97-3.21.77-.44,1.76-.34,2.56.04.81.38,1.47.99,2.15,1.58,1.32,1.14,2.73,2.2,4.34,2.85,1.62.65,3.99.84,5.64.27-6.2-2.96-13.58-9.1-14.65-16.13-.55-3.59.88-10.87,4.53-9.95,3.54.9,1.97,5.87,2.28,8.77.94,8.55,4.49,10.95,8.81,13.67-2.11-3.27-4.44-6.3-5.22-10.7-.49-2.77,0-7.47,3.07-6.91,2.93.55,2.07,5.46,2.14,7.8.32,9.89,4.76,14.37,11.5,12.85-3.11-2.3-5.31-4.97-5.96-8.33-.62-3.24.67-6.97,3.25-6.88,3.57.13,3.03,4.37,2.95,6.87-.19,5.69,1.64,9.75,8.02,12.51-1.51-1.67-3.52-5.06-3.7-7.91-.11-1.75.51-4.48,2.1-4.19,2.5.46,1.37,3.87,1.84,6.81.36,2.25,1.62,3.97,3.24,5.59-.34,1.47-.43,2.95-.29,4.38Z"/>
        <path class="cls-1" d="m131.29,158.84c1.4,3.27,4.06,6.34,8.27,7.25,1.93,4.44,4.41,8.24,8.77,10.2-1.46,10.45-22.12,28.95-7.47,36.24-9.88,10.91-29.3,3.45-34.74-8.38-10.12-21.99,6.16-41.51,25.17-45.31Z"/>
        <path class="cls-1" d="m141.08,178.93c-.21,2.67-3.68,3.63-5.15.08-1.44-3.51.36-8.03-.23-11.07-6.39,1.87-6.09,8.88-5.73,9.94.62,1.83,4.56,4.25,5.14,8.46.73,5.41-4.1,5.63-6.15,1.84-2.69-5-.16-9.91-.39-14.9-5.96,3.58-6.78,20.55-3.16,21.81,1.49.51,3.84.15,5.01,1.8,2.05,2.88-1.74,5.02-4.3,3.81-8.01-3.8-5.24-13.07-4.23-18.36-7.6,12.76.49,16.33,2.18,26.2.48,2.79-2.8,4.88-5.33,3.21-8.94-5.91-4.17-20.4-.08-28.94-4.82,3.92-4.83,10.47-9.26,14.27-2.6,2.23-5.59-.4-4.51-3.51,2.23-6.36,7.61-11.38,14.08-12.92,1.47-2.54,3.13-4.8,4.76-7.14-4.4,2.03-6.66,6.7-11.65,6.82-4.83.11-.23-6.5,3.67-7.86,5.85-2.03,7.12-.47,9.71-1.55,1.36-.57,3.1-1.87,6.05-4.79-3.69.21-7.43,4.53-10.81,3.47-2.34-.74-2.6-1.91-1.75-3.03,1.1-1.46,4.17-2.51,6.81-2.89,3.95-.55,6.69.91,9.22.19.98.82,2.13,1.47,3.46,1.91-2.14,7.03,2.95,9.29,2.64,13.15Z"/>
        <path class="cls-1" d="m79.92,143.49c3.98,13.77,15.75,20.78,27.42,22.51-9.02,13.79-22.09,19.57-39.9,19.89-23.54.42-30.32-21.85-22.92-32.71,4.6,8.12,18.15,2.05,26.11-4.45,2.53-2.07,5.65-6.13,9.29-5.24Z"/>
        <path class="cls-1" d="m92.13,160.25c-6.7,5.69-3.44,16.2-8.2,18.25-2.84,1.22-3.62-2.5-3.3-4.95.5-3.83,3.7-8.76,5.68-10.74-5.02,1.58-7.59,7.26-9.2,12.23-1.41,4.38-1.93,8.03-4.52,8.01-3.24-.02-3.03-3.83-2.63-5.76.78-3.76,5.5-7.9,7.92-10.74-7.57,2.23-10.15,7.64-14.03,11.89-2.1,2.3-5.61,5.03-7.83,2.77-1.45-1.47.08-3.59,1.28-5.11,2.75-3.45,8.34-6.69,12.35-8.37-6.96.35-16.71,7.24-22.91,1.2-2.43-2.36-.33-5.57,3-4.84,7.1,1.57,10.57,5.04,17.16,2.12-2.14.27-4.61.2-6.77-.6-4.26-1.58-5.37-6.64-2.46-7.78,2.57-1.02,5.2,2.31,9.04,4.72,2.78,1.74,6.75,2.87,10.99,1.87-4.67-1.36-11.98-2.35-12.39-8.42-.13-1.85,1.36-3.66,3.08-3.63,4.32.07,5.48,7.26,9.94,9.16,1.69.71,4.91,1.44,8.14-.78-2.28-.07-7.35-1.99-9.86-4.75-2.14-2.36-1.2-6.43,1.28-5.96,1.87.35,2.07,2.68,3.39,4.67,1.69,2.54,4.94,4.72,8.5,3.82.77.6,1.55,1.18,2.35,1.72Z"/>
        <path class="cls-1" d="m126.7,27.7c-6.76,5.55-11.65,10.65-11.22,14.5-4.81,3.69-8.04,9.66-10.45,16.84-15.28-10.91-15.55-25.56-13.73-35.05,1.96-10.25,14.51-26.22,27.77-23.26-7.53,7.72-.4,21.36,7.63,26.97Z"/>
        <path class="cls-1" d="m116.76,37.84c-.95,1.58-1.44,3.04-1.29,4.36-.6.47-1.18.96-1.74,1.5-1-.68-2.19-.86-2.88-.8-3.16.29-6.26,6.91-10.75,5.2-2.17-.82-2.52-4.09-.29-5.55,2.89-1.91,7.9-2.81,10.29-2.4-1.17-3.75-10.2-1.17-14.31-3.32-4.4-2.3-2.75-7.9,1.8-6.45,3.1.99,6.05,5.12,9.98,5.62-1.57-3.22-3.74-4.88-6.25-6.67-2.58-1.84-4.85-4.63-5.4-9.32-.5-4.23,4.45-4.58,4.98-.99.62,4.3,1.54,6.8,4.29,9.25-1.38-6.39-3.35-14.13.43-20.51,1.12-1.88,4.84-4.4,6.08-2.49,2.14,3.25-1.01,5.08-3.19,9.54-1.63,3.33-3.21,10.24-.46,16.32-.12-2.96-.02-10.36,2.24-13.98,1.14-1.82,3.76-3.93,5.07-1.81,1.57,2.52-2.56,6.21-3.93,9.77-1.81,4.74-1.23,10.46,2.8,14.21-2.02-4.74-1.25-12.15,1.52-15.5,1.68-2.02,4.5-2,4.74.82.24,2.69-3.1,3.92-4.15,7.37-.72,2.4-.55,3.97.42,5.83Z"/>
        <path class="cls-1" d="m103.14,69.19c-4.56,8.34-8.94,18.77-3.14,28.79-1.81,2.49-4.32-1.51-6.16-2.1-9.07-2.92-15.01,1.68-24.67-3.78-8.77-4.95-14.3-14.28-16.14-24.24-3.01-16.33,1.96-33.86,14.94-41.82-3.43,14.87,3.06,19.83,15.01,21.92,8.32,1.45,16.07,8.36,20.16,21.23Z"/>
        <path class="cls-1" d="m98.35,80.18c-.36,1.24-.64,2.48-.83,3.74-4.2-.06-7.03,2.32-10.63,5.02-2.53,1.9-5.72-2.08-3.06-4.44,4.99-3.82,7.6-1.25,11.11-2.96-4.68-2.4-9.56-3.43-11.73-2.2-3.51,1.99-4.21,5.5-8.27,6.48-1.76.42-4.62-.56-4.19-2.98,1.07-6.01,7.78-7.6,15.18-6.96-4.07-2.87-7.92-3.56-12.07-3.28-5.7.4-9.47,3.98-12.37,1.96-4.21-2.94.61-7.68,5.58-7.34,2.6.18,6.48,1.17,9.09,2.07-2.3-2.14-3.87-3.98-7.76-4.37-4.06-.4-8.54-.66-11.27-2.57-2.76-1.92-2.02-6.35,2.07-5.84,3.65.45,6.24,4.29,10.09,5.38-9.28-6.23-11.01-15.1-10.03-20.23.91-4.71,5.38-5.3,5.59-.68.25,5.64-.76,8.95,1.4,13.65,1.32,2.85,3.78,4.93,5.64,7.46-.11-2.22-2.45-7.05-2.13-11.26.17-2.37,2.18-4.79,4.19-2.45,1.85,2.17-.29,5.4-.56,9.22-.27,3.66,2.56,10.09,10.52,13.6-2.3-1.93-5.32-7.7-4.91-12.33.2-2.22,1-4.61,3.4-5.31,2.03-.6,2.89,1.48,2.15,3.03-2.41,5.06-.9,8.98.05,11.39,1.03,2.6,3.83,5.4,8.19,8.07-2.21-2.86-4.91-8.44-4.09-12.63.47-2.39,1.38-3.99,2.69-4.53,1.48-.62,2.96.54,2.93,2.25-.06,4.36-1.66,8.82-.25,12.87.8,2.29,2.36,4.41,4.28,6.17Z"/>
        <path class="cls-1" d="m101.93,71.45c-1.1,2.16-2.14,4.43-2.96,6.78-1.47-1.34-2.29-3.45-2.56-5.39-.72-5.28,5.5-6.65,5.52-1.39Z"/>
        <path class="cls-1" d="m84.7,103.59c-8.87,6.14-11.12,32.25-5.71,35.78-5.9,1.58-13.8,1.81-19.47-.41-10.59-4.15-22.74,1.52-26.54,10.64-15.32-13.97-4.5-37.94,12.02-47.45,12.9-7.42,26.59-2.96,39.7,1.44Z"/>
        <path class="cls-1" d="m77.39,117.46c-.18.79-.35,1.58-.49,2.38-1.6.23-3.09,1.47-3.92,2.91-2.19,3.59-2.71,12.3-7.04,11.28-1.48-.35-1.14-3.95-.68-5.89.8-3.39,4.59-8.51,9.07-9.46-2.72-2.13-6.95-1.91-9.95.4-4.25,3.26-6.12,7.66-7.4,12.77-.4,1.64-2.48,2.63-4.13,2.22-1.72-.43-2.15-2.73-2-4.48.56-6.37,9.31-12.5,15.05-13.02-6.79-2.22-14.43,2.19-17.67,8.81-1.29,2.65-1.12,5.89-2.36,8.5-1.19,2.52-4.14,3.49-4.84.54-1.5-6.3,4.34-10.97,8.11-14.7-4.01.99-7.05,4.07-9.75,8.82-1.91,3.37-2.38,7.6-5.26,9.71-2.58,1.89-4.99-.35-4.7-3.22.76-7.66,10.91-14.01,16.89-16.58-3.16-.69-6.36,2.7-9.36,3.18-1.55.25-3.46-.14-3.74-2.04-.53-3.65,4.99-6.36,8.82-5.14,4.36,1.39,8.96,1.9,14.33.46-2.26-1.05-5.03-1.72-7.69-1.72-2.87,0-6.1-2.02-4.92-4.85.4-.96,2.55-1.29,3.81-1.24,4.75.24,6.65,2.98,10.4,5.5,3.31,2.23,8.88-.16,12.48,2-1.18-1.21-2.68-2.67-4.71-3.35-3.43-1.15-8.29-1.45-8.46-5.83-.16-3.57,6.96-1.82,9.69.25,4.76,3.59,6.17,9.18,10.42,11.79Z"/>
        <path class="cls-1" d="m79.71,110.34c-.52,1.17-.99,2.43-1.4,3.74-.68-2.05-1.7-4.07-3.59-5.19-1.53-.92-2.53-3.41-1.04-4.63,2.06-1.69,4.43,1.38,5.25,3.54.27.73.54,1.61.78,2.54Z"/>
        <path class="cls-1" d="m50.34,70.27c-.64,9.12.64,20.4,8.62,24.64-13.53.97-19.85,3.13-26.59,12.62-11.54-1.09-23.13-9.4-27.67-19.33-7.16-15.63-5.48-33.42,5.38-39.29-3.68,19.28,26.66,9.51,40.26,21.36Z"/>
        <path class="cls-1" d="m54.58,91.12c-1.82,2.51-3.4,2.78-4.35,1.75-1.25-1.33-.19-3.37,2.85-4.14.44.85.93,1.65,1.5,2.39Z"/>
        <path class="cls-1" d="m52.28,87c-6.09,1.35-9.64,7.8-14.12,11.69-2.28,1.98-5.74-.54-4.55-3.39,1.73-4.18,6.86-6.49,11.16-7.65-15.15.78-14.56,9.81-22.2,11.54-5.05,1.14-5.09-2.49-4.31-3.9,3.49-6.27,12.23-4.91,16.55-7.64-8.42-1.71-17.6,5.98-25.42,1.33-2.33-1.39-3.09-5.79-.15-7.11,5.02-2.25,8.18,7.34,19.17,3.52-8.69.08-19.28-7.15-22.45-17.15-1.56-4.91,3.71-9.08,5.93-3.75,3.54,8.54,9.78,20.23,18.75,19.1-4.52-2.84-9.44-6.93-9.71-12.12-.24-4.52,4.2-6.16,6.2-2.65,3.98,6.97,4.13,18.12,16.4,16.06-3.85-1.43-8.5-3.39-9.79-8.7-.49-2.03,1.77-4.81,3.81-4.33,4.41,1.03,1.64,6.46,5.79,9.58,1.49,1.13,4.14,2.65,8.02,2.72.25.98.56,1.93.92,2.85Z"/>
        <path class="cls-1" d="m50.84,81.9c-3.49-.11-6.05-2.77-6.27-6.29-.2-3.54,3.47-4.14,3.86-1.4.06,1.99.46,3.59,1.94,4.09.1,1.21.26,2.42.47,3.6Z"/>
      </g>
    </g>
  </g>
</svg>