<?xml version="1.0" encoding="UTF-8"?>
<svg id="Layer_2" data-name="Layer 2" xmlns="http://www.w3.org/2000/svg" viewBox="0 0 68.8 82.33">
  <defs>
    <style>
      .cls-1 {
        fill: none;
        stroke: #000;
        stroke-miterlimit: 10;
        stroke-width: .75px;
      }
    </style>
  </defs>
  <g id="Layer_1-2" data-name="Layer 1">
    <g>
      <path class="cls-1" d="m62.61,18.01c-4.01-2.79-9.23-3.5-14.05-2.69-2.53-7.23-6.42-16.94-17.06-14.58-6.82,1.52-8.44,9.86-9.12,16.02-4.3-3.78-12.66-3.25-16.99,1.9-9.46,11.23,8.96,22.22,2.18,28.99,4.42,1.85,6.49-.06,8.85-1.12.3,5.95,2.61,10.74,8.87,12.7,4.66,1.46,9.86,5.37,9.22,10.98-.26,2.26-3.07,4.62-5.04,5.73-6.38,3.62-15.8,4.56-24.76,2.66-3.09-.66-5.2-.16-3.98,2.1,7.12.93,14.26,1.78,21.39.86,7.12-.92,14.27-3.9,18.73-9.54,2.9-3.65,4.81-8.01,7.77-11.6,4.33-5.25,8.65-6.96,11.13-13.12,1.48,1.67,3.52,2.79,5.73,2.45-1.41-3.6-1.21-7.96.01-11.63.82-2.51,2.24-4.84,2.75-7.44.92-4.79-1.62-9.87-5.63-12.67Zm1.92,7.59c1.48,2.83,1.66,6.35.29,9.29-1.06,2.27-4.03,3.97-4.45,6.45-.21,1.26.23,2.52.66,3.73-2.35-.38-4.83-.95-6.45-2.7-3.46-3.75-.25-9.08-4.07-12.3-1.45-1.21-4.13.46-5.03,2.45-.75,1.64-2.47,4.63-.84,5.37,5.01,2.25,13.4,8.35,7.41,14.6-4.23,4.41-8.82,7.52-12.63,13.1-4.24-5.6-9.76-6.93-13.86-9.22-8.95-5.03-7.1-14.05,1.27-18.01-1.11-1.49-2.14-4.15-3.53-5.37-1.4-1.2-3.53-1.85-5.1-.87-1.55.97-1.91,3.08-1.74,4.89.17,1.83.73,3.66.42,5.45-.36,2.1-1.85,3.29-3.88,3.91,1.18-2.22-.21-4.28-1.49-6.46-1.63-2.75-3.01-5.63-4.19-8.61-1.29-3.22-1.49-6.97.34-9.6,2.14-3.04,7.25-4.34,10.61-2.73,3.81,1.81,5.11,5.04,6.77,8.08,1.5,2.74,2.63,5.07,4.31,7.71,2.38,3.78,5.68,1.19,3.49-2.38-3.33-5.44-7.63-9.97-7.21-16.33.32-5.75,6.66-14.89,11.84-11.4,4.4,2.96,7.22,8.75,8.37,14.38-5.17,4.09-8.4,9.97-8.22,15.18.03,1.06,1.51,3.39,2.4,2.85,2.06-1.1,1.42-6.13,2.38-8.98,1.51-4.52,6.15-8.02,10.66-8.34,4.77-.34,9.26,1.63,11.47,5.86Z"/>
      <path class="cls-1" d="m35.83,7.09c2.98,2,5.44,6,6.74,10.87-3.91,3.55-6.58,7.99-7.53,12.4-.64-1.02-1.3-1.99-1.94-2.94-2.58-3.83-4.81-7.14-4.55-11.19.18-3.07,2.66-7.41,5.12-8.92,1.29-.81,1.85-.43,2.16-.22Zm-18.82,14.53c2.45,1.17,3.5,3.15,4.82,5.65.21.4.42.79.64,1.19.16.29.32.58.47.87-1.93-.83-4.23-.96-6.27.3-2.3,1.44-3.43,4.24-3.1,7.67,0,.11.02.23.04.34-1.31-2.31-2.47-4.74-3.55-7.43-1.07-2.67-1.06-5.28.02-6.82.3-.43.75-.83,1.3-1.17,1.7-1.06,4.13-1.32,5.63-.6Zm36.25,1.05c3.87-.28,7.11,1.32,8.67,4.3,1.09,2.09,1.18,4.64.23,6.67-.26.55-.92,1.26-1.55,1.95-1.23,1.33-2.76,2.98-3.13,5.27,0,.04-.01.07-.02.1-.27-.17-.51-.36-.71-.58-.92-.99-1.02-2.29-1.12-4.32-.12-2.43-.28-5.76-3.22-8.24-1.7-1.44-4.15-1.47-6.4-.08-.14.09-.28.18-.42.28.77-1.56,2.09-2.98,3.72-3.99,1.28-.79,2.65-1.26,3.95-1.36Z"/>
    </g>
  </g>
</svg>