<?xml version="1.0" encoding="UTF-8"?>
<svg id="Layer_2" data-name="Layer 2" xmlns="http://www.w3.org/2000/svg" viewBox="0 0 96.05 144.52">
  <defs>
    <style>
      .cls-1 {
        fill: none;
        stroke: #000;
        stroke-miterlimit: 10;
        stroke-width: .75px;
      }
    </style>
  </defs>
  <g id="Layer_1-2" data-name="Layer 1">
    <g>
      <path class="cls-1" d="m80.26,66.24s-1.63.23-2.38,1.07c-4.71-8.03-5.88-17.27-5.78-27.29-9.01,4.49-11.53,18.98-15.13,24.62-3.27-3.12-8.58-17.67-8.95-24.39-.36,6.72-5.68,21.27-8.95,24.39-3.6-5.65-6.12-20.13-15.13-24.62.1,10.02-1.06,19.26-5.78,27.29-.75-.84-2.38-1.07-2.38-1.07-3.71,9.08-5.38,20.67-4.48,30.84,1.92,21.55,24.73,29.02,29.68,46.69,3.6-3.87,5.42-6.71,7.04-6.71s3.44,2.84,7.04,6.71c4.94-17.67,27.76-25.14,29.68-46.69.9-10.18-.77-21.77-4.48-30.84Zm-9.94-21.14c1.3,18.2,7.19,21.61,7.19,30.19,0,6.94-6.45,13.31-12.95,17.23.62-14.07-4.43-16.75-4.36-26.89.05-7.51,5.94-16.56,10.12-20.53Zm-22.29,6.49c2.21,7.81,4.46,11.13,11.01,20.25,3.55,4.96,4.65,23.59,3.07,25.3-2.41,2.64-3.51,5.04-4.74,8.19-2.55,6.59-1.33,13.3-2.73,13.3s.81-18.43-2.62-27.06c-1.87-4.71-3.99-9.41-3.99-12.9,0,3.5-2.12,8.19-3.99,12.9-3.43,8.63-1.23,27.06-2.62,27.06s-.18-6.71-2.73-13.3c-1.23-3.15-2.32-5.55-4.74-8.19-1.58-1.71-.48-20.35,3.07-25.3,6.55-9.12,8.79-12.45,11.01-20.25Zm-22.29-6.49c4.18,3.97,10.06,13.02,10.12,20.53.07,10.14-4.99,12.83-4.36,26.89-6.5-3.92-12.95-10.29-12.95-17.23,0-8.58,5.88-11.99,7.19-30.19Zm50.56,66.12c-8.45,11.33-19.72,17.14-22.1,27.07-1.09-1.33-4.69-4.65-6.17-4.65s-5.09,3.32-6.17,4.65c-2.38-9.93-13.65-15.74-22.1-27.07-8.15-10.91-6.24-22.99-3.79-35.99,1.57,9.09,6.24,14.82,12.27,19.68,7.25,5.83,8.55,14.02,9.61,22.73.42,3.46,2.28,4.89,6.37,4.43-.19-8.88-.49-16.77.55-24.85.48-3.76,2.95-8.26,3.27-11.54.32,3.29,2.78,7.78,3.27,11.54,1.04,8.08.73,15.97.55,24.85,4.09.46,5.95-.96,6.37-4.43,1.06-8.7,2.37-16.89,9.61-22.73,6.03-4.86,10.7-10.59,12.27-19.68,2.43,13,4.34,25.08-3.81,35.99Z"/>
      <path class="cls-1" d="m95.37,70.72c-1.4-1.45-3.31-3.17-5.67-2.36-3,1.03-3.98,5.62-4.12,8.7-.15,3.25,1.68,5.6,2.94,9.39,4.56-7.1,2.09-14.1,6.85-15.73Z"/>
      <path class="cls-1" d="m82.63,68.1c1.6-1.77,2.33-4.23,2.71-7.14.36-2.79-.14-5.23,1.82-5.95-.07-3.01-3.88-3.78-5.14-1.59s-2.12,4.33-2.37,6.37c-.34,2.82,2.38,4.96,2.98,8.31Z"/>
      <path class="cls-1" d="m88.93,103.61c1.03-1.26.73-8.09,4.56-11.57-3.36-2.03-6.11-1.82-7.5,1.96.84,3.08.42,6.73-.56,9.94.6.17,2.47.93,3.5-.33Z"/>
      <path class="cls-1" d="m59.96,25.38c-.42-6.9-.28-11.34,3.17-11.9-2.39-2.27-6.62-1.45-7.64,2.15-1.19,4.21-.34,7.46,4.47,9.75Z"/>
      <path class="cls-1" d="m60.27,142.76c-1.41-5.58,1.59-8.79,3.75-9.84,3.45-1.68,6.32.89,7.46,3.69-4.69-.36-9.28-.22-11.21,6.15Z"/>
      <path class="cls-1" d="m69.01,130.2c4.57-.2,5.03-5.76,13.32-5.52-1.26-1.71-2.59-4.13-5.09-3.72-3.58.58-5.06,5.08-7.86,7.51-.39.34-.37,1.73-.37,1.73Z"/>
      <path class="cls-1" d="m79.81,118.42c4.9-2.03,5.39-7.49,9.34-7.21.56-4.02-2.87-4.23-4.93-3.22-1.27.62-2.55,3.01-4.41,5.67,0,1.26,0,3.85,0,4.76Z"/>
      <path class="cls-1" d="m70.57,37.66c-1.7-3.06-2.59-6.88-1.28-11.17-3.51-1.18-5.04.76-5.18,4.71-.09,2.55,2.12,6.18,6.46,6.46Z"/>
      <path class="cls-1" d="m49.26,5.92c-.1,2.27.63,4.75,3.19,7.22-.14-4.93,1.03-9.37,2.69-12.77h0c-3.12,0-5.74,2.43-5.88,5.55Z"/>
      <path class="cls-1" d="m80.58,42.07c-3.45-1.68-5.92-.33-6.52,2.63-.71,3.53-.25,6.28,3.23,8.22-.12-3.43.91-8.84,3.29-10.85Z"/>
      <path class="cls-1" d="m65.62,90.26c2.12-1.86,5.37-3.94,6.25-5.4,1.19-1.96-.51-3.99-1.92-4.76-1.87-1.02-4.48-1.85-4.48,1.12,0,2.52.15,5.84.15,9.04Z"/>
      <path class="cls-1" d="m56.68,61.96c1.27-2.51,3.13-5.66,3.41-7.34.37-2.26-1.97-3.51-3.56-3.7-2.11-.25-4.85-.05-3.74,2.71.94,2.34,2.7,5.36,3.89,8.33Z"/>
      <path class="cls-1" d="m56.41,102.72s5.06-6.2,4.2-11.1c-1.04-5.93-7.42-8.91-7.75-3.73,1.22,3.59,3.37,5.13,3.55,14.83Z"/>
      <path class="cls-1" d="m60.94,72.14c.8,3.35,2.07,6.17,2.88,10.08.18-1.62,1.03-6.63,5-6.74,3.86-.12,5.55,5.55,6.02,7.71,1.64-2.46,2.66-5.13,2.66-7.89,0-1.04-.09-2.01-.24-2.93-6.2-6.7-11.28-6.25-16.32-.23Z"/>
      <path class="cls-1" d="m60.21,65.12c4.66-4.26,9.59-3.82,15.39,1.71-1.15-2.96-2.62-6.27-3.76-11.17-2.38-4.22-4.92-4.32-8.22-1.46-1.87,3.5-3.27,7.37-3.41,10.92Z"/>
      <path class="cls-1" d="m48.02,78.67c0,1.5.38,3.22.99,5.08,4.07-4.54,9.69-2.01,13.61,3.57-.21-2.94-.61-6.11-1.21-8.88-4.75-6.75-12.26-6.37-13.39.23Z"/>
      <path class="cls-1" d="m48.02,40.26c.09,1.72.5,3.95,1.13,6.37,4-2.5,10.33-2.3,14.41,3.08.69-1.36,1.45-2.68,2.29-3.9-2.83-5.47-10.25-8.74-17.83-5.55Z"/>
      <path class="cls-1" d="m48.02,64.76c2.43,0,6.22,1.98,8.92,4.18-4.98-7.03-6.96-10.42-8.92-17.33"/>
      <path class="cls-1" d="m48.02,13.88c-1.53,11.04-9.27,21.49-18.23,29.46-.65-1.09-1.58-1.97-2.31-2.43,6.99-7.51,19-19.39,20.54-32.86h0c1.54,13.48,13.55,25.35,20.54,32.86-.73.45-1.65,1.33-2.31,2.43-8.95-7.98-16.69-18.43-18.23-29.46h0Z"/>
      <path class="cls-1" d="m.68,70.72c1.4-1.45,3.31-3.17,5.67-2.36,3,1.03,3.98,5.62,4.12,8.7.15,3.25-1.68,5.6-2.94,9.39-4.56-7.1-2.09-14.1-6.85-15.73Z"/>
      <path class="cls-1" d="m13.42,68.1c-1.6-1.77-2.33-4.23-2.71-7.14-.36-2.79.14-5.23-1.82-5.95.07-3.01,3.88-3.78,5.14-1.59s2.12,4.33,2.37,6.37c.34,2.82-2.38,4.96-2.98,8.31Z"/>
      <path class="cls-1" d="m7.12,103.61c-1.03-1.26-.73-8.09-4.56-11.57,3.36-2.03,6.11-1.82,7.5,1.96-.84,3.08-.42,6.73.56,9.94-.6.17-2.47.93-3.5-.33Z"/>
      <path class="cls-1" d="m36.09,25.38c.42-6.9.28-11.34-3.17-11.9,2.39-2.27,6.62-1.45,7.64,2.15,1.19,4.21.34,7.46-4.47,9.75Z"/>
      <path class="cls-1" d="m35.78,142.76c1.41-5.58-1.59-8.79-3.75-9.84-3.45-1.68-6.32.89-7.46,3.69,4.69-.36,9.28-.22,11.21,6.15Z"/>
      <path class="cls-1" d="m27.04,130.2c-4.57-.2-5.03-5.76-13.32-5.52,1.26-1.71,2.59-4.13,5.09-3.72,3.58.58,5.06,5.08,7.86,7.51.39.34.37,1.73.37,1.73Z"/>
      <path class="cls-1" d="m16.24,118.42c-4.9-2.03-5.39-7.49-9.34-7.21-.56-4.02,2.87-4.23,4.93-3.22,1.27.62,2.55,3.01,4.41,5.67v4.76Z"/>
      <path class="cls-1" d="m25.48,37.66c1.7-3.06,2.59-6.88,1.28-11.17,3.51-1.18,5.04.76,5.18,4.71.09,2.55-2.12,6.18-6.46,6.46Z"/>
      <path class="cls-1" d="m46.79,5.92c.1,2.27-.63,4.75-3.19,7.22.14-4.93-1.03-9.37-2.69-12.77h0c3.12,0,5.74,2.43,5.88,5.55Z"/>
      <path class="cls-1" d="m15.47,42.07c3.45-1.68,5.92-.33,6.52,2.63.71,3.53.25,6.28-3.23,8.22.12-3.43-.91-8.84-3.29-10.85Z"/>
      <path class="cls-1" d="m30.43,90.26c-2.12-1.86-5.37-3.94-6.25-5.4-1.19-1.96.51-3.99,1.92-4.76,1.87-1.02,4.48-1.85,4.48,1.12,0,2.52-.15,5.84-.15,9.04Z"/>
      <path class="cls-1" d="m39.37,61.96c-1.27-2.51-3.13-5.66-3.41-7.34-.37-2.26,1.97-3.51,3.56-3.7,2.11-.25,4.85-.05,3.74,2.71-.94,2.34-2.7,5.36-3.89,8.33Z"/>
      <path class="cls-1" d="m39.64,102.72s-5.06-6.2-4.2-11.1c1.04-5.93,7.42-8.91,7.75-3.73-1.22,3.59-3.37,5.13-3.55,14.83Z"/>
      <path class="cls-1" d="m35.11,72.14c-.8,3.35-2.07,6.17-2.88,10.08-.18-1.62-1.03-6.63-5-6.74-3.86-.12-5.55,5.55-6.02,7.71-1.64-2.46-2.66-5.13-2.66-7.89,0-1.04.09-2.01.24-2.93,6.2-6.7,11.28-6.25,16.32-.23Z"/>
      <path class="cls-1" d="m35.84,65.12c-4.66-4.26-9.59-3.82-15.39,1.71,1.15-2.96,2.62-6.27,3.76-11.17,2.38-4.22,4.92-4.32,8.22-1.46,1.87,3.5,3.27,7.37,3.41,10.92Z"/>
      <path class="cls-1" d="m48.02,78.67c0,1.5-.38,3.22-.99,5.08-4.07-4.54-9.69-2.01-13.61,3.57.21-2.94.61-6.11,1.21-8.88,4.76-6.75,12.27-6.37,13.39.23Z"/>
      <path class="cls-1" d="m48.02,40.26c-.09,1.72-.5,3.95-1.13,6.37-4-2.5-10.33-2.3-14.41,3.08-.69-1.36-1.45-2.68-2.29-3.9,2.84-5.47,10.26-8.74,17.83-5.55Z"/>
      <path class="cls-1" d="m48.02,64.76c-2.43,0-6.22,1.98-8.92,4.18,4.98-7.03,6.96-10.42,8.92-17.33"/>
      <path class="cls-1" d="m48.02,13.88c-1.01,7.24-4.68,14.22-9.63,20.42,3.06-1.72,7.62-3.07,9.63-3.07s6.57,1.35,9.63,3.07c-4.94-6.2-8.62-13.19-9.63-20.42"/>
    </g>
  </g>
</svg>