<?xml version="1.0" encoding="UTF-8"?>
<svg id="Layer_2" data-name="Layer 2" xmlns="http://www.w3.org/2000/svg" viewBox="0 0 45.89 78.95">
  <defs>
    <style>
      .cls-1 {
        fill: none;
        stroke: #000;
        stroke-miterlimit: 10;
        stroke-width: .75px;
      }
    </style>
  </defs>
  <g id="Layer_1-2" data-name="Layer 1">
    <g>
      <path class="cls-1" d="m45.15,8.5c-2.6-2.86-6.97-3.4-9.5-.92-4.02-1.79-5.6-.89-8.72,1.08,4.69,2.33,6.73,11.6,5.85,18.25-.94,7.05-3.66,12.67-8.16,16.85,3.01-6.26,2.86-11.84-.02-19.41-3.51-9.22-.81-15.61,3.51-20.26-3.45-1.31-5.73-.65-7.74,1.36,1.36-7.48-5.11-6.04-4.87.1-1.51-.87-4.35-1.07-5.89-.26,10.93,8.5,5.25,16.48,2.99,25.05-1.5,5.71-.42,11.17,3.62,16.08-11.24-3.24-13.01-17.53-7.89-26.76,1.3-2.31,3.23-4.59,5.44-4.96-.92-.96-3.42-2.12-5.35-1.4-.62-5.03-4.32-6.02-7.63-5.82,3.79,4.26,2.88,11.21,1.49,16.17-3.58,12.71-.34,23.5,9.57,26.91-3.95,6.48-1.23,14.64,5.2,17.58.86,7.6,9.45,13.03,16.94,9.15-.65-.44-1.25-1.02-1.71-1.73-.64-1-.97-2.12-.94-3.22-2.92-.02-7.11-.66-7.69-3.76,6.65-5.49,8.29-11.63,5.65-18.92,5.19-4.77,9.32-9.83,9.46-18.18.14-8.39-6.2-20.86,6.39-22.98Z"/>
      <g>
        <path class="cls-1" d="m32.47,18.53c-.24-1.4-.6-2.75-1.07-3.99-1.41-.49-2.91-.68-4.4-.53-1.39.13-2.8.54-3.99,1.28-.08,1.28-.02,2.65.22,4.09,1.68-3.06,6.62-2.84,9.24-.85Z"/>
        <path class="cls-1" d="m24.07,22.87c.15.49.32.99.52,1.49,2.88,7.56,3.04,13.15.02,19.41,4.5-4.19,7.23-9.8,8.16-16.85.13-.98.2-2,.19-3.07-2.35-1.78-6.26-2.35-8.89-.98Z"/>
      </g>
      <g>
        <path class="cls-1" d="m12.6,30.35c.68-2.56,1.66-5.07,2.4-7.57-2.5-2.07-6.1-1.24-8.42,1.08-2.68,8.87,0,19.79,9.64,22.56-4.04-4.9-5.12-10.36-3.62-16.07Z"/>
        <path class="cls-1" d="m15.49,21.01c.28-1.13.49-2.24.56-3.38-1.56-.88-3.41-1.31-5.23-1.25-1.13,1.07-2.11,2.49-2.8,3.92,2.06-1.33,5.5-1.03,7.47.71Z"/>
      </g>
    </g>
  </g>
</svg>