<?xml version="1.0" encoding="UTF-8"?>
<svg id="Layer_2" data-name="Layer 2" xmlns="http://www.w3.org/2000/svg" viewBox="0 0 217.26 382.08">
  <defs>
    <style>
      .cls-1 {
        fill: none;
        stroke: #000;
        stroke-miterlimit: 10;
        stroke-width: .75px;
      }
    </style>
  </defs>
  <g id="Layer_1-2" data-name="Layer 1">
    <g>
      <path class="cls-1" d="m129.87,142.11h-5.27c.22-5.47,1.25-11.55,3.67-16.48,6.05-12.31,7.18-17.22,6.49-26.48,6.75,21.15-6.17,23.73-4.89,42.96Z"/>
      <path class="cls-1" d="m135.55,82.61c-3.26,6.75-6.18,13.1-7.09,20.05-.72,5.47-.65,7.13-3.31,12.07-4.28,7.97-3.62,18.43-5.02,27.39h-.04c-1.84-13-.42-29.73,3.05-40.3,2.5-7.61,8.11-15.26,12.41-19.21Z"/>
      <path class="cls-1" d="m143.36,36.91c-1.82,14.78-9.78,30.47-15.97,41.28-10.89,19.03-14.12,41.98-13.31,63.93h-1.2c-.66-19.3-1.2-39.54,5.17-57.74,4.18-11.94,8.17-18.17,13.04-32.8,5.04-15.16,7.84-33.62,2.75-49.86,9.42,8.61,11.27,20.97,9.52,35.19Z"/>
      <path class="cls-1" d="m124.55,34.54c.13,4.88-.13,11.04-.13,11.04-.36,5.59-1.29,11.41-3.37,17.51-3.92,11.5-6.59,25.11-8.76,37.57-.31-6.95,1.99-21.84,2.94-33.05.92-10.78,1.68-21.63,2.4-32.21.1-1.83.71-10.73.91-13.54.52-7.66,4.02-14.17,8.61-19.79-4.02,10.33-2.9,20.96-2.6,32.47Z"/>
      <path class="cls-1" d="m92.72,34.54c-.13,4.88.13,11.04.13,11.04.36,5.59,1.29,11.41,3.37,17.51,3.92,11.5,6.59,25.11,8.76,37.57.31-6.95-1.99-21.84-2.94-33.05-.92-10.78-1.68-21.63-2.4-32.21-.1-1.83-.71-10.73-.91-13.54-.52-7.66-4.02-14.17-8.61-19.79,4.02,10.33,2.9,20.96,2.6,32.47Z"/>
      <path class="cls-1" d="m87.4,142.11h5.27c-.22-5.47-1.25-11.55-3.67-16.48-6.05-12.31-7.18-17.22-6.49-26.48-6.75,21.15,6.17,23.73,4.89,42.96Z"/>
      <path class="cls-1" d="m81.72,82.61c3.26,6.75,6.18,13.1,7.09,20.05.72,5.47.65,7.13,3.31,12.07,4.28,7.97,3.62,18.43,5.02,27.39h.04c1.84-13,.42-29.73-3.05-40.3-2.5-7.61-8.11-15.26-12.41-19.21Z"/>
      <path class="cls-1" d="m73.92,36.91c1.82,14.78,9.78,30.47,15.97,41.28,10.89,19.03,14.12,41.98,13.31,63.93h1.2c.66-19.3,1.2-39.54-5.17-57.74-4.18-11.94-8.17-18.17-13.04-32.8-5.04-15.16-7.84-33.62-2.75-49.86-9.43,8.61-11.28,20.97-9.52,35.19Z"/>
      <path class="cls-1" d="m110.16,142.13c-1.08-16.01-1.94-32.11.06-48.02.97-7.69,2.61-15.31,2.97-23.05.67-14.69-2.71-30.32-4.56-43.95-1.85,13.63-5.23,29.26-4.56,43.95.36,7.74,1.99,15.36,2.97,23.05,2.01,15.91,1.15,32.01.06,48.02h3.06Z"/>
      <path class="cls-1" d="m108.64,381.49s-57.34-.1-71.44.15c12.54-3.11,19.74-9.8,26.62-12.26,2.07-.74,8.18-1.69,10.61-3.21,2.75-1.73,5.03-4.4,7.56-7.5,3.72-4.55,11.37-4.69,13.24-10.26,4.48-13.31,1.04-26.94-15.77-24.08-22.41,3.81-31.21,3.65-45.52-.58-48.55-14.37-37.45-76.29-10.5-94.57,12.92-8.76,26.04-2.64,46.99-15.58,13.32-8.23,19.98-37.99,5.45-51.38-6.54-6.03-11.36-11.63-11.86-20.09,3.77-.05,44.61,0,44.61,0,0,0,40.83-.05,44.61,0-.5,8.45-5.32,14.06-11.86,20.09-14.53,13.39-7.87,43.15,5.45,51.38,20.96,12.94,34.08,6.82,46.99,15.58,26.95,18.28,38.05,80.21-10.5,94.57-14.31,4.24-23.11,4.39-45.52.58-16.81-2.86-20.25,10.77-15.77,24.08,1.87,5.57,9.52,5.7,13.24,10.26,2.53,3.1,4.81,5.77,7.56,7.5,2.43,1.53,8.54,2.47,10.61,3.21,6.88,2.47,14.09,9.15,26.62,12.26-14.08-.26-71.42-.15-71.42-.15Z"/>
      <path class="cls-1" d="m133.67,217.25c.17-1.92,1.9-2.07,3.65-1.66-1.92-2.46-4.13-3.18-5.31-2.82-1.2.36-1.29,2.05,1.66,4.48Z"/>
      <path class="cls-1" d="m121.06,216.94c.66-2.36,2.51-2.92,4.85-1.75-1.9-3.1-6.57-4.97-8.81-2.76-.46.46-.59,1.19-.24,1.74.6.96,2.25,1.52,4.2,2.77Z"/>
      <path class="cls-1" d="m83.6,217.25c-.17-1.92-1.9-2.07-3.65-1.66,1.92-2.46,4.13-3.18,5.31-2.82,1.2.36,1.3,2.05-1.66,4.48Z"/>
      <path class="cls-1" d="m96.21,216.94c-.66-2.36-2.51-2.92-4.85-1.75,1.91-3.1,6.57-4.97,8.81-2.76.46.46.59,1.19.24,1.74-.6.96-2.25,1.52-4.2,2.77Z"/>
      <path class="cls-1" d="m108.64,214.54c-1.02.04-1.33,1.59-2.17,1.46-2.12-.35.01-5.52,2.17-5.52s4.29,5.18,2.17,5.52c-.84.13-1.16-1.43-2.17-1.46Z"/>
      <g>
        <path class="cls-1" d="m150.59,321.15c15.27-.98,19.15-5,27.13-4.28,5.12.46,3,6.43-1.52,8.72"/>
        <path class="cls-1" d="m172.47,317.12c8.21-2.13,15.14-7.03,22.44-11.34,2.1-1.24,6.32-2.32,7.42-.16,2.81,5.51-6.9,12.31-12.08,15.69"/>
        <path class="cls-1" d="m187.01,310.76c8.25-7.77,13.89-18.24,19.71-29.49.56-1.09,1.5-2.32,2.73-2.34,8.33-.11,3.09,20.93.28,25.73"/>
        <path class="cls-1" d="m204.8,267.66c-1.36-5.71-3.44-13.05-7.08-19.47-2.6-4.6-9.4-12.04-7.2-15.38,2.3-3.51,11.29,3.51,13.5,6.23"/>
        <path class="cls-1" d="m193.83,242.15c-3.1-3.6-7.2-6.59-11.28-9.35-3.38-2.29-9.58-4.62-9.54-6.62.05-2.48,8.85-1.77,14.72-.16"/>
        <path class="cls-1" d="m147.15,213.8c-1.25-.21-1.84.71-1.78,1.65.15,2.54,6.92,6.06,10.79,7.8,6.99,3.14,13.43,5.05,20.41,6.2"/>
        <path class="cls-1" d="m145.91,216.64c-11.7-2.77-16.77-18.06-12.39-28.07"/>
        <path class="cls-1" d="m145.91,216.64c-3.21-.8-4.79.67-3.53,2.69"/>
        <path class="cls-1" d="m141.31,313.4h0c4.5-4.19,11.17-8.63,14.41-10.64,3.34-2.06,11.34-7.25,13.82-3.1,2.02,3.39-1.82,6.78-4.52,8.65-4.54,3.13-12.1,6.39-17.75,7.04"/>
        <path class="cls-1" d="m151.05,305.83c7.11-5.63,14.7-15.58,21.13-21.47,1.84-1.69,4.5-5.79,6.77-5.79,6.95-.01,4.88,13.37,1.64,17.85-3.82,5.3-10.32,10.62-16.57,12.55"/>
        <path class="cls-1" d="m165.63,291.1c10.52-15.19,5.15-33.47,11.61-35.34,3.94-1.14,6.42,2.52,7.59,5.7,2.68,8.44,3.12,23.34-2.85,32.33"/>
        <path class="cls-1" d="m173.35,264.89c-1.21-7.57-3.53-13-6.84-18.83-1.28-2.25-2.59-6.2-1.24-7.8,1.56-1.85,6.69.36,8.87,2.19,6.57,5.51,10.95,15.39,11.36,23.62"/>
        <path class="cls-1" d="m167.65,248.14c-2.4-3.12-7.04-8.09-9.33-9.72-2.78-1.98-8.44-7.72-6.85-9.93,1.49-2.08,4.83-1.62,7.04-.71,6.42,2.37,12.9,7.82,17.61,14.54"/>
        <path class="cls-1" d="m154.69,235.21c-3.39-2.5-8.03-5.71-11.49-8.11-2.9-2.02-10.13-7.24-7.91-9.96,1.06-1.3,5.19,1.03,7.09,2.19,6.73,4.1,9.13,4.62,16.18,8.48"/>
        <path class="cls-1" d="m135.45,220.05c-1.78-2.26-7.75-4.77-5.79.45"/>
        <path class="cls-1" d="m127.13,308.8c3.12-5.12,10.48-22.35,16.71-17.53,1.32,1.03,1.05,3.71.28,5.22-2.75,5.35-6.91,9.25-11.27,14.11"/>
        <path class="cls-1" d="m135.28,294.97c3.59-5.9,6.7-10.79,9.83-16.94.83-1.63,2.35-4.24,4.17-4.37,3.13-.22,4.01,3.83,3.62,6.27-1.22,7.55-5.08,11.84-9.58,17.99"/>
        <path class="cls-1" d="m140.68,286.05c2.76-9.05,5.62-19.61,3.51-28.95-.83-3.67-2.72-8.6,1.03-9.87,3.5-1.18,10.07,6.3,11.04,10.45,2.12,9.05.68,19.18-4.62,26.97"/>
        <path class="cls-1" d="m144.87,262.15c-1.59-7.2-5.35-14.05-9.17-20.21-1.83-2.95-4.48-8.48-2.76-9.96,2.43-2.09,6.72,2.19,9.11,4.38,5.07,4.65,11.5,13.53,13.77,20.01"/>
        <path class="cls-1" d="m135.21,241.18c-3.83-4.84-7.53-11.15-10.52-16.26-1.59-2.73-3.4-6.67-1.56-8.02,2.4-1.75,6.67,3.61,8.97,6.56,3.63,4.64,9.2,10.86,12.77,15.76"/>
        <path class="cls-1" d="m112.15,307.09c-.08-7.3,2.6-13.5,4.98-17.2.58-.91,2.61-3.27,4.06-2.89,2.72.72,2.24,6.52,1.24,9.81-1.51,4.94-3.15,8.4-6.2,13.17"/>
        <path class="cls-1" d="m113.27,298.7c.56-9.78,2.21-15.33,6.2-23.61.49-1.01,2.08-4.14,3.47-4.28,3.47-.36,4.76,5.22,4.84,8.34-.18,6.55-3.01,13.4-5.99,19.64"/>
        <path class="cls-1" d="m115.77,283.7c1.2-11.42,3.57-17.55,4.42-27.78.15-1.82.61-4.89,2.26-5.38,2.47-.73,4.83,2.22,5.77,4.84,3.63,10.12,3.55,20.32-1.44,30.47"/>
        <path class="cls-1" d="m118.63,266.79c-1.07-7.64-1.65-13.44-2.83-20.6-.87-5.3-4.48-13.62.15-15.86,2.36-1.14,5.37,2.7,6.63,5.14,5.35,10.39,11.09,24.85,7.91,38.19"/>
        <path class="cls-1" d="m114.15,239.57c-2.63-8.62-2.56-12.25-3.6-17.96-.24-1.14-.17-3.94,1.41-4.33,1.54-.38,2.91,1.5,3.44,2.99,1.73,4.85,4.9,10.92,7.18,15.2"/>
        <path class="cls-1" d="m120.35,224.14c9.41,11.88,21.87,32.01,20.09,45.46-1.56,11.79-8.9,23.59-14.28,33.21-3.65,6.52-6.11,11.99-7.35,14.78,3.56-17.5,14.15-26.93,15.73-48.46,1.35-18.6-7.21-30.77-14.19-44.99Z"/>
        <path class="cls-1" d="m131.55,316.49c13.86-10.21,29.84-20.63,35.15-37.73,7.01-22.59-8.62-40.25-26.79-49.96,11.64,11.37,22.68,26.98,20.69,43.73-2.34,19.6-14.94,27.91-29.05,43.96Z"/>
        <path class="cls-1" d="m164.51,228.11c25.19,5.87,34.87,24.55,35.1,46.24.31,28.82-23.83,44.09-50.36,42.62,26.14-3.03,41.07-19.78,42.61-44.06,1.16-18.2-8.68-33.48-27.35-44.8Z"/>
        <path class="cls-1" d="m115.4,220.27c-.8-1.87.08-3.66,1.64-3.49,2.4.26,5.84,5.26,7.66,8.15"/>
        <path class="cls-1" d="m115.01,219.22c-2.79-10.16-.76-22.64,5.13-29.11-1.66,8.67,6.57,24.15,12.79,27.99"/>
        <path class="cls-1" d="m113.91,206.59c-1.72-5.25-3.55-11.13-5.27-16.39.26-6.42,1.42-13.24,4.25-17.91,1.01,6.91,3.16,14.12,5.06,20.64.1-7.2,3.08-14.09,6.71-20.02-.02,5.83.41,11.54,3.52,16.47-.58-3.75,3.8-13.83,7.06-17.82"/>
        <path d="m135.65,166.57c-1.29.91-2.69,1.43-4.23,1.76l-.07-.16c1.31-.86,2.68-1.49,4.23-1.77,0,.01.07.17.07.17h0Z"/>
        <path d="m131.08,166.57c-1.29.91-2.69,1.43-4.23,1.76l-.07-.16c1.31-.86,2.68-1.49,4.23-1.77.01.01.07.17.07.17h0Z"/>
        <path d="m126.52,166.57c-1.29.91-2.69,1.43-4.23,1.76l-.07-.16c1.31-.86,2.68-1.49,4.23-1.77.01.01.07.17.07.17h0Z"/>
        <path d="m121.96,166.57c-1.29.91-2.69,1.43-4.23,1.76l-.07-.16c1.31-.86,2.68-1.49,4.23-1.77.01.01.07.17.07.17h0Z"/>
        <path d="m117.4,166.57c-1.29.91-2.69,1.43-4.23,1.76l-.07-.16c1.31-.86,2.68-1.49,4.23-1.77,0,.01.07.17.07.17h0Z"/>
        <path d="m112.84,166.57c-1.29.91-2.69,1.43-4.23,1.76l-.07-.16c1.31-.86,2.68-1.49,4.23-1.77,0,.01.07.17.07.17h0Z"/>
        <path d="m133.3,166.69c-1.55-.27-2.92-.91-4.23-1.77l.07-.16c1.53.33,2.94.85,4.23,1.76,0,.01-.07.17-.07.17h0Z"/>
        <path d="m137.86,166.69c-1.55-.27-2.92-.91-4.23-1.77l.07-.16c1.53.33,2.94.85,4.23,1.76,0,.01-.07.17-.07.17h0Z"/>
        <path d="m128.74,166.69c-1.55-.27-2.92-.91-4.23-1.77l.07-.16c1.53.33,2.94.85,4.23,1.76-.01.01-.07.17-.07.17h0Z"/>
        <path d="m124.18,166.69c-1.55-.27-2.92-.91-4.23-1.77l.07-.16c1.53.33,2.94.85,4.23,1.76-.01.01-.07.17-.07.17h0Z"/>
        <path d="m119.62,166.69c-1.55-.27-2.92-.91-4.23-1.77l.07-.16c1.53.33,2.94.85,4.23,1.76-.01.01-.07.17-.07.17h0Z"/>
        <path d="m115.05,166.69c-1.55-.27-2.92-.91-4.23-1.77l.07-.16c1.53.33,2.94.85,4.23,1.76,0,.01-.07.17-.07.17h0Z"/>
        <path d="m110.49,166.69c-1.55-.27-2.92-.91-4.23-1.77l.07-.16c1.53.33,2.94.85,4.23,1.76,0,.01-.07.17-.07.17h0Z"/>
        <path d="m108.28,166.57c-1.29.91-2.69,1.43-4.23,1.76l-.07-.16c1.31-.86,2.68-1.49,4.23-1.77,0,.01.07.17.07.17h0Z"/>
        <path d="m103.72,166.57c-1.29.91-2.69,1.43-4.23,1.76l-.07-.16c1.31-.86,2.68-1.49,4.23-1.77,0,.01.07.17.07.17h0Z"/>
        <path d="m99.16,166.57c-1.29.91-2.69,1.43-4.23,1.76l-.07-.16c1.31-.86,2.68-1.49,4.23-1.77,0,.01.07.17.07.17h0Z"/>
        <path d="m94.6,166.57c-1.29.91-2.69,1.43-4.23,1.76l-.07-.16c1.31-.86,2.68-1.49,4.23-1.77,0,.01.07.17.07.17h0Z"/>
        <path d="m90.03,166.57c-1.29.91-2.69,1.43-4.23,1.76l-.07-.16c1.31-.86,2.68-1.49,4.23-1.77.01.01.07.17.07.17h0Z"/>
        <path d="m85.47,166.57c-1.29.91-2.69,1.43-4.23,1.76l-.07-.16c1.31-.86,2.68-1.49,4.23-1.77.01.01.07.17.07.17h0Z"/>
        <path d="m105.93,166.69c-1.55-.27-2.92-.91-4.23-1.77l.07-.16c1.53.33,2.94.85,4.23,1.76,0,.01-.07.17-.07.17h0Z"/>
        <path d="m101.37,166.69c-1.55-.27-2.92-.91-4.23-1.77l.07-.16c1.53.33,2.94.85,4.23,1.76,0,.01-.07.17-.07.17h0Z"/>
        <path d="m96.81,166.69c-1.55-.27-2.92-.91-4.23-1.77l.07-.16c1.53.33,2.94.85,4.23,1.76,0,.01-.07.17-.07.17h0Z"/>
        <path d="m92.25,166.69c-1.55-.27-2.92-.91-4.23-1.77l.07-.16c1.53.33,2.94.85,4.23,1.76-.01.01-.07.17-.07.17h0Z"/>
        <path d="m87.69,166.69c-1.55-.27-2.92-.91-4.23-1.77l.07-.16c1.53.33,2.94.85,4.23,1.76-.01.01-.07.17-.07.17h0Z"/>
        <path d="m83.13,166.69c-1.55-.27-2.92-.91-4.23-1.77l.07-.16c1.53.33,2.94.85,4.23,1.76-.01.01-.07.17-.07.17h0Z"/>
        <path class="cls-1" d="m109.54,149.33c2.37-1.74,4.19-2.76,8.37-2.63,4.76.15,9.81.71,14.25.91"/>
        <path class="cls-1" d="m129.6,149.36c2.34-3.18,8.32-2.3,12.24-2.11,4.68.22,6.94.58,10.39.29"/>
        <path class="cls-1" d="m131.9,197.07c-2.42-2.36-3.32-5.06-3.73-7.69-1.56,7.35-2.26,13.01-2.6,20.22"/>
        <path class="cls-1" d="m80.61,360.34c10.01-.35,18.13.05,28.02,0,9.89.05,18.01-.35,28.02,0"/>
        <path class="cls-1" d="m69.25,367.99c13.29-.07,25.35.17,39.39.13,14.04.03,26.1-.2,39.39-.13"/>
        <path class="cls-1" d="m60.17,371.01c17.11-.28,31.31.08,48.47.04,17.16.05,31.36-.32,48.47-.04"/>
        <path class="cls-1" d="m63.58,326.58c-1.6-.96-1.98-3.03-.76-4.2,3.25-3.38,11.58,1.3,13.69-1.12,2.82-3.24-9.43-5.49-7.78-8,1.43-2.5,6.78-1.04,10.81,2.69,3.92,3.63,8.7,6.13,9.86,4.9,1.98-2.08-.49-5.44-3.05-7.91-2.4-2.31-3.86-5.43-1.78-6.96,2.84-1.09,6.27,3.07,8.89,7.63,2.45,4.26,4.7,8.57,7.11,7.89,5.16-1.46-2.84-15.73,1.69-16.57,3.29-.62,3.2,3.89,3.51,8.2.22,3.08.95,7.06,2.88,7.01,1.96-.04,2.66-3.92,2.87-7.01.32-4.31.22-8.82,3.52-8.2,4.52.84-3.47,15.11,1.69,16.57,2.4.68,4.66-3.63,7.11-7.89,2.62-4.56,6.05-8.72,8.89-7.63,2.08,1.53.62,4.65-1.78,6.96-2.56,2.48-5.04,5.83-3.05,7.91,1.17,1.23,5.94-1.27,9.86-4.9,4.02-3.73,9.38-5.19,10.81-2.69,1.64,2.51-10.6,4.76-7.78,8,2.1,2.42,10.44-2.26,13.69,1.12,1.22,1.17.83,3.24-.76,4.2"/>
        <path class="cls-1" d="m41.08,325.59c-4.52-2.29-6.64-8.27-1.53-8.73,7.99-.72,11.87,3.3,27.13,4.28"/>
        <path class="cls-1" d="m44.8,317.12c-8.21-2.13-15.14-7.03-22.44-11.34-2.1-1.24-6.32-2.32-7.42-.16-2.81,5.51,6.9,12.31,12.08,15.69"/>
        <path class="cls-1" d="m30.26,310.76c-8.25-7.77-13.89-18.24-19.71-29.49-.56-1.09-1.5-2.32-2.73-2.34-8.33-.11-3.09,20.93-.28,25.73"/>
        <path class="cls-1" d="m14.55,288.98c-2.85-8.76-2.92-16.91-1.38-27.35.45-3.03,2.33-8.59-.85-9.73-4.77-1.71-11.51,10.95-11.91,25.2"/>
        <path class="cls-1" d="m12.48,267.66c1.36-5.71,3.44-13.05,7.08-19.47,2.6-4.6,9.4-12.04,7.2-15.38-2.3-3.51-11.29,3.51-13.5,6.23"/>
        <path class="cls-1" d="m23.45,242.15c3.1-3.6,7.2-6.59,11.28-9.35,3.38-2.29,9.58-4.62,9.54-6.62-.05-2.48-8.85-1.77-14.72-.16"/>
        <path class="cls-1" d="m40.69,229.44c6.98-1.14,13.42-3.05,20.41-6.2,3.87-1.74,10.64-5.26,10.79-7.8.06-.94-.53-1.85-1.78-1.65"/>
        <path class="cls-1" d="m71.37,216.64c11.7-2.77,16.77-18.06,12.39-28.07"/>
        <path class="cls-1" d="m71.37,216.64c3.21-.8,4.79.67,3.53,2.69"/>
        <path class="cls-1" d="m70,315.35c-5.65-.65-13.21-3.91-17.75-7.04-2.7-1.86-6.54-5.25-4.52-8.65,2.47-4.15,10.48,1.04,13.82,3.1,3.25,2,9.92,6.45,14.41,10.63h0"/>
        <path class="cls-1" d="m66.22,305.83c-7.11-5.63-14.7-15.58-21.13-21.47-1.84-1.69-4.5-5.79-6.77-5.79-6.95-.01-4.88,13.37-1.64,17.85,3.82,5.3,10.32,10.62,16.57,12.55"/>
        <path class="cls-1" d="m51.64,291.1c-10.52-15.19-5.15-33.47-11.61-35.34-3.94-1.14-6.42,2.52-7.59,5.7-2.68,8.44-3.12,23.34,2.85,32.33"/>
        <path class="cls-1" d="m43.93,264.89c1.21-7.57,3.53-13,6.84-18.83,1.28-2.25,2.59-6.2,1.24-7.8-1.56-1.85-6.69.36-8.87,2.19-6.57,5.51-10.95,15.39-11.36,23.62"/>
        <path class="cls-1" d="m49.62,248.14c2.4-3.12,7.04-8.09,9.33-9.72,2.78-1.98,8.44-7.72,6.85-9.93-1.49-2.08-4.83-1.62-7.04-.71-6.42,2.37-12.9,7.82-17.61,14.54"/>
        <path class="cls-1" d="m62.59,235.21c3.39-2.5,8.03-5.71,11.49-8.11,2.9-2.02,10.13-7.24,7.91-9.96-1.06-1.3-5.19,1.03-7.09,2.19-6.73,4.1-9.13,4.62-16.18,8.48"/>
        <path class="cls-1" d="m81.82,220.05c1.78-2.26,7.75-4.77,5.79.45"/>
        <path class="cls-1" d="m90.14,308.8c-3.12-5.12-10.48-22.35-16.71-17.53-1.32,1.03-1.05,3.71-.28,5.22,2.75,5.35,6.91,9.25,11.27,14.11"/>
        <path class="cls-1" d="m81.99,294.97c-3.59-5.9-6.7-10.79-9.83-16.94-.83-1.63-2.35-4.24-4.17-4.37-3.13-.22-4.01,3.83-3.62,6.27,1.22,7.55,5.08,11.84,9.58,17.99"/>
        <path class="cls-1" d="m76.59,286.05c-2.76-9.05-5.62-19.61-3.51-28.95.83-3.67,2.72-8.6-1.03-9.87-3.5-1.18-10.07,6.3-11.04,10.45-2.12,9.05-.68,19.18,4.62,26.97"/>
        <path class="cls-1" d="m72.4,262.15c1.59-7.2,5.35-14.05,9.17-20.21,1.83-2.95,4.48-8.48,2.76-9.96-2.43-2.09-6.72,2.19-9.11,4.38-5.07,4.65-11.5,13.53-13.77,20.01"/>
        <path class="cls-1" d="m82.06,241.18c3.83-4.84,7.53-11.15,10.52-16.26,1.59-2.73,3.4-6.67,1.56-8.02-2.4-1.75-6.67,3.61-8.97,6.56-3.63,4.64-9.2,10.86-12.77,15.76"/>
        <path class="cls-1" d="m105.12,307.09c.08-7.3-2.61-13.5-4.98-17.2-.58-.91-2.61-3.27-4.06-2.89-2.72.72-2.24,6.52-1.24,9.81,1.51,4.94,3.15,8.4,6.2,13.17"/>
        <path class="cls-1" d="m104,298.7c-.56-9.78-2.21-15.33-6.2-23.61-.49-1.01-2.08-4.14-3.47-4.28-3.47-.36-4.76,5.22-4.84,8.34.18,6.55,3.01,13.4,5.99,19.64"/>
        <path class="cls-1" d="m101.5,283.7c-1.2-11.42-3.57-17.55-4.42-27.78-.15-1.82-.61-4.89-2.26-5.38-2.47-.73-4.83,2.22-5.77,4.84-3.63,10.12-3.55,20.32,1.44,30.47"/>
        <path class="cls-1" d="m98.64,266.79c1.07-7.64,1.65-13.44,2.83-20.6.87-5.3,4.48-13.62-.15-15.86-2.36-1.14-5.37,2.7-6.63,5.14-5.35,10.39-11.09,24.85-7.91,38.19"/>
        <path class="cls-1" d="m103.12,239.57c2.63-8.62,2.56-12.25,3.6-17.96.24-1.14.17-3.94-1.41-4.33-1.54-.38-2.91,1.5-3.44,2.99-1.73,4.85-4.9,10.92-7.18,15.2"/>
        <path class="cls-1" d="m106.82,219.89c.37-1.58.69-2.65,1.81-2.67,1.12.02,1.45,1.09,1.81,2.67"/>
        <path class="cls-1" d="m108.64,309.93c-1.23-16.17-5.09-29.59-5.03-44.31.04-10.68,2.73-21.32,5.03-31.92,2.3,10.6,4.98,21.24,5.03,31.92.05,14.72-3.8,28.14-5.03,44.31Z"/>
        <path class="cls-1" d="m96.92,224.14c-9.41,11.88-21.87,32.01-20.09,45.46,1.56,11.79,8.9,23.59,14.28,33.21,3.65,6.52,6.11,11.99,7.35,14.78-3.56-17.5-14.15-26.93-15.73-48.46-1.35-18.6,7.22-30.77,14.19-44.99Z"/>
        <path class="cls-1" d="m85.73,316.49c-13.86-10.21-29.84-20.63-35.15-37.73-7.01-22.59,8.62-40.25,26.79-49.96-11.64,11.37-22.68,26.98-20.69,43.73,2.34,19.6,14.93,27.91,29.05,43.96Z"/>
        <path class="cls-1" d="m52.76,228.11c-25.19,5.87-34.87,24.55-35.1,46.24-.31,28.82,23.83,44.09,50.37,42.62-26.14-3.03-41.07-19.78-42.61-44.06-1.17-18.2,8.67-33.48,27.34-44.8Z"/>
        <path class="cls-1" d="m101.87,220.27c.8-1.87-.08-3.66-1.64-3.49-2.4.26-5.84,5.26-7.66,8.15"/>
        <path class="cls-1" d="m102.26,219.22c2.79-10.16.76-22.64-5.13-29.11,1.66,8.67-6.57,24.15-12.79,27.99"/>
        <path class="cls-1" d="m103.37,206.59c1.72-5.25,3.55-11.13,5.27-16.39-.26-6.42-1.42-13.24-4.25-17.91-1.01,6.91-3.16,14.12-5.06,20.64-.1-7.2-3.08-14.09-6.71-20.02.02,5.83-.41,11.54-3.52,16.47.58-3.75-3.8-13.83-7.06-17.82"/>
        <polyline class="cls-1" points="135.31 171.32 108.64 171.32 81.96 171.32"/>
        <polyline class="cls-1" points="150.34 151.84 108.64 151.84 66.94 151.84"/>
        <polyline class="cls-1" points="151.48 149.57 108.64 149.31 65.79 149.57"/>
        <path class="cls-1" d="m136.62,168.43h-55.98"/>
        <polyline class="cls-1" points="139.08 164.69 108.64 164.69 78.19 164.69"/>
        <path class="cls-1" d="m65.79,149.33c2.58-1.74,4.56-2.76,9.11-2.63,5.19.15,10.68.71,15.52.91"/>
        <path class="cls-1" d="m87.64,149.36c2.54-3.18,9.06-2.3,13.32-2.11,5.1.22,7.78.58,11.53.29"/>
        <path class="cls-1" d="m85.37,197.07c2.42-2.36,3.32-5.06,3.73-7.69,1.56,7.35,2.26,13.01,2.6,20.22"/>
        <path class="cls-1" d="m202.72,288.98c2.85-8.76,2.92-16.91,1.38-27.35-.45-3.03-2.33-8.59.85-9.73,4.77-1.71,11.51,10.95,11.91,25.2"/>
      </g>
    </g>
  </g>
</svg>