<?xml version="1.0" encoding="UTF-8"?>
<svg id="Layer_2" data-name="Layer 2" xmlns="http://www.w3.org/2000/svg" viewBox="0 0 46.7 97.14">
  <defs>
    <style>
      .cls-1 {
        stroke: #919191;
      }

      .cls-1, .cls-2 {
        fill: none;
        stroke-miterlimit: 10;
        stroke-width: .75px;
      }

      .cls-2 {
        stroke: #000;
      }
    </style>
  </defs>
  <g id="Layer_1-2" data-name="Layer 1">
    <g>
      <g>
        <path class="cls-1" d="m46.32,57.42c.02,1.42,0,2.86-.06,4.31-2.46-6.58-7.38-12.99-11.09-19.17-4.99-8.29-8.65-16.02-12.02-21.31,1.38,9.13-2.42,19.39-10.86,23.79,7.93-7.57,8.81-22.31,5.34-33.5-.62,3.11-.95,6.74-4.28,8.15,1.77-4.2,1.15-8.63-.75-12.5.66.24,1.31.29,1.9-.1.8-.52,1.19-1.5,1.49-2.53,2.43,2.65,7.35,5.35,12.13,4.19-2.23,1.45-4.94,2.62-7.82,1.03,4.35,9.53,17.24,11.93,21.16,22.51-3.55-5.11-8.05-6.29-12.34-9.72,1.59,3.02,4.41,10.55,8.2,17.9,3.33,6.46,7.38,12.8,9,16.95Z"/>
        <path class="cls-1" d="m44.61,70.78c-3.75,7.75-13.07,15.04-21.83,11.89,9.04.97,18.13-4.83,21.09-13.41.28.48.53.99.74,1.52Z"/>
      </g>
      <g>
        <path class="cls-2" d="m45.05,96.63c-5.04-.79-11.22-1.93-10.95-8.22-2.36,4.07-8.75,5.39-13.21,4.32-6.41-1.53-8.88-6.79-11.65-11.7,5.88,2.71,6.85-7.1,15.34-4.78-7.15-3.99-6.29-13.32,1.05-18.05-.26,7.72,10.84,14.95,17.69,10.14.82,1.23,1.47,2.61,1.88,4.2.49,7.71-5.55,16.9-.15,24.09Z"/>
        <path class="cls-2" d="m17.75.8c-1.81.88-1.25,4.97-3.26,6.29-1.9,1.25-4.42-2.15-6.23-1.09-3.63,2.13-2.02,11.63-7.26,15.51,2.18.23,4.62-.2,6.45-1.41-11.21,13.78,2.4,23.53-4.45,30.88,6.22,4.24,16.03,4.4,17.8-7.36,2.04,16.9,21.05,15.99,24.39,28.91,1.88-12.22,1.77-26.38-3.06-33.56,4.66-2.09,4.07-8.1,3.56-12.07-8.54-.74-8.01-13.93-15.22-16.16,2.31-.21,4.64-1.42,5.76-3.45C26.11,9.33,23.36-1.91,17.75.8Z"/>
      </g>
    </g>
  </g>
</svg>