<?xml version="1.0" encoding="UTF-8"?>
<svg id="Layer_2" data-name="Layer 2" xmlns="http://www.w3.org/2000/svg" viewBox="0 0 160.66 104.76">
  <defs>
    <style>
      .cls-1, .cls-2, .cls-3, .cls-4, .cls-5 {
        fill: none;
        stroke: #000;
        stroke-miterlimit: 10;
      }

      .cls-1, .cls-3, .cls-4, .cls-5 {
        stroke-width: 1.25px;
      }

      .cls-2 {
        stroke-width: .75px;
      }

      .cls-3 {
        stroke-dasharray: 0 0 3.23 4.44;
      }

      .cls-3, .cls-4, .cls-5 {
        stroke-linecap: round;
      }

      .cls-4 {
        stroke-dasharray: 0 0 2.95 4.06;
      }
    </style>
  </defs>
  <g id="Layer_1-2" data-name="Layer 1">
    <g>
      <g>
        <line class="cls-5" x1="80.33" y1="63.75" x2="80.33" y2="65.22"/>
        <line class="cls-3" x1="80.33" y1="69.66" x2="80.33" y2="98.09"/>
        <line class="cls-5" x1="80.33" y1="100.31" x2="80.33" y2="101.79"/>
      </g>
      <path class="cls-2" d="m73.18,71.78c-6.28,12.12-1.76,23.23,2.51,32.83"/>
      <path class="cls-4" d="m76.92,73.16c-1.15,9.52-.6,18.78,1.04,27.87"/>
      <path class="cls-2" d="m57.89,81.73c16.15-.29,21.12-19.65,14.73-31.05-7.48-4.29-13.42-3.12-21.34.7-11.88,10.04-10.37,30.66,6.61,30.35Z"/>
      <path class="cls-1" d="m57.52,79.64c-5.46,0-9.38-2.5-11.05-7.05-2.31-6.3.2-14.44,5.97-19.45,4.56-2.17,7.81-3.1,10.84-3.1,2.59,0,5.08.69,7.8,2.17,3.06,5.93,2.87,14.03-.51,19.92-1.93,3.36-5.7,7.39-12.71,7.51h-.34Z"/>
      <path class="cls-2" d="m57.51,77.55c-3.19,0-7.36-.99-9.08-5.68-1.98-5.41.19-12.51,5.16-16.97,4.12-1.94,7.03-2.77,9.68-2.77,2.05,0,4.05.51,6.22,1.61,2.44,5.25,2.16,12.28-.74,17.34-2.41,4.2-6.09,6.38-10.93,6.46h-.31Z"/>
      <path class="cls-2" d="m42.43,56.02c11.5-6.26,18.51-10.15,26.95-6.9-.2-.18-.39-.39-.56-.61-3.44-4.54-3.87-13.79,3.67-15.33.79-.14,1.55-.16,2.26-.07-10.02-15.05-28.39-23.71-46.96-21.34-10.8,1.39-22.86,7.68-25.86,16.07-8.55,23.94,20.09,39.3,40.5,28.18Z"/>
      <path class="cls-1" d="m27.76,57.62c-8.96,0-17.32-3.98-21.84-10.39-3.78-5.36-4.48-11.83-2.03-18.69,2.72-7.61,14.42-13.45,24.16-14.7,1.93-.25,3.9-.37,5.85-.37,14.4,0,28.28,6.8,37.05,17.96-2.8.89-4.85,2.82-5.87,5.53-1,2.66-.92,6.02.09,9-.63-.07-1.26-.1-1.9-.1-6.55,0-12.84,3.42-21.54,8.16l-.31.17c-4.11,2.24-8.84,3.43-13.66,3.43.01,0,0,0,0,0Z"/>
      <path class="cls-2" d="m27.76,55.53c-8.29,0-16-3.64-20.13-9.5-3.37-4.78-3.98-10.59-1.77-16.78,2.42-6.76,13.54-12.19,22.46-13.33,1.84-.24,3.72-.36,5.58-.36,12.84,0,25.24,5.61,33.7,15.13-2.05,1.29-3.6,3.19-4.48,5.54-.85,2.25-1.06,4.9-.64,7.56-6.78.25-13.11,3.7-21.74,8.4l-.31.17c-3.81,2.07-8.19,3.17-12.67,3.17h0Z"/>
      <path class="cls-2" d="m87.48,71.78c6.28,12.12,1.76,23.23-2.51,32.83"/>
      <path class="cls-4" d="m83.75,73.16c1.15,9.52.6,18.78-1.04,27.87"/>
      <path class="cls-2" d="m80.33.38c5.63.3,7.46,9.46,6.84,14.21,2.31-3.69,8.11-9.67,12.2-6.85,2.87,1.98,1.42,8.58-.41,11.25-2.17,2.37-5.24,4.17-8.22,7.28,1.83-3.82,4.38-9.6,3.17-10.44-3.01-2.07-8.55,6.89-9.98,6.45-1.11-.34,1.51-10.88-3.6-12.05-5.11,1.18-2.49,11.71-3.6,12.05-1.43.44-6.97-8.52-9.98-6.45-1.21.83,1.34,6.62,3.17,10.44-2.98-3.11-6.06-4.91-8.22-7.28-1.83-2.67-3.28-9.27-.41-11.25,4.1-2.82,9.9,3.16,12.2,6.85-.62-4.75,1.21-13.92,6.84-14.21Z"/>
      <path class="cls-2" d="m80.33,37.18c1.36-2.78,4.18-4.65,7.84-4.01,7.53,1.53,7.11,10.79,3.67,15.33-.17.22-.36.43-.56.61-1.05.4-2.13.92-3.24,1.56,1.22-2.86,2.96-8.89.32-10.22-2.81-1.42-6.36,2.18-8.03,5.06-1.67-2.88-5.22-6.48-8.03-5.06-2.63,1.33-.9,7.35.32,10.22-1.11-.63-2.18-1.16-3.24-1.56-.2-.18-.39-.39-.56-.61-3.44-4.54-3.87-13.79,3.67-15.33,3.66-.63,6.48,1.23,7.84,4.01Z"/>
      <path class="cls-2" d="m102.77,81.73c-16.15-.29-21.12-19.65-14.73-31.05,7.48-4.29,13.42-3.12,21.34.7,11.88,10.04,10.37,30.66-6.61,30.35Z"/>
      <path class="cls-1" d="m103.14,79.64c5.46,0,9.38-2.5,11.05-7.05,2.31-6.3-.2-14.44-5.97-19.45-4.56-2.17-7.81-3.1-10.84-3.1-2.59,0-5.08.69-7.8,2.17-3.06,5.93-2.87,14.03.51,19.92,1.93,3.36,5.7,7.39,12.71,7.51h.34Z"/>
      <path class="cls-2" d="m103.15,77.55c3.19,0,7.36-.99,9.08-5.68,1.98-5.41-.19-12.51-5.16-16.97-4.12-1.94-7.03-2.77-9.68-2.77-2.05,0-4.05.51-6.22,1.61-2.44,5.25-2.16,12.28.74,17.34,2.41,4.2,6.09,6.38,10.93,6.46h.31Z"/>
      <path class="cls-2" d="m118.23,56.02c-11.5-6.26-18.51-10.15-26.95-6.9.2-.18.39-.39.56-.61,3.44-4.54,3.87-13.79-3.67-15.33-.79-.14-1.55-.16-2.26-.07,10.02-15.05,28.39-23.71,46.96-21.34,10.8,1.39,22.86,7.68,25.86,16.07,8.56,23.94-20.08,39.3-40.5,28.18Z"/>
      <path class="cls-1" d="m132.9,57.62c8.96,0,17.32-3.98,21.84-10.39,3.78-5.36,4.48-11.83,2.03-18.69-2.72-7.61-14.42-13.45-24.16-14.7-1.93-.25-3.9-.37-5.85-.37-14.4,0-28.28,6.8-37.05,17.96,2.8.89,4.85,2.82,5.87,5.53,1,2.66.92,6.02-.09,9,.63-.07,1.26-.1,1.9-.1,6.55,0,12.84,3.42,21.54,8.16l.31.17c4.11,2.24,8.84,3.43,13.66,3.43h0Z"/>
      <path class="cls-2" d="m132.9,55.53c8.29,0,16-3.64,20.13-9.5,3.37-4.78,3.98-10.59,1.77-16.78-2.42-6.76-13.54-12.19-22.46-13.33-1.84-.24-3.72-.36-5.58-.36-12.84,0-25.24,5.61-33.7,15.13,2.05,1.29,3.6,3.19,4.48,5.54.85,2.25,1.06,4.9.64,7.56,6.78.25,13.11,3.7,21.74,8.4l.31.17c3.82,2.07,8.2,3.17,12.67,3.17h0Z"/>
    </g>
  </g>
</svg>