<?xml version="1.0" encoding="UTF-8"?>
<svg id="Layer_2" data-name="Layer 2" xmlns="http://www.w3.org/2000/svg" viewBox="0 0 45.62 56.84">
  <defs>
    <style>
      .cls-1 {
        fill: none;
        stroke: #000;
        stroke-miterlimit: 10;
        stroke-width: .75px;
      }
    </style>
  </defs>
  <g id="Layer_1-2" data-name="Layer 1">
    <path class="cls-1" d="m2.15,54.31c8.03-11.92,24.62-14.99,32.11-29.9-7.4,7.17-18.42,12.46-27.31,17.52,7.77-8.2,18.03-18.21,20.12-29.3,2.75,2.84,3.81,7.21,2.68,11,6.43-5.31,9.22-14.63,6.76-22.6,11.3,8.86,3.89,28.34-6.33,35.89,9.34,2.77,1.89,17.62,14.38,16.38-5.1,4.79-9.75,1.11-12.18-2.98-2.73-4.6-3.79-9.14-12.3-7.33-6.87,1.47-12.8,6.53-17.93,11.32Z"/>
  </g>
</svg>