<?xml version="1.0" encoding="UTF-8"?>
<svg id="Layer_2" data-name="Layer 2" xmlns="http://www.w3.org/2000/svg" viewBox="0 0 46.83 119.13">
  <defs>
    <style>
      .cls-1 {
        fill: none;
        stroke: #000;
        stroke-miterlimit: 10;
        stroke-width: .75px;
      }
    </style>
  </defs>
  <g id="Layer_1-2" data-name="Layer 1">
    <g>
      <path class="cls-1" d="m3.98,101.21c.33-6.19,3.77-13.92,6.12-20.72,4.84-13.73,18.95-52.13,23.18-60.44-4.7,17.08-11.4,34.4-17.88,50.91-1.31,3.29-4.71,11.84-5.97,15.03-1.96,5.03-4.02,10.02-5.45,15.22h0Z"/>
      <path class="cls-1" d="m2.45,99.27c1.12-8.66,1.73-24.15.2-33.34,2.11.99,3.44,2.75,4.67,4.98-2.54-8.44-1.98-18.81,1.73-26.8.99.71,2.33,1.81,2.98,3.8-.46-8.48,1.95-13.71,2.49-19.9,1.8.74,3.52,2.62,3.47,4.57.8-9.49,8.32-16.04,10.65-24.54,1.09,1.42,1.94,3.03,2.25,4.84,2.11-7.46,8.09-9.63,14.71-12.03-4.79,5.5-2.45,11.82-7.07,17.7,2.33-1.66,4.53-3.18,7.14-4.07-3.9,5.16-5.02,13.11-9.28,18.92,2.1-1.75,4.01-2.54,6.5-2.65-4.02,3.77-4.74,11.67-11.62,18.24,2.42-.71,3.87-1.55,6.29-2.26-1.42,4.52-3.78,9.3-7.13,13.14-3.05,3.49-6.57,6.42-10.01,9.16,3.46-1.67,6.76-3.39,10.5-3.82C17.17,77.31,7.54,101.51.35,118.99"/>
    </g>
  </g>
</svg>