<?xml version="1.0" encoding="UTF-8"?>
<svg id="Layer_2" data-name="Layer 2" xmlns="http://www.w3.org/2000/svg" viewBox="0 0 69.96 86.19">
  <defs>
    <style>
      .cls-1 {
        fill: none;
        stroke: #000;
        stroke-miterlimit: 10;
        stroke-width: .75px;
      }
    </style>
  </defs>
  <g id="Layer_1-2" data-name="Layer 1">
    <path class="cls-1" d="m47.38,76.49c-2.29-6.65-3.55-11.78-8.7-17.25-4.55-4.83-8.63-9.02-14.46-10.11,2.32-4.02,6.94-3.87,9.92-2.59-4.83-7.97-11.84-11.47-19.99-11.14,1.42-3.82,6.22-4.97,10.02-2.49-3.82-4.62-12.18-9.58-17.97-6.38.21-2.02,1.97-4.03,3.85-4.81C1.85,17.77-1.64,9.92,1.55,1.14c1.67,4.97,5.28,9.74,9.02,13.35.2-2.54,2.64-4.12,4.62-5.41.55,12.1,12.82,14.38,17.59,22.69-1.08-6.44,6.57-9.46,11.26-11.88-4.87,5.88-4.76,13.79-3.2,20.59,1.29,5.6,6.22,11.91,7.72,17.79-.44-10.45,8.07-25.85,20.4-21.38-16.32,7.25-16.54,27.44-16.36,45.73-1.19-5.35-2.18-23.52,1.06-33.08-3.33,3.19-3.12,9.68-4.87,13.67-5.98-14.87-16.09-31.72-29.09-39.09,11.77,10.64,26.72,35.16,27.68,52.37Z"/>
  </g>
</svg>