<?xml version="1.0" encoding="UTF-8"?>
<svg id="Layer_2" data-name="Layer 2" xmlns="http://www.w3.org/2000/svg" viewBox="0 0 78.15 111.61">
  <defs>
    <style>
      .cls-1 {
        stroke: #919191;
      }

      .cls-1, .cls-2 {
        fill: none;
        stroke-miterlimit: 10;
        stroke-width: .75px;
      }

      .cls-2 {
        stroke: #000;
      }
    </style>
  </defs>
  <g id="Layer_1-2" data-name="Layer 1">
    <g>
      <g>
        <path class="cls-1" d="m51.26,88.77c-5.48-.28-10.06,7.02-7.2,12.29-.45-.16-.88-.18-1.31.04-1.02.51-.98,1.5-.9,2.71-5.78-2.48-5.14-9.9-15.54-11.82,2.2-1.65,7.24-2.13,9.67,1.47-2-9.39-1.45-18.66-9.81-25.17-2.94-2.29-9.34-3.22-10.11-7.11,1.43,2.57,4.97,3.07,7.33,3.73,6.53,1.62,10.72,7.96,12.78,13.38,2.07-11.44,1.91-14.18-3.69-25.58-1.84-3.76-4.28-8.16-4.49-12.15,2.45,9.23,12.39,13.31,11.84,24.94,5.75-10.81,10.24-22.06,10.47-34.76.9.53,1.77,1.14,2.57,1.83,1.02,11.43-3.75,24.63-8.35,33.21,4.69-5.59,10.31-10.68,13.67-17.54-3.85,18.51-13.49,18.75-17.79,33.6,5.4-7.53,14.61-11.55,23.66-9.58-13.51,2.5-20.95,6.72-23.89,20.55,2.39-3.36,7.45-6.11,11.09-4.04Z"/>
        <path class="cls-1" d="m52.38,23.67c-7.41-4.72-17.99-6.37-25.33-7.52,7.48-.68,15.38.31,22.53,2.77.96,1.48,1.91,3.06,2.8,4.75Z"/>
      </g>
      <g>
        <path class="cls-2" d="m42.75,101.1c-2.72,1.36,2.07,6.18-4.68,9.4-6.48,3.09-16.98-4.15-18.91-9.87-1.38-4.09-3.9-9.65-8.61-10.62,2.28-3.96,7.58-6.1,11.97-4.85-5.86-5.11-13.96-8.5-16.66-16.06-2.1-5.89-2.14-11.9-5.16-17.18,5.71.72,11.45-3.52,16.97,2.43-4.61-8.52,3.7-15.01,3.7-22.14,4.54-.66,9.65,1.29,10.35,6.76,4.34-5.63,12.76-3.36,14.17-9.97,6.86,1.43,13.94,9.01,11.08,15.66,3.93-2.14,7.36-.29,10.29-2.72-.43,4.58,1.22,7.89.68,11.07-.55,3.24-2.35,6.37-6.74,10.67,7.92-4.13,15.35.8,16.54,12.1-8.28,1.21-8.01,11.66-17.67,13.48,5.15.25,7.48,1.99,9.5,5.04-6.56.7-7.34,11.35-16.6,11.5-5.43.09-7.76-5.92-10.22-4.7Z"/>
        <path class="cls-2" d="m57.45,39.79c-1.02-5.07-6.35-9.69-11.55-10.78-7.01-1.53-15.14-2.84-18.3,1.38-3.14-3.88-1.5-7.74,1.55-9.76-5.09,1.8-8.83-3.12-13.42-2.74,1.72-3.96,7.51-11.08,13.75-8.28-.55-3.87,2-7.94,5.72-9.15,2.92,6.48,8.7,9.84,14.17,18.15,3.65,5.55,7.15,12.51,8.08,21.18Z"/>
      </g>
    </g>
  </g>
</svg>