<?xml version="1.0" encoding="UTF-8"?>
<svg id="Layer_2" data-name="Layer 2" xmlns="http://www.w3.org/2000/svg" viewBox="0 0 58.61 73.03">
  <defs>
    <style>
      .cls-1 {
        fill: none;
        stroke: #000;
        stroke-miterlimit: 10;
        stroke-width: .75px;
      }
    </style>
  </defs>
  <g id="Layer_1-2" data-name="Layer 1">
    <g>
      <path class="cls-1" d="m4.32,19.31c1.66-4.38.15-9.77-3.55-12.65,8.61-3.1,11.74,2.83,10.56,9.21,7.79-2.32,14.16-9.93,7.04-15.29,7.91-1.35,12.68,4.31,7.75,10.55,6.48-.39,11.84,2.99,15.87,7.27,3.49,3.7,5.74,8.11,9.79,10.76-10.49,1.63-10.33-7.86-20.55-9.22,1.53,1.86,1.43,5.16-.52,6.76-2.61-6.39-10.06-8.92-21.25-2.54,4.89-6.46,17.45-10.48,27.31-6.92-9.78-6.38-21.65-2.57-28.51,3.94.87-3.85.2-8.89-2.53-11.44,1.34,3.76,2.01,7.65-1.41,9.57Z"/>
      <path class="cls-1" d="m46.86,29c6.27,4.06,7.51,8.57,5.52,11.2-3.32,4.37-12.52,3.01-12.09-7.68-3.86,4.8-2.84,13.83,4.49,14.85-6.44,3.07-10.69,17.74-6.26,24.45.12-6.05,5.1-11.85,8.99-14.54-4.72,6.46,3.44,12.56,9.01,7.08-11.99-.12,1.58-14.46,1.72-22.94.09-5.15-3.83-9.58-7.69-12.48"/>
      <path class="cls-1" d="m54.9,41.09c-1.22,11.74-9.93,10.87-15.18,20.77,2.4-9.77,9.36-10.97,15.18-20.77Z"/>
    </g>
  </g>
</svg>