<?xml version="1.0" encoding="UTF-8"?>
<svg id="Layer_2" data-name="Layer 2" xmlns="http://www.w3.org/2000/svg" viewBox="0 0 80.48 103.56">
  <defs>
    <style>
      .cls-1 {
        stroke: #919191;
      }

      .cls-1, .cls-2 {
        fill: none;
        stroke-miterlimit: 10;
        stroke-width: .75px;
      }

      .cls-2 {
        stroke: #000;
      }
    </style>
  </defs>
  <g id="Layer_1-2" data-name="Layer 1">
    <g>
      <path class="cls-1" d="m52.88,91.99c-1.06-.3-2.14-.27-3.04.36-.17.11-.31.24-.44.38-1.54-8.7-7.58-16.36-16.1-18.74,5.87-.81,11.48,1.74,15.13,6.39-.27-5.68,0-11.46-2.43-16.59-3.3-6.93-9.74-12.92-17.72-15.22,6.6-1.35,15.13,5.91,20.23,11.32-.31-11.33.08-18.61-14.41-29.74,3.86.84,7.47,3.48,10.38,6.99-.88-3.31-1.39-6.81-1.48-10.41-.07-3.07-.91-8.13-1.65-11.37,1.45,3.11,2.83,7.06,3.12,11.39.31,4.44,1.15,9.25,3.43,13.92.28-6.28,2.23-11.45,5.31-17.51-1.94,7.48-3.01,11.62-3.2,15.61-.26,5.5.99,10.38,2.38,20.28,1.67-4.12,5.43-6.35,8.68-9.45,3.32-3.16,6.14-7.18,8.58-11.38-1.6,5.1-4.23,9.88-7.69,13.95-3.56,4.29-7.91,7.62-9.41,13.21-.76,4.52-.59,9.51-.65,14.08,2.37-6.14,8.36-8.04,15.03-11.73-5.82,5-9.74,7.53-12.32,12.16-1.53,2.7-1.49,6.76-1.73,12.1Z"/>
      <path class="cls-2" d="m35.5.57c-3.74,5.71-3.76,11.36-.1,18.34-3.15-2.81-7.37-4.39-11.6-4.36,2,3.94,1.45,7.57.55,11.81s-.43,8.51,3.16,13.99c-13.92-10.32-15.89-.73-26.56-.76,6.51,6.08,6.55,11.86,10.44,18.11,2.63,4.23,7.13,8.13,14.31,12.07-3.65-1.11-8.4-2.33-11.62.71,7.07,1.96,11.86,10.96,15.35,17.03,3.47,6.04,11.25,19.82,17.83,14.46,2.45-1.99.04-7.86,2.58-9.64,4.35-2.55,7.43,4.86,11.44,4.59,9.29-.63,10.32-9.61,11.64-19,.81-5.8.47-12.92,5.22-15.81-2.72-2.39-6.35-.92-9.4.33,11.29-7.78,12.87-22.83,10.3-35.63-4.24,3.77-12.81-1.36-17.6,5.9,3.85-10.3-2.91-16.15-5.9-23.91-1.88,2.34-4.75,3.63-6.29,7.41,1.22-10.22-8.84-11.27-13.75-15.64Z"/>
    </g>
  </g>
</svg>