<?xml version="1.0" encoding="UTF-8"?>
<svg id="Layer_2" data-name="Layer 2" xmlns="http://www.w3.org/2000/svg" viewBox="0 0 170.85 358.95">
  <defs>
    <style>
      .cls-1 {
        stroke-linejoin: round;
      }

      .cls-1, .cls-2, .cls-3, .cls-4, .cls-5, .cls-6, .cls-7, .cls-8, .cls-9, .cls-10, .cls-11, .cls-12, .cls-13, .cls-14, .cls-15, .cls-16, .cls-17, .cls-18, .cls-19, .cls-20, .cls-21, .cls-22, .cls-23, .cls-24, .cls-25, .cls-26, .cls-27, .cls-28, .cls-29, .cls-30, .cls-31, .cls-32, .cls-33, .cls-34, .cls-35, .cls-36, .cls-37, .cls-38, .cls-39, .cls-40, .cls-41, .cls-42, .cls-43, .cls-44, .cls-45, .cls-46, .cls-47, .cls-48, .cls-49, .cls-50, .cls-51, .cls-52, .cls-53, .cls-54, .cls-55, .cls-56, .cls-57, .cls-58, .cls-59, .cls-60, .cls-61, .cls-62, .cls-63, .cls-64, .cls-65, .cls-66, .cls-67, .cls-68, .cls-69, .cls-70, .cls-71, .cls-72, .cls-73, .cls-74, .cls-75, .cls-76, .cls-77, .cls-78, .cls-79, .cls-80, .cls-81, .cls-82, .cls-83, .cls-84, .cls-85, .cls-86, .cls-87, .cls-88, .cls-89, .cls-90, .cls-91, .cls-92 {
        fill: none;
      }

      .cls-1, .cls-7, .cls-29 {
        stroke: #000;
      }

      .cls-1, .cls-29 {
        stroke-width: .75px;
      }

      .cls-2 {
        stroke-dasharray: 0 0 0 2.86;
      }

      .cls-2, .cls-3, .cls-4, .cls-5, .cls-6, .cls-7, .cls-8, .cls-9, .cls-10, .cls-11, .cls-12, .cls-13, .cls-14, .cls-15, .cls-16, .cls-17, .cls-18, .cls-19, .cls-20, .cls-21, .cls-22, .cls-23, .cls-24, .cls-25, .cls-26, .cls-27, .cls-28, .cls-29, .cls-30, .cls-31, .cls-32, .cls-33, .cls-34, .cls-35, .cls-36, .cls-37, .cls-38, .cls-39, .cls-40, .cls-41, .cls-42, .cls-43, .cls-44, .cls-45, .cls-46, .cls-47, .cls-48, .cls-49, .cls-50, .cls-51, .cls-52, .cls-53, .cls-54, .cls-55, .cls-56, .cls-57, .cls-58, .cls-59, .cls-60, .cls-61, .cls-62, .cls-63, .cls-64, .cls-65, .cls-66, .cls-67, .cls-68, .cls-69, .cls-70, .cls-71, .cls-72, .cls-73, .cls-74, .cls-75, .cls-76, .cls-77, .cls-78, .cls-79, .cls-80, .cls-81, .cls-82, .cls-83, .cls-84, .cls-85, .cls-86, .cls-87, .cls-88, .cls-89, .cls-90, .cls-91, .cls-92 {
        stroke-miterlimit: 10;
      }

      .cls-2, .cls-3, .cls-4, .cls-5, .cls-6, .cls-8, .cls-9, .cls-10, .cls-11, .cls-12, .cls-13, .cls-14, .cls-15, .cls-16, .cls-17, .cls-18, .cls-19, .cls-20, .cls-21, .cls-22, .cls-23, .cls-24, .cls-25, .cls-26, .cls-27, .cls-28, .cls-30, .cls-31, .cls-32, .cls-33, .cls-34, .cls-35, .cls-36, .cls-37, .cls-38, .cls-39, .cls-40, .cls-41, .cls-42, .cls-43, .cls-44, .cls-45, .cls-46, .cls-47, .cls-48, .cls-49, .cls-50, .cls-51, .cls-52, .cls-53, .cls-54, .cls-55, .cls-56, .cls-57, .cls-58, .cls-59, .cls-60, .cls-61, .cls-62, .cls-63, .cls-64, .cls-65, .cls-66, .cls-67, .cls-68, .cls-69, .cls-70, .cls-71, .cls-72, .cls-73, .cls-74, .cls-75, .cls-76, .cls-77, .cls-78, .cls-79, .cls-80, .cls-81, .cls-82, .cls-83, .cls-84, .cls-85, .cls-86, .cls-87, .cls-88, .cls-89, .cls-90, .cls-91, .cls-92 {
        stroke: #3a3a3a;
        stroke-linecap: round;
      }

      .cls-2, .cls-4, .cls-5, .cls-6, .cls-8, .cls-9, .cls-10, .cls-12, .cls-13, .cls-14, .cls-16, .cls-17, .cls-18, .cls-19, .cls-20, .cls-21, .cls-22, .cls-23, .cls-24, .cls-26, .cls-28, .cls-31, .cls-32, .cls-33, .cls-34, .cls-35, .cls-36, .cls-38, .cls-39, .cls-40, .cls-42, .cls-43, .cls-46, .cls-47, .cls-48, .cls-49, .cls-51, .cls-52, .cls-53, .cls-54, .cls-56, .cls-58, .cls-59, .cls-60, .cls-61, .cls-62, .cls-64, .cls-65, .cls-67, .cls-68, .cls-69, .cls-71, .cls-72, .cls-74, .cls-76, .cls-77, .cls-78, .cls-79, .cls-80, .cls-81, .cls-83, .cls-84, .cls-87, .cls-89, .cls-90, .cls-92 {
        stroke-width: 2px;
      }

      .cls-3 {
        stroke-dasharray: 0 0 0 3.81;
      }

      .cls-3, .cls-11, .cls-15, .cls-25, .cls-27, .cls-30, .cls-37, .cls-41, .cls-44, .cls-45, .cls-50, .cls-55, .cls-57, .cls-63, .cls-66, .cls-70, .cls-73, .cls-75, .cls-82, .cls-85, .cls-86, .cls-88, .cls-91 {
        stroke-width: 3px;
      }

      .cls-4 {
        stroke-dasharray: 0 0 0 3.16;
      }

      .cls-5 {
        stroke-dasharray: 0 0 0 3.1;
      }

      .cls-6 {
        stroke-dasharray: 0 0 0 2.91;
      }

      .cls-8 {
        stroke-dasharray: 0 0 0 2.9;
      }

      .cls-9 {
        stroke-dasharray: 0 0 0 3.09;
      }

      .cls-10 {
        stroke-dasharray: 0 0 0 3.28;
      }

      .cls-11 {
        stroke-dasharray: 0 0 0 4.04;
      }

      .cls-12 {
        stroke-dasharray: 0 0 0 2.71;
      }

      .cls-13 {
        stroke-dasharray: 0 0 0 3.01;
      }

      .cls-14 {
        stroke-dasharray: 0 0 0 3.13;
      }

      .cls-15 {
        stroke-dasharray: 0 0 0 4.06;
      }

      .cls-16 {
        stroke-dasharray: 0 0 0 3.11;
      }

      .cls-17 {
        stroke-dasharray: 0 0 0 2.9;
      }

      .cls-18 {
        stroke-dasharray: 0 0 0 2.87;
      }

      .cls-19 {
        stroke-dasharray: 0 0 0 2.95;
      }

      .cls-20 {
        stroke-dasharray: 0 0 0 3.18;
      }

      .cls-21 {
        stroke-dasharray: 0 0 0 3.02;
      }

      .cls-22 {
        stroke-dasharray: 0 0 0 1.89;
      }

      .cls-23 {
        stroke-dasharray: 0 0 0 2.94;
      }

      .cls-24 {
        stroke-dasharray: 0 0 0 2.99;
      }

      .cls-25 {
        stroke-dasharray: 0 0 0 4.13;
      }

      .cls-26 {
        stroke-dasharray: 0 0 0 2.94;
      }

      .cls-27 {
        stroke-dasharray: 0 0 0 4.15;
      }

      .cls-28 {
        stroke-dasharray: 0 0 0 2.77;
      }

      .cls-30 {
        stroke-dasharray: 0 0 0 4.26;
      }

      .cls-31 {
        stroke-dasharray: 0 0 0 3.11;
      }

      .cls-32 {
        stroke-dasharray: 0 0 0 3.07;
      }

      .cls-33 {
        stroke-dasharray: 0 0 0 2.95;
      }

      .cls-34 {
        stroke-dasharray: 0 0 0 3.04;
      }

      .cls-35 {
        stroke-dasharray: 0 0 0 3.14;
      }

      .cls-36 {
        stroke-dasharray: 0 0 0 2.92;
      }

      .cls-37 {
        stroke-dasharray: 0 0 0 4.2;
      }

      .cls-38 {
        stroke-dasharray: 0 0 0 2.87;
      }

      .cls-39 {
        stroke-dasharray: 0 0 0 3.04;
      }

      .cls-40 {
        stroke-dasharray: 0 0 0 2.96;
      }

      .cls-41 {
        stroke-dasharray: 0 0 0 4.21;
      }

      .cls-42 {
        stroke-dasharray: 0 0 0 3.02;
      }

      .cls-43 {
        stroke-dasharray: 0 0 0 3.15;
      }

      .cls-44 {
        stroke-dasharray: 0 0 0 4.32;
      }

      .cls-45 {
        stroke-dasharray: 0 0 0 4.15;
      }

      .cls-46 {
        stroke-dasharray: 0 0 0 3.01;
      }

      .cls-47 {
        stroke-dasharray: 0 0 0 3.16;
      }

      .cls-48 {
        stroke-dasharray: 0 0 0 3.04;
      }

      .cls-49 {
        stroke-dasharray: 0 0 0 3.4;
      }

      .cls-51 {
        stroke-dasharray: 0 0 0 3.11;
      }

      .cls-52 {
        stroke-dasharray: 0 0 0 2.7;
      }

      .cls-53 {
        stroke-dasharray: 0 0 0 3.11;
      }

      .cls-54 {
        stroke-dasharray: 0 0 0 2.91;
      }

      .cls-55 {
        stroke-dasharray: 0 0 0 4.17;
      }

      .cls-56 {
        stroke-dasharray: 0 0 0 3;
      }

      .cls-57 {
        stroke-dasharray: 0 0 0 4.05;
      }

      .cls-58 {
        stroke-dasharray: 0 0 0 3;
      }

      .cls-59 {
        stroke-dasharray: 0 0 0 2.96;
      }

      .cls-60 {
        stroke-dasharray: 0 0 0 3.09;
      }

      .cls-61 {
        stroke-dasharray: 0 0 0 3.1;
      }

      .cls-62 {
        stroke-dasharray: 0 0 0 3.05;
      }

      .cls-63 {
        stroke-dasharray: 0 0 0 4.17;
      }

      .cls-64 {
        stroke-dasharray: 0 0 0 3.11;
      }

      .cls-65 {
        stroke-dasharray: 0 0 0 3.04;
      }

      .cls-66 {
        stroke-dasharray: 0 0 0 4.34;
      }

      .cls-67 {
        stroke-dasharray: 0 0 0 3.47;
      }

      .cls-68 {
        stroke-dasharray: 0 0 0 3.13;
      }

      .cls-69 {
        stroke-dasharray: 0 0 0 2.79;
      }

      .cls-70 {
        stroke-dasharray: 0 0 0 3.94;
      }

      .cls-71 {
        stroke-dasharray: 0 0 0 2.66;
      }

      .cls-72 {
        stroke-dasharray: 0 0 0 3.02;
      }

      .cls-73 {
        stroke-dasharray: 0 0 0 4.19;
      }

      .cls-74 {
        stroke-dasharray: 0 0 0 3.03;
      }

      .cls-75 {
        stroke-dasharray: 0 0 0 4.28;
      }

      .cls-76 {
        stroke-dasharray: 0 0 0 2.96;
      }

      .cls-77 {
        stroke-dasharray: 0 0 0 3.03;
      }

      .cls-78 {
        stroke-dasharray: 0 0 0 2.87;
      }

      .cls-79 {
        stroke-dasharray: 0 0 0 3.01;
      }

      .cls-80 {
        stroke-dasharray: 0 0 0 2.91;
      }

      .cls-81 {
        stroke-dasharray: 0 0 0 3.1;
      }

      .cls-82 {
        stroke-dasharray: 0 0 0 4.13;
      }

      .cls-83 {
        stroke-dasharray: 0 0 0 3.03;
      }

      .cls-84 {
        stroke-dasharray: 0 0 0 2.82;
      }

      .cls-85 {
        stroke-dasharray: 0 0 0 4.12;
      }

      .cls-86 {
        stroke-dasharray: 0 0 0 4.14;
      }

      .cls-87 {
        stroke-dasharray: 0 0 0 3.1;
      }

      .cls-88 {
        stroke-dasharray: 0 0 0 4.27;
      }

      .cls-89 {
        stroke-dasharray: 0 0 0 2.73;
      }

      .cls-90 {
        stroke-dasharray: 0 0 0 2.73;
      }

      .cls-91 {
        stroke-dasharray: 0 0 0 4.1;
      }
    </style>
  </defs>
  <g id="Layer_1-2" data-name="Layer 1">
    <g>
      <g>
        <g>
          <path class="cls-29" d="m68.52,285.55c-5.67,5.4-7.39,12.74-6.38,19.37,1.17,7.7,6.04,14.44,12.73,16.04,5.2,1.26,11.5-.59,18.01-7.5h0c-.44-2.03-.64-4.05-.39-5.9-5.52,1.83-11.03-3-14.44-7.12,4.14-.13,6.91-4.96,10.2-7.93-7.05.3-14.88-2.47-19.73-6.96Z"/>
          <path class="cls-29" d="m113.28,332.12c-.56,5.5-1.87,10.98-3.94,16.25,2.66-.2,4.81-.87,6.53-1.93,2.59-1.57,4.21-4,5.18-6.95.52-1.55.84-3.24,1.02-5.04-3.01.8-6.07.23-8.79-2.33Z"/>
          <path class="cls-29" d="m136.1,317.01c-1.45,7.78-7.56,15.77-14.03,17.45-.19,1.8-.51,3.49-1.02,5.04,13.71,1.78,27.66-5.78,35.96-16.92.76-1.02,1.49-2.1,2.09-3.23h0c.76-1.46,1.3-2.99,1.37-4.62.01-.09.02-.2.02-.3.07-3.9-2.73-7.52-6.34-9.01-3.41,7.32-9.44,12.51-18.05,11.59Z"/>
          <path class="cls-29" d="m159.09,319.34c-.6,1.14-1.32,2.21-2.09,3.23-8.3,11.14-22.25,18.7-35.96,16.92-.97,2.95-2.59,5.38-5.18,6.95,5,7.13,15.27,6.2,21.77.89,5.11-4.18,10.8-2.57,14.21-6.59,4.78-5.64,7-15.7,7.25-21.4Z"/>
          <path class="cls-29" d="m168.53,292.08c-2.36,5.52-8.27,10.39-13.94,12.32-.14.34-.29.68-.44,1.01,3.61,1.5,6.41,5.11,6.34,9.01,0,.1-.01.21-.02.3,9.66-1.59,12.01-15.08,8.06-22.64Z"/>
          <path class="cls-29" d="m153.86,264.57c-1.81,1.28-3.37,3.05-4.38,4.94,8.52,5.91,10.17,22.89,5.11,34.89,5.67-1.93,11.57-6.79,13.94-12.32h0c1.04-2.46,1.38-5.04.7-7.55-1.88-6.87-.8-15.02-4.76-19.54-1.28-1.46-2.77-2.18-4.32-2.35-2.11-.24-4.34.56-6.29,1.93Z"/>
          <path class="cls-29" d="m52.97,257.51c-6.15.76-10.04,6.47-12.89,14.13-.63,1.67-1.21,3.43-1.74,5.26-3.79,12.8-2.78,22.75,3.56,26.75,1.01.64,2.15,1.17,3.37,1.57,4.8,1.57,10.99,1.34,16.87-.29-1.01-6.63.71-13.97,6.38-19.37-5.52-5.1-7.21-12.4.45-19.88.18-.17.35-.33.53-.5-4.5-4.93-11.19-8.33-16.53-7.67Z"/>
          <path class="cls-29" d="m45.26,305.21c-4.61,11.96-2,23.05,3.81,30.48.52.68,1.07,1.33,1.66,1.94,8.16,8.67,21.03,10.87,30.11.66-.62-1.81-.83-3.7-.51-5.56-3.21-2.08-5.39-5.89-5.47-11.78-6.69-1.6-11.56-8.33-12.73-16.04-5.88,1.65-12.06,1.87-16.87.3Z"/>
          <path class="cls-29" d="m30.33,270.45c-14.41,2.18-15.17,24.92-13.62,39.79.04.38.09.76.17,1.17,2.23,13.15,19.59,35.45,32.2,24.29-5.81-7.43-8.42-18.52-3.81-30.48-1.22-.4-2.35-.93-3.37-1.57-6.34-4.01-7.35-13.95-3.56-26.75.54-1.83,1.12-3.58,1.74-5.26-3.79-1.27-7.02-1.6-9.75-1.19Z"/>
          <path class="cls-29" d="m16.88,311.41c-2.32.44-4.08,1.48-5.29,2.91-3.08,3.68-2.54,10.02,1.57,16.09,6.65,9.84,34.09,18.62,37.57,7.23-.59-.61-1.15-1.26-1.66-1.94-12.6,11.16-29.96-11.14-32.19-24.29Z"/>
          <path class="cls-29" d="m114.5,268.26c.85,4.53.06,10.28-3,17.36,5.42-.83,11.67,2.49,16.22,4.51-3.63,1.25-5.44,9.23-10.77,12.34,1.28,1.06,2.24,2.54,2.92,4.21,4.61-.25,8.18-1.49,10.86-3.46,6.43-4.71,7.75-13.65,5.98-23.41-.69-3.8-2.65-6.74-5.27-8.82-.42-.34-.87-.65-1.33-.95-4.59-2.93-10.69-3.55-15.61-1.78Z"/>
          <path class="cls-29" d="m131.44,271c2.61,2.08,4.57,5.02,5.27,8.82,1.78,9.76.45,18.7-5.98,23.41,5.1,2.98,6.39,8.33,5.37,13.78,8.61.92,14.64-4.26,18.05-11.6.15-.33.3-.67.44-1.01,5.06-12,3.41-28.98-5.11-34.89-4.27-2.99-10.27-3.16-18.04,1.49Z"/>
          <path class="cls-29" d="m89.14,228.25c1.03,1.96,1.72,4.31,1.99,7.07,8.84.29,17.84,1.76,23.75,2.9,15.81,3.05,25.95,20.26,15.23,31.82.46.3.91.61,1.33.95,7.76-4.65,13.76-4.47,18.04-1.49,1.01-1.89,2.57-3.66,4.38-4.94,3.99-20.99-12.9-35.69-32.31-42.6-.19-.07-.38-.13-.58-.21-4.71-1.64-9.55-2.82-14.28-3.52-9.45-1.39-14.46,3.67-17.55,10.02Z"/>
          <path class="cls-29" d="m121.55,221.97c19.41,6.92,36.29,21.61,32.31,42.6,1.95-1.37,4.18-2.17,6.3-1.93,6.41-17.33,1.37-25.49-7.68-36.42-11.29-13.64-24.93-14.89-30.93-4.25Z"/>
          <path class="cls-29" d="m29.35,239.55c-2.24,2.72-3.82,5.52-4.47,8.29-2.08,8.8,1.52,17.45,5.45,22.6,2.73-.41,5.96-.08,9.75,1.19,2.85-7.65,6.73-13.36,12.89-14.13,5.34-.66,12.03,2.74,16.53,7.67.1-.1.21-.2.31-.29-10.6-12.42-7.96-22.94,1.66-27.02,5.22-2.22,12.38-2.79,19.66-2.55-.27-2.77-.96-5.11-1.99-7.07-9.28-17.66-46.43-4.79-59.79,11.31Z"/>
          <path class="cls-29" d="m41.35,211.57c-7.95,4-16.16,16.72-15.48,25.92,1.1.42,2.26,1.1,3.48,2.07,13.36-16.11,50.5-28.97,59.79-11.31,3.09-6.35,8.11-11.41,17.55-10.01,4.73.7,9.57,1.88,14.28,3.52,9.89-33.45-64.38-17.84-79.62-10.19Z"/>
          <path class="cls-29" d="m2.75,281.2c-4.54,11.41-1.22,25.45,8.84,33.12,1.21-1.44,2.96-2.47,5.29-2.91-.07-.4-.12-.78-.17-1.17-1.55-14.88-.8-37.62,13.62-39.79-3.93-5.15-7.53-13.81-5.45-22.6.65-2.77,2.23-5.58,4.47-8.29-1.22-.96-2.37-1.64-3.48-2.07-15.25-5.9-20.1,36.14-23.12,43.71Z"/>
          <path class="cls-29" d="m96.73,323.44c-1.38-2.57-3.05-6.26-3.85-9.97-6.51,6.91-12.8,8.76-18.01,7.5.08,5.9,2.26,9.71,5.47,11.78,7.57,4.93,20.92.25,26.34-9.54-.19-4.04-1.07-7.94-2.92-11.49-2.21,3.75-5.99,7.03-7.03,11.72Z"/>
          <path class="cls-29" d="m80.34,332.74c-.32,1.86-.11,3.75.51,5.56,2.49,7.22,11.6,13.24,19.31,11.77,3.86-8.2,6.94-17.88,6.53-26.87-5.43,9.79-18.78,14.47-26.35,9.54Z"/>
          <path class="cls-29" d="m71.47,237.87c-9.62,4.08-12.27,14.6-1.66,27.02,14.65-13.35,41.5-13.91,44.69,3.37,4.93-1.77,11.02-1.15,15.61,1.79,10.72-11.56.58-28.78-15.23-31.82-5.91-1.15-14.91-2.61-23.75-2.9-7.28-.25-14.43.32-19.66,2.54Z"/>
          <path class="cls-29" d="m69.81,264.89c-.1.09-.21.19-.31.29-.18.17-.35.33-.53.5-7.66,7.48-5.98,14.78-.45,19.88,4.85,4.48,12.68,7.26,19.73,6.96,1.15-1.04,2.35-1.86,3.72-2.17-1.92-3.82-.63-7.81.14-14.95,6.77,3.38,13.37,6.05,14.57,12.39,1.47-1.25,3.1-1.92,4.81-2.17,3.07-7.07,3.85-12.82,3-17.36-3.18-17.28-30.03-16.72-44.68-3.37Z"/>
          <path class="cls-29" d="m121.05,316.4c-1.94-1.64-6.02-2.89-8.93-3.45,1.42,6.25,1.82,12.72,1.16,19.16h0c2.72,2.57,5.78,3.14,8.79,2.34,6.47-1.68,12.59-9.67,14.03-17.45,1.02-5.45-.27-10.8-5.37-13.78-2.68,1.97-6.26,3.21-10.86,3.46,1.29,3.12,1.59,6.88,1.18,9.72Z"/>
          <g>
            <line class="cls-50" x1="68.69" y1="288.56" x2="68.69" y2="288.56"/>
            <path class="cls-91" d="m66.38,291.94c-1.51,2.82-2.32,6.03-2.32,9.4,0,1.08.08,2.18.25,3.26,1.09,7.19,5.54,12.91,11.07,14.23,4.32,1.05,8.99-.56,13.63-4.66"/>
            <line class="cls-50" x1="90.5" y1="312.76" x2="90.5" y2="312.76"/>
          </g>
          <g>
            <line class="cls-50" x1="112.69" y1="345.51" x2="112.69" y2="345.51"/>
            <path class="cls-3" d="m115.98,343.64c1.32-1.17,2.29-2.75,2.97-4.81"/>
            <line class="cls-50" x1="119.45" y1="336.99" x2="119.45" y2="336.99"/>
          </g>
          <g>
            <line class="cls-50" x1="123.83" y1="337.53" x2="123.83" y2="337.53"/>
            <path class="cls-75" d="m128.11,337.41c10.11-1,20.25-6.9,27.14-16.15,2.91-3.42,4.2-8.06,1.4-11.4"/>
            <line class="cls-50" x1="155.07" y1="308.43" x2="155.07" y2="308.43"/>
          </g>
          <g>
            <line class="cls-50" x1="119.05" y1="346.78" x2="119.05" y2="346.78"/>
            <path class="cls-88" d="m122.74,348.87c.6.18,1.18.3,1.7.37,3.89.54,8.41-.85,11.79-3.61,2.88-2.36,5.83-3.09,8.44-3.75,2.35-.59,4.2-1.05,5.48-2.56,2.1-2.48,3.66-5.96,4.75-9.46"/>
            <line class="cls-50" x1="155.5" y1="327.81" x2="155.5" y2="327.81"/>
          </g>
          <g>
            <line class="cls-50" x1="162.39" y1="311.84" x2="162.39" y2="311.84"/>
            <path class="cls-25" d="m165.5,309.19c1.81-2.43,2.66-5.8,2.66-9.01,0-.26-.01-.52-.02-.78"/>
            <line class="cls-50" x1="167.94" y1="297.34" x2="167.94" y2="297.34"/>
          </g>
          <g>
            <line class="cls-50" x1="158.32" y1="300.19" x2="158.32" y2="300.19"/>
            <path class="cls-73" d="m161.67,297.67c2.08-1.87,3.77-4.05,4.76-6.26l.08-.2c.58-1.37.88-2.72.88-4,0-.72-.09-1.42-.28-2.1-.73-2.66-1.03-5.42-1.32-8.09-.46-4.23-.9-8.22-2.97-10.57-.85-.97-1.8-1.5-2.91-1.62-1.44-.16-3.14.39-4.79,1.55-.47.33-.92.7-1.34,1.1"/>
            <line class="cls-50" x1="152.38" y1="269.04" x2="152.38" y2="269.04"/>
          </g>
          <g>
            <line class="cls-50" x1="66.4" y1="265.18" x2="66.4" y2="265.18"/>
            <path class="cls-11" d="m63.21,262.7c-3.38-2.2-7.04-3.37-9.98-3.01-4.55.56-8.08,4.61-11.1,12.71-.59,1.56-1.16,3.28-1.7,5.11-1.41,4.76-2.12,9.06-2.12,12.77s.82,9.03,4.75,11.51c.85.54,1.82.99,2.88,1.34,3.27,1.07,7.43,1.24,11.8.52"/>
            <line class="cls-50" x1="59.74" y1="303.26" x2="59.74" y2="303.26"/>
          </g>
          <g>
            <line class="cls-50" x1="46.66" y1="307.86" x2="46.66" y2="307.86"/>
            <path class="cls-30" d="m45.61,311.99c-.34,1.83-.51,3.66-.51,5.48,0,6.18,2.02,12.17,5.7,16.87.48.64.99,1.22,1.51,1.77,4.13,4.39,9.43,6.85,14.56,6.78,3.59-.05,6.97-1.33,9.93-3.75"/>
            <line class="cls-50" x1="78.39" y1="337.71" x2="78.39" y2="337.71"/>
          </g>
          <g>
            <line class="cls-50" x1="37.23" y1="273.09" x2="37.23" y2="273.09"/>
            <path class="cls-82" d="m33.15,272.5c-16.19-.41-16.08,25.23-14.11,38.52,1.24,8.33,13.08,28.06,25.06,24.93"/>
            <line class="cls-50" x1="46.03" y1="335.24" x2="46.03" y2="335.24"/>
          </g>
          <g>
            <line class="cls-50" x1="15.26" y1="314.22" x2="15.26" y2="314.22"/>
            <path class="cls-45" d="m12.42,317.13c-.39.91-.6,1.96-.6,3.13,0,2.74,1.12,5.91,3.16,8.92,3.81,5.64,15.77,11.03,24.48,11.59,2.54.3,4.84-.21,6.96-1.29"/>
            <line class="cls-50" x1="48.2" y1="338.41" x2="48.2" y2="338.41"/>
          </g>
          <g>
            <line class="cls-50" x1="121.21" y1="304.37" x2="121.21" y2="304.37"/>
            <path class="cls-37" d="m125.32,303.52c1.55-.5,2.93-1.19,4.11-2.06,3.85-2.82,5.81-7.58,5.81-14.14,0-2.21-.23-4.6-.69-7.1-.55-3.01-2.09-5.6-4.47-7.49-.33-.26-.69-.52-1.16-.83-2.86-1.82-6.47-2.65-9.91-2.36"/>
            <line class="cls-50" x1="116.93" y1="269.84" x2="116.93" y2="269.84"/>
          </g>
          <g>
            <line class="cls-50" x1="138.58" y1="314.9" x2="138.58" y2="314.9"/>
            <path class="cls-41" d="m142.7,314.11c5.07-1.85,7.99-6.48,9.45-9.62.14-.3.26-.59.39-.89,1.75-4.15,2.7-9.09,2.7-13.97,0-8.3-2.69-15.32-7.02-18.32-3.02-2.11-6.76-2.32-11.17-.65"/>
            <line class="cls-50" x1="135.12" y1="271.5" x2="135.12" y2="271.5"/>
          </g>
          <g>
            <line class="cls-50" x1="151.85" y1="263.34" x2="151.85" y2="263.34"/>
            <path class="cls-55" d="m152.24,259.19c.01-.24.01-.48.01-.72,0-14.55-11.75-27.42-31.44-34.44l-.6-.22c-4.47-1.56-9.14-2.71-13.84-3.41-6-.89-10.42,1.04-13.72,6.07"/>
            <line class="cls-50" x1="91.59" y1="228.27" x2="91.59" y2="228.27"/>
          </g>
          <g>
            <line class="cls-50" x1="158.61" y1="260.44" x2="158.61" y2="260.44"/>
            <path class="cls-27" d="m159.8,256.46c.7-2.78,1.05-5.33,1.05-7.71,0-8.33-4.36-14.26-10.06-21.13-5.87-7.1-12.85-11.03-18.67-10.51-2.15.19-4.07.98-5.7,2.32"/>
            <line class="cls-50" x1="124.94" y1="220.9" x2="124.94" y2="220.9"/>
          </g>
          <g>
            <line class="cls-50" x1="88.56" y1="233.08" x2="88.56" y2="233.08"/>
            <path class="cls-15" d="m87.19,229.26c-2.18-4.14-6.28-6.55-12.19-7.17-13.63-1.43-34.59,7.56-43.96,18.86-2.12,2.57-3.48,5.06-4.02,7.39-.36,1.55-.55,3.16-.55,4.79,0,4.4,1.39,9.17,3.8,13.28"/>
            <line class="cls-50" x1="31.36" y1="268.13" x2="31.36" y2="268.13"/>
          </g>
          <g>
            <line class="cls-50" x1="119.4" y1="218.93" x2="119.4" y2="218.93"/>
            <path class="cls-85" d="m119.61,214.83c-.34-3.14-1.97-5.58-4.97-7.43-15.77-9.73-61.35.64-72.31,6.14-6.52,3.28-12.94,12.83-14.12,20.48"/>
            <line class="cls-50" x1="28.03" y1="236.06" x2="28.03" y2="236.06"/>
          </g>
          <g>
            <line class="cls-50" x1="26.2" y1="240.06" x2="26.2" y2="240.06"/>
            <path class="cls-63" d="m22.1,239.66c-11.13,2.19-13.41,32.8-17.31,42.35-3.8,9.21-1.53,20.87,5.2,27.95"/>
            <line class="cls-50" x1="11.5" y1="311.4" x2="11.5" y2="311.4"/>
          </g>
          <g>
            <line class="cls-50" x1="77.27" y1="323.51" x2="77.27" y2="323.51"/>
            <path class="cls-70" d="m78.38,327.29c4.47,9.18,19.36,4.87,25.04-2.94"/>
            <line class="cls-50" x1="104.45" y1="322.67" x2="104.45" y2="322.67"/>
          </g>
          <g>
            <line class="cls-50" x1="82.55" y1="336.18" x2="82.55" y2="336.18"/>
            <path class="cls-44" d="m84.16,340.16c2.61,4.22,7.61,7.38,12.35,7.87"/>
            <line class="cls-50" x1="98.67" y1="348.06" x2="98.67" y2="348.06"/>
          </g>
          <g>
            <line class="cls-50" x1="129.6" y1="267.23" x2="129.6" y2="267.23"/>
            <path class="cls-57" d="m131.55,263.69c.53-1.44.8-2.95.8-4.53,0-8.6-7.86-16.85-17.88-18.79-5.93-1.15-14.8-2.58-23.4-2.86-8.1-.27-14.4.53-18.73,2.38-4.62,1.96-7.16,5.46-7.16,9.87,0,3.17,1.29,6.7,3.75,10.35"/>
            <line class="cls-50" x1="70.1" y1="261.76" x2="70.1" y2="261.76"/>
          </g>
          <g>
            <line class="cls-50" x1="109.92" y1="283.69" x2="109.92" y2="283.69"/>
            <path class="cls-86" d="m111.31,279.8c.87-2.87,1.31-5.54,1.31-7.95,0-1.11-.09-2.18-.28-3.18-1.15-6.24-5.71-9-9.33-10.22-9.52-3.2-23.15.27-31.72,8.07-.1.09-.16.15-.23.21l-.58.55c-2.97,2.9-4.49,5.86-4.49,8.76,0,3.47,2.19,6.21,4.02,7.91,3.79,3.5,9.69,5.88,15.34,6.32"/>
            <line class="cls-50" x1="87.41" y1="290.34" x2="87.41" y2="290.34"/>
          </g>
          <g>
            <line class="cls-50" x1="115.57" y1="331.19" x2="115.57" y2="331.19"/>
            <path class="cls-66" d="m119.59,332.6c.62,0,1.26-.09,1.92-.27,5.42-1.41,11.11-8.61,12.44-15.73.19-1.02.29-2.01.29-2.95,0-2.53-.66-4.62-1.96-6.28"/>
            <line class="cls-50" x1="130.73" y1="305.86" x2="130.73" y2="305.86"/>
          </g>
        </g>
        <g>
          <path class="cls-1" d="m100.95,294.56c.67-.59,1.39-1.16,2.17-1.71.86,1.21,1.66,2.44,2.42,3.69,1.3-3.56,1.59-6.41,1.15-8.75-1.2-6.34-7.8-9.01-14.57-12.39l8.83,19.16Z"/>
          <path class="cls-1" d="m92.11,275.39c-.77,7.15-2.07,11.13-.14,14.95,1.03,2.1,3.04,4.14,6.59,6.64.73-.87,1.53-1.66,2.4-2.43l-8.85-19.16Z"/>
          <path class="cls-1" d="m91.97,290.35c-1.36.31-2.57,1.13-3.72,2.17-3.29,2.97-6.06,7.8-10.2,7.93,5.19,4.57,11.48-1.72,18.83-1.25.53-.78,1.08-1.52,1.67-2.21-3.55-2.5-5.55-4.55-6.58-6.64Z"/>
          <path class="cls-1" d="m78.05,300.44c3.41,4.12,8.91,8.95,14.44,7.12.27-2.05,1.07-3.89,2.66-5.26-.02-.02-.05-.03-.07-.05.58-1.11,1.18-2.13,1.81-3.07-7.36-.46-13.65,5.84-18.84,1.26Z"/>
          <path class="cls-1" d="m98.82,305.22c-1.93,4.4-2.46,10.7-2.1,18.21,1.04-4.69,4.82-7.97,7.03-11.73-1.21-2.31-2.83-4.49-4.93-6.48Z"/>
          <path class="cls-1" d="m95.15,302.31c-1.59,1.36-2.4,3.2-2.66,5.26-.25,1.85-.05,3.86.39,5.89h0c.81,3.73,2.47,7.41,3.85,9.98-.36-7.52.17-13.82,2.1-18.21-1.1-1.03-2.32-2.01-3.68-2.92Z"/>
          <path class="cls-1" d="m127.72,290.13c-9.53,1-14.64,5.18-21.85,6.97,1.17,2,2.2,4.05,3.1,6.15,3.38.89,5.95.41,7.98-.78,5.32-3.11,7.13-11.09,10.77-12.34Z"/>
          <path class="cls-1" d="m111.49,285.62c-1.71.25-3.35.92-4.81,2.17.44,2.33.15,5.18-1.15,8.75.11.19.23.38.33.57,7.21-1.79,12.32-5.97,21.85-6.97-4.55-2.03-10.8-5.35-16.22-4.52Z"/>
          <path class="cls-1" d="m108.96,303.25c.2.44.37.89.56,1.34,4.78,2.3,8.58,6.32,11.53,11.8.4-2.84.1-6.6-1.19-9.72-.68-1.67-1.64-3.15-2.92-4.21-2.03,1.21-4.6,1.68-7.98.79Z"/>
          <path class="cls-1" d="m109.52,304.59c1.08,2.72,1.94,5.51,2.6,8.35,2.91.56,6.99,1.81,8.93,3.45-2.95-5.48-6.75-9.49-11.53-11.8Z"/>
        </g>
        <path class="cls-29" d="m103.12,292.84c-3.49,2.5-5.9,5.28-8.04,9.42,20.23,13.46,9.84,40.76.63,56.14,3.11-.67,6.25-1.09,9.43-1.29,11.87-20.41,11.29-45.59-2.02-64.27Z"/>
      </g>
      <g>
        <g>
          <g>
            <g>
              <line class="cls-92" x1="89.55" y1="87.81" x2="89.55" y2="87.81"/>
              <path class="cls-42" d="m86.75,86.68c-10.64-5.54-11.06-21.8-11.35-32.9v-.15c.02-.77.04-1.56.04-2.35,0-1.54-.09-3.2-.46-4.79"/>
              <line class="cls-92" x1="74.55" y1="45.03" x2="74.55" y2="45.03"/>
              <path class="cls-79" d="m77.22,46.41c8.4,4.84,14.44,13.33,15.96,22.9.97,6.11-.02,12.01-2.87,17.2"/>
            </g>
            <g>
              <line class="cls-92" x1="95.38" y1="69.49" x2="95.38" y2="69.49"/>
              <path class="cls-60" d="m97.61,67.35c6.74-5.55,14.43-4.25,21.59-7.82"/>
              <line class="cls-92" x1="120.56" y1="58.79" x2="120.56" y2="58.79"/>
              <path class="cls-72" d="m120.12,61.77c-2.51,14.96-9.24,24.24-26.58,25.94"/>
              <line class="cls-92" x1="92.03" y1="87.84" x2="92.03" y2="87.84"/>
            </g>
            <g>
              <line class="cls-92" x1="117.13" y1="77.15" x2="117.13" y2="77.15"/>
              <path class="cls-47" d="m120.16,76.28c8.11-2.07,14.72-1.61,23.3,1.22"/>
              <line class="cls-92" x1="144.96" y1="78.01" x2="144.96" y2="78.01"/>
              <path class="cls-34" d="m142.47,79.75c-5.74,4.47-10.66,11.13-17.71,13.23-9.73,2.95-21.09,2.34-30.12-2.37"/>
              <line class="cls-92" x1="93.3" y1="89.88" x2="93.3" y2="89.88"/>
            </g>
            <g>
              <line class="cls-92" x1="79.06" y1="82.51" x2="79.06" y2="82.51"/>
              <path class="cls-48" d="m76.29,81.27c-21.68-10.29-21.53-26-21.38-47.54"/>
              <line class="cls-92" x1="54.92" y1="32.21" x2="54.92" y2="32.21"/>
              <path class="cls-24" d="m57.29,34.03c5.58,4.35,12.08,9.97,15.36,16.12"/>
              <line class="cls-92" x1="73.3" y1="51.49" x2="73.3" y2="51.49"/>
            </g>
            <g>
              <line class="cls-92" x1="104.45" y1="96.2" x2="104.45" y2="96.2"/>
              <path class="cls-65" d="m107.23,97.42c14.48,7.06,31.94,26.49,35.87,41.66"/>
              <line class="cls-92" x1="143.45" y1="140.56" x2="143.45" y2="140.56"/>
              <path class="cls-62" d="m140.77,139.08c-8.97-4.42-19.02-4.42-26.51-11.26"/>
              <line class="cls-92" x1="113.17" y1="126.75" x2="113.17" y2="126.75"/>
            </g>
            <g>
              <line class="cls-92" x1="91.43" y1="91.26" x2="91.43" y2="91.26"/>
              <path class="cls-23" d="m93.77,93.04c6.59,4.96,12.9,9.52,15.73,19.64,3.98,13.7.97,28.02-11.56,35.58"/>
              <line class="cls-92" x1="96.66" y1="148.99" x2="96.66" y2="148.99"/>
              <path class="cls-21" d="m97.35,146.05c2.5-15.65-13.68-28.83-11.14-47.77"/>
              <line class="cls-92" x1="86.44" y1="96.79" x2="86.44" y2="96.79"/>
            </g>
            <g>
              <line class="cls-92" x1="88.5" y1="89.72" x2="88.5" y2="89.72"/>
              <path class="cls-74" d="m86.98,92.34c-8.97,14.02-26.54,19.9-40.06,29.11"/>
              <line class="cls-92" x1="45.68" y1="122.31" x2="45.68" y2="122.31"/>
              <path class="cls-76" d="m45.9,119.36c2.06-18.12,16.41-30.16,35.01-32.88"/>
              <line class="cls-92" x1="82.38" y1="86.28" x2="82.38" y2="86.28"/>
            </g>
            <g>
              <line class="cls-92" x1="52.55" y1="98.81" x2="52.55" y2="98.81"/>
              <path class="cls-13" d="m49.61,99.4c-8.13,1.1-17.33-1.48-25.38,1.4"/>
              <line class="cls-92" x1="22.83" y1="101.36" x2="22.83" y2="101.36"/>
              <path class="cls-33" d="m24.41,98.86c9.72-14.16,28.02-21.08,45.5-18.08"/>
              <line class="cls-92" x1="71.36" y1="81.05" x2="71.36" y2="81.05"/>
            </g>
            <g>
              <line class="cls-92" x1="36.69" y1="84.63" x2="36.69" y2="84.63"/>
              <path class="cls-53" d="m33.59,84.33c-10.03-1.33-13.96-5.44-22.69-4.86"/>
              <line class="cls-92" x1="9.35" y1="79.62" x2="9.35" y2="79.62"/>
              <path class="cls-58" d="m11.09,77.18c10.17-12.71,30.89-15.23,45.59-9.28"/>
              <line class="cls-92" x1="58.06" y1="68.48" x2="58.06" y2="68.48"/>
            </g>
            <g>
              <line class="cls-92" x1="45.69" y1="62.97" x2="45.69" y2="62.97"/>
              <path class="cls-40" d="m43.55,60.92c-8.76-8.73-15.1-19.69-18.67-31.57"/>
              <line class="cls-92" x1="24.46" y1="27.93" x2="24.46" y2="27.93"/>
              <path class="cls-17" d="m26.91,29.48c8.61,5.1,19.38,8.41,25.22,16.62"/>
              <line class="cls-92" x1="52.93" y1="47.3" x2="52.93" y2="47.3"/>
            </g>
            <g>
              <line class="cls-92" x1="46.04" y1="37.42" x2="46.04" y2="37.42"/>
              <path class="cls-43" d="m45.05,34.43c-2.14-7.35-.9-10.65-2.04-17.14"/>
              <line class="cls-92" x1="42.71" y1="15.75" x2="42.71" y2="15.75"/>
              <path class="cls-80" d="m45.52,16.51c5.99,2.17,10.4,7.49,11.93,13.73"/>
              <line class="cls-92" x1="57.74" y1="31.66" x2="57.74" y2="31.66"/>
            </g>
            <g>
              <line class="cls-92" x1="31.87" y1="29.78" x2="31.87" y2="29.78"/>
              <path class="cls-18" d="m32.31,26.94c.54-2.28,1.43-4.6,1.96-6.92"/>
              <line class="cls-92" x1="34.55" y1="18.62" x2="34.55" y2="18.62"/>
              <path class="cls-2" d="m36.85,20.31c1.21.81,2.46,1.6,3.51,2.47"/>
              <line class="cls-92" x1="41.41" y1="23.75" x2="41.41" y2="23.75"/>
            </g>
            <g>
              <line class="cls-92" x1="60.32" y1="33.69" x2="60.32" y2="33.69"/>
              <path class="cls-54" d="m60.52,30.78c1.1-12.38,5.06-22.66,15.71-27.66"/>
              <line class="cls-92" x1="77.57" y1="2.54" x2="77.57" y2="2.54"/>
              <path class="cls-31" d="m77.08,5.6c-1.18,10.64,1.74,25.26-2.39,35.46"/>
              <line class="cls-92" x1="74.05" y1="42.48" x2="74.05" y2="42.48"/>
            </g>
            <g>
              <line class="cls-92" x1="79.18" y1="20.16" x2="79.18" y2="20.16"/>
              <path class="cls-8" d="m81.74,18.83c3.05-1.32,6.31-2.1,8.95-4.61"/>
              <line class="cls-92" x1="91.68" y1="13.15" x2="91.68" y2="13.15"/>
              <path class="cls-6" d="m92.94,15.77c3.21,7.01,6.21,16.57,4.59,23.89"/>
              <line class="cls-92" x1="97.15" y1="41.06" x2="97.15" y2="41.06"/>
            </g>
            <g>
              <line class="cls-92" x1="52.48" y1="18" x2="52.48" y2="18"/>
              <path class="cls-39" d="m52.95,14.99c.93-3.86,2.94-6.49,5.34-9.07"/>
              <line class="cls-92" x1="59.35" y1="4.82" x2="59.35" y2="4.82"/>
              <path class="cls-12" d="m60.8,7.11c.79,1.12,1.64,2.23,2.35,3.33"/>
              <line class="cls-92" x1="63.84" y1="11.6" x2="63.84" y2="11.6"/>
            </g>
            <g>
              <line class="cls-92" x1="98.99" y1="26.23" x2="98.99" y2="26.23"/>
              <path class="cls-16" d="m101.63,24.57c5.83-3.28,12.76-4.8,19.48-4.19"/>
              <line class="cls-92" x1="122.65" y1="20.56" x2="122.65" y2="20.56"/>
              <path class="cls-35" d="m120.75,23.05c-3.98,6.52-2.99,15.56-6.48,22.53"/>
              <line class="cls-92" x1="113.5" y1="46.95" x2="113.5" y2="46.95"/>
            </g>
            <g>
              <line class="cls-92" x1="119.56" y1="33.93" x2="119.56" y2="33.93"/>
              <path class="cls-9" d="m122.43,32.79c3.37-.97,7.29-1.14,10.65-1.93"/>
              <line class="cls-92" x1="134.57" y1="30.45" x2="134.57" y2="30.45"/>
              <path class="cls-87" d="m135.42,33.44c2.38,9.25,2.12,18.21-7.55,22.63"/>
              <line class="cls-92" x1="126.44" y1="56.66" x2="126.44" y2="56.66"/>
            </g>
            <g>
              <line class="cls-92" x1="150.37" y1="53.42" x2="150.37" y2="53.42"/>
              <path class="cls-22" d="m149.94,55.26c-.09.31-.18.61-.27.91"/>
              <line class="cls-92" x1="149.35" y1="57.06" x2="149.35" y2="57.06"/>
            </g>
            <g>
              <line class="cls-92" x1="138.92" y1="40.36" x2="138.92" y2="40.36"/>
              <path class="cls-28" d="m141.57,39.61c.19-.03.38-.05.57-.08,1.87-.27,4.06-.58,6.01-1.89"/>
              <line class="cls-92" x1="149.24" y1="36.77" x2="149.24" y2="36.77"/>
              <path class="cls-71" d="m149.95,39.33c.3,1.29.54,2.61.7,3.93"/>
              <line class="cls-92" x1="150.78" y1="44.59" x2="150.78" y2="44.59"/>
            </g>
            <g>
              <line class="cls-92" x1="128.49" y1="72.88" x2="128.49" y2="72.88"/>
              <path class="cls-83" d="m130.4,70.53c7.8-8.16,22.16-9.39,28.58-19.32"/>
              <line class="cls-92" x1="159.75" y1="49.9" x2="159.75" y2="49.9"/>
              <path class="cls-19" d="m160.38,52.78c1.33,8.29-1.38,16.96-7.19,23.09"/>
              <line class="cls-92" x1="152.15" y1="76.91" x2="152.15" y2="76.91"/>
            </g>
            <g>
              <line class="cls-92" x1="148.91" y1="78.87" x2="148.91" y2="78.87"/>
              <path class="cls-59" d="m151.86,79.04c5.42.68,11.14,2.93,15.84-.23"/>
              <line class="cls-92" x1="168.87" y1="77.9" x2="168.87" y2="77.9"/>
              <path class="cls-56" d="m168.08,80.79c-2.66,7.98-9.1,15.51-17.24,17.39"/>
              <line class="cls-92" x1="149.36" y1="98.45" x2="149.36" y2="98.45"/>
            </g>
            <g>
              <line class="cls-92" x1="158.94" y1="96.82" x2="158.94" y2="96.82"/>
              <path class="cls-38" d="m160.89,98.91c1.28,1.88,2.08,4.34,2.35,6.71"/>
              <line class="cls-92" x1="163.34" y1="107.06" x2="163.34" y2="107.06"/>
              <path class="cls-67" d="m160.14,105.72c-.56-.17-1.12-.31-1.68-.44"/>
              <line class="cls-92" x1="156.76" y1="104.92" x2="156.76" y2="104.92"/>
            </g>
            <g>
              <line class="cls-92" x1="151.63" y1="116.19" x2="151.63" y2="116.19"/>
              <path class="cls-46" d="m153.4,118.59c1.36,2.97.94,6.92-.11,10.32"/>
              <line class="cls-92" x1="152.8" y1="130.32" x2="152.8" y2="130.32"/>
              <path class="cls-52" d="m150.96,128.37c-2.71-2.07-6.17-1.92-9.05-1.89"/>
              <line class="cls-92" x1="140.56" y1="126.47" x2="140.56" y2="126.47"/>
            </g>
            <g>
              <line class="cls-92" x1="127.5" y1="136.72" x2="127.5" y2="136.72"/>
              <path class="cls-89" d="m127.47,139.45c.14,3.02.85,6.36,2.45,9.14"/>
              <line class="cls-92" x1="130.65" y1="149.74" x2="130.65" y2="149.74"/>
              <path class="cls-81" d="m127.57,149.44c-7.15-1.01-14.15-4.23-16.96-9.52"/>
              <line class="cls-92" x1="109.98" y1="138.51" x2="109.98" y2="138.51"/>
            </g>
            <g>
              <line class="cls-92" x1="92.37" y1="130.72" x2="92.37" y2="130.72"/>
              <path class="cls-5" d="m91.27,133.62c-2.93,6.29-7.82,7.97-12.98,10.37"/>
              <line class="cls-92" x1="76.89" y1="144.66" x2="76.89" y2="144.66"/>
              <path class="cls-78" d="m77.06,141.8c-.1-6.18-2.91-11.99-.43-18.45"/>
              <line class="cls-92" x1="77.21" y1="122.03" x2="77.21" y2="122.03"/>
            </g>
            <g>
              <line class="cls-92" x1="45.09" y1="112.57" x2="45.09" y2="112.57"/>
              <path class="cls-64" d="m41.99,112.4c-2.63.16-5.27,1.03-7.29,2.42"/>
              <line class="cls-92" x1="33.49" y1="115.79" x2="33.49" y2="115.79"/>
              <path class="cls-4" d="m32.63,112.75c-.61-3.77.56-7.24,3.4-10.08"/>
              <line class="cls-92" x1="37.22" y1="101.6" x2="37.22" y2="101.6"/>
            </g>
            <g>
              <line class="cls-92" x1="25.42" y1="94.11" x2="25.42" y2="94.11"/>
              <path class="cls-90" d="m22.71,93.87c-3.18-.44-6.41-1.26-9.47-.59"/>
              <line class="cls-92" x1="11.93" y1="93.66" x2="11.93" y2="93.66"/>
              <path class="cls-69" d="m12.44,90.92c1.06-3.21,3.58-5.7,6.2-7.28"/>
              <line class="cls-92" x1="19.86" y1="82.97" x2="19.86" y2="82.97"/>
              <line class="cls-92" x1="20.11" y1="83.05" x2="20.11" y2="83.05"/>
            </g>
            <g>
              <line class="cls-92" x1="11.94" y1="73" x2="11.94" y2="73"/>
              <path class="cls-49" d="m8.85,71.58c-1.5-.83-2.88-1.74-4.49-2.41"/>
              <line class="cls-92" x1="2.75" y1="68.62" x2="2.75" y2="68.62"/>
              <path class="cls-26" d="m4.86,66.57c3.73-3.18,7.83-4.51,12.25-3.36"/>
              <line class="cls-92" x1="18.51" y1="63.65" x2="18.51" y2="63.65"/>
            </g>
            <g>
              <line class="cls-92" x1="24.01" y1="65.58" x2="24.01" y2="65.58"/>
              <path class="cls-68" d="m21.58,63.6c-4.27-3.8-7.34-8.34-9.73-14.05"/>
              <line class="cls-92" x1="11.26" y1="48.09" x2="11.26" y2="48.09"/>
              <path class="cls-20" d="m14.33,48.92c5.64,1.15,11.95.73,17.31,2.29"/>
              <line class="cls-92" x1="33.14" y1="51.71" x2="33.14" y2="51.71"/>
            </g>
            <g>
              <line class="cls-92" x1="16.47" y1="47.11" x2="16.47" y2="47.11"/>
              <path class="cls-14" d="m15.19,44.26c-.78-2.3-1.07-4.86-.9-7.72"/>
              <line class="cls-92" x1="14.44" y1="34.98" x2="14.44" y2="34.98"/>
              <path class="cls-84" d="m17.08,35.97c2.23.62,4.65.87,6.96,1.18"/>
              <line class="cls-92" x1="25.44" y1="37.35" x2="25.44" y2="37.35"/>
            </g>
            <g>
              <line class="cls-92" x1="158.65" y1="72.18" x2="158.65" y2="72.18"/>
              <path class="cls-77" d="m161.47,71.06c.48-.16.96-.31,1.45-.45"/>
              <line class="cls-92" x1="164.38" y1="70.17" x2="164.38" y2="70.17"/>
              <path class="cls-51" d="m163.46,73.14c-.44,1.55-.95,3.08-1.97,4.18"/>
              <line class="cls-92" x1="160.26" y1="78.26" x2="160.26" y2="78.26"/>
            </g>
            <g>
              <line class="cls-92" x1="138.23" y1="47.41" x2="138.23" y2="47.41"/>
              <path class="cls-32" d="m141.25,46.81c3.59-.52,7.4-.39,10.6.91"/>
              <line class="cls-92" x1="153.23" y1="48.37" x2="153.23" y2="48.37"/>
              <path class="cls-10" d="m150.57,50.27c-2.76,2.56-4.45,6.16-6.93,9.12"/>
              <line class="cls-92" x1="142.54" y1="60.6" x2="142.54" y2="60.6"/>
            </g>
            <g>
              <line class="cls-92" x1="129.69" y1="93.32" x2="129.69" y2="93.32"/>
              <path class="cls-61" d="m132.78,93.62c13.2,1.81,21.68,10.42,26.45,21.43"/>
              <line class="cls-92" x1="159.83" y1="116.48" x2="159.83" y2="116.48"/>
              <path class="cls-36" d="m157.19,115.25c-7.44-2.72-16.69-.68-24.66-1.07"/>
              <line class="cls-92" x1="131.06" y1="114.08" x2="131.06" y2="114.08"/>
            </g>
          </g>
          <path class="cls-29" d="m93.51,130.64c-3.34,11.92-12.85,12.46-18.42,16.31,3.31-7.52-3.64-15.73,1.28-25.65,3.82-2.62,7.32-5.33,10.28-8.04,1.75,6.55,4.62,12.2,6.86,17.38Z"/>
          <path class="cls-7" d="m75.35,42.2c20.27-1.82,46.74,6.52,55.76,26"/>
          <path class="cls-7" d="m76.95,45.03s0-.01,0,0c19.43-.69,43.16,7.47,52.06,25.29"/>
          <path class="cls-29" d="m90.03,89.05c-14.96-3.75-15.38-22.84-15.7-35.43.02-.77.04-1.56.04-2.35-.01-3.04-.36-6.12-2.29-8.39,11.92,4.13,20.34,14.78,22.16,26.26,1.08,6.73-.12,13.75-4.21,19.91Z"/>
          <path class="cls-29" d="m122.01,56.21c-1.02,7.65-2.36,14.56-5.59,20.04h-.01c-4.26,7.25-11.84,12.03-26.38,12.79,4.09-6.16,5.28-13.18,4.21-19.91,9.44-10.53,20.83-5.88,27.77-12.92Z"/>
          <path class="cls-29" d="m147.58,77.84c-7.69,3.41-13.23,13.38-22.51,16.17-6.38,1.92-13.49,2.4-20.31,1.15-4.45-.83-8.79-2.39-12.71-4.79-.68-.42-1.35-.86-2.01-1.33,14.54-.76,22.12-5.54,26.38-12.79h.01c11.53-3.85,20.39-2.59,31.15,1.59Z"/>
          <path class="cls-29" d="m82.68,85.11c-4.24-1.57-7.84-3.26-10.93-5.07,0,0,0-.01-.01-.01-20.4-11.97-17.48-29.12-17.94-50.01,6.6,4.98,16.81,12.59,20.57,21.25,0,.8-.02,1.58-.04,2.35.32,10.05.48,24.24,8.35,31.49Z"/>
          <path class="cls-29" d="m144.9,142.77c-11.59-8.02-24.25-6.01-32.83-15.63.42-4.97-.25-10.03-1.54-14.74-3.22-11.77-11.7-16.71-18.48-22.02,3.92,2.39,8.26,3.96,12.71,4.79,19.35,8.01,38.4,32.15,40.14,47.6Z"/>
          <path class="cls-29" d="m112.07,127.13c-.81,9.52-5.65,18.69-18.03,24.41,10.37-15.26-11.92-28.89-8.62-55.18,1.78-2.2,3.35-4.62,4.62-7.31.66.47,1.33.91,2.01,1.33,6.79,5.3,15.27,10.25,18.48,22.02,1.28,4.71,1.96,9.76,1.54,14.73Z"/>
          <path class="cls-29" d="m90.03,89.05c-1.27,2.68-2.83,5.1-4.62,7.31-10.31,12.74-28.07,18.43-40.84,28.1-.08-9.85,3.08-18.22,8.59-24.7,6.84-8.07,17.29-13.2,29.58-14.59,1.93,1.76,4.32,3.11,7.29,3.88Z"/>
          <path class="cls-29" d="m82.74,85.16c-12.29,1.4-22.74,6.53-29.58,14.59-10.07,3.12-24.13-2.68-33.2,4.62,9.72-19.73,30.72-28.38,51.79-24.34,3.08,1.85,6.77,3.5,10.99,5.13Z"/>
          <path class="cls-29" d="m71.74,80.03c-12.39-2.38-24.75-.36-34.81,5.71-8.64-.94-13.4-2.67-17.14-3.92-4.16-1.38-7.03-2.17-12.56-.58,1.3-2.65,3-4.98,5-7,3.22-3.26,7.23-5.72,11.62-7.44,6.7-2.61,14.3-3.48,21.39-2.79,4.94.48,9.63,1.72,13.59,3.66h0c2.63,4.58,6.68,8.7,12.91,12.36Z"/>
          <path class="cls-29" d="m58.82,67.66c-3.96-1.93-8.65-3.18-13.59-3.66-4.44-4.03-8.22-8.47-11.39-13.17-3.11-4.6-5.64-9.45-7.64-14.45-1.5-3.74-2.7-7.57-3.62-11.41,2.18,2.13,5.04,3.83,8.2,5.45,4.56,2.35,9.73,4.54,14.36,7.68,3.39,2.3,6.5,5.11,8.85,8.86h0c.29,7.64,1.29,14.57,4.83,20.7Z"/>
          <path class="cls-29" d="m53.81,30.02c.13,5.97-.02,11.63.19,16.95-2.36-3.75-5.46-6.55-8.85-8.86-2.48-6.88-2.59-11.07-2.67-14.78-.07-2.96-.12-5.61-1.35-9.07,3.84.87,7.35,1.99,10.24,4.23.83.65,1.61,1.38,2.33,2.24,3.1,3.66,5.11,8.48,5.43,13.39-1.89-1.51-3.71-2.88-5.32-4.1Z"/>
          <path class="cls-29" d="m45.14,38.11c-4.63-3.14-9.8-5.33-14.36-7.68-.08-4.46,2.73-8.97,2.92-14.14,2.41,2.87,6.55,4.41,8.76,7.04.1,3.71.21,7.9,2.68,14.78Z"/>
          <path class="cls-29" d="m78.09,19.62c.18,6.95.08,14.62-2.16,21.08-.38,1.1-.83,2.16-1.35,3.17-.81-.36-1.64-.69-2.49-.98,1.93,2.27,2.28,5.34,2.29,8.39-2.82-6.51-9.31-12.43-15.15-17.08.3-9.12,2.25-16.78,5.84-22.53,3.42-5.49,8.33-9.26,14.74-10.95-2.61,2.59-1.95,10.18-1.72,18.9Z"/>
          <path class="cls-29" d="m97.9,42.33c-7.44-1.75-15.08-2.29-21.98-1.64,2.25-6.45,2.35-14.12,2.16-21.08,3.97-3.09,10.31-2.82,13.79-8.6,1.84,4,4.39,9.11,5.89,14.76,1.4,5.21,1.9,10.88.14,16.56Z"/>
          <path class="cls-29" d="m59.14,34.12c-.33-4.91-2.34-9.74-5.43-13.39-.72-.85-1.5-1.59-2.33-2.24.45-7.67,4.25-11.38,8.3-15.54,1.05,2.91,4.1,5.87,5.39,8.71-3.58,5.75-5.54,13.41-5.84,22.53l-.09-.07Z"/>
          <path class="cls-29" d="m125.11,19.9c-4.4,3.04-5.55,7.97-6.51,13.35-.9,5.05-1.63,10.49-4.72,15.13-4.94-2.71-10.4-4.72-15.97-6.04,1.76-5.69,1.25-11.35-.13-16.55,7.74-5.68,17.93-7.88,27.33-5.89Z"/>
          <path class="cls-29" d="m137.66,45.52c-1.38,5.64-5.14,10.45-11.54,12.38-3.41-3.81-7.59-6.98-12.24-9.52,3.09-4.64,3.82-10.08,4.72-15.13,4.88-2.94,12.05-2.22,16.84-4.26.38,3.28,1.81,7.15,2.35,10.94.27,1.91.3,3.8-.13,5.59Z"/>
          <path class="cls-29" d="m150.22,57.78c-6.07,3.86-12.91,5.67-18.01,9.52-1.52-3.48-3.6-6.62-6.1-9.41,6.4-1.93,10.16-6.74,11.54-12.38.44-1.79.4-3.67.13-5.58,2.23-2.46,8.34-.19,11.84-5.27,2.69,6.81,3.37,16.28.6,23.12Z"/>
          <path class="cls-29" d="m157.9,71.36c-1.42,2.41-3.21,4.67-5.37,6.69-1.53-.19-3.18-.3-4.95-.2-7.38-2.87-13.86-4.36-20.94-3.78,1.36-2.91,3.3-5.04,5.58-6.76,5.09-3.84,11.93-5.66,18.01-9.52,3.76-2.39,7.24-5.58,9.81-10.53,2.96,8.12,2.12,16.83-2.14,24.1Z"/>
          <path class="cls-29" d="m170.39,74.76c-.5,7.48-4.9,15.86-11.48,20.76-2.91,2.16-6.25,3.64-9.87,4.06-5.49-4.45-12.38-7.49-19.93-7.32,6.99-3.95,11.96-11.53,18.46-14.42,1.77-.1,3.42.01,4.95.2,2.97.38,5.54,1.1,7.94,1.32,3.46.32,6.55-.39,9.93-4.6Z"/>
          <path class="cls-29" d="m164.31,109.05c-2.71-2.32-6.2-2.7-9.25-3.39-1.73-2.18-3.76-4.25-6.01-6.08,3.62-.42,6.96-1.9,9.87-4.06,3.96,2.32,5.99,8.81,5.39,13.53Z"/>
          <path class="cls-29" d="m152.7,133.19c-1.1-6.39-8.3-5.68-13.36-5.62-2.36-4.17-5.36-8.42-8.79-12.44,7.74.51,15.32-.65,21.51.03h.01c5.11,4.06,3.38,12.73.63,18.03Z"/>
          <path class="cls-29" d="m133.04,150.85c-9.43.18-21.44-3.7-24.22-12.44,1.92-3.57,2.92-7.4,3.25-11.28,4.61,5.18,10.41,6.99,16.58,8.8-.55,4.91.58,11.37,4.39,14.92Z"/>
          <path class="cls-29" d="m53.16,99.75c-3.4,4.01-5.91,8.73-7.31,14.08-4.45-1.17-10.27.43-12.89,4.17-.71-3.03-1.98-6.08-1.52-9.16.49-3.33,2.88-6,5.37-8.32,5.7.16,11.49.73,16.35-.77Z"/>
          <path class="cls-29" d="m36.93,85.74c-4.11,2.48-7.83,5.64-11.02,9.45-5.68,0-10.5-2.54-15.01.16-.62-6.08,3.58-11.08,8.89-13.53,3.74,1.25,8.5,2.98,17.14,3.92Z"/>
          <path class="cls-29" d="m23.85,66.79c-4.39,1.71-8.39,4.17-11.62,7.44-4.87-1.51-7.1-4.5-11.51-4.87,4.56-5.83,11.18-9.52,18.39-6.62,1.41,1.44,2.98,2.81,4.74,4.05Z"/>
          <path class="cls-29" d="m45.23,64.01c-7.08-.69-14.68.18-21.39,2.79-1.75-1.25-3.33-2.61-4.73-4.06-4.82-4.93-7.75-10.77-9.66-16.53,2.02.96,4.16,1.52,6.35,1.88,6.1,1.02,12.6.52,18.04,2.75,3.17,4.7,6.95,9.13,11.39,13.17Z"/>
          <path class="cls-29" d="m33.84,50.84c-5.44-2.23-11.94-1.72-18.04-2.75-2.7-4.42-3.07-9.57-2.21-14.84,3.44,2.38,8.39,2.4,12.61,3.14,2,4.99,4.53,9.85,7.64,14.45Z"/>
          <path class="cls-29" d="m166.7,68.22c-2.71,3.11-1.68,9-6.24,11.13-2.4-.22-4.97-.93-7.94-1.32,2.16-2.01,3.95-4.27,5.37-6.69,3.32-1.61,5.69-1.85,8.81-3.12Z"/>
          <path class="cls-29" d="m155.43,48.62c-1.41.45-2.56,1.12-3.56,1.94-3.39,2.77-5.04,7.27-8.7,10.93-3.93,1.8-7.78,3.41-10.95,5.81-1.52-3.48-3.6-6.62-6.1-9.41,6.02-1.82,9.7-6.17,11.27-11.37,4.77-1.34,10.37-1.53,14.6.08,1.29.5,2.46,1.16,3.44,2.02Z"/>
          <path class="cls-29" d="m161.64,119.36c-2.47-2.67-5.75-3.79-9.58-4.21h-.01c-6.19-.68-13.78.48-21.51-.03-7.27-8.54-16.49-16.11-25.79-19.96,6.82,1.25,13.93.77,20.31-1.15,1.43-.43,2.77-1.03,4.05-1.76,7.55-.17,14.44,2.87,19.93,7.32,2.26,1.83,4.28,3.9,6.01,6.08,3.54,4.46,5.88,9.38,6.59,13.71Z"/>
          <path class="cls-7" d="m75.93,40.7c20.51-1.93,47.52,6.6,56.29,26.6"/>
        </g>
        <path class="cls-29" d="m86.65,113.24c-10.08,9.16-29.26,19.75-43.7,24.51-5.98-1.5-11.94-3.83-18.5-6.01,19.88-2.38,45.22-16.31,54.15-28.65,2.5-2.04,4.81-4.26,6.83-6.75-.79,6.29-.12,11.86,1.22,16.9Z"/>
      </g>
    </g>
  </g>
</svg>