<?xml version="1.0" encoding="UTF-8"?>
<svg id="Layer_2" data-name="Layer 2" xmlns="http://www.w3.org/2000/svg" viewBox="0 0 64.6 122.07">
  <defs>
    <style>
      .cls-1 {
        fill: none;
        stroke: #000;
        stroke-miterlimit: 10;
        stroke-width: .75px;
      }
    </style>
  </defs>
  <g id="Layer_1-2" data-name="Layer 1">
    <g>
      <path class="cls-1" d="m19.05,109.74c-.31,1.64-.24,3.49-1.37,4.77,4.51-2.06,7.49-5.5,10.6-9.37.13,1.66-.41,2.78-.65,4.36,5.22-4.23,8.23-9.82,10.61-16.12.21,1.33.16,2.96.49,4.09,5.13-4.24,7.12-11.11,8.17-17.69.68,2.16,2.29,3.77,2.16,5.67,9.92-24.08,17.58-49.62,14.46-75.91-.54-1.22-1.12-2.44-1.74-3.65-1.02-2.01-2.89-3.32-4.39-4.92.12,5.99-1.14,11.95-4.25,17.63-1.75,10.26-9.3,24.73-21.03,32.45,3.66,1.57,6.67-.6,8.49-3.25-2.65,7.96-15.82,10.86-21.89,19.49,2.89.15,5.21-.19,7.56-1.56-4.08,3.86-9.22,7.21-12.04,12.11-1.66,2.87-2.06,6.25-4.16,9.49,2.07-.6,3.35-2.23,4.98-3.4-2.26,5.78-5.75,9.5-7.58,14.24,2.14.56,4.55-.17,6.04-1.8-2.41,4.87-5.8,8.39-7.51,13.52,1.58.58,3.81.17,5.59-.71-4.45,3.44-8.49,7.04-10.98,12.47,7.98-.59,14.32-5.29,18.44-11.91Z"/>
      <path class="cls-1" d="m58.73,2.52c.07,16.53-4.01,33.54-10.7,48.54-6.76,15.05-15.76,29.31-24.9,43,10.97-10.6,21.92-30.77,28.83-48.11l2.16-5.89,1.84-6c.52-2.03,1-4.06,1.49-6.09l1.11-6.17.69-6.23.23-6.25c-.06-2.08-.14-4.17-.24-6.24l-.51-.56Z"/>
    </g>
  </g>
</svg>