<?xml version="1.0" encoding="UTF-8"?>
<svg id="Layer_2" data-name="Layer 2" xmlns="http://www.w3.org/2000/svg" viewBox="0 0 33.33 87.51">
  <g id="Layer_1-2" data-name="Layer 1">
    <g>
      <path d="m31.9,87.18c-2.53-2.75-5.03-5.54-7.37-8.45-2.29-2.85-4.44-5.84-6.28-9.01-1.81-3.12-3.31-6.43-4.34-9.89-1.07-3.62-1.6-7.38-1.58-11.15.03-4.33.78-8.63,2.01-12.77.17-.58.36-1.16.55-1.74.04-.12-.07-.23-.18-.24-1.49-.06-2.92-.48-4.27-1.08-.11-.05-.24-.01-.28.11-1.25,4.39-2.09,8.9-2.39,13.46-.27,4.18-.08,8.39.66,12.51.7,3.9,1.91,7.71,3.63,11.28,1.71,3.54,3.91,6.83,6.53,9.77,1.34,1.51,2.79,2.92,4.32,4.23.2.17.39.33.59.5.17.14.35.34.57.41.63.2,1.31.3,1.95.46,1.27.33,2.52.72,3.75,1.16.63.23,1.26.48,1.89.74.22.09.41-.23.19-.32-2.39-1.01-4.87-1.78-7.39-2.34-.15-.03-.28-.05-.41-.14-.1-.07-.19-.16-.28-.23-.21-.17-.42-.35-.63-.53-.38-.32-.75-.66-1.12-.99-.74-.68-1.45-1.38-2.15-2.1-2.7-2.83-5.01-6.02-6.83-9.49s-3.14-7.19-3.96-11.01c-.87-4.04-1.18-8.19-1.02-12.31.17-4.48.88-8.92,2-13.25.15-.56.3-1.13.46-1.69-.09.04-.18.07-.28.11,1.42.63,2.9,1.06,4.46,1.13-.06-.08-.12-.16-.18-.24-1.4,4.23-2.33,8.64-2.53,13.1-.17,3.81.22,7.65,1.16,11.35.9,3.54,2.31,6.93,4.05,10.13,1.75,3.22,3.85,6.25,6.1,9.15,2.32,2.98,4.81,5.82,7.36,8.6.32.35.64.7.96,1.05.18.16.44-.1.28-.28Z"/>
      <g>
        <path d="m4.76,17.52c-1.11,1.98-.92,4.57-.31,6.67.63,2.16,1.9,4.11,3.61,5.58,1.67,1.44,3.78,2.49,5.98,2.78,2.56.34,5.1-.46,7.19-1.94,1.15-.81,2.2-1.79,2.97-2.97.65-.99,1.22-2.2,1.35-3.38.1-.93-.16-1.95-.85-2.61-.72-.68-1.74-.79-2.66-.49-.27.09-.54.21-.79.35-.07.04-.35.27-.42.25-.12-.03-.06-.3-.06-.4-.02-.44-.14-.87-.36-1.25-.43-.75-1.21-1.29-2.05-1.49-.85-.2-1.77-.05-2.47.5-.08.07-.16.13-.24.21-.1.1-.14.18-.21.04-.11-.22-.13-.48-.24-.71-.18-.38-.46-.7-.8-.96-.68-.51-1.56-.67-2.38-.52-.45.08-.89.26-1.26.52-.18.12-.35.27-.51.42-.19.19-.31.41-.49.61-.03.04-.08.2-.17.14-.02-.01-.03-.16-.04-.19-.03-.11-.06-.22-.1-.33-.09-.25-.21-.49-.35-.71-.25-.37-.58-.7-.96-.93-.72-.44-1.63-.55-2.39-.14-.43.19-.75.55-.99.95-.12.21.2.4.32.19.48-.8,1.32-1.23,2.24-.97.9.25,1.58,1.03,1.83,1.91.05.19.05.41.22.54.15.11.35.12.5.01.17-.13.26-.38.39-.54.15-.19.33-.37.52-.53.67-.54,1.58-.77,2.42-.58.82.18,1.51.76,1.78,1.56.1.31.17.92.66.71.18-.08.3-.28.46-.4.18-.15.4-.27.62-.36,1.64-.63,3.7.62,3.68,2.43,0,.2-.04.4.12.55.17.15.37.11.55.01.54-.31,1.08-.61,1.71-.67.93-.09,1.75.39,2.15,1.23.47,1,.23,2.08-.15,3.07-.47,1.22-1.19,2.33-2.12,3.25-1.84,1.83-4.29,3.17-6.91,3.31-2.19.12-4.34-.61-6.16-1.79-1.81-1.17-3.27-2.84-4.18-4.79-.9-1.93-1.36-4.3-.87-6.4.12-.53.28-1.07.55-1.55.11-.21-.21-.4-.33-.19Z"/>
        <path d="m25.97,25.21c2.42-.81,4.94-2.15,6.33-4.39.62-1,1.01-2.2,1.03-3.38,0-.92-.22-1.96-.93-2.6-.69-.63-1.65-.68-2.51-.36-.59.22-1.12.56-1.6.96-.15.12-.75.82-.93.67-.11-.09-.05-.33-.04-.45,0-.17,0-.34-.03-.51-.14-1-.82-1.91-1.87-2.04-.55-.07-1.1.09-1.57.37-.17.1-.65.6-.82.51-.14-.08-.11-.4-.13-.54-.02-.16-.05-.32-.09-.47-.26-.99-1.01-1.8-2.06-1.92-1.11-.12-2.14.52-2.83,1.34.06-.02.12-.03.18-.05-.2-.07-.41-.13-.61-.19.05.06.09.12.14.18-.13-1.14-.69-2.27-1.85-2.65-1.19-.39-2.42.2-3.29,1,.06-.02.12-.03.18-.05-.19-.06-.38-.12-.57-.18.04.04.09.09.13.13-.41-1.52-1.95-2.58-3.53-2.19-.78.2-1.42.75-1.8,1.46-.04.08-.08.24-.16.3-.17.14-.26-.05-.34-.19-.16-.29-.33-.58-.52-.85-.28-.41-.6-.81-.97-1.15-1-.95-2.5-1.48-3.67-.51C-.02,8.5-.14,10.42.1,11.91c.39,2.44,1.91,4.6,3.73,6.2.11.1.26.05.31-.08.46-1.17,1.36-2.14,2.71-2.1,1.23.04,2.25.88,2.77,1.96.05.11.22.12.29.04.83-.86,2-1.33,3.19-1.15,1.1.16,2,.85,2.45,1.86.04.09.18.12.26.07,1.96-1.29,4.82-.08,5.23,2.23.02.13.18.16.28.11,1.24-.58,2.73-.6,3.72.46.83.89,1.05,2.31.69,3.45-.07.23.29.33.36.1.4-1.3.12-2.9-.85-3.88-1.12-1.13-2.75-1.09-4.12-.46.09.04.18.07.28.11-.46-2.55-3.63-3.87-5.78-2.45.09.02.17.04.26.07-.5-1.11-1.53-1.86-2.73-2.04-1.31-.19-2.59.31-3.51,1.25.1.01.2.03.29.04-.58-1.22-1.79-2.14-3.18-2.15-1.48,0-2.48,1.07-2.98,2.37.1-.03.21-.06.31-.08-1.95-1.72-3.56-4.1-3.71-6.76-.09-1.52.52-3.98,2.52-3.77,1.01.11,1.84.91,2.43,1.68.21.28.41.57.58.88.13.23.23.55.49.66.56.24.74-.42.97-.76.54-.81,1.51-1.24,2.47-1.04,1.02.21,1.65.94,1.99,1.87.06.15.09.18.25.23.14.05.32.13.47.15.15.01.21-.08.32-.18.15-.13.3-.24.46-.35.51-.33,1.1-.56,1.72-.53,1.31.05,2.04,1.2,2.17,2.39.01.08.05.16.14.18.21.06.41.12.61.19.06.02.14,0,.18-.05.6-.72,1.47-1.31,2.44-1.24.94.06,1.58.78,1.82,1.65.11.42,0,1.19.57,1.3.24.04.39-.09.56-.24.26-.22.55-.42.87-.54,1.04-.39,2.06.16,2.38,1.21.08.28.12.56.11.85,0,.25-.05.49.13.69.46.49.95-.19,1.27-.47.79-.69,1.92-1.44,3.03-1.17.86.21,1.33,1.02,1.5,1.83.23,1.15-.06,2.39-.55,3.44-1.19,2.53-3.92,4.02-6.46,4.87-.17.11-.07.48.16.4Z"/>
        <path d="m5.74,5.81c.89-.2,1.58-.86,1.72-1.78.13-.84-.18-1.73-.8-2.3-.79-.73-2-.86-2.94-.34-1.05.59-1.75,1.99-1.2,3.15.53,1.13,2.08,1.51,3.22,1.27.24-.05.14-.41-.1-.36-.88.18-2.01-.05-2.6-.78-.72-.89-.2-2.21.64-2.81.76-.55,1.82-.56,2.57.01.57.44.89,1.16.86,1.88-.04.87-.64,1.51-1.47,1.7-.24.05-.14.41.1.36Z"/>
        <path d="m13.36,5.07c.55-.13,1.06-.42,1.38-.9.28-.43.37-.97.32-1.47-.14-1.2-.99-2.21-2.14-2.56-.58-.18-1.23-.2-1.81-.01-.59.19-1.08.61-1.44,1.1-.62.87-.56,1.98.11,2.81.84,1.03,2.31,1.31,3.58,1.03.24-.05.14-.41-.1-.36-1.01.22-2.14.07-2.93-.64-.64-.57-.94-1.45-.58-2.26.21-.47.61-.91,1.06-1.16.46-.26,1.01-.33,1.52-.26,1.08.14,1.96.89,2.26,1.94.14.47.15,1.01-.08,1.46-.25.51-.73.79-1.26.92-.23.05-.13.41.11.36Z"/>
        <path d="m20.64,6.24c.89-.41,1.7-1.44,1.74-2.44.04-1.18-.88-2.24-1.95-2.63-1.12-.41-2.47-.17-3.33.66-.42.4-.74.89-.86,1.46-.12.61.03,1.14.38,1.65.84,1.23,2.56,1.9,3.97,1.32.22-.09.12-.45-.1-.36-1.12.46-2.48.06-3.29-.82-.34-.37-.65-.86-.64-1.38.01-.52.25-1,.59-1.39.71-.82,1.82-1.12,2.87-.87.98.23,1.84,1.07,1.97,2.08.12.97-.69,2-1.54,2.39-.22.1-.03.43.19.33Z"/>
        <path d="m25.76,8.26c.94-.5,1.42-1.52,1.13-2.56-.27-.95-1.1-1.7-2.1-1.75-.98-.05-2.01.61-2.36,1.53-.29.78-.08,1.68.46,2.3.75.83,1.9.91,2.87.48.22-.1.03-.42-.19-.32-.72.32-1.58.32-2.2-.22-.51-.44-.79-1.15-.66-1.82.16-.8.91-1.44,1.71-1.56.86-.12,1.66.4,2.01,1.17.18.4.23.86.12,1.29-.14.51-.51.89-.97,1.14-.22.11-.03.43.18.32Z"/>
        <path d="m26.66,8.07c-.02.95.51,1.81,1.47,2.04.88.21,1.88-.13,2.41-.87.59-.81.33-1.97-.39-2.62-.55-.49-1.34-.66-2.04-.46-.88.25-1.42,1.02-1.45,1.91,0,.24.37.24.38,0,.02-.64.35-1.21.95-1.47.53-.24,1.18-.19,1.67.12.64.4,1.03,1.29.74,2.01-.3.73-1.14,1.12-1.9,1.06-.38-.03-.76-.19-1.03-.46-.33-.34-.44-.8-.43-1.26,0-.24-.37-.24-.38,0Z"/>
        <g>
          <path d="m9.15,7.11c.14-.59-.08-1.19-.58-1.54-.5-.36-1.19-.32-1.68.04-.49.36-.69,1.05-.49,1.62.19.55.71.92,1.29.96.69.04,1.29-.42,1.46-1.08.06-.23-.3-.33-.36-.1-.11.42-.45.74-.89.8-.43.05-.86-.16-1.07-.54-.22-.41-.14-.91.17-1.25.3-.33.83-.42,1.23-.22.45.23.68.72.56,1.21-.05.24.31.34.36.1Z"/>
          <g>
            <path d="m25.9,10.93c-.12.43-.5.77-.95.8-.44.03-.86-.22-1.05-.62-.18-.39-.1-.87.21-1.18.3-.31.77-.41,1.18-.24.48.19.74.74.61,1.24-.06.23.3.33.36.1.15-.6-.09-1.24-.62-1.58-.5-.32-1.17-.29-1.64.07-.47.36-.69.97-.52,1.55.17.57.68.98,1.28,1.03.68.06,1.32-.42,1.5-1.07.07-.23-.29-.33-.36-.1Z"/>
            <path d="m22.68,9.44c-.13.43-.5.77-.96.8-.44.03-.86-.22-1.05-.62-.18-.39-.1-.88.2-1.19.31-.32.8-.4,1.2-.22.49.21.73.73.61,1.23-.06.23.3.33.36.1.14-.59-.09-1.21-.6-1.56-.49-.33-1.17-.32-1.65.03-.48.36-.7.98-.54,1.56.17.58.68.99,1.27,1.04.7.06,1.31-.42,1.51-1.07.08-.23-.28-.33-.35-.1Z"/>
            <path d="m19.32,8.28c-.11.42-.46.74-.88.79-.45.06-.89-.18-1.09-.58-.2-.39-.13-.88.18-1.2s.8-.43,1.21-.24c.45.21.7.74.58,1.23-.06.23.3.33.36.1.14-.59-.08-1.21-.59-1.56-.49-.34-1.18-.31-1.65.04-.48.36-.71,1-.52,1.58.19.57.71.99,1.32,1.01.66.03,1.28-.43,1.44-1.08.06-.22-.3-.32-.36-.09Z"/>
            <path d="m15.86,7.45c-.11.42-.48.75-.92.8-.45.05-.89-.2-1.08-.62-.19-.4-.09-.89.22-1.2s.79-.4,1.19-.21c.47.22.72.74.59,1.23-.06.23.3.33.36.1.15-.59-.09-1.21-.59-1.55-.49-.34-1.17-.33-1.65.02-.49.36-.71.99-.54,1.57.17.57.69.99,1.29,1.03.68.04,1.31-.42,1.48-1.08.08-.22-.28-.32-.35-.09Z"/>
            <path d="m12.34,6.99c-.12.43-.49.77-.94.8-.44.03-.87-.22-1.06-.62-.18-.4-.09-.89.22-1.2s.8-.39,1.2-.21c.46.22.7.74.58,1.23-.06.23.3.33.36.1.15-.59-.08-1.22-.59-1.56-.48-.33-1.16-.31-1.63.03-.48.35-.71.99-.54,1.57.16.57.67.98,1.26,1.04.69.07,1.33-.41,1.51-1.07.05-.24-.31-.34-.37-.11Z"/>
          </g>
          <path d="m29.28,12.92c.14-.61-.12-1.26-.65-1.59-.53-.32-1.26-.25-1.71.18-.37.35-.52.91-.42,1.41.12.57.63.99,1.19,1.07.72.09,1.4-.37,1.59-1.07.06-.23-.3-.33-.36-.1-.12.45-.52.79-1,.8-.43.01-.88-.25-1.03-.67-.12-.35-.05-.76.17-1.05.27-.37.8-.5,1.22-.32.48.2.75.74.63,1.25-.04.22.32.32.37.09Z"/>
        </g>
      </g>
    </g>
  </g>
</svg>