<?xml version="1.0" encoding="UTF-8"?>
<svg id="Layer_2" data-name="Layer 2" xmlns="http://www.w3.org/2000/svg" xmlns:xlink="http://www.w3.org/1999/xlink" viewBox="0 0 53.26 41.2">
  <defs>
    <style>
      .cls-1 {
        clip-path: url(#clippath-73);
      }

      .cls-2 {
        clip-path: url(#clippath-72);
      }

      .cls-3 {
        clip-path: url(#clippath-62);
      }

      .cls-4 {
        clip-path: url(#clippath-45);
      }

      .cls-5 {
        clip-path: url(#clippath-63);
      }

      .cls-6 {
        clip-path: url(#clippath-20);
      }

      .cls-7 {
        clip-path: url(#clippath-11);
      }

      .cls-8 {
        clip-path: url(#clippath-16);
      }

      .cls-9 {
        clip-path: url(#clippath-59);
      }

      .cls-10 {
        clip-path: url(#clippath-33);
      }

      .cls-11 {
        clip-path: url(#clippath-64);
      }

      .cls-12 {
        clip-path: url(#clippath-47);
      }

      .cls-13 {
        clip-path: url(#clippath-41);
      }

      .cls-14 {
        clip-path: url(#clippath-32);
      }

      .cls-15 {
        clip-path: url(#clippath-2);
      }

      .cls-16 {
        clip-path: url(#clippath-13);
      }

      .cls-17 {
        clip-path: url(#clippath-37);
      }

      .cls-18 {
        clip-path: url(#clippath-46);
      }

      .cls-19 {
        clip-path: url(#clippath-25);
      }

      .cls-20 {
        clip-path: url(#clippath-15);
      }

      .cls-21 {
        clip-path: url(#clippath-6);
      }

      .cls-22 {
        clip-path: url(#clippath-40);
      }

      .cls-23 {
        clip-path: url(#clippath-26);
      }

      .cls-24 {
        clip-path: url(#clippath-7);
      }

      .cls-25 {
        clip-path: url(#clippath-21);
      }

      .cls-26 {
        clip-path: url(#clippath-34);
      }

      .cls-27 {
        clip-path: url(#clippath-57);
      }

      .cls-28 {
        clip-path: url(#clippath-1);
      }

      .cls-29 {
        clip-path: url(#clippath-4);
      }

      .cls-30 {
        clip-path: url(#clippath-38);
      }

      .cls-31 {
        clip-path: url(#clippath-36);
      }

      .cls-32 {
        clip-path: url(#clippath-27);
      }

      .cls-33 {
        clip-path: url(#clippath-60);
      }

      .cls-34 {
        clip-path: url(#clippath-44);
      }

      .cls-35 {
        clip-path: url(#clippath-12);
      }

      .cls-36 {
        clip-path: url(#clippath-24);
      }

      .cls-37 {
        clip-path: url(#clippath-30);
      }

      .cls-38 {
        clip-path: url(#clippath-22);
      }

      .cls-39 {
        clip-path: url(#clippath-9);
      }

      .cls-40 {
        clip-path: url(#clippath-52);
      }

      .cls-41 {
        clip-path: url(#clippath);
      }

      .cls-42 {
        clip-path: url(#clippath-50);
      }

      .cls-43 {
        clip-path: url(#clippath-48);
      }

      .cls-44 {
        clip-path: url(#clippath-61);
      }

      .cls-45 {
        clip-path: url(#clippath-39);
      }

      .cls-46 {
        fill: none;
      }

      .cls-47 {
        clip-path: url(#clippath-19);
      }

      .cls-48 {
        clip-path: url(#clippath-31);
      }

      .cls-49 {
        clip-path: url(#clippath-54);
      }

      .cls-50 {
        clip-path: url(#clippath-3);
      }

      .cls-51 {
        clip-path: url(#clippath-43);
      }

      .cls-52 {
        clip-path: url(#clippath-70);
      }

      .cls-53 {
        clip-path: url(#clippath-8);
      }

      .cls-54 {
        clip-path: url(#clippath-55);
      }

      .cls-55 {
        clip-path: url(#clippath-69);
      }

      .cls-56 {
        clip-path: url(#clippath-29);
      }

      .cls-57 {
        clip-path: url(#clippath-18);
      }

      .cls-58 {
        clip-path: url(#clippath-14);
      }

      .cls-59 {
        clip-path: url(#clippath-17);
      }

      .cls-60 {
        clip-path: url(#clippath-5);
      }

      .cls-61 {
        clip-path: url(#clippath-58);
      }

      .cls-62 {
        clip-path: url(#clippath-42);
      }

      .cls-63 {
        clip-path: url(#clippath-65);
      }

      .cls-64 {
        clip-path: url(#clippath-10);
      }

      .cls-65 {
        clip-path: url(#clippath-23);
      }

      .cls-66 {
        clip-path: url(#clippath-74);
      }

      .cls-67 {
        clip-path: url(#clippath-56);
      }

      .cls-68 {
        clip-path: url(#clippath-53);
      }

      .cls-69 {
        clip-path: url(#clippath-49);
      }

      .cls-70 {
        clip-path: url(#clippath-67);
      }

      .cls-71 {
        clip-path: url(#clippath-51);
      }

      .cls-72 {
        clip-path: url(#clippath-28);
      }

      .cls-73 {
        clip-path: url(#clippath-71);
      }

      .cls-74 {
        clip-path: url(#clippath-68);
      }

      .cls-75 {
        clip-path: url(#clippath-35);
      }

      .cls-76 {
        clip-path: url(#clippath-66);
      }
    </style>
    <clipPath id="clippath">
      <path class="cls-46" d="m26.35,26.51c4.82,0,9.54-1.61,12.01-4.09,1.31-1.32,1.97-2.82,1.96-4.49-.02-3.61-5.46-5.23-10.85-5.23s-10,1.47-11.46,3.58c-1.54,2.23-1.99,4.21-1.33,5.89.71,1.83,2.78,3.26,5.67,3.92,1.23.28,2.57.42,4,.42Z"/>
    </clipPath>
    <clipPath id="clippath-1">
      <rect class="cls-46" x="11.55" y="9.77" width="6.8" height="6.8"/>
    </clipPath>
    <clipPath id="clippath-2">
      <rect class="cls-46" x="11.55" y="9.77" width="6.8" height="6.8"/>
    </clipPath>
    <clipPath id="clippath-3">
      <rect class="cls-46" x="11.55" y="9.77" width="6.8" height="6.8"/>
    </clipPath>
    <clipPath id="clippath-4">
      <rect class="cls-46" x="11.55" y="9.77" width="6.8" height="6.8"/>
    </clipPath>
    <clipPath id="clippath-5">
      <path class="cls-46" d="m26.35,26.51c4.82,0,9.54-1.61,12.01-4.09,1.31-1.32,1.97-2.82,1.96-4.49-.02-3.61-5.46-5.23-10.85-5.23s-10,1.47-11.46,3.58c-1.54,2.23-1.99,4.21-1.33,5.89.71,1.83,2.78,3.26,5.67,3.92,1.23.28,2.57.42,4,.42Z"/>
    </clipPath>
    <clipPath id="clippath-6">
      <rect class="cls-46" x="11.55" y="16.57" width="6.8" height="6.8"/>
    </clipPath>
    <clipPath id="clippath-7">
      <rect class="cls-46" x="11.55" y="16.57" width="6.8" height="6.8"/>
    </clipPath>
    <clipPath id="clippath-8">
      <rect class="cls-46" x="11.55" y="16.57" width="6.8" height="6.8"/>
    </clipPath>
    <clipPath id="clippath-9">
      <rect class="cls-46" x="11.55" y="16.57" width="6.8" height="6.8"/>
    </clipPath>
    <clipPath id="clippath-10">
      <path class="cls-46" d="m26.35,26.51c4.82,0,9.54-1.61,12.01-4.09,1.31-1.32,1.97-2.82,1.96-4.49-.02-3.61-5.46-5.23-10.85-5.23s-10,1.47-11.46,3.58c-1.54,2.23-1.99,4.21-1.33,5.89.71,1.83,2.78,3.26,5.67,3.92,1.23.28,2.57.42,4,.42Z"/>
    </clipPath>
    <clipPath id="clippath-11">
      <rect class="cls-46" x="11.55" y="23.37" width="6.8" height="6.8"/>
    </clipPath>
    <clipPath id="clippath-12">
      <rect class="cls-46" x="11.55" y="23.37" width="6.8" height="6.8"/>
    </clipPath>
    <clipPath id="clippath-13">
      <rect class="cls-46" x="11.55" y="23.37" width="6.8" height="6.8"/>
    </clipPath>
    <clipPath id="clippath-14">
      <rect class="cls-46" x="11.55" y="23.37" width="6.8" height="6.8"/>
    </clipPath>
    <clipPath id="clippath-15">
      <path class="cls-46" d="m26.35,26.51c4.82,0,9.54-1.61,12.01-4.09,1.31-1.32,1.97-2.82,1.96-4.49-.02-3.61-5.46-5.23-10.85-5.23s-10,1.47-11.46,3.58c-1.54,2.23-1.99,4.21-1.33,5.89.71,1.83,2.78,3.26,5.67,3.92,1.23.28,2.57.42,4,.42Z"/>
    </clipPath>
    <clipPath id="clippath-16">
      <rect class="cls-46" x="18.36" y="9.77" width="6.8" height="6.8"/>
    </clipPath>
    <clipPath id="clippath-17">
      <rect class="cls-46" x="18.36" y="9.77" width="6.8" height="6.8"/>
    </clipPath>
    <clipPath id="clippath-18">
      <rect class="cls-46" x="18.36" y="9.77" width="6.8" height="6.8"/>
    </clipPath>
    <clipPath id="clippath-19">
      <rect class="cls-46" x="18.36" y="9.77" width="6.8" height="6.8"/>
    </clipPath>
    <clipPath id="clippath-20">
      <path class="cls-46" d="m26.35,26.51c4.82,0,9.54-1.61,12.01-4.09,1.31-1.32,1.97-2.82,1.96-4.49-.02-3.61-5.46-5.23-10.85-5.23s-10,1.47-11.46,3.58c-1.54,2.23-1.99,4.21-1.33,5.89.71,1.83,2.78,3.26,5.67,3.92,1.23.28,2.57.42,4,.42Z"/>
    </clipPath>
    <clipPath id="clippath-21">
      <rect class="cls-46" x="18.36" y="16.57" width="6.8" height="6.8"/>
    </clipPath>
    <clipPath id="clippath-22">
      <rect class="cls-46" x="18.36" y="16.57" width="6.8" height="6.8"/>
    </clipPath>
    <clipPath id="clippath-23">
      <rect class="cls-46" x="18.36" y="16.57" width="6.8" height="6.8"/>
    </clipPath>
    <clipPath id="clippath-24">
      <rect class="cls-46" x="18.36" y="16.57" width="6.8" height="6.8"/>
    </clipPath>
    <clipPath id="clippath-25">
      <path class="cls-46" d="m26.35,26.51c4.82,0,9.54-1.61,12.01-4.09,1.31-1.32,1.97-2.82,1.96-4.49-.02-3.61-5.46-5.23-10.85-5.23s-10,1.47-11.46,3.58c-1.54,2.23-1.99,4.21-1.33,5.89.71,1.83,2.78,3.26,5.67,3.92,1.23.28,2.57.42,4,.42Z"/>
    </clipPath>
    <clipPath id="clippath-26">
      <rect class="cls-46" x="18.36" y="23.37" width="6.8" height="6.8"/>
    </clipPath>
    <clipPath id="clippath-27">
      <rect class="cls-46" x="18.36" y="23.37" width="6.8" height="6.8"/>
    </clipPath>
    <clipPath id="clippath-28">
      <rect class="cls-46" x="18.36" y="23.37" width="6.8" height="6.8"/>
    </clipPath>
    <clipPath id="clippath-29">
      <rect class="cls-46" x="18.36" y="23.37" width="6.8" height="6.8"/>
    </clipPath>
    <clipPath id="clippath-30">
      <path class="cls-46" d="m26.35,26.51c4.82,0,9.54-1.61,12.01-4.09,1.31-1.32,1.97-2.82,1.96-4.49-.02-3.61-5.46-5.23-10.85-5.23s-10,1.47-11.46,3.58c-1.54,2.23-1.99,4.21-1.33,5.89.71,1.83,2.78,3.26,5.67,3.92,1.23.28,2.57.42,4,.42Z"/>
    </clipPath>
    <clipPath id="clippath-31">
      <rect class="cls-46" x="25.16" y="9.77" width="6.8" height="6.8"/>
    </clipPath>
    <clipPath id="clippath-32">
      <rect class="cls-46" x="25.16" y="9.77" width="6.8" height="6.8"/>
    </clipPath>
    <clipPath id="clippath-33">
      <rect class="cls-46" x="25.16" y="9.77" width="6.8" height="6.8"/>
    </clipPath>
    <clipPath id="clippath-34">
      <rect class="cls-46" x="25.16" y="9.77" width="6.8" height="6.8"/>
    </clipPath>
    <clipPath id="clippath-35">
      <path class="cls-46" d="m26.35,26.51c4.82,0,9.54-1.61,12.01-4.09,1.31-1.32,1.97-2.82,1.96-4.49-.02-3.61-5.46-5.23-10.85-5.23s-10,1.47-11.46,3.58c-1.54,2.23-1.99,4.21-1.33,5.89.71,1.83,2.78,3.26,5.67,3.92,1.23.28,2.57.42,4,.42Z"/>
    </clipPath>
    <clipPath id="clippath-36">
      <rect class="cls-46" x="25.16" y="16.57" width="6.8" height="6.8"/>
    </clipPath>
    <clipPath id="clippath-37">
      <rect class="cls-46" x="25.16" y="16.57" width="6.8" height="6.8"/>
    </clipPath>
    <clipPath id="clippath-38">
      <rect class="cls-46" x="25.16" y="16.57" width="6.8" height="6.8"/>
    </clipPath>
    <clipPath id="clippath-39">
      <rect class="cls-46" x="25.16" y="16.57" width="6.8" height="6.8"/>
    </clipPath>
    <clipPath id="clippath-40">
      <path class="cls-46" d="m26.35,26.51c4.82,0,9.54-1.61,12.01-4.09,1.31-1.32,1.97-2.82,1.96-4.49-.02-3.61-5.46-5.23-10.85-5.23s-10,1.47-11.46,3.58c-1.54,2.23-1.99,4.21-1.33,5.89.71,1.83,2.78,3.26,5.67,3.92,1.23.28,2.57.42,4,.42Z"/>
    </clipPath>
    <clipPath id="clippath-41">
      <rect class="cls-46" x="25.16" y="23.37" width="6.8" height="6.8"/>
    </clipPath>
    <clipPath id="clippath-42">
      <rect class="cls-46" x="25.16" y="23.37" width="6.8" height="6.8"/>
    </clipPath>
    <clipPath id="clippath-43">
      <rect class="cls-46" x="25.16" y="23.37" width="6.8" height="6.8"/>
    </clipPath>
    <clipPath id="clippath-44">
      <rect class="cls-46" x="25.16" y="23.37" width="6.8" height="6.8"/>
    </clipPath>
    <clipPath id="clippath-45">
      <path class="cls-46" d="m26.35,26.51c4.82,0,9.54-1.61,12.01-4.09,1.31-1.32,1.97-2.82,1.96-4.49-.02-3.61-5.46-5.23-10.85-5.23s-10,1.47-11.46,3.58c-1.54,2.23-1.99,4.21-1.33,5.89.71,1.83,2.78,3.26,5.67,3.92,1.23.28,2.57.42,4,.42Z"/>
    </clipPath>
    <clipPath id="clippath-46">
      <rect class="cls-46" x="31.96" y="9.77" width="6.8" height="6.8"/>
    </clipPath>
    <clipPath id="clippath-47">
      <rect class="cls-46" x="31.96" y="9.77" width="6.8" height="6.8"/>
    </clipPath>
    <clipPath id="clippath-48">
      <rect class="cls-46" x="31.96" y="9.77" width="6.8" height="6.8"/>
    </clipPath>
    <clipPath id="clippath-49">
      <rect class="cls-46" x="31.96" y="9.77" width="6.8" height="6.8"/>
    </clipPath>
    <clipPath id="clippath-50">
      <path class="cls-46" d="m26.35,26.51c4.82,0,9.54-1.61,12.01-4.09,1.31-1.32,1.97-2.82,1.96-4.49-.02-3.61-5.46-5.23-10.85-5.23s-10,1.47-11.46,3.58c-1.54,2.23-1.99,4.21-1.33,5.89.71,1.83,2.78,3.26,5.67,3.92,1.23.28,2.57.42,4,.42Z"/>
    </clipPath>
    <clipPath id="clippath-51">
      <rect class="cls-46" x="31.96" y="16.57" width="6.8" height="6.8"/>
    </clipPath>
    <clipPath id="clippath-52">
      <rect class="cls-46" x="31.96" y="16.57" width="6.8" height="6.8"/>
    </clipPath>
    <clipPath id="clippath-53">
      <rect class="cls-46" x="31.96" y="16.57" width="6.8" height="6.8"/>
    </clipPath>
    <clipPath id="clippath-54">
      <rect class="cls-46" x="31.96" y="16.57" width="6.8" height="6.8"/>
    </clipPath>
    <clipPath id="clippath-55">
      <path class="cls-46" d="m26.35,26.51c4.82,0,9.54-1.61,12.01-4.09,1.31-1.32,1.97-2.82,1.96-4.49-.02-3.61-5.46-5.23-10.85-5.23s-10,1.47-11.46,3.58c-1.54,2.23-1.99,4.21-1.33,5.89.71,1.83,2.78,3.26,5.67,3.92,1.23.28,2.57.42,4,.42Z"/>
    </clipPath>
    <clipPath id="clippath-56">
      <rect class="cls-46" x="31.96" y="23.37" width="6.8" height="6.8"/>
    </clipPath>
    <clipPath id="clippath-57">
      <rect class="cls-46" x="31.96" y="23.37" width="6.8" height="6.8"/>
    </clipPath>
    <clipPath id="clippath-58">
      <rect class="cls-46" x="31.96" y="23.37" width="6.8" height="6.8"/>
    </clipPath>
    <clipPath id="clippath-59">
      <rect class="cls-46" x="31.96" y="23.37" width="6.8" height="6.8"/>
    </clipPath>
    <clipPath id="clippath-60">
      <path class="cls-46" d="m26.35,26.51c4.82,0,9.54-1.61,12.01-4.09,1.31-1.32,1.97-2.82,1.96-4.49-.02-3.61-5.46-5.23-10.85-5.23s-10,1.47-11.46,3.58c-1.54,2.23-1.99,4.21-1.33,5.89.71,1.83,2.78,3.26,5.67,3.92,1.23.28,2.57.42,4,.42Z"/>
    </clipPath>
    <clipPath id="clippath-61">
      <rect class="cls-46" x="38.77" y="9.77" width="6.8" height="6.8"/>
    </clipPath>
    <clipPath id="clippath-62">
      <rect class="cls-46" x="38.77" y="9.77" width="6.8" height="6.8"/>
    </clipPath>
    <clipPath id="clippath-63">
      <rect class="cls-46" x="38.77" y="9.77" width="6.8" height="6.8"/>
    </clipPath>
    <clipPath id="clippath-64">
      <rect class="cls-46" x="38.77" y="9.77" width="6.8" height="6.8"/>
    </clipPath>
    <clipPath id="clippath-65">
      <path class="cls-46" d="m26.35,26.51c4.82,0,9.54-1.61,12.01-4.09,1.31-1.32,1.97-2.82,1.96-4.49-.02-3.61-5.46-5.23-10.85-5.23s-10,1.47-11.46,3.58c-1.54,2.23-1.99,4.21-1.33,5.89.71,1.83,2.78,3.26,5.67,3.92,1.23.28,2.57.42,4,.42Z"/>
    </clipPath>
    <clipPath id="clippath-66">
      <rect class="cls-46" x="38.77" y="16.57" width="6.8" height="6.8"/>
    </clipPath>
    <clipPath id="clippath-67">
      <rect class="cls-46" x="38.77" y="16.57" width="6.8" height="6.8"/>
    </clipPath>
    <clipPath id="clippath-68">
      <rect class="cls-46" x="38.77" y="16.57" width="6.8" height="6.8"/>
    </clipPath>
    <clipPath id="clippath-69">
      <rect class="cls-46" x="38.77" y="16.57" width="6.8" height="6.8"/>
    </clipPath>
    <clipPath id="clippath-70">
      <path class="cls-46" d="m26.35,26.51c4.82,0,9.54-1.61,12.01-4.09,1.31-1.32,1.97-2.82,1.96-4.49-.02-3.61-5.46-5.23-10.85-5.23s-10,1.47-11.46,3.58c-1.54,2.23-1.99,4.21-1.33,5.89.71,1.83,2.78,3.26,5.67,3.92,1.23.28,2.57.42,4,.42Z"/>
    </clipPath>
    <clipPath id="clippath-71">
      <rect class="cls-46" x="38.77" y="23.37" width="6.8" height="6.8"/>
    </clipPath>
    <clipPath id="clippath-72">
      <rect class="cls-46" x="38.77" y="23.37" width="6.8" height="6.8"/>
    </clipPath>
    <clipPath id="clippath-73">
      <rect class="cls-46" x="38.77" y="23.37" width="6.8" height="6.8"/>
    </clipPath>
    <clipPath id="clippath-74">
      <rect class="cls-46" x="38.77" y="23.37" width="6.8" height="6.8"/>
    </clipPath>
  </defs>
  <g id="Layer_1-2" data-name="Layer 1">
    <g>
      <g>
        <g class="cls-41">
          <g>
            <g class="cls-28">
              <g>
                <path d="m14.95,17.3c-.3,0-.58-.19-.68-.47-.1-.29-.01-.62.23-.82.23-.19.57-.21.83-.06.25.15.4.46.34.75-.07.34-.37.59-.72.6-.16,0-.16.25,0,.25.41-.01.77-.26.91-.64s.02-.83-.29-1.09c-.32-.26-.77-.3-1.12-.09-.35.21-.53.62-.46,1.02.08.46.5.78.96.79.17,0,.17-.24,0-.24Z"/>
                <path d="m11.55,17.3c-.3,0-.58-.19-.68-.47-.1-.29-.01-.62.23-.82.23-.19.57-.21.83-.06.25.15.4.46.34.75-.07.34-.37.59-.72.6-.16,0-.16.25,0,.25.41-.01.77-.26.91-.64s.02-.83-.29-1.09c-.32-.26-.77-.3-1.12-.09-.35.21-.53.62-.46,1.02.08.46.5.78.96.79.16,0,.16-.24,0-.24Z"/>
                <path d="m14.95,13.89c-.3,0-.58-.19-.68-.47-.1-.29-.01-.62.23-.82.23-.19.57-.21.83-.06.25.15.4.46.34.75-.07.35-.37.6-.72.6-.16,0-.16.25,0,.25.41-.01.77-.26.91-.64s.02-.83-.29-1.09c-.32-.26-.77-.3-1.12-.09-.35.21-.53.62-.46,1.02.08.46.5.78.96.79.17.02.17-.23,0-.24Z"/>
                <path d="m11.55,13.89c-.3,0-.58-.19-.68-.47-.1-.29-.01-.62.23-.82.23-.19.57-.21.83-.06.25.15.4.46.34.75-.07.35-.37.6-.72.6-.16,0-.16.25,0,.25.41-.01.77-.26.91-.64s.02-.83-.29-1.09c-.32-.26-.77-.3-1.12-.09-.35.21-.53.62-.46,1.02.08.46.5.78.96.79.16.02.16-.23,0-.24Z"/>
                <path d="m13.25,15.59c-.3,0-.58-.19-.68-.47-.1-.29-.01-.62.23-.82.23-.19.57-.21.83-.06.25.15.4.46.34.75-.07.35-.37.6-.72.6-.16,0-.16.25,0,.25.41-.01.77-.26.91-.64s.02-.83-.29-1.09c-.32-.26-.77-.3-1.12-.09-.35.21-.53.62-.46,1.02.08.46.5.78.96.79.17.02.17-.23,0-.24Z"/>
                <path d="m16.66,15.59c-.3,0-.58-.19-.68-.47-.1-.29-.01-.62.23-.82.23-.19.57-.21.83-.06.25.15.4.46.34.75-.08.35-.37.6-.72.6-.16,0-.16.25,0,.25.41-.01.77-.26.91-.64s.02-.83-.29-1.09c-.32-.26-.77-.3-1.12-.09-.35.21-.53.62-.46,1.02.08.46.5.78.96.79.16.02.16-.23,0-.24Z"/>
                <path d="m13.25,12.19c-.3,0-.58-.19-.68-.47-.1-.29-.01-.62.23-.82.23-.19.57-.21.83-.06.25.15.4.46.34.75-.07.35-.37.6-.72.6-.16,0-.16.25,0,.25.41-.01.77-.26.91-.64s.02-.83-.29-1.09c-.32-.26-.77-.3-1.12-.09-.35.21-.53.62-.46,1.02.08.46.5.78.96.79.17.02.17-.23,0-.24Z"/>
                <path d="m16.66,12.19c-.3,0-.58-.19-.68-.47-.1-.29-.01-.62.23-.82.23-.19.57-.21.83-.06.25.15.4.46.34.75-.08.35-.37.6-.72.6-.16,0-.16.25,0,.25.41-.01.77-.26.91-.64s.02-.83-.29-1.09c-.32-.26-.77-.3-1.12-.09-.35.21-.53.62-.46,1.02.08.46.5.78.96.79.16.02.16-.23,0-.24Z"/>
              </g>
            </g>
            <g class="cls-15">
              <g>
                <path d="m18.36,17.3c-.3,0-.58-.19-.68-.47-.1-.29-.01-.62.23-.82.23-.19.57-.21.83-.06.25.15.4.46.34.75-.08.34-.37.59-.72.6-.16,0-.16.25,0,.25.41-.01.77-.26.91-.64s.02-.83-.29-1.09c-.32-.26-.77-.3-1.12-.09-.35.21-.53.62-.46,1.02.08.46.5.78.96.79.16,0,.16-.24,0-.24Z"/>
                <path d="m18.36,13.89c-.3,0-.58-.19-.68-.47-.1-.29-.01-.62.23-.82.23-.19.57-.21.83-.06.25.15.4.46.34.75-.08.35-.37.6-.72.6-.16,0-.16.25,0,.25.41-.01.77-.26.91-.64s.02-.83-.29-1.09c-.32-.26-.77-.3-1.12-.09-.35.21-.53.62-.46,1.02.08.46.5.78.96.79.16.02.16-.23,0-.24Z"/>
              </g>
            </g>
            <g class="cls-50">
              <g>
                <path d="m14.95,10.49c-.3,0-.58-.19-.68-.47-.1-.29-.01-.62.23-.82.23-.19.57-.21.83-.06.25.15.4.46.34.75-.07.35-.37.6-.72.6-.16,0-.16.25,0,.25.41-.01.77-.26.91-.64s.02-.83-.29-1.09c-.32-.26-.77-.3-1.12-.09-.35.21-.53.62-.46,1.02.08.46.5.78.96.79.17,0,.17-.24,0-.24Z"/>
                <path d="m11.55,10.49c-.3,0-.58-.19-.68-.47-.1-.29-.01-.62.23-.82.23-.19.57-.21.83-.06.25.15.4.46.34.75-.07.35-.37.6-.72.6-.16,0-.16.25,0,.25.41-.01.77-.26.91-.64s.02-.83-.29-1.09c-.32-.26-.77-.3-1.12-.09-.35.21-.53.62-.46,1.02.08.46.5.78.96.79.16,0,.16-.24,0-.24Z"/>
              </g>
            </g>
            <g class="cls-29">
              <path d="m18.36,10.49c-.3,0-.58-.19-.68-.47-.1-.29-.01-.62.23-.82.23-.19.57-.21.83-.06.25.15.4.46.34.75-.08.35-.37.6-.72.6-.16,0-.16.25,0,.25.41-.01.77-.26.91-.64s.02-.83-.29-1.09c-.32-.26-.77-.3-1.12-.09-.35.21-.53.62-.46,1.02.08.46.5.78.96.79.16,0,.16-.24,0-.24Z"/>
            </g>
          </g>
        </g>
        <g class="cls-60">
          <g>
            <g class="cls-21">
              <g>
                <path d="m14.95,24.1c-.3,0-.58-.19-.68-.47-.1-.29-.01-.62.23-.82.23-.19.57-.21.83-.06.25.15.4.46.34.75-.07.35-.37.59-.72.6-.16,0-.16.25,0,.25.41-.01.77-.26.91-.64s.02-.83-.29-1.09c-.32-.26-.77-.3-1.12-.09-.35.21-.53.62-.46,1.02.08.46.5.78.96.79.17,0,.17-.24,0-.24Z"/>
                <path d="m11.55,24.1c-.3,0-.58-.19-.68-.47-.1-.29-.01-.62.23-.82.23-.19.57-.21.83-.06.25.15.4.46.34.75-.07.35-.37.59-.72.6-.16,0-.16.25,0,.25.41-.01.77-.26.91-.64s.02-.83-.29-1.09c-.32-.26-.77-.3-1.12-.09-.35.21-.53.62-.46,1.02.08.46.5.78.96.79.16,0,.16-.24,0-.24Z"/>
                <path d="m14.95,20.7c-.3,0-.58-.19-.68-.47-.1-.29-.01-.62.23-.82.23-.19.57-.21.83-.06.25.15.4.46.34.75-.07.35-.37.59-.72.6-.16,0-.16.25,0,.25.41-.01.77-.26.91-.64s.02-.83-.29-1.09c-.32-.26-.77-.3-1.12-.09-.35.21-.53.62-.46,1.02.08.46.5.78.96.79.17,0,.17-.24,0-.24Z"/>
                <path d="m11.55,20.7c-.3,0-.58-.19-.68-.47-.1-.29-.01-.62.23-.82.23-.19.57-.21.83-.06.25.15.4.46.34.75-.07.35-.37.59-.72.6-.16,0-.16.25,0,.25.41-.01.77-.26.91-.64s.02-.83-.29-1.09c-.32-.26-.77-.3-1.12-.09-.35.21-.53.62-.46,1.02.08.46.5.78.96.79.16,0,.16-.24,0-.24Z"/>
                <path d="m13.25,22.4c-.3,0-.58-.19-.68-.47-.1-.29-.01-.62.23-.82.23-.19.57-.21.83-.06.25.15.4.46.34.75-.07.35-.37.59-.72.6-.16,0-.16.25,0,.25.41-.01.77-.26.91-.64s.02-.83-.29-1.09c-.32-.26-.77-.3-1.12-.09-.35.21-.53.62-.46,1.02.08.46.5.78.96.79.17,0,.17-.24,0-.24Z"/>
                <path d="m16.66,22.4c-.3,0-.58-.19-.68-.47-.1-.29-.01-.62.23-.82.23-.19.57-.21.83-.06.25.15.4.46.34.75-.08.35-.37.59-.72.6-.16,0-.16.25,0,.25.41-.01.77-.26.91-.64s.02-.83-.29-1.09c-.32-.26-.77-.3-1.12-.09-.35.21-.53.62-.46,1.02.08.46.5.78.96.79.16,0,.16-.24,0-.24Z"/>
                <path d="m13.25,19c-.3,0-.58-.19-.68-.47-.1-.29-.01-.62.23-.82.23-.19.57-.21.83-.06.25.15.4.46.34.75-.07.34-.37.59-.72.6-.16,0-.16.25,0,.25.41-.01.77-.26.91-.64s.02-.83-.29-1.09c-.32-.26-.77-.3-1.12-.09-.35.21-.53.62-.46,1.02.08.46.5.78.96.79.17,0,.17-.24,0-.24Z"/>
                <path d="m16.66,19c-.3,0-.58-.19-.68-.47-.1-.29-.01-.62.23-.82.23-.19.57-.21.83-.06.25.15.4.46.34.75-.08.34-.37.59-.72.6-.16,0-.16.25,0,.25.41-.01.77-.26.91-.64s.02-.83-.29-1.09c-.32-.26-.77-.3-1.12-.09-.35.21-.53.62-.46,1.02.08.46.5.78.96.79.16,0,.16-.24,0-.24Z"/>
              </g>
            </g>
            <g class="cls-24">
              <g>
                <path d="m18.36,24.1c-.3,0-.58-.19-.68-.47-.1-.29-.01-.62.23-.82.23-.19.57-.21.83-.06.25.15.4.46.34.75-.08.35-.37.59-.72.6-.16,0-.16.25,0,.25.41-.01.77-.26.91-.64s.02-.83-.29-1.09c-.32-.26-.77-.3-1.12-.09-.35.21-.53.62-.46,1.02.08.46.5.78.96.79.16,0,.16-.24,0-.24Z"/>
                <path d="m18.36,20.7c-.3,0-.58-.19-.68-.47-.1-.29-.01-.62.23-.82.23-.19.57-.21.83-.06.25.15.4.46.34.75-.08.35-.37.59-.72.6-.16,0-.16.25,0,.25.41-.01.77-.26.91-.64s.02-.83-.29-1.09c-.32-.26-.77-.3-1.12-.09-.35.21-.53.62-.46,1.02.08.46.5.78.96.79.16,0,.16-.24,0-.24Z"/>
              </g>
            </g>
            <g class="cls-53">
              <g>
                <path d="m14.95,17.3c-.3,0-.58-.19-.68-.47-.1-.29-.01-.62.23-.82.23-.19.57-.21.83-.06.25.15.4.46.34.75-.07.34-.37.59-.72.6-.16,0-.16.25,0,.25.41-.01.77-.26.91-.64s.02-.83-.29-1.09c-.32-.26-.77-.3-1.12-.09-.35.21-.53.62-.46,1.02.08.46.5.78.96.79.17,0,.17-.24,0-.24Z"/>
                <path d="m11.55,17.3c-.3,0-.58-.19-.68-.47-.1-.29-.01-.62.23-.82.23-.19.57-.21.83-.06.25.15.4.46.34.75-.07.34-.37.59-.72.6-.16,0-.16.25,0,.25.41-.01.77-.26.91-.64s.02-.83-.29-1.09c-.32-.26-.77-.3-1.12-.09-.35.21-.53.62-.46,1.02.08.46.5.78.96.79.16,0,.16-.24,0-.24Z"/>
              </g>
            </g>
            <g class="cls-39">
              <path d="m18.36,17.3c-.3,0-.58-.19-.68-.47-.1-.29-.01-.62.23-.82.23-.19.57-.21.83-.06.25.15.4.46.34.75-.08.34-.37.59-.72.6-.16,0-.16.25,0,.25.41-.01.77-.26.91-.64s.02-.83-.29-1.09c-.32-.26-.77-.3-1.12-.09-.35.21-.53.62-.46,1.02.08.46.5.78.96.79.16,0,.16-.24,0-.24Z"/>
            </g>
          </g>
        </g>
        <g class="cls-64">
          <g>
            <g class="cls-7">
              <g>
                <path d="m14.95,30.9c-.3,0-.58-.19-.68-.47-.1-.29-.01-.62.23-.82.23-.19.57-.21.83-.06.25.15.4.46.34.75-.07.35-.37.6-.72.6-.16,0-.16.25,0,.25.41-.01.77-.26.91-.64s.02-.83-.29-1.09c-.32-.26-.77-.3-1.12-.09-.35.21-.53.62-.46,1.02.08.46.5.78.96.79.17,0,.17-.24,0-.24Z"/>
                <path d="m11.55,30.9c-.3,0-.58-.19-.68-.47-.1-.29-.01-.62.23-.82.23-.19.57-.21.83-.06.25.15.4.46.34.75-.07.35-.37.6-.72.6-.16,0-.16.25,0,.25.41-.01.77-.26.91-.64s.02-.83-.29-1.09c-.32-.26-.77-.3-1.12-.09-.35.21-.53.62-.46,1.02.08.46.5.78.96.79.16,0,.16-.24,0-.24Z"/>
                <path d="m14.95,27.5c-.3,0-.58-.19-.68-.47-.1-.29-.01-.62.23-.82.23-.19.57-.21.83-.06.25.15.4.46.34.75-.07.35-.37.59-.72.6-.16,0-.16.25,0,.25.41-.01.77-.26.91-.64s.02-.83-.29-1.09c-.32-.26-.77-.3-1.12-.09-.35.21-.53.62-.46,1.02.08.46.5.78.96.79.17,0,.17-.24,0-.24Z"/>
                <path d="m11.55,27.5c-.3,0-.58-.19-.68-.47-.1-.29-.01-.62.23-.82.23-.19.57-.21.83-.06.25.15.4.46.34.75-.07.35-.37.59-.72.6-.16,0-.16.25,0,.25.41-.01.77-.26.91-.64s.02-.83-.29-1.09c-.32-.26-.77-.3-1.12-.09-.35.21-.53.62-.46,1.02.08.46.5.78.96.79.16,0,.16-.24,0-.24Z"/>
                <path d="m13.25,29.2c-.3,0-.58-.19-.68-.47-.1-.29-.01-.62.23-.82.23-.19.57-.21.83-.06.25.15.4.46.34.75-.07.35-.37.6-.72.6-.16,0-.16.25,0,.25.41-.01.77-.26.91-.64s.02-.83-.29-1.09c-.32-.26-.77-.3-1.12-.09-.35.21-.53.62-.46,1.02.08.46.5.78.96.79.17,0,.17-.24,0-.24Z"/>
                <path d="m16.66,29.2c-.3,0-.58-.19-.68-.47-.1-.29-.01-.62.23-.82.23-.19.57-.21.83-.06.25.15.4.46.34.75-.08.35-.37.6-.72.6-.16,0-.16.25,0,.25.41-.01.77-.26.91-.64s.02-.83-.29-1.09c-.32-.26-.77-.3-1.12-.09-.35.21-.53.62-.46,1.02.08.46.5.78.96.79.16,0,.16-.24,0-.24Z"/>
                <path d="m13.25,25.8c-.3,0-.58-.19-.68-.47-.1-.29-.01-.62.23-.82.23-.19.57-.21.83-.06.25.15.4.46.34.75-.07.35-.37.59-.72.6-.16,0-.16.25,0,.25.41-.01.77-.26.91-.64s.02-.83-.29-1.09c-.32-.26-.77-.3-1.12-.09-.35.21-.53.62-.46,1.02.08.46.5.78.96.79.17,0,.17-.24,0-.24Z"/>
                <path d="m16.66,25.8c-.3,0-.58-.19-.68-.47-.1-.29-.01-.62.23-.82.23-.19.57-.21.83-.06.25.15.4.46.34.75-.08.35-.37.59-.72.6-.16,0-.16.25,0,.25.41-.01.77-.26.91-.64s.02-.83-.29-1.09c-.32-.26-.77-.3-1.12-.09-.35.21-.53.62-.46,1.02.08.46.5.78.96.79.16,0,.16-.24,0-.24Z"/>
              </g>
            </g>
            <g class="cls-35">
              <g>
                <path d="m18.36,30.9c-.3,0-.58-.19-.68-.47-.1-.29-.01-.62.23-.82.23-.19.57-.21.83-.06.25.15.4.46.34.75-.08.35-.37.6-.72.6-.16,0-.16.25,0,.25.41-.01.77-.26.91-.64s.02-.83-.29-1.09c-.32-.26-.77-.3-1.12-.09-.35.21-.53.62-.46,1.02.08.46.5.78.96.79.16,0,.16-.24,0-.24Z"/>
                <path d="m18.36,27.5c-.3,0-.58-.19-.68-.47-.1-.29-.01-.62.23-.82.23-.19.57-.21.83-.06.25.15.4.46.34.75-.08.35-.37.59-.72.6-.16,0-.16.25,0,.25.41-.01.77-.26.91-.64s.02-.83-.29-1.09c-.32-.26-.77-.3-1.12-.09-.35.21-.53.62-.46,1.02.08.46.5.78.96.79.16,0,.16-.24,0-.24Z"/>
              </g>
            </g>
            <g class="cls-16">
              <g>
                <path d="m14.95,24.1c-.3,0-.58-.19-.68-.47-.1-.29-.01-.62.23-.82.23-.19.57-.21.83-.06.25.15.4.46.34.75-.07.35-.37.59-.72.6-.16,0-.16.25,0,.25.41-.01.77-.26.91-.64s.02-.83-.29-1.09c-.32-.26-.77-.3-1.12-.09-.35.21-.53.62-.46,1.02.08.46.5.78.96.79.17,0,.17-.24,0-.24Z"/>
                <path d="m11.55,24.1c-.3,0-.58-.19-.68-.47-.1-.29-.01-.62.23-.82.23-.19.57-.21.83-.06.25.15.4.46.34.75-.07.35-.37.59-.72.6-.16,0-.16.25,0,.25.41-.01.77-.26.91-.64s.02-.83-.29-1.09c-.32-.26-.77-.3-1.12-.09-.35.21-.53.62-.46,1.02.08.46.5.78.96.79.16,0,.16-.24,0-.24Z"/>
              </g>
            </g>
            <g class="cls-58">
              <path d="m18.36,24.1c-.3,0-.58-.19-.68-.47-.1-.29-.01-.62.23-.82.23-.19.57-.21.83-.06.25.15.4.46.34.75-.08.35-.37.59-.72.6-.16,0-.16.25,0,.25.41-.01.77-.26.91-.64s.02-.83-.29-1.09c-.32-.26-.77-.3-1.12-.09-.35.21-.53.62-.46,1.02.08.46.5.78.96.79.16,0,.16-.24,0-.24Z"/>
            </g>
          </g>
        </g>
        <g class="cls-20">
          <g>
            <g class="cls-8">
              <g>
                <path d="m21.76,17.3c-.3,0-.58-.19-.68-.47-.1-.29-.01-.62.23-.82.23-.19.57-.21.83-.06.25.15.4.46.34.75-.07.34-.37.59-.72.6-.16,0-.16.25,0,.25.41-.01.77-.26.91-.64s.02-.83-.29-1.09c-.32-.26-.77-.3-1.12-.09-.35.21-.53.62-.46,1.02.08.46.5.78.96.79.16,0,.16-.24,0-.24Z"/>
                <path d="m18.36,17.3c-.3,0-.58-.19-.68-.47-.1-.29-.01-.62.23-.82.23-.19.57-.21.83-.06.25.15.4.46.34.75-.08.34-.37.59-.72.6-.16,0-.16.25,0,.25.41-.01.77-.26.91-.64s.02-.83-.29-1.09c-.32-.26-.77-.3-1.12-.09-.35.21-.53.62-.46,1.02.08.46.5.78.96.79.16,0,.16-.24,0-.24Z"/>
                <path d="m21.76,13.89c-.3,0-.58-.19-.68-.47-.1-.29-.01-.62.23-.82.23-.19.57-.21.83-.06.25.15.4.46.34.75-.07.35-.37.6-.72.6-.16,0-.16.25,0,.25.41-.01.77-.26.91-.64s.02-.83-.29-1.09c-.32-.26-.77-.3-1.12-.09-.35.21-.53.62-.46,1.02.08.46.5.78.96.79.16.02.16-.23,0-.24Z"/>
                <path d="m18.36,13.89c-.3,0-.58-.19-.68-.47-.1-.29-.01-.62.23-.82.23-.19.57-.21.83-.06.25.15.4.46.34.75-.08.35-.37.6-.72.6-.16,0-.16.25,0,.25.41-.01.77-.26.91-.64s.02-.83-.29-1.09c-.32-.26-.77-.3-1.12-.09-.35.21-.53.62-.46,1.02.08.46.5.78.96.79.16.02.16-.23,0-.24Z"/>
                <path d="m20.06,15.59c-.3,0-.58-.19-.68-.47-.1-.29-.01-.62.23-.82.23-.19.57-.21.83-.06.25.15.4.46.34.75-.07.35-.37.6-.72.6-.16,0-.16.25,0,.25.41-.01.77-.26.91-.64s.02-.83-.29-1.09c-.32-.26-.77-.3-1.12-.09-.35.21-.53.62-.46,1.02.08.46.5.78.96.79.16.02.16-.23,0-.24Z"/>
                <path d="m23.46,15.59c-.3,0-.58-.19-.68-.47-.1-.29-.01-.62.23-.82.23-.19.57-.21.83-.06.25.15.4.46.34.75-.07.35-.37.6-.72.6-.16,0-.16.25,0,.25.41-.01.77-.26.91-.64s.02-.83-.29-1.09c-.32-.26-.77-.3-1.12-.09-.35.21-.53.62-.46,1.02.08.46.5.78.96.79.16.02.16-.23,0-.24Z"/>
                <path d="m20.06,12.19c-.3,0-.58-.19-.68-.47-.1-.29-.01-.62.23-.82.23-.19.57-.21.83-.06.25.15.4.46.34.75-.07.35-.37.6-.72.6-.16,0-.16.25,0,.25.41-.01.77-.26.91-.64s.02-.83-.29-1.09c-.32-.26-.77-.3-1.12-.09-.35.21-.53.62-.46,1.02.08.46.5.78.96.79.16.02.16-.23,0-.24Z"/>
                <path d="m23.46,12.19c-.3,0-.58-.19-.68-.47-.1-.29-.01-.62.23-.82.23-.19.57-.21.83-.06.25.15.4.46.34.75-.07.35-.37.6-.72.6-.16,0-.16.25,0,.25.41-.01.77-.26.91-.64s.02-.83-.29-1.09c-.32-.26-.77-.3-1.12-.09-.35.21-.53.62-.46,1.02.08.46.5.78.96.79.16.02.16-.23,0-.24Z"/>
              </g>
            </g>
            <g class="cls-59">
              <g>
                <path d="m25.16,17.3c-.3,0-.58-.19-.68-.47-.1-.29-.01-.62.23-.82.23-.19.57-.21.83-.06.25.15.4.46.34.75-.07.34-.37.59-.72.6-.16,0-.16.25,0,.25.41-.01.77-.26.91-.64s.02-.83-.29-1.09c-.32-.26-.77-.3-1.12-.09-.35.21-.53.62-.46,1.02.08.46.5.78.96.79.16,0,.16-.24,0-.24Z"/>
                <path d="m25.16,13.89c-.3,0-.58-.19-.68-.47-.1-.29-.01-.62.23-.82.23-.19.57-.21.83-.06.25.15.4.46.34.75-.07.35-.37.6-.72.6-.16,0-.16.25,0,.25.41-.01.77-.26.91-.64s.02-.83-.29-1.09c-.32-.26-.77-.3-1.12-.09-.35.21-.53.62-.46,1.02.08.46.5.78.96.79.16.02.16-.23,0-.24Z"/>
              </g>
            </g>
            <g class="cls-57">
              <g>
                <path d="m21.76,10.49c-.3,0-.58-.19-.68-.47-.1-.29-.01-.62.23-.82.23-.19.57-.21.83-.06.25.15.4.46.34.75-.07.35-.37.6-.72.6-.16,0-.16.25,0,.25.41-.01.77-.26.91-.64s.02-.83-.29-1.09c-.32-.26-.77-.3-1.12-.09-.35.21-.53.62-.46,1.02.08.46.5.78.96.79.16,0,.16-.24,0-.24Z"/>
                <path d="m18.36,10.49c-.3,0-.58-.19-.68-.47-.1-.29-.01-.62.23-.82.23-.19.57-.21.83-.06.25.15.4.46.34.75-.08.35-.37.6-.72.6-.16,0-.16.25,0,.25.41-.01.77-.26.91-.64s.02-.83-.29-1.09c-.32-.26-.77-.3-1.12-.09-.35.21-.53.62-.46,1.02.08.46.5.78.96.79.16,0,.16-.24,0-.24Z"/>
              </g>
            </g>
            <g class="cls-47">
              <path d="m25.16,10.49c-.3,0-.58-.19-.68-.47-.1-.29-.01-.62.23-.82.23-.19.57-.21.83-.06.25.15.4.46.34.75-.07.35-.37.6-.72.6-.16,0-.16.25,0,.25.41-.01.77-.26.91-.64s.02-.83-.29-1.09c-.32-.26-.77-.3-1.12-.09-.35.21-.53.62-.46,1.02.08.46.5.78.96.79.16,0,.16-.24,0-.24Z"/>
            </g>
          </g>
        </g>
        <g class="cls-6">
          <g>
            <g class="cls-25">
              <g>
                <path d="m21.76,24.1c-.3,0-.58-.19-.68-.47-.1-.29-.01-.62.23-.82.23-.19.57-.21.83-.06.25.15.4.46.34.75-.07.35-.37.59-.72.6-.16,0-.16.25,0,.25.41-.01.77-.26.91-.64s.02-.83-.29-1.09c-.32-.26-.77-.3-1.12-.09-.35.21-.53.62-.46,1.02.08.46.5.78.96.79.16,0,.16-.24,0-.24Z"/>
                <path d="m18.36,24.1c-.3,0-.58-.19-.68-.47-.1-.29-.01-.62.23-.82.23-.19.57-.21.83-.06.25.15.4.46.34.75-.08.35-.37.59-.72.6-.16,0-.16.25,0,.25.41-.01.77-.26.91-.64s.02-.83-.29-1.09c-.32-.26-.77-.3-1.12-.09-.35.21-.53.62-.46,1.02.08.46.5.78.96.79.16,0,.16-.24,0-.24Z"/>
                <path d="m21.76,20.7c-.3,0-.58-.19-.68-.47-.1-.29-.01-.62.23-.82.23-.19.57-.21.83-.06.25.15.4.46.34.75-.07.35-.37.59-.72.6-.16,0-.16.25,0,.25.41-.01.77-.26.91-.64s.02-.83-.29-1.09c-.32-.26-.77-.3-1.12-.09-.35.21-.53.62-.46,1.02.08.46.5.78.96.79.16,0,.16-.24,0-.24Z"/>
                <path d="m18.36,20.7c-.3,0-.58-.19-.68-.47-.1-.29-.01-.62.23-.82.23-.19.57-.21.83-.06.25.15.4.46.34.75-.08.35-.37.59-.72.6-.16,0-.16.25,0,.25.41-.01.77-.26.91-.64s.02-.83-.29-1.09c-.32-.26-.77-.3-1.12-.09-.35.21-.53.62-.46,1.02.08.46.5.78.96.79.16,0,.16-.24,0-.24Z"/>
                <path d="m20.06,22.4c-.3,0-.58-.19-.68-.47-.1-.29-.01-.62.23-.82.23-.19.57-.21.83-.06.25.15.4.46.34.75-.07.35-.37.59-.72.6-.16,0-.16.25,0,.25.41-.01.77-.26.91-.64s.02-.83-.29-1.09c-.32-.26-.77-.3-1.12-.09-.35.21-.53.62-.46,1.02.08.46.5.78.96.79.16,0,.16-.24,0-.24Z"/>
                <path d="m23.46,22.4c-.3,0-.58-.19-.68-.47-.1-.29-.01-.62.23-.82.23-.19.57-.21.83-.06.25.15.4.46.34.75-.07.35-.37.59-.72.6-.16,0-.16.25,0,.25.41-.01.77-.26.91-.64s.02-.83-.29-1.09c-.32-.26-.77-.3-1.12-.09-.35.21-.53.62-.46,1.02.08.46.5.78.96.79.16,0,.16-.24,0-.24Z"/>
                <path d="m20.06,19c-.3,0-.58-.19-.68-.47-.1-.29-.01-.62.23-.82.23-.19.57-.21.83-.06.25.15.4.46.34.75-.07.34-.37.59-.72.6-.16,0-.16.25,0,.25.41-.01.77-.26.91-.64s.02-.83-.29-1.09c-.32-.26-.77-.3-1.12-.09-.35.21-.53.62-.46,1.02.08.46.5.78.96.79.16,0,.16-.24,0-.24Z"/>
                <path d="m23.46,19c-.3,0-.58-.19-.68-.47-.1-.29-.01-.62.23-.82.23-.19.57-.21.83-.06.25.15.4.46.34.75-.07.34-.37.59-.72.6-.16,0-.16.25,0,.25.41-.01.77-.26.91-.64s.02-.83-.29-1.09c-.32-.26-.77-.3-1.12-.09-.35.21-.53.62-.46,1.02.08.46.5.78.96.79.16,0,.16-.24,0-.24Z"/>
              </g>
            </g>
            <g class="cls-38">
              <g>
                <path d="m25.16,24.1c-.3,0-.58-.19-.68-.47-.1-.29-.01-.62.23-.82.23-.19.57-.21.83-.06.25.15.4.46.34.75-.07.35-.37.59-.72.6-.16,0-.16.25,0,.25.41-.01.77-.26.91-.64s.02-.83-.29-1.09c-.32-.26-.77-.3-1.12-.09-.35.21-.53.62-.46,1.02.08.46.5.78.96.79.16,0,.16-.24,0-.24Z"/>
                <path d="m25.16,20.7c-.3,0-.58-.19-.68-.47-.1-.29-.01-.62.23-.82.23-.19.57-.21.83-.06.25.15.4.46.34.75-.07.35-.37.59-.72.6-.16,0-.16.25,0,.25.41-.01.77-.26.91-.64s.02-.83-.29-1.09c-.32-.26-.77-.3-1.12-.09-.35.21-.53.62-.46,1.02.08.46.5.78.96.79.16,0,.16-.24,0-.24Z"/>
              </g>
            </g>
            <g class="cls-65">
              <g>
                <path d="m21.76,17.3c-.3,0-.58-.19-.68-.47-.1-.29-.01-.62.23-.82.23-.19.57-.21.83-.06.25.15.4.46.34.75-.07.34-.37.59-.72.6-.16,0-.16.25,0,.25.41-.01.77-.26.91-.64s.02-.83-.29-1.09c-.32-.26-.77-.3-1.12-.09-.35.21-.53.62-.46,1.02.08.46.5.78.96.79.16,0,.16-.24,0-.24Z"/>
                <path d="m18.36,17.3c-.3,0-.58-.19-.68-.47-.1-.29-.01-.62.23-.82.23-.19.57-.21.83-.06.25.15.4.46.34.75-.08.34-.37.59-.72.6-.16,0-.16.25,0,.25.41-.01.77-.26.91-.64s.02-.83-.29-1.09c-.32-.26-.77-.3-1.12-.09-.35.21-.53.62-.46,1.02.08.46.5.78.96.79.16,0,.16-.24,0-.24Z"/>
              </g>
            </g>
            <g class="cls-36">
              <path d="m25.16,17.3c-.3,0-.58-.19-.68-.47-.1-.29-.01-.62.23-.82.23-.19.57-.21.83-.06.25.15.4.46.34.75-.07.34-.37.59-.72.6-.16,0-.16.25,0,.25.41-.01.77-.26.91-.64s.02-.83-.29-1.09c-.32-.26-.77-.3-1.12-.09-.35.21-.53.62-.46,1.02.08.46.5.78.96.79.16,0,.16-.24,0-.24Z"/>
            </g>
          </g>
        </g>
        <g class="cls-19">
          <g>
            <g class="cls-23">
              <g>
                <path d="m21.76,30.9c-.3,0-.58-.19-.68-.47-.1-.29-.01-.62.23-.82.23-.19.57-.21.83-.06.25.15.4.46.34.75-.07.35-.37.6-.72.6-.16,0-.16.25,0,.25.41-.01.77-.26.91-.64s.02-.83-.29-1.09c-.32-.26-.77-.3-1.12-.09-.35.21-.53.62-.46,1.02.08.46.5.78.96.79.16,0,.16-.24,0-.24Z"/>
                <path d="m18.36,30.9c-.3,0-.58-.19-.68-.47-.1-.29-.01-.62.23-.82.23-.19.57-.21.83-.06.25.15.4.46.34.75-.08.35-.37.6-.72.6-.16,0-.16.25,0,.25.41-.01.77-.26.91-.64s.02-.83-.29-1.09c-.32-.26-.77-.3-1.12-.09-.35.21-.53.62-.46,1.02.08.46.5.78.96.79.16,0,.16-.24,0-.24Z"/>
                <path d="m21.76,27.5c-.3,0-.58-.19-.68-.47-.1-.29-.01-.62.23-.82.23-.19.57-.21.83-.06.25.15.4.46.34.75-.07.35-.37.59-.72.6-.16,0-.16.25,0,.25.41-.01.77-.26.91-.64s.02-.83-.29-1.09c-.32-.26-.77-.3-1.12-.09-.35.21-.53.62-.46,1.02.08.46.5.78.96.79.16,0,.16-.24,0-.24Z"/>
                <path d="m18.36,27.5c-.3,0-.58-.19-.68-.47-.1-.29-.01-.62.23-.82.23-.19.57-.21.83-.06.25.15.4.46.34.75-.08.35-.37.59-.72.6-.16,0-.16.25,0,.25.41-.01.77-.26.91-.64s.02-.83-.29-1.09c-.32-.26-.77-.3-1.12-.09-.35.21-.53.62-.46,1.02.08.46.5.78.96.79.16,0,.16-.24,0-.24Z"/>
                <path d="m20.06,29.2c-.3,0-.58-.19-.68-.47-.1-.29-.01-.62.23-.82.23-.19.57-.21.83-.06.25.15.4.46.34.75-.07.35-.37.6-.72.6-.16,0-.16.25,0,.25.41-.01.77-.26.91-.64s.02-.83-.29-1.09c-.32-.26-.77-.3-1.12-.09-.35.21-.53.62-.46,1.02.08.46.5.78.96.79.16,0,.16-.24,0-.24Z"/>
                <path d="m23.46,29.2c-.3,0-.58-.19-.68-.47-.1-.29-.01-.62.23-.82.23-.19.57-.21.83-.06.25.15.4.46.34.75-.07.35-.37.6-.72.6-.16,0-.16.25,0,.25.41-.01.77-.26.91-.64s.02-.83-.29-1.09c-.32-.26-.77-.3-1.12-.09-.35.21-.53.62-.46,1.02.08.46.5.78.96.79.16,0,.16-.24,0-.24Z"/>
                <path d="m20.06,25.8c-.3,0-.58-.19-.68-.47-.1-.29-.01-.62.23-.82.23-.19.57-.21.83-.06.25.15.4.46.34.75-.07.35-.37.59-.72.6-.16,0-.16.25,0,.25.41-.01.77-.26.91-.64s.02-.83-.29-1.09c-.32-.26-.77-.3-1.12-.09-.35.21-.53.62-.46,1.02.08.46.5.78.96.79.16,0,.16-.24,0-.24Z"/>
                <path d="m23.46,25.8c-.3,0-.58-.19-.68-.47-.1-.29-.01-.62.23-.82.23-.19.57-.21.83-.06.25.15.4.46.34.75-.07.35-.37.59-.72.6-.16,0-.16.25,0,.25.41-.01.77-.26.91-.64s.02-.83-.29-1.09c-.32-.26-.77-.3-1.12-.09-.35.21-.53.62-.46,1.02.08.46.5.78.96.79.16,0,.16-.24,0-.24Z"/>
              </g>
            </g>
            <g class="cls-32">
              <g>
                <path d="m25.16,30.9c-.3,0-.58-.19-.68-.47-.1-.29-.01-.62.23-.82.23-.19.57-.21.83-.06.25.15.4.46.34.75-.07.35-.37.6-.72.6-.16,0-.16.25,0,.25.41-.01.77-.26.91-.64s.02-.83-.29-1.09c-.32-.26-.77-.3-1.12-.09-.35.21-.53.62-.46,1.02.08.46.5.78.96.79.16,0,.16-.24,0-.24Z"/>
                <path d="m25.16,27.5c-.3,0-.58-.19-.68-.47-.1-.29-.01-.62.23-.82.23-.19.57-.21.83-.06.25.15.4.46.34.75-.07.35-.37.59-.72.6-.16,0-.16.25,0,.25.41-.01.77-.26.91-.64s.02-.83-.29-1.09c-.32-.26-.77-.3-1.12-.09-.35.21-.53.62-.46,1.02.08.46.5.78.96.79.16,0,.16-.24,0-.24Z"/>
              </g>
            </g>
            <g class="cls-72">
              <g>
                <path d="m21.76,24.1c-.3,0-.58-.19-.68-.47-.1-.29-.01-.62.23-.82.23-.19.57-.21.83-.06.25.15.4.46.34.75-.07.35-.37.59-.72.6-.16,0-.16.25,0,.25.41-.01.77-.26.91-.64s.02-.83-.29-1.09c-.32-.26-.77-.3-1.12-.09-.35.21-.53.62-.46,1.02.08.46.5.78.96.79.16,0,.16-.24,0-.24Z"/>
                <path d="m18.36,24.1c-.3,0-.58-.19-.68-.47-.1-.29-.01-.62.23-.82.23-.19.57-.21.83-.06.25.15.4.46.34.75-.08.35-.37.59-.72.6-.16,0-.16.25,0,.25.41-.01.77-.26.91-.64s.02-.83-.29-1.09c-.32-.26-.77-.3-1.12-.09-.35.21-.53.62-.46,1.02.08.46.5.78.96.79.16,0,.16-.24,0-.24Z"/>
              </g>
            </g>
            <g class="cls-56">
              <path d="m25.16,24.1c-.3,0-.58-.19-.68-.47-.1-.29-.01-.62.23-.82.23-.19.57-.21.83-.06.25.15.4.46.34.75-.07.35-.37.59-.72.6-.16,0-.16.25,0,.25.41-.01.77-.26.91-.64s.02-.83-.29-1.09c-.32-.26-.77-.3-1.12-.09-.35.21-.53.62-.46,1.02.08.46.5.78.96.79.16,0,.16-.24,0-.24Z"/>
            </g>
          </g>
        </g>
        <g class="cls-37">
          <g>
            <g class="cls-48">
              <g>
                <path d="m28.56,17.3c-.3,0-.58-.19-.68-.47-.1-.29-.01-.62.23-.82.23-.19.57-.21.83-.06.25.15.4.46.34.75-.07.34-.37.59-.72.6-.16,0-.16.25,0,.25.41-.01.77-.26.91-.64s.02-.83-.29-1.09c-.32-.26-.77-.3-1.12-.09-.35.21-.53.62-.46,1.02.08.46.5.78.96.79.16,0,.16-.24,0-.24Z"/>
                <path d="m25.16,17.3c-.3,0-.58-.19-.68-.47-.1-.29-.01-.62.23-.82.23-.19.57-.21.83-.06.25.15.4.46.34.75-.07.34-.37.59-.72.6-.16,0-.16.25,0,.25.41-.01.77-.26.91-.64s.02-.83-.29-1.09c-.32-.26-.77-.3-1.12-.09-.35.21-.53.62-.46,1.02.08.46.5.78.96.79.16,0,.16-.24,0-.24Z"/>
                <path d="m28.56,13.89c-.3,0-.58-.19-.68-.47-.1-.29-.01-.62.23-.82.23-.19.57-.21.83-.06.25.15.4.46.34.75-.07.35-.37.6-.72.6-.16,0-.16.25,0,.25.41-.01.77-.26.91-.64s.02-.83-.29-1.09c-.32-.26-.77-.3-1.12-.09-.35.21-.53.62-.46,1.02.08.46.5.78.96.79.16.02.16-.23,0-.24Z"/>
                <path d="m25.16,13.89c-.3,0-.58-.19-.68-.47-.1-.29-.01-.62.23-.82.23-.19.57-.21.83-.06.25.15.4.46.34.75-.07.35-.37.6-.72.6-.16,0-.16.25,0,.25.41-.01.77-.26.91-.64s.02-.83-.29-1.09c-.32-.26-.77-.3-1.12-.09-.35.21-.53.62-.46,1.02.08.46.5.78.96.79.16.02.16-.23,0-.24Z"/>
                <path d="m26.86,15.59c-.3,0-.58-.19-.68-.47-.1-.29-.01-.62.23-.82.23-.19.57-.21.83-.06.25.15.4.46.34.75-.07.35-.37.6-.72.6-.16,0-.16.25,0,.25.41-.01.77-.26.91-.64s.02-.83-.29-1.09c-.32-.26-.77-.3-1.12-.09-.35.21-.53.62-.46,1.02.08.46.5.78.96.79.16.02.16-.23,0-.24Z"/>
                <path d="m30.26,15.59c-.3,0-.58-.19-.68-.47-.1-.29-.01-.62.23-.82.23-.19.57-.21.83-.06.25.15.4.46.34.75-.07.35-.37.6-.72.6-.16,0-.16.25,0,.25.41-.01.77-.26.91-.64s.02-.83-.29-1.09c-.32-.26-.77-.3-1.12-.09-.35.21-.53.62-.46,1.02.08.46.5.78.96.79.16.02.16-.23,0-.24Z"/>
                <path d="m26.86,12.19c-.3,0-.58-.19-.68-.47-.1-.29-.01-.62.23-.82.23-.19.57-.21.83-.06.25.15.4.46.34.75-.07.35-.37.6-.72.6-.16,0-.16.25,0,.25.41-.01.77-.26.91-.64s.02-.83-.29-1.09c-.32-.26-.77-.3-1.12-.09-.35.21-.53.62-.46,1.02.08.46.5.78.96.79.16.02.16-.23,0-.24Z"/>
                <path d="m30.26,12.19c-.3,0-.58-.19-.68-.47-.1-.29-.01-.62.23-.82.23-.19.57-.21.83-.06.25.15.4.46.34.75-.07.35-.37.6-.72.6-.16,0-.16.25,0,.25.41-.01.77-.26.91-.64s.02-.83-.29-1.09c-.32-.26-.77-.3-1.12-.09-.35.21-.53.62-.46,1.02.08.46.5.78.96.79.16.02.16-.23,0-.24Z"/>
              </g>
            </g>
            <g class="cls-14">
              <g>
                <path d="m31.96,17.3c-.3,0-.58-.19-.68-.47-.1-.29-.01-.62.23-.82.23-.19.57-.21.83-.06.25.15.4.46.34.75-.07.34-.37.59-.72.6-.16,0-.16.25,0,.25.41-.01.77-.26.91-.64s.02-.83-.29-1.09c-.32-.26-.77-.3-1.12-.09-.35.21-.53.62-.46,1.02.08.46.5.78.96.79.16,0,.16-.24,0-.24Z"/>
                <path d="m31.96,13.89c-.3,0-.58-.19-.68-.47-.1-.29-.01-.62.23-.82.23-.19.57-.21.83-.06.25.15.4.46.34.75-.07.35-.37.6-.72.6-.16,0-.16.25,0,.25.41-.01.77-.26.91-.64s.02-.83-.29-1.09c-.32-.26-.77-.3-1.12-.09-.35.21-.53.62-.46,1.02.08.46.5.78.96.79.16.02.16-.23,0-.24Z"/>
              </g>
            </g>
            <g class="cls-10">
              <g>
                <path d="m28.56,10.49c-.3,0-.58-.19-.68-.47-.1-.29-.01-.62.23-.82.23-.19.57-.21.83-.06.25.15.4.46.34.75-.07.35-.37.6-.72.6-.16,0-.16.25,0,.25.41-.01.77-.26.91-.64s.02-.83-.29-1.09c-.32-.26-.77-.3-1.12-.09-.35.21-.53.62-.46,1.02.08.46.5.78.96.79.16,0,.16-.24,0-.24Z"/>
                <path d="m25.16,10.49c-.3,0-.58-.19-.68-.47-.1-.29-.01-.62.23-.82.23-.19.57-.21.83-.06.25.15.4.46.34.75-.07.35-.37.6-.72.6-.16,0-.16.25,0,.25.41-.01.77-.26.91-.64s.02-.83-.29-1.09c-.32-.26-.77-.3-1.12-.09-.35.21-.53.62-.46,1.02.08.46.5.78.96.79.16,0,.16-.24,0-.24Z"/>
              </g>
            </g>
            <g class="cls-26">
              <path d="m31.96,10.49c-.3,0-.58-.19-.68-.47-.1-.29-.01-.62.23-.82.23-.19.57-.21.83-.06.25.15.4.46.34.75-.07.35-.37.6-.72.6-.16,0-.16.25,0,.25.41-.01.77-.26.91-.64s.02-.83-.29-1.09c-.32-.26-.77-.3-1.12-.09-.35.21-.53.62-.46,1.02.08.46.5.78.96.79.16,0,.16-.24,0-.24Z"/>
            </g>
          </g>
        </g>
        <g class="cls-75">
          <g>
            <g class="cls-31">
              <g>
                <path d="m28.56,24.1c-.3,0-.58-.19-.68-.47-.1-.29-.01-.62.23-.82.23-.19.57-.21.83-.06.25.15.4.46.34.75-.07.35-.37.59-.72.6-.16,0-.16.25,0,.25.41-.01.77-.26.91-.64s.02-.83-.29-1.09c-.32-.26-.77-.3-1.12-.09-.35.21-.53.62-.46,1.02.08.46.5.78.96.79.16,0,.16-.24,0-.24Z"/>
                <path d="m25.16,24.1c-.3,0-.58-.19-.68-.47-.1-.29-.01-.62.23-.82.23-.19.57-.21.83-.06.25.15.4.46.34.75-.07.35-.37.59-.72.6-.16,0-.16.25,0,.25.41-.01.77-.26.91-.64s.02-.83-.29-1.09c-.32-.26-.77-.3-1.12-.09-.35.21-.53.62-.46,1.02.08.46.5.78.96.79.16,0,.16-.24,0-.24Z"/>
                <path d="m28.56,20.7c-.3,0-.58-.19-.68-.47-.1-.29-.01-.62.23-.82.23-.19.57-.21.83-.06.25.15.4.46.34.75-.07.35-.37.59-.72.6-.16,0-.16.25,0,.25.41-.01.77-.26.91-.64s.02-.83-.29-1.09c-.32-.26-.77-.3-1.12-.09-.35.21-.53.62-.46,1.02.08.46.5.78.96.79.16,0,.16-.24,0-.24Z"/>
                <path d="m25.16,20.7c-.3,0-.58-.19-.68-.47-.1-.29-.01-.62.23-.82.23-.19.57-.21.83-.06.25.15.4.46.34.75-.07.35-.37.59-.72.6-.16,0-.16.25,0,.25.41-.01.77-.26.91-.64s.02-.83-.29-1.09c-.32-.26-.77-.3-1.12-.09-.35.21-.53.62-.46,1.02.08.46.5.78.96.79.16,0,.16-.24,0-.24Z"/>
                <path d="m26.86,22.4c-.3,0-.58-.19-.68-.47-.1-.29-.01-.62.23-.82.23-.19.57-.21.83-.06.25.15.4.46.34.75-.07.35-.37.59-.72.6-.16,0-.16.25,0,.25.41-.01.77-.26.91-.64s.02-.83-.29-1.09c-.32-.26-.77-.3-1.12-.09-.35.21-.53.62-.46,1.02.08.46.5.78.96.79.16,0,.16-.24,0-.24Z"/>
                <path d="m30.26,22.4c-.3,0-.58-.19-.68-.47-.1-.29-.01-.62.23-.82.23-.19.57-.21.83-.06.25.15.4.46.34.75-.07.35-.37.59-.72.6-.16,0-.16.25,0,.25.41-.01.77-.26.91-.64s.02-.83-.29-1.09c-.32-.26-.77-.3-1.12-.09-.35.21-.53.62-.46,1.02.08.46.5.78.96.79.16,0,.16-.24,0-.24Z"/>
                <path d="m26.86,19c-.3,0-.58-.19-.68-.47-.1-.29-.01-.62.23-.82.23-.19.57-.21.83-.06.25.15.4.46.34.75-.07.34-.37.59-.72.6-.16,0-.16.25,0,.25.41-.01.77-.26.91-.64s.02-.83-.29-1.09c-.32-.26-.77-.3-1.12-.09-.35.21-.53.62-.46,1.02.08.46.5.78.96.79.16,0,.16-.24,0-.24Z"/>
                <path d="m30.26,19c-.3,0-.58-.19-.68-.47-.1-.29-.01-.62.23-.82.23-.19.57-.21.83-.06.25.15.4.46.34.75-.07.34-.37.59-.72.6-.16,0-.16.25,0,.25.41-.01.77-.26.91-.64s.02-.83-.29-1.09c-.32-.26-.77-.3-1.12-.09-.35.21-.53.62-.46,1.02.08.46.5.78.96.79.16,0,.16-.24,0-.24Z"/>
              </g>
            </g>
            <g class="cls-17">
              <g>
                <path d="m31.96,24.1c-.3,0-.58-.19-.68-.47-.1-.29-.01-.62.23-.82.23-.19.57-.21.83-.06.25.15.4.46.34.75-.07.35-.37.59-.72.6-.16,0-.16.25,0,.25.41-.01.77-.26.91-.64s.02-.83-.29-1.09c-.32-.26-.77-.3-1.12-.09-.35.21-.53.62-.46,1.02.08.46.5.78.96.79.16,0,.16-.24,0-.24Z"/>
                <path d="m31.96,20.7c-.3,0-.58-.19-.68-.47-.1-.29-.01-.62.23-.82.23-.19.57-.21.83-.06.25.15.4.46.34.75-.07.35-.37.59-.72.6-.16,0-.16.25,0,.25.41-.01.77-.26.91-.64s.02-.83-.29-1.09c-.32-.26-.77-.3-1.12-.09-.35.21-.53.62-.46,1.02.08.46.5.78.96.79.16,0,.16-.24,0-.24Z"/>
              </g>
            </g>
            <g class="cls-30">
              <g>
                <path d="m28.56,17.3c-.3,0-.58-.19-.68-.47-.1-.29-.01-.62.23-.82.23-.19.57-.21.83-.06.25.15.4.46.34.75-.07.34-.37.59-.72.6-.16,0-.16.25,0,.25.41-.01.77-.26.91-.64s.02-.83-.29-1.09c-.32-.26-.77-.3-1.12-.09-.35.21-.53.62-.46,1.02.08.46.5.78.96.79.16,0,.16-.24,0-.24Z"/>
                <path d="m25.16,17.3c-.3,0-.58-.19-.68-.47-.1-.29-.01-.62.23-.82.23-.19.57-.21.83-.06.25.15.4.46.34.75-.07.34-.37.59-.72.6-.16,0-.16.25,0,.25.41-.01.77-.26.91-.64s.02-.83-.29-1.09c-.32-.26-.77-.3-1.12-.09-.35.21-.53.62-.46,1.02.08.46.5.78.96.79.16,0,.16-.24,0-.24Z"/>
              </g>
            </g>
            <g class="cls-45">
              <path d="m31.96,17.3c-.3,0-.58-.19-.68-.47-.1-.29-.01-.62.23-.82.23-.19.57-.21.83-.06.25.15.4.46.34.75-.07.34-.37.59-.72.6-.16,0-.16.25,0,.25.41-.01.77-.26.91-.64s.02-.83-.29-1.09c-.32-.26-.77-.3-1.12-.09-.35.21-.53.62-.46,1.02.08.46.5.78.96.79.16,0,.16-.24,0-.24Z"/>
            </g>
          </g>
        </g>
        <g class="cls-22">
          <g>
            <g class="cls-13">
              <g>
                <path d="m28.56,30.9c-.3,0-.58-.19-.68-.47-.1-.29-.01-.62.23-.82.23-.19.57-.21.83-.06.25.15.4.46.34.75-.07.35-.37.6-.72.6-.16,0-.16.25,0,.25.41-.01.77-.26.91-.64s.02-.83-.29-1.09c-.32-.26-.77-.3-1.12-.09-.35.21-.53.62-.46,1.02.08.46.5.78.96.79.16,0,.16-.24,0-.24Z"/>
                <path d="m25.16,30.9c-.3,0-.58-.19-.68-.47-.1-.29-.01-.62.23-.82.23-.19.57-.21.83-.06.25.15.4.46.34.75-.07.35-.37.6-.72.6-.16,0-.16.25,0,.25.41-.01.77-.26.91-.64s.02-.83-.29-1.09c-.32-.26-.77-.3-1.12-.09-.35.21-.53.62-.46,1.02.08.46.5.78.96.79.16,0,.16-.24,0-.24Z"/>
                <path d="m28.56,27.5c-.3,0-.58-.19-.68-.47-.1-.29-.01-.62.23-.82.23-.19.57-.21.83-.06.25.15.4.46.34.75-.07.35-.37.59-.72.6-.16,0-.16.25,0,.25.41-.01.77-.26.91-.64s.02-.83-.29-1.09c-.32-.26-.77-.3-1.12-.09-.35.21-.53.62-.46,1.02.08.46.5.78.96.79.16,0,.16-.24,0-.24Z"/>
                <path d="m25.16,27.5c-.3,0-.58-.19-.68-.47-.1-.29-.01-.62.23-.82.23-.19.57-.21.83-.06.25.15.4.46.34.75-.07.35-.37.59-.72.6-.16,0-.16.25,0,.25.41-.01.77-.26.91-.64s.02-.83-.29-1.09c-.32-.26-.77-.3-1.12-.09-.35.21-.53.62-.46,1.02.08.46.5.78.96.79.16,0,.16-.24,0-.24Z"/>
                <path d="m26.86,29.2c-.3,0-.58-.19-.68-.47-.1-.29-.01-.62.23-.82.23-.19.57-.21.83-.06.25.15.4.46.34.75-.07.35-.37.6-.72.6-.16,0-.16.25,0,.25.41-.01.77-.26.91-.64s.02-.83-.29-1.09c-.32-.26-.77-.3-1.12-.09-.35.21-.53.62-.46,1.02.08.46.5.78.96.79.16,0,.16-.24,0-.24Z"/>
                <path d="m30.26,29.2c-.3,0-.58-.19-.68-.47-.1-.29-.01-.62.23-.82.23-.19.57-.21.83-.06.25.15.4.46.34.75-.07.35-.37.6-.72.6-.16,0-.16.25,0,.25.41-.01.77-.26.91-.64s.02-.83-.29-1.09c-.32-.26-.77-.3-1.12-.09-.35.21-.53.62-.46,1.02.08.46.5.78.96.79.16,0,.16-.24,0-.24Z"/>
                <path d="m26.86,25.8c-.3,0-.58-.19-.68-.47-.1-.29-.01-.62.23-.82.23-.19.57-.21.83-.06.25.15.4.46.34.75-.07.35-.37.59-.72.6-.16,0-.16.25,0,.25.41-.01.77-.26.91-.64s.02-.83-.29-1.09c-.32-.26-.77-.3-1.12-.09-.35.21-.53.62-.46,1.02.08.46.5.78.96.79.16,0,.16-.24,0-.24Z"/>
                <path d="m30.26,25.8c-.3,0-.58-.19-.68-.47-.1-.29-.01-.62.23-.82.23-.19.57-.21.83-.06.25.15.4.46.34.75-.07.35-.37.59-.72.6-.16,0-.16.25,0,.25.41-.01.77-.26.91-.64s.02-.83-.29-1.09c-.32-.26-.77-.3-1.12-.09-.35.21-.53.62-.46,1.02.08.46.5.78.96.79.16,0,.16-.24,0-.24Z"/>
              </g>
            </g>
            <g class="cls-62">
              <g>
                <path d="m31.96,30.9c-.3,0-.58-.19-.68-.47-.1-.29-.01-.62.23-.82.23-.19.57-.21.83-.06.25.15.4.46.34.75-.07.35-.37.6-.72.6-.16,0-.16.25,0,.25.41-.01.77-.26.91-.64s.02-.83-.29-1.09c-.32-.26-.77-.3-1.12-.09-.35.21-.53.62-.46,1.02.08.46.5.78.96.79.16,0,.16-.24,0-.24Z"/>
                <path d="m31.96,27.5c-.3,0-.58-.19-.68-.47-.1-.29-.01-.62.23-.82.23-.19.57-.21.83-.06.25.15.4.46.34.75-.07.35-.37.59-.72.6-.16,0-.16.25,0,.25.41-.01.77-.26.91-.64s.02-.83-.29-1.09c-.32-.26-.77-.3-1.12-.09-.35.21-.53.62-.46,1.02.08.46.5.78.96.79.16,0,.16-.24,0-.24Z"/>
              </g>
            </g>
            <g class="cls-51">
              <g>
                <path d="m28.56,24.1c-.3,0-.58-.19-.68-.47-.1-.29-.01-.62.23-.82.23-.19.57-.21.83-.06.25.15.4.46.34.75-.07.35-.37.59-.72.6-.16,0-.16.25,0,.25.41-.01.77-.26.91-.64s.02-.83-.29-1.09c-.32-.26-.77-.3-1.12-.09-.35.21-.53.62-.46,1.02.08.46.5.78.96.79.16,0,.16-.24,0-.24Z"/>
                <path d="m25.16,24.1c-.3,0-.58-.19-.68-.47-.1-.29-.01-.62.23-.82.23-.19.57-.21.83-.06.25.15.4.46.34.75-.07.35-.37.59-.72.6-.16,0-.16.25,0,.25.41-.01.77-.26.91-.64s.02-.83-.29-1.09c-.32-.26-.77-.3-1.12-.09-.35.21-.53.62-.46,1.02.08.46.5.78.96.79.16,0,.16-.24,0-.24Z"/>
              </g>
            </g>
            <g class="cls-34">
              <path d="m31.96,24.1c-.3,0-.58-.19-.68-.47-.1-.29-.01-.62.23-.82.23-.19.57-.21.83-.06.25.15.4.46.34.75-.07.35-.37.59-.72.6-.16,0-.16.25,0,.25.41-.01.77-.26.91-.64s.02-.83-.29-1.09c-.32-.26-.77-.3-1.12-.09-.35.21-.53.62-.46,1.02.08.46.5.78.96.79.16,0,.16-.24,0-.24Z"/>
            </g>
          </g>
        </g>
        <g class="cls-4">
          <g>
            <g class="cls-18">
              <g>
                <path d="m35.36,17.3c-.3,0-.58-.19-.68-.47-.1-.29-.01-.62.23-.82.23-.19.57-.21.83-.06.25.15.4.46.34.75-.07.34-.37.59-.72.6-.16,0-.16.25,0,.25.41-.01.77-.26.91-.64s.02-.83-.29-1.09c-.32-.26-.77-.3-1.12-.09-.35.21-.53.62-.46,1.02.08.46.5.78.96.79.16,0,.17-.24,0-.24Z"/>
                <path d="m31.96,17.3c-.3,0-.58-.19-.68-.47-.1-.29-.01-.62.23-.82.23-.19.57-.21.83-.06.25.15.4.46.34.75-.07.34-.37.59-.72.6-.16,0-.16.25,0,.25.41-.01.77-.26.91-.64s.02-.83-.29-1.09c-.32-.26-.77-.3-1.12-.09-.35.21-.53.62-.46,1.02.08.46.5.78.96.79.16,0,.16-.24,0-.24Z"/>
                <path d="m35.36,13.89c-.3,0-.58-.19-.68-.47-.1-.29-.01-.62.23-.82.23-.19.57-.21.83-.06.25.15.4.46.34.75-.07.35-.37.6-.72.6-.16,0-.16.25,0,.25.41-.01.77-.26.91-.64s.02-.83-.29-1.09c-.32-.26-.77-.3-1.12-.09-.35.21-.53.62-.46,1.02.08.46.5.78.96.79.16.02.17-.23,0-.24Z"/>
                <path d="m31.96,13.89c-.3,0-.58-.19-.68-.47-.1-.29-.01-.62.23-.82.23-.19.57-.21.83-.06.25.15.4.46.34.75-.07.35-.37.6-.72.6-.16,0-.16.25,0,.25.41-.01.77-.26.91-.64s.02-.83-.29-1.09c-.32-.26-.77-.3-1.12-.09-.35.21-.53.62-.46,1.02.08.46.5.78.96.79.16.02.16-.23,0-.24Z"/>
                <path d="m33.66,15.59c-.3,0-.58-.19-.68-.47-.1-.29-.01-.62.23-.82.23-.19.57-.21.83-.06.25.15.4.46.34.75-.07.35-.37.6-.72.6-.16,0-.16.25,0,.25.41-.01.77-.26.91-.64s.02-.83-.29-1.09c-.32-.26-.77-.3-1.12-.09-.35.21-.53.62-.46,1.02.08.46.5.78.96.79.16.02.16-.23,0-.24Z"/>
                <path d="m37.06,15.59c-.3,0-.58-.19-.68-.47-.1-.29-.01-.62.23-.82.23-.19.57-.21.83-.06.25.15.4.46.34.75-.07.35-.37.6-.72.6-.16,0-.16.25,0,.25.41-.01.77-.26.91-.64s.02-.83-.29-1.09c-.32-.26-.77-.3-1.12-.09-.35.21-.53.62-.46,1.02.08.46.5.78.96.79.17.02.17-.23,0-.24Z"/>
                <path d="m33.66,12.19c-.3,0-.58-.19-.68-.47-.1-.29-.01-.62.23-.82.23-.19.57-.21.83-.06.25.15.4.46.34.75-.07.35-.37.6-.72.6-.16,0-.16.25,0,.25.41-.01.77-.26.91-.64s.02-.83-.29-1.09c-.32-.26-.77-.3-1.12-.09-.35.21-.53.62-.46,1.02.08.46.5.78.96.79.16.02.16-.23,0-.24Z"/>
                <path d="m37.06,12.19c-.3,0-.58-.19-.68-.47-.1-.29-.01-.62.23-.82.23-.19.57-.21.83-.06.25.15.4.46.34.75-.07.35-.37.6-.72.6-.16,0-.16.25,0,.25.41-.01.77-.26.91-.64s.02-.83-.29-1.09c-.32-.26-.77-.3-1.12-.09-.35.21-.53.62-.46,1.02.08.46.5.78.96.79.17.02.17-.23,0-.24Z"/>
              </g>
            </g>
            <g class="cls-12">
              <g>
                <path d="m38.77,17.3c-.3,0-.58-.19-.68-.47-.1-.29-.01-.62.23-.82.23-.19.57-.21.83-.06.25.15.4.46.34.75-.08.34-.37.59-.72.6-.16,0-.16.25,0,.25.41-.01.77-.26.91-.64s.02-.83-.29-1.09c-.32-.26-.77-.3-1.12-.09-.35.21-.53.62-.46,1.02.08.46.5.78.96.79.16,0,.16-.24,0-.24Z"/>
                <path d="m38.77,13.89c-.3,0-.58-.19-.68-.47-.1-.29-.01-.62.23-.82.23-.19.57-.21.83-.06.25.15.4.46.34.75-.08.35-.37.6-.72.6-.16,0-.16.25,0,.25.41-.01.77-.26.91-.64s.02-.83-.29-1.09c-.32-.26-.77-.3-1.12-.09-.35.21-.53.62-.46,1.02.08.46.5.78.96.79.16.02.16-.23,0-.24Z"/>
              </g>
            </g>
            <g class="cls-43">
              <g>
                <path d="m35.36,10.49c-.3,0-.58-.19-.68-.47-.1-.29-.01-.62.23-.82.23-.19.57-.21.83-.06.25.15.4.46.34.75-.07.35-.37.6-.72.6-.16,0-.16.25,0,.25.41-.01.77-.26.91-.64s.02-.83-.29-1.09c-.32-.26-.77-.3-1.12-.09-.35.21-.53.62-.46,1.02.08.46.5.78.96.79.16,0,.17-.24,0-.24Z"/>
                <path d="m31.96,10.49c-.3,0-.58-.19-.68-.47-.1-.29-.01-.62.23-.82.23-.19.57-.21.83-.06.25.15.4.46.34.75-.07.35-.37.6-.72.6-.16,0-.16.25,0,.25.41-.01.77-.26.91-.64s.02-.83-.29-1.09c-.32-.26-.77-.3-1.12-.09-.35.21-.53.62-.46,1.02.08.46.5.78.96.79.16,0,.16-.24,0-.24Z"/>
              </g>
            </g>
            <g class="cls-69">
              <path d="m38.77,10.49c-.3,0-.58-.19-.68-.47-.1-.29-.01-.62.23-.82.23-.19.57-.21.83-.06.25.15.4.46.34.75-.08.35-.37.6-.72.6-.16,0-.16.25,0,.25.41-.01.77-.26.91-.64s.02-.83-.29-1.09c-.32-.26-.77-.3-1.12-.09-.35.21-.53.62-.46,1.02.08.46.5.78.96.79.16,0,.16-.24,0-.24Z"/>
            </g>
          </g>
        </g>
        <g class="cls-42">
          <g>
            <g class="cls-71">
              <g>
                <path d="m35.36,24.1c-.3,0-.58-.19-.68-.47-.1-.29-.01-.62.23-.82.23-.19.57-.21.83-.06.25.15.4.46.34.75-.07.35-.37.59-.72.6-.16,0-.16.25,0,.25.41-.01.77-.26.91-.64s.02-.83-.29-1.09c-.32-.26-.77-.3-1.12-.09-.35.21-.53.62-.46,1.02.08.46.5.78.96.79.16,0,.17-.24,0-.24Z"/>
                <path d="m31.96,24.1c-.3,0-.58-.19-.68-.47-.1-.29-.01-.62.23-.82.23-.19.57-.21.83-.06.25.15.4.46.34.75-.07.35-.37.59-.72.6-.16,0-.16.25,0,.25.41-.01.77-.26.91-.64s.02-.83-.29-1.09c-.32-.26-.77-.3-1.12-.09-.35.21-.53.62-.46,1.02.08.46.5.78.96.79.16,0,.16-.24,0-.24Z"/>
                <path d="m35.36,20.7c-.3,0-.58-.19-.68-.47-.1-.29-.01-.62.23-.82.23-.19.57-.21.83-.06.25.15.4.46.34.75-.07.35-.37.59-.72.6-.16,0-.16.25,0,.25.41-.01.77-.26.91-.64s.02-.83-.29-1.09c-.32-.26-.77-.3-1.12-.09-.35.21-.53.62-.46,1.02.08.46.5.78.96.79.16,0,.17-.24,0-.24Z"/>
                <path d="m31.96,20.7c-.3,0-.58-.19-.68-.47-.1-.29-.01-.62.23-.82.23-.19.57-.21.83-.06.25.15.4.46.34.75-.07.35-.37.59-.72.6-.16,0-.16.25,0,.25.41-.01.77-.26.91-.64s.02-.83-.29-1.09c-.32-.26-.77-.3-1.12-.09-.35.21-.53.62-.46,1.02.08.46.5.78.96.79.16,0,.16-.24,0-.24Z"/>
                <path d="m33.66,22.4c-.3,0-.58-.19-.68-.47-.1-.29-.01-.62.23-.82.23-.19.57-.21.83-.06.25.15.4.46.34.75-.07.35-.37.59-.72.6-.16,0-.16.25,0,.25.41-.01.77-.26.91-.64s.02-.83-.29-1.09c-.32-.26-.77-.3-1.12-.09-.35.21-.53.62-.46,1.02.08.46.5.78.96.79.16,0,.16-.24,0-.24Z"/>
                <path d="m37.06,22.4c-.3,0-.58-.19-.68-.47-.1-.29-.01-.62.23-.82.23-.19.57-.21.83-.06.25.15.4.46.34.75-.07.35-.37.59-.72.6-.16,0-.16.25,0,.25.41-.01.77-.26.91-.64s.02-.83-.29-1.09c-.32-.26-.77-.3-1.12-.09-.35.21-.53.62-.46,1.02.08.46.5.78.96.79.17,0,.17-.24,0-.24Z"/>
                <path d="m33.66,19c-.3,0-.58-.19-.68-.47-.1-.29-.01-.62.23-.82.23-.19.57-.21.83-.06.25.15.4.46.34.75-.07.34-.37.59-.72.6-.16,0-.16.25,0,.25.41-.01.77-.26.91-.64s.02-.83-.29-1.09c-.32-.26-.77-.3-1.12-.09-.35.21-.53.62-.46,1.02.08.46.5.78.96.79.16,0,.16-.24,0-.24Z"/>
                <path d="m37.06,19c-.3,0-.58-.19-.68-.47-.1-.29-.01-.62.23-.82.23-.19.57-.21.83-.06.25.15.4.46.34.75-.07.34-.37.59-.72.6-.16,0-.16.25,0,.25.41-.01.77-.26.91-.64s.02-.83-.29-1.09c-.32-.26-.77-.3-1.12-.09-.35.21-.53.62-.46,1.02.08.46.5.78.96.79.17,0,.17-.24,0-.24Z"/>
              </g>
            </g>
            <g class="cls-40">
              <g>
                <path d="m38.77,24.1c-.3,0-.58-.19-.68-.47-.1-.29-.01-.62.23-.82.23-.19.57-.21.83-.06.25.15.4.46.34.75-.08.35-.37.59-.72.6-.16,0-.16.25,0,.25.41-.01.77-.26.91-.64s.02-.83-.29-1.09c-.32-.26-.77-.3-1.12-.09-.35.21-.53.62-.46,1.02.08.46.5.78.96.79.16,0,.16-.24,0-.24Z"/>
                <path d="m38.77,20.7c-.3,0-.58-.19-.68-.47-.1-.29-.01-.62.23-.82.23-.19.57-.21.83-.06.25.15.4.46.34.75-.08.35-.37.59-.72.6-.16,0-.16.25,0,.25.41-.01.77-.26.91-.64s.02-.83-.29-1.09c-.32-.26-.77-.3-1.12-.09-.35.21-.53.62-.46,1.02.08.46.5.78.96.79.16,0,.16-.24,0-.24Z"/>
              </g>
            </g>
            <g class="cls-68">
              <g>
                <path d="m35.36,17.3c-.3,0-.58-.19-.68-.47-.1-.29-.01-.62.23-.82.23-.19.57-.21.83-.06.25.15.4.46.34.75-.07.34-.37.59-.72.6-.16,0-.16.25,0,.25.41-.01.77-.26.91-.64s.02-.83-.29-1.09c-.32-.26-.77-.3-1.12-.09-.35.21-.53.62-.46,1.02.08.46.5.78.96.79.16,0,.17-.24,0-.24Z"/>
                <path d="m31.96,17.3c-.3,0-.58-.19-.68-.47-.1-.29-.01-.62.23-.82.23-.19.57-.21.83-.06.25.15.4.46.34.75-.07.34-.37.59-.72.6-.16,0-.16.25,0,.25.41-.01.77-.26.91-.64s.02-.83-.29-1.09c-.32-.26-.77-.3-1.12-.09-.35.21-.53.62-.46,1.02.08.46.5.78.96.79.16,0,.16-.24,0-.24Z"/>
              </g>
            </g>
            <g class="cls-49">
              <path d="m38.77,17.3c-.3,0-.58-.19-.68-.47-.1-.29-.01-.62.23-.82.23-.19.57-.21.83-.06.25.15.4.46.34.75-.08.34-.37.59-.72.6-.16,0-.16.25,0,.25.41-.01.77-.26.91-.64s.02-.83-.29-1.09c-.32-.26-.77-.3-1.12-.09-.35.21-.53.62-.46,1.02.08.46.5.78.96.79.16,0,.16-.24,0-.24Z"/>
            </g>
          </g>
        </g>
        <g class="cls-54">
          <g>
            <g class="cls-67">
              <g>
                <path d="m35.36,30.9c-.3,0-.58-.19-.68-.47-.1-.29-.01-.62.23-.82.23-.19.57-.21.83-.06.25.15.4.46.34.75-.07.35-.37.6-.72.6-.16,0-.16.25,0,.25.41-.01.77-.26.91-.64s.02-.83-.29-1.09c-.32-.26-.77-.3-1.12-.09-.35.21-.53.62-.46,1.02.08.46.5.78.96.79.16,0,.17-.24,0-.24Z"/>
                <path d="m31.96,30.9c-.3,0-.58-.19-.68-.47-.1-.29-.01-.62.23-.82.23-.19.57-.21.83-.06.25.15.4.46.34.75-.07.35-.37.6-.72.6-.16,0-.16.25,0,.25.41-.01.77-.26.91-.64s.02-.83-.29-1.09c-.32-.26-.77-.3-1.12-.09-.35.21-.53.62-.46,1.02.08.46.5.78.96.79.16,0,.16-.24,0-.24Z"/>
                <path d="m35.36,27.5c-.3,0-.58-.19-.68-.47-.1-.29-.01-.62.23-.82.23-.19.57-.21.83-.06.25.15.4.46.34.75-.07.35-.37.59-.72.6-.16,0-.16.25,0,.25.41-.01.77-.26.91-.64s.02-.83-.29-1.09c-.32-.26-.77-.3-1.12-.09-.35.21-.53.62-.46,1.02.08.46.5.78.96.79.16,0,.17-.24,0-.24Z"/>
                <path d="m31.96,27.5c-.3,0-.58-.19-.68-.47-.1-.29-.01-.62.23-.82.23-.19.57-.21.83-.06.25.15.4.46.34.75-.07.35-.37.59-.72.6-.16,0-.16.25,0,.25.41-.01.77-.26.91-.64s.02-.83-.29-1.09c-.32-.26-.77-.3-1.12-.09-.35.21-.53.62-.46,1.02.08.46.5.78.96.79.16,0,.16-.24,0-.24Z"/>
                <path d="m33.66,29.2c-.3,0-.58-.19-.68-.47-.1-.29-.01-.62.23-.82.23-.19.57-.21.83-.06.25.15.4.46.34.75-.07.35-.37.6-.72.6-.16,0-.16.25,0,.25.41-.01.77-.26.91-.64s.02-.83-.29-1.09c-.32-.26-.77-.3-1.12-.09-.35.21-.53.62-.46,1.02.08.46.5.78.96.79.16,0,.16-.24,0-.24Z"/>
                <path d="m37.06,29.2c-.3,0-.58-.19-.68-.47-.1-.29-.01-.62.23-.82.23-.19.57-.21.83-.06.25.15.4.46.34.75-.07.35-.37.6-.72.6-.16,0-.16.25,0,.25.41-.01.77-.26.91-.64s.02-.83-.29-1.09c-.32-.26-.77-.3-1.12-.09-.35.21-.53.62-.46,1.02.08.46.5.78.96.79.17,0,.17-.24,0-.24Z"/>
                <path d="m33.66,25.8c-.3,0-.58-.19-.68-.47-.1-.29-.01-.62.23-.82.23-.19.57-.21.83-.06.25.15.4.46.34.75-.07.35-.37.59-.72.6-.16,0-.16.25,0,.25.41-.01.77-.26.91-.64s.02-.83-.29-1.09c-.32-.26-.77-.3-1.12-.09-.35.21-.53.62-.46,1.02.08.46.5.78.96.79.16,0,.16-.24,0-.24Z"/>
                <path d="m37.06,25.8c-.3,0-.58-.19-.68-.47-.1-.29-.01-.62.23-.82.23-.19.57-.21.83-.06.25.15.4.46.34.75-.07.35-.37.59-.72.6-.16,0-.16.25,0,.25.41-.01.77-.26.91-.64s.02-.83-.29-1.09c-.32-.26-.77-.3-1.12-.09-.35.21-.53.62-.46,1.02.08.46.5.78.96.79.17,0,.17-.24,0-.24Z"/>
              </g>
            </g>
            <g class="cls-27">
              <g>
                <path d="m38.77,30.9c-.3,0-.58-.19-.68-.47-.1-.29-.01-.62.23-.82.23-.19.57-.21.83-.06.25.15.4.46.34.75-.08.35-.37.6-.72.6-.16,0-.16.25,0,.25.41-.01.77-.26.91-.64s.02-.83-.29-1.09c-.32-.26-.77-.3-1.12-.09-.35.21-.53.62-.46,1.02.08.46.5.78.96.79.16,0,.16-.24,0-.24Z"/>
                <path d="m38.77,27.5c-.3,0-.58-.19-.68-.47-.1-.29-.01-.62.23-.82.23-.19.57-.21.83-.06.25.15.4.46.34.75-.08.35-.37.59-.72.6-.16,0-.16.25,0,.25.41-.01.77-.26.91-.64s.02-.83-.29-1.09c-.32-.26-.77-.3-1.12-.09-.35.21-.53.62-.46,1.02.08.46.5.78.96.79.16,0,.16-.24,0-.24Z"/>
              </g>
            </g>
            <g class="cls-61">
              <g>
                <path d="m35.36,24.1c-.3,0-.58-.19-.68-.47-.1-.29-.01-.62.23-.82.23-.19.57-.21.83-.06.25.15.4.46.34.75-.07.35-.37.59-.72.6-.16,0-.16.25,0,.25.41-.01.77-.26.91-.64s.02-.83-.29-1.09c-.32-.26-.77-.3-1.12-.09-.35.21-.53.62-.46,1.02.08.46.5.78.96.79.16,0,.17-.24,0-.24Z"/>
                <path d="m31.96,24.1c-.3,0-.58-.19-.68-.47-.1-.29-.01-.62.23-.82.23-.19.57-.21.83-.06.25.15.4.46.34.75-.07.35-.37.59-.72.6-.16,0-.16.25,0,.25.41-.01.77-.26.91-.64s.02-.83-.29-1.09c-.32-.26-.77-.3-1.12-.09-.35.21-.53.62-.46,1.02.08.46.5.78.96.79.16,0,.16-.24,0-.24Z"/>
              </g>
            </g>
            <g class="cls-9">
              <path d="m38.77,24.1c-.3,0-.58-.19-.68-.47-.1-.29-.01-.62.23-.82.23-.19.57-.21.83-.06.25.15.4.46.34.75-.08.35-.37.59-.72.6-.16,0-.16.25,0,.25.41-.01.77-.26.91-.64s.02-.83-.29-1.09c-.32-.26-.77-.3-1.12-.09-.35.21-.53.62-.46,1.02.08.46.5.78.96.79.16,0,.16-.24,0-.24Z"/>
            </g>
          </g>
        </g>
        <g class="cls-33">
          <g>
            <g class="cls-44">
              <g>
                <path d="m42.17,17.3c-.3,0-.58-.19-.68-.47-.1-.29-.01-.62.23-.82.23-.19.57-.21.83-.06.25.15.4.46.34.75-.07.34-.37.59-.72.6-.16,0-.16.25,0,.25.41-.01.77-.26.91-.64s.02-.83-.29-1.09c-.32-.26-.77-.3-1.12-.09-.35.21-.53.62-.46,1.02.08.46.5.78.96.79.16,0,.16-.24,0-.24Z"/>
                <path d="m38.77,17.3c-.3,0-.58-.19-.68-.47-.1-.29-.01-.62.23-.82.23-.19.57-.21.83-.06.25.15.4.46.34.75-.08.34-.37.59-.72.6-.16,0-.16.25,0,.25.41-.01.77-.26.91-.64s.02-.83-.29-1.09c-.32-.26-.77-.3-1.12-.09-.35.21-.53.62-.46,1.02.08.46.5.78.96.79.16,0,.16-.24,0-.24Z"/>
                <path d="m42.17,13.89c-.3,0-.58-.19-.68-.47-.1-.29-.01-.62.23-.82.23-.19.57-.21.83-.06.25.15.4.46.34.75-.07.35-.37.6-.72.6-.16,0-.16.25,0,.25.41-.01.77-.26.91-.64s.02-.83-.29-1.09c-.32-.26-.77-.3-1.12-.09-.35.21-.53.62-.46,1.02.08.46.5.78.96.79.16.02.16-.23,0-.24Z"/>
                <path d="m38.77,13.89c-.3,0-.58-.19-.68-.47-.1-.29-.01-.62.23-.82.23-.19.57-.21.83-.06.25.15.4.46.34.75-.08.35-.37.6-.72.6-.16,0-.16.25,0,.25.41-.01.77-.26.91-.64s.02-.83-.29-1.09c-.32-.26-.77-.3-1.12-.09-.35.21-.53.62-.46,1.02.08.46.5.78.96.79.16.02.16-.23,0-.24Z"/>
                <path d="m40.47,15.59c-.3,0-.58-.19-.68-.47-.1-.29-.01-.62.23-.82.23-.19.57-.21.83-.06.25.15.4.46.34.75-.08.35-.37.6-.72.6-.16,0-.16.25,0,.25.41-.01.77-.26.91-.64s.02-.83-.29-1.09c-.32-.26-.77-.3-1.12-.09-.35.21-.53.62-.46,1.02.08.46.5.78.96.79.16.02.16-.23,0-.24Z"/>
                <path d="m43.87,15.59c-.3,0-.58-.19-.68-.47-.1-.29-.01-.62.23-.82.23-.19.57-.21.83-.06.25.15.4.46.34.75-.07.35-.37.6-.72.6-.16,0-.16.25,0,.25.41-.01.77-.26.91-.64s.02-.83-.29-1.09c-.32-.26-.77-.3-1.12-.09-.35.21-.53.62-.46,1.02.08.46.5.78.96.79.16.02.16-.23,0-.24Z"/>
                <path d="m40.47,12.19c-.3,0-.58-.19-.68-.47-.1-.29-.01-.62.23-.82.23-.19.57-.21.83-.06.25.15.4.46.34.75-.08.35-.37.6-.72.6-.16,0-.16.25,0,.25.41-.01.77-.26.91-.64s.02-.83-.29-1.09c-.32-.26-.77-.3-1.12-.09-.35.21-.53.62-.46,1.02.08.46.5.78.96.79.16.02.16-.23,0-.24Z"/>
                <path d="m43.87,12.19c-.3,0-.58-.19-.68-.47-.1-.29-.01-.62.23-.82.23-.19.57-.21.83-.06.25.15.4.46.34.75-.07.35-.37.6-.72.6-.16,0-.16.25,0,.25.41-.01.77-.26.91-.64s.02-.83-.29-1.09c-.32-.26-.77-.3-1.12-.09-.35.21-.53.62-.46,1.02.08.46.5.78.96.79.16.02.16-.23,0-.24Z"/>
              </g>
            </g>
            <g class="cls-3">
              <g>
                <path d="m45.57,17.3c-.3,0-.58-.19-.68-.47-.1-.29-.01-.62.23-.82.23-.19.57-.21.83-.06.25.15.4.46.34.75-.07.34-.37.59-.72.6-.16,0-.16.25,0,.25.41-.01.77-.26.91-.64s.02-.83-.29-1.09c-.32-.26-.77-.3-1.12-.09-.35.21-.53.62-.46,1.02.08.46.5.78.96.79.16,0,.16-.24,0-.24Z"/>
                <path d="m45.57,13.89c-.3,0-.58-.19-.68-.47-.1-.29-.01-.62.23-.82.23-.19.57-.21.83-.06.25.15.4.46.34.75-.07.35-.37.6-.72.6-.16,0-.16.25,0,.25.41-.01.77-.26.91-.64s.02-.83-.29-1.09c-.32-.26-.77-.3-1.12-.09-.35.21-.53.62-.46,1.02.08.46.5.78.96.79.16.02.16-.23,0-.24Z"/>
              </g>
            </g>
            <g class="cls-5">
              <g>
                <path d="m42.17,10.49c-.3,0-.58-.19-.68-.47-.1-.29-.01-.62.23-.82.23-.19.57-.21.83-.06.25.15.4.46.34.75-.07.35-.37.6-.72.6-.16,0-.16.25,0,.25.41-.01.77-.26.91-.64s.02-.83-.29-1.09c-.32-.26-.77-.3-1.12-.09-.35.21-.53.62-.46,1.02.08.46.5.78.96.79.16,0,.16-.24,0-.24Z"/>
                <path d="m38.77,10.49c-.3,0-.58-.19-.68-.47-.1-.29-.01-.62.23-.82.23-.19.57-.21.83-.06.25.15.4.46.34.75-.08.35-.37.6-.72.6-.16,0-.16.25,0,.25.41-.01.77-.26.91-.64s.02-.83-.29-1.09c-.32-.26-.77-.3-1.12-.09-.35.21-.53.62-.46,1.02.08.46.5.78.96.79.16,0,.16-.24,0-.24Z"/>
              </g>
            </g>
            <g class="cls-11">
              <path d="m45.57,10.49c-.3,0-.58-.19-.68-.47-.1-.29-.01-.62.23-.82.23-.19.57-.21.83-.06.25.15.4.46.34.75-.07.35-.37.6-.72.6-.16,0-.16.25,0,.25.41-.01.77-.26.91-.64s.02-.83-.29-1.09c-.32-.26-.77-.3-1.12-.09-.35.21-.53.62-.46,1.02.08.46.5.78.96.79.16,0,.16-.24,0-.24Z"/>
            </g>
          </g>
        </g>
        <g class="cls-63">
          <g>
            <g class="cls-76">
              <g>
                <path d="m42.17,24.1c-.3,0-.58-.19-.68-.47-.1-.29-.01-.62.23-.82.23-.19.57-.21.83-.06.25.15.4.46.34.75-.07.35-.37.59-.72.6-.16,0-.16.25,0,.25.41-.01.77-.26.91-.64s.02-.83-.29-1.09c-.32-.26-.77-.3-1.12-.09-.35.21-.53.62-.46,1.02.08.46.5.78.96.79.16,0,.16-.24,0-.24Z"/>
                <path d="m38.77,24.1c-.3,0-.58-.19-.68-.47-.1-.29-.01-.62.23-.82.23-.19.57-.21.83-.06.25.15.4.46.34.75-.08.35-.37.59-.72.6-.16,0-.16.25,0,.25.41-.01.77-.26.91-.64s.02-.83-.29-1.09c-.32-.26-.77-.3-1.12-.09-.35.21-.53.62-.46,1.02.08.46.5.78.96.79.16,0,.16-.24,0-.24Z"/>
                <path d="m42.17,20.7c-.3,0-.58-.19-.68-.47-.1-.29-.01-.62.23-.82.23-.19.57-.21.83-.06.25.15.4.46.34.75-.07.35-.37.59-.72.6-.16,0-.16.25,0,.25.41-.01.77-.26.91-.64s.02-.83-.29-1.09c-.32-.26-.77-.3-1.12-.09-.35.21-.53.62-.46,1.02.08.46.5.78.96.79.16,0,.16-.24,0-.24Z"/>
                <path d="m38.77,20.7c-.3,0-.58-.19-.68-.47-.1-.29-.01-.62.23-.82.23-.19.57-.21.83-.06.25.15.4.46.34.75-.08.35-.37.59-.72.6-.16,0-.16.25,0,.25.41-.01.77-.26.91-.64s.02-.83-.29-1.09c-.32-.26-.77-.3-1.12-.09-.35.21-.53.62-.46,1.02.08.46.5.78.96.79.16,0,.16-.24,0-.24Z"/>
                <path d="m40.47,22.4c-.3,0-.58-.19-.68-.47-.1-.29-.01-.62.23-.82.23-.19.57-.21.83-.06.25.15.4.46.34.75-.08.35-.37.59-.72.6-.16,0-.16.25,0,.25.41-.01.77-.26.91-.64s.02-.83-.29-1.09c-.32-.26-.77-.3-1.12-.09-.35.21-.53.62-.46,1.02.08.46.5.78.96.79.16,0,.16-.24,0-.24Z"/>
                <path d="m43.87,22.4c-.3,0-.58-.19-.68-.47-.1-.29-.01-.62.23-.82.23-.19.57-.21.83-.06.25.15.4.46.34.75-.07.35-.37.59-.72.6-.16,0-.16.25,0,.25.41-.01.77-.26.91-.64s.02-.83-.29-1.09c-.32-.26-.77-.3-1.12-.09-.35.21-.53.62-.46,1.02.08.46.5.78.96.79.16,0,.16-.24,0-.24Z"/>
                <path d="m40.47,19c-.3,0-.58-.19-.68-.47-.1-.29-.01-.62.23-.82.23-.19.57-.21.83-.06.25.15.4.46.34.75-.08.34-.37.59-.72.6-.16,0-.16.25,0,.25.41-.01.77-.26.91-.64s.02-.83-.29-1.09c-.32-.26-.77-.3-1.12-.09-.35.21-.53.62-.46,1.02.08.46.5.78.96.79.16,0,.16-.24,0-.24Z"/>
                <path d="m43.87,19c-.3,0-.58-.19-.68-.47-.1-.29-.01-.62.23-.82.23-.19.57-.21.83-.06.25.15.4.46.34.75-.07.34-.37.59-.72.6-.16,0-.16.25,0,.25.41-.01.77-.26.91-.64s.02-.83-.29-1.09c-.32-.26-.77-.3-1.12-.09-.35.21-.53.62-.46,1.02.08.46.5.78.96.79.16,0,.16-.24,0-.24Z"/>
              </g>
            </g>
            <g class="cls-70">
              <g>
                <path d="m45.57,24.1c-.3,0-.58-.19-.68-.47-.1-.29-.01-.62.23-.82.23-.19.57-.21.83-.06.25.15.4.46.34.75-.07.35-.37.59-.72.6-.16,0-.16.25,0,.25.41-.01.77-.26.91-.64s.02-.83-.29-1.09c-.32-.26-.77-.3-1.12-.09-.35.21-.53.62-.46,1.02.08.46.5.78.96.79.16,0,.16-.24,0-.24Z"/>
                <path d="m45.57,20.7c-.3,0-.58-.19-.68-.47-.1-.29-.01-.62.23-.82.23-.19.57-.21.83-.06.25.15.4.46.34.75-.07.35-.37.59-.72.6-.16,0-.16.25,0,.25.41-.01.77-.26.91-.64s.02-.83-.29-1.09c-.32-.26-.77-.3-1.12-.09-.35.21-.53.62-.46,1.02.08.46.5.78.96.79.16,0,.16-.24,0-.24Z"/>
              </g>
            </g>
            <g class="cls-74">
              <g>
                <path d="m42.17,17.3c-.3,0-.58-.19-.68-.47-.1-.29-.01-.62.23-.82.23-.19.57-.21.83-.06.25.15.4.46.34.75-.07.34-.37.59-.72.6-.16,0-.16.25,0,.25.41-.01.77-.26.91-.64s.02-.83-.29-1.09c-.32-.26-.77-.3-1.12-.09-.35.21-.53.62-.46,1.02.08.46.5.78.96.79.16,0,.16-.24,0-.24Z"/>
                <path d="m38.77,17.3c-.3,0-.58-.19-.68-.47-.1-.29-.01-.62.23-.82.23-.19.57-.21.83-.06.25.15.4.46.34.75-.08.34-.37.59-.72.6-.16,0-.16.25,0,.25.41-.01.77-.26.91-.64s.02-.83-.29-1.09c-.32-.26-.77-.3-1.12-.09-.35.21-.53.62-.46,1.02.08.46.5.78.96.79.16,0,.16-.24,0-.24Z"/>
              </g>
            </g>
            <g class="cls-55">
              <path d="m45.57,17.3c-.3,0-.58-.19-.68-.47-.1-.29-.01-.62.23-.82.23-.19.57-.21.83-.06.25.15.4.46.34.75-.07.34-.37.59-.72.6-.16,0-.16.25,0,.25.41-.01.77-.26.91-.64s.02-.83-.29-1.09c-.32-.26-.77-.3-1.12-.09-.35.21-.53.62-.46,1.02.08.46.5.78.96.79.16,0,.16-.24,0-.24Z"/>
            </g>
          </g>
        </g>
        <g class="cls-52">
          <g>
            <g class="cls-73">
              <g>
                <path d="m42.17,30.9c-.3,0-.58-.19-.68-.47-.1-.29-.01-.62.23-.82.23-.19.57-.21.83-.06.25.15.4.46.34.75-.07.35-.37.6-.72.6-.16,0-.16.25,0,.25.41-.01.77-.26.91-.64s.02-.83-.29-1.09c-.32-.26-.77-.3-1.12-.09-.35.21-.53.62-.46,1.02.08.46.5.78.96.79.16,0,.16-.24,0-.24Z"/>
                <path d="m38.77,30.9c-.3,0-.58-.19-.68-.47-.1-.29-.01-.62.23-.82.23-.19.57-.21.83-.06.25.15.4.46.34.75-.08.35-.37.6-.72.6-.16,0-.16.25,0,.25.41-.01.77-.26.91-.64s.02-.83-.29-1.09c-.32-.26-.77-.3-1.12-.09-.35.21-.53.62-.46,1.02.08.46.5.78.96.79.16,0,.16-.24,0-.24Z"/>
                <path d="m42.17,27.5c-.3,0-.58-.19-.68-.47-.1-.29-.01-.62.23-.82.23-.19.57-.21.83-.06.25.15.4.46.34.75-.07.35-.37.59-.72.6-.16,0-.16.25,0,.25.41-.01.77-.26.91-.64s.02-.83-.29-1.09c-.32-.26-.77-.3-1.12-.09-.35.21-.53.62-.46,1.02.08.46.5.78.96.79.16,0,.16-.24,0-.24Z"/>
                <path d="m38.77,27.5c-.3,0-.58-.19-.68-.47-.1-.29-.01-.62.23-.82.23-.19.57-.21.83-.06.25.15.4.46.34.75-.08.35-.37.59-.72.6-.16,0-.16.25,0,.25.41-.01.77-.26.91-.64s.02-.83-.29-1.09c-.32-.26-.77-.3-1.12-.09-.35.21-.53.62-.46,1.02.08.46.5.78.96.79.16,0,.16-.24,0-.24Z"/>
                <path d="m40.47,29.2c-.3,0-.58-.19-.68-.47-.1-.29-.01-.62.23-.82.23-.19.57-.21.83-.06.25.15.4.46.34.75-.08.35-.37.6-.72.6-.16,0-.16.25,0,.25.41-.01.77-.26.91-.64s.02-.83-.29-1.09c-.32-.26-.77-.3-1.12-.09-.35.21-.53.62-.46,1.02.08.46.5.78.96.79.16,0,.16-.24,0-.24Z"/>
                <path d="m43.87,29.2c-.3,0-.58-.19-.68-.47-.1-.29-.01-.62.23-.82.23-.19.57-.21.83-.06.25.15.4.46.34.75-.07.35-.37.6-.72.6-.16,0-.16.25,0,.25.41-.01.77-.26.91-.64s.02-.83-.29-1.09c-.32-.26-.77-.3-1.12-.09-.35.21-.53.62-.46,1.02.08.46.5.78.96.79.16,0,.16-.24,0-.24Z"/>
                <path d="m40.47,25.8c-.3,0-.58-.19-.68-.47-.1-.29-.01-.62.23-.82.23-.19.57-.21.83-.06.25.15.4.46.34.75-.08.35-.37.59-.72.6-.16,0-.16.25,0,.25.41-.01.77-.26.91-.64s.02-.83-.29-1.09c-.32-.26-.77-.3-1.12-.09-.35.21-.53.62-.46,1.02.08.46.5.78.96.79.16,0,.16-.24,0-.24Z"/>
                <path d="m43.87,25.8c-.3,0-.58-.19-.68-.47-.1-.29-.01-.62.23-.82.23-.19.57-.21.83-.06.25.15.4.46.34.75-.07.35-.37.59-.72.6-.16,0-.16.25,0,.25.41-.01.77-.26.91-.64s.02-.83-.29-1.09c-.32-.26-.77-.3-1.12-.09-.35.21-.53.62-.46,1.02.08.46.5.78.96.79.16,0,.16-.24,0-.24Z"/>
              </g>
            </g>
            <g class="cls-2">
              <g>
                <path d="m45.57,30.9c-.3,0-.58-.19-.68-.47-.1-.29-.01-.62.23-.82.23-.19.57-.21.83-.06.25.15.4.46.34.75-.07.35-.37.6-.72.6-.16,0-.16.25,0,.25.41-.01.77-.26.91-.64s.02-.83-.29-1.09c-.32-.26-.77-.3-1.12-.09-.35.21-.53.62-.46,1.02.08.46.5.78.96.79.16,0,.16-.24,0-.24Z"/>
                <path d="m45.57,27.5c-.3,0-.58-.19-.68-.47-.1-.29-.01-.62.23-.82.23-.19.57-.21.83-.06.25.15.4.46.34.75-.07.35-.37.59-.72.6-.16,0-.16.25,0,.25.41-.01.77-.26.91-.64s.02-.83-.29-1.09c-.32-.26-.77-.3-1.12-.09-.35.21-.53.62-.46,1.02.08.46.5.78.96.79.16,0,.16-.24,0-.24Z"/>
              </g>
            </g>
            <g class="cls-1">
              <g>
                <path d="m42.17,24.1c-.3,0-.58-.19-.68-.47-.1-.29-.01-.62.23-.82.23-.19.57-.21.83-.06.25.15.4.46.34.75-.07.35-.37.59-.72.6-.16,0-.16.25,0,.25.41-.01.77-.26.91-.64s.02-.83-.29-1.09c-.32-.26-.77-.3-1.12-.09-.35.21-.53.62-.46,1.02.08.46.5.78.96.79.16,0,.16-.24,0-.24Z"/>
                <path d="m38.77,24.1c-.3,0-.58-.19-.68-.47-.1-.29-.01-.62.23-.82.23-.19.57-.21.83-.06.25.15.4.46.34.75-.08.35-.37.59-.72.6-.16,0-.16.25,0,.25.41-.01.77-.26.91-.64s.02-.83-.29-1.09c-.32-.26-.77-.3-1.12-.09-.35.21-.53.62-.46,1.02.08.46.5.78.96.79.16,0,.16-.24,0-.24Z"/>
              </g>
            </g>
            <g class="cls-66">
              <path d="m45.57,24.1c-.3,0-.58-.19-.68-.47-.1-.29-.01-.62.23-.82.23-.19.57-.21.83-.06.25.15.4.46.34.75-.07.35-.37.59-.72.6-.16,0-.16.25,0,.25.41-.01.77-.26.91-.64s.02-.83-.29-1.09c-.32-.26-.77-.3-1.12-.09-.35.21-.53.62-.46,1.02.08.46.5.78.96.79.16,0,.16-.24,0-.24Z"/>
            </g>
          </g>
        </g>
      </g>
      <path d="m17.02,40.44c1.23.26,2.55.33,3.74-.13.97-.38,1.75-1.08,2.31-1.94,1.31-2.01,1.57-4.62,1.65-6.96.05-1.4.01-2.8-.05-4.21-.01-.11-.08-.18-.19-.19-1.14-.11-2.27-.3-3.36-.66-.08-.03-.17.02-.21.09-1.35,1.96-3.07,3.65-4.49,5.56-1.17,1.57-2.65,3.76-2.03,5.83.37,1.24,1.46,2.05,2.58,2.59.22.1.41-.22.19-.32-.98-.47-1.97-1.15-2.36-2.21-.32-.89-.15-1.84.18-2.7.4-1.05,1.04-2.01,1.7-2.91.73-.99,1.52-1.92,2.32-2.86.77-.91,1.56-1.81,2.24-2.79-.07.03-.14.06-.21.09,1.12.37,2.29.56,3.46.67-.06-.06-.12-.12-.19-.19.11,2.39.17,4.83-.23,7.2-.34,2.01-1.07,4.33-3,5.36-1.21.64-2.64.6-3.95.32-.23-.05-.33.31-.1.36Z"/>
      <path d="m27.45,40.54c.97.63,2.13.83,3.24.48,1.09-.34,2-1.11,2.66-2.03.72-1,1.15-2.21,1.19-3.44.05-1.45-.49-2.88-1.14-4.15-.83-1.61-1.92-3.07-2.94-4.56-.05-.08-.12-.1-.21-.09-1.61.28-3.25.38-4.89.31-.1,0-.19.09-.19.19.02,1.92-.22,3.83-.29,5.74-.06,1.8-.02,3.71.74,5.38.41.89,1.03,1.63,1.83,2.17.2.14.39-.19.19-.32-1.46-.99-2.09-2.65-2.29-4.34-.22-1.86-.05-3.74.08-5.6.07-1.01.14-2.02.13-3.03-.06.06-.12.12-.19.19,1.67.07,3.34-.04,4.99-.32-.07-.03-.14-.06-.21-.09.83,1.22,1.71,2.41,2.46,3.69.73,1.24,1.39,2.63,1.54,4.07.24,2.24-.99,4.69-3.05,5.67-1.14.54-2.4.44-3.46-.25-.2-.13-.39.2-.19.33Z"/>
      <path d="m31.46,26.81c1.54,1.97,3.09,3.93,4.63,5.89.64.81,1.32,1.63,2.25,2.13.75.41,1.62.58,2.48.53,1.74-.1,3.31-1.11,3.99-2.74.68-1.64.42-3.59-.75-4.94-.78-.9-1.84-1.5-2.86-2.07-1.15-.64-2.33-1.21-3.54-1.72.04.04.09.09.13.13h0c-.04-.13-.16-.16-.28-.11-.21.09-.41.28-.6.4-.2.13-.41.25-.62.37-.48.27-.97.51-1.47.73-1.05.46-2.16.81-3.27,1.08-.23.06-.14.42.1.36,1.12-.27,2.21-.62,3.26-1.07.51-.22,1-.46,1.48-.73.24-.13.48-.28.71-.42.19-.12.39-.31.6-.4-.09-.04-.18-.07-.28-.11.05.16.27.19.41.25.25.11.5.22.74.33.51.23,1.01.48,1.51.74.9.47,1.82.96,2.65,1.56.78.56,1.46,1.28,1.8,2.19.29.79.35,1.67.18,2.49-.37,1.73-1.73,2.98-3.47,3.26-.84.13-1.74.03-2.52-.34-.89-.42-1.56-1.16-2.17-1.91-1.63-2.03-3.22-4.09-4.82-6.14-.15-.2-.42.07-.27.26Z"/>
      <path d="m38.71,23.15c1.73,1.55,3.82,2.96,6.17,3.28,1.47.2,3.01-.09,4.15-1.09.92-.8,1.48-2.04,1.34-3.26-.15-1.36-1.08-2.44-2.24-3.09-2.12-1.2-4.76-1.19-7.1-.87-.08.01-.13.11-.14.18-.1,1.78-.93,3.34-2.19,4.58-.17.17.09.43.27.27,1.33-1.31,2.19-2.97,2.3-4.85-.05.06-.09.12-.14.18,2.06-.28,4.32-.3,6.26.55,1.16.52,2.23,1.42,2.54,2.7.26,1.09-.12,2.26-.88,3.06-.92.99-2.28,1.38-3.61,1.31-2.46-.13-4.69-1.64-6.47-3.23-.18-.14-.44.12-.26.28Z"/>
      <path d="m39.87,15.28c.52.59.86,1.28.99,2.06.01.08.1.13.18.14,2.07.12,4.14.24,6.21.08,1.77-.14,4.01-.42,5.26-1.84,1.45-1.65.53-4.27-.64-5.81-.66-.86-1.57-1.45-2.65-1.57-1.1-.12-2.19.24-3.16.73-2.3,1.17-4.23,3.16-5.71,5.24-.17.24-.34.49-.5.75-.13.2.19.39.32.19,1.32-2.07,3.1-4,5.18-5.33,1.72-1.1,4.08-1.9,5.76-.29.88.84,1.46,2.09,1.69,3.27.16.81.09,1.66-.39,2.35-1,1.43-3.15,1.75-4.75,1.91-2.2.22-4.41.08-6.62-.04.06.05.12.09.18.14-.13-.84-.52-1.59-1.08-2.23-.16-.19-.43.07-.27.25Z"/>
      <path d="m33.36,12.41c1.61.26,3.24.67,4.69,1.45.17.09.48.38.68.28.11-.05.23-.2.32-.29.17-.15.34-.3.52-.45.56-.48,1.14-.94,1.71-1.42,1.98-1.64,4.38-3.7,4.21-6.53-.12-2.09-1.55-4.2-3.62-4.79-2.41-.7-4.5,1.13-5.65,3.08-1.54,2.59-1.97,5.65-3,8.44-.08.23.28.32.36.1.86-2.36,1.31-4.87,2.35-7.17.89-1.97,2.59-4.33,5.02-4.23,2.08.09,3.69,1.99,4.08,3.92.22,1.09.04,2.23-.52,3.2-.7,1.22-1.74,2.21-2.8,3.12-.6.52-1.22,1.02-1.84,1.53-.29.24-.59.49-.88.74-.12.11-.29.32-.44.39.12-.05-.01-.06-.09-.11s-.16-.09-.25-.14c-1.47-.8-3.13-1.23-4.78-1.49-.21-.03-.31.34-.07.37Z"/>
      <path d="m26.4,12.28c1.95-.2,3.92-.22,5.87-.01.06.01.14-.04.16-.09,1.01-2.01,1.75-4.21,1.96-6.46.16-1.75.04-3.88-1.5-5.01-1.24-.91-3.05-.94-4.3-.03-1.49,1.1-2.25,2.92-2.53,4.7-.35,2.23-.1,4.5.16,6.72.03.24.4.24.38,0-.21-1.83-.41-3.68-.29-5.53.12-1.76.57-3.59,1.79-4.92.53-.59,1.15-1.03,1.94-1.19.72-.15,1.5-.05,2.16.27,1.66.82,1.93,2.74,1.86,4.41-.09,2.38-.88,4.74-1.94,6.86.05-.03.11-.06.16-.09-1.95-.21-3.92-.19-5.87.01-.25,0-.25.38-.01.36Z"/>
      <path d="m13.82,5.6c.2,1.57.91,2.91,1.89,4.13.58.73,1.23,1.39,1.85,2.08.67.75,1.33,1.51,2.02,2.25.06.06.15.07.23.03,1.55-.81,3.27-1.27,4.98-1.58.08-.02.13-.1.14-.18.15-1.97.2-3.96-.13-5.91-.29-1.73-.92-3.56-2.22-4.81-1.97-1.9-5.2-1.78-7.21-.01-1.15,1.01-1.72,2.49-1.55,4,.03.24.4.24.38,0-.14-1.28.25-2.53,1.14-3.46.84-.88,2.03-1.42,3.24-1.54,1.26-.12,2.56.24,3.53,1.07,1.28,1.1,1.93,2.8,2.25,4.41.41,2.05.35,4.17.19,6.24.05-.06.09-.12.14-.18-1.75.31-3.49.8-5.07,1.62.08.01.15.02.23.03-.65-.69-1.27-1.41-1.9-2.11-.59-.66-1.21-1.3-1.78-1.98-.99-1.19-1.78-2.54-1.97-4.1-.04-.23-.41-.23-.38,0Z"/>
      <path d="m6.62,14.79c1.36.9,2.93,1.44,4.48,1.89,1.69.5,3.41.88,5.12,1.29.07.02.18-.01.21-.09.48-1.07,1.1-2.14,2.01-2.9.08-.07.06-.2,0-.27-2.14-2.26-4.21-4.79-6.98-6.3-1.22-.66-2.6-1.1-3.97-.62-.61.21-1.15.58-1.55,1.08-.44.56-.65,1.21-.76,1.91-.12.76-.15,1.56.1,2.3.24.72.72,1.29,1.34,1.71.2.14.39-.19.19-.32-1.19-.8-1.47-2.13-1.28-3.48.09-.65.25-1.28.65-1.81.38-.5.92-.86,1.52-1.05,1.33-.41,2.65.09,3.81.76,1.29.75,2.42,1.74,3.48,2.77,1.1,1.07,2.12,2.22,3.18,3.34v-.27c-.93.78-1.58,1.88-2.06,2.98.07-.03.14-.06.21-.09-1.68-.41-3.37-.78-5.02-1.26-1.55-.45-3.13-.99-4.49-1.88-.2-.15-.39.18-.19.31Z"/>
      <path d="m3.03,25.84c3.37,1.39,7.28-.05,10.39-1.46.95-.43,1.88-.9,2.8-1.38.09-.05.11-.17.07-.26-.28-.57-.44-1.18-.46-1.82,0-.06-.03-.13-.09-.16-1.93-.92-3.76-2.07-5.74-2.9-1.78-.75-3.79-1.26-5.72-.87C1.76,17.5-.43,19.85.07,22.53c.29,1.56,1.51,2.68,2.92,3.29.22.09.41-.23.19-.32-1.21-.52-2.29-1.41-2.66-2.72-.31-1.1-.07-2.27.54-3.22.69-1.08,1.81-1.82,3.04-2.14,1.8-.46,3.71-.03,5.4.63,2.11.83,4.02,2.05,6.06,3.03-.03-.05-.06-.11-.09-.16.03.71.21,1.37.52,2.01.02-.09.04-.17.07-.26-1.61.84-3.25,1.65-4.96,2.28-1.66.61-3.41,1.08-5.19,1.07-.95-.01-1.88-.17-2.76-.53-.25-.1-.34.26-.12.35Z"/>
      <path d="m9.54,36.06c4.01-.69,6.72-3.87,8.99-6.99.65-.9,1.29-1.81,1.95-2.71.08-.11-.01-.24-.11-.28-.56-.22-1.1-.48-1.62-.8-.24-.15-.47-.3-.69-.47-.11-.09-.22-.18-.33-.27-.07-.06-.16-.19-.26-.21-.15-.04-.39.07-.54.1-.21.05-.42.1-.64.14-.42.09-.85.18-1.27.26-1.7.35-3.41.68-5.04,1.29-1.5.55-2.95,1.35-3.98,2.6-1.11,1.34-1.79,3.13-1.15,4.83.71,1.92,2.71,2.99,4.69,2.51.23-.06.14-.42-.1-.36-1.53.37-3.11-.28-3.93-1.63-.4-.67-.59-1.45-.53-2.23.06-.76.38-1.48.77-2.12,1.49-2.44,4.39-3.39,7.02-4.01,1.56-.37,3.14-.63,4.7-1.01-.06-.02-.12-.03-.18-.05.86.8,1.89,1.37,2.98,1.8-.04-.09-.07-.18-.11-.28-2.23,3.02-4.29,6.52-7.64,8.42-.96.54-1.99.91-3.07,1.1-.25.05-.15.41.09.37Z"/>
      <g>
        <path d="m17.02,40.44c1.5.32,3.13.33,4.48-.5.55-.34,1.02-.8,1.4-1.32.19-.26.45-.57.45-.9,0-.57-.05-1.16-.11-1.73-.01-.14-.21-.27-.32-.13-.8.99-1.82,2.11-3.22,1.94.03.12.06.23.09.35.86-.63,1.37-1.62,1.36-2.69,0-.17-.2-.24-.32-.13-.64.58-1.41.95-2.26,1.07.08.08.15.15.23.23.15-.93.32-1.85.48-2.78.03-.19-.16-.3-.31-.18-.8.64-1.77,1.01-2.57,1.64.1.03.21.06.31.08-.27-1.01-.24-2.06-.08-3.08.03-.21-.21-.32-.34-.14-.96,1.32-1.98,2.88-2.04,4.57-.06,1.76,1.23,2.96,2.71,3.67.22.1.41-.22.19-.32-1.42-.68-2.64-1.79-2.52-3.48.11-1.57,1.09-3.02,1.98-4.25-.11-.05-.23-.1-.34-.14-.17,1.09-.22,2.2.08,3.28.04.15.21.17.31.08.8-.64,1.77-1.01,2.57-1.64-.1-.06-.21-.12-.31-.18-.16.92-.33,1.85-.48,2.78-.02.15.08.25.23.23.91-.14,1.74-.55,2.42-1.17-.11-.04-.21-.09-.32-.13.02.93-.42,1.81-1.17,2.36-.16.11-.09.33.09.35,1.49.19,2.63-.98,3.48-2.05-.11-.04-.21-.09-.32-.13.05.51.09,1.03.1,1.54.01.23-.03.34-.15.54-.08.12-.16.24-.24.36-.35.48-.79.9-1.29,1.2-1.25.76-2.77.74-4.16.44-.22-.05-.32.31-.09.36Z"/>
        <path d="m24.9,35.06c.09,1.43.36,2.92,1.18,4.13.74,1.08,1.93,1.93,3.27,2.01,2.68.16,4.76-2.49,5.13-4.92.06-.36.09-.73.07-1.09-.02-.39-.36-.81-.58-1.12-.51-.73-1.16-1.35-1.91-1.84-.16-.11-.34.1-.26.26.3.55.4,1.17.29,1.78.11-.01.23-.03.34-.04-.37-.79-.94-1.44-1.67-1.92-.13-.09-.34.06-.28.21.46,1.17.34,2.49.2,3.7.09-.05.19-.11.28-.16-1.17-.54-2.1-1.44-2.58-2.65-.06-.16-.31-.19-.36,0-.29,1.09-.53,2.2-.45,3.33.08-.06.16-.12.24-.18-.97-.39-1.93-.78-2.59-1.63-.15-.19-.41.08-.27.27.71.89,1.73,1.31,2.76,1.72.11.04.25-.07.24-.18-.08-1.1.16-2.17.44-3.23h-.36c.52,1.3,1.49,2.29,2.75,2.88.14.06.26-.02.28-.16.15-1.25.25-2.61-.21-3.8-.09.07-.18.14-.28.21.67.44,1.19,1.05,1.53,1.78.07.14.31.11.34-.04.13-.72.02-1.43-.32-2.07-.09.09-.17.17-.26.26.64.42,1.2.94,1.66,1.55.2.26.38.54.53.83.16.3.12.62.09.95-.11,1.24-.66,2.46-1.49,3.38-.75.84-1.79,1.5-2.94,1.55-1.23.06-2.36-.62-3.12-1.56-.95-1.18-1.24-2.74-1.33-4.21,0-.24-.38-.25-.36,0Z"/>
        <path d="m35.69,32.21c.82,1.02,1.61,2.14,2.83,2.72.99.47,2.13.56,3.19.3,2.22-.54,3.63-2.63,3.44-4.89-.12-1.38-.81-2.5-1.86-3.38-.16-.13-.41.03-.29.23.47.83.72,1.75.71,2.7.11-.04.21-.09.32-.13-.81-.76-1.72-1.4-2.72-1.88-.19-.09-.38.13-.23.29.6.64.73,1.62.87,2.45.09-.07.18-.14.28-.21-.65-.45-1.29-.89-2.04-1.18-.13-.05-.27.1-.23.23.23.76.3,1.56.2,2.35.08-.04.15-.09.23-.13-1.07-.27-2.06-.73-2.96-1.36-.15-.11-.3.07-.28.21.13.82.5,1.58,1.07,2.18.04-.11.09-.21.13-.32-.84-.02-1.68-.1-2.44-.48-.22-.11-.41.22-.19.32.82.41,1.73.5,2.63.53.17,0,.24-.21.13-.32-.53-.56-.86-1.25-.97-2.02-.09.07-.18.14-.28.21.92.65,1.95,1.13,3.05,1.4.09.02.22-.03.23-.13.12-.86.06-1.72-.2-2.55-.08.08-.15.15-.23.23.71.28,1.33.71,1.95,1.15.15.1.3-.07.28-.21-.14-.91-.31-1.92-.96-2.62-.08.1-.15.2-.23.29.97.47,1.85,1.08,2.64,1.82.12.11.32.03.32-.13,0-1.02-.26-2.01-.77-2.89-.1.08-.2.15-.29.23.87.73,1.5,1.6,1.7,2.73.18,1.01.01,2.1-.51,3-1.05,1.82-3.46,2.52-5.38,1.72-1.26-.53-2.07-1.69-2.89-2.72-.13-.2-.4.07-.25.26Z"/>
        <path d="m43.26,26.03c2.01.71,4.47.7,6.04-.94.59-.63.98-1.43,1.07-2.29.11-1.1-.34-2.17-1.11-2.94-.16-.16-.51-.57-.75-.58-.16,0-.35.12-.51.16-.21.05-.42.07-.63.07-.82.01-1.61-.23-2.41-.39-.15-.03-.3.13-.21.28.63,1.05,1.51,1.91,2.57,2.52.03-.12.06-.23.09-.35-.83.05-1.63-.07-2.46-.09-.18,0-.23.2-.13.32.42.51.96.89,1.38,1.39.04-.11.09-.21.13-.32-.92.03-1.81-.09-2.69-.35-.17-.05-.28.14-.21.28.5,1.09,1.48,1.9,2.65,2.19-.03-.1-.06-.21-.08-.31-.71.68-1.74.88-2.69,1-.24.03-.24.41,0,.38,1.05-.14,2.16-.36,2.95-1.11.1-.1.05-.28-.08-.31-1.08-.27-1.96-1.01-2.42-2.01-.07.09-.14.18-.21.28.91.27,1.85.39,2.79.37.17,0,.23-.2.13-.32-.42-.51-.96-.89-1.38-1.39-.04.11-.09.21-.13.32.83.02,1.63.14,2.46.09.18-.01.26-.25.09-.35-1.01-.57-1.84-1.39-2.44-2.38-.07.09-.14.18-.21.28.6.12,1.2.28,1.81.35.3.04.61.06.91.04.12-.01.24-.02.37-.04.15-.03.31-.11.46-.12.22-.02.5.32.66.48.2.21.38.45.52.7.25.44.4.94.42,1.45.06,1.77-1.32,3.2-2.96,3.63-1.23.32-2.51.12-3.69-.29-.22-.14-.32.22-.1.3Z"/>
        <path d="m46.97,13.35c.99.17,1.99.23,3,.18-.05-.09-.11-.19-.16-.28-.5.87-1.32,1.47-2.29,1.69-.2.04-.16.3,0,.36.81.33,1.67.48,2.54.47-.06-.08-.12-.16-.18-.24-.25.64-.68,1.1-1.23,1.5-.17.13-.07.38.14.34,1.17-.2,2.39-.53,3.33-1.29.88-.72,1.23-1.79,1.1-2.91-.17-1.4-.87-2.94-1.93-3.89-.87-.79-2-1.08-3.15-.91-.35.05-.69.14-1.02.25-.17.06-.34.12-.5.19-.12.05-.26.09-.34.15-.16.12-.26.35-.36.52-.12.22-.23.44-.31.68-.18.47-.27.96-.31,1.46-.01.15.16.23.28.16.71-.38,1.48-.61,2.29-.68-.06-.06-.12-.12-.19-.19.04.8-.24,1.56-.79,2.13-.17.17.1.44.27.27.62-.64.95-1.5.9-2.4,0-.09-.08-.2-.19-.19-.87.08-1.71.32-2.48.73.09.05.19.11.28.16.05-.87.35-1.69.86-2.4-.05.03-.11.06-.16.09.2,0,.45-.18.63-.25.23-.09.47-.16.71-.22.46-.11.93-.17,1.4-.13,1.03.08,1.89.67,2.5,1.49,1.18,1.59,2.03,4.28.16,5.69-.88.67-2.01.95-3.07,1.13.05.11.1.23.14.34.63-.46,1.12-.99,1.4-1.72.04-.12-.07-.24-.18-.24-.84,0-1.66-.14-2.44-.46v.36c1.06-.24,1.98-.92,2.52-1.86.07-.12-.02-.29-.16-.28-.97.05-1.94,0-2.9-.17-.24-.03-.34.33-.11.37Z"/>
        <path d="m36.45,6.43c.29-.8.73-1.54,1.29-2.18-.1-.06-.21-.12-.31-.18-.31.98-.32,2.02-.02,3.01.05.16.33.19.36,0,.11-.66.41-1.21.93-1.63.47-.39,1.03-.65,1.56-.95-.09-.07-.18-.14-.28-.21-.24.98-.38,1.99-.52,2.98-.02.17.17.34.31.18.7-.78,1.51-1.59,2.44-2.08-.09-.09-.17-.17-.26-.26-.43.84-.73,1.76-.99,2.67-.04.14.09.27.23.23.85-.24,1.96-.62,2.46-1.39-.12-.03-.23-.06-.35-.09.12,1.05.13,2.1-.02,3.15-.02.17.17.34.31.18,1.01-1.12,1.85-2.39,1.89-3.94.04-1.21-.37-2.43-1.1-3.41-.68-.92-1.66-1.65-2.79-1.9-1.25-.27-2.46.13-3.45.89-.72.56-1.32,1.26-1.8,2.03-.13.21-.28.43-.38.65-.09.2-.07.44-.07.66,0,.54.06,1.08.18,1.6.05.24.42.14.36-.1-.1-.44-.16-.88-.17-1.33,0-.18-.03-.4.01-.58.05-.22.21-.44.33-.63.39-.63.86-1.22,1.41-1.72.89-.8,2.02-1.33,3.24-1.16,2.16.31,3.73,2.48,3.84,4.58.08,1.61-.73,2.93-1.78,4.09.1.06.21.12.31.18.15-1.08.16-2.17.03-3.25-.02-.18-.24-.26-.35-.09-.29.45-.87.71-1.34.91-.29.12-.59.23-.9.31.08.08.15.15.23.23.25-.87.54-1.77.95-2.58.09-.17-.09-.34-.26-.26-.96.5-1.8,1.34-2.52,2.14.1.06.21.12.31.18.14-1,.29-2,.52-2.98.04-.16-.13-.29-.28-.21-.58.33-1.18.62-1.69,1.06-.53.46-.85,1.06-.96,1.75h.36c-.28-.93-.27-1.89.02-2.81.05-.17-.19-.32-.31-.18-.61.69-1.07,1.48-1.39,2.35-.03.21.33.31.41.09Z"/>
        <path d="m27.56,5.86c.06-.36.14-.71.24-1.06.16-.57.36-1.22.78-1.65-.1-.06-.21-.12-.31-.18-.22.96.16,2.1.51,2.99.06.15.32.2.36,0,.08-.41.18-.82.3-1.22.2-.65.44-1.39.94-1.88-.1-.06-.21-.12-.31-.18-.24.88.18,1.95.54,2.75.07.15.3.1.34-.04.27-.91.6-1.9,1.18-2.65-.12-.03-.23-.06-.35-.09-.03,1.05.4,2.16.79,3.12.07.16.3.19.36,0,.21-.71.44-1.46.8-2.11h-.32c.4.57.53,1.3.61,1.97.03.24.36.24.38,0,.09-1.25.08-2.68-.53-3.81-.42-.78-1.15-1.36-1.98-1.63-.83-.27-1.77-.25-2.58.09-1.02.42-1.8,1.34-2.33,2.28-.08.14-.18.3-.23.46-.05.16,0,.33.02.49.04.36.1.72.17,1.08.08.43.17.85.28,1.27.06.23.42.13.36-.1-.07-.27-.13-.54-.19-.81-.05-.26-.1-.52-.15-.77-.05-.31-.17-.7-.13-1.01.03-.24.24-.52.37-.73.17-.26.35-.51.56-.75.33-.38.71-.72,1.15-.96,1.42-.74,3.33-.31,4.22,1.05.71,1.1.71,2.59.61,3.84h.38c-.08-.74-.22-1.54-.66-2.16-.08-.11-.25-.13-.32,0-.38.68-.61,1.46-.84,2.2h.36c-.38-.93-.8-2.01-.78-3.02.01-.2-.25-.23-.35-.09-.6.78-.94,1.81-1.22,2.74.11-.01.23-.03.34-.04-.32-.7-.72-1.68-.5-2.46.05-.18-.18-.31-.31-.18-.51.5-.78,1.24-1,1.91-.14.44-.26.9-.35,1.36h.36c-.13-.33-.24-.67-.33-1.01-.15-.56-.32-1.2-.18-1.78.04-.18-.18-.32-.31-.18-.7.71-.96,1.91-1.11,2.87-.04.22.32.32.36.08Z"/>
        <path d="m13.82,5.6c.08.59.58,1.09,1.03,1.44.6.47,1.3.78,1.95,1.18.13.08.34-.06.28-.21-.43-1.09-.72-2.23-.85-3.39-.09.05-.19.11-.28.16.62.35,1.2.76,1.73,1.24.14.13.35,0,.31-.18-.15-.83-.16-1.68-.03-2.52-.1.03-.21.06-.31.08.73.83,1.38,1.73,1.95,2.67.09.15.36.1.35-.09-.06-1.14.28-2.25.95-3.17h-.32c.47.96.95,1.93,1.41,2.9.06.13.25.11.32,0,.32-.5.47-1.08.46-1.67-.12.03-.23.06-.35.09.56.99,1.26,1.88,2.1,2.65.15.13.34,0,.31-.18-.41-2.63-1.68-5.56-4.52-6.24-2-.48-4.26.26-5.54,1.88-.76.96-1.09,2.16-.95,3.36.03.24.4.24.38,0-.23-2.05.99-3.86,2.87-4.62,1.85-.75,4.04-.41,5.43,1.07,1.17,1.25,1.71,2.99,1.97,4.65.1-.06.21-.12.31-.18-.81-.75-1.5-1.61-2.04-2.57-.09-.16-.35-.09-.35.09.01.54-.12,1.03-.41,1.48h.32c-.47-.97-.94-1.93-1.41-2.9-.07-.14-.25-.1-.32,0-.71.97-1.07,2.16-1.01,3.36.12-.03.23-.06.35-.09-.59-.97-1.26-1.89-2.01-2.75-.09-.1-.29-.06-.31.08-.14.91-.13,1.82.03,2.72.1-.06.21-.12.31-.18-.55-.5-1.15-.94-1.8-1.3-.11-.06-.3.01-.28.16.14,1.2.43,2.37.87,3.49.09-.07.18-.14.28-.21-.56-.34-1.16-.62-1.69-.99-.41-.29-1.03-.78-1.1-1.31-.05-.23-.42-.23-.39,0Z"/>
        <path d="m6.62,14.79c.62.41,1.3.74,1.98,1.03.19.08.37-.12.23-.29-.63-.74-1.11-1.59-1.41-2.52-.09.07-.18.14-.28.21.67.48,1.51.65,2.31.45.15-.04.19-.27.04-.34-.83-.4-1.5-1.02-1.97-1.82-.07.09-.14.18-.21.28.77.29,1.58.41,2.4.38.14-.01.27-.21.13-.32-.55-.43-.92-1.01-1.06-1.7-.09.07-.18.14-.28.21.76.41,1.57.73,2.42.9.17.03.34-.18.18-.31-.63-.54-1.08-1.22-1.31-2.02-.04.08-.09.15-.13.23.94-.2,1.85.34,2.79.29.19-.01.25-.24.09-.35-1.59-1.09-3.62-2.06-5.51-1.11-1.61.81-2.14,2.79-1.9,4.47.15.98.67,1.78,1.49,2.33.2.14.39-.19.19-.32-.66-.45-1.11-1.08-1.27-1.86-.16-.79-.06-1.67.16-2.45.44-1.56,2.05-2.38,3.6-2.15,1.11.17,2.15.79,3.07,1.41.03-.12.06-.23.09-.35-.98.05-1.9-.49-2.89-.28-.1.02-.16.14-.13.23.25.85.73,1.61,1.41,2.18.06-.1.12-.21.18-.31-.82-.17-1.59-.47-2.33-.86-.15-.08-.31.05-.28.21.15.74.56,1.4,1.16,1.87.04-.11.09-.21.13-.32-.79.04-1.56-.09-2.3-.36-.16-.06-.29.14-.21.28.5.85,1.22,1.52,2.1,1.95.01-.11.03-.23.04-.34-.71.17-1.43.01-2.02-.42-.13-.1-.32.06-.28.21.33.99.84,1.89,1.51,2.68.08-.1.15-.2.23-.29-.69-.29-1.36-.62-1.98-1.03-.19-.14-.38.19-.18.32Z"/>
        <path d="m3.03,25.84c.61.25,1.24.4,1.89.47.16.02.25-.22.13-.32-.94-.77-1.93-1.65-2.13-2.92-.09.07-.18.14-.28.21.92.43,1.94.42,2.87.01.15-.07.11-.31-.04-.34-.89-.18-2.1-.56-2.21-1.63-.09.05-.19.11-.28.16,1.28.68,2.74.19,3.94-.4.18-.09.08-.34-.09-.35-.9-.06-1.71-.56-2.17-1.34-.05.09-.11.19-.16.28.95.07,1.91.09,2.86.12.2.01.24-.25.09-.35-.55-.37-1.16-.83-1.5-1.4-.04.09-.07.18-.11.28,1.02-.33,2.07-.48,3.14-.47.22,0,.25-.3.05-.37-2.48-.85-5.45-1.01-7.49.91-1.35,1.27-1.97,3.3-1.18,5.04.51,1.13,1.52,1.91,2.63,2.4.22.09.41-.23.19-.32-.94-.4-1.8-1.01-2.32-1.91-.43-.74-.57-1.61-.43-2.45.32-1.84,1.83-3.23,3.59-3.71,1.62-.44,3.35-.13,4.91.4.02-.12.03-.25.05-.37-1.1-.01-2.19.15-3.24.49-.11.04-.18.17-.11.28.38.63,1.03,1.12,1.63,1.54.03-.12.06-.23.09-.35-.95-.03-1.91-.05-2.86-.12-.15-.01-.23.17-.16.28.52.9,1.46,1.46,2.49,1.53-.03-.12-.06-.23-.09-.35-1.08.53-2.42,1.01-3.57.4-.11-.06-.3.01-.28.16.14,1.26,1.4,1.76,2.49,1.99-.01-.11-.03-.23-.04-.34-.79.35-1.7.35-2.49-.01-.16-.07-.3.05-.28.21.21,1.33,1.23,2.28,2.22,3.09.04-.11.09-.21.13-.32-.62-.07-1.21-.22-1.79-.46-.21-.1-.31.26-.09.35Z"/>
        <path d="m9.54,36.06c1.09-.19,2.13-.57,3.1-1.11.15-.09.09-.37-.09-.35-1.25.11-2.48.05-3.67-.36.01.11.03.23.04.34.67-.49,1.14-1.23,1.22-2.07.01-.14-.17-.23-.28-.16-.84.52-1.92.14-2.72-.28-.01.11-.03.23-.04.34,1.03-.27,1.8-1.2,2.38-2.03.09-.13-.06-.33-.21-.28-.97.34-2.02.44-3.03.56.06.06.12.12.19.19.04-.82.15-1.63.35-2.43.05-.18-.18-.32-.31-.18-1.14,1.14-2.05,2.77-1.83,4.43.18,1.41,1.11,2.67,2.43,3.22.78.33,1.64.37,2.47.17.23-.06.14-.42-.1-.36-1.71.41-3.44-.45-4.16-2.06-.81-1.83.12-3.81,1.44-5.14-.1-.06-.21-.12-.31-.18-.21.83-.33,1.68-.37,2.53,0,.09.09.2.19.19,1.05-.13,2.13-.22,3.13-.57-.07-.09-.14-.18-.21-.28-.52.75-1.23,1.62-2.15,1.86-.15.04-.19.27-.04.34.92.48,2.14.88,3.1.28-.09-.05-.19-.11-.28-.16-.07.69-.49,1.34-1.04,1.74-.13.1-.12.29.04.34,1.22.42,2.49.49,3.77.38-.03-.12-.06-.23-.09-.35-.94.53-1.95.89-3.01,1.07-.25.05-.15.41.09.37Z"/>
      </g>
    </g>
  </g>
</svg>