<?xml version="1.0" encoding="UTF-8"?>
<svg id="Layer_2" data-name="Layer 2" xmlns="http://www.w3.org/2000/svg" viewBox="0 0 49.84 63.22">
  <g id="Layer_1-2" data-name="Layer 1">
    <g>
      <path d="m.02,32.71c.14,1.21.69,2.28,1.65,3.04.99.78,2.23,1.19,3.44,1.48,1.31.3,2.66.46,4,.62,1.46.17,2.89.41,4.31.81,2.87.81,5.56,2.23,7.75,4.27,1.15,1.07,2.15,2.28,2.99,3.6.97,1.53,1.66,3.17,2.35,4.84,1.5,3.63,3.06,7.27,5.26,10.54.27.41.56.81.85,1.21.06.09.21.14.29.04.64-.79,1.35-1.52,1.89-2.38.55-.89.84-1.91.72-2.96-.08-.67-.32-1.3-.47-1.95-.17-.75-.27-1.51-.32-2.28-.09-1.49.05-2.99.35-4.45.49-2.33,1.29-4.62,2.97-6.37,1.28-1.33,3-2.34,4.87-2.47,2.38-.16,4.35,1.23,5.61,3.17.08.12.25.12.32,0,.71-1.16,1.1-2.5.97-3.87-.12-1.23-.63-2.39-1.37-3.38-1.56-2.07-4.07-3.47-6.65-3.72-2.53-.25-5.08.77-7.02,2.36-2.04,1.67-3.49,3.99-4.36,6.46-1.03,2.92-1.28,6.13-.63,9.16.1-.06.21-.12.31-.18-3.41-3.95-5.04-9.33-4.7-14.51.1-1.45.35-2.88.77-4.26-.08.04-.15.09-.23.13,3,1.26,7.4,1.32,9.09-2,.42-.82.54-1.71.11-2.56-.38-.74-1.15-1.29-2-1.27-.46.01-.89.19-1.26.45-.36.27-.74.64-1.24.5-.46-.13-.57-.65-.49-1.07.05-.25.17-.46.23-.7.07-.25.09-.51.06-.77-.11-1.02-1-1.7-2-1.76-.55-.03-.97.19-1.35.56-.35.33-.84.69-1.35.56-1.01-.25-.48-1.52-.79-2.2-.31-.67-1.08-1.09-1.79-1.17-.34-.04-.7,0-.99.19-.45.3-.79.64-1.36.66-.48.01-.9-.24-1.21-.59-.37-.42-.5-.96-.75-1.45-.47-.92-1.17-1.87-2.13-2.31-.45-.21-.95-.22-1.38.05-.42.26-.65.67-.83,1.12-.89,2.15-.36,4.58.57,6.62.92,2.03,2.39,3.74,4.15,5.08.44.34.91.65,1.38.95-.03-.05-.06-.11-.09-.16.15,2.57.12,5.14.6,7.68.1-.06.21-.12.31-.18-2.32-2.81-5.3-5.01-8.57-6.6-1.74-.85-3.57-1.53-5.43-2.07-.88-.26-1.8-.55-2.72-.61-.76-.05-1.54.07-2.24.35-1.57.59-2.61,2.02-2.45,3.75.02.24.4.24.38,0-.14-1.52.7-2.79,2.08-3.39.69-.3,1.45-.42,2.2-.38.89.05,1.77.34,2.61.58,3.46,1,6.8,2.49,9.7,4.64,1.55,1.14,2.95,2.47,4.18,3.95.13.16.34-.02.31-.18-.28-1.47-.39-2.96-.45-4.46-.03-.69-.05-1.39-.08-2.08-.01-.32.03-.73-.05-1.04-.06-.21-.32-.31-.5-.42-1.97-1.29-3.65-2.99-4.73-5.1-1.08-2.11-1.78-4.79-.71-7.05.27-.57.79-1.04,1.46-.81.56.19,1.02.63,1.39,1.08.36.44.67.95.89,1.47.2.48.39.95.77,1.32.69.69,1.67.74,2.47.22.19-.13.35-.31.56-.41.17-.08.37-.1.55-.08.41.02.82.19,1.14.44.31.24.55.59.53,1-.02.47-.04.93.21,1.36.47.8,1.44.68,2.1.2.24-.18.43-.42.68-.57s.56-.2.85-.16c.61.07,1.22.43,1.45,1.02.09.23.12.49.09.74-.03.32-.19.6-.27.91-.1.4-.09.85.15,1.2.2.29.53.46.88.46.49.01.85-.28,1.22-.56.84-.64,1.94-.5,2.58.35,1.27,1.71-.55,3.87-2.11,4.59-1.64.75-3.6.62-5.3.14-.4-.11-.79-.25-1.18-.41-.1-.04-.2.04-.23.13-1.54,5.08-.9,10.78,1.54,15.47.68,1.31,1.52,2.54,2.48,3.66.13.15.35-.01.31-.18-1.07-5,.33-10.75,3.97-14.42,1.7-1.71,3.98-2.95,6.42-3.11,2.51-.16,5.07.95,6.84,2.71.96.96,1.71,2.15,1.98,3.49.3,1.48-.06,2.96-.83,4.23h.32c-1.14-1.74-2.82-3.12-4.94-3.34-1.85-.19-3.68.54-5.13,1.66-1.75,1.36-2.83,3.22-3.5,5.3-.92,2.86-1.26,5.94-.64,8.89.17.8.49,1.57.52,2.39.02.64-.12,1.27-.39,1.84-.51,1.09-1.39,1.94-2.13,2.86.1.01.2.03.29.04-2.36-3.18-4.03-6.8-5.56-10.43-.71-1.68-1.34-3.4-2.22-5-.75-1.37-1.66-2.65-2.71-3.8-1.98-2.16-4.47-3.78-7.2-4.82-1.39-.53-2.84-.9-4.31-1.14-1.34-.22-2.69-.33-4.03-.53-2.3-.35-5.41-.98-6.29-3.49-.11-.32-.18-.65-.22-.98-.04-.23-.41-.24-.39,0Z"/>
      <g>
        <path d="m12.14,16.18c-1.12-2.1-1.61-4.54-1.34-6.91.14-1.18.48-2.35,1.05-3.39.27-.5.61-1.06,1.17-1.28.54-.21,1.12,0,1.53.38.98.9.88,2.5.75,3.71-.01.14.17.24.28.16.69-.48,1.39-1.3,2.31-1.23.7.06,1.25.53,1.27,1.24.02.69-.27,1.38-.54,2-.34.77-.74,1.51-1.11,2.25-.38.75-.76,1.52-.97,2.33.09-.04.18-.07.28-.11-1.16-.84-2.05-1.89-2.58-3.23-.06-.15-.24-.18-.34-.04-.9,1.27-1.44,2.71-2.09,4.11-.1.22.22.41.32.19.65-1.4,1.19-2.85,2.09-4.11-.11-.01-.23-.03-.34-.04.57,1.43,1.51,2.55,2.75,3.45.1.07.25,0,.28-.11.43-1.71,1.51-3.2,2.18-4.81.27-.65.54-1.39.44-2.1s-.64-1.18-1.32-1.34c-1.14-.27-1.97.64-2.81,1.23.09.05.19.11.28.16.13-1.18.2-2.66-.57-3.66-.73-.94-2-1.21-2.88-.32-.44.45-.74,1.04-1,1.61-.26.59-.46,1.2-.61,1.83-.29,1.29-.33,2.63-.17,3.94.19,1.5.65,2.95,1.37,4.28.11.21.43.02.32-.19Z"/>
        <path d="m19.65,11.79c-.59,1.37-.84,2.96-.9,4.44-.03.61-.14,2.74,1,2.49.52-.11.93-.65,1.23-1.05.51-.67.94-1.4,1.35-2.13.4-.72.77-1.45,1.14-2.18.38-.76.7-1.61.55-2.47-.17-1-1.21-1.8-2.23-1.56-1.13.27-1.73,1.49-2.14,2.46-.09.22.23.41.32.19.35-.81.77-1.76,1.6-2.17.92-.46,1.97.28,2.09,1.24.1.78-.23,1.53-.57,2.21-.32.64-.65,1.28-.99,1.91-.35.64-.72,1.28-1.14,1.89-.3.43-.64.94-1.1,1.21-.85.5-.76-1.55-.74-1.93.05-1.45.29-3.02.86-4.36.08-.22-.24-.41-.33-.19Z"/>
        <path d="m24.18,19.5c-1-.84-.28-2.31.17-3.27.48-1.04,1.06-2.2,2.01-2.9.45-.33.98-.52,1.54-.4.51.1.98.39,1.17.89.2.52.06,1.12-.16,1.61-.3.66-.76,1.26-1.18,1.85-.47.67-.98,1.41-1.66,1.89-.54.38-1.33.75-1.93.3-.19-.14-.38.18-.19.32.55.41,1.27.26,1.84-.02.74-.36,1.26-.98,1.76-1.62.55-.71,1.12-1.48,1.55-2.27.3-.55.51-1.2.41-1.84-.19-1.23-1.61-1.8-2.7-1.39-1.27.48-2.05,1.87-2.61,3.01-.57,1.17-1.55,3.04-.29,4.1.18.16.45-.11.27-.26Z"/>
        <path d="m28.34,21.62c-.16-.16.05-.72.1-.9.17-.56.41-1.11.66-1.64.28-.58.58-1.14.91-1.69.31-.51.63-1,1.14-1.33.42-.27.96-.45,1.46-.32.52.13.86.59.99,1.09.32,1.2-.85,2.16-1.7,2.79-.55.41-1.11.82-1.67,1.22-.33.24-.68.47-1.04.64-.2.11-.62.31-.85.14-.19-.15-.46.12-.27.27.52.4,1.24-.01,1.72-.29.66-.4,1.27-.89,1.9-1.34.98-.71,2.35-1.65,2.35-3.01,0-.62-.3-1.28-.82-1.63-.46-.32-1.05-.34-1.58-.19-1.36.41-2.03,1.84-2.63,3.01-.35.69-.69,1.41-.92,2.16-.11.35-.33.98,0,1.29.17.16.44-.1.26-.27Z"/>
        <path d="m32.07,23.91c-.33-.43.02-1.06.25-1.47.26-.47.54-.92.85-1.36.66-.92,1.53-1.84,2.61-2.24.52-.19,1.09-.25,1.63-.11.64.17,1.17.71.98,1.4-.17.64-.67,1.09-1.18,1.46-.57.42-1.16.81-1.75,1.2s-1.16.82-1.84,1.07c-.44.16-1.2.42-1.58.01-.17-.18-.43.09-.27.27.36.39.95.35,1.43.24.72-.16,1.36-.53,1.96-.94.7-.47,1.41-.93,2.09-1.42.58-.43,1.15-.88,1.42-1.57.25-.63.1-1.29-.44-1.72-.49-.39-1.15-.5-1.76-.44-1.36.14-2.49,1.13-3.31,2.16-.45.57-.86,1.2-1.21,1.84-.28.52-.64,1.27-.22,1.81.16.19.49,0,.34-.19Z"/>
        <path d="m35.97,25.46c.67-1.13,1.91-1.98,3.04-2.59,1.01-.55,2.34-1.14,3.49-.62.59.26.86.86.85,1.49,0,.73-.43,1.37-.96,1.84-1.11.98-2.5,1.75-3.94,2.07-.72.16-1.79.3-2.34-.32-.46-.51-.46-1.3-.14-1.87.12-.21-.21-.4-.32-.19-.31.56-.37,1.24-.12,1.83.28.65.86.95,1.54,1.01,1.75.17,3.53-.75,4.9-1.76.66-.48,1.28-1.01,1.58-1.79.26-.67.23-1.5-.2-2.1-.78-1.08-2.46-.88-3.53-.42-.9.39-1.76.89-2.53,1.49-.62.49-1.24,1.04-1.65,1.73-.12.22.21.41.33.2Z"/>
        <path d="m43.73,15.65c-1-.42-2.61-.29-2.64,1.1,0,.69.53,1.16.93,1.65.45.55.52,1.15.67,1.82.11.48.28,1.05.77,1.26.49.21,1.15-.02,1.58-.3.88-.58,1.06-1.67.87-2.64-.23-1.19-1.01-2.37-2.14-2.86-.22-.1-.41.23-.19.32.86.38,1.49,1.18,1.81,2.06.28.79.37,1.8-.19,2.49-.29.35-.72.55-1.16.62-.55.09-.78-.32-.92-.79-.14-.48-.17-1-.35-1.47-.23-.57-.69-.96-1.04-1.45-.35-.49-.38-1.24.24-1.53.51-.24,1.16-.12,1.66.08.22.09.32-.27.1-.36Z"/>
        <path d="m41.42,15c.66-.01,1.13-.54,1.43-1.07.41-.73.61-1.6.61-2.44,0-1.72-1.46-3.2-3.15-3.4-1.16-.14-3.21-.04-3.41,1.47-.18,1.41,1.86,1.36,2.41,2.35.35.63.29,1.37.51,2.04.26.72.85,1.02,1.6,1.05.24.01.24-.37,0-.38-.62-.02-1.07-.25-1.25-.86-.15-.5-.16-1.04-.31-1.54-.16-.53-.47-.93-.94-1.22-.45-.27-1-.41-1.4-.76-.42-.37-.25-1,.14-1.33.47-.4,1.18-.49,1.77-.5.71-.02,1.38.08,2.01.44.7.4,1.33,1.05,1.56,1.84.23.8.07,1.73-.22,2.49-.21.58-.65,1.43-1.36,1.44-.24,0-.24.38,0,.38Z"/>
        <path d="m31.47,4.96c-.13.55.09,1.06.54,1.4.55.41,1.29.51,1.89.85.25.14.45.3.64.51.15.17.29.35.46.5.37.33.81.41,1.25.16.46-.27.84-.71.96-1.24.11-.49.03-1-.15-1.46-.38-.98-1.09-1.83-2.13-2.13-.62-.17-1.3-.16-1.91.04-.66.23-1.34.68-1.55,1.37-.07.23.29.33.36.1.17-.56.76-.93,1.29-1.1.47-.16.98-.19,1.47-.1.92.18,1.55.8,1.97,1.62.4.78.51,1.75-.21,2.38-.34.3-.72.43-1.08.11-.27-.24-.46-.56-.75-.79-.51-.41-1.15-.62-1.76-.84-.55-.2-1.08-.62-.92-1.26.04-.25-.32-.35-.37-.12Z"/>
        <path d="m22.17,4.29c.17.67.49,1.46,1.26,1.59.62.1,1.24-.22,1.79-.46.78-.34,1.46-.57,2.31-.32.41.12.79.33,1.2.41.39.08.78.03,1.15-.11,1.7-.62,1.64-2.87.58-4.06C29.3.04,27.21-.22,25.6.15c-.92.21-1.82.66-2.47,1.36-.69.75-1.02,1.72-.98,2.74,0,.24.38.24.38,0-.06-1.7,1.02-3.02,2.59-3.57,1.45-.5,3.29-.42,4.57.48.7.49,1.11,1.24,1.16,2.09.04.75-.24,1.44-.95,1.76-.34.15-.73.22-1.1.15-.36-.08-.7-.25-1.05-.36-.67-.22-1.34-.23-2.01.02-.61.23-1.2.59-1.85.7-.85.14-1.18-.6-1.37-1.31-.05-.25-.41-.15-.35.08Z"/>
        <path d="m17.03,5.11c-.86-.61-1.22-1.67-.87-2.67.32-.92,1.23-1.63,2.21-1.68.98-.05,1.98.53,2.4,1.42.4.86.21,1.95-.42,2.65-.89.96-2.3,1.02-3.32.28-.2-.14-.38.18-.19.32,1.05.75,2.43.75,3.45-.06.88-.69,1.26-1.95.94-3.02-.33-1.1-1.38-1.87-2.51-1.97-1.16-.11-2.3.6-2.8,1.64-.59,1.23-.19,2.63.91,3.41.2.15.39-.18.2-.32Z"/>
        <g>
          <path d="m34.75,16.73c.53.28,1.22.22,1.65-.22.4-.41.53-1.05.27-1.57-.24-.49-.78-.83-1.33-.77-.56.06-1.05.41-1.23.96-.19.61.09,1.28.64,1.6.21.12.4-.2.19-.32-.35-.2-.55-.59-.51-.99.04-.41.36-.76.76-.85.4-.1.8.07,1.05.4.25.34.25.83,0,1.17-.3.4-.85.51-1.29.28-.21-.12-.4.2-.19.31Z"/>
          <g>
            <path d="m31.95,13.93c-.36-.2-.57-.6-.51-1.02.06-.42.39-.75.81-.83.41-.08.84.12,1.04.47.21.35.18.81-.08,1.13-.3.37-.83.48-1.26.25-.21-.12-.4.21-.19.32.51.28,1.15.21,1.59-.18.42-.37.57-1,.36-1.52-.21-.54-.75-.89-1.33-.87-.57.02-1.08.4-1.26.94-.21.62.07,1.31.64,1.63.22.12.41-.2.19-.32Z"/>
            <path d="m25.43,10.11c-.36-.21-.58-.63-.5-1.05.08-.42.42-.75.84-.81.41-.06.83.15,1.02.51.19.35.15.81-.11,1.11-.3.37-.84.47-1.25.24-.21-.12-.4.21-.19.32.5.28,1.12.21,1.57-.15.44-.36.6-.99.4-1.52-.2-.53-.72-.9-1.3-.89-.57,0-1.1.38-1.29.92-.22.62.06,1.32.63,1.65.2.11.39-.21.18-.33Z"/>
            <path d="m28.77,11.86c-.35-.2-.56-.6-.51-1,.06-.43.39-.76.81-.85.41-.08.84.12,1.05.48.21.36.16.81-.1,1.13-.29.38-.82.47-1.25.24-.21-.12-.4.21-.19.32.51.28,1.14.22,1.59-.17.43-.37.59-1,.38-1.53-.21-.54-.76-.9-1.34-.87s-1.1.42-1.27.98c-.18.6.09,1.28.64,1.59.21.13.4-.2.19-.32Z"/>
          </g>
          <path d="m21.7,9.07c.54.29,1.18.22,1.63-.21.41-.4.54-1.04.3-1.57-.22-.47-.74-.81-1.26-.8-.29,0-.55.09-.78.26s-.41.39-.5.66c-.24.64.04,1.34.61,1.66.21.12.4-.21.19-.32-.36-.21-.57-.62-.5-1.04.07-.4.41-.77.82-.82.39-.05.78.1,1.01.43.23.34.21.82-.03,1.15-.31.41-.84.52-1.29.28-.22-.11-.41.21-.2.32Z"/>
        </g>
        <g>
          <path d="m38.77,18.44c.52.28,1.15.23,1.6-.17.43-.39.57-1.02.34-1.56-.21-.5-.7-.82-1.24-.83-.55-.01-1.08.33-1.29.84-.27.63,0,1.39.59,1.72.21.12.4-.21.19-.32-.39-.22-.59-.67-.48-1.11.1-.41.45-.68.86-.75.39-.06.78.16.98.49.21.36.17.8-.09,1.13-.31.38-.83.47-1.26.24-.22-.12-.41.21-.2.32Z"/>
          <path d="m38.71,14.86c.46-.32.69-.86.59-1.41-.1-.54-.56-.98-1.1-1.07-.55-.09-1.11.15-1.41.63-.29.46-.28,1.09.05,1.52.21.28.51.49.86.55.34.05.71-.02,1.01-.22.08-.06.12-.16.07-.26-.05-.08-.17-.13-.26-.07-.4.27-.93.24-1.27-.1-.28-.29-.37-.73-.21-1.1s.55-.61.95-.6c.4.01.78.27.91.65.15.42,0,.9-.37,1.16-.08.06-.12.16-.07.26.04.07.16.12.25.06Z"/>
          <path d="m36.42,11.97c.37-.43.46-1.03.2-1.54-.26-.5-.82-.8-1.38-.73-.57.07-1.06.48-1.18,1.05-.13.57.12,1.15.6,1.48.54.37,1.32.22,1.76-.26.16-.18-.1-.44-.27-.27-.29.32-.75.45-1.15.28-.39-.16-.63-.6-.61-1.01.03-.41.32-.76.71-.87.4-.12.84.03,1.09.36.28.37.26.9-.04,1.24-.16.19.11.45.27.27Z"/>
          <path d="m33.52,9.57c.29-.51.23-1.13-.14-1.58-.36-.44-.99-.6-1.52-.4-.54.2-.92.72-.91,1.3,0,.57.38,1.07.91,1.28.62.23,1.32-.04,1.66-.6.12-.21-.2-.4-.32-.19-.22.37-.65.57-1.07.47-.4-.09-.72-.42-.78-.83-.07-.41.15-.83.51-1.03.36-.2.82-.16,1.13.12.36.32.45.85.21,1.27-.12.21.2.4.32.19Z"/>
          <path d="m28.26,8.49c.55.3,1.23.2,1.67-.25.41-.43.51-1.13.19-1.64-.26-.41-.74-.68-1.23-.67-.56,0-1.07.4-1.25.92-.22.61.06,1.32.62,1.64.21.12.4-.2.19-.32-.36-.21-.57-.63-.5-1.04.07-.4.4-.76.81-.82.35-.05.71.1.94.36.29.32.3.81.07,1.16-.28.44-.87.58-1.33.34-.2-.12-.39.21-.18.32Z"/>
        </g>
      </g>
    </g>
  </g>
</svg>