<?xml version="1.0" encoding="UTF-8"?>
<svg id="Layer_2" data-name="Layer 2" xmlns="http://www.w3.org/2000/svg" viewBox="0 0 45.61 44.05">
  <g id="Layer_1-2" data-name="Layer 1">
    <g>
      <path d="m22.57,22.87c.49-2.26.2-4.5-.8-6.58-.92-1.93-2.28-3.6-3.42-5.4-.67-1.05-1.27-2.15-1.67-3.34-.06-.18-.3-.18-.36,0-1.58,4.74-2.86,9.88-.91,14.72.59,1.47,1.43,2.82,2.41,4.05.08-.1.15-.2.23-.29-1.88-1.29-3.86-2.41-5.97-3.27-1.85-.75-3.78-1.28-5.74-1.68-1.16-.24-2.33-.43-3.49-.61-.13-.02-.28.08-.23.23.81,2.27,2.19,4.28,4.13,5.72,1.9,1.41,4.19,2.18,6.52,2.47,1.46.19,2.93.18,4.39.05-.03-.12-.06-.23-.09-.35-2.03,1.55-3.53,3.59-4.81,5.78-1.19,2.02-2.21,4.16-3.71,5.98-.84,1.02-1.82,1.9-2.98,2.54-.14.08-.11.3.04.34,1.48.4,3.03.49,4.53.14,1.36-.32,2.6-.98,3.69-1.83,2.28-1.79,3.89-4.37,5.04-7,.6-1.38,1.1-2.81,1.45-4.27-.1.03-.21.06-.31.08,1.65,2.07,3.87,3.49,6.34,4.39,2.37.86,4.87,1.27,7.34,1.74,1.3.25,2.6.52,3.87.92.16.05.29-.14.21-.28-1.09-2.04-2.83-3.56-4.74-4.81-1.84-1.21-3.83-2.17-5.61-3.46-.92-.66-1.77-1.43-2.42-2.36-.05.09-.11.19-.16.28,2.93-.28,5.58-1.46,7.75-3.46,2.01-1.85,3.52-4.17,5.07-6.4.9-1.28,1.81-2.55,2.86-3.71.14-.15-.04-.42-.23-.29-2.32,1.57-4.92,2.47-7.58,3.26-2.47.73-4.94,1.5-7.1,2.94-1.48.98-2.77,2.22-3.88,3.6-.15.19.11.45.27.27,1.02-1.26,2.17-2.4,3.5-3.33,1.09-.76,2.28-1.38,3.51-1.87,2.38-.94,4.9-1.47,7.29-2.39,1.47-.56,2.88-1.27,4.18-2.16-.08-.1-.15-.2-.23-.29-1.81,2-3.23,4.3-4.81,6.48-1.58,2.17-3.38,4.24-5.76,5.54-1.5.82-3.15,1.28-4.85,1.44-.13.01-.25.15-.16.28,1.17,1.69,2.93,2.83,4.67,3.86,1.94,1.15,3.96,2.22,5.65,3.73.98.88,1.82,1.89,2.44,3.05.07-.09.14-.18.21-.28-4.65-1.47-9.77-1.41-14.04-4-1.28-.78-2.41-1.78-3.35-2.95-.09-.11-.28-.04-.31.08-.64,2.59-1.67,5.12-3.11,7.37-1.48,2.32-3.54,4.47-6.23,5.31-1.61.5-3.3.46-4.92.02.01.11.03.23.04.34,4.23-2.37,5.67-7.37,8.39-11.08.88-1.21,1.92-2.31,3.11-3.22.13-.1.11-.37-.09-.35-4.63.43-9.66-.61-12.71-4.38-.86-1.07-1.51-2.29-1.97-3.58l-.23.23c2,.31,4,.66,5.95,1.19,1.99.54,3.91,1.29,5.73,2.25,1.18.62,2.32,1.33,3.42,2.08.19.13.35-.14.23-.29-1.67-2.1-2.85-4.56-3.2-7.23-.31-2.37.01-4.76.57-7.07.34-1.39.77-2.75,1.22-4.1h-.36c.68,2.02,1.91,3.77,3.11,5.52,1.18,1.73,2.36,3.52,2.82,5.6.29,1.32.25,2.69-.04,4.01-.01.21.35.31.4.08Z"/>
      <path d="m16.89,7.04c0,.28.2.65.3.9.19.48.41.95.66,1.41.52.98,1.14,1.89,1.76,2.8,1.11,1.61,2.26,3.25,2.94,5.1.4,1.11.61,2.26.61,3.44,0,.16.2.25.32.13,1.51-1.48,3.26-2.64,5.19-3.49,1.74-.76,3.58-1.25,5.39-1.8,1.07-.32,2.13-.68,3.17-1.11.51-.21,1.01-.45,1.51-.7.19-.1.47-.2.61-.36.14-.17.23-.45.31-.66.76-1.83.61-3.92-.2-5.7-1.27-2.82-4.03-4.69-6.83-5.76C29.72.13,26.46-.28,23.37.19c-1.5.23-3.09.65-4.29,1.63-1.23,1.01-1.88,2.51-2.1,4.06-.05.39-.08.77-.09,1.16-.01.24.37.24.38,0,.05-1.53.42-3.11,1.43-4.3,1.02-1.2,2.52-1.73,4.03-2.04,2.94-.61,6.08-.32,8.92.6,2.73.88,5.45,2.47,6.99,4.96,1.01,1.63,1.43,3.65.94,5.52-.06.22-.12.43-.2.64-.08.22-.19.61-.39.75-.21.15-.48.26-.71.37-.27.13-.54.26-.81.38-.98.43-2,.79-3.02,1.11-1.74.54-3.51,1-5.21,1.67-1.73.68-3.36,1.59-4.81,2.76-.42.34-.83.71-1.22,1.09.11.04.21.09.32.13,0-1.99-.62-3.86-1.58-5.58-1-1.8-2.3-3.4-3.35-5.17-.32-.53-.61-1.07-.86-1.64-.13-.29-.25-.59-.35-.89-.04-.1-.13-.34-.13-.39.01-.22-.37-.22-.37.03Z"/>
      <path d="m.04,16.44c.13.98.52,1.89,1.25,2.57.32.3.69.55,1.08.76.2.11.41.21.62.31.26.12.54.14.83.18,2.49.41,4.96.92,7.34,1.78,1.5.54,2.95,1.21,4.34,1.99.17.09.34-.09.26-.26-.87-1.68-1.43-3.5-1.6-5.39-.16-1.76-.03-3.53.3-5.26.32-1.69.79-3.35,1.32-4.98.1-.31.3-.66.24-.99-.07-.39-.19-.78-.33-1.15-.24-.6-.57-1.19-1.04-1.64-.82-.79-1.91-.87-3-.76-1.16.11-2.28.48-3.33.99-2.28,1.1-4.26,2.85-5.78,4.85C1.07,11.37-.25,13.89.04,16.39c.03.24.4.24.38,0-.26-2.16.75-4.31,1.93-6.05,1.39-2.04,3.25-3.81,5.4-5.03,1.01-.57,2.1-1.02,3.25-1.24,1-.19,2.28-.31,3.14.35.51.39.87.95,1.12,1.54.14.34.25.69.34,1.04.04.17.07.26.02.42-.07.21-.14.42-.21.63-.52,1.6-.99,3.22-1.3,4.87-.34,1.8-.5,3.64-.33,5.46.18,1.95.75,3.84,1.65,5.58.09-.09.17-.17.26-.26-2.26-1.26-4.65-2.22-7.15-2.87-1.18-.31-2.37-.55-3.57-.76-.28-.05-.56-.1-.84-.14-.31-.05-.66-.07-.95-.18-.41-.16-.81-.39-1.17-.64-.95-.66-1.46-1.64-1.61-2.77-.03-.24-.39-.14-.36.1Z"/>
      <path d="m.63,26.4c.28,1.71,1.25,3.28,2.33,4.6,1.32,1.62,2.97,3.01,4.81,4,1.06.57,2.19,1.01,3.37,1.27.08.02.17-.01.21-.09,1.32-2.3,2.58-4.61,4.46-6.51.11-.12.03-.32-.13-.32-4.02,0-8.11-1.24-10.87-4.3-.73-.81-1.34-1.73-1.83-2.7-.04-.08-.13-.1-.21-.09-.8.16-1.47.64-1.84,1.38-.43.85-.44,1.83-.3,2.76.04.24.4.14.36-.1-.23-1.53.13-3.31,1.87-3.67-.07-.03-.14-.06-.21-.09.89,1.76,2.16,3.29,3.75,4.45,1.66,1.22,3.61,2,5.62,2.39,1.2.24,2.43.34,3.65.34-.04-.11-.09-.21-.13-.32-1.9,1.92-3.19,4.26-4.52,6.59l.21-.09c-2.06-.45-3.96-1.46-5.59-2.77-1.48-1.2-2.8-2.66-3.73-4.33-.43-.78-.77-1.62-.92-2.51-.04-.23-.4-.13-.36.11Z"/>
      <path d="m16.14,40.56c2.5,2.09,5.65,3.39,8.92,3.48,2.99.07,5.95-.95,8.31-2.78,1.3-1.01,2.4-2.26,3.22-3.69.06-.1.01-.25-.11-.28-4.17-1.02-8.6-1.31-12.4-3.49-1.08-.62-2.07-1.38-2.94-2.27-.1-.1-.27-.05-.31.08-.96,3.14-2.46,6.23-4.68,8.69-.16.18.1.44.27.27,2.26-2.5,3.8-5.65,4.78-8.85-.1.03-.21.06-.31.08,3.06,3.12,7.27,4.24,11.43,5.03,1.36.26,2.72.5,4.07.83-.04-.09-.07-.18-.11-.28-1.42,2.48-3.73,4.41-6.39,5.44-2.84,1.1-5.97,1.1-8.85.11-1.69-.58-3.25-1.48-4.62-2.63-.2-.16-.47.1-.28.26Z"/>
      <path d="m26.58,27.23c1.55,1.6,3.59,2.62,5.48,3.74,1.9,1.12,3.76,2.35,5.21,4.04.04.05.12.06.18.05,3.69-.74,6.58-3.78,7.63-7.33.92-3.09.69-6.76-1.03-9.53-.92-1.49-2.29-2.62-3.98-3.12-.09-.03-.16.02-.21.09-2.83,3.69-5.1,8.11-9.33,10.41-1.21.66-2.52,1.09-3.87,1.34-.24.04-.14.41.1.36,2.36-.44,4.53-1.48,6.36-3.04,1.7-1.45,3.06-3.24,4.34-5.06.9-1.28,1.78-2.58,2.74-3.83l-.21.09c3.03.9,4.67,3.86,5.11,6.83.5,3.33-.36,6.87-2.62,9.41-1.35,1.52-3.13,2.62-5.13,3.02.06.02.12.03.18.05-1.43-1.66-3.25-2.89-5.11-4-1.92-1.14-4.01-2.16-5.58-3.78-.17-.18-.43.08-.26.26Z"/>
      <g>
        <path d="m18.9,11.1c.96,1.48,2.04,2.89,2.88,4.46.85,1.6,1.38,3.32,1.38,5.14,0,.16.2.25.32.13,1.37-1.34,2.94-2.44,4.67-3.25,1.51-.71,3.11-1.2,4.7-1.67.17-.05.19-.33,0-.36-.38-.07-.76-.14-1.14-.21.03.1.06.21.08.31.4-.38.79-.75,1.19-1.13.14-.13-.01-.35-.18-.31-.71.16-1.41.32-2.12.48.08.08.15.15.23.23.14-.35.32-.73.58-1.01.12-.13,0-.38-.18-.31-.63.22-1.33.3-1.99.35.06.08.12.16.18.24.08-.41.15-.82.23-1.23.03-.16-.12-.29-.28-.21-.43.22-.85.43-1.28.65.09.05.19.11.28.16.05-.38.1-.76.15-1.14.02-.15-.17-.23-.28-.16-.39.23-.77.46-1.16.69.09.05.19.11.28.16v-1.43c0-.14-.16-.24-.28-.16-.37.24-.75.47-1.12.71.09.04.18.07.28.11-.08-.4-.16-.79-.24-1.19-.02-.12-.18-.17-.28-.11-.36.22-.71.44-1.07.66.09.04.18.07.28.11-.08-.54-.17-1.08-.25-1.62-.03-.17-.26-.16-.34-.04-.27.4-.54.8-.81,1.2.11.01.23.03.34.04-.21-.76-.41-1.52-.62-2.28-.05-.18-.31-.17-.36,0-.15.49-.3.99-.45,1.48h.36c-.33-.85-.66-1.7-.99-2.55-.07-.18-.29-.18-.36,0-.23.61-.45,1.21-.68,1.82h.36c-.14-.81-.29-1.72-.14-2.53.04-.2-.23-.34-.34-.14-.73,1.2-1.36,2.46-1.86,3.77-.09.23.28.32.36.1.49-1.28,1.11-2.51,1.82-3.69-.11-.05-.23-.1-.34-.14-.16.89-.01,1.85.14,2.73.03.2.3.15.36,0,.23-.61.45-1.21.68-1.82h-.36c.33.85.66,1.7.99,2.55.06.17.3.19.36,0,.15-.49.3-.99.45-1.48h-.36c.21.76.41,1.52.62,2.28.04.16.26.17.34.04.27-.4.54-.8.81-1.2-.11-.01-.23-.03-.34-.04.08.54.17,1.08.25,1.62.02.12.18.17.28.11.36-.22.71-.44,1.07-.66-.09-.04-.18-.07-.28-.11.08.4.16.79.24,1.19.02.12.18.17.28.11.37-.24.75-.47,1.12-.71-.09-.05-.19-.11-.28-.16v1.43c0,.14.16.23.28.16.39-.23.77-.46,1.16-.69-.09-.05-.19-.11-.28-.16-.05.38-.1.76-.15,1.14-.02.15.17.22.28.16.43-.22.85-.43,1.28-.65-.09-.07-.18-.14-.28-.21-.08.41-.15.82-.23,1.23-.02.11.05.25.18.24.69-.06,1.43-.13,2.09-.37-.06-.1-.12-.21-.18-.31-.31.32-.51.76-.68,1.17-.06.14.11.26.23.23.71-.16,1.41-.32,2.12-.48-.06-.1-.12-.21-.18-.31-.4.38-.79.75-1.19,1.13-.1.09-.06.29.08.31.38.07.76.14,1.14.21v-.36c-1.63.48-3.25.99-4.79,1.71-1.76.83-3.36,1.95-4.75,3.31.11.04.21.09.32.13,0-1.82-.51-3.55-1.34-5.15-.85-1.63-1.97-3.09-2.97-4.63-.13-.21-.45-.02-.32.18Z"/>
        <path d="m15.75,23.77c-.91-1.75-1.47-3.66-1.62-5.63-.15-1.86.04-3.72.41-5.54.1-.5.22-1,.35-1.5.05-.21.12-.33-.02-.49-.12-.14-.25-.26-.37-.4-.1-.11-.27-.04-.31.08-.18.53-.37,1.05-.55,1.58.08-.04.15-.09.23-.13-.55-.2-1.11-.4-1.66-.61-.12-.05-.23.07-.24.18-.02.41-.04.82-.06,1.23.08-.06.16-.12.24-.18-.41-.15-.83-.3-1.24-.45-.14-.05-.27.1-.23.23.13.44.25.88.38,1.32.04-.08.09-.15.13-.23-.45.08-.9.12-1.35.12-.11,0-.23.12-.18.24.13.32.26.63.39.95.06-.08.12-.16.18-.24-.48-.02-.96.02-1.43.12-.13.03-.16.17-.11.28.18.35.35.7.52,1.05.05-.09.11-.19.16-.28-.44.02-.88.05-1.32.1-.11.01-.22.11-.18.24.11.35.23.69.34,1.04.04-.08.09-.15.13-.23-.34.1-.69.2-1.03.3-.1.03-.16.13-.13.23.1.34.19.69.29,1.03.06-.08.12-.16.18-.24-.38.05-.77.09-1.15.14-.16.02-.25.19-.13.32.26.28.52.57.78.85.03-.1.06-.21.08-.31-.37.1-.73.2-1.1.3-.11.03-.19.18-.11.28.21.28.42.55.63.83.04-.09.07-.18.11-.28-.29.06-.58.12-.86.2-.17.05-.19.32,0,.36,3.37.66,6.59,1.73,9.6,3.4.21.12.4-.21.19-.32-3.03-1.68-6.29-2.77-9.68-3.44v.36c.28-.08.57-.14.86-.2.11-.02.18-.18.11-.28-.21-.28-.42-.55-.63-.83-.04.09-.07.18-.11.28.37-.1.73-.2,1.1-.3.14-.04.18-.21.08-.31-.26-.28-.52-.57-.78-.85-.04.11-.09.21-.13.32.38-.05.77-.09,1.15-.14.12-.01.22-.11.18-.24-.1-.34-.19-.69-.29-1.03-.04.08-.09.15-.13.23.34-.1.69-.2,1.03-.3.09-.03.16-.13.13-.23-.11-.35-.23-.69-.34-1.04-.06.08-.12.16-.18.24.44-.05.88-.08,1.32-.1.15-.01.22-.15.16-.28-.17-.35-.34-.7-.52-1.05-.04.09-.07.18-.11.28.44-.09.88-.12,1.33-.1.11,0,.23-.12.18-.24-.13-.32-.26-.63-.39-.95-.06.08-.12.16-.18.24.49,0,.97-.06,1.45-.14.1-.02.16-.14.13-.23-.13-.44-.25-.88-.38-1.32-.08.08-.15.15-.23.23.41.15.83.3,1.24.45.12.04.23-.07.24-.18.02-.41.04-.82.06-1.23-.08.06-.16.12-.24.18.55.21,1.11.41,1.66.61.1.04.2-.04.23-.13.18-.53.37-1.05.55-1.58-.1.03-.21.06-.31.08.13.15.27.29.41.44-.02-.06-.03-.12-.05-.18-.56,2.15-.95,4.36-.89,6.58.06,2.32.65,4.58,1.72,6.64.1.2.42.02.31-.2Z"/>
        <path d="m8.76,30.09c.36.17.73.33,1.09.5-.01-.1-.03-.2-.04-.29-.19.24-.38.48-.57.72-.08.1-.07.28.08.31.34.07.69.13,1.03.2-.04-.08-.09-.15-.13-.23-.09.31-.18.63-.27.94-.03.1.03.21.13.23.32.08.63.15.95.23-.04-.09-.07-.18-.11-.28-.16.36-.31.73-.47,1.09-.05.11,0,.3.16.28.34-.04.68-.09,1.02-.13l-.19-.19c-.02.32-.05.64-.07.96-.01.1.09.19.19.19.21,0,.56.07.71-.1.2-.23.33-.58.49-.84.17-.28.34-.56.51-.83.73-1.14,1.56-2.22,2.52-3.19.11-.12.03-.32-.13-.32-2.22,0-4.45-.36-6.51-1.22-.08-.03-.16-.03-.23.03-.23.2-.45.41-.68.61-.11.1-.04.27.08.31.41.15.82.3,1.23.45-.01-.11-.03-.23-.04-.34-.25.19-.51.39-.76.58-.19.14,0,.47.19.32.25-.19.51-.39.76-.58.13-.1.12-.28-.04-.34-.41-.15-.82-.3-1.23-.45.03.1.06.21.08.31.23-.2.45-.41.68-.61-.08.01-.15.02-.23.03,2.12.9,4.4,1.28,6.69,1.28-.04-.11-.09-.21-.13-.32-1.44,1.45-2.56,3.16-3.58,4.93.05-.03.11-.06.16-.09-.18,0-.37.01-.55.01l.19.19c.02-.32.05-.64.07-.96.01-.09-.09-.2-.19-.19-.34.04-.68.09-1.02.13.05.09.11.19.16.28.16-.36.31-.73.47-1.09.05-.11.02-.24-.11-.28-.32-.08-.63-.15-.95-.23.04.08.09.15.13.23.09-.31.18-.63.27-.94.03-.09-.03-.21-.13-.23-.34-.07-.69-.13-1.03-.2.03.1.06.21.08.31.19-.24.38-.48.57-.72.07-.08.08-.24-.04-.29-.36-.17-.73-.33-1.09-.5-.19-.1-.38.23-.17.33Z"/>
        <path d="m19.26,36.82c.16-.06.32-.11.48-.17-.08-.06-.16-.12-.24-.18.03.42.06.83.09,1.25.01.12.11.22.24.18.19-.05.37-.11.56-.16-.08-.04-.15-.09-.23-.13.17.54.34,1.08.49,1.62.21.71.49,1.48.53,2.23.01.18.25.26.35.09.38-.67.76-1.34,1.14-2.01-.09.02-.17.04-.26.07.25.16.51.32.76.48.09.06.26.01.28-.11.07-.47.14-.95.21-1.42-.09.04-.18.07-.28.11.23.17.45.35.68.52.09.07.25,0,.28-.11.08-.41.17-.83.25-1.24-.1.03-.21.06-.31.08.15.13.31.26.46.39.1.09.28.07.31-.08.1-.47.21-.95.31-1.42-.1.03-.21.06-.31.08.18.19.35.37.53.56.1.11.27.05.31-.08.11-.34.21-.69.32-1.03-.09.04-.18.07-.28.11.38.18.77.37,1.15.55.12.06.3-.01.28-.16-.05-.53-.11-1.05-.19-1.58-.01-.07-.07-.11-.13-.13-2.22-.76-4.27-1.91-5.92-3.6-.1-.1-.27-.05-.31.08-.29.94-.62,1.87-1.01,2.77-.2.48-.43.94-.65,1.41-.13.26-.11.57-.13.85-.02.24.36.24.38,0,.01-.12.02-.23.03-.35.02-.25.1-.41.21-.64.21-.43.41-.88.6-1.32.36-.86.68-1.73.95-2.62-.1.03-.21.06-.31.08,1.69,1.74,3.8,2.91,6.08,3.7-.04-.04-.09-.09-.13-.13.07.49.13.99.17,1.48.09-.05.19-.11.28-.16-.38-.18-.77-.37-1.15-.55-.11-.05-.24-.01-.28.11-.11.34-.21.69-.32,1.03.1-.03.21-.06.31-.08-.18-.19-.35-.37-.53-.56-.09-.1-.28-.05-.31.08-.1.47-.21.95-.31,1.42.1-.03.21-.06.31-.08-.15-.13-.31-.26-.46-.39-.1-.08-.28-.07-.31.08-.08.41-.17.83-.25,1.24.09-.04.18-.07.28-.11-.23-.17-.45-.35-.68-.52-.09-.07-.26,0-.28.11-.07.47-.14.95-.21,1.42.09-.04.18-.07.28-.11-.25-.16-.51-.32-.76-.48-.08-.05-.21-.02-.26.07-.38.67-.76,1.34-1.14,2.01.12.03.23.06.35.09-.04-.76-.31-1.54-.52-2.26-.16-.56-.33-1.13-.51-1.69-.03-.1-.13-.16-.23-.13-.19.05-.37.11-.56.16.08.06.16.12.24.18-.03-.42-.06-.83-.09-1.25-.01-.11-.11-.22-.24-.18-.16.06-.32.11-.48.17-.24.07-.14.44.09.36Z"/>
        <path d="m26.58,27.23c1.05,1.08,2.34,1.9,3.64,2.66,1.42.84,2.86,1.64,4.21,2.59.15.11.37-.11.26-.26-.09-.12-.18-.25-.27-.37-.05.09-.11.19-.16.28.44-.02.89-.04,1.33-.06.11-.01.22-.12.18-.24-.19-.55-.53-1.02-1.02-1.35v.32c.25-.19.49-.24.8-.17.19.04.31-.17.18-.31-.34-.4-.71-.77-1.11-1.11-.03.1-.06.21-.08.31.65-.13,1.31-.26,1.96-.4.11-.02.18-.18.11-.28-.26-.39-.56-.74-.91-1.06-.03.1-.06.21-.08.31.6-.14,1.21-.28,1.81-.41.17-.04.16-.25.04-.34-.19-.14-.35-.31-.5-.5v.27c.32-.32.64-.66.95-.99.09-.1.06-.28-.08-.31-.54-.12-1.09-.24-1.63-.36.04.09.07.18.11.28.29-.46.58-.92.83-1.4.06-.12-.01-.29-.16-.28-.4.01-.8-.03-1.2-.02.06.08.12.16.18.24.2-.62.46-1.21.81-1.76.09-.15-.06-.31-.21-.28-.58.12-1.15.25-1.73.37.06.1.12.21.18.31.29-.34.58-.69.87-1.04.13-.16-.03-.39-.23-.29-.15.08-.3.15-.46.2-.08.03-.18.03-.25.08-.15.09-.27.3-.39.43-.28.31-.56.61-.86.9-.61.6-1.27,1.16-1.98,1.65-1.52,1.05-3.24,1.73-5.05,2.07-.24.04-.14.41.1.36,1.83-.34,3.57-1.03,5.11-2.08.7-.48,1.36-1.02,1.97-1.61.3-.29.59-.59.87-.89.13-.15.26-.34.41-.47.1-.08.27-.11.39-.16.12-.05.23-.1.34-.16-.08-.1-.15-.2-.23-.29-.29.35-.58.7-.87,1.04-.12.14-.01.35.18.31.58-.12,1.15-.25,1.73-.37-.07-.09-.14-.18-.21-.28-.37.58-.64,1.2-.85,1.84-.04.11.06.24.18.24.4-.01.8.03,1.2.02-.05-.09-.11-.19-.16-.28-.25.48-.54.94-.83,1.4-.06.1,0,.25.11.28.54.12,1.09.24,1.63.36-.03-.1-.06-.21-.08-.31-.31.33-.63.67-.95.99-.08.08-.06.19,0,.27.17.21.36.4.58.56.01-.11.03-.23.04-.34-.6.13-1.21.27-1.81.41-.13.03-.19.22-.08.31.33.29.61.62.85.98.04-.09.07-.18.11-.28-.65.14-1.31.27-1.96.4-.13.03-.19.22-.08.31.4.34.77.71,1.11,1.11.06-.1.12-.21.18-.31-.39-.08-.76-.04-1.08.21-.11.09-.13.24,0,.32.4.27.69.67.84,1.13.06-.08.12-.16.18-.24-.44.02-.89.04-1.33.06-.13.01-.25.16-.16.28s.18.25.27.37c.09-.09.17-.17.26-.26-1.32-.93-2.73-1.71-4.11-2.53-1.3-.77-2.6-1.57-3.66-2.66-.19-.16-.45.1-.28.28Z"/>
      </g>
      <g>
        <path d="m11.13,7.24c-.11-.16-.2-.34-.19-.53.01-.14.07-.27.17-.36.21-.21.56-.29.85-.23s.55.28.65.57c.1.28.05.59-.21.77-.19.13-.44.21-.67.16-.25-.05-.45-.21-.61-.4-.11-.12-.28.06-.18.18.18.2.4.38.66.45.27.07.54.02.79-.09.38-.18.58-.57.51-.98-.07-.38-.36-.72-.72-.85-.36-.14-.82-.06-1.13.17-.17.13-.31.31-.34.53-.04.27.06.53.22.75.07.12.29-.01.2-.14Z"/>
        <path d="m27.12,4.06c-.11-.16-.2-.34-.19-.53.01-.14.07-.27.17-.36.21-.21.56-.29.85-.23s.55.28.65.57c.1.28.05.59-.21.77-.19.13-.44.21-.67.16-.25-.05-.45-.21-.61-.4-.11-.12-.28.06-.18.18.18.2.4.38.66.45.27.07.54.02.79-.09.38-.18.58-.57.51-.98-.07-.38-.36-.72-.72-.85-.36-.14-.82-.06-1.13.17-.17.13-.31.31-.34.53-.04.27.06.53.22.75.07.12.29-.01.2-.14Z"/>
        <path d="m41.98,22.32c-.14-.2-.26-.43-.25-.68.01-.18.09-.35.22-.48.27-.27.72-.37,1.09-.3.38.08.7.36.83.72.13.36.05.76-.27.99-.24.17-.57.26-.86.21-.32-.06-.57-.27-.78-.5-.11-.12-.28.06-.18.18.22.25.49.46.81.55.32.08.66.02.96-.12.46-.22.71-.69.61-1.19-.09-.47-.44-.87-.88-1.04-.45-.16-1.01-.07-1.39.21-.21.16-.37.38-.41.65-.05.33.08.65.27.91.1.15.32.02.23-.11Z"/>
        <path d="m38.99,24.08c-.14-.2-.26-.43-.25-.68.01-.18.09-.35.22-.48.27-.27.72-.37,1.09-.3.38.08.7.36.83.72.13.36.05.76-.27.99-.24.17-.57.26-.86.21-.32-.06-.57-.27-.78-.5-.11-.12-.28.06-.18.18.22.25.49.46.81.55.32.08.66.02.96-.12.46-.22.71-.69.61-1.19-.09-.47-.44-.87-.88-1.04-.45-.16-1.01-.07-1.39.21-.21.16-.37.38-.41.65-.05.33.08.65.27.91.11.14.32.02.23-.11Z"/>
        <path d="m26.2,9.04c-.14-.2-.26-.43-.25-.68.01-.18.09-.35.22-.48.27-.27.72-.37,1.09-.3.38.08.7.36.83.72.13.36.05.76-.27.99-.24.17-.57.26-.86.21-.32-.06-.57-.27-.78-.5-.11-.12-.28.06-.18.18.22.25.49.46.81.55.32.08.66.02.96-.12.46-.22.71-.69.61-1.19-.09-.47-.44-.87-.88-1.04-.45-.16-1.01-.07-1.39.21-.21.16-.37.38-.41.65-.05.33.08.65.27.91.11.15.32.02.23-.11Z"/>
        <path d="m40.03,30.05c-.14-.2-.26-.43-.25-.68.01-.18.09-.35.22-.48.27-.27.72-.37,1.09-.3.38.08.7.36.83.72.13.36.05.76-.27.99-.24.17-.57.26-.86.21-.32-.06-.57-.27-.78-.5-.11-.12-.28.06-.18.18.22.25.49.46.81.55.32.08.66.02.96-.12.46-.22.71-.69.61-1.19-.09-.47-.44-.87-.88-1.04-.45-.16-1.01-.07-1.39.21-.21.16-.37.38-.41.65-.05.33.08.65.27.91.1.15.32.02.23-.11Z"/>
        <path d="m42.5,26.54c-.14-.2-.26-.43-.25-.68.01-.18.09-.35.22-.48.27-.27.72-.37,1.09-.3.38.08.7.36.83.72.13.36.05.76-.27.99-.24.17-.57.26-.86.21-.32-.06-.57-.27-.78-.5-.11-.12-.28.06-.18.18.22.25.49.46.81.55.32.08.66.02.96-.12.46-.22.71-.69.61-1.19-.09-.47-.44-.87-.88-1.04-.45-.16-1.01-.07-1.39.21-.21.16-.37.38-.41.65-.05.33.08.65.27.91.1.15.32.03.23-.11Z"/>
        <path d="m36.85,30.96c-.14-.2-.26-.43-.25-.68.01-.18.09-.35.22-.48.27-.27.72-.37,1.09-.3.38.08.7.36.83.72.13.36.05.76-.27.99-.24.17-.57.26-.86.21-.32-.06-.57-.27-.78-.5-.11-.12-.28.06-.18.18.22.25.49.46.81.55.32.08.66.02.96-.12.46-.22.71-.69.61-1.19-.09-.47-.44-.87-.88-1.04-.45-.16-1.01-.07-1.39.21-.21.16-.37.38-.41.65-.05.33.08.65.27.91.1.15.32.02.23-.11Z"/>
        <path d="m33.25,12.7c-.11-.16-.2-.34-.19-.53.01-.14.07-.27.17-.36.21-.21.56-.29.85-.23s.55.28.65.57c.1.28.05.59-.21.77-.19.13-.44.21-.67.16-.25-.05-.45-.21-.61-.4-.11-.12-.28.06-.18.18.18.2.4.38.66.45.27.07.54.02.79-.09.38-.18.58-.57.51-.98-.07-.38-.36-.72-.72-.85-.36-.14-.82-.06-1.13.17-.17.13-.31.31-.34.53-.04.27.06.53.22.75.07.12.29-.01.2-.14Z"/>
        <path d="m23.31,5c-.11-.16-.2-.34-.19-.53.01-.14.07-.27.17-.36.21-.21.56-.29.85-.23s.55.28.65.57c.1.28.05.59-.21.77-.19.13-.44.21-.67.16-.25-.05-.45-.21-.61-.4-.11-.12-.28.06-.18.18.18.2.4.38.66.45.26.07.54.02.79-.09.38-.18.58-.57.51-.98-.07-.38-.36-.72-.72-.85-.36-.14-.82-.06-1.13.17-.17.13-.31.31-.34.53-.04.27.06.53.22.75.07.12.29-.01.2-.14Z"/>
        <path d="m31.64,6.34c-.11-.16-.2-.34-.19-.53.01-.14.07-.27.17-.36.21-.21.56-.29.85-.23s.55.28.65.57c.1.28.05.59-.21.77-.19.13-.44.21-.67.16-.25-.05-.45-.21-.61-.4-.11-.12-.28.06-.18.18.18.2.4.38.66.45.27.07.54.02.79-.09.38-.18.58-.57.51-.98-.07-.38-.36-.72-.72-.85-.36-.14-.82-.06-1.13.17-.17.13-.31.31-.34.53-.04.27.06.53.22.75.07.11.29-.01.2-.14Z"/>
        <path d="m28.42,38.77c-.11-.16-.2-.34-.19-.53.01-.14.07-.27.17-.36.21-.21.56-.29.85-.23s.55.28.65.57c.1.28.05.59-.21.77-.19.13-.44.21-.67.16-.25-.05-.45-.21-.61-.4-.11-.12-.28.06-.18.18.18.2.4.38.66.45.27.07.54.02.79-.09.38-.18.58-.57.51-.98-.07-.38-.36-.72-.72-.85-.36-.14-.82-.06-1.13.17-.17.13-.31.31-.34.53-.04.27.06.53.22.75.07.12.29,0,.2-.14Z"/>
        <path d="m7.31,33.12c-.11-.16-.2-.34-.19-.53.01-.14.07-.27.17-.36.21-.21.56-.29.85-.23s.55.28.65.57c.1.28.05.59-.21.77-.19.13-.44.21-.67.16-.25-.05-.45-.21-.61-.4-.11-.12-.28.06-.18.18.18.2.4.38.66.45.27.07.54.02.79-.09.38-.18.58-.57.51-.98-.07-.38-.36-.72-.72-.85-.36-.14-.82-.06-1.13.17-.17.13-.31.31-.34.53-.04.27.06.53.22.75.07.12.29,0,.2-.14Z"/>
        <path d="m5.49,29.16c-.11-.16-.2-.34-.19-.53.01-.14.07-.27.17-.36.21-.21.56-.29.85-.23s.55.28.65.57c.1.28.05.59-.21.77-.19.13-.44.21-.67.16-.25-.05-.45-.21-.61-.4-.11-.12-.28.06-.18.18.18.2.4.38.66.45.27.07.54.02.79-.09.38-.18.58-.57.51-.98-.07-.38-.36-.72-.72-.85-.36-.14-.82-.06-1.13.17-.17.13-.31.31-.34.53-.04.27.06.53.22.75.08.12.29-.01.2-.14Z"/>
        <path d="m31.01,40.27c-.11-.16-.2-.34-.19-.53.01-.14.07-.27.17-.36.21-.21.56-.29.85-.23s.55.28.65.57c.1.28.05.59-.21.77-.19.13-.44.21-.67.16-.25-.05-.45-.21-.61-.4-.11-.12-.28.06-.18.18.18.2.4.38.66.45.27.07.54.02.79-.09.38-.18.58-.57.51-.98-.07-.38-.36-.72-.72-.85-.36-.14-.82-.06-1.13.17-.17.13-.31.31-.34.53-.04.27.06.53.22.75.08.11.3-.01.2-.14Z"/>
        <path d="m24.78,41.76c-.11-.16-.2-.34-.19-.53.01-.14.07-.27.17-.36.21-.21.56-.29.85-.23s.55.28.65.57c.1.28.05.59-.21.77-.19.13-.44.21-.67.16-.25-.05-.45-.21-.61-.4-.11-.12-.28.06-.18.18.18.2.4.38.66.45.27.07.54.02.79-.09.38-.18.58-.57.51-.98-.07-.38-.36-.72-.72-.85-.36-.14-.82-.06-1.13.17-.17.13-.31.31-.34.53-.04.27.06.53.22.75.07.12.29-.01.2-.14Z"/>
        <path d="m14.28,6.69c-.04-.06-.07-.11-.09-.18,0-.01-.01-.03-.01-.04s-.01-.04-.01-.03,0-.02,0-.03v-.04s0,.01,0-.01c0-.01.01-.02.01-.04,0-.01.01-.02.01-.03s0,.01,0,.01c0-.01.01-.02.01-.02.01-.01.01-.02.02-.03,0-.01.02-.03.01-.02s.01-.01.02-.02c.01-.01.02-.02.03-.03,0,0,.03-.02.02-.02-.01.01.02-.01.02-.01.02-.01.05-.03.07-.04.01-.01.02-.01.03-.02-.02.01.01,0,.02-.01.03-.01.05-.02.08-.02.01,0,.03-.01.04-.01s.04-.01.02,0c.03,0,.06,0,.08-.01h.08s-.01,0,.02,0c.01,0,.03.01.04.01.02.01.05.01.07.02.02.01-.01-.01.02.01.01.01.03.01.04.02.02.01.04.03.06.04.01.01,0,0,0,0,.01,0,.01.01.02.01.01.01.02.02.03.03.02.02.04.04.05.06-.01-.02,0,0,.01.01s.02.03.03.04c.01.02.02.04.03.06,0,.01.01.01.01.02,0,0-.01-.02,0,0,0,.01.01.03.01.04.01.02.01.05.02.07,0,.01,0,.03,0,.01v.11s0,0,0,.01-.01.03-.01.04-.01.02-.01.03c-.01.02.01-.01-.01.01-.01.02-.03.05-.04.07.02-.02-.01.01-.01.01-.01.01-.02.02-.03.03-.03.03-.02.02-.06.04-.07.04-.12.06-.21.08-.06.01-.14.01-.2,0-.15-.03-.26-.14-.37-.26-.04-.05-.13-.04-.18,0-.05.05-.04.12,0,.18.11.14.26.26.43.31.17.06.36.03.52-.03.14-.06.27-.15.34-.29.07-.12.08-.26.06-.4-.04-.27-.24-.5-.49-.6-.24-.09-.55-.05-.76.09-.12.09-.22.21-.25.36-.03.19.03.37.13.53.04.06.11.08.17.04.07-.02.1-.1.06-.16Z"/>
        <path d="m21.67,6.97c-.04-.06-.07-.11-.09-.18,0-.01-.01-.03-.01-.04s-.01-.04-.01-.03,0-.02,0-.03v-.04s0,.01,0-.01c0-.01.01-.02.01-.04,0-.01.01-.02.01-.03s0,.01,0,.01c0-.01.01-.02.01-.02.01-.01.01-.02.02-.03,0-.01.02-.03.01-.02s.01-.01.02-.02c.01-.01.02-.02.03-.03,0,0,.03-.02.02-.02-.01.01.02-.01.02-.01.02-.01.05-.03.07-.04.01-.01.02-.01.03-.02-.02.01.01,0,.02-.01.03-.01.05-.02.08-.02.01,0,.03-.01.04-.01s.04-.01.02,0c.03,0,.06,0,.08-.01h.08s-.01,0,.02,0c.01,0,.03.01.04.01.02.01.05.01.07.02.02.01-.01-.01.02.01.01.01.03.01.04.02.02.01.04.03.06.04.01.01,0,0,0,0,.01,0,.01.01.02.01.01.01.02.02.03.03.02.02.04.04.05.06-.01-.02,0,0,.01.01s.02.03.03.04c.01.02.02.04.03.06,0,.01.01.01.01.02,0,0-.01-.02,0,0,0,.01.01.03.01.04.01.02.01.05.02.07,0,.01,0,.03,0,.01v.11s0,0,0,.01c0,.02-.01.03-.01.04s-.01.02-.01.03c-.01.02.01-.01-.01.01-.01.02-.03.05-.04.07.02-.02-.01.01-.01.01-.01.01-.02.02-.03.03-.03.03-.02.02-.06.04-.07.04-.12.06-.21.08-.06.01-.14.01-.2,0-.15-.03-.26-.14-.37-.26-.04-.05-.13-.04-.18,0-.05.05-.04.12,0,.18.11.14.26.26.43.31.17.06.36.03.52-.03.14-.06.27-.15.34-.29.07-.12.08-.26.06-.4-.04-.27-.24-.5-.49-.6-.24-.09-.55-.05-.76.09-.12.09-.22.21-.25.36-.03.19.03.37.13.53.04.06.11.08.17.04.07-.02.09-.1.06-.16Z"/>
        <path d="m20.06,3.08c-.04-.06-.07-.11-.09-.18,0-.01-.01-.03-.01-.04s-.01-.04-.01-.03,0-.02,0-.03v-.04s0,.01,0-.01c0-.01.01-.02.01-.04,0-.01.01-.02.01-.03s0,.01,0,.01c0-.01.01-.02.01-.02.01-.01.01-.02.02-.03,0-.01.02-.03.01-.02s.01-.01.02-.02c.01-.01.02-.02.03-.03,0,0,.03-.02.02-.02-.01.01.02-.01.02-.01.02-.01.05-.03.07-.04.01-.01.02-.01.03-.02-.02.01.01,0,.02-.01.03-.01.05-.02.08-.02.01,0,.03-.01.04-.01s.04-.01.02,0c.03,0,.06,0,.08-.01h.08s-.01,0,.02,0c.01,0,.03.01.04.01.02.01.05.01.07.02.02.01-.01-.01.02.01.01.01.03.01.04.02.02.01.04.03.06.04.01.01,0,0,0,0,.01,0,.01.01.02.01.01.01.02.02.03.03.02.02.04.04.05.06-.01-.02,0,0,.01.01s.02.03.03.04c.01.02.02.04.03.06,0,.01.01.01.01.02,0,0-.01-.02,0,0,0,.01.01.03.01.04.01.02.01.05.02.07,0,.01,0,.03,0,.01v.11s0,0,0,.01c0,.02-.01.03-.01.04s-.01.02-.01.03c-.01.02.01-.01-.01.01-.01.02-.03.05-.04.07.02-.02-.01.01-.01.01-.01.01-.02.02-.03.03-.03.03-.02.02-.06.04-.07.04-.12.06-.21.08-.06.01-.14.01-.2,0-.15-.03-.26-.14-.37-.26-.04-.05-.13-.04-.18,0-.05.05-.04.12,0,.18.11.14.26.26.43.31.17.06.36.03.52-.03.14-.06.27-.15.34-.29.07-.12.08-.26.06-.4-.04-.27-.24-.5-.49-.6-.24-.09-.55-.05-.76.09-.12.09-.22.21-.25.36-.03.19.03.37.13.53.04.06.11.08.17.04.07-.02.09-.1.06-.16Z"/>
        <path d="m34.59,8.66c-.04-.06-.07-.11-.09-.18,0-.01-.01-.03-.01-.04s-.01-.04-.01-.03,0-.02,0-.03v-.04s0,.01,0-.01c0-.01.01-.02.01-.04,0-.01.01-.02.01-.03s0,.01,0,.01c0-.01.01-.02.01-.02.01-.01.01-.02.02-.03,0-.01.02-.03.01-.02s.01-.01.02-.02c.01-.01.02-.02.03-.03,0,0,.03-.02.02-.02-.01.01.02-.01.02-.01.02-.01.05-.03.07-.04.01-.01.02-.01.03-.02-.02.01.01,0,.02-.01.03-.01.05-.02.08-.02.01,0,.03-.01.04-.01s.04-.01.02,0c.03,0,.06,0,.08-.01h.08s-.01,0,.02,0c.01,0,.03.01.04.01.02.01.05.01.07.02.02.01-.01-.01.02.01.01.01.03.01.04.02.02.01.04.03.06.04.01.01,0,0,0,0,.01,0,.01.01.02.01.01.01.02.02.03.03.02.02.04.04.05.06-.01-.02,0,0,.01.01s.02.03.03.04c.01.02.02.04.03.06,0,.01.01.01.01.02,0,0-.01-.02,0,0,0,.01.01.03.01.04.01.02.01.05.02.07,0,.01,0,.03,0,.01v.11s0,0,0,.01-.01.03-.01.04-.01.02-.01.03c-.01.02.01-.01-.01.01-.01.02-.03.05-.04.07.02-.02-.01.01-.01.01-.01.01-.02.02-.03.03-.03.03-.02.02-.06.04-.07.04-.12.06-.21.08-.06.01-.14.01-.2,0-.15-.03-.26-.14-.37-.26-.04-.05-.13-.04-.18,0-.05.05-.04.12,0,.18.11.14.26.26.43.31s.36.03.52-.03c.14-.06.27-.15.34-.29.07-.12.08-.26.06-.4-.04-.27-.24-.5-.49-.6-.24-.09-.55-.05-.76.09-.12.09-.22.21-.25.36-.03.19.03.37.13.53.04.06.11.08.17.04.08-.02.1-.1.06-.16Z"/>
        <path d="m30.63,9.37c-.04-.06-.07-.11-.09-.18,0-.01-.01-.03-.01-.04s-.01-.04-.01-.03,0-.02,0-.03v-.04s0,.01,0-.01c0-.01.01-.02.01-.04,0-.01.01-.02.01-.03s0,.01,0,.01c0-.01.01-.02.01-.02.01-.01.01-.02.02-.03,0-.01.02-.03.01-.02s.01-.01.02-.02c.01-.01.02-.02.03-.03.01,0,.03-.02.02-.02-.01.01.02-.01.02-.01.02-.01.05-.03.07-.04.01-.01.02-.01.03-.02-.02.01.01,0,.02-.01.03-.01.05-.02.08-.02.01,0,.03-.01.04-.01s.04-.01.02,0c.03,0,.06,0,.08-.01h.08s-.01,0,.02,0c.01,0,.03.01.04.01.02.01.05.01.07.02.02.01-.01-.01.02.01.01.01.03.01.04.02.02.01.04.03.06.04.01.01,0,0,0,0,.01,0,.01.01.02.01.01.01.02.02.03.03.02.02.04.04.05.06-.01-.02,0,0,.01.01s.02.03.03.04c.01.02.02.04.03.06,0,.01.01.01.01.02,0,0-.01-.02,0,0,0,.01.01.03.01.04.01.02.01.05.02.07,0,.01,0,.03,0,.01v.11s0,0,0,.01-.01.03-.01.04-.01.02-.01.03c-.01.02.01-.01-.01.01-.01.02-.03.05-.04.07.02-.02-.01.01-.01.01-.01.01-.02.02-.03.03-.03.03-.02.02-.06.04-.07.04-.12.06-.21.08-.06.01-.14.01-.2,0-.15-.03-.26-.14-.37-.26-.04-.05-.13-.04-.18,0-.05.05-.04.12,0,.18.11.14.26.26.43.31.17.06.36.03.52-.03.14-.06.27-.15.34-.29.07-.12.08-.26.06-.4-.04-.27-.24-.5-.49-.6-.24-.09-.55-.05-.76.09-.12.09-.22.21-.25.36-.03.19.03.37.13.53.04.06.11.08.17.04.07-.03.09-.11.06-.16Z"/>
        <path d="m38.74,26.77c-.04-.06-.07-.11-.09-.18,0-.01-.01-.03-.01-.04s-.01-.04-.01-.03,0-.02,0-.03v-.04s0,.01,0-.01c0-.01.01-.02.01-.04,0-.01.01-.02.01-.03s0,.01,0,.01c0-.01.01-.02.01-.02.01-.01.01-.02.02-.03,0-.01.02-.03.01-.02s.01-.01.02-.02c.01-.01.02-.02.03-.03,0,0,.03-.02.02-.02-.01.01.02-.01.02-.01.02-.01.05-.03.07-.04.01-.01.02-.01.03-.02-.02.01.01,0,.02-.01.03-.01.05-.02.08-.02.01,0,.03-.01.04-.01s.04-.01.02,0c.03,0,.06,0,.08-.01h.08s-.01,0,.02,0c.01,0,.03.01.04.01.02.01.05.01.07.02.02.01-.01-.01.02.01.01.01.03.01.04.02.02.01.04.03.06.04.01.01,0,0,0,0,.01,0,.01.01.02.01.01.01.02.02.03.03.02.02.04.04.05.06-.01-.02,0,0,.01.01s.02.03.03.04c.01.02.02.04.03.06,0,.01.01.01.01.02,0,0-.01-.02,0,0,0,.01.01.03.01.04.01.02.01.05.02.07,0,.01,0,.03,0,.01v.11s0,0,0,.01-.01.03-.01.04-.01.02-.01.03c-.01.02.01-.01-.01.01-.01.02-.03.05-.04.07.02-.02-.01.01-.01.01-.01.01-.02.02-.03.03-.03.03-.02.02-.06.04-.07.04-.12.06-.21.08-.06.01-.14.01-.2,0-.15-.03-.26-.14-.37-.26-.04-.05-.13-.04-.18,0-.05.05-.04.12,0,.18.11.14.26.26.43.31.17.06.36.03.52-.03.14-.06.27-.15.34-.29.07-.12.08-.26.06-.4-.04-.27-.24-.5-.49-.6-.24-.09-.55-.05-.76.09-.12.09-.22.21-.25.36-.03.19.03.37.13.53.04.06.11.08.17.04.08-.02.1-.1.06-.16Z"/>
        <path d="m2.74,29.21c-.04-.06-.07-.11-.09-.18,0-.01-.01-.03-.01-.04s-.01-.04-.01-.03,0-.02,0-.03v-.04s0,.01,0-.01c0-.01.01-.02.01-.04,0-.01.01-.02.01-.03s0,.01,0,.01c0-.01.01-.02.01-.02.01-.01.01-.02.02-.03,0-.01.02-.03.01-.02-.01.01.01-.01.02-.02l.03-.03s.03-.02.02-.02c-.01.01.02-.01.02-.01.02-.01.05-.03.07-.04.01-.01.02-.01.03-.02-.02.01.01,0,.02-.01.03-.01.05-.02.08-.02.01,0,.03-.01.04-.01s.04-.01.02,0c.03,0,.06,0,.08-.01h.08s-.01,0,.02,0c.01,0,.03.01.04.01.02.01.05.01.07.02.02.01-.01-.01.02.01.01.01.03.01.04.02.02.01.04.03.06.04.01.01,0,0,0,0,.01,0,.01.01.02.01l.03.03s.04.04.05.06c-.01-.02,0,0,.01.01s.02.03.03.04c.01.02.02.04.03.06,0,.01.01.01.01.02,0,0-.01-.02,0,0,0,.01.01.03.01.04.01.02.01.05.02.07,0,.01,0,.03,0,.01v.11s0,0,0,.01-.01.03-.01.04-.01.02-.01.03c-.01.02.01-.01-.01.01-.01.02-.03.05-.04.07.02-.02-.01.01-.01.01l-.03.03s-.02.02-.06.04c-.07.04-.12.06-.21.08-.06.01-.14.01-.2,0-.15-.03-.26-.14-.37-.26-.04-.05-.13-.04-.18,0-.05.05-.04.12,0,.18.11.14.26.26.43.31.17.06.36.03.52-.03.14-.06.27-.15.34-.29.07-.12.08-.26.06-.4-.04-.27-.24-.5-.49-.6-.24-.09-.55-.05-.76.09-.12.09-.22.21-.25.36-.03.19.03.37.13.53.04.06.11.08.17.04.07-.03.09-.11.06-.16Z"/>
        <path d="m38.29,21.12c-.04-.06-.07-.11-.09-.18,0-.01-.01-.03-.01-.04s-.01-.04-.01-.03,0-.02,0-.03v-.04s0,.01,0-.01c0-.01.01-.02.01-.04,0-.01.01-.02.01-.03s0,.01,0,.01c0-.01.01-.02.01-.02.01-.01.01-.02.02-.03,0-.01.02-.03.01-.02s.01-.01.02-.02c.01-.01.02-.02.03-.03.01,0,.03-.02.02-.02-.01.01.02-.01.02-.01.02-.01.05-.03.07-.04.01-.01.02-.01.03-.02-.02.01.01,0,.02-.01.03-.01.05-.02.08-.02.01,0,.03-.01.04-.01s.04-.01.02,0c.03,0,.06,0,.08-.01h.08s-.01,0,.02,0c.01,0,.03.01.04.01.02.01.05.01.07.02.02.01-.01-.01.02.01.01.01.03.01.04.02.02.01.04.03.06.04.01.01,0,0,0,0,.01,0,.01.01.02.01.01.01.02.02.03.03.02.02.04.04.05.06-.01-.02,0,0,.01.01s.02.03.03.04c.01.02.02.04.03.06,0,.01.01.01.01.02,0,0-.01-.02,0,0,0,.01.01.03.01.04.01.02.01.05.02.07,0,.01,0,.03,0,.01v.11s0,0,0,.01c0,.02-.01.03-.01.04s-.01.02-.01.03c-.01.02.01-.01-.01.01-.01.02-.03.05-.04.07.02-.02-.01.01-.01.01-.01.01-.02.02-.03.03-.03.03-.02.02-.06.04-.07.04-.12.06-.21.08-.06.01-.14.01-.2,0-.15-.03-.26-.14-.37-.26-.04-.05-.13-.04-.18,0-.05.05-.04.12,0,.18.11.14.26.26.43.31.17.06.36.03.52-.03.14-.06.27-.15.34-.29.07-.12.08-.26.06-.4-.04-.27-.24-.5-.49-.6-.24-.09-.55-.05-.76.09-.12.09-.22.21-.25.36-.03.19.03.37.13.53.04.06.11.08.17.04.07-.02.1-.1.06-.16Z"/>
        <path d="m38.23,32.88c-.04-.06-.07-.11-.09-.18,0-.01-.01-.03-.01-.04s-.01-.04-.01-.03,0-.02,0-.03v-.04s0,.01,0-.01c0-.01.01-.02.01-.04,0-.01.01-.02.01-.03s0,.01,0,.01c0-.01.01-.02.01-.02.01-.01.01-.02.02-.03,0-.01.02-.03.01-.02s.01-.01.02-.02c.01-.01.02-.02.03-.03,0,0,.03-.02.02-.02-.01.01.02-.01.02-.01.02-.01.05-.03.07-.04.01-.01.02-.01.03-.02-.02.01.01,0,.02-.01.03-.01.05-.02.08-.02.01,0,.03-.01.04-.01s.04-.01.02,0c.03,0,.06,0,.08-.01h.08s-.01,0,.02,0c.01,0,.03.01.04.01.02.01.05.01.07.02.02.01-.01-.01.02.01.01.01.03.01.04.02.02.01.04.03.06.04.01.01,0,0,0,0,.01,0,.01.01.02.01.01.01.02.02.03.03.02.02.04.04.05.06-.01-.02,0,0,.01.01s.02.03.03.04c.01.02.02.04.03.06,0,.01.01.01.01.02,0,0-.01-.02,0,0,0,.01.01.03.01.04.01.02.01.05.02.07,0,.01,0,.03,0,.01v.11s0,0,0,.01-.01.03-.01.04-.01.02-.01.03c-.01.02.01-.01-.01.01-.01.02-.03.05-.04.07.02-.02-.01.01-.01.01-.01.01-.02.02-.03.03-.03.03-.02.02-.06.04-.07.04-.12.06-.21.08-.06.01-.14.01-.2,0-.15-.03-.26-.14-.37-.26-.04-.05-.13-.04-.18,0-.05.05-.04.12,0,.18.11.14.26.26.43.31s.36.03.52-.03c.14-.06.27-.15.34-.29.07-.12.08-.26.06-.4-.04-.27-.24-.5-.49-.6-.24-.09-.55-.05-.76.09-.12.09-.22.21-.25.36-.03.19.03.37.13.53.04.06.11.08.17.04.07-.03.09-.11.06-.16Z"/>
        <path d="m41.08,18.65c-.04-.06-.07-.11-.09-.18,0-.01-.01-.03-.01-.04s-.01-.04-.01-.03,0-.02,0-.03v-.04s0,.01,0-.01c0-.01.01-.02.01-.04,0-.01.01-.02.01-.03s0,.01,0,.01c0-.01.01-.02.01-.02.01-.01.01-.02.02-.03,0-.01.02-.03.01-.02s.01-.01.02-.02c.01-.01.02-.02.03-.03,0,0,.03-.02.02-.02-.01.01.02-.01.02-.01.02-.01.05-.03.07-.04.01-.01.02-.01.03-.02-.02.01.01,0,.02-.01.03-.01.05-.02.08-.02.01,0,.03-.01.04-.01s.04-.01.02,0c.03,0,.06,0,.08-.01h.08s-.01,0,.02,0c.01,0,.03.01.04.01.02.01.05.01.07.02.02.01-.01-.01.02.01.01.01.03.01.04.02.02.01.04.03.06.04.01.01,0,0,0,0,.01,0,.01.01.02.01.01.01.02.02.03.03.02.02.04.04.05.06-.01-.02,0,0,.01.01s.02.03.03.04c.01.02.02.04.03.06,0,.01.01.01.01.02,0,0-.01-.02,0,0,0,.01.01.03.01.04.01.02.01.05.02.07,0,.01,0,.03,0,.01v.11s0,0,0,.01c0,.02-.01.03-.01.04s-.01.02-.01.03c-.01.02.01-.01-.01.01-.01.02-.03.05-.04.07.02-.02-.01.01-.01.01-.01.01-.02.02-.03.03-.03.03-.02.02-.06.04-.07.04-.12.06-.21.08-.06.01-.14.01-.2,0-.15-.03-.26-.14-.37-.26-.04-.05-.13-.04-.18,0-.05.05-.04.12,0,.18.11.14.26.26.43.31.17.06.36.03.52-.03.14-.06.27-.15.34-.29.07-.12.08-.26.06-.4-.04-.27-.24-.5-.49-.6-.24-.09-.55-.05-.76.09-.12.09-.22.21-.25.36-.03.19.03.37.13.53.04.06.11.08.17.04.07-.02.1-.1.06-.16Z"/>
        <path d="m11.37,10.19c-.04-.06-.07-.11-.09-.18,0-.01-.01-.03-.01-.04s-.01-.04-.01-.03,0-.02,0-.03v-.04s0,.01,0-.01c0-.01.01-.02.01-.04,0-.01.01-.02.01-.03s0,.01,0,.01c0-.01.01-.02.01-.02.01-.01.01-.02.02-.03,0-.01.02-.03.01-.02s.01-.01.02-.02c.01-.01.02-.02.03-.03,0,0,.03-.02.02-.02-.01.01.02-.01.02-.01.02-.01.05-.03.07-.04.01-.01.02-.01.03-.02-.02.01.01,0,.02-.01.03-.01.05-.02.08-.02.01,0,.03-.01.04-.01s.04-.01.02,0c.03,0,.06,0,.08-.01h.08s-.01,0,.02,0c.01,0,.03.01.04.01.02.01.05.01.07.02.02.01-.01-.01.02.01.01.01.03.01.04.02.02.01.04.03.06.04.01.01,0,0,0,0,.01,0,.01.01.02.01.01.01.02.02.03.03.02.02.04.04.05.06-.01-.02,0,0,.01.01s.02.03.03.04c.01.02.02.04.03.06,0,.01.01.01.01.02,0,0-.01-.02,0,0,0,.01.01.03.01.04.01.02.01.05.02.07,0,.01,0,.03,0,.01v.11s0,0,0,.01-.01.03-.01.04-.01.02-.01.03c-.01.02.01-.01-.01.01-.01.02-.03.05-.04.07.02-.02-.01.01-.01.01-.01.01-.02.02-.03.03-.03.03-.02.02-.06.04-.07.04-.12.06-.21.08-.06.01-.14.01-.2,0-.15-.03-.26-.14-.37-.26-.04-.05-.13-.04-.18,0-.05.05-.04.12,0,.18.11.14.26.26.43.31s.36.03.52-.03c.14-.06.27-.15.34-.29.07-.12.08-.26.06-.4-.04-.27-.24-.5-.49-.6-.24-.09-.55-.05-.76.09-.12.09-.22.21-.25.36-.03.19.03.37.13.53.04.06.11.08.17.04.08-.02.1-.1.06-.16Z"/>
        <path d="m1.16,14.67c-.04-.06-.07-.11-.09-.18,0-.01-.01-.03-.01-.04s-.01-.04-.01-.03,0-.02,0-.03v-.04s0,.01,0-.01c0-.01.01-.02.01-.04,0-.01.01-.02.01-.03s0,.01,0,.01c0-.01.01-.02.01-.02.01-.01.01-.02.02-.03,0-.01.02-.03.01-.02-.01.01.01-.01.02-.02l.03-.03s.03-.02.02-.02c-.01.01.02-.01.02-.01.02-.01.05-.03.07-.04.01-.01.02-.01.03-.02-.02.01.01,0,.02-.01.03-.01.05-.02.08-.02.01,0,.03-.01.04-.01s.04-.01.02,0c.03,0,.06,0,.08-.01h.08s-.01,0,.02,0c.01,0,.03.01.04.01.02.01.05.01.07.02.02.01-.01-.01.02.01.01.01.03.01.04.02.02.01.04.03.06.04.01.01,0,0,0,0,.01,0,.01.01.02.01l.03.03s.04.04.05.06c-.01-.02,0,0,.01.01s.02.03.03.04c.01.02.02.04.03.06,0,.01.01.01.01.02,0,0-.01-.02,0,0,0,.01.01.03.01.04.01.02.01.05.02.07,0,.01,0,.03,0,.01v.11s0,0,0,.01c0,.02-.01.03-.01.04s-.01.02-.01.03c-.01.02.01-.01-.01.01-.01.02-.03.05-.04.07.02-.02-.01.01-.01.01l-.03.03s-.02.02-.06.04c-.07.04-.12.06-.21.08-.06.01-.14.01-.2,0-.15-.03-.26-.14-.37-.26-.04-.05-.13-.04-.18,0-.05.05-.04.12,0,.18.11.14.26.26.43.31.17.06.36.03.52-.03.14-.06.27-.15.34-.29.07-.12.08-.26.06-.4-.04-.27-.24-.5-.49-.6-.24-.09-.55-.05-.76.09-.12.09-.22.21-.25.36-.03.19.03.37.13.53.04.06.11.08.17.04.07-.02.09-.1.06-.16Z"/>
        <path d="m5.05,9.29c-.04-.06-.07-.11-.09-.18,0-.01-.01-.03-.01-.04s-.01-.04-.01-.03,0-.02,0-.03v-.04s0,.01,0-.01c0-.01.01-.02.01-.04,0-.01.01-.02.01-.03s0,.01,0,.01c0-.01.01-.02.01-.02.01-.01.01-.02.02-.03,0-.01.02-.03.01-.02s.01-.01.02-.02c.01-.01.02-.02.03-.03,0,0,.03-.02.02-.02-.01.01.02-.01.02-.01.02-.01.05-.03.07-.04.01-.01.02-.01.03-.02-.02.01.01,0,.02-.01.03-.01.05-.02.08-.02.01,0,.03-.01.04-.01s.04-.01.02,0c.03,0,.06,0,.08-.01h.08s-.01,0,.02,0c.01,0,.03.01.04.01.02.01.05.01.07.02.02.01-.01-.01.02.01.01.01.03.01.04.02.02.01.04.03.06.04.01.01,0,0,0,0,.01,0,.01.01.02.01.01.01.02.02.03.03.02.02.04.04.05.06-.01-.02,0,0,.01.01s.02.03.03.04c.01.02.02.04.03.06,0,.01.01.01.01.02,0,0-.01-.02,0,0,0,.01.01.03.01.04.01.02.01.05.02.07,0,.01,0,.03,0,.01v.11s0,0,0,.01-.01.03-.01.04-.01.02-.01.03c-.01.02.01-.01-.01.01-.01.02-.03.05-.04.07.02-.02-.01.01-.01.01-.01.01-.02.02-.03.03-.03.03-.02.02-.06.04-.07.04-.12.06-.21.08-.06.01-.14.01-.2,0-.15-.03-.26-.14-.37-.26-.04-.05-.13-.04-.18,0-.05.05-.04.12,0,.18.11.14.26.26.43.31.17.06.36.03.52-.03.14-.06.27-.15.34-.29.07-.12.08-.26.06-.4-.04-.27-.24-.5-.49-.6-.24-.09-.55-.05-.76.09-.12.09-.22.21-.25.36-.03.19.03.37.13.53.04.06.11.08.17.04.07-.02.09-.11.06-.16Z"/>
        <path d="m6.38,14.83c-.04-.06-.07-.11-.09-.18,0-.01-.01-.03-.01-.04s-.01-.04-.01-.03,0-.02,0-.03v-.04s0,.01,0-.01c0-.01.01-.02.01-.04,0-.01.01-.02.01-.03s0,.01,0,.01c0-.01.01-.02.01-.02.01-.01.01-.02.02-.03,0-.01.02-.03.01-.02s.01-.01.02-.02c.01-.01.02-.02.03-.03,0,0,.03-.02.02-.02-.01.01.02-.01.02-.01.02-.01.05-.03.07-.04.01-.01.02-.01.03-.02-.02.01.01,0,.02-.01.03-.01.05-.02.08-.02.01,0,.03-.01.04-.01s.04-.01.02,0c.03,0,.06,0,.08-.01h.08s-.01,0,.02,0c.01,0,.03.01.04.01.02.01.05.01.07.02.02.01-.01-.01.02.01.01.01.03.01.04.02.02.01.04.03.06.04.01.01,0,0,0,0,.01,0,.01.01.02.01.01.01.02.02.03.03.02.02.04.04.05.06-.01-.02,0,0,.01.01s.02.03.03.04c.01.02.02.04.03.06,0,.01.01.01.01.02,0,0-.01-.02,0,0,0,.01.01.03.01.04.01.02.01.05.02.07,0,.01,0,.03,0,.01v.11s0,0,0,.01c0,.02-.01.03-.01.04s-.01.02-.01.03c-.01.02.01-.01-.01.01-.01.02-.03.05-.04.07.02-.02-.01.01-.01.01-.01.01-.02.02-.03.03-.03.03-.02.02-.06.04-.07.04-.12.06-.21.08-.06.01-.14.01-.2,0-.15-.03-.26-.14-.37-.26-.04-.05-.13-.04-.18,0-.05.05-.04.12,0,.18.11.14.26.26.43.31.17.06.36.03.52-.03.14-.06.27-.15.34-.29.07-.12.08-.26.06-.4-.04-.27-.24-.5-.49-.6-.24-.09-.55-.05-.76.09-.12.09-.22.21-.25.36-.03.19.03.37.13.53.04.06.11.08.17.04.08-.02.1-.11.06-.16Z"/>
        <path d="m18.33,39.9c-.04-.06-.07-.11-.09-.18,0-.01-.01-.03-.01-.04s-.01-.04-.01-.03,0-.02,0-.03v-.04s0,.01,0-.01c0-.01.01-.02.01-.04,0-.01.01-.02.01-.03s0,.01,0,.01c0-.01.01-.02.01-.02.01-.01.01-.02.02-.03,0-.01.02-.03.01-.02s.01-.01.02-.02c.01-.01.02-.02.03-.03.01,0,.03-.02.02-.02-.01.01.02-.01.02-.01.02-.01.05-.03.07-.04.01-.01.02-.01.03-.02-.02.01.01,0,.02-.01.03-.01.05-.02.08-.02.01,0,.03-.01.04-.01s.04-.01.02,0c.03,0,.06,0,.08-.01h.08s-.01,0,.02,0c.01,0,.03.01.04.01.02.01.05.01.07.02.02.01-.01-.01.02.01.01.01.03.01.04.02.02.01.04.03.06.04.01.01,0,0,0,0,.01,0,.01.01.02.01.01.01.02.02.03.03.02.02.04.04.05.06-.01-.02,0,0,.01.01s.02.03.03.04c.01.02.02.04.03.06,0,.01.01.01.01.02,0,0-.01-.02,0,0,0,.01.01.03.01.04.01.02.01.05.02.07,0,.01,0,.03,0,.01v.11s0,0,0,.01c0,.02-.01.03-.01.04s-.01.02-.01.03c-.01.02.01-.01-.01.01-.01.02-.03.05-.04.07.02-.02-.01.01-.01.01-.01.01-.02.02-.03.03-.03.03-.02.02-.06.04-.07.04-.12.06-.21.08-.06.01-.14.01-.2,0-.15-.03-.26-.14-.37-.26-.04-.05-.13-.04-.18,0-.05.05-.04.12,0,.18.11.14.26.26.43.31.17.06.36.03.52-.03.14-.06.27-.15.34-.29.07-.12.08-.26.06-.4-.04-.27-.24-.5-.49-.6-.24-.09-.55-.05-.76.09-.12.09-.22.21-.25.36-.03.19.03.37.13.53.04.06.11.08.17.04.07-.03.1-.11.06-.16Z"/>
        <path d="m4.95,31.39c-.04-.06-.07-.11-.09-.18,0-.01-.01-.03-.01-.04s-.01-.04-.01-.03,0-.02,0-.03v-.04s0,.01,0-.01c0-.01.01-.02.01-.04,0-.01.01-.02.01-.03s0,.01,0,.01c0-.01.01-.02.01-.02.01-.01.01-.02.02-.03,0-.01.02-.03.01-.02s.01-.01.02-.02c.01-.01.02-.02.03-.03,0,0,.03-.02.02-.02-.01.01.02-.01.02-.01.02-.01.05-.03.07-.04.01-.01.02-.01.03-.02-.02.01.01,0,.02-.01.03-.01.05-.02.08-.02.01,0,.03-.01.04-.01s.04-.01.02,0c.03,0,.06,0,.08-.01h.08s-.01,0,.02,0c.01,0,.03.01.04.01.02.01.05.01.07.02.02.01-.01-.01.02.01.01.01.03.01.04.02.02.01.04.03.06.04.01.01,0,0,0,0,.01,0,.01.01.02.01.01.01.02.02.03.03.02.02.04.04.05.06-.01-.02,0,0,.01.01s.02.03.03.04c.01.02.02.04.03.06,0,.01.01.01.01.02,0,0-.01-.02,0,0,0,.01.01.03.01.04.01.02.01.05.02.07,0,.01,0,.03,0,.01v.11s0,0,0,.01-.01.03-.01.04-.01.02-.01.03c-.01.02.01-.01-.01.01-.01.02-.03.05-.04.07.02-.02-.01.01-.01.01-.01.01-.02.02-.03.03-.03.03-.02.02-.06.04-.07.04-.12.06-.21.08-.06.01-.14.01-.2,0-.15-.03-.26-.14-.37-.26-.04-.05-.13-.04-.18,0-.05.05-.04.12,0,.18.11.14.26.26.43.31s.36.03.52-.03c.14-.06.27-.15.34-.29.07-.12.08-.26.06-.4-.04-.27-.24-.5-.49-.6-.24-.09-.55-.05-.76.09-.12.09-.22.21-.25.36-.03.19.03.37.13.53.04.06.11.08.17.04.08-.02.1-.1.06-.16Z"/>
        <path d="m28.01,41.52c-.04-.06-.07-.11-.09-.18,0-.01-.01-.03-.01-.04s-.01-.04-.01-.03,0-.02,0-.03v-.04s0,.01,0-.01c0-.01.01-.02.01-.04,0-.01.01-.02.01-.03s0,.01,0,.01c0-.01.01-.02.01-.02.01-.01.01-.02.02-.03,0-.01.02-.03.01-.02s.01-.01.02-.02c.01-.01.02-.02.03-.03.01,0,.03-.02.02-.02-.01.01.02-.01.02-.01.02-.01.05-.03.07-.04.01-.01.02-.01.03-.02-.02.01.01,0,.02-.01.03-.01.05-.02.08-.02.01,0,.03-.01.04-.01s.04-.01.02,0c.03,0,.06,0,.08-.01h.08s-.01,0,.02,0c.01,0,.03.01.04.01.02.01.05.01.07.02.02.01-.01-.01.02.01.01.01.03.01.04.02.02.01.04.03.06.04.01.01,0,0,0,0,.01,0,.01.01.02.01.01.01.02.02.03.03.02.02.04.04.05.06-.01-.02,0,0,.01.01s.02.03.03.04c.01.02.02.04.03.06,0,.01.01.01.01.02,0,0-.01-.02,0,0,0,.01.01.03.01.04.01.02.01.05.02.07,0,.01,0,.03,0,.01v.11s0,0,0,.01-.01.03-.01.04-.01.02-.01.03c-.01.02.01-.01-.01.01-.01.02-.03.05-.04.07.02-.02-.01.01-.01.01-.01.01-.02.02-.03.03-.03.03-.02.02-.06.04-.07.04-.12.06-.21.08-.06.01-.14.01-.2,0-.15-.03-.26-.14-.37-.26-.04-.05-.13-.04-.18,0-.05.05-.04.12,0,.18.11.14.26.26.43.31s.36.03.52-.03c.14-.06.27-.15.34-.29.07-.12.08-.26.06-.4-.04-.27-.24-.5-.49-.6-.24-.09-.55-.05-.76.09-.12.09-.22.21-.25.36-.03.19.03.37.13.53.04.06.11.08.17.04.07-.02.1-.1.06-.16Z"/>
        <path d="m3.4,26.39c-.04-.06-.07-.11-.09-.18,0-.01-.01-.03-.01-.04s-.01-.04-.01-.03,0-.02,0-.03v-.04s0,.01,0-.01c0-.01.01-.02.01-.04,0-.01.01-.02.01-.03s0,.01,0,.01c0-.01.01-.02.01-.02.01-.01.01-.02.02-.03,0-.01.02-.03.01-.02-.01.01.01-.01.02-.02l.03-.03s.03-.02.02-.02c-.01.01.02-.01.02-.01.02-.01.05-.03.07-.04.01-.01.02-.01.03-.02-.02.01.01,0,.02-.01.03-.01.05-.02.08-.02.01,0,.03-.01.04-.01s.04-.01.02,0c.03,0,.06,0,.08-.01h.08s-.01,0,.02,0c.01,0,.03.01.04.01.02.01.05.01.07.02.02.01-.01-.01.02.01.01.01.03.01.04.02.02.01.04.03.06.04.01.01,0,0,0,0,.01,0,.01.01.02.01l.03.03s.04.04.05.06c-.01-.02,0,0,.01.01s.02.03.03.04c0,.02.02.04.03.06,0,.01.01.01.01.02,0,0-.01-.02,0,0,0,.01.01.03.01.04.01.02.01.05.02.07,0,.01,0,.03,0,.01v.11s0,0,0,.01c0,.02-.01.03-.01.04s-.01.02-.01.03c-.01.02.01-.01-.01.01-.01.02-.03.05-.04.07.02-.02-.01.01-.01.01l-.03.03s-.02.02-.06.04c-.07.04-.12.06-.21.08-.06.01-.14.01-.2,0-.15-.03-.26-.14-.37-.26-.04-.05-.13-.04-.18,0-.05.05-.04.12,0,.18.11.14.26.26.43.31.17.06.36.03.52-.03.14-.06.27-.15.34-.29.07-.12.08-.26.06-.4-.04-.27-.24-.5-.49-.6-.24-.09-.55-.05-.76.09-.12.09-.22.21-.25.36-.03.19.03.37.13.53.04.06.11.08.17.04.07-.02.09-.11.06-.16Z"/>
        <path d="m7.59,8.32c-.32-.14-.61-.38-.57-.76.04-.3.26-.57.52-.73.33-.2.73-.19,1.05.01.36.22.51.64.3,1.02-.12.22-.32.41-.57.49s-.51.04-.76-.04c-.15-.05-.22.19-.07.24.26.08.54.12.81.06.26-.06.49-.22.66-.43.17-.22.3-.48.27-.77-.02-.24-.14-.46-.32-.63-.35-.33-.89-.44-1.34-.25-.36.15-.68.48-.78.86-.06.21-.04.43.06.63.12.25.36.41.61.52.15.06.27-.16.13-.22Z"/>
        <path d="m3.42,17.54c-.34-.15-.67-.42-.62-.83.04-.33.28-.62.56-.79.35-.21.79-.21,1.14.01.39.24.56.7.33,1.11-.13.24-.35.45-.62.53-.27.08-.56.04-.82-.04-.15-.05-.22.19-.07.24.28.08.58.13.87.06.28-.06.53-.23.71-.46.19-.23.32-.52.29-.82-.02-.26-.15-.49-.34-.67-.38-.36-.95-.47-1.43-.27-.39.16-.73.51-.84.92-.06.22-.04.46.06.67.13.26.39.44.65.55.15.07.28-.14.13-.21Z"/>
        <path d="m8.82,11.62c-.19.03-.41.04-.59-.05-.14-.07-.24-.18-.3-.32-.12-.3-.06-.67.11-.95.19-.31.54-.48.9-.47.36.02.67.25.73.62.04.25-.02.54-.17.75-.16.22-.42.34-.68.42-.15.05-.09.29.07.24.28-.08.55-.21.74-.43.2-.22.29-.51.29-.81.01-.25-.07-.5-.23-.7-.14-.16-.34-.27-.55-.32-.44-.09-.94.07-1.22.42-.26.32-.38.79-.27,1.19.06.22.2.42.39.54.25.15.56.15.84.1.17-.02.1-.26-.06-.23Z"/>
        <path d="m4.97,13.43c-.19.03-.41.04-.59-.05-.14-.07-.24-.18-.3-.32-.12-.3-.06-.67.11-.95.19-.31.54-.48.9-.47.36.02.67.25.73.62.04.25-.02.54-.17.75-.16.22-.42.34-.68.42-.15.05-.09.29.07.24.28-.08.55-.21.74-.43.2-.22.29-.51.29-.81.01-.25-.07-.5-.23-.7-.14-.16-.34-.27-.55-.31-.44-.09-.94.07-1.22.42-.26.32-.38.79-.27,1.19.06.22.2.42.39.54.25.15.56.15.84.1.17-.03.1-.27-.06-.24Z"/>
      </g>
    </g>
  </g>
</svg>