<?xml version="1.0" encoding="UTF-8"?>
<svg id="Layer_2" data-name="Layer 2" xmlns="http://www.w3.org/2000/svg" viewBox="0 0 43.28 40.19">
  <g id="Layer_1-2" data-name="Layer 1">
    <g>
      <path d="m8.62,35.02c-3.12-2.5-5.73-5.7-7.12-9.47C.36,22.47.03,19.04.83,15.83c.74-2.95,2.71-5.76,5.84-6.41,2.07-.43,4.84.26,5.74,2.37.46,1.07.42,2.31.28,3.44-.23,1.88-.77,3.72-1.35,5.52-.18.56-.37,1.12-.56,1.68-.07.2.25.33.34.14,1.47-2.91,4.24-5.19,7.57-5.43,2.82-.21,5.6,1.2,6.66,3.91.75,1.93.59,4.08.07,6.05-.04.17.19.34.31.18,1.67-2.09,4.28-3.59,7.02-3.35,1.12.1,2.22.53,3.04,1.31.9.87,1.37,2.07,1.47,3.31.14,1.71-.29,3.37-1.25,4.79-1.06,1.56-2.6,2.75-4.22,3.69-3.18,1.85-6.86,2.86-10.54,2.79-4.03-.08-7.91-1.47-11.22-3.74-.47-.34-.95-.69-1.41-1.06-.19-.15-.45.11-.27.27,3.36,2.67,7.35,4.48,11.65,4.84,3.83.32,7.69-.53,11.1-2.29,1.74-.9,3.41-2.04,4.67-3.55,1.17-1.41,1.85-3.08,1.9-4.92.03-1.34-.27-2.72-1.09-3.81-.71-.94-1.74-1.58-2.88-1.85-2.68-.65-5.53.54-7.43,2.42-.28.28-.54.57-.79.88.1.06.21.12.31.18.49-1.86.67-3.87.1-5.73-.43-1.43-1.31-2.68-2.54-3.52-2.53-1.73-5.96-1.46-8.52.04-1.75,1.03-3.12,2.6-4.03,4.4.11.05.23.1.34.14.71-2.05,1.38-4.14,1.77-6.29.23-1.29.39-2.68.05-3.97-.6-2.3-3.06-3.43-5.29-3.35-3.06.11-5.49,2.34-6.63,5.07-1.34,3.17-1.29,6.9-.39,10.18,1.07,3.88,3.41,7.29,6.36,9.98.43.39.88.77,1.33,1.13.2.16.46-.1.28-.25Z"/>
      <path d="m36.78,24.06c.23-2.46-.17-4.89-1.16-7.15-.02.09-.04.17-.07.26,1.15-.84,2.59-1.54,4.04-1.24,1.15.24,2.04,1.07,2.58,2.08,1.07,1.99,1.12,5.11-1.15,6.29-1.39.73-3.03.3-4.33-.4-.21-.12-.4.21-.19.32,1.28.7,2.83,1.12,4.26.6,1.15-.42,1.98-1.4,2.32-2.57.69-2.38-.46-5.68-2.91-6.56-1.68-.6-3.45.15-4.81,1.14-.09.07-.11.16-.07.26.96,2.2,1.34,4.57,1.11,6.96-.02.25.36.25.38,0Z"/>
      <path d="m34.99,15.35c-.74-1.66-1.68-3.25-2.99-4.52-1.04-1-2.27-1.73-3.58-2.31-.78-.34-1.57-.65-2.37-.95.04.08.09.15.13.23.36-1.55,1.38-2.87,2.74-3.69,1.4-.84,3.06-1.05,4.63-.64,1.64.43,3.08,1.49,3.97,2.95.93,1.52.99,3.26.58,4.96-.43,1.76-1.73,3.15-3.36,3.9-.22.1-.03.42.19.32,1.45-.67,2.79-1.92,3.33-3.44.61-1.71.67-3.7-.12-5.36-1.53-3.22-5.6-4.86-8.87-3.31-1.7.81-3.03,2.37-3.46,4.21-.02.11.03.19.13.23,1.33.51,2.67,1.01,3.9,1.74,1.28.76,2.37,1.78,3.23,3,.63.9,1.14,1.87,1.59,2.87.1.22.43.03.33-.19Z"/>
      <path d="m24.39,7.31c-3.78.18-7.56,1.05-10.72,3.23.08.01.15.02.23.03-1.24-1.07-2.05-2.65-2.14-4.29-.1-1.8.72-3.48,2.13-4.6,1.29-1.03,2.97-1.44,4.6-1.27.84.08,1.67.32,2.43.68.7.33,1.4.75,1.89,1.37,1.07,1.36,1.49,3.34,1.4,5.04-.01.24.36.24.38,0,.08-1.64-.3-3.45-1.18-4.84-.91-1.45-2.67-2.25-4.31-2.54-1.69-.3-3.48-.03-4.93.91-1.56,1.01-2.63,2.68-2.76,4.55-.13,1.97.76,3.97,2.24,5.25.06.05.16.08.23.03,3.1-2.14,6.81-3,10.53-3.18.22-.01.22-.38-.02-.37Z"/>
      <g>
        <path d="m29.83,19.5c-.72.1-1.31.64-1.48,1.34-.17.7.11,1.49.73,1.89.6.39,1.36.4,1.96.01.31-.2.52-.49.67-.82.15-.33.15-.72.08-1.07-.19-.87-1.06-1.44-1.93-1.35-.16.02-.16.27,0,.25.64-.07,1.32.26,1.59.87.28.6.13,1.34-.37,1.78-.44.39-1.1.51-1.64.25-.57-.27-.95-.87-.89-1.51.07-.73.63-1.3,1.34-1.4.17-.02.1-.26-.06-.24Z"/>
        <g>
          <path d="m21.28,10.89c.66-.08,1.3.26,1.58.86.27.58.14,1.29-.31,1.73s-1.16.57-1.73.29c-.56-.28-.91-.88-.86-1.51.06-.73.65-1.28,1.35-1.38.16-.02.09-.26-.07-.24-.72.1-1.34.65-1.5,1.36-.16.72.15,1.47.76,1.87.61.41,1.44.38,2.03-.06s.86-1.21.65-1.92c-.24-.82-1.06-1.36-1.91-1.26-.15.03-.15.28,0,.26Z"/>
          <path d="m25.59,12.09c.69-.08,1.37.31,1.62.97.22.58.07,1.25-.39,1.67-.44.4-1.1.51-1.65.26-.55-.25-.91-.81-.91-1.41.01-.77.61-1.39,1.36-1.5.16-.02.09-.26-.07-.24-.77.11-1.4.71-1.52,1.49-.1.69.22,1.39.81,1.77.59.38,1.39.37,1.97-.04.59-.41.86-1.15.7-1.85-.2-.87-1.04-1.46-1.92-1.37-.15.02-.16.27,0,.25Z"/>
          <path d="m28.58,15.41c.67-.07,1.33.28,1.6.91.25.57.11,1.26-.32,1.7-.44.44-1.11.56-1.68.32-.57-.25-.94-.84-.92-1.46.03-.74.62-1.36,1.35-1.46.16-.02.09-.26-.07-.24-.74.1-1.37.71-1.5,1.45-.13.71.2,1.45.81,1.83.6.37,1.41.35,1.98-.07.57-.43.85-1.18.67-1.88-.21-.85-1.06-1.42-1.92-1.33-.16,0-.16.25,0,.23Z"/>
        </g>
        <path d="m16.78,11.35c-.73.1-1.37.67-1.51,1.4-.14.75.22,1.58.92,1.92.55.27,1.24.24,1.76-.08.62-.37.95-1.16.79-1.87-.2-.87-1.04-1.47-1.93-1.38-.16.02-.16.27,0,.25.68-.07,1.32.29,1.6.92.27.61.07,1.4-.48,1.79-.41.3-.97.38-1.45.22-.63-.21-1-.84-.99-1.48.01-.76.63-1.35,1.35-1.46.16-.01.1-.26-.06-.23Z"/>
      </g>
      <path d="m25.8,27.19c.49-1.86.67-3.87.11-5.73-.43-1.42-1.31-2.68-2.54-3.52-2.53-1.73-5.96-1.46-8.52.04-1.75,1.02-3.12,2.59-4.03,4.39.11.05.23.1.34.14.79-2.31,1.58-4.68,1.9-7.12.18-1.37.22-2.91-.49-4.15-.66-1.16-1.94-1.86-3.21-2.16-1.62-.38-3.34-.09-4.77.73-2.02,1.15-3.31,3.21-3.96,5.4-.04.14.1.26.23.23,1.91-.39,4.02-.11,5.49,1.26,1.64,1.52,2.04,3.85,1.86,5.99-.16,1.83-.72,3.62-1.44,5.3-.07.15.04.31.21.28,2.45-.47,4.99-.4,7.39.32,2.28.69,4.36,1.96,6.05,3.63,1,.99,1.85,2.11,2.57,3.31.04.07.13.1.21.09,2.5-.57,5.75,0,7.09,2.43.05.09.17.11.26.07,2.15-1.03,4.24-2.42,5.65-4.37,1.24-1.72,1.75-3.9,1.34-6-.3-1.5-1.19-2.83-2.55-3.55s-2.97-.8-4.44-.46c-2,.46-3.77,1.69-5.05,3.28-.15.19.11.45.27.27,1.95-2.44,5.41-4.19,8.53-2.99,3.45,1.33,3.67,5.87,1.98,8.68-1.33,2.21-3.62,3.73-5.91,4.83.09.02.17.04.26.07-1.43-2.58-4.85-3.2-7.52-2.6l.21.09c-1.28-2.15-3.01-4.02-5.12-5.38-2.07-1.33-4.45-2.13-6.9-2.32-1.48-.12-2.96-.01-4.41.27.07.09.14.18.21.28,1.16-2.71,2.03-5.88,1.23-8.81-.55-2-1.97-3.62-3.99-4.21-1.17-.34-2.4-.32-3.59-.08.08.08.15.15.23.23.57-1.92,1.63-3.74,3.31-4.88,1.31-.9,2.94-1.33,4.52-1.07,1.25.2,2.59.8,3.31,1.89.72,1.09.73,2.48.6,3.73-.26,2.54-1.11,5.04-1.93,7.44-.07.2.25.33.34.14,1.47-2.91,4.24-5.18,7.57-5.43,2.82-.21,5.6,1.2,6.66,3.91.75,1.93.59,4.08.07,6.04-.05.21.31.31.37.07Z"/>
    </g>
  </g>
</svg>