<?xml version="1.0" encoding="UTF-8"?>
<svg id="Layer_2" data-name="Layer 2" xmlns="http://www.w3.org/2000/svg" viewBox="0 0 233.36 120.62">
  <g id="Layer_1-2" data-name="Layer 1">
    <g>
      <g>
        <path d="m138.83,44.16c-3.99.3-7.09-2.68-8.61-6.11-.43-.97-.74-1.98-.93-3.02,0-.06-.07-.12-.13-.13-3.14-.83-5.84,2.25-5.8,5.22.09-.05.19-.11.28-.16-1.6-1.17-3.57-1.78-5.55-1.4-1.88.36-3.48,1.57-4.56,3.11-.72,1.02-1.21,2.18-1.51,3.38-.04.16.13.3.28.21.78-.47,1.64-.82,2.56-.89.74-.06,1.47.05,2.19.23,1.34.33,2.64.87,4.04.8-.05-.09-.11-.19-.16-.28-1,1.85-1.86,4.17-1.04,6.25.05.13.21.19.31.08,1.17-1.17,2.59-2,4.2-2.37,1.51-.34,3.09-.28,4.61-.08,3.19.41,6.32,1.4,9.57,1.35,1.82-.03,3.6-.43,5.2-1.31-.09-.07-.18-.14-.28-.21-.21,1.49-.11,2.9.39,4.32.29.81.64,1.6.98,2.39.17.4.37.79.45,1.23.07.38.07.76.04,1.14-.09.92-.46,1.85-1.11,2.52-.07.08-.07.19,0,.27.69.81,1.74,1.4,2.83,1.13.97-.24,1.53-1.11,1.6-2.06-.12.03-.23.06-.35.09.43,1.01,1.23,1.79,1.93,2.61s1.36,1.74,1.23,2.88c0,.13.13.2.24.18,1.6-.33,2.31-2.02,2.39-3.5.1-1.66-.71-3.17-2.09-4.08-.03.12-.06.23-.09.35,2.49.14,4.66-1.62,5.32-3.98.04-.13-.09-.28-.23-.23-1.66.6-3.52.46-5.06-.42-1.53-.88-2.56-2.42-2.7-4.18-.05.06-.09.12-.14.18,5.18-1.36,10.94-1.75,15.75,1,1.44.83,2.72,1.89,3.84,3.12.07.08.19.07.27,0,.94-.91,1.49-2.15,1.45-3.46-.04-1.43-.74-2.76-1.74-3.76-.72-.72-1.58-1.29-2.49-1.73-.03.12-.06.23-.09.35,4.68-.55,9.16-3.78,10.41-8.46.34-1.29.4-2.63.21-3.95-.02-.14-.23-.18-.31-.08-1.27,1.45-2.76,2.7-4.48,3.61-1.73.91-3.64,1.45-5.58,1.62-1.2.1-2.41.07-3.61-.06.05.09.11.19.16.28.86-1.38,1.92-2.61,3.16-3.65.11-.09.04-.28-.08-.31-1.27-.38-2.61-.45-3.9-.13-1.21.31-2.32.93-3.32,1.66-2.2,1.62-3.96,3.75-6,5.56-1.1.98-2.31,1.89-3.69,2.43l.23.23c.94-2.48,2.31-4.84,4.11-6.8,1.71-1.86,3.92-3.4,6.47-3.75,1.51-.21,3.03.04,4.44.59.11.04.25-.07.24-.18-.12-1.27-1.08-2.36-2.35-2.6v.36c1.62-.36,3.25-.42,4.9-.54,1.46-.1,2.84-.44,4.14-1.13,1.1-.59,2.1-1.34,3.05-2.14.12-.1.02-.33-.13-.32-1.55.08-2.95-.43-4.35-1.03-1.4-.6-2.81-1.14-4.36-1.18-1.15-.03-2.28.2-3.37.55.05.11.1.23.14.34,2.76-1.84,5.16-4.23,6.76-7.16,1.27-2.32,2.02-4.96,2-7.62,0-1.28-.2-2.55-.6-3.76-.05-.14-.26-.2-.34-.04-1.41,2.68-3.31,5.35-6.37,6.2-1.88.52-3.92.38-5.65,1.4-1.28.75-2.19,1.97-2.91,3.24.11.05.23.1.34.14.6-1.62.96-3.41.74-5.14-.17-1.33-.75-2.69-2.05-3.26-.12-.05-.3,0-.28.16.28,2.94-2.49,4.77-3.54,7.25-.35.84-.52,1.73-.53,2.65.11-.04.21-.09.32-.13-.75-.85-1.44-1.78-2.46-2.32-.09-.05-.21-.02-.26.07-.65,1.15-1.22,2.38-1.39,3.7-.12.93-.02,1.85-.02,2.78,0,1.38-.28,2.72-.71,4.03-.36,1.08-.81,2.14-1.29,3.17-.4.85-.58,1.71-.63,2.65-.1,2.14.44,4.68-.88,6.55.1,0,.2-.03.29-.04-2.33-2.56-1.4-6.47-.1-9.29.34-.73.73-1.45,1.17-2.13.05-.08.02-.21-.07-.26-1.71-.96-3.62-.59-5.25.35l.26.26c.84-1.71.98-3.6,1.18-5.46.22-2.01.64-3.97,1.99-5.54.1-.11.05-.26-.08-.31-1.25-.5-2.73-.4-4.01-.09-1.54.38-3.03,1.17-4.08,2.39-.64.74-1.08,1.62-1.32,2.57.1-.03.21-.06.31-.08-1.12-1.44-2.71-2.46-4.52-2.78-1.76-.31-3.57.03-5.16.81-.97.48-1.84,1.12-2.61,1.88-.12.12-.03.31.13.32,1.33.07,2.43.64,3.39,1.54.83.78,1.57,1.67,2.56,2.26.62.37,1.29.58,2,.67-.02-.12-.03-.25-.05-.37-1.26.43-2.63.44-3.89.88-.56.19-1.08.48-1.49.92-.51.54-.8,1.23-.98,1.94-.03.12.06.24.18.24,1.82-.03,3.49.52,5.19,1.13,1.54.56,3.1,1,4.75.79-.03-.12-.06-.23-.09-.35-.98.64-2.25,1.38-2.43,2.66-.02.13.05.22.18.24,1.95.18,3.87.79,5.13,2.36.96,1.19,1.43,2.68,2.11,4.04.4.79.87,1.54,1.48,2.18.17.18.43-.09.27-.27-1.13-1.19-1.69-2.72-2.37-4.18-.69-1.46-1.59-2.78-3.04-3.56-1.1-.59-2.33-.84-3.57-.96l.18.24c.17-1.17,1.36-1.84,2.26-2.43.14-.09.1-.37-.09-.35-1.69.21-3.25-.27-4.82-.84-1.67-.6-3.33-1.11-5.12-1.09.06.08.12.16.18.24.17-.68.44-1.35.95-1.85.42-.41.95-.66,1.51-.83,1.19-.35,2.45-.4,3.63-.8.21-.07.16-.34-.05-.37-1.28-.15-2.28-.84-3.18-1.72-.82-.8-1.59-1.68-2.62-2.2-.67-.34-1.4-.51-2.15-.55.04.11.09.21.13.32,2.45-2.43,6.33-3.6,9.51-1.87.89.48,1.64,1.16,2.25,1.95.09.11.28.04.31-.08.77-3.1,3.92-4.91,6.98-4.93.67,0,1.34.07,1.96.32-.03-.1-.06-.21-.08-.31-1.31,1.52-1.81,3.38-2.05,5.33-.24,1.94-.3,3.95-1.18,5.74-.08.16.09.35.26.26,1.52-.87,3.28-1.24,4.87-.35-.02-.09-.04-.17-.07-.26-.87,1.35-1.56,2.83-2.02,4.37-.48,1.61-.72,3.38-.31,5.04.23.92.68,1.76,1.32,2.46.09.1.23.06.29-.04,1.13-1.61.93-3.72.91-5.59,0-.97,0-1.97.29-2.9.18-.55.47-1.07.7-1.6.22-.5.43-1.01.62-1.52.54-1.42.94-2.89,1.02-4.41.05-.94-.06-1.88,0-2.82.08-1.46.68-2.8,1.39-4.06-.09.02-.17.04-.26.07,1,.53,1.66,1.43,2.39,2.26.11.13.32.02.32-.13,0-1.61.63-3.02,1.55-4.32.76-1.08,1.68-2.08,2.19-3.32.29-.72.41-1.49.33-2.26-.09.05-.19.11-.28.16,1.27.55,1.78,1.89,1.9,3.19.15,1.62-.19,3.27-.76,4.79-.07.2.24.33.34.14.66-1.17,1.48-2.3,2.63-3.02.84-.53,1.78-.78,2.75-.93.97-.16,1.95-.24,2.9-.5,1.12-.3,2.14-.83,3.03-1.56,1.56-1.28,2.68-3.05,3.62-4.82-.11-.01-.23-.03-.34-.04.73,2.19.75,4.57.25,6.81-.61,2.78-1.99,5.35-3.86,7.49-1.28,1.47-2.77,2.74-4.39,3.81-.17.11-.07.41.14.34,1.79-.58,3.62-.73,5.43-.18,1.38.41,2.64,1.13,4.02,1.54.82.24,1.67.36,2.52.31-.04-.11-.09-.21-.13-.32-1.46,1.21-3.07,2.37-4.93,2.86-1.32.35-2.7.32-4.06.42-.99.07-1.97.21-2.94.43-.18.04-.18.33,0,.36,1.09.21,1.96,1.13,2.07,2.24l.24-.18c-2.55-1-5.3-.85-7.72.43-2.4,1.27-4.28,3.38-5.71,5.65-.82,1.3-1.51,2.69-2.05,4.13-.05.13.1.28.23.23,2.44-.96,4.33-2.91,6.15-4.72,1.82-1.81,3.74-3.86,6.22-4.73,1.42-.5,2.91-.5,4.34-.07-.03-.1-.06-.21-.08-.31-1.27,1.07-2.35,2.32-3.22,3.73-.08.13.03.27.16.28,2.11.23,4.25.14,6.31-.41,1.88-.5,3.64-1.38,5.19-2.57.89-.68,1.7-1.46,2.44-2.31-.1-.03-.21-.06-.31-.08.68,4.68-2.34,8.93-6.46,10.85-1.19.56-2.48.92-3.79,1.08-.16.02-.28.26-.09.35,1.41.68,2.72,1.68,3.47,3.09.58,1.09.75,2.38.35,3.56-.23.66-.62,1.24-1.12,1.72h.27c-1.95-2.13-4.39-3.73-7.17-4.56-2.62-.78-5.41-.87-8.12-.55-1.58.18-3.14.5-4.67.9-.07.02-.14.1-.14.18.25,2.98,2.78,5.17,5.71,5.34.86.05,1.72-.08,2.53-.37l-.23-.23c-.61,2.21-2.62,3.84-4.95,3.71-.2,0-.24.25-.09.35,1.24.82,1.96,2.16,1.91,3.65-.05,1.35-.66,2.94-2.12,3.24l.24.18c.27-2.39-2.38-3.71-3.22-5.68-.08-.19-.34-.07-.35.09-.06.82-.56,1.54-1.39,1.72-.94.2-1.81-.36-2.4-1.04v.27c1.04-1.06,1.5-2.82,1.12-4.26-.12-.43-.33-.83-.5-1.24-.19-.45-.39-.89-.57-1.35-.28-.7-.54-1.42-.68-2.16-.17-.91-.14-1.84,0-2.75.02-.16-.12-.3-.28-.21-2.99,1.66-6.4,1.37-9.64.78-3.05-.55-6.23-1.43-9.35-.84-1.79.34-3.39,1.24-4.68,2.53.1.03.21.06.31.08-.78-1.98.05-4.19,1.01-5.96.06-.12-.01-.29-.16-.28-1.48.07-2.85-.55-4.27-.86-1.67-.36-3.25-.11-4.72.77.09.07.18.14.28.21.49-1.94,1.51-3.8,3.12-5.02,1.4-1.06,3.19-1.54,4.93-1.22,1.1.21,2.12.7,3.02,1.36.12.09.28-.03.28-.16-.04-2.73,2.42-5.63,5.32-4.86l-.13-.13c.68,3.7,2.98,7.56,6.62,8.95,1.04.4,2.16.55,3.27.46.26,0,.26-.36.02-.35h0Z"/>
        <path d="m130.08,25.24c1.67.63,3.15,1.64,4.35,2.96,1.13,1.25,2,2.72,2.72,4.24,1.52,3.19,2.48,6.62,4.1,9.76.87,1.69,1.96,3.29,3.39,4.56.11.1.33.04.32-.13-.2-4.13.96-8.2,2.81-11.86,1.92-3.8,4.55-7.22,7.58-10.2,1.45-1.43,3-2.75,4.64-3.95.19-.14.38-.27.57-.41.08-.05.18-.16.26-.18.16-.04.08.03.03.1-.06.07-.15.13-.22.19-.46.39-.92.79-1.36,1.2-.88.8-1.73,1.63-2.55,2.5-2.89,3.09-5.52,6.49-7.49,10.25-1.94,3.69-3.24,7.76-3.31,11.96,0,.53,0,1.07.03,1.6,0,.15.21.26.32.13,1.99-2.32,4.78-3.53,7.68-4.27,2.95-.75,5.99-1.08,8.94-1.84.72-.19,1.43-.4,2.13-.65.16-.06.32-.12.47-.18.07-.03.57-.27.51-.07-.02.09-.32.2-.39.24-.16.09-.32.17-.48.26-1.32.67-2.73,1.13-4.16,1.51-2.85.75-5.79,1.14-8.59,2.09-1.33.45-2.63,1.04-3.78,1.84-.59.41-1.14.87-1.65,1.38-.26.27-.53.55-.76.86-.19.27.03.8.1,1.09.4,1.75,1.09,3.44,2,4.99.46.79.98,1.54,1.54,2.25.03.04.21.21.2.25,0,.09-.12.06-.15.05-.04,0-.09-.09-.12-.11-.18-.18-.35-.36-.52-.55-.33-.36-.65-.74-.94-1.13-1.21-1.58-2.1-3.35-2.66-5.26-.14-.48-.26-.97-.36-1.46-.04-.19-.04-.47-.12-.64-.07-.13-.29-.22-.42-.29-.68-.38-1.45-.58-2.22-.71-1.65-.28-3.35-.24-4.95-.74-.95-.29-1.75-.8-2.6-1.3-.78-.46-1.6-.86-2.44-1.21-1.73-.71-3.56-1.15-5.42-1.38-.47-.06-.95-.1-1.42-.13-.16,0-.51.04-.64-.05-.05-.03-.08-.08-.06-.15.04-.12.19-.09.29-.08,1.01.03,2.02.09,3.02.22,2.05.27,4.04.86,5.92,1.74.89.42,1.71.96,2.61,1.35.85.37,1.78.5,2.7.58,1.01.09,2.02.1,3.03.21.18.02.23-.21.13-.32-2.22-2.65-3.32-6-4.47-9.19-1.11-3.1-2.29-6.34-4.61-8.77-.63-.66-1.34-1.24-2.11-1.73-.42-.27-.87-.51-1.32-.71-.18-.08-.48-.14-.51-.37-.03-.27.2-.4.41-.34.23.07.33-.29.1-.36-.71-.22-1.24.78-.58,1.19.39.24.85.39,1.25.62s.79.48,1.16.75c1.39,1.04,2.49,2.43,3.34,3.93,1.81,3.16,2.7,6.75,4.1,10.09.77,1.83,1.7,3.61,2.98,5.14.04-.11.09-.21.13-.32-1.14-.12-2.3-.12-3.44-.25-.55-.06-1.11-.16-1.65-.33-.52-.16-1-.42-1.47-.68-1.92-1.07-3.95-1.91-6.11-2.36-1.11-.23-2.23-.36-3.36-.43-.28-.02-.55-.03-.83-.04-.23,0-.51-.06-.73,0-.25.07-.39.33-.35.57.05.31.3.4.58.42.53.03,1.06.06,1.59.12,1.07.12,2.13.31,3.17.58,1.02.27,2.02.61,2.98,1.04.97.43,1.86.99,2.78,1.52.85.49,1.75.83,2.72,1.02.92.18,1.85.24,2.78.34.91.1,1.83.21,2.69.53.21.08.41.17.61.27.08.04.2.09.27.16.07.08.07.23.09.34.1.55.23,1.09.39,1.63.6,2.07,1.58,3.96,2.91,5.66.32.41.67.81,1.03,1.19.23.24.57.77.97.64.32-.1.38-.46.2-.71-.3-.43-.65-.82-.95-1.25-1.17-1.69-2.08-3.56-2.61-5.55-.13-.49-.24-.99-.32-1.49-.02.06-.03.12-.05.18,1.86-2.33,4.51-3.62,7.33-4.41,2.83-.8,5.76-1.18,8.57-2.05.69-.21,1.36-.46,2.03-.74.32-.14.64-.28.95-.44.29-.15.67-.3.92-.52.18-.17.18-.45.02-.63-.22-.26-.49-.12-.75,0-.67.27-1.36.5-2.06.7-2.91.83-5.94,1.16-8.88,1.85-2.82.66-5.64,1.68-7.78,3.71-.28.26-.54.54-.79.83.11.04.21.09.32.13-.25-4.45.93-8.82,2.92-12.77,1.98-3.95,4.7-7.51,7.71-10.73.84-.9,1.72-1.75,2.63-2.58.46-.42.93-.83,1.41-1.23.15-.12.33-.24.36-.44.02-.18-.06-.35-.23-.43-.37-.18-.85.33-1.12.52-.4.28-.79.58-1.17.88-.83.65-1.64,1.33-2.42,2.03-3.21,2.91-6.03,6.3-8.18,10.07-2.07,3.64-3.53,7.72-3.65,11.94-.02.52,0,1.03.02,1.55.11-.04.21-.09.32-.13-2.65-2.37-4.03-5.76-5.28-9.01-1.24-3.21-2.4-6.61-4.67-9.27-1.29-1.51-2.92-2.65-4.77-3.35-.26-.07-.35.29-.13.37Z"/>
      </g>
      <g>
        <path d="m57.51,84.43c.68-.02.92-.66,1.03-1.24.2-1.16.14-2.37.16-3.54.04-2.47.15-5.01.97-7.37.2-.57.45-1.13.75-1.66.32-.57.71-1.23,1.25-1.61,1.19-.86,2.67-1.05,4.1-1.03,1.23.02,2.52-.5,3.64-.98.88-.38,1.7-.87,2.48-1.42,3.9-2.8,7.63-5.78,11.15-9.05,4.07-3.78,7.84-7.88,12.02-11.54,3.66-3.21,7.99-6.4,12.99-6.87.58-.05,1.16-.07,1.74-.05.13,0,.2-.12.18-.24-.16-.86-.56-1.61-1.42-1.92.01.11.03.23.04.34,1.35-.88,2.9-1.39,4.22-2.32,1.39-.98,2.23-2.34,2.21-4.07,0-.15-.16-.22-.28-.16-1.27.55-2.63.66-3.99.41-1.18-.21-2.31-.62-3.45-.96-2.33-.7-4.91-1.13-7.16.06.09.09.17.17.26.26.6-1.02,1.31-2.04,1.19-3.28-.02-.17-.19-.24-.32-.13-1.64,1.28-3.87.74-5.77,1-1.95.26-3.6,1.4-5.33,2.23.09.09.17.17.26.26.66-1.54.93-3.18.45-4.81-.04-.14-.21-.18-.31-.08-.83.8-2.03.75-3.11.73-1.06-.02-2.05,0-3.04.44-1.89.81-3.34,2.33-3.89,4.32h.36c-.35-1.3-1.05-2.46-2.1-3.29-1.1-.87-2.44-1.33-3.8-1.58-.11-.02-.25.05-.24.18.38,3.09.09,6.22-.57,9.25-.5,2.33-1.21,4.62-2.14,6.82-.25.58-.49,1.2-.85,1.72.11.05.23.1.34.14.53-1.98.9-4.01,1.21-6.04.39-2.54.31-5.13.17-7.68-.16-2.79-.54-5.61-1.62-8.2-.54-1.28-1.17-2.56-1.97-3.69-.79-1.11-1.7-2.11-2.45-3.25-1.74-2.62-3.13-5.62-3.36-8.8-.01-.13-.16-.25-.28-.16-1.85,1.31-2.39,3.94-2.68,6.05.1-.03.21-.06.31-.08-.48-.4-.57-1.12-.62-1.7-.08-.89-.04-1.78-.03-2.67.04-1.78.14-3.78-.66-5.42-.41-.83-1.09-1.43-1.97-1.71-.23-.07-.33.29-.1.36,1.79.57,2.21,2.51,2.32,4.17.12,1.81-.13,3.64.07,5.44.07.63.2,1.37.72,1.8.09.08.29.07.31-.08.27-1.98.75-4.58,2.5-5.82-.09-.05-.19-.11-.28-.16.2,2.68,1.19,5.24,2.53,7.56.66,1.14,1.4,2.23,2.21,3.26.43.55.9,1.08,1.3,1.66.41.61.76,1.25,1.08,1.9,1.31,2.62,1.96,5.37,2.21,8.28.12,1.43.17,2.87.19,4.3.02,1.32,0,2.66-.17,3.97-.3,2.22-.72,4.46-1.3,6.62-.06.21.23.32.34.14.3-.44.52-.96.73-1.45.4-.92.76-1.86,1.08-2.81.91-2.7,1.57-5.51,1.84-8.35.17-1.79.18-3.59-.04-5.37-.08.06-.16.12-.24.18,1.3.23,2.58.66,3.63,1.48,1.01.79,1.68,1.89,2.01,3.13.05.18.31.18.36,0,.57-2.07,2.23-3.69,4.29-4.31,1.83-.55,4.13.46,5.66-1.01-.1-.03-.21-.06-.31-.08.46,1.53.21,3.07-.41,4.52-.07.17.08.34.26.26,1.9-.92,3.68-2.15,5.85-2.24,1.81-.08,3.81.15,5.33-1.04-.11-.04-.21-.09-.32-.13.11,1.17-.58,2.13-1.14,3.09-.1.17.09.34.26.26,2.44-1.29,5.2-.55,7.68.23,1.1.34,2.21.69,3.36.81,1.23.13,2.43-.06,3.56-.55-.09-.05-.19-.11-.28-.16.01,1.74-.9,3.03-2.33,3.95-1.25.8-2.67,1.3-3.91,2.11-.14.09-.11.29.04.34.73.27,1.02.95,1.15,1.66.06-.08.12-.16.18-.24-4.85-.16-9.22,2.37-12.91,5.29-4.25,3.36-7.94,7.39-11.85,11.14-2.01,1.93-4.05,3.83-6.18,5.63-1.87,1.58-3.85,3.01-5.8,4.49-.7.53-1.4,1.08-2.14,1.55-.92.58-1.92,1.02-2.95,1.36-.71.23-1.42.47-2.17.45-.67,0-1.35,0-2.02.14-.65.13-1.28.37-1.86.69-.54.29-.9.67-1.25,1.16-1.43,1.95-1.94,4.4-2.16,6.76-.11,1.2-.14,2.41-.16,3.62-.02,1.12.1,2.38-.22,3.48-.09.3-.24.59-.58.6-.28-.02-.28.35-.04.35h0Z"/>
        <g>
          <path d="m57.51,66.36c.69,0,1.15.83,1.58,1.26.44.43.93.82,1.46,1.15.19.12.39.24.59.35.09.05.16.1.26.08.17-.03.36-.25.51-.34.21-.13.43-.24.66-.34.15-.06.18-.25.04-.34-.95-.67-2.18-1.13-2.9-2.08-.81-1.07-.66-2.38-.12-3.53.58-1.23,1.38-2.35,1.88-3.62.45-1.14.59-2.37.6-3.59.01-1.36-.13-2.78-.68-4.04-.07.09-.14.18-.21.28,1.72.28,2.96,1.97,3.38,3.57.04.15.21.17.31.08,1.5-1.23,2.8-2.7,3.92-4.28,1.02-1.46,1.92-3.06,2.45-4.77-.11,0-.23.03-.34.04,1.13,1.52,2.47,3.05,2.67,5.01.01.15.2.26.32.13,1.53-1.65,3.36-2.85,5.39-3.8,1.49-.69,3.1-1.28,4.31-2.43.7-.66,1.19-1.47,1.53-2.36-.11,0-.23.03-.34.04.45,1.06.75,2.18.88,3.32.02.21.29.25.37.05.48-1.23,1.66-1.92,2.8-2.46,1.18-.56,2.45-.99,3.52-1.78.56-.42,1.05-.92,1.36-1.55h-.32c.38.74.5,1.58.34,2.4-.03.14.08.27.23.23,2.16-.6,4.23-1.43,6.36-2.13.21-.07.16-.35-.05-.37-1.18-.1-2.34.12-3.52.08v.38c.48-.06.94-.27,1.39-.47.48-.22.96-.46,1.41-.74.83-.51,1.6-1.11,2.2-1.88.16-.21.63-.61.44-.9-.23-.34-.57.04-.77.2-.83.68-1.68,1.34-2.61,1.89-.54.32-1.11.58-1.69.82-.24.1-.47.19-.7.31-.18.1-.49.2-.63.34.06-.02.12-.03.18-.05-.35-.08-.67-.22-.98-.4-.01.11-.03.23-.04.34,1-.36,1.89-1.13,2.69-1.83.42-.37.84-.76,1.22-1.18.2-.22.64-.65.47-.97-.2-.38-.69.02-.9.18-.44.34-.85.73-1.27,1.1-.45.4-.92.79-1.41,1.14-.45.33-.99.58-1.4.96h.27c-.19-.15-.38-.31-.56-.48v.27c.41-.49.78-1.01,1.16-1.53.38-.51.75-1.03,1.07-1.59.15-.26.29-.52.41-.79.07-.15.13-.33-.03-.46-.16-.13-.3-.02-.41.11-.2.24-.39.49-.58.73-1.5,1.92-2.93,4.1-5.08,5.35-.89.51-1.86.83-2.78,1.25.09.09.17.17.26.26.9-1.27,1.79-2.54,2.7-3.81.44-.61.87-1.22,1.32-1.82.42-.57.88-1.12,1.21-1.76.09-.17.28-.43.19-.64-.08-.18-.28-.23-.45-.15-.25.12-.49.38-.68.58-.26.26-.5.55-.73.84-.93,1.18-1.83,2.39-2.72,3.6-.49.67-1,1.34-1.43,2.05-.19.31-.36.64-.54.96-.09.16-.18.32-.28.47-.14.23-.31.39-.49.59.11.04.21.09.32.13-.08-.88-.45-1.66-.96-2.37-.01.08-.02.15-.03.23.52-.57.94-1.26,1.36-1.9.45-.68.92-1.37,1.3-2.1.34-.67.77-1.33,1.01-2.05.07-.2.27-.52.08-.72-.15-.15-.37-.09-.49.06-.23.28-.4.67-.59.98-.21.34-.43.69-.65,1.03-.44.68-.88,1.35-1.34,2.01-.95,1.36-1.94,2.72-3.06,3.95-.98,1.08-2.08,2.04-3.34,2.77.08.1.15.2.23.29,1.13-1.23,2.07-2.66,2.88-4.11.43-.76.81-1.54,1.19-2.33.18-.37.35-.73.52-1.1.1-.21.2-.42.3-.63.08-.16.22-.35.23-.53.02-.21-.14-.41-.36-.38-.26.03-.47.41-.61.6-.48.63-.86,1.31-1.22,2.01-.72,1.42-1.43,2.82-2.35,4.14-.53.75-1.15,1.41-1.69,2.14-.14.19-.25.46-.44.6-.18.14-.43.22-.64.32-.47.23-.94.47-1.4.71.08.1.15.2.23.29,1.28-1.47,2.29-3.2,3.23-4.9.98-1.77,1.92-3.58,2.7-5.44.15-.34.38-.81.35-1.19-.02-.26-.29-.37-.48-.2-.3.25-.53.71-.72,1.05-.21.38-.39.78-.57,1.18-.82,1.81-1.74,3.59-2.74,5.31-.56.97-1.15,1.92-1.81,2.82-.33.46-.68.9-1.01,1.37-.17.25-.33.37-.59.52-.24.15-.48.3-.72.46.09.04.18.07.28.11-.13-.33-.28-.66-.46-.97v.19c.72-.99,1.43-1.95,2.03-3.02.77-1.38,1.39-2.85,1.82-4.37.1-.36.19-.72.27-1.09.08-.37.19-.78.2-1.16.01-.38-.46-.71-.76-.38-.19.21-.21.61-.28.88-.11.42-.23.83-.36,1.24-.25.81-.54,1.61-.87,2.39-.36.86-.78,1.7-1.25,2.5-.24.41-.5.81-.76,1.21-.24.35-.51.7-.69,1.09h.32c-.4-.59-.83-1.16-1.19-1.78-.01.08-.02.15-.03.23.49-.52.82-1.15,1.15-1.78.35-.68.69-1.35.99-2.05.65-1.54,1.15-3.15,1.43-4.8.07-.41.13-.82.16-1.23.03-.38.08-.86-.01-1.23-.04-.17-.19-.32-.38-.32-.29,0-.35.27-.4.5-.19.84-.29,1.7-.46,2.54-.16.8-.37,1.6-.62,2.38-.3.92-.65,1.82-1.07,2.69-.42.86-.91,1.67-1.39,2.49h.32c-.3-.61-.53-1.24-.72-1.89-.04-.14-.27-.2-.34-.04-1.14,2.62-2.74,5.16-4.81,7.15.1.06.21.12.31.18,1.05-4.41,1.39-9.04.67-13.53-.2-1.26-.49-2.51-.88-3.73-.09.07-.18.14-.28.21,1.26.72,2.47,1.53,3.53,2.53.11.1.33.04.32-.13-.29-3.88-2.46-7.28-5.2-9.93-.04.11-.09.21-.13.32,1.57-.18,2.84-1.47,2.88-3.08.04-1.76-1.69-3.02-3.2-3.54-1.19-.41-2.49-.38-3.73-.32.06.06.12.12.19.19-.08-1.06.09-2.21.69-3.11.63-.95,1.76-1.3,2.86-1.06.17.04.33-.18.18-.31-.59-.51-1.51-.46-2.2-.22-.64.23-1.17.66-1.56,1.2-.82,1.15-1.03,2.69-.81,4.06,0,.09.1.13.18.14.16,0,.31.03.47.04-.06-.06-.12-.12-.19-.19-.03.42-.06.88,0,1.29.03.19.06.54.33.54s.3-.34.33-.53c.07-.41.04-.86,0-1.28-.06.06-.12.12-.19.19.38.03.77.07,1.15.12-.06-.08-.12-.16-.18-.24-.15,1.02-.14,2.07-.18,3.1-.04,1.07-.13,2.16-.05,3.23.02.27-.02.94.28,1.07.38.17.45-.34.5-.58.21-1,.21-2.03.25-3.05.04-1.2.15-2.43.08-3.64-.08.06-.16.12-.24.18.5.08.97.2,1.43.39-.05-.06-.09-.12-.14-.18-.23,2-.36,4.01-.52,6.02-.09,1.08-.22,2.19-.17,3.28.01.26-.02.78.37.78.38,0,.42-.53.47-.81.23-1.18.26-2.41.35-3.6-.11.04-.21.09-.32.13.35.37.68.76,1.01,1.15-.02-.06-.03-.12-.05-.18-.2.96-.2,1.98-.28,2.95-.05.51-.1,1.02-.12,1.54-.01.25-.09.92.21,1.06.62.27.68-1.48.71-1.81.11-1.05.2-2.12.25-3.18-.12.03-.23.06-.35.09,1.23,1.62,2.22,3.41,2.71,5.39.09-.07.18-.14.28-.21-.96-.41-1.89-.89-2.8-1.4-.14-.08-.33.05-.28.21.77,2.37,1.1,4.85,1.14,7.33.05,2.45-.13,4.93-.6,7.33-.26,1.35-.63,2.67-1.07,3.97.09-.04.18-.07.28-.11-.21-.13-.42-.25-.64-.35.03.07.06.14.09.21.46-2.23.74-4.48.86-6.76.12-2.27.21-4.56.17-6.83-.01-.53-.04-1.05-.11-1.57-.04-.26-.08-.51-.14-.77-.05-.2-.08-.48-.21-.65-.15-.2-.47-.18-.6.04-.1.17-.06.41-.05.6,0,.3.02.6.04.9.15,2.33.08,4.66-.01,6.98-.1,2.58-.28,5.19-.89,7.71.08-.04.15-.09.23-.13-.21-.07-.42-.14-.63-.2.04.08.09.15.13.23.33-1.17.51-2.41.63-3.62.12-1.24.18-2.49.04-3.73-.03-.25-.06-.5-.1-.75-.03-.2,0-.59-.18-.74-.1-.08-.26-.07-.35,0-.16.13-.12.39-.12.58-.05,1.26-.07,2.51-.14,3.77-.08,1.45-.33,2.85-.67,4.26.08-.04.15-.09.23-.13-.11-.02-.21-.04-.32-.06.05.06.09.12.14.18-.02-.97-.11-1.93-.11-2.91,0-.49-.02-.98-.03-1.47,0-.25.02-.6-.31-.61-.33-.02-.34.33-.38.57-.08.47-.15.94-.18,1.41-.05.97-.04,1.96.09,2.92.06-.06.12-.12.19-.19-.29-.04-.59-.07-.88-.08.06.06.12.12.19.19-.12-1.08-.15-2.17-.15-3.26,0-.54.03-1.09,0-1.62-.02-.22-.03-.52-.11-.72-.04-.11-.12-.19-.25-.19-.34,0-.38.64-.42.88-.08.51-.09,1.03-.1,1.54-.03,1.13,0,2.25.12,3.37.06-.06.12-.12.19-.19-.07,0-.14,0-.21,0-.12,0-.22.12-.18.24.54,1.79.81,3.66.75,5.53-.05,1.51-.29,3.09-.98,4.45-.3.6-.7,1.16-1.24,1.56.09.05.19.11.28.16.27-2.44.2-4.93.14-7.38-.09-3.44-.29-6.88-.57-10.31-.16-1.94-.35-3.87-.58-5.8-.03-.24-.4-.24-.38,0,.41,3.46.7,6.94.9,10.42.18,3.15.31,6.31.28,9.46,0,1.2-.04,2.41-.17,3.61-.02.14.17.24.28.16,1.07-.78,1.65-2.08,1.99-3.33.46-1.71.52-3.54.34-5.3-.12-1.13-.35-2.25-.68-3.34-.06.08-.12.16-.18.24.07,0,.14,0,.21,0,.09,0,.2-.08.19-.19-.1-.92-.14-1.83-.13-2.76,0-.48,0-.96.05-1.44.02-.21.03-.43.06-.64.02-.11.04-.21.07-.32s.14-.25-.02-.24c-.15.02-.07.11-.05.23.02.14.04.27.04.41,0,.22,0,.44,0,.66,0,.47,0,.93,0,1.4,0,.9.05,1.81.15,2.7,0,.1.08.18.19.19.3,0,.59.04.88.08.09,0,.2-.1.19-.19-.1-.77-.12-1.55-.11-2.33,0-.37.02-.74.06-1.11.02-.21.06-.41.09-.62.02-.09.03-.19.05-.28.01-.05.1-.32-.01-.17-.1.13-.05.36-.04.52,0,.2,0,.39.02.59,0,.4,0,.79,0,1.19,0,.77.09,1.54.11,2.31,0,.08.06.17.14.18.11.02.21.04.32.06.1.02.21-.03.23-.13.26-1.05.47-2.09.59-3.17.12-1.11.12-2.22.16-3.33.02-.54.05-1.08.07-1.62,0-.04.02-.23.01-.24-.03,0-.05,0-.08,0-.08-.02-.1,0-.07.07-.03.09.05.32.06.41.04.29.08.59.11.89.1,1.08.05,2.18-.05,3.26-.11,1.26-.29,2.54-.64,3.76-.03.1.03.2.13.23.21.06.42.13.63.2.09.03.21-.04.23-.13.49-2.02.71-4.1.83-6.17.12-2.12.19-4.26.18-6.39-.01-1.07-.12-2.13-.13-3.2,0-.05-.01-.13,0-.18.02-.09-.02-.08.03-.02.05.07.06.23.09.32.06.26.11.53.15.8.07.5.09,1,.1,1.5.04,2.11-.04,4.23-.14,6.34-.11,2.4-.39,4.79-.87,7.15-.02.08.01.17.09.21.22.11.43.22.64.35.11.07.24,0,.28-.11.79-2.34,1.29-4.75,1.52-7.21.23-2.49.25-5.02-.08-7.5-.18-1.4-.48-2.78-.92-4.13-.09.07-.18.14-.28.21.91.52,1.84.99,2.8,1.4.15.06.32-.04.28-.21-.5-2.01-1.5-3.84-2.75-5.48-.11-.14-.34-.1-.35.09-.04.98-.13,1.97-.22,2.95-.05.48-.08.98-.22,1.45,0,.02-.11.41.04.12.02-.05-.02-.3-.02-.35,0-.26.02-.51.04-.77.07-.96.17-1.93.24-2.89.02-.25.03-.51.07-.76.03-.15.07-.26-.01-.39-.11-.19-.31-.37-.45-.54-.18-.21-.36-.41-.55-.61-.12-.13-.31-.02-.32.13-.09,1.19-.11,2.44-.36,3.61-.02.11-.05.23-.08.34.05.08.05.05.02-.08-.01-.08-.01-.16-.02-.24-.01-.28-.01-.57,0-.85.03-.61.07-1.22.12-1.82.16-2.21.31-4.42.56-6.62.01-.09-.07-.15-.14-.18-.47-.19-.94-.3-1.43-.39-.11-.02-.24.05-.24.18.07,1.14-.04,2.32-.08,3.46-.02.58-.03,1.16-.06,1.74-.02.29-.04.58-.08.87-.02.11-.03.23-.06.34-.02.09-.13.37-.1.45.11.03.14,0,.08-.12-.01-.08-.02-.16-.03-.25-.02-.14-.03-.28-.04-.41-.02-.28-.02-.55-.02-.83,0-.6.04-1.19.06-1.79.02-.58.05-1.16.07-1.74.03-.59.02-1.18.11-1.76.02-.13-.05-.22-.18-.24-.38-.05-.77-.08-1.15-.12-.1,0-.19.09-.19.19.02.26.02.53.02.79,0,.12,0,.24,0,.36,0,.04-.02.29-.06.31h.19c-.1-.06-.08-.57-.08-.67,0-.27,0-.55.02-.82,0-.11-.09-.18-.19-.19-.16,0-.31-.03-.47-.04.06.05.12.09.18.14-.19-1.19,0-2.5.62-3.54.31-.5.73-.93,1.27-1.18.59-.27,1.52-.43,2.06.03.06-.1.12-.21.18-.31-1.18-.27-2.41.07-3.16,1.05-.73.97-.96,2.28-.86,3.47,0,.1.08.19.19.19,1.21-.06,2.47-.1,3.63.3.96.33,2.04,1.01,2.59,1.89.45.73.43,1.66.06,2.42-.42.87-1.26,1.46-2.22,1.57-.15.02-.26.2-.13.32,2.66,2.57,4.8,5.89,5.09,9.67.11-.04.21-.09.32-.13-1.08-1.02-2.31-1.85-3.6-2.59-.14-.08-.33.05-.28.21,1.35,4.29,1.52,8.89.9,13.33-.17,1.25-.41,2.5-.7,3.73-.04.18.18.31.31.18,2.1-2.01,3.72-4.58,4.87-7.23-.11,0-.23-.03-.34-.04.2.68.44,1.34.75,1.98.06.13.26.11.32,0,.74-1.27,1.46-2.52,2-3.89.56-1.4.96-2.86,1.22-4.34.06-.35.11-.7.17-1.04.03-.19.07-.39.11-.58.02-.08.05-.54.13-.57-.03,0,.02.54.02.59,0,.16,0,.32-.01.47-.02.42-.08.84-.15,1.25-.25,1.48-.68,2.92-1.23,4.32-.31.78-.67,1.53-1.06,2.27-.34.65-.66,1.33-1.18,1.87-.06.06-.07.15-.03.23.36.61.8,1.18,1.19,1.78.07.11.26.14.32,0,.3-.63.78-1.2,1.15-1.79.39-.62.75-1.27,1.07-1.93.62-1.28,1.13-2.63,1.53-3.99.1-.34.2-.68.29-1.02.02-.07.08-.49.18-.5.13,0,.01.45,0,.53-.12.7-.29,1.4-.49,2.08-.41,1.38-.99,2.7-1.69,3.96-.59,1.07-1.31,2.04-2.03,3.02-.04.05-.03.14,0,.19.16.28.3.57.42.88.04.1.17.19.28.11.19-.13.38-.25.58-.38.18-.11.41-.2.57-.34.11-.1.18-.24.27-.36.16-.22.32-.44.48-.66.56-.76,1.11-1.51,1.61-2.31,1-1.59,1.88-3.25,2.72-4.93.39-.77.73-1.57,1.11-2.34.17-.34.35-.68.56-.99.06-.09.17-.19.21-.29.02-.03.04-.05.06-.08-.09-.09-.14-.07-.13.06-.04.06-.05.19-.07.27-.04.12-.08.25-.13.37-.35.91-.8,1.78-1.23,2.65-.42.85-.85,1.7-1.31,2.54-.98,1.82-2.03,3.68-3.4,5.24-.14.16.03.4.23.29.36-.19.72-.37,1.08-.55.18-.09.36-.18.53-.27.16-.08.44-.17.57-.3.1-.1.17-.28.25-.4.11-.16.23-.32.35-.47.22-.28.46-.54.68-.81.97-1.16,1.8-2.47,2.48-3.82.64-1.26,1.2-2.6,2.12-3.68.02-.02.13-.2.05-.14-.03.02-.08.16-.1.21-.08.17-.17.35-.25.52-.18.38-.36.77-.55,1.15-.34.72-.69,1.43-1.07,2.13-.84,1.55-1.82,3.09-3.01,4.39-.14.15.04.4.23.29,2.21-1.28,3.87-3.23,5.38-5.25.91-1.22,1.78-2.48,2.6-3.76.19-.29.37-.59.55-.88.09-.15.18-.29.27-.44.05-.08.1-.16.15-.24.02-.03.2-.36.01-.24-.08.05-.11.33-.14.42-.07.2-.16.38-.26.57-.18.33-.36.66-.53,1-.37.73-.8,1.42-1.25,2.1-.47.71-.92,1.49-1.5,2.12-.05.06-.08.16-.03.23.47.65.83,1.37.9,2.18.01.15.2.26.32.13.23-.25.43-.46.6-.76.16-.27.31-.55.47-.82.3-.54.64-1.04,1-1.55.82-1.16,1.66-2.29,2.52-3.41.41-.53.8-1.08,1.24-1.58.21-.24.43-.47.67-.68.06-.05.17-.12.21-.17-.01,0,.08-.19-.07.02-.1.14-.16.32-.25.47-.32.54-.71,1.02-1.09,1.52-.41.56-.82,1.12-1.22,1.68-.93,1.3-1.84,2.6-2.77,3.91-.12.17.1.33.26.26.72-.33,1.48-.59,2.2-.94.9-.44,1.72-1.03,2.44-1.73.82-.8,1.53-1.7,2.23-2.6.35-.45.69-.9,1.04-1.34.17-.22.34-.43.51-.65.01-.02.1-.11.1-.13-.05-.04-.1-.07-.15-.11-.02.03-.03.07-.05.1-.09.09-.14.28-.2.4-.31.58-.68,1.12-1.06,1.65-.41.57-.81,1.14-1.27,1.68-.06.08-.08.19,0,.27.18.17.36.33.56.48.08.06.18.08.27,0,.36-.33.83-.56,1.23-.84.35-.25.7-.52,1.03-.79.38-.32.75-.65,1.12-.98.17-.14.33-.29.5-.44.02-.02.55-.37.55-.37-.02-.16-.18.13-.17.13-.06.1-.14.19-.21.27-.13.15-.28.29-.42.43-.34.33-.68.66-1.04.97-.69.59-1.48,1.27-2.35,1.58-.15.05-.19.26-.04.34.18.1.36.2.56.27.17.07.43.2.62.16.1-.02.24-.11.33-.16.22-.11.42-.24.65-.33.93-.41,1.84-.8,2.69-1.37.38-.25.74-.53,1.09-.81.2-.16.41-.31.62-.47.12-.09.45-.27.51-.41.01-.02.05-.12-.05-.11-.02,0-.13.18-.13.17-.07.1-.15.2-.22.3-.14.18-.28.35-.44.51-.34.35-.74.66-1.14.94-.45.31-.92.58-1.4.83-.53.26-1.12.58-1.71.66-.23.03-.25.37,0,.38,1.18.04,2.34-.18,3.52-.08-.02-.12-.03-.25-.05-.37-2.12.71-4.2,1.53-6.36,2.13.08.08.15.15.23.23.18-.92.05-1.85-.38-2.68-.06-.12-.26-.12-.32,0-.6,1.2-1.81,1.86-2.98,2.4-1.19.55-2.46,1-3.5,1.83-.55.44-.98.99-1.23,1.65.12.02.25.03.37.05-.14-1.21-.45-2.39-.93-3.51-.07-.16-.29-.09-.34.04-.31.81-.76,1.55-1.38,2.15-.56.55-1.24.96-1.93,1.32-1.61.83-3.31,1.46-4.85,2.45-1.09.71-2.09,1.55-2.97,2.51.11.04.21.09.32.13-.2-2.05-1.54-3.62-2.72-5.2-.09-.13-.29-.12-.34.04-.52,1.68-1.4,3.25-2.41,4.68-1.09,1.56-2.38,3-3.86,4.21.1.03.21.06.31.08-.45-1.71-1.8-3.53-3.64-3.83-.17-.03-.28.12-.21.28.51,1.18.63,2.53.63,3.8,0,1.3-.18,2.61-.7,3.81-.93,2.14-3.3,4.62-1.7,7.03.74,1.11,2.07,1.6,3.12,2.34.01-.11.03-.23.04-.34-.38.15-.74.35-1.08.59-.04.03-.11.05-.06.04-.08,0-.23-.13-.31-.17-.18-.11-.36-.22-.54-.34-.5-.34-.96-.74-1.37-1.18-.45-.48-.87-1.1-1.6-1.11-.37,0-.37.39-.13.39h0Z"/>
          <path d="m64.43,25.55c.12-1.53.25-3.05.32-4.58-.09.05-.19.11-.28.16.85.43,1.91,1.21,1.82,2.3-.09,1.02-1.05,1.85-2.04,1.93-.24.02-.24.39,0,.38,1.16-.09,2.24-1,2.4-2.18.17-1.28-.97-2.23-1.99-2.75-.13-.07-.28.02-.28.16-.07,1.53-.2,3.05-.32,4.58-.03.24.35.24.37,0Z"/>
        </g>
        <path d="m57.51,84.05c-.8-.03-.74-1.54-.76-2.07-.06-1.28-.03-2.56-.08-3.84-.09-2.39-.36-4.86-1.39-7.05-.49-1.05-1.15-2.14-2.2-2.69-1.2-.64-2.47-.82-3.82-.8-.75,0-1.46-.22-2.17-.45-.57-.19-1.13-.4-1.68-.66-.84-.4-1.62-.9-2.36-1.45-1.82-1.35-3.66-2.67-5.42-4.09-2.08-1.68-4.07-3.46-6.01-5.29-4.03-3.79-7.78-7.88-11.99-11.47-3.59-3.07-7.8-5.98-12.64-6.44-.58-.05-1.16-.07-1.74-.05l.18.24c.13-.72.42-1.39,1.15-1.66.15-.06.19-.25.04-.34-1.24-.81-2.66-1.31-3.91-2.11-1.43-.92-2.35-2.21-2.33-3.95-.09.05-.19.11-.28.16,1.14.49,2.33.68,3.56.55,1.15-.12,2.26-.47,3.36-.81,2.47-.77,5.24-1.51,7.68-.23.16.09.35-.09.26-.26-.56-.96-1.25-1.92-1.14-3.09-.11.04-.21.09-.32.13,1.52,1.19,3.52.97,5.33,1.04,2.17.09,3.95,1.33,5.85,2.24.18.09.33-.08.26-.26-.62-1.45-.86-2.99-.41-4.52-.1.03-.21.06-.31.08,1.53,1.47,3.83.47,5.66,1.01,2.06.62,3.72,2.24,4.29,4.31.05.18.31.18.36,0,.33-1.24.99-2.34,2.01-3.13,1.05-.82,2.34-1.25,3.63-1.48-.08-.06-.16-.12-.24-.18-.38,3.08-.09,6.21.56,9.23.51,2.39,1.23,4.75,2.19,7,.25.59.5,1.23.86,1.76.12.17.4.07.34-.14-.52-1.96-.9-3.98-1.21-5.99-.4-2.59-.31-5.25-.15-7.86.17-2.86.61-5.76,1.82-8.38.6-1.3,1.26-2.6,2.18-3.72.84-1.02,1.63-2.07,2.33-3.18,1.6-2.54,2.83-5.41,3.06-8.44-.09.05-.19.11-.28.16,1.75,1.24,2.23,3.84,2.5,5.82.02.15.22.16.31.08.44-.37.6-.98.68-1.52.12-.81.1-1.63.09-2.44-.03-1.82-.21-3.81.44-5.55.34-.9.97-1.6,1.9-1.9.23-.07.13-.44-.1-.36-1.72.55-2.34,2.21-2.54,3.86-.22,1.87.02,3.75-.09,5.63-.04.67-.09,1.55-.65,2.02.1.03.21.06.31.08-.29-2.1-.83-4.74-2.68-6.05-.13-.09-.27.03-.28.16-.21,2.84-1.34,5.53-2.81,7.94-.71,1.16-1.51,2.27-2.38,3.32-.9,1.08-1.57,2.29-2.17,3.56-1.2,2.52-1.75,5.23-1.97,8.01-.22,2.7-.36,5.51,0,8.2.3,2.23.72,4.48,1.3,6.65.11-.05.23-.1.34-.14-.3-.44-.51-.94-.72-1.42-.41-.93-.77-1.89-1.09-2.85-.89-2.66-1.54-5.42-1.8-8.21-.16-1.77-.17-3.54.05-5.31.02-.13-.13-.2-.24-.18-1.36.24-2.7.71-3.8,1.58-1.06.84-1.76,2-2.1,3.29h.36c-.55-1.99-2-3.52-3.89-4.32-.99-.42-1.98-.46-3.04-.44-1.08.02-2.27.08-3.11-.73-.1-.1-.27-.05-.31.08-.49,1.63-.21,3.27.45,4.81.09-.09.17-.17.26-.26-1.73-.84-3.38-1.97-5.33-2.23-1.91-.25-4.14.29-5.77-1-.13-.1-.3-.04-.32.13-.12,1.24.59,2.26,1.19,3.28.09-.09.17-.17.26-.26-2.25-1.19-4.83-.76-7.16-.06-1.14.34-2.27.75-3.45.96-1.36.24-2.72.14-3.99-.41-.13-.05-.28,0-.28.16,0,1.73.82,3.09,2.21,4.07,1.32.93,2.87,1.44,4.22,2.32.01-.11.03-.23.04-.34-.86.32-1.25,1.06-1.42,1.92-.02.11.05.24.18.24,5.03-.17,9.52,2.61,13.28,5.68,4.23,3.46,7.94,7.52,11.89,11.28,1.99,1.89,4.01,3.75,6.13,5.51,1.8,1.49,3.7,2.84,5.56,4.25.7.54,1.41,1.08,2.18,1.53.93.55,1.94.96,2.97,1.28.32.1.65.19.98.28.37.1.65.11,1.03.11.74,0,1.48,0,2.2.19.67.16,1.4.45,1.95.88.5.39.88,1.02,1.19,1.57,1.25,2.19,1.56,4.79,1.67,7.27.06,1.26.04,2.52.08,3.78.02.74-.03,1.82.48,2.44.17.21.4.31.67.32.26-.01.26-.38.02-.39h0Z"/>
        <g>
          <path d="m57.32,37.92c-.41,3.46-.7,6.94-.9,10.42-.18,3.15-.31,6.31-.28,9.46,0,1.2.04,2.41.17,3.61.09-.05.19-.11.28-.16-1.04-.75-1.56-2.07-1.86-3.27-.41-1.63-.46-3.36-.28-5.03.12-1.1.34-2.19.67-3.25.04-.12-.06-.23-.18-.24-.07,0-.14,0-.21,0,.06.06.12.12.19.19.12-1.12.15-2.24.12-3.37,0-.51-.03-1.03-.1-1.54-.04-.24-.07-.88-.42-.88s-.34.67-.36.91c-.04.54,0,1.09,0,1.62,0,1.09-.03,2.17-.15,3.26.06-.06.12-.12.19-.19-.3,0-.59.04-.88.08.06.06.12.12.19.19.13-.96.14-1.95.09-2.92-.03-.46-.09-.91-.17-1.36-.04-.25-.05-.65-.39-.63-.31.02-.31.32-.31.56,0,.51-.03,1.02-.03,1.53,0,.97-.08,1.94-.11,2.91.05-.06.09-.12.14-.18-.11.02-.21.04-.32.06.08.04.15.09.23.13-.31-1.25-.54-2.49-.64-3.78-.09-1.25-.09-2.51-.15-3.76,0-.27,0-.57-.03-.84-.03-.15-.11-.27-.28-.28-.14,0-.23.08-.28.2-.09.26-.09.6-.12.87-.16,1.24-.16,2.48-.06,3.73.11,1.37.3,2.77.67,4.1.04-.08.09-.15.13-.23-.21.06-.42.13-.63.2.08.04.15.09.23.13-.54-2.24-.75-4.56-.86-6.86-.11-2.31-.2-4.63-.1-6.94.03-.58.08-1.15.09-1.73,0-.29.08-.8-.34-.83-.38-.03-.44.46-.51.73-.12.51-.19,1.02-.23,1.54-.08,1.08-.04,2.18-.02,3.26.02,1.19.06,2.37.11,3.56.11,2.56.39,5.1.9,7.61.03-.07.06-.14.09-.21-.22.11-.43.22-.64.35.09.04.18.07.28.11-.78-2.31-1.28-4.68-1.5-7.11-.23-2.45-.25-4.94.07-7.39.18-1.41.48-2.79.92-4.14.05-.16-.14-.29-.28-.21-.91.52-1.84.99-2.8,1.4.09.07.18.14.28.21.49-1.98,1.48-3.77,2.71-5.39-.12-.03-.23-.06-.35-.09.05,1.06.13,2.12.25,3.18.03.32.09,2.08.71,1.81.3-.13.22-.8.21-1.06-.02-.51-.07-1.03-.12-1.54-.09-.97-.08-1.99-.28-2.95-.02.06-.03.12-.05.18.32-.39.66-.78,1.01-1.15-.11-.04-.21-.09-.32-.13.08,1.04.14,2.1.28,3.14.03.25.08.5.14.75.04.17.06.36.21.46.23.16.47,0,.52-.23.12-.52.06-1.11.03-1.64-.03-.55-.07-1.09-.11-1.64-.07-.9-.14-1.81-.21-2.71-.1-1.27-.2-2.53-.34-3.79-.05.06-.09.12-.14.18.47-.19.94-.3,1.43-.39-.08-.06-.16-.12-.24-.18-.06,1.07.03,2.16.07,3.23.04,1.02.03,2.05.19,3.06.04.27.05.91.38,1,.39.1.4-.42.43-.67.14-1.07.05-2.14,0-3.21-.04-1.17-.02-2.38-.19-3.53-.06.08-.12.16-.18.24.38-.05.77-.08,1.15-.12-.06-.06-.12-.12-.19-.19-.03.41-.05.85,0,1.25.03.2.06.56.33.56s.3-.33.33-.52c.07-.42.04-.89,0-1.32-.06.06-.12.12-.19.19.16,0,.31-.03.47-.04.08,0,.17-.05.18-.14.22-1.37,0-2.92-.81-4.06-.39-.55-.92-.98-1.56-1.2-.69-.24-1.61-.29-2.2.22-.15.13,0,.35.18.31,1.1-.25,2.23.11,2.86,1.06.6.9.77,2.05.69,3.11.06-.06.12-.12.19-.19-1.12-.06-2.26-.08-3.35.2-.9.23-1.73.71-2.43,1.33-.62.55-1.06,1.17-1.14,2.02-.07.72.16,1.48.58,2.06.54.76,1.36,1.22,2.29,1.32-.04-.11-.09-.21-.13-.32-2.74,2.65-4.91,6.05-5.2,9.93,0,.17.21.24.32.13,1.06-1,2.27-1.81,3.53-2.53-.09-.07-.18-.14-.28-.21-1.36,4.34-1.53,8.98-.91,13.47.17,1.27.41,2.53.71,3.78.1-.06.21-.12.31-.18-2.08-1.99-3.67-4.53-4.81-7.15-.07-.16-.3-.1-.34.04-.19.65-.42,1.28-.72,1.89h.32c-.42-.72-.86-1.43-1.24-2.17-.38-.76-.71-1.54-1-2.34-.57-1.6-.87-3.23-1.17-4.9-.05-.29-.17-1.59-.77-1.1-.21.17-.17.51-.17.75,0,.44.03.87.08,1.3.21,1.64.67,3.25,1.27,4.79.33.84.7,1.65,1.12,2.44.37.71.72,1.45,1.28,2.03,0-.08-.02-.15-.03-.23-.36.61-.8,1.18-1.19,1.78h.32c-.34-.72-.89-1.36-1.3-2.04-.42-.7-.8-1.42-1.14-2.16-.71-1.54-1.21-3.15-1.65-4.79-.05-.2-.12-.39-.35-.43-.19-.03-.39.06-.48.23-.13.23-.02.53.02.77.07.41.15.81.25,1.21.37,1.51.95,2.98,1.67,4.36.66,1.28,1.48,2.42,2.32,3.58v-.19c-.18.31-.33.63-.46.97.09-.04.18-.07.28-.11-.19-.13-.38-.25-.58-.38s-.45-.23-.6-.42c-.32-.39-.6-.82-.9-1.23-.6-.8-1.14-1.64-1.66-2.5-1.04-1.73-2.01-3.52-2.85-5.35-.36-.78-.69-1.6-1.17-2.32-.13-.2-.39-.71-.7-.58-.33.13-.13.6-.06.84.28.93.76,1.81,1.19,2.68.45.91.9,1.81,1.38,2.71,1.04,1.94,2.15,3.92,3.6,5.58.08-.1.15-.2.23-.29-.39-.21-.79-.4-1.19-.6-.2-.1-.39-.19-.59-.29-.08-.04-.19-.08-.26-.13-.12-.09-.17-.22-.26-.34-.44-.65-.99-1.2-1.46-1.83-1-1.33-1.8-2.76-2.53-4.25-.33-.68-.68-1.35-1.09-1.98-.2-.3-.41-.58-.64-.85-.17-.19-.42-.39-.63-.11-.17.22.02.47.12.68.2.42.4.84.6,1.26.36.77.73,1.54,1.13,2.29.88,1.67,1.93,3.32,3.21,4.72.08-.1.15-.2.23-.29-2.55-1.48-4.37-3.87-6.06-6.24-.93-1.3-1.81-2.64-2.64-4.01-.12-.2-.25-.58-.51-.63-.21-.04-.37.12-.35.32.03.3.2.66.33.93.18.38.4.73.59,1.1.41.79.86,1.55,1.35,2.29.48.74.96,1.55,1.56,2.2-.01-.08-.02-.15-.03-.23-.51.71-.88,1.49-.96,2.37.11-.04.21-.09.32-.13-.27-.29-.48-.58-.68-.92-.18-.31-.34-.62-.52-.93-.35-.61-.78-1.17-1.18-1.74-.91-1.27-1.86-2.51-2.81-3.75-.4-.52-.8-1.04-1.29-1.46-.15-.13-.36-.36-.58-.33-.21.03-.31.23-.25.42.19.63.69,1.22,1.08,1.73.44.58.87,1.17,1.3,1.77,1.03,1.42,2.03,2.86,3.04,4.29.09-.09.17-.17.26-.26-.82-.38-1.67-.66-2.47-1.08-1.05-.55-1.94-1.32-2.73-2.2-.85-.94-1.62-1.97-2.39-2.97-.17-.22-.34-.44-.51-.65-.13-.16-.32-.54-.54-.59-.14-.03-.27.07-.31.2-.06.22.17.53.26.71.32.62.71,1.19,1.12,1.75.43.59.85,1.2,1.33,1.75v-.27c-.18.17-.36.33-.56.48h.27c-.41-.38-.95-.64-1.4-.96-.49-.35-.95-.74-1.41-1.14-.42-.37-.83-.76-1.27-1.1-.21-.16-.7-.56-.9-.18-.16.32.28.75.47.97.38.41.79.81,1.22,1.18.79.69,1.69,1.47,2.69,1.83-.01-.11-.03-.23-.04-.34-.31.18-.63.31-.98.4.06.02.12.03.18.05-.12-.12-.35-.18-.5-.26-.2-.11-.41-.21-.62-.3-.52-.22-1.05-.43-1.55-.71-.92-.5-1.73-1.15-2.57-1.78-.22-.17-.43-.35-.64-.52-.11-.09-.21-.15-.36-.1-.41.14-.1.53.05.73.59.79,1.28,1.42,2.09,1.96.49.32,1,.6,1.53.85.5.24,1.04.49,1.59.56v-.38c-1.18.04-2.34-.18-3.52-.08-.21.02-.26.3-.05.37,2.12.71,4.2,1.53,6.36,2.13.15.04.26-.09.23-.23-.16-.82-.04-1.65.34-2.4h-.32c1.21,2.41,4.32,2.71,6.34,4.15.59.42,1.08.96,1.34,1.64.08.2.34.16.37-.05.13-1.14.43-2.26.88-3.32-.11,0-.23-.03-.34-.04.6,1.58,1.7,2.71,3.16,3.51,1.61.89,3.36,1.49,4.93,2.47,1.16.72,2.21,1.6,3.14,2.6.12.13.31.02.32-.13.19-1.96,1.54-3.49,2.67-5.01-.11,0-.23-.03-.34-.04.53,1.71,1.42,3.31,2.45,4.77,1.11,1.59,2.41,3.05,3.92,4.28.1.09.27.06.31-.08.42-1.6,1.66-3.29,3.38-3.57-.07-.09-.14-.18-.21-.28-.48,1.1-.64,2.33-.67,3.52-.04,1.21.05,2.49.43,3.65.43,1.32,1.21,2.46,1.85,3.67.58,1.12.95,2.37.32,3.56-.64,1.2-2.07,1.7-3.13,2.45-.14.1-.11.28.04.34.23.09.45.21.66.34.14.09.33.29.48.33.26.07.62-.26.82-.39.54-.34,1.05-.73,1.5-1.18.44-.43.9-1.25,1.58-1.26.24,0,.24-.38,0-.38-.73,0-1.14.63-1.6,1.11-.41.44-.87.83-1.37,1.18-.16.11-.33.21-.49.31-.1.06-.2.13-.3.17-.12.05.03.04-.07.02-.07-.02-.21-.15-.28-.19-.1-.06-.19-.12-.29-.17-.18-.1-.36-.19-.55-.26,0,.11.03.23.04.34.96-.67,2.14-1.13,2.91-2.06.76-.92.92-2.15.56-3.27-.41-1.27-1.23-2.36-1.82-3.55-.61-1.22-.87-2.49-.93-3.85-.05-1.41.04-2.95.62-4.27.07-.16-.04-.3-.21-.28-1.84.3-3.19,2.12-3.64,3.83.1-.03.21-.06.31-.08-1.48-1.21-2.76-2.65-3.86-4.21-1.01-1.44-1.89-3-2.41-4.68-.05-.17-.25-.17-.34-.04-1.18,1.59-2.52,3.15-2.72,5.2.11-.04.21-.09.32-.13-1.49-1.6-3.27-2.81-5.23-3.75-1.46-.7-3.07-1.25-4.31-2.33-.73-.64-1.25-1.44-1.59-2.34-.05-.13-.27-.21-.34-.04-.48,1.12-.79,2.3-.93,3.51.12-.02.25-.03.37-.05-1-2.55-4.19-2.93-6.23-4.28-.62-.41-1.15-.93-1.48-1.6-.06-.12-.26-.12-.32,0-.43.84-.56,1.76-.38,2.68.08-.08.15-.15.23-.23-2.16-.6-4.23-1.43-6.36-2.13-.02.12-.03.25-.05.37,1.18-.1,2.34.12,3.52.08.25,0,.23-.34,0-.38-.52-.07-1.04-.33-1.51-.56-.44-.21-.87-.45-1.29-.71-.83-.54-1.54-1.16-2.13-1.96-.02-.03-.06-.11-.09-.13-.01,0-.13-.06-.12.03,0,.05.21.18.25.21.17.14.34.27.52.4.39.29.76.61,1.16.89.81.57,1.67,1.04,2.59,1.42.45.19.88.44,1.32.62.37.15.93-.2,1.25-.39.15-.09.1-.29-.04-.34-.87-.31-1.65-.99-2.35-1.58-.35-.3-.68-.62-1.01-.94-.15-.15-.31-.3-.45-.46-.08-.09-.15-.18-.21-.27-.02-.03-.03-.05-.05-.08-.02-.09-.06-.11-.12-.04.04.05.2.11.26.15.1.07.19.14.29.22.16.13.3.27.46.4.39.34.77.68,1.16,1.01.33.28.68.54,1.03.79.4.28.88.5,1.23.84.08.08.18.06.27,0,.19-.15.38-.31.56-.48.08-.07.07-.19,0-.27-.76-.89-1.48-1.89-2.08-2.89-.14-.24-.28-.48-.4-.74-.01-.03-.08-.2-.09-.2-.02.02-.05.04-.07.05-.08.02-.1.05-.04.09.02.11.24.3.31.39.36.46.72.92,1.07,1.38,1.3,1.69,2.65,3.43,4.56,4.46.82.44,1.7.73,2.55,1.12.15.07.38-.09.26-.26-.82-1.15-1.63-2.31-2.45-3.47-.77-1.09-1.61-2.14-2.36-3.24-.17-.25-.33-.5-.46-.77.01,0-.09-.19-.09-.19-.13,0,.11.18.11.17.14.11.27.23.39.35.47.47.86,1.01,1.26,1.53.86,1.13,1.72,2.26,2.55,3.42.42.59.85,1.18,1.21,1.81.16.28.31.57.48.85.1.16.19.34.3.49.11.15.26.28.39.41.12.13.31.02.32-.13.07-.81.44-1.53.9-2.18.05-.07.02-.17-.03-.23-.5-.54-.89-1.21-1.3-1.83-.42-.64-.86-1.28-1.22-1.96-.16-.29-.3-.59-.45-.88-.19-.35-.41-.69-.54-1.07-.02-.07-.09-.44-.16-.47-.22-.12-.05.14-.05.14.02.08.11.18.15.24.2.33.4.65.6.98.81,1.28,1.66,2.54,2.55,3.76.84,1.15,1.71,2.29,2.7,3.31.89.92,1.89,1.74,3,2.38.19.11.37-.14.23-.29-2.16-2.35-3.5-5.29-4.85-8.14-.02-.04-.09-.25-.12-.26-.12-.03.02.1.02.1.07.15.25.3.35.44.22.3.42.62.61.94.35.61.66,1.25.97,1.88.67,1.37,1.46,2.67,2.39,3.88.49.64,1.08,1.21,1.5,1.91.2.33.65.46.99.63.43.22.87.43,1.3.66.19.1.37-.13.23-.29-1.24-1.42-2.2-3.08-3.11-4.72s-1.77-3.32-2.53-5.03c-.18-.39-.36-.79-.47-1.21,0-.04-.02-.07-.03-.11,0-.13-.03-.15-.13-.06,0,.07.17.22.22.28.14.2.26.4.38.61.39.7.68,1.44,1.02,2.15.84,1.73,1.74,3.44,2.74,5.09.53.87,1.09,1.72,1.71,2.54.16.22.33.44.49.66.13.18.25.42.4.58.14.15.36.24.54.35.23.14.45.29.67.43.11.07.23,0,.28-.11.12-.3.26-.59.42-.88.03-.05.04-.14,0-.19-.61-.84-1.24-1.67-1.77-2.57-.72-1.23-1.32-2.52-1.77-3.87-.23-.67-.41-1.36-.56-2.06-.04-.18-.07-.37-.1-.56-.02-.1-.12-.4-.06-.48.13-.17.19.28.2.34.05.19.1.38.15.57.39,1.4.87,2.77,1.47,4.08.34.74.72,1.46,1.14,2.16.41.68.96,1.32,1.3,2.04.06.14.25.11.32,0,.4-.59.83-1.16,1.19-1.78.04-.07.03-.17-.03-.23-.46-.48-.77-1.08-1.07-1.66-.32-.62-.64-1.24-.92-1.89-.6-1.39-1.08-2.84-1.37-4.33-.15-.76-.28-1.53-.28-2.3,0-.04,0-.59.02-.59s.09.41.1.46c.08.38.14.77.21,1.16.25,1.49.59,2.95,1.11,4.37.57,1.57,1.37,3,2.21,4.44.07.11.26.13.32,0,.31-.64.55-1.3.75-1.98-.11,0-.23.03-.34.04,1.16,2.65,2.78,5.22,4.87,7.23.14.13.36,0,.31-.18-1.04-4.36-1.39-8.94-.67-13.38.2-1.24.49-2.47.87-3.67.05-.16-.14-.29-.28-.21-1.29.74-2.52,1.57-3.6,2.59.11.04.21.09.32.13.28-3.77,2.42-7.09,5.09-9.67.13-.12.02-.3-.13-.32-.95-.11-1.77-.68-2.21-1.53-.38-.76-.42-1.71.04-2.45.54-.87,1.6-1.54,2.54-1.87,1.18-.42,2.45-.39,3.68-.32.11,0,.18-.09.19-.19.09-1.19-.14-2.5-.86-3.47-.74-.98-1.97-1.32-3.16-1.05.06.1.12.21.18.31.54-.46,1.47-.3,2.06-.03.54.25.96.67,1.27,1.18.63,1.03.81,2.35.62,3.54.06-.05.12-.09.18-.14-.16,0-.31.03-.47.04-.1,0-.2.08-.19.19.02.27.02.55.02.82,0,.12,0,.25,0,.37,0,.03-.03.28-.06.3h.19c-.1-.06-.07-.57-.08-.67,0-.26,0-.53.02-.79,0-.1-.09-.2-.19-.19-.38.03-.77.07-1.15.12-.13.02-.2.11-.18.24.09.58.08,1.17.11,1.76.03.58.05,1.16.07,1.74.02.6.06,1.19.06,1.79,0,.28,0,.56-.02.83,0,.12-.02.24-.03.36,0,.1-.02.2-.04.3-.06.11-.03.15.08.12.03-.07-.07-.31-.09-.4-.03-.13-.05-.27-.07-.4-.04-.29-.07-.58-.08-.87-.04-.58-.04-1.16-.06-1.74-.04-1.15-.14-2.32-.08-3.46,0-.13-.13-.2-.24-.18-.5.08-.97.2-1.43.39-.07.03-.15.09-.14.18.25,2.2.4,4.42.56,6.62.04.61.09,1.21.12,1.82,0,.28.02.57,0,.85,0,.08,0,.16-.02.24-.03.13-.03.16.02.08-.04-.1-.06-.23-.08-.34-.25-1.17-.27-2.42-.36-3.61,0-.15-.2-.26-.32-.13-.17.19-.34.38-.51.57-.15.18-.38.38-.49.58-.08.14-.03.24,0,.39.04.23.05.47.07.7.07.98.17,1.96.24,2.95.02.25.04.51.04.77,0,.09-.05.29-.02.35.03.03.07.06.1.08-.02-.07-.04-.13-.06-.2-.13-.45-.16-.93-.21-1.39-.1-1-.19-2-.23-3.01,0-.2-.24-.24-.35-.09-1.25,1.64-2.25,3.47-2.75,5.48-.04.17.13.27.28.21.96-.41,1.89-.89,2.8-1.4-.09-.07-.18-.14-.28-.21-.78,2.4-1.11,4.92-1.16,7.43-.05,2.45.14,4.92.59,7.32.26,1.38.63,2.74,1.09,4.08.04.11.17.18.28.11.21-.13.42-.25.64-.35.08-.04.1-.13.09-.21-.86-4.18-.99-8.44-1.02-12.7,0-1.01,0-2.04.24-3.03.02-.1.04-.29.1-.37.07-.1.03.06.03.14,0,.28,0,.56-.03.84-.03.52-.07,1.04-.08,1.56-.06,2.15.02,4.31.12,6.45.11,2.33.32,4.69.87,6.96.02.09.14.16.23.13.21-.07.42-.14.63-.2.1-.03.16-.13.13-.23-.3-1.06-.47-2.19-.59-3.29-.12-1.1-.2-2.22-.13-3.32.02-.26.04-.51.07-.76.03-.28.15-.61.12-.89,0-.03.08-.32-.14-.14,0,0,0,.16,0,.18,0,.14,0,.28.02.42,0,.28.03.56.04.84.05,1.09.04,2.19.14,3.28.11,1.24.34,2.44.64,3.65.03.1.13.15.23.13.11-.02.21-.04.32-.06.08-.02.14-.1.14-.18.02-.77.1-1.54.11-2.31v-1.13c0-.2,0-.39.02-.59,0-.16.07-.46-.04-.58s-.02.12,0,.17c0,.07.03.15.04.22.04.21.07.41.1.62.05.39.06.78.07,1.17,0,.78,0,1.56-.11,2.33,0,.09.1.2.19.19.29-.04.59-.07.88-.08.11,0,.18-.08.19-.19.1-.88.14-1.76.15-2.64,0-.49,0-.97,0-1.46,0-.2,0-.4,0-.6,0-.14,0-.27.03-.41.02-.13.12-.27-.04-.29-.16-.02-.06.09-.04.19s.05.19.07.29c.04.23.05.48.07.72.03.46.04.92.04,1.38,0,.94-.03,1.88-.13,2.82,0,.1.09.19.19.19.07,0,.14,0,.21,0-.06-.08-.12-.16-.18-.24-.57,1.88-.85,3.86-.76,5.83.07,1.56.35,3.18,1.1,4.57.32.61.75,1.16,1.31,1.56.11.08.3-.03.28-.16-.27-2.44-.2-4.93-.14-7.38.09-3.44.29-6.88.57-10.31.16-1.94.35-3.87.58-5.8-.13-.21-.5-.21-.53.03h0Z"/>
          <path d="m48.73,23.3c.07-1.05.96-1.73,1.82-2.17-.09-.05-.19-.11-.28-.16.07,1.53.2,3.05.32,4.58.06-.06.12-.12.19-.19-1.05-.08-2.01-.98-2.05-2.06,0-.24-.38-.24-.38,0,.04,1.29,1.16,2.34,2.42,2.43.1,0,.19-.09.19-.19-.12-1.53-.25-3.05-.32-4.58,0-.15-.15-.23-.28-.16-1,.51-1.93,1.3-2.01,2.49,0,.26.37.25.38.01Z"/>
        </g>
      </g>
      <g>
        <path d="m147.07,72.01c-.99.99-2.09,1.84-3.34,2.47-.94.47-1.93.79-2.93,1.1-1.73.53-3.34,1.11-4.47,2.61.12.03.23.06.35.09.12-1.47.15-2.95.07-4.42,0-.12-.11-.22-.24-.18-4.24,1.18-8.16,3.35-11.4,6.32.1.06.21.12.31.18.22-1.21.15-2.44-.22-3.61-.04-.12-.16-.16-.28-.11-3.21,1.53-5.76,4.24-7.11,7.53h.36c-.32-.96-.63-1.91-1.11-2.8-.07-.13-.25-.11-.32,0-.64.98-1.07,2.07-1.71,3.05.11.05.23.1.34.14.95-6.07-.86-12.31-4.41-17.26-3.32-4.63-8.33-8.4-14.08-9.23-3.2-.46-6.43.07-9.33,1.48-.11.05-.12.21-.04.29,1.35,1.4,2.31,3.09,2.83,4.96.5,1.81.61,3.71.59,5.58-.03,4.07-.56,8.14-.01,12.2.33,2.48,1.06,4.92,2.26,7.12.05-.09.11-.19.16-.28-.66-.08-1.27-.35-1.93-.44-.13-.02-.23.05-.24.18-.12,1.5-.06,3,.19,4.48.1-.06.21-.12.31-.18-1.23-.97-1.98-2.42-3.07-3.53-.76-.77-1.62-1.43-2.56-1.97-.58-.33-1.18-.62-1.8-.88-.41-.17-.7-.19-1.15-.19s-.88,0-1.31.03c-.1,0-.2.08-.19.19.12,1.56.54,3.09,1.12,4.54.1-.06.21-.12.31-.18-.95-.77-1.9-1.57-3.05-2.03-1.37-.54-2.84-.45-4.26-.15-.14.03-.18.22-.08.31.85.79,1.37,1.82,1.53,2.96.09-.07.18-.14.28-.21-3.78-2.54-8.6-1.83-12.3.51-1.05.67-2.02,1.46-2.89,2.36-.13.13,0,.37.18.31,6.81-2.11,11.96,4.56,17.04,7.84,1.66,1.07,3.48,1.84,5.32,2.54,2.14.82,4.33,1.5,6.51,2.2,4.48,1.44,8.88,3.14,13.37,4.56,1.09.35,2.19.68,3.29.98.86.24,1.91.72,2.8.35.39-.16.59-.46.89-.73.37-.34.85-.52,1.33-.63.85-.18,1.79.12,2.53-.46.35-.27.57-.69.82-1.05.32-.47.64-.93.96-1.4.62-.9,1.25-1.8,1.87-2.7,1.32-1.89,2.65-3.77,4-5.64,1.1-1.52,2.21-3.02,3.5-4.4,1.05-1.12,2.18-2.16,3.37-3.14,2.22-1.83,4.62-3.42,6.93-5.13,2.18-1.61,4.28-3.35,5.96-5.48,1.89-2.4,3.16-5.2,3.88-8.17.22-.9.39-1.81.52-2.73.03-.24-.33-.34-.36-.1-.48,3.28-1.47,6.49-3.28,9.29-1.49,2.3-3.47,4.2-5.62,5.88-2.2,1.72-4.54,3.25-6.76,4.95-2.45,1.87-4.73,3.95-6.65,6.37-1.35,1.7-2.58,3.5-3.83,5.27-1.27,1.79-2.53,3.6-3.78,5.41-.29.43-.59.85-.88,1.28-.3.44-.6,1.05-1.09,1.32-.43.24-.9.15-1.37.16-.47.02-.94.09-1.38.26-.35.13-.67.31-.95.56-.4.36-.68.74-1.27.76-.53.02-1.11-.22-1.62-.35-.55-.15-1.09-.3-1.63-.46-4.5-1.32-8.89-2.99-13.33-4.5-2.12-.72-4.27-1.36-6.39-2.09-2.13-.73-4.3-1.51-6.28-2.59-2.87-1.57-5.26-3.87-7.89-5.79-2.44-1.79-5.26-3.4-8.39-3.22-.77.04-1.52.19-2.25.42.06.1.12.21.18.31,3.71-3.86,9.93-6.04,14.73-2.82.15.1.3-.07.28-.21-.17-1.2-.74-2.3-1.63-3.13-.03.1-.06.21-.08.31,1.35-.29,2.75-.37,4.06.15,1.08.43,1.99,1.2,2.88,1.93.13.1.39,0,.31-.18-.57-1.41-.99-2.92-1.11-4.44-.06.06-.12.12-.19.19.44-.02.88-.03,1.31-.03.48,0,.84.08,1.28.27.58.26,1.15.54,1.69.87.91.55,1.73,1.21,2.46,1.98,1,1.07,1.72,2.42,2.88,3.33.15.12.35,0,.31-.18-.24-1.45-.29-2.92-.17-4.38-.08.06-.16.12-.24.18.69.1,1.34.37,2.03.46.15.02.22-.17.16-.28-2.19-4-2.58-8.53-2.44-13.01.12-3.83.66-7.82-.31-11.58-.52-2.03-1.53-3.85-2.98-5.36-.01.1-.03.2-.04.29,2.55-1.24,5.38-1.79,8.21-1.54,2.75.24,5.4,1.22,7.75,2.65,4.96,3.01,8.71,8,10.47,13.52,1.02,3.21,1.35,6.63.83,9.96-.03.2.22.33.34.14.64-.98,1.07-2.07,1.71-3.05h-.32c.46.86.76,1.78,1.07,2.71.06.19.29.17.36,0,1.31-3.2,3.82-5.82,6.94-7.3-.09-.04-.18-.07-.28-.11.35,1.11.43,2.27.22,3.41-.03.18.17.31.31.18,3.2-2.93,7.06-5.06,11.24-6.23l-.24-.18c.08,1.48.05,2.95-.07,4.42-.02.21.25.22.35.09,1.18-1.55,2.95-2.03,4.72-2.58,2.28-.71,4.27-1.81,5.96-3.52.24-.13-.02-.39-.19-.22Z"/>
        <path d="m137.1,63.41c-4.79.81-8.32,5.27-8.9,9.95-.17,1.38-.08,2.79.29,4.14.03.11.17.18.28.11,2.41-1.59,5.06-2.8,7.84-3.58l-.24-.18c.08,1.48.05,2.95-.07,4.42-.02.21.25.23.35.09.71-.93,1.65-1.54,2.74-1.94.07-.03.14-.09.14-.18-.18-3.37-2.38-6.24-2.61-9.6-.07-1.03.07-2.04.42-3.01.08-.23-.28-.33-.36-.1-.59,1.66-.54,3.39-.09,5.07.43,1.65,1.17,3.19,1.69,4.81.3.92.53,1.86.58,2.83.05-.06.09-.12.14-.18-1.19.44-2.19,1.09-2.96,2.11.12.03.23.06.35.09.12-1.47.15-2.95.07-4.42,0-.12-.11-.22-.24-.18-2.81.79-5.49,2.01-7.93,3.62.09.04.18.07.28.11-1.23-4.56.88-9.71,4.83-12.25,1.07-.69,2.26-1.16,3.52-1.38.22-.03.12-.39-.12-.35Z"/>
        <path d="m128.8,77.32c-1.27-1.11-2.63-2.09-4.2-2.72-1.85-.74-3.85-.97-5.82-1.16-1.24-.12-2-1.01-2.67-1.98-.08-.12-.24-.12-.32,0-.55.81-.86,1.76-1.06,2.71-.09.44-.27,1.05-.16,1.5.13.54.25,1.07.35,1.61.42,2.31.46,4.68.1,6.99-.03.2.22.33.34.14.64-.97,1.07-2.07,1.71-3.05h-.32c.46.86.76,1.79,1.07,2.71.06.19.29.17.36,0,1.3-3.2,3.83-5.82,6.94-7.3-.09-.04-.18-.07-.28-.11.35,1.11.43,2.27.22,3.41-.03.18.17.31.31.18,1.06-.97,2.2-1.85,3.39-2.65.2-.13,0-.46-.19-.32-1.22.81-2.38,1.72-3.47,2.71.1.06.21.12.31.18.22-1.21.15-2.44-.22-3.61-.04-.12-.16-.16-.28-.11-3.21,1.52-5.77,4.24-7.11,7.53h.36c-.32-.95-.63-1.91-1.11-2.8-.07-.13-.25-.11-.32,0-.64.97-1.07,2.07-1.71,3.05.11.05.23.1.34.14.34-2.19.33-4.42,0-6.61-.08-.54-.19-1.09-.31-1.62-.07-.29-.16-.55-.14-.85.02-.27.07-.54.12-.81.18-.99.49-1.99,1.06-2.83h-.32c.53.77,1.12,1.55,2,1.93.51.22,1.05.23,1.59.29.59.06,1.17.13,1.75.22,1.75.28,3.46.76,4.99,1.68.87.52,1.66,1.15,2.42,1.81.2.16.46-.11.28-.26Z"/>
        <g>
          <path d="m138.78,76.6c-.9-.78-1.53-1.76-2.06-2.81-.58-1.14-.97-2.38-1.23-3.63-.14-.66-.11-1.24.02-1.9,0-.03.04-.23.05-.23,0,0,.08.22.06.17.04.1.08.2.13.3.13.32.24.64.32.97.28,1.18.57,2.33,1.06,3.45.27.61.57,1.21.88,1.8.16.3.32.6.48.91.08.15.16.3.24.46.03.06.34.68.02.48-.2-.13-.39.19-.19.32.39.24.88-.13.71-.56-.13-.32-.33-.63-.49-.93-.2-.37-.4-.74-.59-1.11-.72-1.38-1.31-2.81-1.64-4.34-.08-.37-.15-.76-.28-1.12-.05-.16-.12-.31-.18-.46-.07-.17-.12-.39-.22-.54s-.26-.21-.43-.15c-.28.1-.28.47-.33.71-.29,1.46.23,3.02.75,4.38.58,1.52,1.43,3.03,2.67,4.1.16.15.43-.11.25-.27Z"/>
          <path d="m134.23,74.64c-.26-1.3-.29-2.59-.25-3.91.02-.65,0-1.3-.06-1.95-.02-.18,0-.39-.17-.5-.11-.07-.26-.08-.37,0-.17.1-.19.34-.25.51-.09.29-.17.57-.24.87-.13.58-.2,1.18-.23,1.77-.06,1.22.03,2.48.41,3.64.04.13.16.16.28.11.25-.11.5-.21.75-.3.23-.08.13-.44-.1-.36-.28.1-.56.21-.84.33.09.04.18.07.28.11-.34-1.02-.43-2.12-.41-3.19,0-.53.05-1.06.14-1.58.09-.48.24-.94.36-1.41.04-.16.02-.13.02.02,0,.14.02.28.03.43.02.26.03.53.03.79,0,.52-.02,1.04-.03,1.57-.02,1.07.08,2.12.29,3.17.05.22.41.12.36-.11Z"/>
          <path d="m132.09,75.56c-.32-.94-.57-1.9-.61-2.89-.02-.47,0-.94-.03-1.41,0-.22-.02-.43-.05-.65-.02-.16-.02-.36-.13-.49-.53-.63-1,.7-1.09,1.04-.2.74-.18,1.53-.08,2.28.12.93.4,1.83.86,2.65.05.09.17.12.26.07.25-.14.51-.27.78-.39.22-.1.03-.42-.19-.32-.26.12-.52.25-.78.39.09.02.17.04.26.07-.46-.81-.73-1.71-.83-2.64-.09-.82-.1-1.7.25-2.46.04-.08.08-.16.12-.24.09-.15.16-.28.2,0,.03.23.04.47.05.7.02.49,0,.98.03,1.47.04,1.01.29,1.98.62,2.93.08.23.44.13.36-.1Z"/>
          <path d="m123.12,77.93c.22-.15.44-.3.67-.44.07-.04.11-.13.09-.21-.16-.44-.44-.85-.74-1.2-.3-.36-.67-.69-1.09-.91-.19-.1-.46-.2-.67-.15-.2.05-.33.29-.24.48.09.2.25.36.4.5.17.16.33.31.48.48.36.41.64.88.86,1.37.02.11.15.13.24.08.1-.05.11-.16.07-.26-.33-.74-.79-1.37-1.38-1.92-.11-.1-.29-.24-.33-.39-.01-.03-.01.02,0,.02.03,0,.08,0,.12,0,.1.02.19.06.27.1.35.18.65.45.91.74.29.33.58.72.73,1.14.03-.07.06-.14.09-.21-.23.14-.45.28-.67.44-.2.15-.01.47.19.33Z"/>
          <path d="m122.22,78.48c-.02-.1-.09-.21-.14-.3-.07-.14-.15-.27-.23-.4-.14-.23-.3-.44-.47-.65-.34-.41-.71-.79-1.14-1.11-.18-.14-.4-.25-.64-.2-.23.05-.26.32-.21.51.06.23.24.42.38.61.16.22.33.43.49.65.38.5.71,1.02.97,1.59.05.11.22.11.29.04.2-.19.42-.38.64-.56.19-.15-.08-.42-.27-.27-.22.18-.43.36-.64.56.1,0,.2.03.29.04-.23-.53-.54-1.01-.88-1.48-.18-.24-.37-.47-.55-.72-.08-.11-.16-.22-.24-.33-.04-.05-.07-.1-.1-.15-.02-.04-.02-.11-.04-.14,0-.04-.01-.03-.02.02h.08c.06,0,.12.06.17.09.11.08.22.17.33.26.22.18.41.38.6.59.19.22.37.44.53.69.08.13.16.26.23.39.06.11.15.24.18.36.08.24.44.14.39-.09Z"/>
          <path d="m120.3,80.33c-.68-1.59-1.63-3.04-2.81-4.31-.19-.2-.39-.44-.69-.31-.24.1-.32.36-.2.59.2.39.5.75.73,1.12.23.39.46.78.67,1.18.49.91.88,1.85,1.26,2.81.06.15.25.19.34.04.21-.31.43-.61.67-.9.15-.19-.11-.45-.27-.27-.26.32-.5.64-.73.98.11,0,.23.03.34.04-.36-.88-.7-1.75-1.14-2.59-.23-.44-.47-.88-.73-1.31-.12-.2-.24-.4-.37-.6-.12-.19-.29-.38-.39-.58-.06-.12-.09-.22.07-.11.08.06.16.17.23.24.15.16.3.33.44.5.32.37.61.76.89,1.17.53.78.99,1.63,1.36,2.5.1.22.43.03.33-.19Z"/>
          <path d="m118.98,82.43c.04-.27-.06-.61-.12-.88-.08-.33-.18-.65-.31-.96-.25-.58-.58-1.13-.96-1.63-.14-.18-.28-.37-.53-.27-.25.1-.24.33-.14.53.3.65.59,1.3.78,1.99.21.74.25,1.51.39,2.26.03.15.28.19.34.04.16-.36.34-.7.53-1.04.12-.21-.21-.4-.32-.19-.19.34-.37.69-.53,1.04.11,0,.23.03.34.04-.12-.67-.16-1.35-.33-2.02-.17-.7-.44-1.37-.74-2.02-.02-.05-.14-.38-.21-.3,0,0,.31.42.34.46.19.27.36.55.51.85.15.31.28.62.38.95.05.16.08.32.12.48.03.16.12.4.1.56-.04.24.32.34.36.11Z"/>
          <g>
            <path d="m144.74,79.65c-.21.4-.43.8-.66,1.19-.12.2-.21.36-.4.49-.2.14-.42.25-.63.37-.76.43-1.54.81-2.34,1.17-1.6.71-3.25,1.29-4.88,1.91-2.81,1.07-5.69,2.26-7.88,4.37-.3.29-.56.66-.87.93-.34.3-.36-.2-.36-.4v-1.21c0-.15-.16-.22-.28-.16-.89.42-1.71.97-2.43,1.63-.38.35-.74.73-1.06,1.13-.08.11-.22.34-.37.34-.12,0-.26-.21-.32-.3-.14-.18-.29-.36-.44-.53-1.26-1.4-2.95-2.38-4.77-2.82-.13-.03-.28.09-.23.23.62,1.7.28,3.5.18,5.25-.05.83-.05,1.67.13,2.48.04.16.13.35.14.52.03.38-.36.29-.58.21-.34-.12-.6-.38-.81-.67-.39-.53-.62-1.2-1.13-1.63-.5-.43-1.2-.45-1.79-.22-1.39.52-1.8,2.05-1.9,3.39-.07.88-.03,1.79.18,2.65.12.48.31.96.6,1.36.14.19.3.37.49.52.1.08.21.15.32.21.12.06.34.11.43.21.29.32-.33.38-.49.42-.15.04-.29.08-.43.14-.33.13-.64.29-.92.49-.54.38-1.01.89-1.32,1.48-.05.09-.15.23-.15.34.01.13.14.25.21.35.21.26.46.48.73.67.53.37,1.17.59,1.82.62.2,0,.39,0,.59-.02.05,0,.15-.04.21-.03.26.05.22.33.01.4-.36.12-.87.06-1.23,0-.76-.13-1.49-.48-2.06-1-.23-.22-.77-.69-.7-1.05.08-.37.39-.79.61-1.09.52-.68,1.22-1.2,2.01-1.52.12-.05.2-.21.08-.31-.92-.77-1.28-1.99-1.4-3.15-.11-1.04-.06-2.14.22-3.14.09-.33.22-.65.38-.95.12-.21.32-.39.37-.62.07-.34.11-.69.16-1.04.18-1.14.36-2.28.51-3.42.33-2.52.57-5.12.24-7.65-.27-2.07-1.02-4.33-2.95-5.41-.59-.33-1.25-.53-1.93-.62-.36-.05-.73-.07-1.09-.07-.2,0-.41,0-.61.02-.19,0-.46.09-.64.06-.3-.05-.25-.34-.26-.58,0-.2-.01-.41,0-.61.01-.42.03-.84.08-1.25.11-.81.36-1.61.89-2.25.09-.11.06-.26-.08-.31-1.01-.37-1.78-1.16-2.63-1.8-.67-.51-1.48-.98-2.35-.71-.08.02-.16.06-.23.09-.16.11-.28.07-.37-.14.01-.08.03-.15.05-.22.06-.22.13-.43.21-.64.17-.43.38-.84.64-1.22.52-.77,1.2-1.4,1.99-1.88.14-.08.11-.3-.04-.34-1.59-.48-2.72-1.83-3.74-3.07-1.04-1.27-2.07-2.73-3.59-3.46-.03.12-.06.23-.09.35.35.03.69.07,1.04.12.15.02.31.04.46.07.18.04.28.15.41.28.47.44.89.93,1.3,1.42.74.89,1.44,1.84,2.29,2.64.7.66,1.53,1.22,2.51,1.37.24.03.48.05.72.03.19,0,.49.03.31.29-.1.14-.31.16-.46.22-.48.18-.93.42-1.34.73-.93.68-1.64,1.61-2.06,2.68-.04.1.07.25.18.24,1.1-.15,2.02.52,2.83,1.17.74.6,1.54,1.39,2.52,1.52.12.02.34,0,.42.12.08.16-.1.28-.19.35-.16.13-.31.28-.44.44-.23.29-.4.63-.52.98-.3.88-.33,1.84-.31,2.76,0,.09.08.2.19.19,1.6-.14,3.28.05,4.62,1.01,1.1.79,1.8,2,2.21,3.27.91,2.84.68,6,.34,8.91-.18,1.54-.44,3.07-.66,4.6-.02.16.12.29.28.21.78-.4,1.76-.5,2.49.06.65.51.91,1.35,1.43,1.97.13.16.34-.02.31-.18-.3-1.78.11-3.56.1-5.35,0-.75-.09-1.51-.38-2.21-.06-.15-.17-.3-.22-.46-.16-.48.37-.32.61-.27.46.09.91.22,1.35.37.13.04.23-.07.24-.18.06-.6.17-1.18.34-1.75.08-.27.16-.54.27-.79.05-.1.3-.6.41-.57.15.04-.37,1.42-.42,1.56-.19.56-.35,1.13-.5,1.7-.03.11.04.19.13.23.43.18.85.39,1.25.63.13.08.27-.02.28-.16.05-.51.14-1.01.32-1.5.09-.24.2-.47.35-.68.08-.11.15-.2.26-.28.03-.02.07-.05.1-.08.05-.09.05-.1.03-.02-.04.47-.34.94-.51,1.37-.19.47-.32.95-.4,1.45-.01.09.01.16.09.21.48.33.93.7,1.35,1.11.09.09.29.06.31-.08.13-.94.43-1.82.81-2.68.16-.37.34-.73.56-1.07.23-.37.52-.63.81-.94q.02-.09,0-.02c-.02.05-.03.1-.05.16-.03.1-.07.2-.11.31-.09.22-.19.44-.3.65-.21.42-.44.84-.63,1.27-.39.87-.68,1.78-1.01,2.68-.02.06.01.14.05.18.1.11.2.22.3.33.06.07.2.07.27,0,.5-.59,1.06-1.12,1.67-1.6.05-.04.06-.12.05-.18-.09-.52.2-1.07.42-1.53.21-.44.46-.87.72-1.28.29-.45.59-.88.92-1.3.28-.35.58-.72.97-.95.04-.03.09-.05.13-.07q.06-.03,0,0c0,.11-.11.24-.17.34-.13.22-.28.42-.43.62-.3.39-.59.79-.87,1.19-.57.83-1.06,1.71-1.56,2.58-.09.15.1.37.26.26.4-.27.81-.52,1.24-.73.17-.09.44-.16.59-.28.12-.1.17-.3.23-.44.38-.8,1.1-1.6,1.79-2.15.17-.14.35-.28.54-.39.06-.04.5-.26.51-.23,0,.07-.32.38-.38.45-.14.15-.28.3-.42.45-.32.33-.65.64-.97.97-.31.33-.61.69-.94,1-.07.07-.07.19,0,.27.16.16.1.48.1.68v.57c0,.16.21.25.32.13.37-.37.75-.72,1.16-1.04.21-.16.42-.32.63-.47.16-.11.41-.22.54-.37.12-.14.14-.43.22-.6.11-.22.27-.42.42-.62.31-.39.63-.78.9-1.2.26-.4.48-.82.74-1.23.07-.1.13-.21.2-.31.05-.07.1-.24.06-.05-.07.27-.11.52-.22.78-.42.96-1.11,1.74-1.84,2.48-.15.15.04.4.23.29.83-.48,1.69-.91,2.56-1.3.1-.04.11-.17.07-.26-.05-.09.88-.78.98-.86.35-.28.7-.55,1.03-.84.7-.6,1.22-1.32,1.83-2,.12-.13.25-.25.36-.4.1-.14,0,0-.02.07-.04.09-.05.19-.08.27-.13.44-.39.81-.68,1.16-.58.71-1.3,1.33-2.05,1.86-.16.11-.07.43.14.34,3.56-1.4,7.39-2.5,10.41-4.95.19-.15-.08-.42-.27-.27-2.96,2.4-6.75,3.47-10.24,4.85.05.11.1.23.14.34.93-.65,1.84-1.43,2.48-2.38.27-.39.46-.84.54-1.31.07-.39-.3-.63-.59-.33-.78.81-1.39,1.74-2.25,2.48-.45.39-.92.74-1.38,1.11-.29.24-.92.6-.69,1.04.02-.09.04-.17.07-.26-.88.39-1.74.82-2.56,1.3.08.1.15.2.23.29.67-.68,1.28-1.38,1.73-2.23.15-.29.86-1.79.13-1.79-.3,0-.49.41-.63.62-.26.4-.48.82-.73,1.22-.49.77-1.21,1.4-1.51,2.27-.08.23-.33.33-.52.46-.19.14-.38.28-.57.43-.44.34-.86.71-1.25,1.11.11.04.21.09.32.13v-.75c0-.29.02-.54-.21-.77v.27c.38-.37.72-.78,1.09-1.17.38-.4.79-.78,1.17-1.18.2-.21.63-.56.57-.89-.08-.45-.57-.26-.83-.13-.88.46-1.6,1.21-2.19,1.99-.18.24-.36.49-.51.76-.04.07-.07.14-.1.22-.08.19-.18.22-.36.3-.52.24-1.02.53-1.49.86.09.09.17.17.26.26.49-.86.97-1.72,1.52-2.53.49-.73,1.18-1.41,1.51-2.24.1-.24.06-.62-.29-.56-.35.05-.71.39-.95.63-.63.64-1.16,1.43-1.62,2.2-.28.46-.52.93-.73,1.43-.19.45-.35.89-.27,1.38.02-.06.03-.12.05-.18-.61.48-1.17,1-1.67,1.6h.27c-.1-.11-.2-.22-.3-.33.02.06.03.12.05.18.4-1.11.76-2.22,1.3-3.28.24-.47.49-.94.68-1.43.1-.25.37-.87-.13-.89-.35,0-.74.52-.93.77-.29.37-.52.78-.72,1.2-.47.98-.84,2-.99,3.07.1-.03.21-.06.31-.08-.44-.43-.92-.82-1.42-1.16.03.07.06.14.09.21.12-.74.39-1.39.67-2.08.12-.29.26-.63.29-.94.02-.18-.09-.33-.27-.35-.21-.03-.41.17-.56.29-.22.19-.4.48-.52.74-.3.62-.43,1.29-.49,1.97.09-.05.19-.11.28-.16-.43-.25-.88-.47-1.34-.66.04.08.09.15.13.23.21-.76.43-1.51.69-2.25.1-.3.56-1.51-.09-1.52-.24,0-.43.25-.56.42-.2.26-.31.57-.41.88-.25.73-.4,1.47-.48,2.23.08-.06.16-.12.24-.18-.52-.18-1.04-.32-1.58-.41-.34-.06-.69-.07-.86.29s.15.71.28,1.03c.17.44.27.91.31,1.39.17,2.03-.41,4.05-.06,6.07.1-.06.21-.12.31-.18-.6-.73-.87-1.72-1.76-2.19-.83-.44-1.8-.32-2.61.1.09.07.18.14.28.21.44-3.01.96-6.01.94-9.07-.02-2.72-.41-5.99-2.64-7.85-1.45-1.21-3.35-1.5-5.18-1.34.06.06.12.12.19.19-.02-.82,0-1.66.23-2.45.1-.35.25-.7.47-1,.1-.14.23-.27.36-.39.13-.11.28-.19.36-.35.13-.25.05-.57-.18-.73-.15-.1-.31-.09-.49-.11-.23-.03-.46-.11-.67-.21-.81-.4-1.46-1.08-2.19-1.62-.75-.55-1.61-1-2.57-.87.06.08.12.16.18.24.43-1.1,1.22-2.06,2.23-2.69.22-.14.45-.26.69-.37.25-.11.57-.15.79-.31.36-.27.26-.84-.15-.99-.22-.08-.47-.02-.69-.02-.3,0-.6-.07-.88-.16-.52-.17-.99-.48-1.41-.83-.94-.79-1.68-1.78-2.45-2.72-.49-.6-1-1.19-1.57-1.72-.1-.09-.2-.22-.33-.27-.17-.07-.4-.07-.57-.1-.4-.06-.8-.11-1.2-.14-.18-.02-.26.27-.09.35,1.58.76,2.62,2.33,3.71,3.64,1.01,1.22,2.15,2.46,3.71,2.93-.01-.11-.03-.23-.04-.34-1.34.81-2.38,2.07-2.89,3.55-.1.29-.28.7-.13,1s.49.36.78.24c.43-.17.82-.21,1.26-.05.43.16.82.45,1.18.73.82.64,1.58,1.37,2.58,1.73-.03-.1-.06-.21-.08-.31-.92,1.1-1.09,2.59-1.08,3.97,0,.52-.11,1.37.64,1.36.38,0,.77-.08,1.15-.08.35,0,.7,0,1.05.05,1.25.16,2.4.72,3.19,1.71.68.86,1.06,1.92,1.28,2.97.55,2.54.33,5.23.03,7.79-.15,1.27-.34,2.54-.55,3.8-.06.38-.12.77-.18,1.15-.02.14-.04.25-.1.37-.18.34-.4.64-.54,1-.45,1.15-.51,2.49-.39,3.71.13,1.25.51,2.58,1.51,3.42.03-.1.06-.21.08-.31-.97.39-1.81,1.05-2.39,1.92-.23.34-.63.91-.48,1.34.15.43.58.85.92,1.14.77.65,1.76,1.03,2.76,1.04.38,0,.96.02,1.16-.38.17-.36-.07-.79-.47-.82-.27-.02-.55.06-.83.05-.31-.02-.62-.09-.92-.2-.61-.23-1.13-.64-1.5-1.17v.19c.42-.92,1.19-1.67,2.14-2.04.23-.09.46-.15.7-.2.2-.04.37-.1.47-.28.22-.38-.03-.72-.38-.87-1.37-.58-1.64-2.31-1.66-3.63-.01-.82.05-1.67.33-2.45.34-.95,1.38-1.97,2.48-1.51.52.22.79.81,1.06,1.27.21.36.45.72.78.99.29.24.73.44,1.12.37.46-.08.52-.52.41-.9-.4-1.3-.22-2.72-.11-4.05.11-1.36.18-2.75-.29-4.05-.08.08-.15.15-.23.23,2.01.48,3.83,1.64,5.08,3.29.23.3.6.53.94.23.17-.15.3-.38.45-.55.18-.21.37-.41.56-.61.78-.77,1.68-1.39,2.66-1.85-.09-.05-.19-.11-.28-.16v1.15c0,.4.05.93.6.91.34,0,.52-.34.73-.57.28-.31.59-.61.91-.89.62-.55,1.3-1.04,2.01-1.48,3.01-1.85,6.46-2.79,9.69-4.15.96-.4,1.9-.84,2.81-1.35.41-.23.9-.43,1.16-.84.29-.47.56-.95.82-1.44.07-.17-.25-.36-.36-.15Z"/>
            <path d="m93.25,72c-.14.7-.27,1.4-.38,2.11-.11.65-.27,1.34-.2,1.99.02.16.2.25.32.13.41-.41.85-.78,1.34-1.09.05-.03.1-.09.09-.16-.08-1.25.17-2.53.51-3.73.17-.61.36-1.21.59-1.79.09-.23.19-.46.31-.68.12-.22.27-.54.47-.69.17-.12.08.04.05.18-.04.15-.08.29-.13.43-.1.27-.21.53-.32.79-.23.54-.43,1.09-.59,1.65-.34,1.14-.53,2.32-.67,3.51-.02.15.17.22.28.16s.29-.18.42-.08c.1.07.29.07.31-.08.14-.94.4-1.88.73-2.77.07-.19.15-.38.25-.56.06-.09.12-.18.19-.26.02-.02.11-.13.13-.13.1,0,.06.21.05.27-.09.46-.31.87-.47,1.31-.33.93-.5,1.92-.68,2.89-.09.52-.18,1.05-.28,1.57-.04.24-.11.48-.1.72,0,.26.02.53.03.79.06,1.2.16,2.4.29,3.6.01.11.11.22.24.18.14-.05.29-.09.43-.13.08-.02.14-.1.14-.18,0-.8.1-1.59.24-2.37.13-.73.26-1.47.63-2.12.03-.06.08-.18.13-.21.06-.04.03,0,.03.1,0,.22,0,.43-.01.65-.04.43-.13.86-.22,1.29-.17.83-.27,1.67-.5,2.48-.04.15.09.25.23.23.18-.03.37-.05.55-.06.11,0,.18-.08.19-.19.1-1.17.47-2.36.9-3.45.23-.58.48-1.15.76-1.7.13-.26.27-.53.46-.75.08-.1.17-.18.26-.26.07-.06.22-.23.3-.25-.07-.05-.1-.02-.08.08-.01.07-.02.14-.04.21-.02.1-.04.21-.07.31-.1.32-.27.62-.42.91-.25.5-.48,1.01-.68,1.52-.44,1.08-.73,2.18-1.04,3.3-.03.12.06.23.18.24.27,0,.54.03.81.07.09,0,.22-.02.23-.13.12-.86.34-1.7.68-2.49.17-.41.38-.81.59-1.2.08-.14.16-.28.24-.42.04-.06.35-.51.46-.47.16.05-.36.89-.43,1.01-.2.35-.38.71-.54,1.09-.35.81-.63,1.64-.87,2.49-.03.1.03.21.13.23.14.03.3.06.43.12.22.11.18.3.13.5-.08.32-.15.65-.21.97-.05.24.28.33.36.1.37-1.05.8-2.09,1.32-3.07.25-.46.52-.91.84-1.33.15-.2.32-.39.49-.57.09-.09.18-.19.17-.02-.01.13-.17.33-.23.45-.56,1.03-1.21,1.99-1.7,3.06-.49,1.07-.88,2.19-1.23,3.31-.1.32-.19.63-.28.95-.09.32-.1.61-.1.94,0,.73.04,1.46.11,2.19.02.19.33.28.37.05.2-1.28.59-2.52,1.13-3.7.23-.5.47-.99.73-1.48.12-.22.25-.44.4-.64.07-.09.15-.18.24-.25.05-.04.11-.11.17-.13.1-.05.12-.08.14.04.04.23-.19.58-.29.77-.14.25-.3.5-.44.75-.29.5-.53,1.03-.75,1.56-.48,1.16-.86,2.36-1.16,3.58-.09.35-.17.69-.24,1.04-.07.31.02.6.09.91.15.71.34,1.41.55,2.1.05.16.33.2.36,0,.18-1.22.47-2.41.83-3.59.17-.56.37-1.1.57-1.65.16-.45.3-.92.59-1.3.02-.03.17-.23.22-.23.11,0,.01.35,0,.41-.07.3-.2.58-.33.86-.23.52-.43,1.05-.61,1.59-.39,1.16-.69,2.36-.94,3.56-.07.33-.13.66-.21.99-.03.13-.12.31-.11.45,0,.12.09.27.13.38.24.64.51,1.26.8,1.88.08.18.35.08.35-.09.02-1.28.25-2.54.57-3.77.15-.59.32-1.17.51-1.75.18-.56.34-1.13.62-1.65.06-.11.12-.21.19-.31.05-.07.08-.21.18-.14.08.05.05.11.03.2-.05.32-.15.63-.26.93-.2.57-.42,1.13-.6,1.71-.38,1.22-.64,2.46-.89,3.71-.07.34-.14.67-.21,1.01-.06.25-.22.61-.15.85.09.31.34.64.5.92.17.3.35.6.53.89.1.16.34.09.35-.09.12-1.66.67-3.34,1.23-4.9.24-.69.46-1.47.92-2.05.06-.08.09-.19.13-.08.02.05-.03.21-.04.27-.04.2-.1.39-.17.58-.13.36-.29.72-.43,1.08-.57,1.57-.96,3.17-1.36,4.78-.05.2-.1.4-.17.59-.04.12-.13.25-.09.39.09.29.62.64.53.96-.04.16-.21.32-.3.46-.09.15-.18.3-.26.46-.16.33-.29.67-.37,1.03-.36,1.58.18,3.22,1.12,4.5.1.14.35.11.35-.09-.03-1.96-.08-3.94.19-5.88.25-1.82.79-3.59,1.56-5.25.16-.34.32-.71.58-.99.25-.25.19-.04.12.18-.07.24-.19.47-.3.69-.41.82-.75,1.67-1.03,2.54-.55,1.75-.75,3.51-.78,5.33-.02,1.07-.03,2.14-.24,3.19-.04.18-.18.48-.13.66.04.15.23.29.34.4.33.34.7.65,1.09.93.15.11.29-.07.28-.21-.19-1.43-.07-2.94.07-4.37.14-1.4.39-2.77.61-4.16.09-.56.18-1.16.44-1.67.02-.05.15-.31.2-.32.15-.02.08.44.07.52-.05.37-.16.74-.24,1.1-.3,1.4-.54,2.82-.69,4.25-.09.82-.14,1.65-.17,2.48-.03.84-.01,1.68-.14,2.51-.01.08.01.17.09.21.41.24.83.44,1.27.6.14.05.26-.1.23-.23-.22-1.07-.1-2.23.21-3.28.06-.21.13-.43.25-.62.02-.03.2-.28.18-.28.03,0,.01.34.01.37-.05.54-.25,1.07-.34,1.6-.09.52-.15,1.05-.16,1.58,0,.27.01.55.02.82.02.26.03.32.22.51.7.71,1.07,1.66,1.34,2.6.06-.08.12-.16.18-.24-.15,0-.26,0-.41-.03.04.04.09.09.13.13-.16-.54-.36-1.07-.65-1.56-.24-.41-.58-.72-.87-1.06-.16-.18-.3-.22-.52-.28-.24-.07-.47-.15-.7-.25-.41-.18-.81-.41-1.18-.66-1.55-1.08-2.79-2.81-3.06-4.7-.16-1.11.07-2.21.64-3.17.07-.12-.02-.29-.16-.28-1.56.09-2.96,1.37-3.21,2.91-.06.38-.05.77.03,1.15.04.16.12.41-.14.42-.2,0-.31-.38-.38-.53-.49-.95-1.03-1.87-1.62-2.76-.67-1.02-1.4-2-2.18-2.94-.06-.07-.16-.06-.23-.03-.91.45-1.73,1.22-2.19,2.13-.08.16-.15.33-.22.49-.04.1-.15.54-.27.56-.07,0-.34-.21-.4-.24-.12-.07-.24-.13-.36-.19-.27-.14-.55-.26-.83-.37-2.18-.87-4.57-.95-6.89-1.09-2.42-.15-4.93-.38-7.08-1.6-1.03-.58-1.93-1.37-2.72-2.25-.2-.22-.39-.46-.58-.69-.18-.23-.35-.38-.61-.52-.49-.28-1.05-.47-1.61-.54-.16-.02-.32-.04-.48-.04-.3,0,.01-.09.14-.11.31-.04.62-.04.93,0,.66.06,1.31.29,1.83.71.27.22.48.5.72.74.25.25.51.49.78.72.53.44,1.09.83,1.68,1.17.19.11.37-.14.23-.29-.76-.79-1.47-1.7-1.84-2.75-.02-.07-.15-.68-.19-.7-.17.03-.2.09-.09.18.04.06.08.13.13.19.08.13.17.26.25.39.31.48.61.97.95,1.44.33.46.68.88,1.08,1.28.22.22.44.44.67.65.17.15.31.31.52.4,1.06.41,2.18.63,3.31.77.21.03.22-.25.09-.35-.97-.74-1.8-1.76-2.49-2.77-.16-.24-.33-.47-.47-.72-.05-.09-.1-.19-.15-.29-.04-.08-.07-.17-.1-.25-.13,0-.14.02-.03.09.05.1.21.2.29.29.09.1.18.21.27.31.2.24.39.49.58.74.72.94,1.48,1.81,2.29,2.66.09.1.21.28.32.35.09.05.23.04.33.05.16.02.32.03.47.05.64.06,1.28.12,1.91.19.18.02.23-.21.13-.32-.64-.74-1.28-1.49-1.98-2.19-.35-.35-.71-.7-1.06-1.05-.18-.18-.35-.36-.53-.53-.06-.06-.17-.21-.25-.24,0,0-.15-.05-.14.03,0,.02.17.09.19.1.86.46,1.62,1.01,2.3,1.71.7.71,1.24,1.48,1.71,2.35.11.21.22.19.45.22.3.04.6.08.9.13.59.09,1.17.21,1.74.36.19.05.3-.17.18-.31-.72-.84-1.43-1.69-2.19-2.5-.38-.41-.77-.81-1.14-1.23-.17-.19-.33-.38-.5-.57-.07-.08-.18-.27-.27-.31-.01,0-.03-.03-.04-.04-.02.04-.04.09-.06.13.01.03.19.13.23.16.89.62,1.66,1.34,2.37,2.15.72.81,1.39,1.64,1.96,2.57.13.22.34.24.58.32.27.1.54.21.81.33.55.26,1.07.57,1.56.93.1.08.24,0,.28-.11.06-.17.12-.33.2-.49.05-.11.14-.22.17-.33.05-.21-.18-.46-.29-.63-.29-.46-.63-.89-.98-1.3-.74-.89-1.5-1.76-2.24-2.65-.38-.46-.75-.94-1.08-1.43l-.21-.33c-.03-.05-.19-.38-.23-.38-.02.02-.04.03-.07.05-.09.04-.09.08.02.12.03.04.13.11.16.14.11.1.22.19.32.29.83.79,1.55,1.69,2.27,2.58.45.55.91,1.08,1.33,1.65.33.45.72.87,1.03,1.33.08.13.24.11.32,0,.19-.26.4-.49.63-.71.07-.07.07-.2,0-.27-.37-.35-.66-.77-.99-1.17-.36-.44-.72-.87-1.11-1.29-.36-.39-.74-.75-1.09-1.14-.08-.09-.16-.19-.24-.29-.03-.04-.07-.08-.1-.12-.04-.11-.08-.11-.11,0,.04.07.24.14.31.18.1.06.21.13.31.2,1.26.91,2.2,2.32,3.07,3.58.07.11.2.12.29.04.28-.22.58-.4.89-.56.12-.06.11-.21.04-.29-.33-.38-.63-.8-.93-1.2-.15-.2-.29-.42-.42-.64-.1-.19-.17-.42-.28-.59,0-.12-.04-.13-.13-.03.05.06.1.12.16.19.08.09.16.19.23.28.15.19.31.37.46.56.34.42.68.85,1.01,1.27,1.28,1.65,2.49,3.35,3.63,5.11.08.12.31.12.34-.04.09-.46.27-.89.5-1.3.03-.05.04-.14,0-.19-.64-.91-1.33-1.78-1.99-2.67-.3-.4-.59-.81-.85-1.24-.12-.2-.23-.41-.35-.6-.08-.13-.23-.44-.38-.52-.06-.11-.11-.09-.16.04.03,0,.06.02.09.03.13.09.27.14.4.24.16.13.3.28.43.44.35.41.66.86.98,1.3.63.89,1.28,1.76,1.84,2.69.06.1.21.13.29.04.21-.25.45-.47.7-.67.06-.05.12-.13.09-.21-.19-.48-.36-.97-.56-1.45-.1-.24-.2-.47-.3-.71-.05-.13-.11-.26-.16-.38-.02-.04-.03-.07-.05-.11-.01-.13-.06-.15-.16-.06,0,.04.22.27.23.29.06.08.12.17.18.26.13.2.25.42.35.63.21.44.38.91.48,1.38.03.12.17.17.28.11.5-.29,1.04-.47,1.62-.5.13,0,.25-.16.16-.28-1.09-1.61-2.01-3.34-2.71-5.15-.04-.1-.12-.15-.23-.13-.41.08-1-.21-1.38-.36-.4-.16-.79-.36-1.16-.59-.7-.42-1.33-.94-1.9-1.51-.58-.58-1.1-1.21-1.59-1.87-.24-.32-.47-.66-.69-.99-.12-.18-.24-.36-.35-.54-.09-.13-.3-.35-.3-.51-.08.06-.16.12-.24.18.14.03.27.05.41.07.15.02.22-.17.16-.28-.05-.1-.11-.2-.16-.3-.04.09-.07.18-.11.28.14-.04.63.73.71.83.24.3.5.6.76.89.5.56,1.03,1.09,1.6,1.58,1.08.92,2.32,1.7,3.72,1.99.13.03.28-.09.23-.23-1.17-3.73-1.46-7.72-.6-11.56.02-.1-.03-.2-.13-.23-.84-.23-1.71-.27-2.57-.13-.36.06-.72.15-1.06.27-.13.05-.22.11-.35.04-.13-.08-.12-.19-.14-.33-.04-.27-.07-.53-.11-.8-.25-1.94-.43-3.88-.45-5.83,0-.14-.16-.24-.28-.16-.68.42-1.31.89-1.87,1.46-.1.11-.27.19-.38.02-.09-.15-.03-.5-.04-.67-.02-.4-.06-.81-.11-1.21-.11-.85-.31-1.68-.58-2.49-.07-.21-.13-.46-.24-.66-.08-.16-.08-.22-.07-.42.02-.48.03-.97.03-1.45-.12.03-.23.06-.35.09.61,1.13,1.04,2.34,1.34,3.59.05.22.35.15.37-.05.08-.85.23-1.67.39-2.51.14-.72.29-1.45.56-2.14.07-.19.16-.37.25-.55.05-.1.16-.38.26-.43-.14.08-.12.47-.15.63-.04.21-.09.42-.14.62-.12.77-.35,1.6-.52,2.46-.05.24.32.34.36.1.2-1.04.54-2.06.74-3.1.06-.29.27-.94-.04-1.14-.33-.22-.55.25-.67.47-.45.79-.68,1.68-.86,2.56-.2.98-.38,1.96-.48,2.96.12-.02.25-.03.37-.05-.3-1.28-.75-2.52-1.38-3.68-.09-.17-.35-.09-.35.09,0,.53-.01,1.05-.04,1.58-.01.22.09.41.17.61.08.22.16.44.23.66.32,1,.52,2.04.59,3.09.02.25.02.5.03.76,0,.15,0,.29.09.42.14.21.41.31.65.24.15-.04.23-.14.34-.25.16-.17.33-.32.51-.47.39-.33.82-.62,1.25-.89-.09-.05-.19-.11-.28-.16.03,2.13.24,4.26.52,6.37.05.35.03.8.41.97.38.16.77-.16,1.14-.2.18-.02.33-.08.52-.12.26-.05.53-.06.8-.07.53,0,1.06.06,1.57.2-.04-.08-.09-.15-.13-.23-.87,3.9-.59,7.96.6,11.75.08-.08.15-.15.23-.23-1.54-.32-2.87-1.24-4-2.29-.57-.53-1.09-1.1-1.59-1.69-.27-.32-.52-.64-.77-.97-.17-.23-.31-.43-.62-.35-.12.03-.16.17-.11.28.05.1.1.2.16.3.05-.09.11-.19.16-.28-.1,0-.21-.03-.31-.05-.11-.02-.24.05-.24.18.01.21.15.37.25.54.11.18.23.36.35.54.25.39.52.77.79,1.14.53.72,1.1,1.42,1.75,2.04.64.62,1.34,1.18,2.12,1.61.39.22.81.41,1.23.57.42.16.91.36,1.36.27-.08-.04-.15-.09-.23-.13.72,1.85,1.63,3.6,2.75,5.24.05-.09.11-.19.16-.28-.65.03-1.25.23-1.81.55.09.04.18.07.28.11-.14-.61-.37-1.2-.66-1.75-.14-.26-.3-.5-.48-.73-.12-.16-.27-.43-.51-.41-.57.06-.01.95.09,1.19.29.68.55,1.37.81,2.05.03-.07.06-.14.09-.21-.29.22-.55.45-.78.73.1,0,.2.03.29.04-.5-.83-1.07-1.61-1.64-2.4-.51-.71-1-1.54-1.68-2.11-.2-.17-.59-.46-.88-.38-.33.09-.17.41-.01.57.3.31.48.71.7,1.08.25.41.53.8.81,1.19.67.91,1.38,1.8,2.02,2.72v-.19c-.25.43-.44.89-.54,1.38.11,0,.23-.03.34-.04-1.33-2.05-2.76-4.03-4.29-5.94-.39-.49-.79-.97-1.19-1.45-.12-.15-.24-.32-.46-.22-.15.07-.18.23-.16.38.07.48.43.98.71,1.37.33.47.68.94,1.05,1.37.01-.1.03-.2.04-.29-.35.17-.66.38-.97.61.1,0,.2.03.29.04-.78-1.13-1.59-2.26-2.59-3.2-.32-.31-.66-.57-1.04-.8-.22-.13-.55-.34-.7,0-.13.3.31.67.49.87.31.37.67.7,1,1.05.4.43.78.87,1.15,1.32.35.42.67.88,1.06,1.26v-.27c-.25.24-.48.5-.69.79h.32c-.28-.42-.63-.79-.92-1.19-.38-.51-.78-1-1.19-1.49-.76-.91-1.48-1.85-2.31-2.69-.2-.21-.41-.41-.63-.6-.13-.12-.32-.35-.52-.31-.52.09.03.78.15.97.65,1.02,1.45,1.94,2.23,2.86.87,1.04,1.83,2.04,2.5,3.23v-.19c-.15.28-.28.58-.39.88.09-.04.18-.07.28-.11-.47-.35-.98-.65-1.51-.9-.24-.12-.49-.22-.74-.32-.12-.05-.24-.09-.36-.13-.19-.06-.21-.12-.32-.28-.62-.99-1.38-1.89-2.17-2.75-.41-.44-.83-.87-1.3-1.25-.2-.16-.4-.32-.61-.47-.18-.13-.46-.42-.69-.45-.13-.02-.26.04-.33.16-.1.2.09.35.21.49.42.46.82.94,1.24,1.4.97,1.03,1.9,2.1,2.82,3.17.06-.1.12-.21.18-.31-.98-.25-1.98-.4-2.99-.53.05.03.11.06.16.09-.53-1.03-1.2-1.92-2.02-2.73-.41-.4-.84-.77-1.32-1.08-.25-.16-.5-.3-.76-.44-.16-.09-.38-.26-.57-.24-.13,0-.23.12-.26.24-.04.2.13.32.26.44.44.41.86.85,1.29,1.27.88.86,1.69,1.77,2.49,2.7.04-.11.09-.21.13-.32-.87-.09-1.75-.17-2.62-.26.05.03.11.06.16.09-.27-.36-.62-.66-.93-.98-.4-.42-.78-.88-1.14-1.33s-.7-.91-1.05-1.36c-.17-.21-.35-.42-.54-.61-.12-.11-.27-.29-.45-.27-.81.08.69,2.05.88,2.29.66.88,1.41,1.76,2.29,2.43.03-.12.06-.23.09-.35-1-.12-1.99-.32-2.95-.66-.48-.17-.82-.57-1.17-.92-.38-.37-.73-.77-1.04-1.19-.29-.4-.57-.82-.83-1.24-.13-.21-.27-.42-.4-.63-.11-.17-.22-.43-.38-.55-.21-.15-.43.03-.42.26.02.41.21.85.37,1.22.41.93,1.07,1.75,1.77,2.49.08-.1.15-.2.23-.29-.6-.34-1.16-.73-1.69-1.18-.26-.22-.5-.45-.74-.69-.24-.25-.45-.52-.72-.74-.9-.73-2.1-.92-3.22-.75-.2.03-.39.08-.46.29-.07.2.04.42.24.5.24.09.57.03.82.07.36.06.71.16,1.04.31.25.11.55.24.74.45.21.23.39.5.6.74.41.48.86.93,1.34,1.34,1.98,1.69,4.42,2.36,6.97,2.62,2.58.26,5.22.16,7.73.9.7.21,1.37.48,2,.83.23.13.51.4.79.31.23-.07.27-.31.35-.51.44-1.18,1.23-2.16,2.37-2.73-.08,0-.15-.02-.23-.03,1.45,1.75,2.72,3.65,3.76,5.68.16.3.28.68.68.66.27,0,.53-.21.57-.49.02-.17-.05-.33-.08-.49-.05-.23-.06-.47-.04-.71.04-.44.19-.87.42-1.25.52-.86,1.43-1.49,2.44-1.55-.05-.09-.11-.19-.16-.28-2.11,3.5.65,7.95,4.15,9.22.23.08.52.11.7.27.18.17.4.39.56.6.42.56.69,1.22.89,1.89.02.06.07.12.13.13.18.03.33.05.51.04.12,0,.22-.11.18-.24-.24-.84-.55-1.67-1.09-2.37-.12-.15-.27-.28-.39-.44-.13-.19-.09-.5-.1-.73-.01-.53.02-1.07.11-1.59.08-.49.21-.97.32-1.46.06-.28.2-.9-.06-1.12-.24-.2-.52.09-.66.28-.23.3-.34.67-.43,1.02-.28,1.07-.39,2.23-.16,3.31.08-.08.15-.15.23-.23-.41-.15-.81-.34-1.18-.57.03.07.06.14.09.21.12-.79.12-1.59.15-2.38.03-.84.08-1.69.16-2.53.17-1.69.46-3.36.85-5.02.09-.37.34-1.44-.32-1.43-.49,0-.72.87-.82,1.23-.17.64-.25,1.3-.37,1.95-.15.8-.27,1.6-.36,2.41-.21,1.77-.4,3.64-.16,5.41.09-.07.18-.14.28-.21-.48-.34-.91-.74-1.3-1.18.02.06.03.12.05.18.47-1.8.32-3.66.44-5.49.13-1.9.66-3.82,1.46-5.55.16-.34.35-.68.49-1.03.11-.27.3-.75.01-.97-.51-.4-1.04.66-1.2,1-.78,1.61-1.34,3.34-1.64,5.11-.36,2.14-.31,4.31-.28,6.46.12-.03.23-.06.35-.09-.98-1.33-1.52-3.05-.96-4.66.13-.38.33-.75.55-1.08.18-.27.4-.51.24-.85-.06-.13-.17-.25-.25-.37-.12-.18-.25-.28-.2-.5.11-.43.24-.86.34-1.3.21-.9.44-1.79.72-2.67.27-.84.59-1.65.91-2.48.13-.34.28-.74.25-1.11-.02-.21-.19-.43-.42-.37-.26.06-.47.44-.6.65-.19.32-.33.67-.46,1.02-.36.96-.68,1.92-.96,2.91-.27.95-.52,1.94-.59,2.93.12-.03.23-.06.35-.09-.18-.29-.36-.59-.53-.89-.08-.13-.15-.27-.22-.4-.08-.14-.22-.32-.22-.48-.01-.14.08-.33.11-.47.04-.18.08-.36.12-.53.08-.38.16-.75.23-1.13.28-1.4.62-2.79,1.1-4.13.22-.6.49-1.2.56-1.84.04-.36-.26-.74-.64-.51-.19.12-.34.4-.44.59-.15.27-.27.57-.38.86-.22.62-.42,1.25-.6,1.88-.43,1.52-.77,3.08-.8,4.67.12-.03.23-.06.35-.09-.29-.61-.6-1.25-.81-1.9-.1-.31.06-.67.13-.98.07-.33.13-.66.2-.99.3-1.34.66-2.65,1.14-3.94.21-.57.55-1.12.66-1.72.06-.31.07-.94-.44-.8-.41.11-.68.7-.83,1.05-.22.51-.39,1.04-.57,1.56-.51,1.45-.9,2.93-1.12,4.46h.36c-.21-.67-.39-1.35-.54-2.04-.04-.17-.08-.35-.11-.52-.02-.19.03-.35.07-.54.08-.35.16-.69.25-1.04.36-1.38.8-2.75,1.42-4.03.27-.57.64-1.09.91-1.65.15-.32.47-.98.06-1.22-.38-.23-.86.34-1.06.61-.33.43-.55.93-.79,1.41-.72,1.41-1.25,2.92-1.5,4.49.12.02.25.03.37.05-.07-.71-.11-1.42-.11-2.13,0-.38.03-.7.14-1.07.1-.34.2-.67.3-1.01.41-1.31.89-2.6,1.52-3.83.29-.57.62-1.11.96-1.66.16-.27.32-.54.47-.82.1-.2.27-.45.17-.68-.41-.96-1.7,1.13-1.9,1.45-.7,1.16-1.23,2.45-1.68,3.73.12.03.24.07.36.1.05-.27.11-.54.17-.8.05-.21.13-.42.09-.64-.09-.44-.5-.52-.87-.61.04.08.09.15.13.23.31-1.06.66-2.12,1.17-3.1.15-.29,1.27-1.91.4-1.99-.33-.03-.65.38-.82.62-.28.4-.5.86-.71,1.3-.45.95-.75,1.94-.9,2.98.08-.04.15-.09.23-.13-.3-.04-.61-.07-.91-.09.06.08.12.16.18.24.29-1.03.55-2.04.94-3.03.2-.53.43-1.04.68-1.55.23-.46.5-.91.6-1.42.05-.25.23-.73-.13-.84-.15-.05-.26.04-.37.13-.18.14-.36.28-.51.45-.34.38-.56.86-.78,1.31-.22.46-.43.94-.61,1.42-.43,1.1-.78,2.31-.89,3.49.06-.06.12-.12.19-.19-.22.02-.44.04-.65.08.08.08.15.15.23.23.28-1,.42-2.04.61-3.06.05-.3.44-2.36-.37-1.98-.3.14-.48.67-.59.95-.17.42-.27.87-.36,1.32-.18.95-.32,1.9-.32,2.87.05-.06.09-.12.14-.18-.15.04-.29.08-.43.13.08.06.16.12.24.18-.13-1.22-.23-2.44-.29-3.66-.01-.3-.05-.62-.02-.92.04-.33.12-.65.18-.97.11-.58.2-1.16.31-1.74.11-.57.23-1.14.39-1.69.15-.53.4-1.01.55-1.54.09-.31.25-.86-.16-1.01-.36-.14-.68.33-.83.6-.27.46-.42,1-.57,1.51-.19.62-.35,1.26-.45,1.91.1-.03.21-.06.31-.08-.32-.25-.54-.15-.88.02.09.05.19.11.28.16.13-1.11.31-2.22.62-3.3.15-.53.33-1.05.54-1.56.2-.49.43-.96.55-1.48.07-.28.1-.73-.32-.72-.34,0-.63.53-.78.79-.52.87-.82,1.91-1.08,2.89-.32,1.19-.56,2.47-.49,3.71.03-.05.06-.11.09-.16-.51.33-.98.72-1.41,1.15.11.04.21.09.32.13-.07-.66.1-1.36.21-2.02s.23-1.33.36-1.99c.04-.23-.32-.33-.37-.09Z"/>
          </g>
        </g>
      </g>
      <g>
        <path d="m165.67,72.62c.51.82,1.76,1.14,2.67,1.15,1.05.02,1.99-.41,2.82-1.03s1.57-1.38,2.5-1.84c.47-.23,1.13-.37,1.27.3.1.5-.18.91-.59,1.16-.95.58-2.2.46-2.93,1.42-.06.07-.02.22.07.26.77.33,1.26,1.22.99,2.05-.13.41-.43.74-.8.95-.44.25-.89.23-1.38.14-.4-.07-.81-.13-1.18.07-.27.15-.52.42-.53.75,0,.37.29.58.55.79.39.33.53.78.49,1.28,0,.14.17.24.28.16.87-.62,1.69-1.24,2.42-2.02.83-.89,1.63-1.79,2.41-2.72,1.54-1.83,2.99-3.72,4.36-5.68,1.35-1.94,2.62-3.95,3.76-6.02.84-1.53,1.16-3.31,1.22-5.04.04-.98,0-1.98-.18-2.95-.14-.79-.36-1.6-.79-2.28-.13-.2-.44-.02-.32.19.8,1.42.97,3.17.38,4.69-.54,1.41-1.73,2.45-3.04,3.14-.16.09-.09.36.09.35.47-.02.96-.03,1.43.05.34.06.86.18.86.61,0,.66-.78,1.23-1.24,1.6-.67.54-1.41.99-2.1,1.52-.13.1-.11.37.09.35.35-.03.68.13.85.44.21.39.06.83-.21,1.14-.51.57-1.23.7-1.95.69-.53,0-1.12.19-1.14.81,0,.24.07.47.11.71.07.42-.12.74-.54.87-.83.25-1.15-.66-1.83-.89-.65-.22-1.34.1-1.93.36-.7.31-1.35.48-2.12.45-.7-.03-1.4-.16-2.1-.19-.72-.03-1.48.04-2.08.46-.58.36-.96,1.08-.64,1.75.1.22.43.03.32-.19-.41-.84.69-1.48,1.36-1.61.71-.14,1.46-.03,2.18.05.71.08,1.43.15,2.13,0,.73-.15,1.37-.61,2.1-.76.41-.08.76,0,1.08.28.27.24.49.52.84.63.56.18,1.3-.05,1.55-.61.1-.23.09-.47.05-.71-.05-.3-.22-.67.06-.9.29-.24.74-.12,1.09-.14.35-.02.68-.11.99-.26.63-.3,1.23-.89,1.17-1.63-.05-.67-.65-1.19-1.32-1.13.03.12.06.23.09.35.79-.6,1.65-1.12,2.41-1.77.49-.42,1.17-1.04,1.11-1.76-.1-1.09-1.91-.98-2.66-.94.03.12.06.23.09.35,1.4-.73,2.64-1.86,3.21-3.36.62-1.62.42-3.49-.42-4.98-.11.06-.22.13-.32.19.81,1.3.94,3.02.93,4.51,0,1.7-.25,3.52-1.01,5.05-.47.95-1.04,1.86-1.59,2.76-.6.99-1.23,1.96-1.89,2.92-1.32,1.95-2.74,3.83-4.23,5.65-.82,1-1.67,1.97-2.54,2.92-.38.42-.76.85-1.2,1.22-.49.42-1.01.79-1.53,1.16.09.05.19.11.28.16.03-.44-.06-.88-.32-1.25-.21-.29-.93-.6-.64-1.03.33-.5,1.06-.25,1.53-.19.41.05.8,0,1.17-.18.71-.34,1.21-1.08,1.17-1.88-.04-.79-.53-1.52-1.25-1.83.02.09.04.17.07.26.67-.88,2-.75,2.87-1.33.64-.43,1.03-1.39.43-2.04-.7-.77-1.96.16-2.57.62-.88.66-1.67,1.49-2.7,1.91-.62.25-1.31.33-1.97.22-.61-.1-1.45-.37-1.8-.92-.12-.2-.45-.02-.32.19Z"/>
        <path d="m154.39,90.01c.76-.02,1.09-.8,1.19-1.44.07-.41.1-.91.39-1.23.26-.28.7-.31,1.03-.14.35.19.37.59.64.85.25.24.6.26.93.21.42-.07,1.78-.75,1.89.06.03.17.26.16.34.04,1.71-2.53,4.08-4.52,6.52-6.31.15-.11.1-.34-.09-.35-1.49-.08-2.88-1.45-4.4-.8-.51.22-1,.64-1.13,1.19-.06.24-.03.5.06.72.15.35.47.59.47,1,0,.73-.81,1.3-1.43,1.52-.85.3-1.78.33-2.67.4-1.37.11-2.82.32-3.87,1.29-.48.44-.88,1.1-.85,1.77.04.59.35,1.17.98,1.22.24.02.24-.36,0-.38-.64-.05-.66-.95-.5-1.4.21-.57.65-1.02,1.16-1.33,1.27-.78,2.77-.74,4.2-.89,1.2-.12,2.72-.42,3.25-1.67.25-.57.04-1-.28-1.49-.37-.57-.03-1.15.5-1.48.7-.43,1.45-.28,2.18,0,.77.28,1.51.66,2.34.71-.03-.12-.06-.23-.09-.35-2.5,1.83-4.91,3.86-6.66,6.44.11,0,.23.03.34.04-.11-.73-1.06-.73-1.6-.54-.36.12-.86.37-1.23.18-.23-.12-.27-.42-.41-.62-.09-.13-.2-.24-.33-.32-.6-.38-1.42-.19-1.76.45-.32.6-.15,2.24-1.12,2.27-.23.03-.24.4.01.39Z"/>
        <path d="m145.38,115.07c1.33,1.68,2.33,3.56,3.31,5.46.09.17.35.09.35-.09-.02-2.22.32-4.42.97-6.55.64-2.09,1.54-4.09,2.54-6.03.59-1.15,1.21-2.27,1.84-3.4.08-.14-.05-.32-.21-.28-.69.2-1.3.55-1.84,1.02.1,0,.2.03.29.04-.21-.33-.29-.69-.25-1.08,0-.13-.13-.21-.24-.18-1.2.28-1.73,1.51-1.9,2.62-.09.59-.02,1.19-.1,1.77-.06.38-.41,1.47-.9.77-.5-.71-.14-1.78.08-2.53.28-.93.64-1.84,1.02-2.73.96-2.21,2.09-4.35,3.33-6.41,1.21-2.03,2.53-4.03,4.1-5.8.57-.65,1.18-1.28,1.87-1.79.44-.32.87-.64,1.1-1.16.21-.48.05-.96-.47-1.12-.64-.19-1.17.19-1.78.28-.19.03-.41.03-.56-.1s-.19-.34-.29-.5c-.15-.25-.39-.43-.66-.52-.53-.17-1.1.02-1.4.48-.38.58-.23,1.33-.56,1.93-.17.31-.52.6-.87.36-.27-.18-.35-.58-.34-.88.03-.71.58-1.32,1.14-1.7,1.39-.93,3.1-.8,4.69-1.01.75-.1,1.51-.26,2.12-.72.48-.36.92-.92.85-1.55-.06-.56-.69-.93-.5-1.51.29-.88,1.22-1.2,2.06-1.03.82.17,1.55.61,2.36.81.68.17,1.4.17,2.06-.09,1.12-.45,1.84-1.82,1.18-2.94-.16-.28-.41-.42-.63-.64-.49-.48.18-.83.63-.82.42,0,.8.14,1.23.09.38-.04.75-.17,1.06-.39.86-.58,1.09-1.68.58-2.58-.23-.41-.59-.72-1.02-.9.04.09.07.18.11.28.79-1.05,2.48-.68,3.3-1.73.57-.73.23-2.08-.86-1.91-.6.09-1.18.5-1.66.85-.52.39-1,.82-1.51,1.21-1.13.86-2.47,1.28-3.86.79-.65-.23-1.53-.71-1.09-1.52.33-.61,1.05-.85,1.71-.9,1.25-.09,2.49.34,3.74.13.66-.11,1.23-.45,1.86-.67.29-.1.61-.19.92-.14.38.06.59.34.85.58.41.38.96.53,1.5.3.47-.2.73-.63.68-1.13-.03-.25-.16-.53-.11-.79.08-.42.58-.39.91-.39.66,0,1.29-.15,1.82-.57.48-.38.82-.99.62-1.61-.17-.54-.7-.89-1.26-.84.03.12.06.23.09.35.78-.59,1.62-1.1,2.37-1.73.5-.43,1.22-1.06,1.15-1.79-.1-1.09-1.91-.98-2.66-.95.03.12.06.23.09.35,1.44-.75,2.9-2.03,3.31-3.67.19-.73-.05-1.47-.28-2.16-.25-.74-.59-1.57-.24-2.33.1-.22-.22-.41-.32-.19-2.02,4.08-5.52,7.09-9.08,9.8-3.95,3-8.04,5.83-11.5,9.4-3.52,3.63-6.58,7.7-9.07,12.11-2.43,4.3-4.31,8.91-5.62,13.68-1.31,4.8-2.04,9.76-2.17,14.73-.02.57-.02,1.14-.02,1.71,0,.24.38.24.38,0,0-4.95.58-9.89,1.76-14.7,1.18-4.82,2.94-9.5,5.27-13.89,2.34-4.41,5.24-8.52,8.63-12.2,1.77-1.92,3.68-3.69,5.71-5.34,1.91-1.55,3.91-2.99,5.88-4.47,3.51-2.62,7.07-5.42,9.38-9.21.28-.47.55-.95.79-1.43-.11-.06-.22-.13-.32-.19-.66,1.44.59,2.76.54,4.2-.03.82-.59,1.65-1.12,2.25-.58.66-1.3,1.17-2.07,1.57-.16.09-.09.36.09.35.51-.02,2.31-.17,2.29.68-.02.68-.82,1.26-1.3,1.64-.66.52-1.37.96-2.04,1.47-.13.1-.11.37.09.35.71-.06,1.14.66.84,1.28-.29.58-1.03.95-1.65.99-.5.03-1.07-.11-1.45.32-.31.34-.16.77-.09,1.17.05.31,0,.57-.27.77-.29.21-.7.23-1.01.05-.26-.15-.44-.41-.67-.6-.22-.17-.47-.27-.75-.29-.57-.05-1.12.22-1.64.44-.62.27-1.2.44-1.88.43-1.18,0-2.39-.39-3.56-.1-.88.22-2.09,1.22-1.41,2.22.3.45.92.72,1.42.88.58.19,1.21.24,1.82.15,1.25-.17,2.2-.97,3.14-1.75.56-.46,1.15-.95,1.83-1.2.37-.14.78-.14.95.27.1.26.08.59-.06.83-.35.63-1.21.78-1.84.96-.61.18-1.19.42-1.58.93-.08.11,0,.23.11.28,1.01.43,1.39,1.84.56,2.63-.28.27-.66.44-1.05.5-.48.07-.93-.1-1.4-.08-.57.02-1.24.46-1.02,1.12.1.28.36.43.57.61.27.24.41.58.43.94.05.76-.41,1.42-1.1,1.72-1.64.73-3.06-.61-4.64-.76-.67-.07-1.34.19-1.78.71-.37.45-.57,1.03-.25,1.56.13.22.31.39.36.65.08.42-.18.82-.47,1.1-.63.61-1.52.77-2.36.87-1.53.18-3.13.11-4.49.93-.95.57-1.96,1.86-1.28,2.99.28.46.86.61,1.3.29.54-.38.6-1.07.71-1.67.07-.36.17-.78.51-.97.29-.16.68-.12.95.07.28.21.31.6.58.82.23.19.52.22.8.18.49-.06,1.45-.65,1.89-.18.24.25-.06.66-.23.87-.19.24-.42.4-.66.57-.71.51-1.32,1.13-1.9,1.78-1.53,1.72-2.83,3.65-4.02,5.61-1.28,2.09-2.44,4.26-3.43,6.51-.4.9-.77,1.82-1.08,2.76-.24.74-.52,1.58-.41,2.37.06.47.27,1.07.8,1.17.48.09.78-.32.92-.72.19-.53.17-1.07.18-1.62,0-.65.12-1.32.4-1.91.26-.56.68-.99,1.29-1.13l-.24-.18c-.05.45.06.88.31,1.27.07.11.2.12.29.04.49-.43,1.05-.74,1.68-.92-.07-.09-.14-.18-.21-.28-2.17,3.88-4.33,7.89-5.09,12.32-.22,1.27-.32,2.55-.31,3.84.12-.03.23-.06.35-.09-.99-1.93-2.01-3.83-3.37-5.54-.15-.16-.41.11-.26.29Z"/>
      </g>
      <g>
        <path d="m191.68,62.15c.41-4.33-.69-8.56-.85-12.87-.14-3.74.32-7.53,1.7-11.03.88-2.21,2.12-4.25,3.66-6.06.13-.15-.05-.43-.23-.29-1.89,1.41-4.15,2.43-6.47,2.86-2.02.37-4.52.28-5.88-1.5-.38-.5-.61-1.08-.81-1.67-.25-.73-.45-1.47-.58-2.23-.26-1.5-.26-3.05,0-4.55.58-3.44,2.39-6.5,4.59-9.15,3.67-4.41,8.38-7.91,13.82-9.8,5-1.74,10.4-2.09,15.62-1.31,5.34.8,10.48,2.73,15.15,5.42.57.33,1.14.67,1.69,1.03,0-.11.03-.23.04-.34-1.44.56-2.56,1.69-3.44,2.94-1.03,1.45-1.77,3.1-2.34,4.77-.54,1.57-.94,3.2-1.16,4.85-.2,1.55-.28,3.13-.44,4.69-.32,3.12-.76,6.27-1.79,9.24-1.04,3.03-2.74,5.79-5.14,7.93-2.8,2.5-6.41,4.2-10.05,5.04-3,.7-6.72.87-9.17-1.33-1.35-1.21-2.18-3.08-2.22-4.88-.05-2.17,1.1-4.11,2.5-5.68.69-.78,1.55-1.51,1.73-2.6.1-.64-.11-1.3-.7-1.63-.66-.37-1.47-.2-2.1.14-.49.26-.84.63-1.2,1.05-.37.42-.72.86-1.05,1.31-1.18,1.62-2.01,3.47-2.43,5.43-.4,1.89-.44,3.83-.32,5.75.31,4.7,1.45,9.34,1.15,14.08-.08,1.32-.28,2.62-.61,3.9l.13-.13c-.94.31-1.9.57-2.86.8l.24.18c.08-1.47.04-2.93-.17-4.38-.04-.24-.4-.14-.36.1.21,1.42.24,2.85.16,4.28,0,.13.13.21.24.18.66-.15,1.31-.32,1.96-.51.23-.07.47-.14.7-.22.12-.04.26-.06.33-.18.14-.24.16-.65.22-.92.07-.34.13-.68.19-1.02.1-.65.17-1.3.22-1.96.18-2.62-.09-5.25-.42-7.85-.51-4.07-1.32-8.32-.34-12.38.5-2.08,1.5-4,2.85-5.66.66-.81,1.42-1.76,2.56-1.82.77-.04,1.34.5,1.28,1.28-.1,1.16-1.15,1.95-1.85,2.77-.71.83-1.34,1.73-1.78,2.73-.82,1.87-.78,3.87.03,5.74.65,1.49,1.77,2.72,3.24,3.43,1.42.69,3.04.9,4.6.85,1.68-.05,3.35-.39,4.95-.9,1.94-.61,3.84-1.43,5.58-2.48,2.93-1.75,5.35-4.21,6.95-7.23,1.48-2.8,2.25-5.91,2.71-9.02.24-1.61.41-3.22.56-4.84.14-1.57.23-3.15.55-4.7.36-1.79.9-3.55,1.65-5.22.71-1.58,1.61-3.14,2.89-4.33.55-.51,1.18-.94,1.88-1.22.15-.06.19-.25.04-.34-4.71-2.98-9.96-5.19-15.45-6.23-5.3-1.01-10.84-.91-16.03.64-5.56,1.66-10.48,4.96-14.35,9.26-2.32,2.59-4.35,5.53-5.27,8.92-.82,3.01-.66,6.24.53,9.14.4.97,1.09,1.78,2.02,2.28.94.5,2.03.66,3.08.64,2.42-.05,4.85-.94,6.93-2.15.49-.29.96-.6,1.41-.94-.08-.1-.15-.2-.23-.29-2.67,3.12-4.38,6.91-5.08,10.95-.63,3.64-.45,7.3.03,10.94.36,2.76.69,5.55.43,8.33,0,.21.37.21.39-.03Z"/>
        <path d="m218.73,38.61c.82-1.75,1.97-3.33,2.66-5.14.32-.84.54-1.73.49-2.63-.02-.44-.11-.88-.26-1.29-.19-.52-.49-.95-.79-1.41-.1-.16-.34-.09-.35.09-.09,1.11-.32,2.19-.7,3.24-.1.26-.2.53-.31.78-.1.22-.18.52-.33.7-.05.13-.07.13-.06,0,0-.03.03-.07.04-.1.04-.12.1-.24.15-.36.1-.25.18-.49.26-.74.31-.98.5-1.99.56-3.02.03-.52.02-1.03-.03-1.55-.02-.23-.03-.44-.13-.64-.15-.31-.3-.62-.43-.93-.06-.15-.33-.21-.36,0-.21,1.28-.55,2.54-1.03,3.75-.24.61-.52,1.21-.83,1.79-.04.07-.04.14-.13.15-.14,0-.02-.13,0-.2.06-.16.15-.31.21-.47.12-.28.24-.55.34-.83.47-1.22.79-2.49.97-3.78.08-.61.14-1.23.16-1.85.02-.55-.04-1.07-.08-1.61-.12-1.91.59-3.67,2.06-4.92.94-.8,2.08-1.33,3.23-1.73.59-.21,1.19-.38,1.79-.54.52-.14,1-.27,1.43-.61.39-.3.72-.7.9-1.17.08-.21.13-.44.13-.66,0-.11-.13-.71.15-.55.16.09.19.6.2.76,0,.27-.03.54-.11.8-.16.51-.47.96-.86,1.32-.78.74-1.84.92-2.81,1.31-.81.33-1.61.72-2.33,1.22-1.15.79-2.12,1.89-2.44,3.28-.35,1.54.08,3.12.71,4.53.46,1.01,1.09,1.91,1.6,2.89.54,1.02.61,2.25.4,3.38-.41,2.16-1.78,4.01-3.02,5.77-.14.2-.29.41-.43.61-.08.11-.16.23-.23.34-.05.07-.08.13-.16.18-.03.02-.06.04-.08.06-.15-.07-.19-.16-.13-.26.09-.23-.28-.32-.36-.1-.16.43.25.88.69.69.21-.09.32-.31.44-.49.18-.26.35-.51.53-.76.71-1,1.42-2,2.01-3.07,1.11-2.02,1.77-4.52.59-6.67-.58-1.05-1.25-2.04-1.71-3.17-.34-.84-.59-1.72-.61-2.63-.04-1.62.75-2.99,2-3.97.75-.59,1.62-1.04,2.5-1.41,1-.42,2.11-.61,2.96-1.33.8-.69,1.35-1.74,1.18-2.82-.06-.38-.21-.93-.71-.83-.55.11-.33.63-.35,1.01-.04.63-.48,1.18-.99,1.53-.54.36-1.2.45-1.82.63-1.3.37-2.59.84-3.73,1.58-1.75,1.13-2.9,2.88-3.01,4.98-.03.49.02.97.07,1.46.07.69,0,1.41-.06,2.1-.14,1.45-.48,2.88-.98,4.25-.13.34-.26.68-.41,1.01-.1.23-.33.52-.29.79.06.37.55.48.78.21.19-.24.32-.58.45-.85.15-.3.28-.61.41-.92.28-.66.51-1.33.71-2.02.19-.67.34-1.35.45-2.04h-.36c.2.48.5.95.55,1.47.05.5.06,1,.03,1.49-.05.99-.23,1.97-.53,2.92-.07.23-.15.46-.24.69-.08.22-.21.44-.27.66-.06.25.12.49.37.5.36.02.48-.44.6-.7.2-.42.37-.85.53-1.28.37-1.04.59-2.13.68-3.23-.12.03-.23.06-.35.09.29.45.59.86.77,1.36.15.43.23.87.24,1.33,0,.87-.23,1.73-.55,2.53-.69,1.71-1.78,3.21-2.56,4.87-.11.21.22.4.32.18Z"/>
        <path d="m188.94,27.46c1.43-1.26,3.33-1.64,5.19-1.58,1.51.06,3.13.42,4.32,1.4.57.47,1.03,1.08,1.29,1.78.14.38.23.73.56.99.31.24.63.25,1,.27,1.33.08,2.54.67,3.43,1.66,1.78,1.98,2.16,5.05,1.74,7.58-.11.64-.27,1.27-.5,1.88-.1.27-.3.56-.1.83.17.23.52.3.73.09.22-.21.37-.58.5-.85.16-.32.3-.65.42-.98.25-.71.42-1.44.53-2.18.39-2.86-.19-6.22-2.4-8.26-.26-.24-.54-.45-.83-.64-.03.12-.06.23-.09.35,1.89.11,3.76.65,5.37,1.67.8.5,1.52,1.12,2.12,1.84.3.36.58.74.82,1.15.12.2.23.4.33.61.08.15.16.3.35.31.79.02,0-1.5-.13-1.81-.35-.78-.81-1.5-1.35-2.15-1.06-1.27-2.46-2.27-4.01-2.86-1.7-.65-3.6-.78-5.34-.19.06.1.12.21.18.31,1.35-1.07,2.79-2.03,4.37-2.74,1.48-.66,3.05-1.08,4.63-1.41.44-.09.87-.17,1.31-.25.3-.05.82-.03.98-.35.11-.22.04-.51-.18-.63-.13-.07-.28-.05-.43-.04-.23,0-.46.03-.69.05-1.81.14-3.63.41-5.37.96-.95.3-1.89.7-2.76,1.19-.91.52-1.71,1.17-2.48,1.88l.27.27c2.36-2.91,4.72-5.86,7.49-8.39,2.56-2.34,5.53-4.21,8.64-5.71.83-.4,1.68-.78,2.53-1.13.17-.07.34-.14.5-.2s.36-.11.51-.21c.19-.13.25-.39.14-.6-.11-.19-.29-.24-.5-.2-.41.08-.82.24-1.22.37-.75.25-1.49.52-2.22.81-2.95,1.19-5.75,2.77-8.29,4.69-2.84,2.16-5.36,4.75-7.32,7.74.11.05.23.1.34.14.7-1.93,1.12-3.99,1.02-6.05-.1-2.06-.73-4.05-1.83-5.79-.31-.48-.65-.94-1.01-1.38-.19-.22-.38-.44-.58-.65-.15-.16-.31-.4-.54-.44-.32-.06-.62.27-.5.58.07.2.28.37.41.54.18.24.36.48.52.73,1.17,1.8,1.72,3.92,1.81,6.05.1,2.44-.33,4.87-.95,7.21.12.02.25.03.37.05.04-3.63-2.14-7.11-5.2-8.98-.75-.46-1.58-.84-2.43-1.08-.3-.08-.61-.03-.73.3-.12.31.03.56.31.69.89.45,1.74.91,2.5,1.56.68.58,1.27,1.26,1.76,2.01,1.28,1.99,1.77,4.36,1.91,6.69.12-.03.23-.06.35-.09-1.07-1.56-2.97-2.35-4.79-2.59-1.9-.25-4.02.03-5.62,1.17-.41.29-.78.64-1.09,1.05-.15.2-.32.43-.42.66-.08.2,0,.42.26.36.23-.06.13-.42-.1-.36,0,0-.03,0-.04,0,.06.02.12.03.18.05.13.1-.03.13.08.02.03-.03.06-.1.08-.14.05-.07.09-.15.14-.22.13-.18.27-.35.42-.51.28-.29.6-.55.94-.76.73-.45,1.55-.73,2.39-.89,1.72-.31,3.61-.1,5.18.67.81.39,1.54.94,2.06,1.69.1.14.36.11.35-.09-.12-1.94-.46-3.88-1.28-5.65-.68-1.46-1.7-2.74-2.98-3.71-.35-.27-.72-.51-1.1-.72-.19-.11-.37-.21-.57-.3-.13-.07-.56-.18-.57-.35-.02-.24.25-.16.38-.12.22.06.43.14.64.22.41.15.8.34,1.18.55,1.51.83,2.81,2.05,3.76,3.49,1.06,1.6,1.7,3.49,1.68,5.42,0,.21.31.26.37.05.98-3.73,1.56-7.89.11-11.58-.36-.91-.83-1.77-1.41-2.55-.13-.17-.36-.37-.44-.56-.13-.3.15-.05.24.04.12.12.23.24.34.36.38.42.73.86,1.05,1.33,1.13,1.64,1.83,3.54,2,5.52.19,2.18-.24,4.36-.98,6.41-.08.21.23.31.34.14,3.36-5.11,8.35-9.06,13.88-11.6,1.39-.64,2.83-1.19,4.29-1.64.17-.05.34-.1.52-.15.06-.02.16-.08.21-.01.08.1-.16.15-.21.18-.4.17-.81.32-1.21.49-.75.32-1.49.65-2.22,1-2.92,1.41-5.69,3.15-8.14,5.29-2.99,2.61-5.48,5.75-7.97,8.82-.15.18.08.43.27.27,1.28-1.19,2.69-2.11,4.32-2.72,1.6-.6,3.29-.93,4.98-1.11.41-.04.82-.08,1.23-.11.19,0,.39-.04.59-.04.07,0,.18-.02.19.08,0,.11-.16.11-.24.12-.82.14-1.65.3-2.46.48-1.4.31-2.77.72-4.08,1.31-1.61.72-3.07,1.7-4.45,2.8-.15.12,0,.37.18.31,3-1.03,6.33.21,8.48,2.4.57.58,1.06,1.24,1.46,1.96.19.35.37.72.51,1.1.07.18.13.37.19.56,0,.05.05.27.08.29.07.03-.07-.25-.08-.28-.78-1.52-2.01-2.78-3.46-3.68-1.64-1.01-3.53-1.54-5.44-1.65-.2,0-.24.25-.09.35,2.55,1.67,3.35,5.02,3.12,7.9-.12,1.44-.5,2.89-1.23,4.14-.04.07-.07.15-.13.21-.09.1-.23.13-.22-.06,0-.14.12-.32.17-.45.11-.28.2-.57.27-.86.17-.63.27-1.27.33-1.92.21-2.48-.32-5.33-2.11-7.18-.87-.9-2.01-1.44-3.25-1.58-.39-.04-.81.02-1.12-.27-.3-.27-.35-.73-.51-1.08-.29-.65-.75-1.22-1.3-1.66-1.12-.9-2.56-1.3-3.97-1.43-1.62-.15-3.34.03-4.8.8-.44.23-.84.52-1.21.85-.16.15.1.41.28.25Z"/>
        <path d="m212.72,8.83c-1.1.07-2.2-.19-3.3-.17-1.05.01-2.1.16-3.12.43-.53.14-1.05.32-1.56.53-.07.03-.18.1-.25.11-.26.02.17-.16.21-.17.26-.12.52-.23.78-.33,1.04-.39,2.12-.64,3.22-.75.21-.02.26-.3.05-.37-.79-.26-1.58-.54-2.4-.71-.74-.16-1.5-.12-2.25-.01-.82.12-1.61.33-2.4.57-.19.06-.38.12-.57.18-.11.04-.23.07-.34.11-.19.07-.1.05-.03.03.39-.11.77-.32,1.15-.46,1.48-.58,3.06-1.06,4.67-.86,1.52.19,2.97.78,4.49.97.53.07,1.03.15,1.57.11.51-.04,1.02-.13,1.52-.25,1.07-.26,2.12-.63,3.2-.85.99-.2,2.09-.29,3.01.19.23.12.44.26.63.43.09.08.68.62.63.72-.03.06-.25-.2-.3-.25-.1-.1-.21-.18-.32-.27-.24-.18-.49-.33-.77-.44-1.18-.47-2.46-.12-3.6.3-1.27.46-2.54,1.12-3.92,1.21-.24.02-.24.39,0,.38,1.31-.09,2.52-.66,3.73-1.12,1.15-.44,2.48-.9,3.69-.41.33.14.62.34.88.58.19.17.37.49.66.43.73-.15.03-.93-.2-1.18-.77-.82-1.82-1.16-2.93-1.11-1.18.05-2.32.42-3.44.74-1.08.31-2.25.66-3.39.51-.78-.1-1.56-.24-2.32-.44-.81-.21-1.62-.44-2.45-.57-1.71-.27-3.35.13-4.94.74-.46.17-.91.36-1.36.54-.23.09-.43.27-.31.54.16.33.51.16.76.08.49-.16.98-.31,1.48-.44.98-.26,2-.46,3.02-.41,1.03.05,2.06.48,3.02.8.02-.12.03-.25.05-.37-.97.1-1.92.29-2.84.6-.46.15-.91.33-1.35.53-.27.13-.65.3-.48.67.14.32.46.24.71.13.49-.21.99-.39,1.5-.54.98-.28,1.99-.43,3.01-.46,1.16-.03,2.31.24,3.47.17.27-.03.27-.41.03-.39Z"/>
      </g>
    </g>
  </g>
</svg>