<?xml version="1.0" encoding="UTF-8"?>
<svg id="Layer_2" data-name="Layer 2" xmlns="http://www.w3.org/2000/svg" viewBox="0 0 45.43 92.07">
  <g id="Layer_1-2" data-name="Layer 1">
    <g>
      <path d="m29.18,86.24c-.52,1.7-1.52,3.29-3,4.33-1.38.97-3.11,1.37-4.77.99-1.66-.37-3.07-1.46-4.02-2.85-1.09-1.59-1.56-3.54-1.89-5.42-.61-3.51-.32-7.06.61-10.49.88-3.22,2.25-6.27,3.53-9.34,1.29-3.09,2.49-6.23,3.06-9.54.07-.41.13-.81.18-1.22h-.37c.55,4.41,2.28,8.5,3.99,12.56s3.37,8.22,3.67,12.67c.19,2.81-.17,5.62-.99,8.31-.07.23.29.33.36.1.73-2.41,1.11-4.91,1.05-7.43-.05-2.24-.45-4.46-1.07-6.61-1.22-4.23-3.23-8.16-4.75-12.28-.87-2.37-1.58-4.8-1.89-7.31-.03-.24-.34-.24-.37,0-.44,3.49-1.63,6.8-2.97,10.04-1.31,3.18-2.76,6.32-3.7,9.64-.99,3.48-1.33,7.09-.76,10.67.31,1.91.76,3.93,1.81,5.59.91,1.43,2.24,2.59,3.86,3.12,1.59.52,3.35.36,4.84-.4,1.55-.8,2.74-2.19,3.47-3.76.19-.41.35-.83.48-1.27.08-.23-.29-.33-.36-.1Z"/>
      <g>
        <path d="m23.99,56.76c1.18,4.18,3.13,8.08,4.65,12.14.43,1.15.82,2.31,1.15,3.49.05.17.33.19.36,0,.51-3.3.16-6.66-.1-9.97-.25-3.25-.51-6.64.35-9.83.48-1.76,1.33-3.38,2.58-4.72.1-.11.04-.33-.13-.32-1.73.15-3.33.83-4.65,1.96-1.34,1.14-2.33,2.65-3.08,4.22-.45.95-.82,1.93-1.13,2.93-.07.23.29.33.36.1.96-3.16,2.66-6.53,5.74-8.07.86-.43,1.8-.68,2.76-.76-.04-.11-.09-.21-.13-.32-2.22,2.39-3.08,5.51-3.24,8.71-.17,3.44.32,6.87.5,10.31.09,1.89.1,3.79-.19,5.66h.36c-1.17-4.17-3.12-8.05-4.63-12.1-.43-1.16-.83-2.33-1.16-3.52-.07-.25-.43-.15-.37.09Z"/>
        <path d="m29.16,89.47c1.11-2.08,1.58-4.42,1.82-6.74.26-2.57.23-5.16.22-7.74,0-2.31-.03-4.63.19-6.94.19-1.98.55-4,1.41-5.81.95-1.99,2.5-3.51,4.51-4.42-.09-.09-.17-.17-.26-.26-2.7,6.17-2.92,13.13-2.49,19.76.12,1.85.3,3.69.5,5.53.05-.06.09-.12.14-.18-1.3.41-2.29,1.17-3.11,2.25-.46.6-.88,1.24-1.32,1.87-.6.86-1.23,1.68-1.91,2.47-.16.18.11.45.27.27,1.14-1.33,2.08-2.78,3.12-4.19.37-.5.78-.99,1.27-1.38.53-.43,1.14-.71,1.79-.92.07-.02.15-.1.14-.18-.73-6.55-1.17-13.31.24-19.8.4-1.81.94-3.6,1.69-5.3.08-.18-.08-.34-.26-.26-1.76.8-3.23,2.07-4.21,3.74-1,1.68-1.48,3.62-1.75,5.55-.67,4.81-.14,9.69-.44,14.53-.17,2.73-.58,5.54-1.88,7.98-.12.19.21.38.32.17Z"/>
        <path d="m36.03,82.34c-.5-2.78-.37-5.72.56-8.39.79-2.26,2.24-4.42,4.48-5.43,1.28-.58,2.72-.69,4.1-.46,0-.11-.03-.23-.04-.34-1.78,1.3-3.03,3.22-3.7,5.3-.16.51-.29,1.03-.38,1.56-.04.24-.07.49-.09.73,0,.11-.02.22-.02.33,0,.17-.06.26-.15.4-.67.98-1.35,1.95-2.08,2.88-.92,1.17-1.92,2.28-2.97,3.33-.17.17.09.44.27.27,1.73-1.74,3.26-3.63,4.66-5.64.16-.23.32-.46.48-.69.07-.1.14-.18.17-.3.03-.13,0-.28.02-.41.04-.52.12-1.03.24-1.53.26-1.08.68-2.11,1.24-3.06.65-1.1,1.49-2.09,2.52-2.84.11-.08.13-.31-.04-.34-1.27-.21-2.57-.17-3.79.25-1.14.4-2.16,1.1-2.98,1.98-1.84,1.98-2.74,4.7-3.03,7.35-.19,1.72-.11,3.45.19,5.15.02.23.38.13.34-.1Z"/>
        <g>
          <path d="m27.66,78.44c-.4-1.02-.69-2.08-1.17-3.06-.08-.17-.35-.08-.35.09.04,2.54-.31,5.19-1.2,7.57h.36c-.64-1.94-1.12-3.91-1.47-5.92-.04-.22-.35-.14-.37.05-.2,2-.58,3.97-.94,5.95h.36c-.36-1.98-.74-3.95-.94-5.95-.02-.19-.33-.28-.37-.05-.35,2.01-.84,3.98-1.48,5.92h.36c-.89-2.38-1.24-5.04-1.2-7.57,0-.18-.27-.26-.35-.09-.48.98-.78,2.04-1.17,3.06.12.02.25.03.37.05-.17-2.45.43-4.82,1.55-6.99-.11-.01-.23-.03-.34-.04.26,1.77.44,3.54.85,5.29.05.22.35.15.37-.05.31-3.84.43-7.69.8-11.52-.12.02-.25.03-.37.05.74,2.49.65,5.09.93,7.65.03.24.36.25.38,0,.14-3,.38-6,.61-9h-.37c.22,3,.47,6,.61,9,0,.25.35.24.38,0,.28-2.56.19-5.16.93-7.65-.12-.02-.25-.03-.37-.05.37,3.83.49,7.68.8,11.52.02.2.32.27.37.05.41-1.75.59-3.51.85-5.29-.11.01-.23.03-.34.04,1.12,2.17,1.72,4.54,1.56,6.99-.02.24.36.24.38,0,.17-2.51-.45-4.96-1.61-7.18-.07-.13-.32-.12-.34.04-.25,1.77-.43,3.54-.85,5.29.12.02.25.03.37.05-.31-3.84-.43-7.69-.8-11.52-.02-.2-.3-.26-.37-.05-.75,2.52-.66,5.16-.94,7.75h.38c-.14-3-.39-6-.61-9-.02-.24-.36-.24-.37,0-.23,3-.47,6-.61,9h.38c-.29-2.59-.2-5.23-.94-7.75-.06-.21-.35-.15-.37.05-.38,3.83-.49,7.68-.8,11.52.12-.02.25-.03.37-.05-.42-1.75-.59-3.52-.85-5.29-.02-.16-.27-.18-.34-.04-1.15,2.22-1.77,4.67-1.6,7.18.02.22.29.25.37.05.38-.99.67-2.02,1.14-2.97-.12-.03-.23-.06-.35-.09-.05,2.56.31,5.26,1.21,7.67.06.17.3.18.36,0,.64-1.94,1.13-3.91,1.48-5.92-.12-.02-.25-.03-.37-.05.2,2.04.58,4.04.95,6.05.03.18.33.18.36,0,.37-2.01.75-4.01.95-6.05-.12.02-.25.03-.37.05.35,2.01.83,3.98,1.47,5.92.06.18.3.17.36,0,.91-2.41,1.26-5.11,1.22-7.67-.12.03-.23.06-.35.09.47.95.75,1.98,1.14,2.97.03.22.39.13.31-.1Z"/>
          <path d="m22.75,90.73c-2.16-.82-2.76-3.54-2.4-5.6-.06.05-.12.09-.18.14.05,0,.09,0,.14.01-.06-.05-.12-.09-.18-.14.38,2.07,1.8,3.72,2.39,5.71.05.18.31.18.36,0,.59-1.99,2.01-3.64,2.39-5.71-.06.05-.12.09-.18.14.05,0,.09,0,.14-.01-.06-.05-.12-.09-.18-.14.36,2.05-.25,4.77-2.4,5.6-.22.09-.13.45.1.36,2.36-.9,3.06-3.78,2.66-6.06,0-.08-.1-.14-.18-.14-.05,0-.09,0-.14.01-.08,0-.17.06-.18.14-.38,2.07-1.8,3.72-2.39,5.71h.36c-.59-1.99-2.01-3.65-2.39-5.71-.02-.08-.1-.13-.18-.14-.05,0-.09,0-.14-.01-.08,0-.17.06-.18.14-.4,2.28.3,5.16,2.66,6.06.22.09.32-.27.1-.36Z"/>
          <path d="m24.3,91.1c2.95-.87,3.87-4.06,3.97-6.82.03-.79,0-1.58-.09-2.36,0-.1-.08-.19-.19-.19h-.14c-.11,0-.18.08-.19.19-.36,3.22-1.75,6.19-3.65,8.78-.04.05-.03.14,0,.19.02.04.05.08.07.12.12.21.45.02.32-.19-.02-.04-.05-.08-.07-.12v.19c1.95-2.65,3.34-5.68,3.7-8.97-.06.06-.12.12-.19.19h.14c-.06-.06-.12-.12-.19-.19.14,1.33.15,2.69-.07,4.01-.22,1.31-.67,2.65-1.59,3.63-.53.57-1.2.96-1.95,1.18-.21.07-.11.43.12.36Z"/>
          <path d="m23.99,56.76c1.18,4.18,3.13,8.08,4.65,12.14.43,1.15.82,2.31,1.15,3.49.05.17.33.19.36,0,.16-1.07.24-2.14.25-3.22,0-.57,0-1.13-.02-1.7,0-.26,0-.52-.06-.78-.07-.27-.14-.53-.21-.8-.53-2.18-.8-4.41-.81-6.66,0-.15-.21-.26-.32-.13-.91,1.06-1.47,2.35-1.61,3.75h.38c-.14-2.88.07-5.84,1.31-8.49.09-.19-.13-.37-.29-.23-1.43,1.2-2.39,2.89-2.67,4.73h.36c-.39-2.17-.67-4.44-.1-6.61.05-.21-.23-.32-.34-.14-.89,1.41-1.53,2.96-2.02,4.55-.07.23.29.33.36.1.48-1.56,1.11-3.07,1.98-4.46-.11-.05-.23-.1-.34-.14-.58,2.23-.3,4.57.1,6.81.03.18.33.18.36,0,.28-1.79,1.19-3.41,2.57-4.57-.1-.08-.2-.15-.29-.23-1.27,2.71-1.5,5.73-1.36,8.68,0,.24.35.24.38,0,.13-1.29.65-2.5,1.5-3.48-.11-.04-.21-.09-.32-.13,0,2.16.25,4.31.74,6.41.13.55.32,1.08.34,1.64.02.55.03,1.09.03,1.64,0,1.13-.07,2.25-.24,3.36h.36c-1.17-4.17-3.12-8.05-4.63-12.1-.43-1.16-.83-2.33-1.16-3.52-.09-.25-.45-.15-.39.09Z"/>
          <path d="m29.13,89.51c1.14-1.33,2.08-2.79,3.12-4.19.37-.5.78-.99,1.27-1.38.53-.43,1.14-.71,1.79-.91.07-.02.15-.1.14-.18-.19-1.72-.36-3.44-.48-5.16-.03-.4,0-.83-.13-1.21-.14-.39-.25-.78-.35-1.18-.21-.86-.32-1.73-.33-2.61,0-.18-.26-.26-.35-.09-.99,1.79-1.31,3.81-1.37,5.83.12-.02.25-.03.37-.05-.84-2-1.39-4.11-1.61-6.27-.02-.24-.37-.25-.38,0-.08,4.61.35,9.35-.75,13.87-.28,1.15-.68,2.28-1.23,3.33-.11.21.21.4.32.19,1.01-1.89,1.49-4,1.75-6.12.29-2.37.3-4.77.29-7.15,0-1.37-.03-2.75,0-4.12h-.38c.23,2.19.77,4.34,1.62,6.37.08.19.36.18.37-.05.05-1.95.36-3.91,1.32-5.64-.12-.03-.23-.06-.35-.09,0,.82.1,1.63.28,2.43.09.4.2.8.32,1.19.08.24.15.45.17.71,0,.23.03.45.04.68.12,1.73.29,3.45.48,5.16.05-.06.09-.12.14-.18-1.3.41-2.29,1.17-3.11,2.24-.46.6-.88,1.24-1.31,1.87-.6.86-1.23,1.68-1.91,2.48-.17.15.09.41.25.23Z"/>
          <path d="m35.99,82.52c1.73-1.74,3.25-3.63,4.65-5.64.16-.23.32-.46.48-.69.07-.1.14-.18.17-.3.03-.13,0-.28.02-.41.04-.52.12-1.03.24-1.53.26-1.08.68-2.11,1.24-3.06.65-1.1,1.49-2.09,2.53-2.84.11-.08.13-.31-.04-.34-.6-.1-1.2-.15-1.8-.12-.21.01-.5-.01-.68.1-.18.12-.35.36-.49.52-.69.78-1.28,1.64-1.78,2.55-1.03,1.86-1.7,3.9-2.18,5.97.12.02.25.03.37.05-.1-2.12.29-4.23,1.15-6.17.1-.22-.19-.4-.32-.19-1.21,1.85-2.31,3.76-3.3,5.73-.24.49-.48.98-.71,1.48-.2.43-.14,1.01-.14,1.48,0,1.12.1,2.24.3,3.34.04.24.4.14.36-.1-.19-1.09-.29-2.19-.28-3.3,0-.27,0-.55.02-.82,0-.28.1-.48.22-.73.22-.48.46-.95.69-1.42.95-1.88,2.01-3.7,3.17-5.47-.11-.06-.22-.13-.32-.19-.89,2-1.31,4.17-1.2,6.35,0,.2.32.26.37.05.45-1.94,1.06-3.85,1.99-5.61.46-.86.98-1.68,1.6-2.44.15-.18.31-.36.47-.54.07-.08.16-.21.26-.25.08-.04.23-.02.33-.03.61-.04,1.21.01,1.81.1,0-.11-.03-.23-.04-.34-1.78,1.3-3.03,3.22-3.71,5.3-.16.51-.29,1.03-.38,1.56-.04.24-.07.49-.09.73,0,.11-.02.22-.02.33,0,.17-.06.26-.15.4-.67.98-1.35,1.95-2.08,2.88-.92,1.17-1.91,2.28-2.96,3.34-.21.18.05.44.23.27Z"/>
        </g>
      </g>
      <g>
        <path d="m21.04,56.66c-1.18,4.18-3.13,8.08-4.65,12.14-.43,1.15-.82,2.31-1.15,3.49h.36c-.52-3.37-.12-6.82.14-10.19.25-3.28.47-6.7-.47-9.89-.51-1.72-1.38-3.29-2.6-4.6-.04.11-.09.21-.13.32,1.68.14,3.25.84,4.51,1.96s2.2,2.56,2.92,4.08c.43.91.78,1.85,1.07,2.8.07.23.43.13.36-.1-1-3.28-2.79-6.79-6.02-8.35-.89-.43-1.85-.68-2.84-.76-.17,0-.23.21-.13.32,2.25,2.42,3.04,5.62,3.15,8.85.11,3.39-.37,6.76-.52,10.14-.08,1.85-.07,3.7.21,5.53.03.19.32.17.36,0,1.17-4.17,3.12-8.05,4.63-12.1.43-1.16.83-2.33,1.16-3.52.07-.26-.29-.36-.36-.12Z"/>
        <path d="m16.56,89.28c-1.15-2.16-1.6-4.61-1.81-7.03-.23-2.64-.18-5.29-.17-7.94.01-2.27.01-4.55-.25-6.8-.22-1.95-.62-3.92-1.51-5.68-.98-1.95-2.56-3.45-4.54-4.35-.18-.08-.33.08-.26.26,2.68,6.14,2.86,13.09,2.43,19.67-.12,1.81-.29,3.62-.5,5.42-.01.08.07.16.14.18.65.2,1.26.49,1.79.92.49.39.89.88,1.27,1.38,1.04,1.41,1.97,2.86,3.12,4.19.16.18.42-.08.27-.27-.68-.79-1.32-1.62-1.91-2.47-.44-.62-.85-1.26-1.32-1.87-.82-1.07-1.81-1.84-3.11-2.25.05.06.09.12.14.18.74-6.62,1.17-13.45-.28-20-.4-1.81-.96-3.58-1.7-5.28-.09.09-.17.17-.26.26,1.79.81,3.25,2.12,4.21,3.84.95,1.71,1.39,3.67,1.63,5.61.59,4.84.05,9.73.41,14.58.2,2.62.65,5.29,1.9,7.64.1.21.42.02.31-.19Z"/>
        <path d="m9.72,82.44c.52-2.91.39-5.99-.63-8.78-.85-2.33-2.4-4.54-4.74-5.53-1.34-.57-2.8-.67-4.22-.42-.18.03-.16.26-.04.34,1.81,1.32,3.06,3.37,3.66,5.51.14.52.25,1.05.31,1.59.02.22.04.44.05.67.02.27.25.5.4.71.64.93,1.3,1.86,2.01,2.75.9,1.14,1.88,2.22,2.91,3.26.17.17.44-.09.27-.27-1.78-1.79-3.34-3.73-4.77-5.8-.15-.22-.39-.47-.43-.73-.04-.25-.03-.51-.06-.75-.06-.51-.17-1.02-.31-1.52-.29-1.05-.74-2.07-1.32-3-.66-1.06-1.5-2-2.51-2.73-.01.11-.03.23-.04.34,1.24-.21,2.51-.14,3.69.29,1.07.39,2.02,1.08,2.79,1.93,1.75,1.93,2.6,4.58,2.86,7.13.17,1.64.1,3.3-.2,4.93-.08.21.28.31.32.08Z"/>
        <path d="m33.13,36.06c-4.72,2.88-6.89,8.49-8.38,13.55-.42,1.43-.8,2.88-1.17,4.33h.36c-.44-1.59-.26-3.32.04-4.91.34-1.77.89-3.5,1.58-5.16.32-.78.68-1.55,1.09-2.29.1-.18-.15-.39-.29-.23-.99,1.09-1.89,2.27-2.46,3.64-.48,1.14-.71,2.35-1,3.55.12.02.25.03.37.05-.07-2.68-.06-5.36.16-8.03.19-2.24.53-4.5,1.27-6.63.35-1.01.8-1.98,1.39-2.87.1-.15-.1-.36-.26-.26-1.86,1.23-2.93,3.22-3.32,5.39h.36c-.39-2.16-1.46-4.16-3.32-5.39-.15-.1-.36.1-.26.26,1.1,1.65,1.71,3.58,2.11,5.51.5,2.41.67,4.88.73,7.33.04,1.56.03,3.12-.01,4.68.12-.02.25-.03.37-.05-.29-1.19-.53-2.41-1-3.55-.57-1.37-1.47-2.55-2.46-3.64-.15-.16-.4.04-.29.23.78,1.4,1.38,2.9,1.88,4.42.56,1.71.99,3.49,1.08,5.3.04.89,0,1.79-.24,2.65h.36c-.68-2.65-1.38-5.31-2.34-7.88-.95-2.53-2.16-5.02-3.9-7.11-.94-1.13-2.05-2.12-3.31-2.89v.32c2.49-1.76,5.67-.04,7.31,2.06.11.14.31,0,.32-.13.23-3.71-1.58-7.33-4.35-9.73-.75-.65-1.58-1.22-2.46-1.67v.32c1.04-.55,2.23-.8,3.4-.62,1.2.18,2.27.77,3.15,1.59.15.14.41-.04.29-.23-1.53-2.4-1.76-5.83-.53-8.41.32-.67.75-1.27,1.31-1.76.05-.04.07-.12.05-.18-1.25-4.48-.81-9.36.63-13.74.41-1.24.9-2.45,1.48-3.61h-.32c2.06,4.12,3.1,8.87,2.77,13.48-.09,1.31-.31,2.61-.66,3.87-.02.06,0,.14.05.18,2.14,1.84,2.43,5.29,1.77,7.86-.21.82-.53,1.6-.99,2.31-.12.18.14.37.29.23.88-.82,1.95-1.41,3.15-1.59,1.17-.18,2.36.07,3.4.62v-.32c-3.21,1.64-5.72,4.76-6.55,8.27-.24,1.02-.34,2.07-.27,3.12,0,.14.21.27.32.13,1.65-2.1,4.82-3.81,7.31-2.06.2.14.39-.19.19-.32-2.62-1.85-6.02-.11-7.77,2.11.11.04.21.09.32.13-.22-3.6,1.52-7.09,4.21-9.43.74-.64,1.55-1.19,2.43-1.64.12-.06.12-.26,0-.32-1.11-.58-2.35-.84-3.6-.67-1.29.18-2.46.82-3.41,1.7.1.08.2.15.29.23,1.6-2.52,1.81-6.09.53-8.79-.33-.69-.78-1.33-1.37-1.83.02.06.03.12.05.18,1.27-4.58.82-9.56-.66-14.03-.41-1.23-.9-2.44-1.49-3.6-.06-.12-.26-.12-.32,0-2.11,4.21-3.17,9.06-2.82,13.77.1,1.31.32,2.61.67,3.87.02-.06.03-.12.05-.18-2.24,1.93-2.56,5.53-1.87,8.22.22.85.56,1.66,1.03,2.4.1-.08.2-.15.29-.23-.95-.89-2.11-1.52-3.41-1.7-1.24-.18-2.49.08-3.6.67-.12.06-.12.26,0,.32,3.11,1.59,5.54,4.6,6.36,8,.24,1.01.33,2.04.27,3.07.11-.04.21-.09.32-.13-1.74-2.22-5.14-3.96-7.76-2.11-.11.08-.13.25,0,.32,4.65,2.85,6.77,8.42,8.23,13.41.41,1.41.78,2.83,1.15,4.25.05.18.31.18.36,0,.45-1.61.28-3.36-.02-4.99-.34-1.83-.91-3.62-1.63-5.34-.33-.79-.69-1.58-1.11-2.33-.1.08-.2.15-.29.23.98,1.07,1.87,2.24,2.42,3.6.44,1.1.67,2.27.95,3.42.05.21.36.16.37-.05.07-2.73.06-5.46-.18-8.18-.2-2.25-.54-4.52-1.3-6.65-.36-1.01-.81-1.99-1.4-2.88-.09.09-.17.17-.26.26,1.78,1.18,2.78,3.1,3.15,5.16.03.18.33.18.36,0,.37-2.06,1.36-3.98,3.15-5.16l-.26-.26c-1.11,1.66-1.73,3.61-2.13,5.56-.5,2.42-.69,4.9-.75,7.37-.04,1.6-.03,3.19,0,4.79,0,.21.32.26.37.05.28-1.15.5-2.32.95-3.42.55-1.35,1.44-2.52,2.42-3.6-.1-.08-.2-.15-.29-.23-.8,1.44-1.42,2.98-1.93,4.54-.57,1.75-1,3.58-1.08,5.43-.04.9,0,1.82.26,2.69.05.18.32.18.36,0,.66-2.57,1.33-5.14,2.25-7.63.93-2.53,2.12-5.04,3.84-7.13.93-1.13,2.03-2.13,3.28-2.9.21-.14.02-.46-.19-.33Z"/>
        <g>
          <path d="m21.19,90.74c-2.83-.83-3.63-3.99-3.7-6.6-.02-.74.02-1.48.09-2.21-.06.06-.12.12-.19.19h.14c-.06-.06-.12-.12-.19-.19.37,3.29,1.76,6.32,3.7,8.97v-.19s-.05.08-.07.12c-.12.21.2.4.32.19.02-.04.05-.08.07-.12.03-.05.04-.14,0-.19-1.9-2.59-3.29-5.56-3.65-8.78-.01-.1-.08-.19-.19-.19h-.14c-.11,0-.18.09-.19.19-.15,1.41-.14,2.86.11,4.26.25,1.36.76,2.75,1.76,3.74.56.56,1.26.95,2.01,1.18.26.06.36-.3.12-.37Z"/>
          <path d="m21.04,56.66c-1.18,4.18-3.13,8.08-4.65,12.14-.43,1.15-.82,2.31-1.15,3.49h.36c-.17-1.11-.23-2.24-.24-3.36,0-.53.01-1.05.03-1.58.02-.59.21-1.13.34-1.71.49-2.1.73-4.25.74-6.41-.11.04-.21.09-.32.13.84.98,1.37,2.2,1.5,3.48.02.24.36.24.38,0,.14-2.95-.1-5.97-1.36-8.68-.1.08-.2.15-.29.23,1.39,1.16,2.3,2.78,2.57,4.57.03.18.33.18.36,0,.4-2.24.69-4.57.1-6.81-.11.05-.23.1-.34.14.87,1.39,1.5,2.9,1.98,4.46.07.23.43.13.36-.1-.49-1.59-1.13-3.14-2.02-4.55-.11-.18-.4-.07-.34.14.57,2.17.28,4.44-.1,6.61h.36c-.28-1.84-1.24-3.54-2.67-4.73-.17-.14-.39.03-.29.23,1.24,2.64,1.45,5.61,1.31,8.49h.38c-.14-1.39-.69-2.69-1.61-3.75-.11-.13-.32-.02-.32.13-.01,2.24-.27,4.48-.81,6.66-.07.27-.14.54-.21.8-.06.25-.05.52-.06.78-.02.57-.03,1.13-.02,1.7.01,1.08.09,2.16.25,3.22.03.19.32.17.36,0,1.17-4.17,3.12-8.05,4.63-12.1.43-1.16.83-2.33,1.16-3.52.06-.24-.3-.34-.37-.1Z"/>
          <path d="m16.53,89.24c-.68-.79-1.31-1.62-1.91-2.48-.44-.62-.85-1.26-1.31-1.87-.82-1.07-1.81-1.84-3.11-2.24.05.06.09.12.14.18.19-1.72.36-3.44.48-5.16.03-.46.05-.89.19-1.33.13-.39.24-.79.33-1.19.18-.82.28-1.65.29-2.49-.12.03-.23.06-.35.09.96,1.73,1.26,3.69,1.32,5.64.01.23.29.24.37.05.85-2.04,1.4-4.18,1.62-6.37h-.38c.08,4.69-.36,9.52.8,14.12.29,1.13.69,2.24,1.24,3.27.11.21.44.02.32-.19-1.02-1.91-1.49-4.06-1.73-6.19-.26-2.3-.27-4.63-.26-6.95.01-1.35.03-2.71,0-4.07,0-.25-.35-.24-.38,0-.22,2.16-.77,4.27-1.61,6.27.12.02.25.03.37.05-.06-2.02-.38-4.04-1.37-5.83-.09-.17-.35-.09-.35.09-.01.86-.12,1.72-.32,2.56-.1.4-.21.8-.35,1.19-.14.4-.12.84-.15,1.26-.12,1.73-.29,3.45-.48,5.16-.01.08.06.16.14.18.65.2,1.26.49,1.79.91.49.39.89.88,1.27,1.38,1.03,1.41,1.97,2.87,3.12,4.19.16.22.43-.04.27-.23Z"/>
          <path d="m9.67,82.26c-1.78-1.79-3.33-3.74-4.76-5.81-.15-.22-.39-.47-.43-.73-.04-.25-.03-.5-.06-.75-.06-.51-.17-1.02-.31-1.51-.29-1.05-.74-2.07-1.32-3-.66-1.06-1.5-2-2.51-2.74-.01.11-.03.23-.04.34.58-.1,1.17-.14,1.76-.11.11.01.29-.01.39.03.1.05.18.17.26.25.16.17.32.35.47.54.62.75,1.15,1.58,1.6,2.44.93,1.76,1.54,3.67,1.99,5.61.05.21.36.15.37-.05.1-2.19-.31-4.36-1.2-6.35-.11.06-.22.13-.32.19,1.15,1.76,2.21,3.59,3.17,5.47.23.45.45.91.67,1.37.13.27.23.48.24.78.01.27.02.55.02.82.01,1.11-.09,2.21-.28,3.3-.04.24.32.34.36.1.19-1.08.3-2.18.3-3.28,0-.45.07-1.07-.12-1.49-.23-.51-.48-1.02-.74-1.53-.99-1.97-2.09-3.88-3.3-5.73-.13-.21-.42-.03-.32.19.84,1.93,1.23,4.04,1.13,6.16.12-.02.25-.03.37-.05-.48-2.07-1.15-4.11-2.18-5.97-.5-.91-1.09-1.77-1.78-2.55-.15-.16-.3-.4-.49-.52-.18-.12-.47-.09-.68-.1-.6-.03-1.21.03-1.8.12-.18.03-.16.26-.04.34,1.82,1.32,3.06,3.37,3.66,5.51.14.52.25,1.05.31,1.58.02.22.04.44.05.67.02.27.25.5.4.71.64.93,1.3,1.86,2,2.75.9,1.14,1.88,2.23,2.9,3.26.17.17.43-.09.26-.26Z"/>
        </g>
      </g>
      <path d="m22.89,33.51c-.15-1.58-.38-3.15-.57-4.73-.08-.69-.16-1.38-.2-2.08-.03-.52-.05-1.06.05-1.57.05-.26.14-.64.44-.71.29-.07.46.19.55.43.15.44.15.94.14,1.4,0,.66-.07,1.32-.15,1.97-.19,1.76-.47,3.52-.64,5.28-.02.25.35.25.38,0,.16-1.72.43-3.43.62-5.15.08-.72.16-1.45.16-2.18,0-.49,0-1.02-.17-1.49-.11-.31-.32-.58-.66-.64-.34-.06-.65.1-.82.39-.22.37-.26.84-.28,1.26-.03.68.02,1.35.09,2.03.19,1.93.51,3.84.69,5.77.01.25.39.25.37.01Z"/>
    </g>
  </g>
</svg>