<?xml version="1.0" encoding="UTF-8"?>
<svg id="Layer_2" data-name="Layer 2" xmlns="http://www.w3.org/2000/svg" viewBox="0 0 42.79 44.48">
  <g id="Layer_1-2" data-name="Layer 1">
    <g>
      <path d="m20.46,20.81c-.54,1.08-.46,2.34.31,3.28s2.1,1.29,3.25.92c1.24-.4,2-1.58,2.04-2.86.04-1.24-.66-2.38-1.84-2.81-.66-.24-1.42-.25-2.09-.02-.74.27-1.31.8-1.67,1.49-.11.21.21.4.32.19.57-1.09,1.73-1.66,2.95-1.4,1.07.23,1.84,1.08,1.94,2.17.1,1.05-.36,2.16-1.31,2.69-.98.54-2.27.4-3.08-.37-.85-.81-1.01-2.05-.5-3.09.11-.22-.22-.41-.32-.19Z"/>
      <path d="m.03,25.12c1.99,2.9,5.01,5,8.5,5.61,3.2.56,6.58-.14,9.27-1.97,1.58-1.08,2.89-2.51,3.84-4.18.05-.09.02-.2-.07-.26-.49-.35-.86-.85-1.02-1.43-.07-.28-.1-.57-.08-.85.01-.17.05-.35.09-.52.04-.14.09-.4.19-.5.07-.07.08-.2,0-.27-2.23-1.88-4.88-3.43-7.85-3.59-2.97-.17-5.75,1.13-8.06,2.91-1.8,1.39-3.36,3.05-4.79,4.8-.15.19.11.45.27.27,2.21-2.71,4.83-5.39,8.11-6.78,2.5-1.06,5.21-1.09,7.72-.08,1.6.64,3.04,1.63,4.35,2.73v-.27c-.23.23-.32.73-.36,1.04-.05.37-.04.74.04,1.1.17.72.61,1.32,1.21,1.74-.02-.09-.04-.17-.07-.26-1.61,2.83-4.3,4.91-7.45,5.74-3.09.81-6.43.38-9.21-1.19-1.73-.98-3.19-2.38-4.31-4.02-.13-.16-.45.03-.32.23Z"/>
      <path d="m13.51,44.47c3.2-1.52,6.85-2.15,9.54-4.61,1.46-1.33,2.54-3.13,3.32-4.93.75-1.71,1.23-3.58,1.16-5.46-.08-2.06-.89-3.97-2.36-5.42-.07-.07-.19-.07-.27,0-.59.56-1.37.8-2.17.71-.06-.01-.13.04-.16.09-1.57,2.8-4.05,5-7.07,6.13-.87.33-1.78.56-2.7.71-.06.01-.12.07-.13.13-.72,4.16-.24,8.42.56,12.53.05.24.41.14.36-.1-.78-4.04-1.27-8.24-.56-12.33l-.13.13c3.35-.53,6.44-2.3,8.59-4.93.53-.65,1-1.35,1.41-2.09-.05.03-.11.06-.16.09.9.1,1.78-.2,2.43-.82h-.27c1.29,1.28,2.07,2.95,2.22,4.76s-.26,3.63-.93,5.31c-.72,1.79-1.76,3.6-3.15,4.96-1.27,1.24-2.84,2.09-4.47,2.75-1.75.71-3.56,1.24-5.27,2.05-.2.12-.01.44.21.34Z"/>
      <path d="m25.41,23.36h0c0,.1.06.17.14.19,3.26,1.04,6.84.87,9.95-.58,3-1.4,5.37-3.95,6.51-7.06.71-1.95.91-4.04.69-6.1-.01-.09-.08-.2-.19-.19-3.01.29-6.02.92-8.77,2.23-2.76,1.32-5.11,3.35-6.82,5.89-.54.79-1.01,1.63-1.42,2.49-.09.19-.21.34-.12.55.11.25.21.48.27.75.11.58.03,1.19-.2,1.73-.09.22.23.41.32.19.4-.94.41-2-.09-2.9v.19c1.21-2.6,2.93-4.95,5.22-6.7,2.09-1.6,4.53-2.65,7.08-3.28,1.49-.37,3.01-.61,4.54-.75l-.19-.19c.36,3.44-.51,6.93-2.77,9.6-2.08,2.46-5.1,4.02-8.29,4.36-1.89.21-3.8,0-5.61-.58.05.06.09.12.14.18h0c-.01-.26-.39-.26-.39-.02Z"/>
      <path d="m17.67,17.54c1.33.66,2.54,1.51,3.67,2.47.06.05.16.08.23.03,1.07-.75,2.82-.68,3.62.46.07.11.26.14.32,0,.78-1.57,1.52-3.19,2.01-4.88.44-1.49.68-3.06.37-4.6-.6-2.99-2.56-5.55-4.71-7.63-1.27-1.23-2.65-2.34-4.09-3.36-.07-.05-.17-.02-.23.03-1.97,1.81-3.5,4.11-4.01,6.77-.45,2.35-.1,4.78.77,6.99.51,1.29,1.19,2.51,1.98,3.65.14.2.46.01.32-.19-1.34-1.93-2.36-4.1-2.75-6.43-.39-2.34-.04-4.75,1.06-6.86.73-1.39,1.73-2.61,2.89-3.67-.08.01-.15.02-.23.03,2.48,1.76,4.87,3.81,6.62,6.32.83,1.19,1.51,2.5,1.88,3.9.38,1.46.28,2.91-.08,4.37-.47,1.87-1.28,3.64-2.13,5.36h.32c-.91-1.3-2.88-1.47-4.13-.59.08.01.15.02.23.03-1.15-.98-2.39-1.85-3.75-2.53-.21-.1-.4.23-.18.33Z"/>
      <path d="m24.71,39.9c3.86,1.1,8.09.68,11.38-1.72,3.1-2.27,4.92-5.89,5.2-9.69.19-2.49-.27-5-1.19-7.31-.05-.13-.21-.19-.31-.08-3.19,3.17-7.88,4.66-12.32,3.89-.16-.03-.3.12-.21.28,1.96,3.45,1.24,7.64-.49,11.03-.6,1.17-1.31,2.3-2.15,3.3-.15.18.11.45.27.27,1.48-1.75,2.63-3.86,3.31-6.05.59-1.88.81-3.9.45-5.85-.19-1.01-.55-1.99-1.06-2.89-.07.09-.14.18-.21.28,3.57.62,7.37-.17,10.41-2.15.82-.53,1.58-1.15,2.28-1.84-.1-.03-.21-.06-.31-.08,1.5,3.8,1.72,8.15-.04,11.91-1.56,3.32-4.53,5.82-8.12,6.64-2.24.51-4.58.35-6.78-.28-.24-.09-.34.27-.11.34Z"/>
      <path d="m13.01,22.92c.64.36,1.27.72,1.91,1.08v-.32c-.47.33-.93.66-1.4.99-.14.1-.11.28.04.34.72.28,1.43.57,2.15.85-.03-.1-.06-.21-.08-.31-.4.51-.79,1.02-1.19,1.53-.1.13-.04.31.13.32.6.02,1.2.04,1.8.06-.06-.08-.12-.16-.18-.24-.16.78-.32,1.57-.48,2.35-.03.17.12.28.28.21,2.38-1.1,4.35-2.92,5.65-5.19.05-.09.02-.2-.07-.26-.49-.35-.86-.85-1.02-1.43-.07-.28-.1-.57-.08-.85.01-.17.05-.35.09-.52.04-.14.09-.4.19-.5.07-.07.08-.2,0-.27-.63-.54-1.29-1.04-1.99-1.5-.33-.22-.67-.42-1.02-.61-.17-.09-.34-.18-.51-.27-.12-.06-.28-.17-.42-.18-.27-.01-.61.13-.88.19-.33.07-.66.14-.99.21-.36.07-.72.15-1.08.22-.14.03-.18.22-.08.31.55.52,1.1,1.05,1.65,1.57.04-.11.09-.21.13-.32-.9.05-1.8.11-2.7.16-.19.01-.25.25-.09.35.62.4,1.24.8,1.86,1.2v-.32c-.55.27-1.09.54-1.64.81-.22.11-.03.43.19.32.55-.27,1.09-.54,1.64-.81.13-.07.11-.25,0-.32-.62-.4-1.24-.8-1.86-1.2-.03.12-.06.23-.09.35.9-.05,1.8-.11,2.7-.16.15-.01.26-.2.13-.32-.55-.52-1.1-1.05-1.65-1.57-.03.1-.06.21-.08.31.3-.06.61-.12.91-.19.29-.06.58-.12.88-.19.31-.07.65-.19.97-.21.27-.02.65.27.88.4.32.17.63.36.93.56.69.44,1.33.94,1.96,1.47v-.27c-.23.23-.32.73-.36,1.04-.05.37-.04.74.04,1.1.17.72.61,1.32,1.21,1.74-.02-.09-.04-.17-.07-.26-1.27,2.23-3.19,3.98-5.51,5.06.09.07.18.14.28.21.16-.78.32-1.57.48-2.35.02-.12-.05-.23-.18-.24-.6-.02-1.2-.04-1.8-.06.04.11.09.21.13.32.4-.51.79-1.02,1.19-1.53.09-.12.06-.26-.08-.31-.72-.28-1.43-.57-2.15-.85.01.11.03.23.04.34.47-.33.93-.66,1.4-.99.11-.08.13-.25,0-.32-.64-.36-1.27-.72-1.91-1.08-.23-.1-.41.23-.2.35Z"/>
      <path d="m17.12,31.73c-.03,1.21,0,2.43.03,3.64.01.18.26.26.35.09.89-1.65,1.8-3.31,2.9-4.84-.1.01-.2.03-.29.04.62.78,1.25,1.56,1.87,2.34.1.12.27.03.31-.08.37-.89.77-1.78,1.17-2.66-.1.01-.2.03-.29.04.54.49,1.08.98,1.62,1.48.11.1.26.05.31-.08.32-.81.64-1.61.95-2.42-.11.01-.23.03-.34.04.44.84.88,1.67,1.31,2.51.07.14.31.11.34-.04.24-1.37.26-2.78-.09-4.13-.36-1.37-1.09-2.6-2.09-3.59-.07-.07-.19-.07-.27,0-.59.56-1.37.8-2.17.71-.06-.01-.13.04-.16.09-.87,1.54-1.99,2.91-3.37,4.02-.73.59-1.52,1.1-2.36,1.52-.43.22-.87.38-1.31.58-.17.07-.2.19-.29.35-.24.44-.48.89-.72,1.33-.09.16.09.35.26.26.81-.45,1.68-.75,2.57-1,.23-.07.13-.43-.1-.36-.92.26-1.82.58-2.66,1.04l.26.26c.21-.39.42-.79.63-1.18.05-.09.1-.19.15-.28.01-.03.03-.06.05-.09.05-.06,0,.01,0,.02.41-.21.86-.35,1.27-.56,1.65-.82,3.14-1.98,4.34-3.39.61-.72,1.15-1.5,1.61-2.33-.05.03-.11.06-.16.09.9.1,1.78-.2,2.43-.82h-.27c.96.95,1.66,2.12,2,3.43.34,1.29.32,2.63.09,3.93.11-.01.23-.03.34-.04-.44-.84-.88-1.67-1.31-2.51-.08-.16-.29-.09-.34.04-.32.81-.64,1.61-.95,2.42.1-.03.21-.06.31-.08-.54-.49-1.08-.98-1.62-1.48-.08-.07-.24-.08-.29.04-.41.91-.82,1.83-1.2,2.75.1-.03.21-.06.31-.08-.63-.78-1.25-1.55-1.87-2.34-.08-.1-.23-.05-.29.04-1.09,1.52-2.01,3.19-2.9,4.84.12.03.23.06.35.09-.04-1.21-.06-2.43-.03-3.64,0-.25-.38-.25-.39-.01Z"/>
      <path d="m25.41,23.36h0c0,.1.06.17.14.19,2.03.64,4.17.84,6.28.52.51-.08,1.02-.18,1.52-.32.22-.06.48-.1.68-.21.21-.12.4-.35.58-.51.5-.44,1.01-.88,1.52-1.31.14-.12.01-.31-.13-.32-1.19-.11-2.37-.22-3.56-.33.04.11.09.21.13.32.83-.72,1.67-1.45,2.5-2.17.12-.11.02-.33-.13-.32-.83.03-1.65.05-2.48.08.04.11.09.21.13.32.78-.86,1.55-1.73,2.33-2.59.13-.14,0-.35-.18-.31-1.35.26-2.71.52-4.06.78.07.09.14.18.21.28.62-.91,1.23-1.82,1.85-2.73.11-.16-.1-.34-.26-.26-.99.56-1.98,1.12-2.96,1.69l.26.26c.4-.8.8-1.61,1.17-2.43.07-.15-.09-.38-.26-.26-1.46,1.12-2.72,2.46-3.75,3.99-.57.84-1.07,1.73-1.5,2.65-.13.27-.13.3,0,.56.11.22.18.47.22.71.09.55,0,1.12-.22,1.63-.09.22.23.41.32.19.4-.94.41-2-.09-2.9v.19c1.21-2.6,2.93-4.94,5.21-6.7l-.26-.26c-.37.82-.77,1.63-1.17,2.43-.08.16.09.35.26.26.99-.56,1.98-1.12,2.96-1.69l-.26-.26c-.62.91-1.23,1.82-1.85,2.73-.1.15.06.3.21.28,1.35-.26,2.71-.52,4.06-.78-.06-.1-.12-.21-.18-.31-.78.86-1.55,1.73-2.33,2.59-.1.12-.04.33.13.32.83-.03,1.65-.05,2.48-.08-.04-.11-.09-.21-.13-.32-.83.72-1.67,1.45-2.5,2.17-.13.12-.01.31.13.32,1.19.11,2.37.22,3.56.33-.04-.11-.09-.21-.13-.32-.45.38-.9.77-1.34,1.16-.2.18-.4.39-.62.55-.18.13-.43.17-.64.22-.48.13-.97.24-1.47.31-2.05.32-4.16.11-6.14-.51.05.06.09.12.14.18h0c0-.25-.38-.25-.38,0Z"/>
      <path d="m15.86,14.38c.27.63.58,1.24.93,1.83.18.3.36.59.55.88.09.13.17.29.28.4.09.09.22.13.33.19,1.22.64,2.35,1.44,3.39,2.33.06.05.16.08.23.03,1.07-.75,2.82-.68,3.62.46.07.11.26.14.32,0,.77-1.56,1.51-3.16,2-4.83.11-.39.21-.78.3-1.17.04-.17.07-.35.1-.52.03-.16.1-.41.08-.57-.05-.27-.43-.53-.62-.73-.29-.31-.59-.63-.88-.94-.24-.26-.82-1.12-1.16-.53-.13.24-.21.53-.3.78-.15.39-.3.78-.45,1.17-.01.02-.07.25-.1.25.04-.01-.14-.22-.15-.22-.28-.33-.55-.66-.83-1-.15-.18-.35-.54-.6-.57-.36-.05-.41.3-.47.55-.09.42-.19.85-.28,1.27-.04.19-.09.39-.13.58-.01.05-.04.32-.08.35-.05.03-.46-.32-.52-.37-.37-.27-.73-.54-1.1-.81-.18-.13-.45-.42-.7-.37-.39.08-.28.56-.27.85.02.48.05.96.07,1.44,0,.04.03.14.01.17-.04.07.08-.01-.04.01-.09.02-.32-.12-.41-.15-.15-.06-.3-.11-.45-.17-.82-.3-1.64-.6-2.46-.88-.23-.08-.33.29-.1.36.74.25,1.48.51,2.21.78.26.1.52.19.78.29.2.07.46.24.67.12.26-.14.18-.52.16-.76-.02-.42-.04-.85-.06-1.27,0-.08-.06-.32-.02-.39.02-.04-.02-.02.05.02.11.05.23.17.33.24.17.12.34.25.51.37.33.24.67.49,1,.73.24.18.57.25.7-.11.08-.23.11-.49.16-.72.09-.43.19-.85.28-1.28.03-.13.04-.3.09-.42.04-.08-.02-.07.04-.05.08.04.19.23.25.3.14.17.28.34.43.51.21.26.41.54.65.78s.53.12.65-.16c.14-.32.25-.65.37-.97.13-.34.23-.73.4-1.05,0-.01.03-.09.03-.09-.01,0,.28.35.31.38.27.29.54.58.81.87.16.17.31.33.47.5.07.08.15.19.24.25.04.1.08.11.11.05,0,.03-.01.07-.01.1-.01.46-.16.97-.27,1.42-.47,1.88-1.28,3.66-2.14,5.38h.32c-.91-1.3-2.88-1.47-4.13-.59.08.01.15.02.23.03-1-.85-2.07-1.63-3.23-2.26-.12-.07-.25-.12-.37-.2-.16-.09-.23-.24-.33-.38-.19-.29-.38-.58-.55-.88-.35-.59-.66-1.2-.93-1.83-.1-.19-.42,0-.32.22Z"/>
      <path d="m28.32,33.38c.49-.66.96-1.34,1.41-2.04.11-.17.25-.35.34-.54s-.02.07-.06,0h.09c.37-.01.78-.12,1.15-.17.29-.04.58-.08.88-.12.1-.01.15-.14.13-.23-.14-.66-.27-1.33-.41-1.99l-.23.23c.64.24,1.29.48,1.93.72.14.05.26-.1.23-.23-.19-.75-.38-1.5-.57-2.26-.06.08-.12.16-.18.24.83.04,1.65.09,2.48.13.12.01.22-.13.18-.24-.28-.8-.56-1.6-.84-2.41-.03-.09-.13-.17-.23-.13-2.27.8-4.76,1.04-7.13.63-.16-.03-.3.12-.21.28,1.39,2.44,1.44,5.32.7,7.98-.06.23.3.33.36.1.76-2.75.7-5.74-.74-8.27-.07.09-.14.18-.21.28,2.44.42,5,.19,7.33-.63-.08-.04-.15-.09-.23-.13.28.8.56,1.6.84,2.41.06-.08.12-.16.18-.24-.83-.04-1.65-.09-2.48-.13-.12-.01-.21.12-.18.24.19.75.38,1.5.57,2.26l.23-.23c-.64-.24-1.29-.48-1.93-.72-.14-.05-.26.1-.23.23.14.66.27,1.33.41,1.99.04-.08.09-.15.13-.23-.31.04-.62.09-.94.13-.37.05-.78.05-1.13.16-.24.07-.38.46-.51.65-.46.72-.94,1.42-1.45,2.1-.15.19.18.37.32.18Z"/>
    </g>
  </g>
</svg>