<?xml version="1.0" encoding="UTF-8"?>
<svg id="Layer_2" data-name="Layer 2" xmlns="http://www.w3.org/2000/svg" xmlns:xlink="http://www.w3.org/1999/xlink" viewBox="0 0 52.18 73.69">
  <defs>
    <style>
      .cls-1 {
        clip-path: url(#clippath-73);
      }

      .cls-2 {
        clip-path: url(#clippath-72);
      }

      .cls-3 {
        clip-path: url(#clippath-62);
      }

      .cls-4 {
        clip-path: url(#clippath-45);
      }

      .cls-5 {
        clip-path: url(#clippath-63);
      }

      .cls-6 {
        clip-path: url(#clippath-20);
      }

      .cls-7 {
        clip-path: url(#clippath-11);
      }

      .cls-8 {
        clip-path: url(#clippath-16);
      }

      .cls-9 {
        clip-path: url(#clippath-59);
      }

      .cls-10 {
        clip-path: url(#clippath-78);
      }

      .cls-11 {
        clip-path: url(#clippath-93);
      }

      .cls-12 {
        clip-path: url(#clippath-33);
      }

      .cls-13 {
        clip-path: url(#clippath-47);
      }

      .cls-14 {
        clip-path: url(#clippath-77);
      }

      .cls-15 {
        clip-path: url(#clippath-41);
      }

      .cls-16 {
        clip-path: url(#clippath-32);
      }

      .cls-17 {
        clip-path: url(#clippath-2);
      }

      .cls-18 {
        clip-path: url(#clippath-13);
      }

      .cls-19 {
        clip-path: url(#clippath-88);
      }

      .cls-20 {
        clip-path: url(#clippath-37);
      }

      .cls-21 {
        clip-path: url(#clippath-46);
      }

      .cls-22 {
        clip-path: url(#clippath-25);
      }

      .cls-23 {
        clip-path: url(#clippath-98);
      }

      .cls-24 {
        clip-path: url(#clippath-15);
      }

      .cls-25 {
        clip-path: url(#clippath-6);
      }

      .cls-26 {
        clip-path: url(#clippath-76);
      }

      .cls-27 {
        clip-path: url(#clippath-40);
      }

      .cls-28 {
        clip-path: url(#clippath-26);
      }

      .cls-29 {
        clip-path: url(#clippath-81);
      }

      .cls-30 {
        clip-path: url(#clippath-75);
      }

      .cls-31 {
        clip-path: url(#clippath-7);
      }

      .cls-32 {
        clip-path: url(#clippath-21);
      }

      .cls-33 {
        clip-path: url(#clippath-34);
      }

      .cls-34 {
        clip-path: url(#clippath-57);
      }

      .cls-35 {
        clip-path: url(#clippath-1);
      }

      .cls-36 {
        clip-path: url(#clippath-4);
      }

      .cls-37 {
        clip-path: url(#clippath-38);
      }

      .cls-38 {
        clip-path: url(#clippath-36);
      }

      .cls-39 {
        clip-path: url(#clippath-27);
      }

      .cls-40 {
        clip-path: url(#clippath-60);
      }

      .cls-41 {
        clip-path: url(#clippath-44);
      }

      .cls-42 {
        clip-path: url(#clippath-12);
      }

      .cls-43 {
        clip-path: url(#clippath-95);
      }

      .cls-44 {
        clip-path: url(#clippath-80);
      }

      .cls-45 {
        clip-path: url(#clippath-24);
      }

      .cls-46 {
        clip-path: url(#clippath-30);
      }

      .cls-47 {
        clip-path: url(#clippath-79);
      }

      .cls-48 {
        clip-path: url(#clippath-22);
      }

      .cls-49 {
        clip-path: url(#clippath-96);
      }

      .cls-50 {
        clip-path: url(#clippath-9);
      }

      .cls-51 {
        clip-path: url(#clippath-52);
      }

      .cls-52 {
        clip-path: url(#clippath);
      }

      .cls-53 {
        clip-path: url(#clippath-50);
      }

      .cls-54 {
        clip-path: url(#clippath-48);
      }

      .cls-55 {
        clip-path: url(#clippath-61);
      }

      .cls-56 {
        clip-path: url(#clippath-39);
      }

      .cls-57 {
        fill: none;
      }

      .cls-58 {
        clip-path: url(#clippath-19);
      }

      .cls-59 {
        clip-path: url(#clippath-31);
      }

      .cls-60 {
        clip-path: url(#clippath-86);
      }

      .cls-61 {
        clip-path: url(#clippath-54);
      }

      .cls-62 {
        clip-path: url(#clippath-3);
      }

      .cls-63 {
        clip-path: url(#clippath-91);
      }

      .cls-64 {
        clip-path: url(#clippath-43);
      }

      .cls-65 {
        clip-path: url(#clippath-70);
      }

      .cls-66 {
        clip-path: url(#clippath-8);
      }

      .cls-67 {
        clip-path: url(#clippath-55);
      }

      .cls-68 {
        clip-path: url(#clippath-69);
      }

      .cls-69 {
        clip-path: url(#clippath-29);
      }

      .cls-70 {
        clip-path: url(#clippath-18);
      }

      .cls-71 {
        clip-path: url(#clippath-90);
      }

      .cls-72 {
        clip-path: url(#clippath-14);
      }

      .cls-73 {
        clip-path: url(#clippath-17);
      }

      .cls-74 {
        clip-path: url(#clippath-5);
      }

      .cls-75 {
        clip-path: url(#clippath-58);
      }

      .cls-76 {
        clip-path: url(#clippath-42);
      }

      .cls-77 {
        clip-path: url(#clippath-65);
      }

      .cls-78 {
        clip-path: url(#clippath-10);
      }

      .cls-79 {
        clip-path: url(#clippath-23);
      }

      .cls-80 {
        clip-path: url(#clippath-74);
      }

      .cls-81 {
        clip-path: url(#clippath-56);
      }

      .cls-82 {
        clip-path: url(#clippath-53);
      }

      .cls-83 {
        clip-path: url(#clippath-49);
      }

      .cls-84 {
        clip-path: url(#clippath-67);
      }

      .cls-85 {
        clip-path: url(#clippath-51);
      }

      .cls-86 {
        clip-path: url(#clippath-28);
      }

      .cls-87 {
        clip-path: url(#clippath-71);
      }

      .cls-88 {
        clip-path: url(#clippath-85);
      }

      .cls-89 {
        clip-path: url(#clippath-68);
      }

      .cls-90 {
        clip-path: url(#clippath-35);
      }

      .cls-91 {
        clip-path: url(#clippath-66);
      }
    </style>
    <clipPath id="clippath">
      <path class="cls-57" d="m30.59,56.24c.56.75,1.12,1.5,1.68,2.26,3.93,5.29,7.9,10.6,12.81,14.99,1.98-1.6,4.38-2.49,6.92-2.33-7.41-5.39-12.23-14.39-13.09-23.53-.81,1.6-1.48,3.1-2.57,4.1-1.7,1.56-3.85,3.02-5.75,4.51Z"/>
    </clipPath>
    <clipPath id="clippath-1">
      <rect class="cls-57" x="29.11" y="44.98" width="6.26" height="6.26" transform="translate(-23.7 63.11) rotate(-71.18)"/>
    </clipPath>
    <clipPath id="clippath-2">
      <rect class="cls-57" x="29.11" y="44.98" width="6.26" height="6.26" transform="translate(-23.7 63.11) rotate(-71.18)"/>
    </clipPath>
    <clipPath id="clippath-3">
      <rect class="cls-57" x="29.11" y="44.98" width="6.26" height="6.26" transform="translate(-23.7 63.11) rotate(-71.18)"/>
    </clipPath>
    <clipPath id="clippath-4">
      <rect class="cls-57" x="29.11" y="44.98" width="6.26" height="6.26" transform="translate(-23.7 63.11) rotate(-71.18)"/>
    </clipPath>
    <clipPath id="clippath-5">
      <path class="cls-57" d="m30.59,56.24c.56.75,1.12,1.5,1.68,2.26,3.93,5.29,7.9,10.6,12.81,14.99,1.98-1.6,4.38-2.49,6.92-2.33-7.41-5.39-12.23-14.39-13.09-23.53-.81,1.6-1.48,3.1-2.57,4.1-1.7,1.56-3.85,3.02-5.75,4.51Z"/>
    </clipPath>
    <clipPath id="clippath-6">
      <rect class="cls-57" x="27.09" y="50.91" width="6.26" height="6.26" transform="translate(-30.68 65.21) rotate(-71.18)"/>
    </clipPath>
    <clipPath id="clippath-7">
      <rect class="cls-57" x="27.09" y="50.91" width="6.26" height="6.26" transform="translate(-30.68 65.21) rotate(-71.18)"/>
    </clipPath>
    <clipPath id="clippath-8">
      <rect class="cls-57" x="27.09" y="50.91" width="6.26" height="6.26" transform="translate(-30.68 65.21) rotate(-71.18)"/>
    </clipPath>
    <clipPath id="clippath-9">
      <rect class="cls-57" x="27.09" y="50.91" width="6.26" height="6.26" transform="translate(-30.68 65.21) rotate(-71.18)"/>
    </clipPath>
    <clipPath id="clippath-10">
      <path class="cls-57" d="m30.59,56.24c.56.75,1.12,1.5,1.68,2.26,3.93,5.29,7.9,10.6,12.81,14.99,1.98-1.6,4.38-2.49,6.92-2.33-7.41-5.39-12.23-14.39-13.09-23.53-.81,1.6-1.48,3.1-2.57,4.1-1.7,1.56-3.85,3.02-5.75,4.51Z"/>
    </clipPath>
    <clipPath id="clippath-11">
      <rect class="cls-57" x="25.07" y="56.84" width="6.26" height="6.26" transform="translate(-37.66 67.32) rotate(-71.18)"/>
    </clipPath>
    <clipPath id="clippath-12">
      <rect class="cls-57" x="25.07" y="56.84" width="6.26" height="6.26" transform="translate(-37.66 67.32) rotate(-71.18)"/>
    </clipPath>
    <clipPath id="clippath-13">
      <rect class="cls-57" x="25.07" y="56.84" width="6.26" height="6.26" transform="translate(-37.66 67.32) rotate(-71.18)"/>
    </clipPath>
    <clipPath id="clippath-14">
      <rect class="cls-57" x="25.07" y="56.84" width="6.26" height="6.26" transform="translate(-37.66 67.32) rotate(-71.18)"/>
    </clipPath>
    <clipPath id="clippath-15">
      <path class="cls-57" d="m30.59,56.24c.56.75,1.12,1.5,1.68,2.26,3.93,5.29,7.9,10.6,12.81,14.99,1.98-1.6,4.38-2.49,6.92-2.33-7.41-5.39-12.23-14.39-13.09-23.53-.81,1.6-1.48,3.1-2.57,4.1-1.7,1.56-3.85,3.02-5.75,4.51Z"/>
    </clipPath>
    <clipPath id="clippath-16">
      <rect class="cls-57" x="23.05" y="62.78" width="6.26" height="6.26" transform="translate(-44.65 69.42) rotate(-71.18)"/>
    </clipPath>
    <clipPath id="clippath-17">
      <rect class="cls-57" x="23.05" y="62.78" width="6.26" height="6.26" transform="translate(-44.65 69.42) rotate(-71.18)"/>
    </clipPath>
    <clipPath id="clippath-18">
      <rect class="cls-57" x="23.05" y="62.78" width="6.26" height="6.26" transform="translate(-44.65 69.42) rotate(-71.18)"/>
    </clipPath>
    <clipPath id="clippath-19">
      <rect class="cls-57" x="23.05" y="62.78" width="6.26" height="6.26" transform="translate(-44.65 69.42) rotate(-71.18)"/>
    </clipPath>
    <clipPath id="clippath-20">
      <path class="cls-57" d="m30.59,56.24c.56.75,1.12,1.5,1.68,2.26,3.93,5.29,7.9,10.6,12.81,14.99,1.98-1.6,4.38-2.49,6.92-2.33-7.41-5.39-12.23-14.39-13.09-23.53-.81,1.6-1.48,3.1-2.57,4.1-1.7,1.56-3.85,3.02-5.75,4.51Z"/>
    </clipPath>
    <clipPath id="clippath-21">
      <rect class="cls-57" x="35.05" y="47" width="6.26" height="6.26" transform="translate(-21.59 70.1) rotate(-71.18)"/>
    </clipPath>
    <clipPath id="clippath-22">
      <rect class="cls-57" x="35.05" y="47" width="6.26" height="6.26" transform="translate(-21.59 70.1) rotate(-71.18)"/>
    </clipPath>
    <clipPath id="clippath-23">
      <rect class="cls-57" x="35.05" y="47" width="6.26" height="6.26" transform="translate(-21.59 70.1) rotate(-71.18)"/>
    </clipPath>
    <clipPath id="clippath-24">
      <rect class="cls-57" x="35.05" y="47" width="6.26" height="6.26" transform="translate(-21.59 70.1) rotate(-71.18)"/>
    </clipPath>
    <clipPath id="clippath-25">
      <path class="cls-57" d="m30.59,56.24c.56.75,1.12,1.5,1.68,2.26,3.93,5.29,7.9,10.6,12.81,14.99,1.98-1.6,4.38-2.49,6.92-2.33-7.41-5.39-12.23-14.39-13.09-23.53-.81,1.6-1.48,3.1-2.57,4.1-1.7,1.56-3.85,3.02-5.75,4.51Z"/>
    </clipPath>
    <clipPath id="clippath-26">
      <rect class="cls-57" x="33.03" y="52.93" width="6.26" height="6.26" transform="translate(-28.57 72.2) rotate(-71.18)"/>
    </clipPath>
    <clipPath id="clippath-27">
      <rect class="cls-57" x="33.03" y="52.93" width="6.26" height="6.26" transform="translate(-28.57 72.2) rotate(-71.18)"/>
    </clipPath>
    <clipPath id="clippath-28">
      <rect class="cls-57" x="33.03" y="52.93" width="6.26" height="6.26" transform="translate(-28.57 72.2) rotate(-71.18)"/>
    </clipPath>
    <clipPath id="clippath-29">
      <rect class="cls-57" x="33.03" y="52.93" width="6.26" height="6.26" transform="translate(-28.57 72.2) rotate(-71.18)"/>
    </clipPath>
    <clipPath id="clippath-30">
      <path class="cls-57" d="m30.59,56.24c.56.75,1.12,1.5,1.68,2.26,3.93,5.29,7.9,10.6,12.81,14.99,1.98-1.6,4.38-2.49,6.92-2.33-7.41-5.39-12.23-14.39-13.09-23.53-.81,1.6-1.48,3.1-2.57,4.1-1.7,1.56-3.85,3.02-5.75,4.51Z"/>
    </clipPath>
    <clipPath id="clippath-31">
      <rect class="cls-57" x="31" y="58.88" width="6.26" height="6.26" transform="translate(-35.57 74.31) rotate(-71.18)"/>
    </clipPath>
    <clipPath id="clippath-32">
      <rect class="cls-57" x="31" y="58.88" width="6.26" height="6.26" transform="translate(-35.57 74.31) rotate(-71.18)"/>
    </clipPath>
    <clipPath id="clippath-33">
      <rect class="cls-57" x="31" y="58.88" width="6.26" height="6.26" transform="translate(-35.57 74.31) rotate(-71.18)"/>
    </clipPath>
    <clipPath id="clippath-34">
      <rect class="cls-57" x="31" y="58.88" width="6.26" height="6.26" transform="translate(-35.57 74.31) rotate(-71.18)"/>
    </clipPath>
    <clipPath id="clippath-35">
      <path class="cls-57" d="m30.59,56.24c.56.75,1.12,1.5,1.68,2.26,3.93,5.29,7.9,10.6,12.81,14.99,1.98-1.6,4.38-2.49,6.92-2.33-7.41-5.39-12.23-14.39-13.09-23.53-.81,1.6-1.48,3.1-2.57,4.1-1.7,1.56-3.85,3.02-5.75,4.51Z"/>
    </clipPath>
    <clipPath id="clippath-36">
      <rect class="cls-57" x="28.98" y="64.8" width="6.26" height="6.26" transform="translate(-42.55 76.41) rotate(-71.18)"/>
    </clipPath>
    <clipPath id="clippath-37">
      <rect class="cls-57" x="28.98" y="64.8" width="6.26" height="6.26" transform="translate(-42.55 76.41) rotate(-71.18)"/>
    </clipPath>
    <clipPath id="clippath-38">
      <rect class="cls-57" x="28.98" y="64.8" width="6.26" height="6.26" transform="translate(-42.55 76.41) rotate(-71.18)"/>
    </clipPath>
    <clipPath id="clippath-39">
      <rect class="cls-57" x="28.98" y="64.8" width="6.26" height="6.26" transform="translate(-42.55 76.41) rotate(-71.18)"/>
    </clipPath>
    <clipPath id="clippath-40">
      <path class="cls-57" d="m30.59,56.24c.56.75,1.12,1.5,1.68,2.26,3.93,5.29,7.9,10.6,12.81,14.99,1.98-1.6,4.38-2.49,6.92-2.33-7.41-5.39-12.23-14.39-13.09-23.53-.81,1.6-1.48,3.1-2.57,4.1-1.7,1.56-3.85,3.02-5.75,4.51Z"/>
    </clipPath>
    <clipPath id="clippath-41">
      <rect class="cls-57" x="40.97" y="49.02" width="6.26" height="6.26" transform="translate(-19.49 77.07) rotate(-71.18)"/>
    </clipPath>
    <clipPath id="clippath-42">
      <rect class="cls-57" x="40.97" y="49.02" width="6.26" height="6.26" transform="translate(-19.49 77.07) rotate(-71.18)"/>
    </clipPath>
    <clipPath id="clippath-43">
      <rect class="cls-57" x="40.97" y="49.02" width="6.26" height="6.26" transform="translate(-19.49 77.07) rotate(-71.18)"/>
    </clipPath>
    <clipPath id="clippath-44">
      <rect class="cls-57" x="40.97" y="49.02" width="6.26" height="6.26" transform="translate(-19.49 77.07) rotate(-71.18)"/>
    </clipPath>
    <clipPath id="clippath-45">
      <path class="cls-57" d="m30.59,56.24c.56.75,1.12,1.5,1.68,2.26,3.93,5.29,7.9,10.6,12.81,14.99,1.98-1.6,4.38-2.49,6.92-2.33-7.41-5.39-12.23-14.39-13.09-23.53-.81,1.6-1.48,3.1-2.57,4.1-1.7,1.56-3.85,3.02-5.75,4.51Z"/>
    </clipPath>
    <clipPath id="clippath-46">
      <rect class="cls-57" x="38.95" y="54.97" width="6.26" height="6.26" transform="translate(-26.49 79.19) rotate(-71.18)"/>
    </clipPath>
    <clipPath id="clippath-47">
      <rect class="cls-57" x="38.95" y="54.97" width="6.26" height="6.26" transform="translate(-26.49 79.19) rotate(-71.18)"/>
    </clipPath>
    <clipPath id="clippath-48">
      <rect class="cls-57" x="38.95" y="54.97" width="6.26" height="6.26" transform="translate(-26.49 79.19) rotate(-71.18)"/>
    </clipPath>
    <clipPath id="clippath-49">
      <rect class="cls-57" x="38.95" y="54.97" width="6.26" height="6.26" transform="translate(-26.49 79.19) rotate(-71.18)"/>
    </clipPath>
    <clipPath id="clippath-50">
      <path class="cls-57" d="m30.59,56.24c.56.75,1.12,1.5,1.68,2.26,3.93,5.29,7.9,10.6,12.81,14.99,1.98-1.6,4.38-2.49,6.92-2.33-7.41-5.39-12.23-14.39-13.09-23.53-.81,1.6-1.48,3.1-2.57,4.1-1.7,1.56-3.85,3.02-5.75,4.51Z"/>
    </clipPath>
    <clipPath id="clippath-51">
      <rect class="cls-57" x="36.93" y="60.9" width="6.26" height="6.26" transform="translate(-33.47 81.29) rotate(-71.18)"/>
    </clipPath>
    <clipPath id="clippath-52">
      <rect class="cls-57" x="36.93" y="60.9" width="6.26" height="6.26" transform="translate(-33.47 81.29) rotate(-71.18)"/>
    </clipPath>
    <clipPath id="clippath-53">
      <rect class="cls-57" x="36.93" y="60.9" width="6.26" height="6.26" transform="translate(-33.47 81.29) rotate(-71.18)"/>
    </clipPath>
    <clipPath id="clippath-54">
      <rect class="cls-57" x="36.93" y="60.9" width="6.26" height="6.26" transform="translate(-33.47 81.29) rotate(-71.18)"/>
    </clipPath>
    <clipPath id="clippath-55">
      <path class="cls-57" d="m30.59,56.24c.56.75,1.12,1.5,1.68,2.26,3.93,5.29,7.9,10.6,12.81,14.99,1.98-1.6,4.38-2.49,6.92-2.33-7.41-5.39-12.23-14.39-13.09-23.53-.81,1.6-1.48,3.1-2.57,4.1-1.7,1.56-3.85,3.02-5.75,4.51Z"/>
    </clipPath>
    <clipPath id="clippath-56">
      <rect class="cls-57" x="34.91" y="66.83" width="6.26" height="6.26" transform="translate(-40.45 83.39) rotate(-71.18)"/>
    </clipPath>
    <clipPath id="clippath-57">
      <rect class="cls-57" x="34.91" y="66.83" width="6.26" height="6.26" transform="translate(-40.45 83.39) rotate(-71.18)"/>
    </clipPath>
    <clipPath id="clippath-58">
      <rect class="cls-57" x="34.91" y="66.83" width="6.26" height="6.26" transform="translate(-40.45 83.39) rotate(-71.18)"/>
    </clipPath>
    <clipPath id="clippath-59">
      <rect class="cls-57" x="34.91" y="66.83" width="6.26" height="6.26" transform="translate(-40.45 83.39) rotate(-71.18)"/>
    </clipPath>
    <clipPath id="clippath-60">
      <path class="cls-57" d="m30.59,56.24c.56.75,1.12,1.5,1.68,2.26,3.93,5.29,7.9,10.6,12.81,14.99,1.98-1.6,4.38-2.49,6.92-2.33-7.41-5.39-12.23-14.39-13.09-23.53-.81,1.6-1.48,3.1-2.57,4.1-1.7,1.56-3.85,3.02-5.75,4.51Z"/>
    </clipPath>
    <clipPath id="clippath-61">
      <rect class="cls-57" x="46.9" y="51.04" width="6.26" height="6.26" transform="translate(-17.38 84.05) rotate(-71.18)"/>
    </clipPath>
    <clipPath id="clippath-62">
      <rect class="cls-57" x="46.9" y="51.04" width="6.26" height="6.26" transform="translate(-17.38 84.05) rotate(-71.18)"/>
    </clipPath>
    <clipPath id="clippath-63">
      <rect class="cls-57" x="46.9" y="51.04" width="6.26" height="6.26" transform="translate(-17.38 84.05) rotate(-71.18)"/>
    </clipPath>
    <clipPath id="clippath-65">
      <path class="cls-57" d="m30.59,56.24c.56.75,1.12,1.5,1.68,2.26,3.93,5.29,7.9,10.6,12.81,14.99,1.98-1.6,4.38-2.49,6.92-2.33-7.41-5.39-12.23-14.39-13.09-23.53-.81,1.6-1.48,3.1-2.57,4.1-1.7,1.56-3.85,3.02-5.75,4.51Z"/>
    </clipPath>
    <clipPath id="clippath-66">
      <rect class="cls-57" x="44.88" y="56.99" width="6.26" height="6.26" transform="translate(-24.38 86.16) rotate(-71.18)"/>
    </clipPath>
    <clipPath id="clippath-67">
      <rect class="cls-57" x="44.88" y="56.99" width="6.26" height="6.26" transform="translate(-24.38 86.16) rotate(-71.18)"/>
    </clipPath>
    <clipPath id="clippath-68">
      <rect class="cls-57" x="44.88" y="56.99" width="6.26" height="6.26" transform="translate(-24.38 86.16) rotate(-71.18)"/>
    </clipPath>
    <clipPath id="clippath-69">
      <rect class="cls-57" x="44.88" y="56.99" width="6.26" height="6.26" transform="translate(-24.38 86.16) rotate(-71.18)"/>
    </clipPath>
    <clipPath id="clippath-70">
      <path class="cls-57" d="m30.59,56.24c.56.75,1.12,1.5,1.68,2.26,3.93,5.29,7.9,10.6,12.81,14.99,1.98-1.6,4.38-2.49,6.92-2.33-7.41-5.39-12.23-14.39-13.09-23.53-.81,1.6-1.48,3.1-2.57,4.1-1.7,1.56-3.85,3.02-5.75,4.51Z"/>
    </clipPath>
    <clipPath id="clippath-71">
      <rect class="cls-57" x="42.86" y="62.92" width="6.26" height="6.26" transform="translate(-31.36 88.27) rotate(-71.18)"/>
    </clipPath>
    <clipPath id="clippath-72">
      <rect class="cls-57" x="42.86" y="62.92" width="6.26" height="6.26" transform="translate(-31.36 88.27) rotate(-71.18)"/>
    </clipPath>
    <clipPath id="clippath-73">
      <rect class="cls-57" x="42.86" y="62.92" width="6.26" height="6.26" transform="translate(-31.36 88.27) rotate(-71.18)"/>
    </clipPath>
    <clipPath id="clippath-74">
      <rect class="cls-57" x="42.86" y="62.92" width="6.26" height="6.26" transform="translate(-31.36 88.27) rotate(-71.18)"/>
    </clipPath>
    <clipPath id="clippath-75">
      <path class="cls-57" d="m30.59,56.24c.56.75,1.12,1.5,1.68,2.26,3.93,5.29,7.9,10.6,12.81,14.99,1.98-1.6,4.38-2.49,6.92-2.33-7.41-5.39-12.23-14.39-13.09-23.53-.81,1.6-1.48,3.1-2.57,4.1-1.7,1.56-3.85,3.02-5.75,4.51Z"/>
    </clipPath>
    <clipPath id="clippath-76">
      <rect class="cls-57" x="40.84" y="68.84" width="6.26" height="6.26" transform="translate(-38.34 90.37) rotate(-71.18)"/>
    </clipPath>
    <clipPath id="clippath-77">
      <rect class="cls-57" x="40.84" y="68.84" width="6.26" height="6.26" transform="translate(-38.34 90.37) rotate(-71.18)"/>
    </clipPath>
    <clipPath id="clippath-78">
      <rect class="cls-57" x="40.84" y="68.84" width="6.26" height="6.26" transform="translate(-38.34 90.37) rotate(-71.18)"/>
    </clipPath>
    <clipPath id="clippath-79">
      <rect class="cls-57" x="40.84" y="68.84" width="6.26" height="6.26" transform="translate(-38.34 90.37) rotate(-71.18)"/>
    </clipPath>
    <clipPath id="clippath-80">
      <path class="cls-57" d="m30.59,56.24c.56.75,1.12,1.5,1.68,2.26,3.93,5.29,7.9,10.6,12.81,14.99,1.98-1.6,4.38-2.49,6.92-2.33-7.41-5.39-12.23-14.39-13.09-23.53-.81,1.6-1.48,3.1-2.57,4.1-1.7,1.56-3.85,3.02-5.75,4.51Z"/>
    </clipPath>
    <clipPath id="clippath-81">
      <rect class="cls-57" x="52.83" y="53.08" width="6.26" height="6.26" transform="translate(-15.3 91.04) rotate(-71.18)"/>
    </clipPath>
    <clipPath id="clippath-85">
      <path class="cls-57" d="m30.59,56.24c.56.75,1.12,1.5,1.68,2.26,3.93,5.29,7.9,10.6,12.81,14.99,1.98-1.6,4.38-2.49,6.92-2.33-7.41-5.39-12.23-14.39-13.09-23.53-.81,1.6-1.48,3.1-2.57,4.1-1.7,1.56-3.85,3.02-5.75,4.51Z"/>
    </clipPath>
    <clipPath id="clippath-86">
      <rect class="cls-57" x="50.81" y="59.01" width="6.26" height="6.26" transform="translate(-22.28 93.14) rotate(-71.18)"/>
    </clipPath>
    <clipPath id="clippath-88">
      <rect class="cls-57" x="50.81" y="59.01" width="6.26" height="6.26" transform="translate(-22.28 93.14) rotate(-71.18)"/>
    </clipPath>
    <clipPath id="clippath-90">
      <path class="cls-57" d="m30.59,56.24c.56.75,1.12,1.5,1.68,2.26,3.93,5.29,7.9,10.6,12.81,14.99,1.98-1.6,4.38-2.49,6.92-2.33-7.41-5.39-12.23-14.39-13.09-23.53-.81,1.6-1.48,3.1-2.57,4.1-1.7,1.56-3.85,3.02-5.75,4.51Z"/>
    </clipPath>
    <clipPath id="clippath-91">
      <rect class="cls-57" x="48.79" y="64.94" width="6.26" height="6.26" transform="translate(-29.26 95.25) rotate(-71.18)"/>
    </clipPath>
    <clipPath id="clippath-93">
      <rect class="cls-57" x="48.79" y="64.94" width="6.26" height="6.26" transform="translate(-29.26 95.25) rotate(-71.18)"/>
    </clipPath>
    <clipPath id="clippath-95">
      <path class="cls-57" d="m30.59,56.24c.56.75,1.12,1.5,1.68,2.26,3.93,5.29,7.9,10.6,12.81,14.99,1.98-1.6,4.38-2.49,6.92-2.33-7.41-5.39-12.23-14.39-13.09-23.53-.81,1.6-1.48,3.1-2.57,4.1-1.7,1.56-3.85,3.02-5.75,4.51Z"/>
    </clipPath>
    <clipPath id="clippath-96">
      <rect class="cls-57" x="46.77" y="70.86" width="6.26" height="6.26" transform="translate(-36.24 97.35) rotate(-71.18)"/>
    </clipPath>
    <clipPath id="clippath-98">
      <rect class="cls-57" x="46.77" y="70.86" width="6.26" height="6.26" transform="translate(-36.24 97.35) rotate(-71.18)"/>
    </clipPath>
  </defs>
  <g id="Layer_1-2" data-name="Layer 1">
    <g>
      <path d="m52,70.98c-2.59-.16-5.05.77-7.05,2.38h.27c-3.82-3.42-7.08-7.4-10.18-11.47-3.29-4.32-6.5-8.7-9.74-13.05-.84-1.12-1.67-2.24-2.51-3.36-.76-1.02-1.56-2.04-2.17-3.16-.27-.5-.81-1.35-.46-1.93.24-.4.8-.42,1.2-.29,1.06.34,1.36,1.67,2.17,2.34.63.52,1.65.79,2.23.05.58-.74.22-1.75-.44-2.3-.84-.7-2.08-.95-3.15-.94-1.18.02-2.28.42-3.29,1.01-2.06,1.21-3.76,3.24-6.16,3.8-1.07.25-2.28.18-3.21-.46-.81-.55-1.25-1.6-1.09-2.57.08-.47.3-.87.66-1.17.07-.06.07-.2,0-.27-.98-.83-1.91.86-2.65,1.27-1.23.69-2.85-.13-3.94-.75-.74-.42-1.28-.89-1.3-1.8,0-.64.13-1.29.34-1.89.44-1.23,1.27-2.31,2.3-3.1,1.16-.89,2.59-1.4,4.05-1.36-.02-.12-.03-.25-.05-.37-.67.17-1.27-.23-1.61-.79-.37-.61-.44-1.33-.15-1.98.61-1.36,2.23-2.15,3.58-2.55.9-.27,1.76-.23,2.63.12.75.3,1.44.74,2.19,1.04,1.3.51,2.76.57,4.11.21.69-.18,1.35-.48,1.95-.87.54-.36,1.16-.82,1.37-1.47.37-1.13-.85-1.78-1.81-1.71-1.44.11-2.19,1.59-3.38,2.21-1.42.73-3.05.17-4.32-.61-2.68-1.63-4.72-5.32-8.27-5.03l.19.19c.07-1.95,1.59-3.59,3.5-3.88.93-.14,2-.09,2.79-.7.57-.44,1.04-1.25.72-1.97-.3-.68-1.04-.86-1.71-.74-.94.16-1.64.81-2.49,1.16-.5.21-1.09.31-1.56-.04-.29-.22-.44-.56-.52-.91-.18-.74-.14-1.53-.42-2.25-.79-2.03-3.19-1.09-4.52-.23.09.07.18.14.28.21.84-3.86,4.66-6.74,8.6-6.49.11.01.22-.13.18-.24-.47-1.22.28-2.55,1.37-3.15,1.36-.75,3.06-.38,4.42.18.08.03.17-.02.21-.09.85-1.4,3.41-1.1,3.91.46.4,1.23-.43,2.48-.54,3.7-.08.88.13,1.87.96,2.34.07.04.18.03.23-.03.64-.8.73-1.8,1.11-2.72.37-.91,1.07-1.68,1.91-2.19,1.71-1.03,3.83-.88,5.35.42.83.71,1.4,1.67,1.6,2.74.04.19.31.17.36,0,.3-1.04,1.52-1.64,2.55-1.36,1.13.31,1.8,1.54,1.73,2.66-.08,1.32-1.08,2.39-1.86,3.37-.75.94-1.51,2.06-1.44,3.32.05.91.66,1.68,1.51,1.99.81.29,1.7-.02,2-.86.35-.98-.25-2.06-.5-2.99-.17-.62-.2-1.22.02-1.83.23-.63.64-1.18,1.07-1.68.73-.84,2.01-2.4,3.21-1.41.83.68,1.05,2.01,1.11,3.03,0,.16.2.25.32.13,1.29-1.22,2.68-2.51,4.46-2.93,1.67-.39,3.42.11,4.29,1.66.74,1.31.77,2.88.59,4.34-.04.34-.07.69.06,1.01.14.33.43.54.73.72.66.39,1.16.83,1.46,1.56.58,1.44.16,3.04-.82,4.19-1.14,1.34-2.79,2.07-4.43,2.6-.91.3-1.84.54-2.76.84-.7.23-1.42.48-2,.94-.47.37-.91.93-.89,1.57.02.56.4,1.11.89,1.36.45.24.98.17,1.3-.24.46-.57.22-1.37.57-1.99.32-.56,1.06-.68,1.64-.53.71.18,1.16.74,1.3,1.45.36,1.84-1.16,3.28-2.35,4.42-1.16,1.12-2.16,2.36-2.94,3.78-3.09,5.65-2.75,12.68-1.02,18.69,1.78,6.18,5.3,11.94,10.21,16.13.58.5,1.19.97,1.81,1.43.2.14.38-.18.19-.32-5.38-3.93-9.32-9.68-11.42-15.97-2.04-6.11-2.67-13.41.32-19.32.75-1.49,1.74-2.82,2.94-3.97,1.15-1.11,2.44-2.25,2.65-3.93.17-1.3-.49-2.61-1.88-2.79-.53-.07-1.11.05-1.51.42-.53.49-.45,1.2-.61,1.84-.08.34-.29.69-.68.68-.33-.01-.63-.26-.82-.52-.5-.72-.03-1.49.6-1.94.68-.49,1.52-.73,2.31-.97.92-.28,1.85-.53,2.76-.85,1.52-.53,3.02-1.28,4.09-2.52.94-1.1,1.41-2.51,1.1-3.94-.13-.62-.41-1.2-.83-1.67-.23-.25-.5-.45-.8-.62-.44-.26-.81-.47-.83-1.04,0-.36.08-.73.11-1.08.03-.39.04-.78.02-1.18-.04-.7-.16-1.41-.42-2.07-.53-1.37-1.64-2.38-3.12-2.59-1.69-.24-3.31.47-4.63,1.47-.67.51-1.29,1.08-1.9,1.66.11.04.21.09.32.13-.06-.97-.25-2.03-.82-2.84-.55-.78-1.46-1.1-2.34-.67-.56.27-.99.75-1.41,1.19-.44.47-.87.97-1.2,1.52-.31.51-.53,1.09-.54,1.69-.02.59.17,1.17.35,1.73.18.55.43,1.14.4,1.73-.03.57-.41,1.09-1.01,1.14-.51.04-1.02-.23-1.36-.59-.46-.48-.58-1.12-.46-1.76.46-2.55,3.82-4.06,3.19-6.91-.25-1.15-1.18-2.17-2.39-2.25-1.11-.08-2.24.61-2.55,1.69h.36c-.36-1.94-1.94-3.58-3.86-4.02-1.96-.45-4.05.45-5.2,2.07-.35.49-.58,1.03-.75,1.61-.2.67-.35,1.37-.8,1.93.08-.01.15-.02.23-.03-.82-.47-.88-1.56-.72-2.39.21-1.05.73-2.07.53-3.17-.24-1.32-1.68-2.01-2.93-1.86-.71.08-1.36.44-1.73,1.06.07-.03.14-.06.21-.09-1.5-.62-3.42-.98-4.88-.04-1.12.72-1.87,2.16-1.37,3.47.06-.08.12-.16.18-.24C4.86,3.92.87,6.94,0,10.95c-.03.15.13.3.28.21.73-.47,1.59-.93,2.48-.95.88-.02,1.42.56,1.62,1.37.28,1.16.09,3.08,1.71,3.25.89.1,1.69-.48,2.42-.91.6-.35,1.69-.8,2.28-.19.72.73-.19,1.79-.92,2.07-.93.35-1.96.22-2.9.53-1.73.57-2.97,2.25-3.04,4.07,0,.1.09.2.19.19,3.24-.26,5.23,3.01,7.58,4.65,1.14.79,2.55,1.46,3.97,1.3.68-.08,1.29-.35,1.82-.76.61-.47,1.1-1.08,1.76-1.48.53-.32,1.22-.4,1.79-.12.78.39.56,1.19.03,1.71-1.06,1.04-2.61,1.6-4.08,1.64-.76.02-1.51-.09-2.22-.34-.78-.28-1.48-.73-2.24-1.05-.7-.3-1.43-.46-2.19-.36-.81.11-1.59.43-2.31.79-1.21.61-2.6,1.72-2.53,3.23.06,1.22,1.1,2.53,2.42,2.19.21-.05.16-.36-.05-.37-2.69-.07-5.26,1.63-6.43,4.04-.29.6-.49,1.24-.59,1.9-.1.71-.12,1.49.34,2.08.41.53,1.07.85,1.66,1.14.64.32,1.32.6,2.03.7.71.1,1.43,0,2-.46.4-.32,1.32-1.63,1.9-1.13v-.27c-1.41,1.21-.81,3.53.65,4.42,1.99,1.22,4.41.26,6.15-.94,2.02-1.4,3.93-3.41,6.56-3.45,1.11-.02,2.84.29,3.37,1.43.23.49.15,1.2-.4,1.44-.52.23-1.14-.1-1.51-.47-.73-.71-1.04-1.86-2.06-2.25-.72-.28-1.7-.1-1.88.76-.11.54.16,1.09.39,1.56.28.58.63,1.13.99,1.66.76,1.1,1.58,2.16,2.38,3.23,3.35,4.5,6.69,9.01,10.06,13.5,3.1,4.14,6.29,8.24,10.03,11.83.46.44.93.87,1.4,1.3.08.07.18.07.27,0,1.93-1.55,4.3-2.41,6.79-2.27.28,0,.27-.38.03-.39Z"/>
      <g>
        <g class="cls-52">
          <g>
            <g class="cls-35">
              <g>
                <path d="m28.19,50.36c-.16-.06-.25-.23-.2-.4.06-.16.23-.25.4-.2.16.06.25.23.2.4-.06.17-.23.25-.4.2Z"/>
                <path d="m31.16,51.37c-.16-.06-.25-.23-.2-.4.06-.16.23-.25.4-.2.16.06.25.23.2.4-.06.17-.24.25-.4.2Z"/>
                <path d="m29.2,47.39c-.16-.06-.25-.23-.2-.4.06-.16.23-.25.4-.2.16.06.25.23.2.4-.05.17-.23.26-.4.2Z"/>
                <path d="m32.17,48.4c-.16-.06-.25-.23-.2-.4.06-.16.23-.25.4-.2.16.06.25.23.2.4-.06.17-.24.26-.4.2Z"/>
                <path d="m33.15,50.39c-.16-.06-.25-.23-.2-.4.06-.16.23-.25.4-.2.16.06.25.23.2.4-.06.17-.24.26-.4.2Z"/>
                <path d="m30.18,49.38c-.16-.06-.25-.23-.2-.4.06-.16.23-.25.4-.2.16.06.25.23.2.4-.06.17-.24.26-.4.2Z"/>
                <path d="m34.16,47.43c-.16-.06-.25-.23-.2-.4.06-.16.23-.25.4-.2.16.06.25.23.2.4-.06.16-.24.25-.4.2Z"/>
                <path d="m31.19,46.42c-.16-.06-.25-.23-.2-.4.06-.16.23-.25.4-.2.16.06.25.23.2.4-.06.16-.23.25-.4.2Z"/>
              </g>
            </g>
            <g class="cls-17">
              <g>
                <path d="m34.12,52.38c-.16-.06-.25-.23-.2-.4.06-.16.23-.25.4-.2.16.06.25.23.2.4s-.23.25-.4.2Z"/>
                <path d="m35.13,49.41c-.16-.06-.25-.23-.2-.4.06-.16.23-.25.4-.2.16.06.25.23.2.4s-.23.26-.4.2Z"/>
              </g>
            </g>
            <g class="cls-62">
              <g>
                <path d="m30.21,44.43c-.16-.06-.25-.23-.2-.4.06-.16.23-.25.4-.2.16.06.25.23.2.4-.05.17-.23.25-.4.2Z"/>
                <path d="m33.18,45.44c-.16-.06-.25-.23-.2-.4.06-.16.23-.25.4-.2.16.06.25.23.2.4-.06.17-.24.25-.4.2Z"/>
              </g>
            </g>
            <g class="cls-36">
              <path d="m36.14,46.45c-.16-.06-.25-.23-.2-.4.06-.16.23-.25.4-.2.16.06.25.23.2.4-.05.17-.23.25-.4.2Z"/>
            </g>
          </g>
        </g>
        <g class="cls-74">
          <g>
            <g class="cls-25">
              <g>
                <path d="m26.17,56.29c-.16-.06-.25-.23-.2-.4.06-.16.23-.25.4-.2.16.06.25.23.2.4-.06.17-.23.25-.4.2Z"/>
                <path d="m29.14,57.3c-.16-.06-.25-.23-.2-.4.06-.16.23-.25.4-.2.16.06.25.23.2.4-.06.17-.24.25-.4.2Z"/>
                <path d="m27.18,53.32c-.16-.06-.25-.23-.2-.4.06-.16.23-.25.4-.2.16.06.25.23.2.4-.06.17-.23.26-.4.2Z"/>
                <path d="m30.15,54.33c-.16-.06-.25-.23-.2-.4.06-.16.23-.25.4-.2.16.06.25.23.2.4-.06.17-.24.26-.4.2Z"/>
                <path d="m31.12,56.32c-.16-.06-.25-.23-.2-.4.06-.16.23-.25.4-.2.16.06.25.23.2.4-.05.17-.23.26-.4.2Z"/>
                <path d="m28.16,55.31c-.16-.06-.25-.23-.2-.4.06-.16.23-.25.4-.2.16.06.25.23.2.4-.06.17-.24.26-.4.2Z"/>
                <path d="m32.14,53.36c-.16-.06-.25-.23-.2-.4.06-.16.23-.25.4-.2.16.06.25.23.2.4-.06.16-.24.25-.4.2Z"/>
                <path d="m29.17,52.35c-.16-.06-.25-.23-.2-.4.06-.16.23-.25.4-.2.16.06.25.23.2.4-.06.16-.24.25-.4.2Z"/>
              </g>
            </g>
            <g class="cls-31">
              <g>
                <path d="m32.1,58.31c-.16-.06-.25-.23-.2-.4.06-.16.23-.25.4-.2.16.06.25.23.2.4-.06.17-.23.25-.4.2Z"/>
                <path d="m33.11,55.34c-.16-.06-.25-.23-.2-.4.06-.16.23-.25.4-.2.16.06.25.23.2.4-.06.17-.23.26-.4.2Z"/>
              </g>
            </g>
            <g class="cls-66">
              <g>
                <path d="m28.19,50.36c-.16-.06-.25-.23-.2-.4.06-.16.23-.25.4-.2.16.06.25.23.2.4-.06.17-.23.25-.4.2Z"/>
                <path d="m31.16,51.37c-.16-.06-.25-.23-.2-.4.06-.16.23-.25.4-.2.16.06.25.23.2.4-.06.17-.24.25-.4.2Z"/>
              </g>
            </g>
            <g class="cls-50">
              <path d="m34.12,52.38c-.16-.06-.25-.23-.2-.4.06-.16.23-.25.4-.2.16.06.25.23.2.4-.06.17-.23.25-.4.2Z"/>
            </g>
          </g>
        </g>
        <g class="cls-78">
          <g>
            <g class="cls-7">
              <g>
                <path d="m24.15,62.22c-.16-.06-.25-.23-.2-.4.06-.16.23-.25.4-.2.16.06.25.23.2.4-.06.17-.23.25-.4.2Z"/>
                <path d="m27.12,63.23c-.16-.06-.25-.23-.2-.4.06-.16.23-.25.4-.2.16.06.25.23.2.4-.06.17-.24.25-.4.2Z"/>
                <path d="m25.16,59.25c-.16-.06-.25-.23-.2-.4.06-.16.23-.25.4-.2.16.06.25.23.2.4-.06.17-.23.26-.4.2Z"/>
                <path d="m28.13,60.26c-.16-.06-.25-.23-.2-.4.06-.16.23-.25.4-.2.16.06.25.23.2.4-.06.17-.24.26-.4.2Z"/>
                <path d="m29.1,62.25c-.16-.06-.25-.23-.2-.4.06-.16.23-.25.4-.2.16.06.25.23.2.4-.05.17-.23.26-.4.2Z"/>
                <path d="m26.14,61.24c-.16-.06-.25-.23-.2-.4.06-.16.23-.25.4-.2.16.06.25.23.2.4-.06.17-.24.26-.4.2Z"/>
                <path d="m30.11,59.29c-.16-.06-.25-.23-.2-.4.06-.16.23-.25.4-.2.16.06.25.23.2.4-.05.16-.23.25-.4.2Z"/>
                <path d="m27.15,58.28c-.16-.06-.25-.23-.2-.4.06-.16.23-.25.4-.2.16.06.25.23.2.4-.06.16-.24.25-.4.2Z"/>
              </g>
            </g>
            <g class="cls-42">
              <g>
                <path d="m30.08,64.24c-.16-.06-.25-.23-.2-.4.06-.16.23-.25.4-.2.16.06.25.23.2.4-.06.17-.24.25-.4.2Z"/>
                <path d="m31.09,61.27c-.16-.06-.25-.23-.2-.4.06-.16.23-.25.4-.2.16.06.25.23.2.4-.06.17-.24.26-.4.2Z"/>
              </g>
            </g>
            <g class="cls-18">
              <g>
                <path d="m26.17,56.29c-.16-.06-.25-.23-.2-.4.06-.16.23-.25.4-.2.16.06.25.23.2.4-.06.17-.23.25-.4.2Z"/>
                <path d="m29.14,57.3c-.16-.06-.25-.23-.2-.4.06-.16.23-.25.4-.2.16.06.25.23.2.4-.06.17-.24.25-.4.2Z"/>
              </g>
            </g>
            <g class="cls-72">
              <path d="m32.1,58.31c-.16-.06-.25-.23-.2-.4s.23-.25.4-.2c.16.06.25.23.2.4-.06.17-.23.25-.4.2Z"/>
            </g>
          </g>
        </g>
        <g class="cls-24">
          <g>
            <g class="cls-8">
              <g>
                <path d="m22.13,68.15c-.16-.06-.25-.23-.2-.4.06-.16.23-.25.4-.2.16.06.25.23.2.4-.06.17-.24.25-.4.2Z"/>
                <path d="m25.1,69.16c-.16-.06-.25-.23-.2-.4.06-.16.23-.25.4-.2.16.06.25.23.2.4-.06.17-.24.25-.4.2Z"/>
                <path d="m23.14,65.18c-.16-.06-.25-.23-.2-.4.06-.16.23-.25.4-.2.16.06.25.23.2.4-.06.17-.24.26-.4.2Z"/>
                <path d="m26.11,66.19c-.16-.06-.25-.23-.2-.4s.23-.25.4-.2c.16.06.25.23.2.4s-.24.26-.4.2Z"/>
                <path d="m27.08,68.18c-.16-.06-.25-.23-.2-.4.06-.16.23-.25.4-.2.16.06.25.23.2.4-.06.17-.23.26-.4.2Z"/>
                <path d="m24.12,67.17c-.16-.06-.25-.23-.2-.4.06-.16.23-.25.4-.2.16.06.25.23.2.4-.06.17-.24.26-.4.2Z"/>
                <path d="m28.09,65.22c-.16-.06-.25-.23-.2-.4.06-.16.23-.25.4-.2.16.06.25.23.2.4-.06.16-.23.25-.4.2Z"/>
                <path d="m25.13,64.2c-.16-.06-.25-.23-.2-.4.06-.16.23-.25.4-.2.16.06.25.23.2.4-.06.17-.24.26-.4.2Z"/>
              </g>
            </g>
            <g class="cls-73">
              <g>
                <path d="m28.06,70.17c-.16-.06-.25-.23-.2-.4.06-.16.23-.25.4-.2.16.06.25.23.2.4-.06.17-.24.25-.4.2Z"/>
                <path d="m29.07,67.2c-.16-.06-.25-.23-.2-.4.06-.16.23-.25.4-.2.16.06.25.23.2.4-.06.17-.24.26-.4.2Z"/>
              </g>
            </g>
            <g class="cls-70">
              <g>
                <path d="m24.15,62.22c-.16-.06-.25-.23-.2-.4s.23-.25.4-.2c.16.06.25.23.2.4-.06.17-.23.25-.4.2Z"/>
                <path d="m27.12,63.23c-.16-.06-.25-.23-.2-.4s.23-.25.4-.2c.16.06.25.23.2.4s-.24.25-.4.2Z"/>
              </g>
            </g>
            <g class="cls-58">
              <path d="m30.08,64.24c-.16-.06-.25-.23-.2-.4.06-.16.23-.25.4-.2.16.06.25.23.2.4-.06.17-.24.25-.4.2Z"/>
            </g>
          </g>
        </g>
        <g class="cls-6">
          <g>
            <g class="cls-32">
              <g>
                <path d="m34.12,52.38c-.16-.06-.25-.23-.2-.4.06-.16.23-.25.4-.2.16.06.25.23.2.4-.06.17-.23.25-.4.2Z"/>
                <path d="m37.09,53.39c-.16-.06-.25-.23-.2-.4s.23-.25.4-.2c.16.06.25.23.2.4s-.24.26-.4.2Z"/>
                <path d="m35.13,49.41c-.16-.06-.25-.23-.2-.4s.23-.25.4-.2c.16.06.25.23.2.4-.06.17-.23.26-.4.2Z"/>
                <path d="m38.1,50.42c-.16-.06-.25-.23-.2-.4.06-.16.23-.25.4-.2.16.06.25.23.2.4-.06.17-.24.26-.4.2Z"/>
                <path d="m39.07,52.41c-.16-.06-.25-.23-.2-.4.06-.16.23-.25.4-.2.16.06.25.23.2.4-.05.17-.23.26-.4.2Z"/>
                <path d="m36.11,51.4c-.16-.06-.25-.23-.2-.4.06-.16.23-.25.4-.2.16.06.25.23.2.4-.06.17-.24.26-.4.2Z"/>
                <path d="m40.09,49.45c-.16-.06-.25-.23-.2-.4.06-.16.23-.25.4-.2.16.06.25.23.2.4-.06.17-.24.25-.4.2Z"/>
                <path d="m37.12,48.44c-.16-.06-.25-.23-.2-.4.06-.16.23-.25.4-.2.16.06.25.23.2.4-.06.17-.24.25-.4.2Z"/>
              </g>
            </g>
            <g class="cls-48">
              <g>
                <path d="m40.05,54.4c-.16-.06-.25-.23-.2-.4s.23-.25.4-.2c.16.06.25.23.2.4-.06.17-.23.26-.4.2Z"/>
                <path d="m41.06,51.44c-.16-.06-.25-.23-.2-.4s.23-.25.4-.2c.16.06.25.23.2.4-.06.16-.23.25-.4.2Z"/>
              </g>
            </g>
            <g class="cls-79">
              <g>
                <path d="m36.14,46.45c-.16-.06-.25-.23-.2-.4.06-.16.23-.25.4-.2.16.06.25.23.2.4s-.23.25-.4.2Z"/>
                <path d="m39.11,47.46c-.16-.06-.25-.23-.2-.4.06-.16.23-.25.4-.2.16.06.25.23.2.4-.06.17-.24.26-.4.2Z"/>
              </g>
            </g>
            <g class="cls-45">
              <path d="m42.07,48.47c-.16-.06-.25-.23-.2-.4s.23-.25.4-.2c.16.06.25.23.2.4-.06.17-.23.26-.4.2Z"/>
            </g>
          </g>
        </g>
        <g class="cls-22">
          <g>
            <g class="cls-28">
              <g>
                <path d="m32.1,58.31c-.16-.06-.25-.23-.2-.4s.23-.25.4-.2c.16.06.25.23.2.4-.06.17-.23.25-.4.2Z"/>
                <path d="m35.07,59.32c-.16-.06-.25-.23-.2-.4.06-.16.23-.25.4-.2.16.06.25.23.2.4s-.24.25-.4.2Z"/>
                <path d="m33.11,55.34c-.16-.06-.25-.23-.2-.4.06-.16.23-.25.4-.2.16.06.25.23.2.4-.06.17-.23.26-.4.2Z"/>
                <path d="m36.08,56.35c-.16-.06-.25-.23-.2-.4s.23-.25.4-.2c.16.06.25.23.2.4-.06.17-.24.26-.4.2Z"/>
                <path d="m37.05,58.34c-.16-.06-.25-.23-.2-.4.06-.16.23-.25.4-.2.16.06.25.23.2.4-.05.17-.23.26-.4.2Z"/>
                <path d="m34.09,57.33c-.16-.06-.25-.23-.2-.4.06-.16.23-.25.4-.2.16.06.25.23.2.4-.06.17-.24.26-.4.2Z"/>
                <path d="m38.06,55.38c-.16-.06-.25-.23-.2-.4.06-.16.23-.25.4-.2.16.06.25.23.2.4-.05.17-.23.25-.4.2Z"/>
                <path d="m35.1,54.37c-.16-.06-.25-.23-.2-.4.06-.16.23-.25.4-.2.16.06.25.23.2.4-.06.16-.24.25-.4.2Z"/>
              </g>
            </g>
            <g class="cls-39">
              <g>
                <path d="m38.03,60.33c-.16-.06-.25-.23-.2-.4s.23-.25.4-.2c.16.06.25.23.2.4-.06.17-.24.26-.4.2Z"/>
                <path d="m39.04,57.36c-.16-.06-.25-.23-.2-.4.06-.16.23-.25.4-.2.16.06.25.23.2.4-.06.17-.23.26-.4.2Z"/>
              </g>
            </g>
            <g class="cls-86">
              <g>
                <path d="m34.12,52.38c-.16-.06-.25-.23-.2-.4s.23-.25.4-.2c.16.06.25.23.2.4-.06.17-.23.25-.4.2Z"/>
                <path d="m37.09,53.39c-.16-.06-.25-.23-.2-.4s.23-.25.4-.2c.16.06.25.23.2.4s-.24.26-.4.2Z"/>
              </g>
            </g>
            <g class="cls-69">
              <path d="m40.05,54.4c-.16-.06-.25-.23-.2-.4.06-.16.23-.25.4-.2.16.06.25.23.2.4-.06.17-.23.26-.4.2Z"/>
            </g>
          </g>
        </g>
        <g class="cls-46">
          <g>
            <g class="cls-59">
              <g>
                <path d="m30.08,64.24c-.16-.06-.25-.23-.2-.4.06-.16.23-.25.4-.2.16.06.25.23.2.4-.06.17-.24.25-.4.2Z"/>
                <path d="m33.05,65.25c-.16-.06-.25-.23-.2-.4.06-.16.23-.25.4-.2.16.06.25.23.2.4-.06.17-.24.25-.4.2Z"/>
                <path d="m31.09,61.27c-.16-.06-.25-.23-.2-.4s.23-.25.4-.2c.16.06.25.23.2.4s-.24.26-.4.2Z"/>
                <path d="m34.06,62.28c-.16-.06-.25-.23-.2-.4.06-.16.23-.25.4-.2.16.06.25.23.2.4s-.24.26-.4.2Z"/>
                <path d="m35.03,64.27c-.16-.06-.25-.23-.2-.4.06-.16.23-.25.4-.2.16.06.25.23.2.4-.06.17-.23.26-.4.2Z"/>
                <path d="m32.07,63.26c-.16-.06-.25-.23-.2-.4.06-.16.23-.25.4-.2.16.06.25.23.2.4-.06.17-.24.26-.4.2Z"/>
                <path d="m36.04,61.31c-.16-.06-.25-.23-.2-.4.06-.16.23-.25.4-.2.16.06.25.23.2.4-.05.17-.23.25-.4.2Z"/>
                <path d="m33.08,60.3c-.16-.06-.25-.23-.2-.4.06-.16.23-.25.4-.2.16.06.25.23.2.4-.06.16-.24.25-.4.2Z"/>
              </g>
            </g>
            <g class="cls-16">
              <g>
                <path d="m36.01,66.26c-.16-.06-.25-.23-.2-.4.06-.16.23-.25.4-.2.16.06.25.23.2.4-.06.17-.24.25-.4.2Z"/>
                <path d="m37.02,63.29c-.16-.06-.25-.23-.2-.4s.23-.25.4-.2c.16.06.25.23.2.4-.06.17-.24.26-.4.2Z"/>
              </g>
            </g>
            <g class="cls-12">
              <g>
                <path d="m32.1,58.31c-.16-.06-.25-.23-.2-.4s.23-.25.4-.2c.16.06.25.23.2.4s-.23.25-.4.2Z"/>
                <path d="m35.07,59.32c-.16-.06-.25-.23-.2-.4.06-.16.23-.25.4-.2.16.06.25.23.2.4s-.24.25-.4.2Z"/>
              </g>
            </g>
            <g class="cls-33">
              <path d="m38.03,60.33c-.16-.06-.25-.23-.2-.4.06-.16.23-.25.4-.2.16.06.25.23.2.4s-.24.26-.4.2Z"/>
            </g>
          </g>
        </g>
        <g class="cls-90">
          <g>
            <g class="cls-38">
              <g>
                <path d="m28.06,70.17c-.16-.06-.25-.23-.2-.4.06-.16.23-.25.4-.2.16.06.25.23.2.4s-.24.25-.4.2Z"/>
                <path d="m31.02,71.18c-.16-.06-.25-.23-.2-.4.06-.16.23-.25.4-.2.16.06.25.23.2.4-.05.17-.23.25-.4.2Z"/>
                <path d="m29.07,67.2c-.16-.06-.25-.23-.2-.4s.23-.25.4-.2c.16.06.25.23.2.4s-.24.26-.4.2Z"/>
                <path d="m32.03,68.21c-.16-.06-.25-.23-.2-.4.06-.16.23-.25.4-.2.16.06.25.23.2.4-.05.17-.23.26-.4.2Z"/>
                <path d="m33.01,70.2c-.16-.06-.25-.23-.2-.4.06-.16.23-.25.4-.2.16.06.25.23.2.4-.06.17-.23.26-.4.2Z"/>
                <path d="m30.05,69.19c-.16-.06-.25-.23-.2-.4.06-.16.23-.25.4-.2.16.06.25.23.2.4-.06.17-.24.26-.4.2Z"/>
                <path d="m34.02,67.24c-.16-.06-.25-.23-.2-.4.06-.16.23-.25.4-.2.16.06.25.23.2.4-.06.16-.23.25-.4.2Z"/>
                <path d="m31.06,66.23c-.16-.06-.25-.23-.2-.4.06-.16.23-.25.4-.2.16.06.25.23.2.4-.06.16-.24.25-.4.2Z"/>
              </g>
            </g>
            <g class="cls-20">
              <g>
                <path d="m33.99,72.19c-.16-.06-.25-.23-.2-.4.06-.16.23-.25.4-.2.16.06.25.23.2.4-.06.17-.24.25-.4.2Z"/>
                <path d="m35,69.22c-.16-.06-.25-.23-.2-.4.06-.16.23-.25.4-.2.16.06.25.23.2.4s-.24.26-.4.2Z"/>
              </g>
            </g>
            <g class="cls-37">
              <g>
                <path d="m30.08,64.24c-.16-.06-.25-.23-.2-.4.06-.16.23-.25.4-.2.16.06.25.23.2.4-.06.17-.24.25-.4.2Z"/>
                <path d="m33.05,65.25c-.16-.06-.25-.23-.2-.4.06-.16.23-.25.4-.2.16.06.25.23.2.4-.06.17-.24.25-.4.2Z"/>
              </g>
            </g>
            <g class="cls-56">
              <path d="m36.01,66.26c-.16-.06-.25-.23-.2-.4.06-.16.23-.25.4-.2.16.06.25.23.2.4s-.24.25-.4.2Z"/>
            </g>
          </g>
        </g>
        <g class="cls-27">
          <g>
            <g class="cls-15">
              <g>
                <path d="m40.05,54.4c-.16-.06-.25-.23-.2-.4.06-.16.23-.25.4-.2.16.06.25.23.2.4-.06.17-.23.26-.4.2Z"/>
                <path d="m43.02,55.41c-.16-.06-.25-.23-.2-.4.06-.16.23-.25.4-.2.16.06.25.23.2.4-.06.17-.24.26-.4.2Z"/>
                <path d="m41.06,51.44c-.16-.06-.25-.23-.2-.4.06-.16.23-.25.4-.2.16.06.25.23.2.4s-.23.25-.4.2Z"/>
                <path d="m44.03,52.45c-.16-.06-.25-.23-.2-.4.06-.16.23-.25.4-.2.16.06.25.23.2.4-.06.16-.24.25-.4.2Z"/>
                <path d="m45,54.43c-.16-.06-.25-.23-.2-.4.06-.16.23-.25.4-.2.16.06.25.23.2.4-.05.17-.23.26-.4.2Z"/>
                <path d="m42.04,53.42c-.16-.06-.25-.23-.2-.4.06-.16.23-.25.4-.2.16.06.25.23.2.4-.06.17-.24.26-.4.2Z"/>
                <path d="m46.01,51.47c-.16-.06-.25-.23-.2-.4.06-.16.23-.25.4-.2.16.06.25.23.2.4-.05.17-.23.25-.4.2Z"/>
                <path d="m43.05,50.46c-.16-.06-.25-.23-.2-.4.06-.16.23-.25.4-.2.16.06.25.23.2.4-.06.17-.24.25-.4.2Z"/>
              </g>
            </g>
            <g class="cls-76">
              <g>
                <path d="m45.98,56.42c-.16-.06-.25-.23-.2-.4.06-.16.23-.25.4-.2.16.06.25.23.2.4s-.23.26-.4.2Z"/>
                <path d="m46.99,53.46c-.16-.06-.25-.23-.2-.4.06-.16.23-.25.4-.2.16.06.25.23.2.4-.06.16-.23.25-.4.2Z"/>
              </g>
            </g>
            <g class="cls-64">
              <g>
                <path d="m42.07,48.47c-.16-.06-.25-.23-.2-.4.06-.16.23-.25.4-.2.16.06.25.23.2.4-.06.17-.23.26-.4.2Z"/>
                <path d="m45.04,49.48c-.16-.06-.25-.23-.2-.4.06-.16.23-.25.4-.2.16.06.25.23.2.4-.06.17-.24.26-.4.2Z"/>
              </g>
            </g>
            <g class="cls-41">
              <path d="m48,50.49c-.16-.06-.25-.23-.2-.4.06-.16.23-.25.4-.2.16.06.25.23.2.4s-.23.26-.4.2Z"/>
            </g>
          </g>
        </g>
        <g class="cls-4">
          <g>
            <g class="cls-21">
              <g>
                <path d="m38.03,60.33c-.16-.06-.25-.23-.2-.4.06-.16.23-.25.4-.2.16.06.25.23.2.4-.06.17-.24.26-.4.2Z"/>
                <path d="m41,61.34c-.16-.06-.25-.23-.2-.4.06-.16.23-.25.4-.2.16.06.25.23.2.4-.06.17-.24.26-.4.2Z"/>
                <path d="m39.04,57.36c-.16-.06-.25-.23-.2-.4.06-.16.23-.25.4-.2.16.06.25.23.2.4-.06.17-.23.26-.4.2Z"/>
                <path d="m42.01,58.38c-.16-.06-.25-.23-.2-.4.06-.16.23-.25.4-.2.16.06.25.23.2.4-.06.16-.24.25-.4.2Z"/>
                <path d="m42.98,60.36c-.16-.06-.25-.23-.2-.4.06-.16.23-.25.4-.2.16.06.25.23.2.4-.06.17-.23.26-.4.2Z"/>
                <path d="m40.02,59.35c-.16-.06-.25-.23-.2-.4.06-.16.23-.25.4-.2.16.06.25.23.2.4-.06.17-.24.26-.4.2Z"/>
                <path d="m43.99,57.4c-.16-.06-.25-.23-.2-.4.06-.16.23-.25.4-.2.16.06.25.23.2.4-.05.17-.23.25-.4.2Z"/>
                <path d="m41.03,56.39c-.16-.06-.25-.23-.2-.4.06-.16.23-.25.4-.2.16.06.25.23.2.4-.06.17-.24.25-.4.2Z"/>
              </g>
            </g>
            <g class="cls-13">
              <g>
                <path d="m43.96,62.35c-.16-.06-.25-.23-.2-.4.06-.16.23-.25.4-.2.16.06.25.23.2.4-.06.17-.24.26-.4.2Z"/>
                <path d="m44.97,59.39c-.16-.06-.25-.23-.2-.4.06-.16.23-.25.4-.2.16.06.25.23.2.4s-.24.25-.4.2Z"/>
              </g>
            </g>
            <g class="cls-54">
              <g>
                <path d="m40.05,54.4c-.16-.06-.25-.23-.2-.4.06-.16.23-.25.4-.2.16.06.25.23.2.4-.06.17-.23.26-.4.2Z"/>
                <path d="m43.02,55.41c-.16-.06-.25-.23-.2-.4.06-.16.23-.25.4-.2.16.06.25.23.2.4-.06.17-.24.26-.4.2Z"/>
              </g>
            </g>
            <g class="cls-83">
              <path d="m45.98,56.42c-.16-.06-.25-.23-.2-.4.06-.16.23-.25.4-.2.16.06.25.23.2.4-.06.17-.23.26-.4.2Z"/>
            </g>
          </g>
        </g>
        <g class="cls-53">
          <g>
            <g class="cls-85">
              <g>
                <path d="m36.01,66.26c-.16-.06-.25-.23-.2-.4.06-.16.23-.25.4-.2.16.06.25.23.2.4-.06.17-.24.25-.4.2Z"/>
                <path d="m38.97,67.27c-.16-.06-.25-.23-.2-.4.06-.16.23-.25.4-.2.16.06.25.23.2.4-.05.17-.23.26-.4.2Z"/>
                <path d="m37.02,63.29c-.16-.06-.25-.23-.2-.4.06-.16.23-.25.4-.2.16.06.25.23.2.4-.06.17-.24.26-.4.2Z"/>
                <path d="m39.99,64.3c-.16-.06-.25-.23-.2-.4.06-.16.23-.25.4-.2.16.06.25.23.2.4-.06.17-.24.26-.4.2Z"/>
                <path d="m40.96,66.29c-.16-.06-.25-.23-.2-.4.06-.16.23-.25.4-.2.16.06.25.23.2.4-.06.17-.23.26-.4.2Z"/>
                <path d="m38,65.28c-.16-.06-.25-.23-.2-.4.06-.16.23-.25.4-.2.16.06.25.23.2.4-.06.17-.24.26-.4.2Z"/>
                <path d="m41.97,63.33c-.16-.06-.25-.23-.2-.4.06-.16.23-.25.4-.2.16.06.25.23.2.4-.06.17-.23.25-.4.2Z"/>
                <path d="m39.01,62.32c-.16-.06-.25-.23-.2-.4.06-.16.23-.25.4-.2.16.06.25.23.2.4-.06.17-.24.25-.4.2Z"/>
              </g>
            </g>
            <g class="cls-51">
              <g>
                <path d="m41.94,68.28c-.16-.06-.25-.23-.2-.4.06-.16.23-.25.4-.2.16.06.25.23.2.4-.06.17-.24.26-.4.2Z"/>
                <path d="m42.95,65.32c-.16-.06-.25-.23-.2-.4.06-.16.23-.25.4-.2.16.06.25.23.2.4-.06.16-.24.25-.4.2Z"/>
              </g>
            </g>
            <g class="cls-82">
              <g>
                <path d="m38.03,60.33c-.16-.06-.25-.23-.2-.4.06-.16.23-.25.4-.2.16.06.25.23.2.4-.06.17-.24.26-.4.2Z"/>
                <path d="m41,61.34c-.16-.06-.25-.23-.2-.4s.23-.25.4-.2c.16.06.25.23.2.4-.06.17-.24.26-.4.2Z"/>
              </g>
            </g>
            <g class="cls-61">
              <path d="m43.96,62.35c-.16-.06-.25-.23-.2-.4.06-.16.23-.25.4-.2.16.06.25.23.2.4-.06.17-.24.26-.4.2Z"/>
            </g>
          </g>
        </g>
        <g class="cls-67">
          <g>
            <g class="cls-81">
              <g>
                <path d="m33.99,72.19c-.16-.06-.25-.23-.2-.4.06-.16.23-.25.4-.2.16.06.25.23.2.4-.06.17-.24.25-.4.2Z"/>
                <path d="m36.95,73.2c-.16-.06-.25-.23-.2-.4.06-.16.23-.25.4-.2.16.06.25.23.2.4-.05.17-.23.25-.4.2Z"/>
                <path d="m35,69.22c-.16-.06-.25-.23-.2-.4.06-.16.23-.25.4-.2.16.06.25.23.2.4-.06.17-.24.26-.4.2Z"/>
                <path d="m37.96,70.23c-.16-.06-.25-.23-.2-.4s.23-.25.4-.2c.16.06.25.23.2.4-.05.17-.23.26-.4.2Z"/>
                <path d="m38.94,72.22c-.16-.06-.25-.23-.2-.4.06-.16.23-.25.4-.2.16.06.25.23.2.4-.06.17-.23.26-.4.2Z"/>
                <path d="m35.98,71.21c-.16-.06-.25-.23-.2-.4.06-.16.23-.25.4-.2.16.06.25.23.2.4-.06.17-.24.26-.4.2Z"/>
                <path d="m39.95,69.26c-.16-.06-.25-.23-.2-.4.06-.16.23-.25.4-.2.16.06.25.23.2.4-.06.17-.23.25-.4.2Z"/>
                <path d="m36.99,68.25c-.16-.06-.25-.23-.2-.4.06-.16.23-.25.4-.2.16.06.25.23.2.4-.06.17-.24.25-.4.2Z"/>
              </g>
            </g>
            <g class="cls-34">
              <g>
                <path d="m39.92,74.21c-.16-.06-.25-.23-.2-.4.06-.16.23-.25.4-.2.16.06.25.23.2.4-.06.17-.24.26-.4.2Z"/>
                <path d="m40.93,71.24c-.16-.06-.25-.23-.2-.4s.23-.25.4-.2c.16.06.25.23.2.4-.06.17-.24.26-.4.2Z"/>
              </g>
            </g>
            <g class="cls-75">
              <g>
                <path d="m36.01,66.26c-.16-.06-.25-.23-.2-.4.06-.16.23-.25.4-.2.16.06.25.23.2.4-.06.17-.24.25-.4.2Z"/>
                <path d="m38.97,67.27c-.16-.06-.25-.23-.2-.4.06-.16.23-.25.4-.2.16.06.25.23.2.4s-.23.26-.4.2Z"/>
              </g>
            </g>
            <g class="cls-9">
              <path d="m41.94,68.28c-.16-.06-.25-.23-.2-.4s.23-.25.4-.2c.16.06.25.23.2.4-.06.17-.24.26-.4.2Z"/>
            </g>
          </g>
        </g>
        <g class="cls-40">
          <g>
            <g class="cls-55">
              <g>
                <path d="m45.98,56.42c-.16-.06-.25-.23-.2-.4.06-.16.23-.25.4-.2.16.06.25.23.2.4-.06.17-.23.26-.4.2Z"/>
                <path d="m48.95,57.43c-.16-.06-.25-.23-.2-.4.06-.16.23-.25.4-.2.16.06.25.23.2.4-.06.17-.24.26-.4.2Z"/>
                <path d="m46.99,53.46c-.16-.06-.25-.23-.2-.4.06-.16.23-.25.4-.2.16.06.25.23.2.4-.06.16-.23.25-.4.2Z"/>
                <path d="m49.96,54.47c-.16-.06-.25-.23-.2-.4s.23-.25.4-.2c.16.06.25.23.2.4s-.24.25-.4.2Z"/>
                <path d="m50.93,56.45c-.16-.06-.25-.23-.2-.4.06-.16.23-.25.4-.2.16.06.25.23.2.4-.05.17-.23.26-.4.2Z"/>
                <path d="m47.97,55.44c-.16-.06-.25-.23-.2-.4.06-.16.23-.25.4-.2.16.06.25.23.2.4-.06.17-.24.26-.4.2Z"/>
                <path d="m51.94,53.49c-.16-.06-.25-.23-.2-.4.06-.16.23-.25.4-.2.16.06.25.23.2.4-.05.17-.23.26-.4.2Z"/>
                <path d="m48.98,52.48c-.16-.06-.25-.23-.2-.4.06-.16.23-.25.4-.2.16.06.25.23.2.4-.06.17-.24.25-.4.2Z"/>
              </g>
            </g>
            <g class="cls-3">
              <path d="m51.91,58.44c-.16-.06-.25-.23-.2-.4.06-.16.23-.25.4-.2.16.06.25.23.2.4-.06.17-.24.26-.4.2Z"/>
            </g>
            <g class="cls-5">
              <g>
                <path d="m48,50.49c-.16-.06-.25-.23-.2-.4s.23-.25.4-.2c.16.06.25.23.2.4-.06.17-.23.26-.4.2Z"/>
                <path d="m50.97,51.5c-.16-.06-.25-.23-.2-.4s.23-.25.4-.2c.16.06.25.23.2.4s-.24.26-.4.2Z"/>
              </g>
            </g>
          </g>
        </g>
        <g class="cls-77">
          <g>
            <g class="cls-91">
              <g>
                <path d="m43.96,62.35c-.16-.06-.25-.23-.2-.4.06-.16.23-.25.4-.2.16.06.25.23.2.4-.06.17-.24.26-.4.2Z"/>
                <path d="m46.93,63.36c-.16-.06-.25-.23-.2-.4s.23-.25.4-.2c.16.06.25.23.2.4s-.24.26-.4.2Z"/>
                <path d="m44.97,59.39c-.16-.06-.25-.23-.2-.4s.23-.25.4-.2c.16.06.25.23.2.4s-.24.25-.4.2Z"/>
                <path d="m47.94,60.4c-.16-.06-.25-.23-.2-.4s.23-.25.4-.2c.16.06.25.23.2.4s-.24.25-.4.2Z"/>
                <path d="m48.91,62.38c-.16-.06-.25-.23-.2-.4.06-.16.23-.25.4-.2.16.06.25.23.2.4-.06.17-.23.26-.4.2Z"/>
                <path d="m45.95,61.37c-.16-.06-.25-.23-.2-.4.06-.16.23-.25.4-.2.16.06.25.23.2.4-.06.17-.24.26-.4.2Z"/>
                <path d="m49.92,59.42c-.16-.06-.25-.23-.2-.4.06-.16.23-.25.4-.2.16.06.25.23.2.4-.06.17-.23.25-.4.2Z"/>
                <path d="m46.96,58.41c-.16-.06-.25-.23-.2-.4.06-.16.23-.25.4-.2.16.06.25.23.2.4-.06.17-.24.25-.4.2Z"/>
              </g>
            </g>
            <g class="cls-84">
              <g>
                <path d="m49.89,64.37c-.16-.06-.25-.23-.2-.4.06-.16.23-.25.4-.2.16.06.25.23.2.4-.06.17-.24.26-.4.2Z"/>
                <path d="m50.9,61.41c-.16-.06-.25-.23-.2-.4s.23-.25.4-.2c.16.06.25.23.2.4-.06.16-.24.25-.4.2Z"/>
              </g>
            </g>
            <g class="cls-89">
              <g>
                <path d="m45.98,56.42c-.16-.06-.25-.23-.2-.4s.23-.25.4-.2c.16.06.25.23.2.4s-.23.26-.4.2Z"/>
                <path d="m48.95,57.43c-.16-.06-.25-.23-.2-.4.06-.16.23-.25.4-.2.16.06.25.23.2.4s-.24.26-.4.2Z"/>
              </g>
            </g>
            <g class="cls-68">
              <path d="m51.91,58.44c-.16-.06-.25-.23-.2-.4s.23-.25.4-.2c.16.06.25.23.2.4-.06.17-.24.26-.4.2Z"/>
            </g>
          </g>
        </g>
        <g class="cls-65">
          <g>
            <g class="cls-87">
              <g>
                <path d="m41.94,68.28c-.16-.06-.25-.23-.2-.4s.23-.25.4-.2c.16.06.25.23.2.4s-.24.26-.4.2Z"/>
                <path d="m44.9,69.29c-.16-.06-.25-.23-.2-.4.06-.16.23-.25.4-.2.16.06.25.23.2.4s-.23.26-.4.2Z"/>
                <path d="m42.95,65.32c-.16-.06-.25-.23-.2-.4s.23-.25.4-.2c.16.06.25.23.2.4s-.24.25-.4.2Z"/>
                <path d="m45.91,66.33c-.16-.06-.25-.23-.2-.4.06-.16.23-.25.4-.2.16.06.25.23.2.4-.05.16-.23.25-.4.2Z"/>
                <path d="m46.89,68.31c-.16-.06-.25-.23-.2-.4.06-.16.23-.25.4-.2.16.06.25.23.2.4-.06.17-.23.26-.4.2Z"/>
                <path d="m43.93,67.3c-.16-.06-.25-.23-.2-.4.06-.16.23-.25.4-.2.16.06.25.23.2.4-.06.17-.24.26-.4.2Z"/>
                <path d="m47.9,65.35c-.16-.06-.25-.23-.2-.4.06-.16.23-.25.4-.2.16.06.25.23.2.4-.06.17-.23.25-.4.2Z"/>
                <path d="m44.94,64.34c-.16-.06-.25-.23-.2-.4.06-.16.23-.25.4-.2.16.06.25.23.2.4-.06.17-.24.25-.4.2Z"/>
              </g>
            </g>
            <g class="cls-2">
              <g>
                <path d="m47.87,70.3c-.16-.06-.25-.23-.2-.4.06-.16.23-.25.4-.2.16.06.25.23.2.4-.06.17-.24.26-.4.2Z"/>
                <path d="m48.88,67.34c-.16-.06-.25-.23-.2-.4s.23-.25.4-.2c.16.06.25.23.2.4s-.24.25-.4.2Z"/>
              </g>
            </g>
            <g class="cls-1">
              <g>
                <path d="m43.96,62.35c-.16-.06-.25-.23-.2-.4.06-.16.23-.25.4-.2.16.06.25.23.2.4-.06.17-.24.26-.4.2Z"/>
                <path d="m46.93,63.36c-.16-.06-.25-.23-.2-.4.06-.16.23-.25.4-.2.16.06.25.23.2.4-.06.17-.24.26-.4.2Z"/>
              </g>
            </g>
            <g class="cls-80">
              <path d="m49.89,64.37c-.16-.06-.25-.23-.2-.4s.23-.25.4-.2c.16.06.25.23.2.4s-.24.26-.4.2Z"/>
            </g>
          </g>
        </g>
        <g class="cls-30">
          <g>
            <g class="cls-26">
              <g>
                <path d="m39.92,74.21c-.16-.06-.25-.23-.2-.4s.23-.25.4-.2c.16.06.25.23.2.4s-.24.26-.4.2Z"/>
                <path d="m40.93,71.24c-.16-.06-.25-.23-.2-.4.06-.16.23-.25.4-.2.16.06.25.23.2.4-.06.17-.24.26-.4.2Z"/>
                <path d="m43.89,72.26c-.16-.06-.25-.23-.2-.4.06-.16.23-.25.4-.2.16.06.25.23.2.4-.05.16-.23.25-.4.2Z"/>
                <path d="m44.87,74.24c-.16-.06-.25-.23-.2-.4.06-.16.23-.25.4-.2.16.06.25.23.2.4-.06.17-.24.26-.4.2Z"/>
                <path d="m41.91,73.23c-.16-.06-.25-.23-.2-.4.06-.16.23-.25.4-.2.16.06.25.23.2.4-.06.17-.24.26-.4.2Z"/>
                <path d="m45.88,71.28c-.16-.06-.25-.23-.2-.4.06-.16.23-.25.4-.2.16.06.25.23.2.4-.06.17-.23.25-.4.2Z"/>
                <path d="m42.92,70.27c-.16-.06-.25-.23-.2-.4.06-.16.23-.25.4-.2.16.06.25.23.2.4-.06.17-.24.25-.4.2Z"/>
              </g>
            </g>
            <g class="cls-14">
              <path d="m46.86,73.27c-.16-.06-.25-.23-.2-.4.06-.16.23-.25.4-.2.16.06.25.23.2.4s-.24.25-.4.2Z"/>
            </g>
            <g class="cls-10">
              <g>
                <path d="m41.94,68.28c-.16-.06-.25-.23-.2-.4s.23-.25.4-.2c.16.06.25.23.2.4-.06.17-.24.26-.4.2Z"/>
                <path d="m44.9,69.29c-.16-.06-.25-.23-.2-.4.06-.16.23-.25.4-.2.16.06.25.23.2.4-.05.17-.23.26-.4.2Z"/>
              </g>
            </g>
            <g class="cls-47">
              <path d="m47.87,70.3c-.16-.06-.25-.23-.2-.4.06-.16.23-.25.4-.2.16.06.25.23.2.4-.06.17-.24.26-.4.2Z"/>
            </g>
          </g>
        </g>
        <g class="cls-44">
          <g class="cls-29">
            <path d="m51.91,58.44c-.16-.06-.25-.23-.2-.4.06-.16.23-.25.4-.2.16.06.25.23.2.4-.06.17-.24.26-.4.2Z"/>
          </g>
        </g>
        <g class="cls-88">
          <g>
            <g class="cls-60">
              <g>
                <path d="m49.89,64.37c-.16-.06-.25-.23-.2-.4.06-.16.23-.25.4-.2.16.06.25.23.2.4-.06.17-.24.26-.4.2Z"/>
                <path d="m50.9,61.41c-.16-.06-.25-.23-.2-.4.06-.16.23-.25.4-.2.16.06.25.23.2.4-.06.16-.24.25-.4.2Z"/>
                <path d="m51.88,63.39c-.16-.06-.25-.23-.2-.4.06-.16.23-.25.4-.2.16.06.25.23.2.4-.06.17-.24.26-.4.2Z"/>
              </g>
            </g>
            <g class="cls-19">
              <path d="m51.91,58.44c-.16-.06-.25-.23-.2-.4.06-.16.23-.25.4-.2.16.06.25.23.2.4-.06.17-.24.26-.4.2Z"/>
            </g>
          </g>
        </g>
        <g class="cls-71">
          <g>
            <g class="cls-63">
              <g>
                <path d="m47.87,70.3c-.16-.06-.25-.23-.2-.4.06-.16.23-.25.4-.2.16.06.25.23.2.4-.06.17-.24.26-.4.2Z"/>
                <path d="m50.83,71.31c-.16-.06-.25-.23-.2-.4.06-.16.23-.25.4-.2.16.06.25.23.2.4-.05.17-.23.26-.4.2Z"/>
                <path d="m48.88,67.34c-.16-.06-.25-.23-.2-.4.06-.16.23-.25.4-.2.16.06.25.23.2.4-.06.16-.24.25-.4.2Z"/>
                <path d="m51.84,68.35c-.16-.06-.25-.23-.2-.4.06-.16.23-.25.4-.2.16.06.25.23.2.4-.05.16-.23.25-.4.2Z"/>
                <path d="m49.86,69.32c-.16-.06-.25-.23-.2-.4.06-.16.23-.25.4-.2.16.06.25.23.2.4-.06.17-.24.26-.4.2Z"/>
                <path d="m50.87,66.36c-.16-.06-.25-.23-.2-.4.06-.16.23-.25.4-.2.16.06.25.23.2.4-.06.17-.24.25-.4.2Z"/>
              </g>
            </g>
            <g class="cls-11">
              <path d="m49.89,64.37c-.16-.06-.25-.23-.2-.4.06-.16.23-.25.4-.2.16.06.25.23.2.4-.06.17-.24.26-.4.2Z"/>
            </g>
          </g>
        </g>
        <g class="cls-43">
          <g>
            <g class="cls-49">
              <g>
                <path d="m46.86,73.27c-.16-.06-.25-.23-.2-.4.06-.16.23-.25.4-.2.16.06.25.23.2.4-.06.16-.24.25-.4.2Z"/>
                <path d="m49.82,74.28c-.16-.06-.25-.23-.2-.4.06-.16.23-.25.4-.2.16.06.25.23.2.4-.06.16-.23.25-.4.2Z"/>
                <path d="m51.81,73.3c-.16-.06-.25-.23-.2-.4.06-.16.23-.25.4-.2.16.06.25.23.2.4-.06.17-.24.25-.4.2Z"/>
                <path d="m48.85,72.29c-.16-.06-.25-.23-.2-.4.06-.16.23-.25.4-.2.16.06.25.23.2.4-.06.17-.24.25-.4.2Z"/>
              </g>
            </g>
            <g class="cls-23">
              <g>
                <path d="m47.87,70.3c-.16-.06-.25-.23-.2-.4.06-.16.23-.25.4-.2.16.06.25.23.2.4-.06.17-.24.26-.4.2Z"/>
                <path d="m50.83,71.31c-.16-.06-.25-.23-.2-.4s.23-.25.4-.2c.16.06.25.23.2.4-.05.17-.23.26-.4.2Z"/>
              </g>
            </g>
          </g>
        </g>
      </g>
      <path d="m35.81,42.57c-.39-3.15-1.14-6.25-1.13-9.44,0-1.69.14-3.46.63-5.08.41-1.36,1.13-2.61,2.09-3.65.93-1.01,2.08-1.81,3.34-2.35.63-.27,1.3-.47,1.98-.6.61-.12,1.24-.19,1.8-.48.57-.3,1.09-.85,1.28-1.47.19-.61-.11-1.23-.62-1.57-1.12-.76-2.54-.39-3.63.24-1.45.83-2.52,2.1-3.53,3.4-1.17,1.5-2.31,3.04-3.35,4.63.12.03.23.06.35.09-.07-1.93.87-3.84,2-5.34,1.22-1.62,2.91-2.63,4.71-3.49.81-.38,1.69-.69,2.44-1.18.59-.39,1.02-.94.78-1.67-.47-1.45-2.32-1.08-3.33-.5-.94.54-1.77,1.35-2.49,2.14-.78.85-1.48,1.8-2.03,2.82.12.03.23.06.35.09,0-1.2.36-2.52.98-3.55.57-.94,1.66-1.95,1.06-3.15-.39-.77-1.4-1.03-2.05-.44-.64.58-.82,1.61-.93,2.42-.13.91-.19,1.83-.18,2.75,0,.49.02.99.04,1.48,0,.25-.03.6.04.84,0-.04.06-.11-.02,0-.06.09-.11.19-.16.29-.19.35-.38.71-.57,1.07-.48.93-.95,1.87-1.32,2.85-1.12,2.94-.71,6.19-.69,9.26.12-.02.25-.03.37-.05-1.11-2.92-1.73-6-2.8-8.93-.51-1.4-1.13-2.76-1.95-4.01-.83-1.27-1.77-2.46-2.45-3.83-.33-.68-.61-1.4-.72-2.15-.13-.82,0-1.61.27-2.39.38-1.14.98-2.21.94-3.45-.03-.96-.45-1.89-1.4-2.22-.92-.32-1.8.03-2.23.9-.54,1.09-.45,2.48-.12,3.61.2.68.51,1.33.72,2.01.26.82.42,1.67.5,2.53.11-.04.21-.09.32-.13-.9-1.15-2.05-2.07-3.28-2.85-.6-.38-1.21-.75-1.86-1.04-.52-.23-1.07-.4-1.62-.58-1.3-.43-2.55-1.11-3.31-2.3-.34-.54-.61-1.13-1.06-1.59-.36-.37-.85-.63-1.36-.74-.95-.22-2.1.05-2.54,1-.5,1.06.14,2.29,1.01,2.93,1.16.86,2.74.86,4.1,1.09,1.25.21,2.49.54,3.67,1.01,2.66,1.07,4.85,2.96,6.35,5.4.09-.09.17-.17.26-.26-1.48-.63-3.01-1.18-4.61-1.43-1.48-.23-2.98-.17-4.45.16-1.27.29-2.95.79-3.17,2.31-.19,1.32,1.14,2.01,2.29,1.81,1.44-.25,2.42-1.38,3.73-1.92,1.22-.5,2.58-.68,3.9-.53,1.37.16,2.67.71,3.65,1.68,1.06,1.05,1.72,2.43,2.32,3.78,1.57,3.54,2.61,7.27,3.6,11,.08-.08.15-.15.23-.23-1.32-.47-2.43-1.25-3.37-2.29-.51-.56-.9-1.18-1.26-1.85-.29-.54-.56-1.1-.97-1.56-.66-.75-1.96-1.27-2.82-.51-.35.31-.44.85-.28,1.27.18.49.62.84,1.04,1.12,1.19.78,2.86,1.08,3.69,2.32.04-.09.07-.18.11-.28-2.56,1.03-5.33,1.04-8.03,1.34-.98.11-1.9.7-2.21,1.68-.29.93.23,2,1.17,2.3,1.07.34,2.22-.19,3.11-.75,1.02-.64,1.96-1.4,3.01-1.99,1.03-.58,2.18-.94,3.36-.7,1.12.23,2.15.86,2.87,1.74.4.48.7,1.04.87,1.64.21.73.18,1.51.22,2.26.1,1.7.22,3.41.45,5.1.02.14.23.18.31.08.5-.6,1-1.19,1.5-1.79.15-.18-.11-.45-.27-.27-.5.6-1,1.19-1.5,1.79.1.03.21.06.31.08-.21-1.5-.32-3-.41-4.51-.07-1.21,0-2.47-.54-3.59-.88-1.85-3-3.2-5.07-2.97-2.33.26-3.95,2.15-5.94,3.16-.92.47-2.39.78-2.99-.33-.56-1.02.25-2.16,1.26-2.48.36-.11.74-.12,1.11-.16.38-.04.75-.07,1.13-.1.74-.06,1.48-.13,2.22-.22,1.41-.17,2.81-.44,4.13-.97.1-.04.19-.16.11-.28-.67-1.01-1.86-1.43-2.9-1.95-.48-.23-.97-.49-1.36-.85-.37-.34-.7-.9-.33-1.37.31-.39,1-.41,1.43-.27.55.18.97.64,1.28,1.11.33.51.58,1.08.89,1.61.33.57.73,1.08,1.17,1.55.94,1.01,2.07,1.75,3.37,2.21.14.05.27-.1.23-.23-.84-3.16-1.71-6.32-2.91-9.36-.99-2.51-2.14-5.49-4.73-6.73-2.2-1.05-4.99-.89-7.11.3-1.14.64-2.28,1.86-3.73,1.49-.69-.18-1.13-.76-.97-1.49.17-.75.84-1.21,1.52-1.48,1.54-.6,3.3-.78,4.94-.63,1.8.17,3.52.78,5.17,1.48.16.07.37-.08.26-.26-1.23-2-2.91-3.67-4.96-4.81-1.01-.56-2.1-.99-3.21-1.31-1.26-.36-2.54-.52-3.83-.72-1.3-.21-2.74-.68-3.17-2.07-.17-.55-.08-1.17.35-1.59.37-.35.91-.47,1.41-.44.53.03,1.07.23,1.47.58.48.42.75,1.02,1.08,1.55.65,1.06,1.7,1.83,2.85,2.29.56.22,1.14.38,1.7.58.71.26,1.37.62,2.01,1.01,1.36.81,2.63,1.78,3.61,3.04.1.12.34.02.32-.13-.14-1.36-.48-2.64-.97-3.91-.41-1.06-.65-2.19-.42-3.32.19-.94.77-1.78,1.83-1.53,1.03.25,1.38,1.24,1.34,2.21-.06,1.27-.77,2.4-1.09,3.61-.35,1.36-.07,2.69.5,3.94.59,1.3,1.42,2.47,2.24,3.63.86,1.21,1.53,2.53,2.07,3.91,1.21,3.09,1.83,6.37,3.01,9.47.07.19.37.17.37-.05-.02-2.73-.34-5.56.38-8.24.46-1.72,1.37-3.34,2.23-4.89.06-.11.14-.22.15-.34.02-.25-.03-.52-.04-.77-.04-.9-.09-1.82-.02-2.72.06-.88.13-1.78.39-2.63.2-.68.71-1.64,1.58-1.23.66.31.7,1.14.43,1.73-.28.61-.77,1.1-1.09,1.68-.59,1.07-.96,2.38-.95,3.6,0,.18.26.26.35.09.93-1.71,2.26-3.26,3.82-4.43.6-.45,1.3-.83,2.07-.86.65-.02,1.23.29,1.33.98.1.76-.92,1.19-1.47,1.45-.83.38-1.66.75-2.47,1.16-1.59.81-3,1.84-4.06,3.29-1.14,1.54-2.06,3.5-1.99,5.46,0,.19.25.25.35.09.92-1.4,1.9-2.75,2.92-4.08.9-1.17,1.8-2.36,2.98-3.25.99-.75,2.37-1.5,3.63-1.04.32.12.65.31.83.62.23.4.12.79-.12,1.16-.37.59-.92.93-1.58,1.1-.6.15-1.21.22-1.81.38-.64.18-1.25.42-1.84.71-1.15.58-2.19,1.38-3.03,2.34-.86.98-1.53,2.13-1.94,3.38-.49,1.49-.66,3.13-.71,4.69-.12,3.44.7,6.79,1.12,10.18.03.28.4.28.37.04Z"/>
      <path d="m25.73,31.27c-2.33.06-4.69.37-6.87,1.24-1.06.42-2.07.96-3,1.62-.76.54-1.45,1.08-2.36,1.37-.72.23-1.72.36-2.22-.35-.54-.76-.44-1.79.19-2.44.64-.67,1.59-1.01,2.47-1.23,1.12-.28,2.28-.42,3.43-.5,2.77-.19,5.61-.03,8.3.66.23.06.33-.3.1-.36-2.56-.65-5.25-.84-7.88-.7-1.23.06-2.47.19-3.67.45-.93.2-1.9.52-2.66,1.1-.7.54-1.12,1.31-.98,2.2.14.87.65,1.58,1.56,1.7.87.11,1.78-.23,2.53-.64.43-.24.81-.54,1.21-.83.51-.37,1.04-.71,1.58-1,2.53-1.38,5.4-1.85,8.25-1.92.27,0,.27-.37.02-.37Z"/>
    </g>
  </g>
</svg>