<?xml version="1.0" encoding="UTF-8"?>
<svg id="Layer_2" data-name="Layer 2" xmlns="http://www.w3.org/2000/svg" viewBox="0 0 32.23 49.95">
  <g id="Layer_1-2" data-name="Layer 1">
    <g>
      <path d="m32.18,49.62c-2.83-3.21-6.3-5.76-9.61-8.44-3.16-2.57-6.35-5.33-8.36-8.93-1.14-2.05-1.81-4.32-1.96-6.66,0-.1-.08-.19-.19-.19-1.14.03-2.26-.16-3.34-.5-.12-.04-.24.06-.24.18,0,3.87,1.14,7.58,3.2,10.85,2.07,3.28,4.87,6.03,7.8,8.54.85.73,1.72,1.44,2.59,2.14.66.53,1.46.88,2.1,1.42.18.15.45-.11.27-.27-.55-.46-1.22-.76-1.8-1.18-.77-.57-1.5-1.21-2.24-1.82-1.49-1.25-2.95-2.55-4.31-3.95-2.61-2.67-4.9-5.73-6.15-9.28-.73-2.07-1.08-4.25-1.08-6.45-.08.06-.16.12-.24.18,1.11.35,2.27.55,3.44.52-.06-.06-.12-.12-.19-.19.13,2.09.65,4.12,1.57,6,.88,1.81,2.1,3.45,3.46,4.93,2.9,3.16,6.42,5.68,9.72,8.4,1.87,1.54,3.69,3.15,5.29,4.97.16.18.43-.09.27-.27h0Z"/>
      <g>
        <path d="m11.46,25.78c1.22.04,2.45-.13,3.64-.39,1.55-.35,3.06-.89,4.45-1.65,1.49-.81,2.82-1.89,3.91-3.19.91-1.09,1.64-2.3,2.4-3.5.89-1.4,1.87-2.71,3.19-3.74.17-.13-.02-.34-.18-.31-4.1.59-8.07,2.24-11.38,4.73-.92.7-1.79,1.46-2.6,2.29.1.06.21.12.31.18.82-2.47,1.58-5.04,1.71-7.66.1-2.04-.29-4.04-1-5.95-.47-1.26-1.04-2.48-1.63-3.69-.06-.12-.26-.12-.32,0-1.94,3.75-4.69,7.13-5.65,11.32-.29,1.26-.41,2.56-.34,3.85.12-.03.23-.06.35-.09-1.81-3.49-2.98-7.4-5.58-10.43-.72-.83-1.54-1.57-2.46-2.16-.15-.1-.3.06-.28.21.47,3.23.31,6.52.9,9.74.29,1.58.8,3.12,1.58,4.53.43.79.94,1.53,1.51,2.23.53.65,1.09,1.29,1.77,1.78,1.62,1.16,3.72,1.81,5.7,1.9.24.01.24-.36,0-.38-1.8-.08-3.64-.65-5.16-1.61-.71-.45-1.27-1.04-1.81-1.67-.58-.68-1.1-1.42-1.55-2.19-1.6-2.77-1.94-5.89-2.12-9.03-.1-1.81-.2-3.61-.46-5.4-.09.07-.18.14-.28.21,3.36,2.16,4.97,6.04,6.53,9.54.44.98.88,1.96,1.38,2.91.08.16.36.09.35-.09-.11-2.23.36-4.42,1.22-6.47.82-1.95,1.94-3.76,3.04-5.56.59-.97,1.17-1.94,1.69-2.94h-.32c.97,1.98,1.91,4.03,2.35,6.21.41,2.06.26,4.15-.17,6.19-.33,1.57-.79,3.1-1.3,4.62-.06.18.19.31.31.18,2.86-2.95,6.55-5.06,10.48-6.2,1.09-.32,2.2-.56,3.33-.72-.06-.1-.12-.21-.18-.31-1.14.88-2.04,1.99-2.84,3.18-.76,1.15-1.44,2.35-2.27,3.45-2,2.65-4.87,4.37-8.06,5.2-1.35.35-2.76.58-4.16.53-.24-.03-.24.34,0,.35Z"/>
        <path d="m7.55,14.93c.37-.07.46-.61.53-.9.18-.76.33-1.53.58-2.28.17-.52.37-1.02.61-1.51.16-.33.48-.69.45-1.08-.05-.7-.95-1.05-1.5-1.21-.85-.25-1.79-.28-2.66-.13-.48.08-1.28.29-1.33.89-.02.28.14.5.3.71.17.23.31.47.45.72.35.62.64,1.26.93,1.91.31.68.6,1.37.93,2.04.11.23.33.85.67.84.24,0,.24-.38,0-.38.08,0,.04.05.02-.02-.02-.04-.06-.09-.09-.13-.1-.16-.19-.34-.27-.51-.24-.49-.46-.99-.68-1.49-.46-1.04-.91-2.13-1.56-3.07-.12-.17-.34-.36-.32-.58.02-.25.34-.38.54-.44.64-.23,1.38-.24,2.05-.18.43.04.85.13,1.25.28.3.12.7.3.86.6.16.32-.16.66-.3.93-.19.38-.37.77-.52,1.17-.29.77-.49,1.57-.67,2.38-.04.19-.13,1.03-.36,1.07-.25.05-.14.42.09.37Z"/>
        <path d="m6.19,5.93c-1.01.66-2.56.56-3.6.04-.53-.26-1-.64-1.27-1.17-.2-.39-.41-1.08-.13-1.47.29-.41.9-.55,1.35-.66.55-.13,1.11-.19,1.66-.27.94-.14,2.57-.59,3.22.39.7,1.05-.37,2.54-1.23,3.14-.2.14,0,.46.19.32.91-.65,1.84-1.93,1.6-3.1-.3-1.47-1.98-1.39-3.13-1.23-.69.1-1.39.18-2.07.31-.59.11-1.27.27-1.72.69-.42.39-.4.97-.27,1.5.15.61.54,1.13,1.04,1.51.64.49,1.44.76,2.25.81.76.04,1.66-.06,2.31-.49.19-.12.01-.45-.2-.32Z"/>
        <path d="m10.64,6.9c-.31.4-.92.46-1.39.4-.48-.07-1.04-.28-1.32-.7-.27-.43-.05-1.02.39-1.27.54-.32,1.32-.25,1.88-.02.3.13.53.31.6.63.09.33.03.68-.16.96-.14.2.19.39.32.19.19-.29.28-.64.25-.99-.04-.43-.19-.75-.55-.99-.62-.41-1.56-.51-2.26-.24-.63.24-1.15.96-.92,1.65.21.61.86.96,1.45,1.1.71.16,1.55.08,2.02-.53.06-.08,0-.21-.07-.26-.08-.05-.18-.01-.24.07Z"/>
        <path d="m10.11,4.38c1.04.03,2.3-.15,3.02-.98.49-.56.53-1.32.05-1.9-.65-.79-1.83-.97-2.78-.94-.56.02-1.12.14-1.56.52-.34.29-.54.72-.58,1.16-.04.47.09,1.01.36,1.4.35.5.89.71,1.49.74.24.01.24-.36,0-.38-.45-.02-.89-.17-1.16-.56-.2-.29-.3-.66-.31-1-.03-.96.81-1.47,1.68-1.51.83-.03,1.84.07,2.47.68.41.4.49.96.15,1.43-.62.84-1.87.99-2.82.96-.25,0-.25.37-.01.38Z"/>
        <path d="m22.51,5.36c.68-.17,1.17-.7,1.17-1.41.01-.83-.56-1.34-1.18-1.78-.95-.67-1.97-1.29-3.01-1.81-.56-.28-1.21-.38-1.84-.36-1.07.02-2.7.42-2.85,1.71-.08.63.22,1.34.8,1.63.59.29,1.3.19,1.94.22.42.02.79.09,1.15.33.49.32.96.67,1.45.98.75.47,1.48.68,2.37.49.24-.05.14-.41-.1-.36-.69.15-1.27.02-1.87-.34-.35-.2-.67-.44-1-.67-.33-.22-.65-.49-1.02-.64-.54-.22-1.15-.18-1.71-.18-.56-.01-1.19-.06-1.48-.62-.25-.49-.21-1.07.19-1.46.38-.38.94-.56,1.46-.65.57-.1,1.18-.09,1.75.04.75.18,1.45.67,2.1,1.06.49.29.97.59,1.44.92.36.26.74.5.92.92.32.71-.02,1.43-.78,1.62-.24.06-.14.42.1.36Z"/>
        <path d="m20.54,8.17c.48-.7.09-1.47-.47-1.98-.63-.57-1.45-1-2.28-1.2-.36-.09-.77-.15-1.11.05-.33.19-.46.57-.46.93,0,.95.69,1.66,1.44,2.16.83.54,2.17,1.02,2.88.04.14-.19-.18-.38-.32-.19-.51.69-1.53.32-2.13-.03-.67-.39-1.35-.95-1.48-1.75-.04-.26-.03-.6.19-.79.22-.19.55-.14.81-.08.7.15,1.39.49,1.96.92.53.4,1.11,1.07.65,1.73-.14.2.19.39.32.19Z"/>
        <path d="m24.11,6.17c-1.09-.01-2.54.35-2.69,1.64-.08.7.28,1.41.64,1.98.37.59.83,1.12,1.37,1.55,1.04.83,2.74,1.55,3.96.65.52-.38.98-.97,1.21-1.57.25-.63.16-1.29-.21-1.86-.45-.7-1.15-1.17-1.88-1.55-.75-.39-1.53-.72-2.4-.84-.24-.03-.24.34,0,.38.67.09,1.29.33,1.89.63.57.29,1.14.59,1.61,1.03.42.4.79.93.78,1.52-.02.63-.41,1.18-.82,1.62-.47.51-1.03.74-1.72.67-.63-.07-1.24-.33-1.77-.68-.97-.63-1.85-1.67-2.19-2.8-.18-.61-.07-1.21.48-1.58.51-.35,1.16-.42,1.76-.42.22,0,.22-.36-.02-.37Z"/>
        <path d="m22.73,14.31c.68-.27,1.04-.82.74-1.53-.33-.76-1.06-1.36-1.73-1.83-.77-.53-1.69-1.01-2.61-1.17-.63-.11-1.35-.04-1.65.61-.19.42-.13.92-.14,1.37-.02.61-.08,1.23-.17,1.84-.13.91-.34,1.8-.56,2.69-.07.28-.14.55-.19.83-.02.15-.07.35.02.49.19.34.7-.02.92-.16,1.77-1.07,3.4-2.38,5.37-3.14.22-.09.13-.45-.1-.36-1.56.6-2.98,1.54-4.36,2.47-.46.31-.92.66-1.41.9-.02.01-.17.06-.17.07s.09.05.08.05c.03-.02.05-.38.06-.45.32-1.52.72-3,.84-4.55.04-.5,0-1.01.05-1.52.03-.3.15-.6.44-.73.64-.29,1.53.1,2.11.37.85.39,1.66.91,2.3,1.6.26.28.54.62.62,1,.08.41-.22.65-.57.79-.22.09-.12.45.11.36Z"/>
      </g>
    </g>
  </g>
</svg>