<?xml version="1.0" encoding="UTF-8"?>
<svg id="Layer_2" data-name="Layer 2" xmlns="http://www.w3.org/2000/svg" viewBox="0 0 83.32 82.64">
  <g id="Layer_1-2" data-name="Layer 1">
    <g>
      <path d="m.11,45.37c3,3.02,3.76,7.23,4.3,11.29.57,4.32,1.05,8.74,3.24,12.59,1.43,2.52,3.5,4.57,5.89,6.19.08.05.22.02.26-.07.22-.51.46-1.01.73-1.49.04-.08.03-.16-.03-.23-1.83-2.08-3.33-4.47-4.2-7.1-.1-.31-.19-.62-.28-.93-.07-.28-.28-.75-.22-1.03.04-.22.32-.34.5-.17.19.18.24.7.32.95.41,1.28.98,2.5,1.68,3.65.79,1.31,1.74,2.52,2.79,3.63.09.1.23.06.29-.04.26-.36.54-.68.86-.99.07-.06.06-.15.03-.23-2.34-5.42-3.34-11.4-3.57-17.28-.23-6.14.39-12.36,2.06-18.28.76-2.69,1.75-5.33,3.07-7.81.12-.23.29-.75.53-.87.14-.07.34.02.4.16.09.19-.11.44-.2.6-.31.59-.61,1.18-.88,1.78-.56,1.23-1.05,2.48-1.47,3.76-1.91,5.72-2.68,11.83-2.64,17.85.03,5.91.84,11.93,2.9,17.48.22.6.47,1.2.72,1.8.04.09.18.11.26.07.53-.31,1.08-.54,1.68-.69.1-.02.16-.14.13-.23-1.81-5.66-2.23-11.74-1.2-17.59.13-.72.27-1.44.44-2.15.08-.34.17-.69.26-1.03.07-.25.12-.89.41-.99.36-.12.4.27.35.5-.08.37-.18.73-.27,1.1-.16.71-.3,1.42-.42,2.14-.46,2.81-.58,5.68-.37,8.52.24,3.23.91,6.42,2,9.46.03.08.09.13.18.14,1.15.06,2.23.42,3.24.95.08.04.16.03.23-.03,3.7-3.45,6.46-7.73,8.68-12.24,2.24-4.54,4-9.3,5.96-13.97,1-2.37,2.05-4.73,3.24-7.01.29-.56.59-1.11.9-1.66.15-.27.31-.54.47-.82.13-.22.35-.79.66-.73.5.09.08.67-.05.9-.2.36-.4.72-.59,1.09-.36.68-.71,1.37-1.05,2.06-2.7,5.52-4.76,11.32-7.13,16.97-2.17,5.18-4.7,10.35-8.54,14.52-.47.51-.96,1-1.46,1.48-.1.09-.05.22.04.29.7.54,1.35,1.14,1.96,1.78.04.05.12.07.18.05,2.51-.82,4.82-2.17,6.75-3.97.5-.47.94-.98,1.41-1.48.25-.26.69-.12.54.28-.12.31-.5.65-.72.9-.88,1.02-1.88,1.94-2.96,2.75-1.25.93-2.62,1.71-4.05,2.31-.13.06-.18.2-.08.31.33.39.66.77.98,1.16.04.05.12.06.18.05,5.13-.97,9.98-3.24,14.02-6.54,4.09-3.33,6.91-7.76,10.13-11.87.8-1.03,1.63-2.03,2.52-2.98.44-.48.9-.94,1.38-1.39.23-.22.46-.43.7-.64.19-.16.63-.69.9-.63.15.03.25.2.23.34-.02.17-.2.27-.32.38-.28.24-.55.48-.81.73-.51.48-1,.99-1.48,1.51-.93,1.02-1.8,2.11-2.63,3.21-1.56,2.06-2.92,4.25-4.54,6.27-1.48,1.85-3.1,3.59-4.86,5.16-3.59,3.2-7.81,5.66-12.44,6.99-.59.17-1.19.32-1.8.46-.15.03-.17.21-.08.31.67.81,1.34,1.62,2.06,2.39.17.18.35.36.53.54.13.13.27.32.43.4.29.15.83-.12,1.13-.2,1.92-.53,3.81-1.18,5.65-1.94,3.6-1.5,6.98-3.43,10.12-5.74,1.57-1.16,3.1-2.37,4.65-3.56.75-.57,1.5-1.14,2.27-1.68.18-.13.41-.36.62-.15.25.25-.06.47-.24.61-.36.28-.73.55-1.09.83-3.08,2.39-6.02,4.99-9.32,7.1-3.78,2.42-7.91,4.3-12.21,5.57-.16.05-.18.26-.04.34.55.35,1.13.65,1.75.85.25.08.54.19.8.19.23,0,.49-.07.72-.1,1.04-.16,2.07-.37,3.09-.62,2.29-.55,4.55-1.28,6.75-2.12,4.7-1.78,9.25-4.04,13.51-6.71,2.26-1.41,4.44-2.95,6.49-4.65.09-.07.07-.25-.04-.29-1.02-.48-2.14-.65-3.21-.98-.34-.11-.89-.24-1.08-.58-.05-.09-.06-.22-.05-.25-.01.02.02-.02.04-.05.24-.23.56-.39.86-.54.51-.26,1.04-.5,1.56-.75,3.44-1.6,6.82-3.38,9.73-5.84,1.99-1.68,3.73-3.66,5.02-5.93.07-.12-.02-.28-.16-.28-1.58,0-3.28-.08-4.57-1.11v.27c3.81-2.98,6.8-7.98,6.49-12.94-.01-.09-.08-.2-.19-.19-1.64.19-3.3.3-4.95.4l.18.24c.57-2.33,2.96-3.47,4.34-5.26.78-1.01,1.24-2.21,1.31-3.49.08-1.48-.59-2.92-1.36-4.15-.94-1.5-2.13-2.86-3.47-4.01-.08-.07-.18-.07-.27,0-.73.57-1.23,1.4-1.68,2.2-.5.89-.94,1.82-1.49,2.68-.36.57-.91,1.41-1.67,1.43-.81.02-.93-1.04-1.06-1.66-.14-.7-.23-1.41-.29-2.11-.01-.11-.08-.18-.19-.19-2.74-.3-5.52.64-7.85,2.02-2.52,1.49-4.75,3.61-6.2,6.17-.77,1.36-1.3,2.85-1.47,4.42.11-.04.21-.09.32-.13-.77-.93-1.81-2.26-3.14-2.28-.89,0-1.86.59-2.44,1.24-1.27,1.42-1.39,3.55-1.38,5.36.01,2.21.31,4.41.22,6.62-.02.47-.06.93-.14,1.39-.05.25-.08.54-.24.75-.22.28-.69.49-1,.26-.72-.54-.33-2-1.5-2.07-1.2-.07-1.28,1.22-1.3,2.11-.02.98-.07,1.96-.21,2.93-.29,2.15-.76,4.35-1.62,6.36-.44,1.03-1.5,3.23-2.9,2.13-1.78-1.4.07-3.82.97-5.17.65-.97,1.33-1.94,1.83-3,.56-1.19.6-2.37.62-3.67.01-.9.05-1.8.35-2.65.27-.76.78-1.24,1.39-1.74,1.14-.94,1.92-2.02,2.27-3.48.67-2.83-.04-6.11,2.06-8.44.98-1.09,2.37-1.84,3.83-2,.73-.08,1.54.15,2.23-.15.6-.27.95-.85,1.24-1.41.7-1.33,1.56-2.5,2.75-3.44,1.1-.87,2.36-1.51,3.64-2.07.58-.26,1.18-.46,1.69-.86.44-.34.8-.78,1.06-1.27.49-.97.57-2.14.2-3.17-.74-2.1-3.33-3.23-5.29-2-.56.35-.88.94-1.43,1.28-.3.18-.63.33-.97.4-.43.08-.72-.06-1-.38-.97-1.1-.76-2.69-.2-3.93.65-1.45,1.84-2.48,2.85-3.68.89-1.05,1.79-2.48,1.22-3.9-.41-1.03-1.42-1.62-2.27-2.25-.45-.33-.92-.69-1.22-1.18-.35-.57-.3-1.21-.24-1.85.06-.56.14-1.2-.16-1.71-.3-.5-.87-.68-1.43-.58-.74.14-1.29.66-1.87,1.09-.32.24-.67.48-1.06.57-.46.1-.82-.09-1.19-.34-.52-.35-1.01-.79-1.66-.86-.64-.07-1.25.22-1.75.6-1.12.85-1.81,2.2-2.26,3.5-.44,1.28-.67,2.71-.35,4.05.08-.08.15-.15.23-.23-.9-.28-1.28-1.5-1.81-2.19s-1.34-1.01-2.21-.81c-1.69.4-2.02,2.65-2.88,3.87.11,0,.23.03.34.04-.37-1.19-1.01-2.45-2.18-3.02-1.19-.57-2.6-.25-3.67.44-1.05.68-2.05,1.86-2.15,3.15-.09,1.14.67,2.06,1.57,2.65,1.13.73,2.54.84,3.53,1.79.9.86,1.41,2.06,1.72,3.25.35,1.33.47,2.71.49,4.07.01,1.54-.13,3.05-.59,4.53-.89,2.89-2.68,5.4-3.82,8.19-1.11,2.72-1.63,5.62-2.25,8.47-.62,2.81-1.35,5.66-2.86,8.15-.39.64-.83,1.25-1.32,1.82-.5.58-1.06,1.21-1.72,1.62-.98.61-2.16.4-2.6-.74-.2-.51-.2-1.08-.05-1.61.2-.7.66-1.19,1.16-1.68,1.11-1.09,2.13-2.29,3.03-3.57,1.77-2.52,3.03-5.35,3.84-8.31.21-.77.39-1.55.55-2.33.04-.18-.17-.31-.31-.18-.79.71-1.53,1.47-2.31,2.18-.71.64-1.55,1.47-2.5,1.73-1.02.27-1.21-1.05-1.07-1.76.26-1.33,1.25-2.12,2.27-2.89,1.9-1.43,3.91-2.76,5.48-4.56,1.71-1.96,2.71-4.37,3.03-6.94.37-2.98-.2-6.13-2.08-8.53-.04-.05-.13-.07-.18-.05-1.07.4-2.86.99-3.84.09-.63-.58-.47-1.43-.57-2.19-.09-.69-.36-1.38-.92-1.82-.92-.72-2.36-.51-3.04.43-.64.88-.85,2.05-1.2,3.06-.4,1.17-1.02,2.39-2.46,2.12.04.09.07.18.11.28.96-1.73,1.92-3.97,1.15-5.95-.69-1.77-2.56-2.5-4.2-3.13-1.02-.39-2.19-.75-3-1.53-.08-.08-.24-.08-.29.04-.64,1.43-1.77,2.47-2.6,3.78-1.13,1.78-1.24,3.9-1.04,5.95.12-.03.23-.06.35-.09-.92-1.29-2.31-2.32-3.96-1.91-.09.02-.17.14-.13.23.92,2.39.39,4.9-.16,7.3-.54,2.34-1.11,4.75-.59,7.15.1-.06.21-.12.31-.18-1.27-1.49-3.73-1.84-5.47-1.07-.09.04-.12.18-.07.26,2.79,3.91,3.14,9.14,3.06,13.79-.03,1.36-.1,2.72-.21,4.07.09-.05.19-.11.28-.16-2.05-1.34-4.57-1.13-6.87-.7-.24.04-.14.41.1.36,2.2-.41,4.62-.61,6.58.66.13.08.27-.03.28-.16.38-4.84.51-10.03-1.16-14.66-.43-1.2-1-2.35-1.74-3.39-.02.09-.04.17-.07.26,1.6-.71,3.86-.34,5.01,1.01.13.15.35,0,.31-.18-1.06-4.86,2.6-9.66.75-14.45-.04.08-.09.15-.13.23,1.48-.37,2.72.59,3.54,1.74.1.13.37.11.35-.09-.19-2.04-.09-4.12,1.07-5.88.82-1.25,1.9-2.27,2.52-3.66-.1,0-.2.03-.29.04.61.58,1.39.92,2.16,1.23.94.38,1.9.7,2.8,1.16.77.4,1.5.91,1.94,1.67.4.69.51,1.49.44,2.28-.11,1.35-.7,2.64-1.35,3.81-.05.1-.01.25.11.28,2.61.5,2.92-2.77,3.62-4.5.19-.46.43-.96.86-1.24.58-.39,1.5-.37,2.06.05,1.35,1,.31,2.99,1.54,4.05,1.11.96,2.95.4,4.15-.04-.06-.02-.12-.03-.18-.05,1.82,2.32,2.33,5.4,1.97,8.27-.35,2.79-1.55,5.33-3.52,7.33-1.79,1.81-4.01,3.06-5.91,4.72-.82.72-1.42,1.82-1.39,2.93.02.7.4,1.59,1.22,1.59.96,0,1.91-.91,2.59-1.49.95-.82,1.82-1.73,2.76-2.57-.1-.06-.21-.12-.31-.18-.63,3.13-1.68,6.18-3.31,8.93-.81,1.37-1.75,2.66-2.81,3.85-.89,1-2.18,1.88-2.5,3.25-.21.92-.01,2,.75,2.62.81.67,1.88.45,2.68-.12,1.14-.81,2.08-2.03,2.82-3.2.76-1.2,1.35-2.51,1.81-3.85.95-2.75,1.41-5.63,2.07-8.45.33-1.42.72-2.83,1.24-4.2.58-1.51,1.34-2.94,2.1-4.37.67-1.27,1.33-2.55,1.79-3.92.48-1.43.69-2.91.72-4.42.04-2.49-.2-5.39-1.72-7.47-.32-.43-.69-.81-1.13-1.12-.5-.35-1.05-.52-1.63-.72-1.19-.41-2.71-1.23-2.83-2.65-.13-1.47,1.23-2.87,2.45-3.47,1.31-.64,2.8-.54,3.78.6.5.58.81,1.3,1.04,2.03.05.16.25.18.34.04.47-.67.74-1.45,1.11-2.16.35-.67.82-1.41,1.62-1.56,2.13-.38,2.07,2.5,3.73,3.02.14.04.26-.1.23-.23-.36-1.5.02-3.13.61-4.52.53-1.24,1.51-2.94,2.99-3.14.77-.1,1.32.45,1.92.84.55.36,1.1.5,1.73.24.69-.28,1.17-.84,1.79-1.22.69-.42,1.77-.59,1.97.44.13.66-.1,1.36-.07,2.02.02.51.18.98.48,1.39.66.89,1.72,1.37,2.52,2.1,2.83,2.55-1.54,5.42-2.82,7.49-.64,1.04-1.1,2.31-.93,3.55.14,1.01.83,2.31,2.01,2.15.57-.08,1.23-.39,1.64-.8.23-.23.4-.5.65-.71.27-.22.58-.4.91-.51,1.11-.38,2.43-.09,3.28.72.85.82,1.22,2.07,1.02,3.22-.22,1.27-1.07,2.19-2.23,2.69-2.49,1.06-4.91,2.34-6.47,4.64-.41.61-.68,1.3-1.1,1.91-.25.37-.58.67-1.03.75-.41.08-.83,0-1.24,0-1.34.02-2.65.5-3.71,1.3s-1.84,1.89-2.23,3.16c-.42,1.37-.45,2.82-.56,4.24-.12,1.5-.35,3.06-1.32,4.26-.46.57-1.04.98-1.58,1.47-.52.47-.87,1-1.08,1.67-.5,1.57-.11,3.22-.43,4.81-.22,1.06-.8,2.03-1.38,2.93-.61.96-1.29,1.88-1.85,2.87-.43.76-.87,1.64-.81,2.54.09,1.3,1.57,2.56,2.78,1.68.6-.44,1.01-1.14,1.33-1.8.43-.89.75-1.83,1.02-2.78.57-1.99.96-4.07,1.06-6.14.03-.55.01-1.1.05-1.65.04-.53.14-1.17.8-1.17,1.03,0,.67,1.84,1.64,2.14.46.14,1.01-.14,1.28-.51.24-.34.28-.82.34-1.22.13-.99.12-2,.08-2.99-.08-2.16-.35-4.35-.14-6.51.18-1.86.89-3.74,2.83-4.35,1.44-.45,2.62,1.1,3.43,2.07.12.14.3,0,.32-.13.3-2.79,1.82-5.31,3.73-7.3,1.96-2.03,4.43-3.65,7.14-4.47,1.38-.42,2.83-.62,4.27-.46l-.19-.19c.05.67.14,1.34.26,2.01.11.61.25,1.77.93,2.05.73.3,1.44-.14,1.91-.67.69-.78,1.15-1.76,1.64-2.68.56-1.05,1.13-2.23,2.09-2.98h-.27c1.17,1.01,2.23,2.18,3.1,3.46.83,1.22,1.62,2.67,1.62,4.18,0,1.34-.51,2.63-1.34,3.66-.7.87-1.58,1.56-2.39,2.32-.87.82-1.62,1.74-1.9,2.92-.03.11.06.24.18.24,1.65-.1,3.3-.21,4.95-.4l-.19-.19c.3,4.87-2.64,9.75-6.38,12.68-.07.06-.07.21,0,.27,1.38,1.1,3.14,1.2,4.84,1.22-.05-.09-.11-.19-.16-.28-2.33,4.1-6.09,7.11-10.15,9.39-1.51.85-3.08,1.6-4.65,2.33-.52.24-1.05.48-1.56.76-.27.14-.6.3-.8.55-.44.54.29,1.08.73,1.27,1.18.51,2.5.59,3.67,1.14-.01-.1-.03-.2-.04-.29-3.66,3.05-7.76,5.58-11.99,7.76-4.24,2.18-8.69,4.04-13.3,5.29-1.14.31-2.29.58-3.45.79-.56.1-1.24.31-1.8.2-.77-.15-1.49-.52-2.14-.94-.01.11-.03.23-.04.34,3.69-1.09,7.25-2.63,10.58-4.57,3.28-1.91,6.2-4.27,9.15-6.64.75-.61,1.51-1.21,2.28-1.8.32-.25.68-.47.98-.74.19-.17.29-.38.24-.63-.11-.54-.66-.69-1.08-.41-.8.54-1.57,1.14-2.33,1.72-3,2.29-5.93,4.71-9.21,6.59-3.83,2.19-7.91,3.87-12.19,4.96.06.02.12.03.18.05-1.11-1.01-2.07-2.17-3.02-3.33-.03.1-.06.21-.08.31,4.82-1.09,9.27-3.33,13.1-6.44,1.93-1.56,3.69-3.32,5.29-5.21.79-.93,1.55-1.9,2.27-2.89.77-1.05,1.46-2.16,2.23-3.21,1.75-2.41,3.6-4.78,5.88-6.72.32-.27.54-.6.27-1-.22-.34-.63-.39-.95-.17-.53.36-1,.85-1.46,1.28-.49.46-.96.95-1.42,1.44-3.67,3.97-6.35,8.76-10.18,12.6-3.91,3.92-8.88,6.77-14.24,8.15-.66.17-1.32.32-1.99.44.06.02.12.03.18.05-.32-.39-.65-.78-.98-1.16-.03.1-.06.21-.08.31,2.81-1.17,5.34-2.98,7.31-5.3.3-.35.92-.87.7-1.39-.16-.37-.64-.57-.99-.34-.27.17-.47.5-.68.74-.28.3-.57.59-.87.87-.58.55-1.2,1.06-1.86,1.52-1.46,1.04-3.07,1.84-4.78,2.4.06.02.12.03.18.05-.63-.67-1.3-1.28-2.03-1.84.01.1.03.2.04.29,4.22-3.98,7.04-9.15,9.34-14.41,2.55-5.82,4.63-11.84,7.35-17.6.69-1.47,1.42-2.91,2.21-4.33.22-.39.46-.81.04-1.16-.3-.25-.71-.22-.96.08-.4.47-.68,1.12-.98,1.65-.32.57-.63,1.14-.92,1.72-.61,1.18-1.18,2.37-1.73,3.58-2.19,4.83-3.99,9.84-6.17,14.68-2.16,4.79-4.76,9.45-8.4,13.28-.45.48-.92.94-1.4,1.39.08,0,.15-.02.23-.03-1.07-.57-2.22-.94-3.43-1.01.06.05.12.09.18.14-2.13-5.95-2.65-12.46-1.48-18.67.15-.79.34-1.57.53-2.35.09-.38.06-.75-.34-.92-.32-.14-.69-.03-.86.29-.16.29-.21.69-.3,1-.1.39-.2.78-.29,1.17-.7,3.04-1.02,6.17-.94,9.29.09,3.54.68,7.06,1.75,10.43.04-.08.09-.15.13-.23-.63.15-1.21.4-1.77.73.09.02.17.04.26.07-2.43-5.62-3.41-11.85-3.55-17.95-.15-6.26.58-12.64,2.52-18.62.45-1.38.97-2.73,1.57-4.05.28-.62.59-1.23.91-1.83.23-.42.31-.93-.23-1.15-.58-.24-.85.32-1.08.74-.33.6-.64,1.22-.93,1.84-.6,1.28-1.12,2.59-1.58,3.93-2.01,5.87-2.86,12.14-2.87,18.33-.01,6.09.79,12.3,2.9,18.03.24.64.49,1.28.76,1.9.01-.08.02-.15.03-.23-.34.32-.64.68-.92,1.06.1,0,.2-.03.29-.04-1.1-1.18-2.1-2.46-2.91-3.86-.41-.71-.78-1.45-1.08-2.21-.15-.37-.28-.74-.4-1.12-.09-.29-.13-.67-.29-.93-.19-.31-.62-.38-.93-.2-.47.28-.28.83-.18,1.25.37,1.51.94,2.97,1.68,4.34.82,1.54,1.85,2.95,3,4.26-.01-.08-.02-.15-.03-.23-.27.49-.51.98-.73,1.49.09-.02.17-.04.26-.07-2.2-1.49-4.13-3.36-5.51-5.65-1.17-1.93-1.92-4.08-2.42-6.28-.91-4.08-.92-8.33-2.13-12.35-.65-2.15-1.7-4.14-3.29-5.74-.13-.19-.4.08-.23.25Z"/>
      <g>
        <path d="m3.93,28.06c1.3,1.83,2.04,3.98,2.48,6.17.02.11.18.18.28.11,1.43-1,3.26-1.31,4.93-.77.15.05.25-.1.23-.23-.5-3.05.56-6.26,2.75-8.42-.1-.06-.21-.12-.31-.18-.27,1.52-.06,3.08.66,4.45.08.15.3.11.34-.04.94-3.42,3.29-6.38,6.36-8.15.87-.5,1.8-.9,2.76-1.19-.08-.08-.15-.15-.23-.23-1.32,3.67-1.45,7.62-1.29,11.48.04,1.11.11,2.23.18,3.34.01.21.31.26.37.05,1.08-3.84,2.54-7.81,5.76-10.37.84-.67,1.79-1.21,2.8-1.56-.07-.09-.14-.18-.21-.28-1.84,3.88-2.6,8.24-2.17,12.52.01.12.16.26.28.16,2.29-1.7,4.66-3.38,6.17-5.86,1.6-2.63,2.18-5.93,1.7-8.97-.27-1.74-.94-3.39-2.03-4.78-.04-.05-.13-.07-.18-.05-.65.24-1.33.45-2.03.51-.59.05-1.28.03-1.76-.37-.63-.53-.54-1.34-.61-2.08-.07-.72-.32-1.47-.9-1.94-.95-.78-2.43-.54-3.12.44-.64.91-.84,2.09-1.2,3.13-.19.56-.43,1.15-.84,1.58-.43.44-.99.54-1.58.43.04.09.07.18.11.28.97-1.74,1.93-4,1.14-5.99-.7-1.76-2.6-2.48-4.24-3.12-1.01-.39-2.15-.74-2.94-1.51-.08-.08-.24-.08-.29.04-.5,1.12-1.29,2.01-2.02,2.97-.8,1.03-1.36,2.17-1.57,3.47-.18,1.09-.15,2.19-.05,3.29.12-.03.23-.06.35-.09-.91-1.28-2.32-2.33-3.96-1.91-.09.02-.17.14-.13.23,1.43,3.7-.54,7.55-.91,11.26-.1,1.07-.07,2.14.16,3.19.1-.06.21-.12.31-.18-1.26-1.49-3.74-1.84-5.47-1.07-.22.1-.03.42.19.32,1.59-.71,3.87-.34,5.01,1.01.13.15.35,0,.31-.18-.85-3.86,1.23-7.54,1.28-11.37.01-1.05-.15-2.1-.53-3.08-.04.08-.09.15-.13.23,1.47-.37,2.73.6,3.54,1.74.1.14.37.11.35-.09-.16-1.67-.15-3.45.57-5,.48-1.03,1.26-1.86,1.94-2.76.42-.55.79-1.14,1.07-1.77-.1,0-.2.03-.29.04.62.6,1.44.94,2.23,1.26.95.38,1.93.71,2.83,1.19.75.4,1.44.92,1.86,1.67.39.69.48,1.49.41,2.28-.12,1.34-.7,2.61-1.35,3.76-.05.1-.01.25.11.28,2.65.52,2.92-2.87,3.66-4.59.19-.44.43-.9.84-1.17.56-.37,1.43-.35,1.99.02.7.48.89,1.39.9,2.18.01.67.14,1.39.66,1.87,1.1,1.01,2.98.45,4.2,0-.06-.02-.12-.03-.18-.05,1.91,2.42,2.39,5.69,1.92,8.67-.23,1.48-.7,2.94-1.43,4.25-.68,1.21-1.58,2.27-2.6,3.21-1.14,1.05-2.4,1.95-3.64,2.87.09.05.19.11.28.16-.42-4.21.3-8.5,2.12-12.33.06-.13-.04-.33-.21-.28-3.87,1.36-6.27,4.94-7.67,8.62-.45,1.17-.82,2.37-1.15,3.58.12.02.25.03.37.05-.24-3.85-.48-7.77.25-11.59.2-1.06.48-2.11.85-3.13.05-.14-.1-.27-.23-.23-3.5,1.05-6.51,3.55-8.24,6.76-.49.9-.87,1.85-1.14,2.84.11,0,.23-.03.34-.04-.66-1.28-.87-2.75-.62-4.16.03-.18-.17-.32-.31-.18-2.3,2.27-3.37,5.6-2.85,8.79.08-.08.15-.15.23-.23-1.75-.57-3.71-.24-5.22.81.09.04.18.07.28.11-.44-2.22-1.19-4.4-2.51-6.26-.18-.23-.51-.04-.37.16Z"/>
        <path d="m36.03,13.45c2.55.79,3.41,3.71,3.69,6.08.17,1.39.2,2.83.06,4.22-.09.87-.27,1.73-.53,2.57-.12.39-.26.77-.41,1.15-.07.17-.17.34-.22.51-.05.18-.02.39-.01.58.07,2.18.34,4.34.53,6.51.02.2.31.27.37.05.6-2.34.91-4.74,1.4-7.1.5-2.43,1.13-4.91,2.45-7.04.7-1.13,1.61-2.13,2.74-2.85-.09-.09-.17-.17-.26-.26-1.97,2.85-2.58,6.54-1.6,9.86.05.17.32.19.36,0,.4-1.71,1.61-3.15,3.22-3.85-.09-.04-.18-.07-.28-.11.51,1.83.37,3.79-.41,5.52-.06.13.04.34.21.28,3.23-1.32,2.65-5.38,4.23-7.91h-.32c.71,1.32.79,2.86.84,4.33.04,1.45.01,2.95.4,4.36.2.72.53,1.4,1.03,1.97.04.05.12.06.18.05.41-.1.83-.16,1.25-.16.39,0,.78.07,1.17,0,.61-.08,1.06-.48,1.39-.98.35-.54.6-1.14.95-1.68.34-.53.74-1.03,1.19-1.48.85-.86,1.85-1.55,2.92-2.11.54-.29,1.09-.55,1.64-.79.52-.23,1.07-.41,1.54-.74,1.64-1.15,2.1-3.45,1.13-5.19-.95-1.71-3.27-2.42-4.97-1.38-.21.13-.41.28-.58.45-.23.22-.4.51-.66.7-.44.32-1.1.67-1.66.56-.53-.11-.91-.83-1.07-1.3-.18-.54-.19-1.12-.1-1.67.21-1.2.84-2.32,1.65-3.23.95-1.07,2.14-2.1,2.72-3.44.46-1.09.37-2.24-.44-3.13-.67-.74-1.59-1.2-2.33-1.86-.34-.31-.65-.67-.79-1.12-.17-.56-.06-1.15-.01-1.72.04-.5.06-1.06-.24-1.49-.32-.46-.86-.6-1.39-.5-.63.12-1.14.52-1.63.91-.53.43-1.28,1.01-2,.69-.56-.25-.99-.72-1.54-.97-.47-.22-1.01-.22-1.49-.04-1.17.43-1.99,1.55-2.53,2.62-.58,1.12-.96,2.37-1.06,3.63-.04.59-.01,1.19.13,1.77.08-.08.15-.15.23-.23-.69-.21-1.05-1.02-1.4-1.58s-.74-1.18-1.42-1.37c-.64-.18-1.33-.13-1.89.27-.52.38-.86.96-1.15,1.52-.34.68-.6,1.41-1.04,2.03.11,0,.23.03.34.04-.33-1.07-.87-2.16-1.82-2.81-.91-.62-2.07-.62-3.08-.25-1.85.69-4,3.07-2.74,5.11.66,1.06,1.94,1.64,3.11,1.99.23.07.33-.29.1-.36-1.69-.51-3.9-1.81-3.01-3.9.77-1.8,3.22-3.5,5.17-2.45,1.02.55,1.56,1.68,1.89,2.74.05.16.25.18.34.04.71-1.01.95-2.36,1.85-3.24.5-.49,1.14-.59,1.8-.41.66.19,1.01.9,1.35,1.45.36.59.76,1.29,1.47,1.51.14.04.26-.1.23-.23-.3-1.23-.08-2.55.31-3.73.39-1.19,1-2.39,1.94-3.24.44-.39,1-.73,1.61-.71.6.02,1.06.45,1.53.77.48.33.96.57,1.56.42.62-.15,1.12-.58,1.6-.97.47-.38,1.13-.83,1.77-.69.66.15.74.85.71,1.41s-.15,1.12-.07,1.68c.06.42.23.8.49,1.14,1.16,1.5,3.94,2.15,3.34,4.54-.36,1.45-1.62,2.54-2.58,3.6-.78.85-1.43,1.8-1.8,2.91-.31.96-.39,2.03.04,2.96.2.42.54.94.98,1.14.45.21,1,.07,1.44-.11.23-.1.45-.22.66-.36.24-.16.38-.34.56-.56.35-.41.8-.74,1.32-.91.92-.31,1.95-.16,2.77.35,1.7,1.05,2.03,3.53.88,5.1-.67.91-1.73,1.23-2.71,1.68-1.04.48-2.06,1.02-2.99,1.71-.9.67-1.69,1.47-2.33,2.4-.37.54-.64,1.12-.97,1.69-.36.62-.82,1.05-1.57,1.05-.35,0-.7-.05-1.05-.03-.37.02-.74.08-1.11.16.06.02.12.03.18.05-.94-1.08-1.16-2.54-1.24-3.92-.09-1.48-.03-2.97-.25-4.44-.12-.77-.33-1.53-.71-2.23-.07-.13-.25-.12-.32,0-.8,1.28-1.03,2.8-1.44,4.23-.42,1.46-1.07,2.9-2.56,3.52.07.09.14.18.21.28.82-1.82.99-3.88.45-5.81-.04-.13-.17-.16-.28-.11-1.69.74-2.97,2.28-3.39,4.08h.36c-.95-3.23-.35-6.81,1.57-9.58.11-.16-.1-.35-.26-.26-2.07,1.32-3.34,3.47-4.17,5.73-.89,2.43-1.32,5.01-1.78,7.55-.24,1.32-.47,2.64-.8,3.94.12.02.25.03.37.05-.18-2.01-.42-4.02-.51-6.04-.01-.24-.02-.47-.03-.71-.01-.21.03-.28.11-.47.17-.4.33-.81.47-1.23.27-.82.47-1.67.57-2.53.19-1.5.15-3.06-.02-4.56-.16-1.33-.45-2.67-1.07-3.86-.62-1.2-1.59-2.17-2.9-2.58-.21-.08-.31.28-.08.35Z"/>
        <path d="m63.64,66.36s-.02.02.01,0c.01,0,.02-.03.06-.07.08-.07.15-.12.26-.19.31-.2.64-.36.97-.52,1.07-.52,2.15-1,3.21-1.52,3.08-1.52,6.05-3.32,8.58-5.66,1.62-1.5,3.04-3.22,4.13-5.14.07-.12-.02-.28-.16-.28-1.58,0-3.29-.07-4.57-1.11v.27c3.05-2.38,5.41-5.93,6.23-9.72.23-1.06.33-2.14.26-3.22-.01-.09-.08-.2-.19-.19-1.64.19-3.3.3-4.95.4l.18.24c.56-2.31,2.92-3.45,4.3-5.21.8-1.03,1.27-2.24,1.35-3.55.09-1.48-.59-2.93-1.36-4.15-.94-1.5-2.13-2.86-3.47-4.01-.08-.07-.18-.07-.27,0-.76.59-1.27,1.46-1.73,2.28-.5.89-.93,1.81-1.49,2.67-.36.56-.91,1.38-1.68,1.36-.34,0-.5-.13-.65-.43-.18-.38-.28-.81-.36-1.22-.14-.7-.24-1.41-.29-2.13-.01-.11-.08-.18-.19-.19-3.68-.41-7.4,1.37-10.17,3.66-.58.48-.9,1.25-1.18,1.94-.3.74-.52,1.51-.7,2.29-.39,1.68-.6,3.4-.85,5.11-.25,1.72-.49,3.52-1.19,5.13-.05.12,0,.29.16.28,3.88-.31,8.2-.44,11.56-2.66.92-.61,1.72-1.39,2.35-2.31-.12-.03-.23-.06-.35-.09-.41,3.24-.77,6.76-2.52,9.6-.48.77-1.06,1.46-1.77,2.04-.17.14.05.39.23.29,1.04-.54,2.55-.5,3.49.23-.03-.07-.06-.14-.09-.21-1.25,3.73-2.83,7.35-4.67,10.82-1.95,3.66-4.22,7.18-6.86,10.39-1.45,1.76-3.02,3.43-4.72,4.96-.17.15.05.38.23.29,3.72-1.84,7.32-3.94,10.66-6.4.87-.64,1.72-1.3,2.55-1.99.09-.07.07-.25-.04-.29-.86-.4-1.79-.59-2.7-.83-.41-.09-1.63-.3-1.6-.95.01-.24-.36-.24-.38,0-.04.75.9,1.04,1.47,1.22,1.01.3,2.09.46,3.05.92-.01-.1-.03-.2-.04-.29-3.07,2.55-6.45,4.73-9.95,6.66-1.05.58-2.11,1.13-3.19,1.67.08.1.15.2.23.29,3.07-2.76,5.71-5.98,8.02-9.4,2.32-3.45,4.32-7.12,5.99-10.93.87-1.97,1.65-3.97,2.33-6.01.03-.09-.02-.16-.09-.21-1.05-.81-2.72-.82-3.87-.23.08.1.15.2.23.29,2.66-2.17,3.5-5.8,4-9.03.15-.95.27-1.91.39-2.87.03-.2-.26-.23-.35-.09-2.29,3.39-6.75,4.17-10.53,4.53-1.02.1-2.03.17-3.05.25.05.09.11.19.16.28.58-1.35.85-2.81,1.08-4.25.26-1.66.45-3.34.76-4.99.29-1.53.68-3.1,1.45-4.46.08-.14.16-.3.26-.43.16-.2.42-.37.63-.53.39-.3.79-.59,1.2-.86.79-.52,1.63-.98,2.5-1.36,1.83-.81,3.87-1.28,5.88-1.05l-.19-.19c.05.66.13,1.32.25,1.97.09.47.19.94.37,1.38.12.28.27.58.57.7.76.3,1.47-.17,1.96-.73.68-.79,1.14-1.77,1.63-2.68.55-1.03,1.12-2.18,2.06-2.92h-.27c1.16,1,2.21,2.15,3.08,3.42.83,1.21,1.63,2.66,1.65,4.17.02,1.31-.46,2.59-1.26,3.61-.7.9-1.6,1.61-2.43,2.38-.88.83-1.66,1.77-1.95,2.97-.03.11.05.24.18.24,1.65-.1,3.3-.21,4.95-.4l-.19-.19c.24,3.85-1.6,7.66-4.09,10.5-.7.79-1.46,1.53-2.3,2.18-.07.06-.07.21,0,.27,1.38,1.11,3.14,1.2,4.84,1.22-.05-.09-.11-.19-.16-.28-1.94,3.42-4.9,6.1-8.17,8.2-2.41,1.54-4.99,2.71-7.56,3.95-.37.18-.75.36-1.09.58-.2.13-.42.29-.45.55,0,.22.36.22.39-.02Z"/>
        <path d="m3.74,52.66c.66,3.04.85,6.16,1.41,9.22.59,3.25,1.64,6.43,3.63,9.1,1.31,1.76,2.94,3.23,4.75,4.45.08.05.22.02.26-.07.22-.51.46-1.01.73-1.49.04-.08.03-.16-.03-.23-1.84-2.09-3.35-4.5-4.22-7.15-.11-.33-.21-.67-.29-1-.04-.15-.08-.31-.11-.46-.03-.15-.12-.35-.07-.5.06-.17.29-.24.44-.16.11.06.13.17.16.29.06.2.11.4.18.61.4,1.28.97,2.52,1.66,3.67.8,1.34,1.76,2.57,2.83,3.71.09.09.23.06.29-.04.26-.36.54-.69.86-.99.07-.06.06-.15.03-.23-1.59-3.67-2.54-7.61-3.08-11.57-.58-4.24-.68-8.54-.36-12.81.18-2.41.5-4.81.97-7.18.04-.2-.23-.34-.34-.14-2.16,3.86-4.38,7.84-5.2,12.24-.22,1.21-.33,2.44-.31,3.67.12-.03.23-.06.35-.09-1.2-2-2-4.21-2.36-6.52-.02-.13-.23-.19-.31-.08-.85,1.1-1.48,2.33-1.87,3.66-.07.23.29.33.36.1.38-1.26.97-2.45,1.78-3.5-.1-.03-.21-.06-.31-.08.36,2.34,1.19,4.58,2.4,6.61.09.16.35.09.35-.09-.09-4.43,1.65-8.61,3.67-12.46.58-1.1,1.18-2.18,1.78-3.26-.11-.05-.23-.1-.34-.14-.84,4.26-1.22,8.61-1.15,12.95.06,4.24.54,8.49,1.56,12.61.53,2.15,1.22,4.25,2.1,6.28.01-.08.02-.15.03-.23-.34.32-.64.68-.92,1.06.1,0,.2-.03.29-.04-1.08-1.15-2.05-2.4-2.85-3.77-.41-.69-.77-1.42-1.08-2.16-.13-.32-.26-.65-.37-.98-.12-.36-.18-.77-.34-1.11-.17-.37-.63-.5-.98-.28-.5.31-.24.97-.12,1.42.37,1.47.94,2.88,1.66,4.21.82,1.52,1.83,2.92,2.97,4.21-.01-.08-.02-.15-.03-.23-.27.49-.51.98-.73,1.49.09-.02.17-.04.26-.07-3.06-2.07-5.48-4.88-6.85-8.33-1.17-2.94-1.58-6.09-1.99-9.21-.22-1.68-.43-3.36-.79-5.01-.05-.24-.41-.14-.36.1Z"/>
        <path d="m17.44,70.65c.53-.31,1.08-.54,1.68-.69.1-.02.16-.14.13-.23-1.83-5.7-2.24-11.84-1.18-17.73.13-.73.28-1.46.46-2.18.08-.33.17-.66.26-.99.06-.22.11-.76.36-.85.18-.06.38.06.41.24.02.14-.06.3-.09.44-.06.22-.11.44-.16.66-.16.7-.31,1.4-.43,2.11-.49,2.87-.63,5.79-.42,8.69.23,3.26.9,6.49,2.01,9.57.03.08.09.13.18.14,1.15.06,2.24.41,3.24.95.08.04.16.03.23-.03,2.71-2.53,4.94-5.51,6.8-8.71,1.85-3.19,3.35-6.58,4.77-9.98.22-.52.43-1.01.54-1.56.11-.57.19-1.14.23-1.71.08-1.15-.01-2.3-.33-3.41-.04-.14-.27-.2-.34-.04-1.54,3.42-3.17,6.83-5.28,9.94-.6.88-1.24,1.74-1.93,2.55.1.06.21.12.31.18.38-1.53.37-3.15.23-4.71-.01-.15-.2-.26-.32-.13-.64.68-1.4,1.56-2.38,1.69-.64.09-1.23-.24-1.55-.79-.36-.6-.38-1.35-.17-2.01.13-.41.36-.79.66-1.11.19-.21.41-.4.61-.6.07-.07.17-.14.21-.23.05-.12,0-.3-.01-.43-.13-1.41-.43-2.79-.88-4.13-.06-.18-.3-.17-.36,0-.66,1.79-1.89,3.33-3.48,4.38.09.07.18.14.28.21.74-3.26,1.49-6.51,2.23-9.77.04-.2-.24-.34-.34-.14-1.19,2.38-2.86,4.49-4.89,6.21.11.04.21.09.32.13-.26-2.5.08-5.02,1.02-7.36.06-.15-.15-.31-.28-.21-2.2,1.69-3.79,4.09-4.46,6.78h.36c-.36-1.22-.73-2.43-1.09-3.65-.05-.16-.33-.19-.36,0-.56,3.86-.75,7.77-.57,11.66.17,3.77.68,7.53,1.64,11.18.5,1.91,1.13,3.79,1.92,5.61.1.22.42.03.32-.19-1.41-3.26-2.31-6.73-2.87-10.23-.6-3.78-.8-7.62-.67-11.44.08-2.17.27-4.34.58-6.49h-.36c.36,1.22.73,2.43,1.09,3.65.05.17.32.18.36,0,.65-2.59,2.17-4.93,4.29-6.55-.09-.07-.18-.14-.28-.21-.95,2.36-1.3,4.93-1.03,7.46.02.17.19.24.32.13,2.06-1.73,3.75-3.87,4.95-6.28-.11-.05-.23-.1-.34-.14-.74,3.26-1.49,6.51-2.23,9.77-.03.15.13.31.28.21,1.68-1.1,2.96-2.71,3.65-4.6h-.36c.23.68.42,1.37.57,2.07.07.31.12.62.17.94.06.38.15.81.14,1.19-.01.27-.41.52-.59.7-.17.17-.32.35-.45.55-.24.35-.41.75-.5,1.16-.28,1.33.46,3.06,2.03,2.98,1.16-.06,2.04-1.03,2.78-1.81-.11-.04-.21-.09-.32-.13.14,1.53.15,3.11-.22,4.61-.04.17.19.33.31.18,2.46-2.88,4.29-6.25,5.93-9.65.46-.96.91-1.94,1.35-2.91-.11,0-.23-.03-.34-.04.29.98.39,2,.34,3.02-.03.54-.09,1.07-.18,1.61-.04.24-.08.48-.14.72-.06.24-.17.47-.27.7-.7,1.68-1.41,3.36-2.18,5.01-1.51,3.26-3.23,6.45-5.37,9.34-1.23,1.66-2.6,3.21-4.11,4.61.08,0,.15-.02.23-.03-1.07-.57-2.22-.95-3.43-1.01.06.05.12.09.18.14-2.12-5.89-2.64-12.35-1.51-18.51.14-.74.3-1.48.48-2.22.11-.44.28-.95-.24-1.2-.35-.17-.75-.03-.91.32-.14.31-.21.69-.29,1.02-.1.39-.2.77-.29,1.16-.7,3.02-1.01,6.14-.93,9.24.09,3.54.68,7.05,1.75,10.42.04-.08.09-.15.13-.23-.62.15-1.21.4-1.77.73-.23.09-.04.41.16.29Z"/>
        <path d="m25.24,71.65c.7.54,1.35,1.14,1.96,1.78.04.05.12.07.18.05,2.57-.84,4.95-2.24,6.91-4.11.24-.22.46-.45.69-.69.12-.12.23-.25.35-.38.11-.12.22-.31.37-.39.26-.13.51.16.4.4-.06.14-.23.3-.33.42-.12.14-.24.29-.36.43-.9,1.05-1.93,2-3.04,2.83-1.24.92-2.6,1.69-4.03,2.28-.13.06-.18.2-.08.31.33.39.66.77.98,1.16.04.05.12.06.18.05,2.38-.45,4.7-1.18,6.91-2.16,1.13-.5,2.23-1.07,3.3-1.71.98-.58,2-1.18,2.84-1.97,3.43-3.22,6.15-7.14,8.45-11.22,1.29-2.29,2.45-4.66,3.53-7.06.1-.22-.18-.38-.32-.19-3.06,4.09-6.19,8.24-10.18,11.48-1.14.92-2.35,1.76-3.62,2.49.08.1.15.2.23.29,1.36-1.25,2.59-2.64,3.58-4.21,1.03-1.61,1.78-3.38,2.27-5.22.32-1.18.52-2.38.66-3.59.02-.22-.31-.24-.37-.05-.29.96-.64,1.9-1.08,2.8-.19.41-.5.83-.61,1.26-.12.47-.23.95-.37,1.42-.25.88-.55,1.75-.95,2.57-.29.61-.65,1.27-1.2,1.68-.59.44-1.2.24-1.68-.26-.07-.08-.19-.07-.27,0-1.27,1.1-2.67,2.03-4.17,2.79.09.09.17.17.26.26,2.21-3.41,3.91-7.14,5.01-11.04.32-1.12.58-2.25.81-3.39.04-.19-.25-.35-.34-.14-1.44,3.41-3.09,6.88-5.74,9.53-.75.76-1.58,1.43-2.49,2,.08.1.15.2.23.29,3.03-3.07,5.11-7.04,5.93-11.28.23-1.18.36-2.39.39-3.59.01-.22-.3-.24-.37-.05-1.15,3.21-2.59,6.51-4.88,9.07-.28.31-.63.58-.89.9-.12.14-.18.36-.25.53-.1.23-.21.45-.31.68-.41.88-.84,1.76-1.28,2.63-.89,1.71-1.86,3.38-2.95,4.97-1.25,1.82-2.68,3.52-4.28,5.04-.18.17.09.43.27.27,2.85-2.69,5.08-5.94,6.92-9.38.47-.87.91-1.76,1.34-2.66.21-.45.42-.9.63-1.35.09-.19.15-.41.3-.55.17-.16.33-.32.49-.49,1.22-1.29,2.2-2.8,3.02-4.37.88-1.67,1.6-3.41,2.24-5.18-.12-.02-.25-.03-.37-.05-.11,4.22-1.49,8.37-3.9,11.83-.69.99-1.47,1.91-2.31,2.77-.15.15.04.41.23.29,3.24-2.04,5.38-5.32,7.03-8.7.48-.98.91-1.97,1.34-2.97-.11-.05-.23-.1-.34-.14-.77,3.97-2.13,7.82-4.04,11.39-.54,1.01-1.12,1.99-1.75,2.95-.11.17.1.34.26.26,1.53-.76,2.95-1.72,4.24-2.84h-.27c.42.43,1,.75,1.61.58.6-.17,1.04-.71,1.38-1.21.49-.75.83-1.6,1.13-2.44.17-.5.33-1.01.47-1.52.07-.25.14-.51.2-.77.08-.32.23-.59.38-.89.56-1.09,1.01-2.23,1.36-3.4-.12-.02-.25-.03-.37-.05-.23,2.02-.68,4.03-1.46,5.91-.7,1.67-1.66,3.23-2.82,4.62-.66.79-1.37,1.52-2.12,2.22-.16.15.04.4.23.29,4.54-2.6,8.09-6.53,11.28-10.61.9-1.15,1.78-2.32,2.66-3.49-.11-.06-.22-.13-.32-.19-1.89,4.23-4.05,8.36-6.73,12.14-1.34,1.9-2.81,3.7-4.46,5.34-.39.39-.77.8-1.21,1.13-.5.37-1.02.71-1.54,1.04-1.02.64-2.07,1.23-3.15,1.75-2.44,1.18-5.04,2.03-7.71,2.53.06.02.12.03.18.05-.32-.39-.65-.78-.98-1.16-.03.1-.06.21-.08.31,2.79-1.16,5.3-2.95,7.26-5.25.23-.27.47-.53.67-.82.13-.19.17-.41.08-.63-.2-.47-.78-.56-1.13-.21-.53.54-1,1.12-1.56,1.63-.57.52-1.17,1-1.8,1.44-1.44,1-3.01,1.79-4.68,2.33.06.02.12.03.18.05-.63-.67-1.3-1.28-2.03-1.84-.23-.12-.42.21-.23.35Z"/>
        <path d="m30.34,77.11c.85,1.03,1.7,2.06,2.66,2.99.14.13.31.39.52.39.14,0,.33-.08.47-.12.17-.04.33-.09.5-.13.65-.18,1.29-.37,1.92-.57,2.46-.79,4.86-1.78,7.16-2.95,1.35-.69,2.67-1.44,3.95-2.26.18-.11.07-.4-.14-.34-.64.16-1.28.3-1.93.39.05.11.1.23.14.34,4.39-3.22,7.83-7.48,10.42-12.24.77-1.41,1.46-2.85,2.11-4.32.08-.18-.15-.41-.29-.23-2.66,3.3-5.46,6.58-8.84,9.17-.85.65-1.74,1.25-2.67,1.78-.45.26-.92.5-1.39.72-.24.11-.48.22-.73.31-.21.08-.46.14-.65.26-.23.14-.43.35-.64.51-.24.19-.49.38-.74.56-.45.34-.91.66-1.38.97-.94.63-1.91,1.2-2.91,1.73-2.35,1.23-4.86,2.14-7.45,2.72-.24.05-.14.41.1.36,4.56-1.02,8.8-3.09,12.49-5.95.22-.17.43-.34.64-.51.21-.16.48-.23.73-.33.47-.19.92-.4,1.37-.63.98-.5,1.91-1.08,2.8-1.72,1.79-1.29,3.42-2.78,4.94-4.37,1.63-1.7,3.14-3.5,4.61-5.33-.1-.08-.2-.15-.29-.23-2.18,4.96-5.02,9.68-8.93,13.49-1.09,1.06-2.25,2.04-3.47,2.93-.18.13-.07.37.14.34.65-.09,1.29-.23,1.93-.39-.05-.11-.1-.23-.14-.34-3.34,2.12-6.94,3.83-10.7,5.07-1.05.35-2.12.65-3.19.93.06.02.12.03.18.05-1.11-1.01-2.07-2.17-3.02-3.33-.17-.17-.43.1-.28.28Z"/>
        <path d="m34.89,81.62c.7.46,1.47.81,2.29.99.34.07.66,0,1-.06.4-.06.81-.13,1.21-.21,1.71-.33,3.4-.77,5.06-1.29.91-.29,1.82-.59,2.72-.92.42-.15.85-.31,1.27-.48.18-.07.38-.13.54-.23.17-.11.33-.27.48-.4,1.24-1.07,2.37-2.26,3.37-3.55,1.12-1.44,2.08-3,2.85-4.65.08-.16-.08-.35-.26-.26-.7.39-1.4.77-2.12,1.14l-.96.48c-.33.16-.7.29-1.01.48-.33.21-.62.49-.93.72-.32.25-.65.49-.98.73-.59.44-1.2.86-1.81,1.27-2.5,1.65-5.19,3.06-7.96,4.21-1.55.64-3.13,1.2-4.74,1.67-.23.07-.13.43.1.36,5.79-1.71,11.17-4.52,15.95-8.2.35-.27.68-.5,1.08-.69s.79-.38,1.18-.58c.8-.41,1.59-.84,2.38-1.28-.09-.09-.17-.17-.26-.26-1.34,2.85-3.23,5.43-5.55,7.56-.28.26-.57.51-.86.76-.34.28-.79.4-1.2.55-.87.33-1.74.64-2.62.93-1.58.52-3.18.97-4.81,1.33-.84.18-1.69.34-2.54.47-.92.13-1.96-.46-2.71-.94-.17-.1-.36.22-.16.35Z"/>
      </g>
    </g>
  </g>
</svg>