<?xml version="1.0" encoding="UTF-8"?>
<svg id="Layer_2" data-name="Layer 2" xmlns="http://www.w3.org/2000/svg" viewBox="0 0 33.55 48.23">
  <g id="Layer_1-2" data-name="Layer 1">
    <g>
      <path d="m5.73,4.6c.84-1.17,2.4-1.53,3.75-1.18.67.17,1.3.52,1.77,1.03.56.61.98,1.39,1.34,2.13.81,1.65,1.3,3.44,1.69,5.22.21.94.38,1.89.55,2.84.08.46.16.91.24,1.37.08.45.5.83.76,1.2.14.2.27.4.4.6.11.18.14.27.35.29.27.03.56.02.83-.07.25-.09.46-.25.63-.46.17-.22.48-.62.48-.9,0-.21-.1-.45-.15-.66-.06-.25-.11-.5-.17-.74-.1-.46-.2-.93-.31-1.39-.22-.97-.44-1.94-.68-2.91-.47-1.89-1.04-3.76-1.8-5.55-.7-1.63-1.51-3.15-2.98-4.2C11.05.23,9.41-.14,7.73.05c-1.79.2-3.43.87-5.05,1.61-.39.18-.79.36-1.19.53-.05.02-.1.1-.09.16.21,1.98.07,4-.21,5.96-.02.15.08.26.23.23,3.64-.63,7.35-.74,11.04-.86.12,0,.22-.12.18-.24-.42-1.42-1.22-2.9-2.59-3.6-1.47-.75-3.23-.35-4.57.49-.2.13-.02.45.19.32,1.24-.78,2.9-1.19,4.26-.45,1.24.67,1.96,2.03,2.34,3.34.06-.08.12-.16.18-.24-3.72.12-7.46.24-11.14.87l.23.23c.28-2,.43-4.05.22-6.06-.03.05-.06.11-.09.16C3.45,1.72,5.19.83,7.12.5c.98-.17,1.99-.22,2.96.03.89.22,1.72.65,2.44,1.22,1.57,1.27,2.36,3.23,3.05,5.08.73,1.99,1.26,4.05,1.73,6.11.26,1.16.51,2.32.77,3.48.03.14.06.22,0,.35-.05.11-.11.21-.17.31-.11.17-.23.34-.4.46-.29.21-.67.19-1.01.16.05.03.11.06.16.09-.23-.38-.48-.75-.74-1.11-.11-.15-.23-.3-.34-.45-.16-.24-.18-.49-.23-.77-.14-.81-.28-1.62-.43-2.43-.3-1.57-.66-3.15-1.18-4.66-.48-1.4-1.11-2.79-2.03-3.97-.7-.9-1.77-1.4-2.89-1.49-1.31-.11-2.63.4-3.41,1.48-.13.22.19.4.33.21Z"/>
      <g>
        <path d="m10.74,48.13c3.14.35,6.35-.22,9.2-1.59,2.82-1.35,5.28-3.49,6.9-6.18,1.49-2.46,2.19-5.3,2.2-8.16.01-2.74-.58-5.62-2.11-7.93-.73-1.1-1.69-2.05-2.83-2.73-.3-.17-.6-.33-.92-.47-.19-.08-.26-.06-.45.01-.24.09-.48.16-.72.23-1,.26-2.06.32-3.08.12-.52-.1-1.03-.27-1.52-.5-.15-.07-.32.04-.28.21.44,1.81-.36,3.52-1.14,5.11-.76,1.54-1.61,3.14-1.53,4.91.11-.04.21-.09.32-.13-1.01-1.22-1.81-2.67-2.25-4.2-.43-1.48-.51-3.16.28-4.54.49-.85,1.27-1.47,2.14-1.9.14-.07.11-.32-.04-.34-.55-.09-1.11-.16-1.68-.15-.25,0-.39-.01-.57.15-.25.22-.5.43-.78.62-.8.56-1.69.96-2.64,1.18-1.58.38-3.25.33-4.75,1.01-.39.18-.79.4-1.12.68-.22.18-.4.42-.58.64-.37.46-.7.95-.99,1.46-.61,1.07-1.04,2.24-1.33,3.44-.62,2.55-.61,5.24-.1,7.8.51,2.56,1.54,5.06,3.17,7.11,1.57,1.97,3.74,3.44,6.23,3.96.32.09.65.14.97.18.24.03.24-.35,0-.38-2.48-.3-4.71-1.52-6.38-3.36-1.71-1.87-2.81-4.24-3.42-6.67-.62-2.47-.75-5.1-.3-7.61.21-1.19.56-2.36,1.07-3.45.25-.53.53-1.03.85-1.52.31-.46.67-1,1.11-1.34,1.29-1.01,2.95-1.11,4.51-1.35.84-.12,1.66-.31,2.44-.64.43-.18.84-.4,1.23-.65.18-.12.36-.25.53-.38.2-.15.43-.45.68-.49.55-.08,1.21.06,1.75.14-.01-.11-.03-.23-.04-.34-1.59.79-2.68,2.17-2.89,3.95-.2,1.69.33,3.42,1.09,4.91.43.84.95,1.64,1.55,2.37.1.13.33.02.32-.13-.17-3.63,3.56-6.39,2.66-10.12-.09.07-.18.14-.28.21,1.72.8,3.66.86,5.45.24.25-.08.33-.1.56.01.16.08.32.16.48.24.28.16.56.33.82.52.53.38,1.01.84,1.44,1.34,1.75,2.06,2.52,4.84,2.67,7.49.16,2.73-.3,5.52-1.53,7.98-1.38,2.78-3.63,5.05-6.32,6.58s-5.81,2.3-8.91,2.17c-.38-.02-.76-.05-1.14-.09-.24-.03-.23.35,0,.37Z"/>
        <path d="m17.13,21.17c.43,1.81-.36,3.52-1.15,5.11-.76,1.54-1.61,3.14-1.53,4.91.11-.04.21-.09.32-.13-1.03-1.23-1.83-2.7-2.27-4.24-.41-1.47-.49-3.12.3-4.48.5-.86,1.28-1.48,2.17-1.92.14-.07.11-.25,0-.32-2.66-1.9-3.77-5.53-2.41-8.54h-.32c.73,1.68,1.71,3.18,2.81,4.64.9,1.19,1.7,2.38,2.13,3.82.04.14.21.18.31.08,1.51-1.38,3.4-2.14,5.27-2.9,1.92-.79,3.78-1.65,5.34-3.05-.11-.04-.21-.09-.32-.13.47,3.89-3.35,7.23-6.98,7.55-1.16.1-2.33-.09-3.39-.59-.22-.1-.41.22-.19.32,3.86,1.79,8.72-.35,10.43-4.16.44-.98.64-2.05.51-3.12-.02-.16-.19-.25-.32-.13-1.61,1.44-3.55,2.29-5.53,3.1-1.81.74-3.61,1.52-5.08,2.85.1.03.21.06.31.08-.43-1.45-1.22-2.66-2.12-3.85-1.12-1.48-2.11-2.99-2.86-4.7-.05-.12-.27-.12-.32,0-1.45,3.21-.3,7.03,2.55,9.06v-.32c-1.59.78-2.69,2.15-2.91,3.93-.21,1.69.32,3.42,1.07,4.92.43.85.96,1.65,1.57,2.39.1.12.33.02.32-.13-.17-3.63,3.56-6.39,2.66-10.12-.06-.27-.42-.17-.37.07Z"/>
        <path d="m19.83,18.48c.46-.24.92-.46,1.4-.67.28-.12.56-.24.84-.35.14-.06.35-.09.44-.22.11-.15.13-.45.17-.62.04-.2.07-.4.1-.6.05-.41.05-.82.02-1.23-.05-.78-.2-1.55-.25-2.33-.06-.89.06-1.75.39-2.58.05-.13-.1-.28-.23-.23-1.3.5-2.38,1.42-3.03,2.66-.62,1.18-.83,2.56-.69,3.88.08.77.28,1.51.59,2.23.1.22.42.03.32-.19-.63-1.47-.77-3.18-.31-4.72.48-1.61,1.64-2.89,3.21-3.49l-.23-.23c-.46,1.18-.46,2.38-.31,3.62.16,1.26.28,2.46-.1,3.69l.13-.13c-.9.37-1.8.73-2.66,1.19-.2.11,0,.44.2.32Z"/>
        <path d="m24.11,22.01c.82.52,1.52,1.18,2.12,1.94.04.05.12.06.18.05,1.46-.38,2.89-1,3.92-2.14.8-.88,1.29-1.97,1.87-2.99.37-.66.78-1.28,1.29-1.84.13-.14,0-.35-.18-.31-3.5.65-7.38,1.76-9.27,5.05-.12.21.2.4.32.19,1.84-3.2,5.65-4.25,9.05-4.88-.06-.1-.12-.21-.18-.31-1.62,1.81-2.18,4.42-4.29,5.79-.8.52-1.71.85-2.63,1.08.06.02.12.03.18.05-.62-.78-1.35-1.46-2.2-1.99-.2-.15-.39.18-.18.31Z"/>
        <path d="m11.41,18.3c.2-1.37.18-2.8-.57-4.01-.62-1.01-1.6-1.72-2.5-2.46-.62-.51-1.22-1.04-1.76-1.63-.09-.1-.28-.05-.31.08-.6,2.63-.5,6.07,2.22,7.49.85.44,1.8.62,2.74.66.24.01.24-.36,0-.38-1.45-.07-2.93-.51-3.86-1.69-.8-1.02-1.05-2.38-1.03-3.65.01-.79.12-1.57.3-2.34-.1.03-.21.06-.31.08.86.94,1.88,1.69,2.84,2.52.85.73,1.58,1.56,1.86,2.67.21.83.16,1.71.04,2.55-.06.25.3.35.34.11Z"/>
        <path d="m13.06,19.95c-.92-1.01-2.28-1.52-3.6-1.77-1.6-.29-3.26-.23-4.85.12-.94.21-1.85.53-2.7.96-.13.07-.11.25,0,.32,1.56.99,3.41,1.18,5.19,1.47.02-.12.03-.25.05-.37-1.78.22-3.27,1.25-3.86,2.98-.05.14.14.31.28.21,1.35-1.03,2.94-1.18,4.56-1.42.83-.12,1.65-.29,2.43-.61.94-.38,1.77-.95,2.52-1.64.18-.16-.09-.43-.27-.27-.77.72-1.65,1.3-2.65,1.66-.76.28-1.57.42-2.37.53-1.57.21-3.1.42-4.4,1.42.09.07.18.14.28.21.53-1.56,1.89-2.51,3.5-2.71.19-.02.28-.33.05-.37-1.75-.29-3.57-.47-5.1-1.44v.32c1.45-.73,3.06-1.12,4.67-1.19,1.45-.07,2.95.09,4.3.65.65.27,1.25.65,1.72,1.17.15.22.41-.05.25-.23Z"/>
        <g>
          <path d="m10.61,37.22c-.28-.88-.22-1.87.12-2.73.23-.56.75-1.34,1.46-1.09.67.23.75,1.18.73,1.77-.02.74-.18,1.58-.66,2.17-.22.27-.53.56-.88.61-.43.05-.65-.39-.77-.73-.08-.23-.44-.13-.36.1.14.41.39.87.85.98.38.09.75-.09,1.05-.32.72-.57,1.02-1.45,1.12-2.33.1-.79.07-1.91-.64-2.44-.3-.23-.72-.29-1.08-.17-.4.14-.7.47-.91.82-.61.99-.74,2.35-.38,3.46.06.23.42.13.35-.1Z"/>
          <path d="m9.02,31.56c-.42-.65-.61-1.44-.58-2.21.02-.52.16-1.3.72-1.51.62-.24,1.06.39,1.25.89.26.66.38,1.49.2,2.19-.09.36-.28.76-.58.99-.41.31-.77,0-1.01-.35-.14-.2-.46-.01-.32.19.26.37.63.75,1.12.66.4-.07.7-.41.89-.75.45-.78.42-1.75.2-2.6-.18-.69-.59-1.58-1.4-1.65-.79-.06-1.23.68-1.37,1.36-.2,1,0,2.12.56,2.97.13.21.45.02.32-.18Z"/>
          <path d="m24.5,31.27c-.42-.65-.61-1.44-.58-2.21.02-.52.16-1.3.72-1.51.62-.24,1.06.39,1.25.89.26.66.38,1.49.2,2.19-.09.36-.28.76-.58.99-.4.31-.77-.01-1.01-.35-.14-.2-.46-.01-.32.19.26.37.63.75,1.12.66.4-.07.7-.41.89-.75.45-.78.42-1.75.2-2.6-.18-.69-.59-1.58-1.4-1.65-.79-.06-1.23.68-1.37,1.36-.2,1,0,2.12.56,2.97.13.21.45.02.32-.18Z"/>
          <path d="m20.57,41.88c.04-.94.49-1.88,1.15-2.54.43-.43,1.28-.93,1.76-.26.19.27.2.64.15.96-.06.42-.22.82-.41,1.19-.33.63-.78,1.21-1.45,1.49-.25.1-.57.19-.83.08-.35-.15-.38-.6-.37-.92.01-.24-.37-.24-.38,0-.01.4.05.85.37,1.12.26.22.62.25.94.18.8-.16,1.4-.75,1.82-1.41.47-.73.94-1.82.58-2.68-.15-.36-.48-.63-.87-.7-.42-.07-.84.1-1.18.34-.98.7-1.61,1.96-1.66,3.15,0,.24.37.24.38,0Z"/>
          <path d="m21.3,36.43c-.2-.85-.12-1.82.33-2.57.32-.54.97-.97,1.58-.55.56.39.54,1.27.43,1.86-.13.67-.42,1.32-.97,1.75-.21.16-.5.34-.78.29-.37-.06-.51-.48-.59-.78-.06-.23-.42-.13-.36.1.1.39.28.81.66.98.31.14.65.07.95-.08.71-.36,1.14-1.07,1.35-1.81.23-.77.3-1.8-.28-2.45-.26-.28-.65-.44-1.03-.42-.4.02-.75.23-1.01.52-.76.85-.9,2.17-.64,3.24.05.25.42.15.36-.08Z"/>
          <path d="m6.2,42.4c-.73-.52-1.27-1.33-1.53-2.19-.17-.57-.32-1.46.24-1.88.77-.58,1.65.38,2.04.97.46.68.82,1.51.73,2.35-.04.32-.13.73-.41.94-.33.26-.77.01-1.07-.19-.2-.14-.39.19-.19.32.36.25.82.46,1.26.3.36-.13.57-.47.68-.82.31-.92.01-1.9-.44-2.71-.44-.79-1.31-1.91-2.35-1.68-.92.2-1.09,1.21-.97,2,.18,1.14.88,2.24,1.82,2.91.2.14.39-.18.19-.32Z"/>
          <path d="m19.06,31.24c-.35-.87-.38-1.86-.12-2.76.18-.61.6-1.5,1.37-1.4.74.09.96,1.03,1.01,1.64.07.8-.02,1.73-.46,2.42-.2.32-.51.68-.9.78-.48.13-.76-.35-.93-.73-.1-.22-.42-.03-.32.19.19.43.5.89,1.01.93.41.04.8-.22,1.07-.5.69-.69.91-1.68.92-2.63.01-.81-.15-1.95-.97-2.36-.84-.42-1.61.23-1.96.97-.51,1.08-.55,2.44-.1,3.55.11.22.47.12.38-.1Z"/>
          <path d="m4.06,29.09c-.01-.95.37-1.95,1-2.66.41-.47,1.25-1.03,1.78-.38.21.26.24.63.22.95-.03.42-.16.84-.33,1.22-.29.67-.71,1.29-1.38,1.63-.25.13-.58.25-.86.15-.36-.13-.42-.58-.43-.91-.01-.24-.38-.24-.38,0,.01.42.1.88.46,1.14.28.2.64.2.96.11.81-.22,1.39-.87,1.78-1.59.41-.76.8-1.86.4-2.7-.17-.37-.53-.62-.94-.67-.43-.05-.83.15-1.16.41-.96.75-1.52,2.09-1.5,3.29.01.25.39.25.38.01Z"/>
          <path d="m16.03,37.82c-.53-.64-.73-1.54-.61-2.35.11-.71.49-1.47,1.24-1.65.86-.21,1.55.61,1.82,1.33.31.83.25,1.81-.3,2.54-.24.32-.6.6-1.01.66-.45.06-.84-.2-1.14-.53-.16-.18-.42.08-.27.27.31.36.72.62,1.2.64.43.02.85-.16,1.17-.44.8-.68,1.06-1.86.82-2.85-.22-.92-.89-1.93-1.9-2.02-.96-.09-1.66.71-1.91,1.56-.31,1.05-.08,2.26.62,3.11.16.18.43-.09.27-.27Z"/>
          <path d="m10.56,44.53c-.53-.64-.73-1.54-.61-2.35.11-.71.49-1.47,1.24-1.65.86-.21,1.55.61,1.82,1.33.31.83.25,1.81-.3,2.54-.24.32-.6.6-1.01.66-.46.06-.85-.19-1.14-.53-.16-.18-.42.08-.27.27.31.36.72.62,1.2.64.43.02.85-.16,1.17-.44.8-.68,1.06-1.86.82-2.85-.22-.92-.89-1.93-1.9-2.02-.96-.09-1.66.71-1.91,1.56-.31,1.05-.08,2.26.62,3.11.16.18.42-.09.27-.27Z"/>
          <path d="m3.85,35.5c-.34-.72-.3-1.62.05-2.33.29-.6.9-1.21,1.63-1.04.69.16,1.03.95,1.09,1.59.08.8-.2,1.62-.83,2.14-.29.24-.67.4-1.05.36-.42-.06-.71-.36-.89-.72-.11-.22-.43-.03-.32.19.2.4.52.73.95.86.39.11.81.04,1.16-.15.85-.43,1.34-1.4,1.36-2.32.02-.81-.29-1.81-1.07-2.19-.82-.41-1.69.05-2.16.75-.6.88-.7,2.09-.24,3.05.1.21.42.02.32-.19Z"/>
          <path d="m16,44.36c-.48-.58-.66-1.4-.55-2.14.1-.64.44-1.34,1.13-1.5.78-.19,1.41.55,1.65,1.21.29.76.23,1.66-.27,2.32-.22.29-.54.55-.92.6-.42.04-.78-.19-1.04-.49-.16-.18-.42.08-.27.27.29.33.67.57,1.11.59.4.02.79-.15,1.09-.41.74-.63.97-1.71.76-2.63-.2-.85-.82-1.78-1.76-1.87-.88-.08-1.54.66-1.77,1.44-.29.97-.08,2.09.57,2.87.16.19.42-.08.27-.26Z"/>
        </g>
      </g>
    </g>
  </g>
</svg>