<?xml version="1.0" encoding="UTF-8"?>
<svg id="Layer_2" data-name="Layer 2" xmlns="http://www.w3.org/2000/svg" viewBox="0 0 50.53 88.53">
  <g id="Layer_1-2" data-name="Layer 1">
    <g>
      <path d="m32.88,88.33c-.1-1.53-.73-3.05-1.29-4.45-.71-1.78-1.52-3.52-2.4-5.22-.36-.68-.73-1.36-1.14-2.01-.25-.39-.51-.8-.85-1.11-1.52-1.36-3.82-2.24-5.86-1.95-1.35.19-2.28.99-3.37,1.73-1.06.72-2.28,1.25-3.52,1.53s-2.61.3-3.78-.27c-.9-.44-1.59-1.19-2.06-2.06-.85-1.58-1.09-3.85.37-5.16.7-.63,1.68-.82,2.15-1.72.33-.63,0-1.15-.7-1.17-.57-.02-1.14.08-1.71.08s-1.17-.03-1.75-.1c-1.2-.15-2.39-.46-3.47-1-1.52-.77-4.08-2.74-2.86-4.72.25-.41.67-.57,1.14-.48.15.03.3-.13.21-.28-.97-1.64-1.45-4-.17-5.62.96-1.21,2.94-1.8,4.22-.75.19.15.42-.08.27-.27-.81-.98-.79-2.37-.25-3.47.58-1.16,1.68-1.85,2.96-1.95,1.21-.09,2.52.28,3.4,1.13.43.42.64.92.89,1.45s.54,1.03.88,1.5c.52.73,1.28,1.64,2.24,1.74.97.09,1.65-.85,1.91-1.67.67-2.21-1.19-4.51-2.63-5.97-.92-.93-1.93-1.76-3.02-2.48-1.4-.93-2.66-2.07-3.76-3.34-1.07-1.23-1.89-2.88-1.57-4.55.28-1.44,1.25-2.76.79-4.27-.22-.73-.69-1.37-1.1-2.01-.43-.67-.83-1.36-1.18-2.07-.71-1.45-1.25-3.17-.88-4.79.3-1.31,1.19-2.58,2.43-3.15.65-.3,1.34-.34,2.03-.18.56.13,1.14.32,1.72.31.45,0,.89-.15,1.13-.56.15-.26.16-.55.15-.84-.03-.5-.06-.97.02-1.46.12-.84.39-1.66.62-2.47.21-.75.44-1.5.71-2.23.54-1.47,1.27-3,2.45-4.07,1.05-.95,2.44-1.57,3.84-1.7.69-.06,1.38-.01,2.04.19.12.04.23-.06.24-.18.21-2.89,2.74-5.46,5.58-5.86-.07-.09-.14-.18-.21-.28-3,5.79-4.39,12.23-3.45,18.73.02.14.23.18.31.08,1.09-1.26,2.91-1.48,4.46-1.08,1.67.43,2.97,1.62,3.49,3.27.25.79.31,1.65.12,2.47-.22.89-.75,1.66-1.35,2.33-1.14,1.28-2.58,2.32-3.27,3.94-.56,1.31-.65,3.01.57,3.98,1.16.93,2.91.65,4.01-.24,1.42-1.15,1.92-3.03,2.24-4.75.36-1.95.67-3.88,2-5.44,1.23-1.44,3.21-2.46,5.11-1.81,1.76.6,3.19,2.55,2.54,4.43-.04.12.07.24.18.24,3.1.05,5.32,3.01,5.46,5.93.08,1.7-.41,3.38-1.19,4.87-.38.73-.84,1.41-1.33,2.07-.49.65-.8,1.27-.76,2.1.05.89.29,1.78.42,2.66.14.97.22,1.98.04,2.95-.28,1.51-1.22,3.01-2.78,3.4-1.68.42-3.38-.38-5.04-.57-1.26-.14-2.78.03-3.56,1.17-.56.83-.69,2.15.14,2.86,1.17,1,2.81-.11,4.11.47,1.8.81,1.52,2.99,1.44,4.61-.23,4.39-.56,8.8-1.32,13.14-.36,2.08-.79,4.23-1.7,6.16-1.34,2.87-3.23,5.47-4.89,8.16-.41.67-.81,1.34-1.18,2.02-.12.21.21.4.32.19,1.6-2.9,3.55-5.58,5.18-8.47.58-1.03,1.12-2.09,1.5-3.21.35-1.04.61-2.11.84-3.18.95-4.54,1.31-9.21,1.58-13.84.08-1.42.39-3.17-.22-4.5-.52-1.12-1.58-1.71-2.8-1.63-.81.05-1.78.37-2.51-.12-.56-.38-.65-1.14-.49-1.75.46-1.74,2.45-1.88,3.93-1.65,1.61.25,3.27.94,4.91.47,1.33-.39,2.24-1.54,2.68-2.81.57-1.66.28-3.45-.02-5.13-.18-1-.4-1.96.19-2.87.47-.71,1-1.36,1.42-2.1.8-1.4,1.35-2.96,1.45-4.58.17-2.77-1.26-5.65-3.89-6.77-.62-.26-1.27-.4-1.94-.41.06.08.12.16.18.24.52-1.5-.18-3.1-1.36-4.08-1.28-1.05-2.94-1.29-4.47-.69-1.54.6-2.77,1.9-3.48,3.37-.9,1.85-.87,3.97-1.5,5.9-.59,1.82-2.07,3.78-4.24,3.35-.91-.18-1.59-.88-1.76-1.79s.12-1.87.56-2.67c.88-1.62,2.53-2.64,3.59-4.13.98-1.37,1.21-3.04.63-4.62-.62-1.69-2-2.89-3.73-3.32-1.65-.41-3.6-.15-4.77,1.19.1.03.21.06.31.08-.93-6.38.46-12.75,3.41-18.44.08-.16-.05-.3-.21-.28-3.01.42-5.64,3.18-5.86,6.22l.24-.18c-2.58-.77-5.52.44-7.1,2.56-.95,1.28-1.56,2.78-2.04,4.29-.25.8-.47,1.61-.69,2.42-.22.81-.4,1.62-.35,2.47.02.4.14.92-.21,1.21-.25.21-.61.2-.92.17-.63-.06-1.23-.31-1.86-.38-1.27-.15-2.46.5-3.27,1.45-2.08,2.42-1.21,5.62.2,8.14.8,1.43,2.23,2.87,1.85,4.62-.17.78-.53,1.5-.74,2.27-.19.7-.21,1.43-.07,2.14.31,1.56,1.32,2.82,2.4,3.93.58.61,1.2,1.18,1.86,1.7.58.46,1.21.86,1.81,1.29,1.14.82,2.19,1.76,3.1,2.82.83.97,1.62,2.12,1.85,3.39.1.55.07,1.13-.15,1.65-.21.5-.63,1.1-1.22,1.16-1.11.11-2.05-1.32-2.53-2.12-.6-.98-.87-2.05-1.82-2.77-.93-.7-2.14-1.02-3.3-.93-1.14.09-2.18.57-2.88,1.49-.68.89-1,2.07-.78,3.17.1.52.34.99.68,1.39.09-.09.18-.18.27-.27-1.41-1.15-3.55-.66-4.68.66-1.49,1.74-1.04,4.34.04,6.16.07-.09.14-.18.21-.28-1.79-.34-2.3,2-1.57,3.24,1.14,1.95,3.42,3.07,5.56,3.52,1.16.24,2.36.32,3.54.26.32-.02,1.29-.26,1.48.11.18.35-.39.88-.61,1.07-.4.34-.9.5-1.32.82-.34.26-.64.58-.86.96-.45.75-.59,1.64-.51,2.5.16,1.79,1.17,3.64,2.8,4.49,2.17,1.13,4.85.42,6.9-.67,1.23-.65,2.23-1.75,3.61-2.11,1.26-.33,2.6-.1,3.79.38.86.34,1.78.83,2.43,1.51.37.38.64.87.9,1.32.95,1.6,1.76,3.29,2.52,4.99.74,1.67,1.47,3.39,1.86,5.18.07.3.12.59.14.9-.03.26.35.27.33.02Z"/>
      <path d="m10.93,24.92c-1.26.44-.9,2.09-.48,3.01.56,1.23,1.81,2.1,2.97,2.73,1.33.72,2.69,1.32,3.88,2.28.39.32.77.66,1.13,1.02.16.16.34.3.39.52.05.23.04.49.07.73.09.8.24,1.59.43,2.37.43,1.76,1.07,3.48,1.91,5.09.42.81.89,1.59,1.41,2.34.24.34.5.68.77,1.01.13.15.26.31.39.46.11.13.42.36.49.52.06.16-.02.44-.03.61,0,.19-.03.37-.04.56-.03.43-.05.87-.06,1.3-.02.87,0,1.74.03,2.61.09,1.76.31,3.51.69,5.23.93,4.19,2.85,8.11,5.69,11.33.08-.1.15-.2.23-.29-2.66-1.55-4.86-3.82-6.33-6.53-.37-.69-.69-1.4-.96-2.13-.22-.61-.41-1.29-.89-1.76-.78-.77-2.32-.49-2.15.8.11.8.54,1.62.95,2.3.45.74,1.01,1.4,1.66,1.97.04-.11.09-.21.13-.32-1.45.15-2.91.06-4.3-.43-1.54-.55-2.88-1.55-4.05-2.68-1.02-.98-1.94-2.14-3.17-2.87-.44-.26-.97-.48-1.49-.39-.55.09-.95.5-1.27.93-1.45,1.95.45,3.81,2.07,4.81.95.59,1.99,1.06,3.05,1.41,1,.33,2.05.43,3.1.49,1.35.08,2.72.07,4.05.3.95.16,2.18.48,2.4,1.58.08-.08.15-.15.23-.23-.71-.12-1.43-.19-2.16-.18-.61.01-1.28.02-1.87.22-.87.3-1.15,1.16-.79,1.98.42.93,1.42,1.21,2.36.96.58-.15,1.04-.48,1.51-.83.53-.38,1.12-.65,1.7-.93h-.19c2.78,1.2,5.31,2.96,6.79,5.67,1.42,2.6,1.78,5.65,1.89,8.57.08,2.09.04,4.18-.02,6.28,0,.19.26.25.35.09.41-.69.83-1.38,1.26-2.06.17-.28.44-.55.44-.88,0-.36-.04-.73-.07-1.09-.13-1.48-.37-2.94-.62-4.4-.51-3-1.12-6.07-.84-9.13.14-1.51.61-2.89,1.38-4.2.64-1.1,1.55-2.08,1.95-3.3.32-.96.36-2.17-.42-2.93-.73-.71-1.71-.4-2.43.15-1.01.77-1.56,1.83-1.9,3.03-.47,1.65-.53,3.41-.06,5.07.1-.06.21-.12.31-.18-2.14-2.17-3.72-4.9-4.85-7.72-1.14-2.86-1.9-6-1.68-9.1.2-2.9,1.46-5.66,4.12-7.06,1.66-.87,3.6-1.05,5.43-.67.98.21,1.92.57,2.8,1.05.79.44,1.49.99,2.39,1.21.75.18,1.63.09,2-.69.36-.76-.08-1.49-.63-2.01-1.28-1.22-3.21-1.46-4.9-1.51.03.12.06.23.09.35,1.17-.85,2.34-1.7,3.51-2.55.99-.72,2.02-1.41,2.92-2.24.73-.68,1.41-1.52,1.53-2.54.12-.97-.26-2-1.19-2.43-.9-.41-1.91-.18-2.73.3-.89.53-1.45,1.4-1.73,2.39-.15.53-.21,1.08-.26,1.63-.06.6-.26,1.16-.59,1.66-.68,1.03-1.79,1.82-2.82,2.46-1.04.64-2.34.87-3.54.99-1.19.12-2.43.13-3.62-.08.04.08.09.15.13.23.45-1.36,2.37-1.38,3.55-1.53.93-.12,2.55-.31,2.38-1.61-.08-.61-.32-1.23-.88-1.55-.52-.29-1.17-.24-1.72-.09-1.47.38-2.86,1.4-3.88,2.51-1.66,1.8-2.5,4.22-2.76,6.62.09-.05.19-.11.28-.16-2.13-1.54-3.49-3.97-4.21-6.46-.75-2.59-.86-5.45,0-8.03.48-1.43,1.58-2.63,2.84-3.43,1.07-.67,2.43-.96,3.02-2.2.54-1.13-.13-2.36-1.04-3.08-.95-.74-2.04-.52-2.94.19-2.5,1.97-3.29,5.39-4.51,8.17.11.01.23.03.34.04-1.8-6.01-1.06-12.46.2-18.5.39-1.85.83-3.69,1.3-5.53.05-.2-.24-.34-.34-.14-2.74,5.31-4.05,11.43-4.06,17.38,0,1.95.15,3.9.45,5.82.09-.07.18-.14.28-.21-1.19-.87-2.04-2.14-3.08-3.18-.79-.8-1.85-1.63-3.08-1.29-.23.07-.13.43.1.36,1.26-.36,2.33.75,3.1,1.59.9.97,1.71,2.07,2.79,2.86.15.11.3-.07.28-.21-.99-6.28-.31-12.85,1.81-18.83.49-1.4,1.08-2.77,1.76-4.08-.11-.05-.23-.1-.34-.14-1.61,6.25-3.06,12.81-2.44,19.31.16,1.67.46,3.32.94,4.92.04.14.27.2.34.04,1.08-2.47,1.79-5.18,3.58-7.25.86-1,2.18-1.98,3.4-.93.52.45.99,1.1,1.01,1.81,0,.61-.36,1.14-.8,1.53-.55.47-1.2.69-1.83,1.02-.61.32-1.17.75-1.67,1.23-.96.92-1.59,1.99-1.94,3.28-.66,2.46-.53,5.11.17,7.55.74,2.61,2.17,5.13,4.4,6.74.13.09.27-.04.28-.16.39-3.58,2.32-7.23,5.84-8.59.54-.21,1.19-.39,1.76-.2.59.2.93.9.91,1.5-.03,1.06-1.98,1.04-2.69,1.13-1.23.15-2.8.37-3.25,1.73-.03.09.03.21.13.23,1.92.33,4.04.23,5.91-.31,1.01-.29,1.85-.81,2.68-1.44.83-.62,1.65-1.35,2.1-2.31.45-.97.33-2.06.66-3.06.34-1.05,1.09-1.89,2.15-2.27.97-.35,2.22-.1,2.59.97.39,1.11-.12,2.18-.87,2.99-.88.95-2,1.68-3.05,2.44-1.25.91-2.49,1.81-3.74,2.72-.15.11-.1.34.09.35,1.59.05,3.43.25,4.64,1.4.3.29.64.67.65,1.11.02.43-.25.83-.66.97-.87.31-1.9-.31-2.6-.77-2.98-1.92-6.98-2.43-10.03-.37-5,3.39-3.92,10.68-2.12,15.54,1.15,3.1,2.84,6.12,5.18,8.49.13.13.36,0,.31-.18-.42-1.47-.4-3.01-.04-4.49.27-1.09.66-2.09,1.48-2.88.73-.71,1.91-1.3,2.59-.2.57.93.18,2.25-.33,3.12-.63,1.09-1.43,2.07-1.99,3.21-.56,1.16-.86,2.36-.97,3.64-.22,2.71.24,5.43.7,8.1.27,1.58.55,3.15.72,4.74.04.37.07.73.1,1.1,0,.17.06.37.03.54-.03.21-.19.39-.3.56-.46.72-.9,1.45-1.34,2.19.12.03.23.06.35.09.07-2.53.13-5.07-.05-7.6-.14-2.01-.44-4.04-1.18-5.93-.67-1.73-1.71-3.28-3.09-4.52-.77-.69-1.63-1.29-2.54-1.8-.52-.29-1.05-.56-1.59-.8-.19-.09-.38-.22-.59-.18-.35.07-.75.36-1.06.53-.74.41-1.33,1.04-2.19,1.22-.8.17-1.62-.14-1.86-.97-.09-.3-.09-.67.11-.93.29-.39.86-.45,1.3-.49,1.01-.11,2.03-.06,3.04.11.15.03.26-.08.23-.23-.37-1.91-3.16-1.95-4.65-2.04-1.15-.07-2.31-.08-3.46-.21-1.01-.12-1.96-.42-2.89-.83-1.06-.46-2.11-1.03-2.98-1.8-.72-.64-1.42-1.54-1.17-2.56.13-.54.53-1.11.99-1.43.51-.35,1.11-.16,1.61.11,1.22.69,2.14,1.85,3.13,2.81,1.2,1.17,2.57,2.2,4.16,2.79,1.44.54,2.98.64,4.5.48.15-.02.27-.2.13-.32-1.07-.94-1.9-2.15-2.36-3.5-.12-.34-.29-.82-.03-1.14.2-.24.59-.27.87-.19.69.18.97.95,1.18,1.55.87,2.45,2.23,4.68,4.07,6.53,1.05,1.05,2.23,1.96,3.51,2.7.19.11.37-.14.23-.29-4.84-5.49-6.66-12.8-6.26-19.99.02-.37.05-.74.08-1.12,0-.15.06-.3,0-.44-.08-.17-.33-.35-.46-.49-.6-.66-1.14-1.38-1.63-2.13-.97-1.5-1.74-3.13-2.31-4.82-.53-1.55-.91-3.17-1.03-4.8,0-.13,0-.28-.04-.4-.09-.19-.36-.39-.52-.54-.36-.35-.73-.69-1.12-1-.6-.48-1.25-.91-1.93-1.28-1.34-.74-2.76-1.3-3.88-2.38-.56-.54-.95-1.11-1.15-1.87-.17-.61-.27-1.57.48-1.83.21-.12.11-.49-.12-.41Z"/>
    </g>
  </g>
</svg>