<?xml version="1.0" encoding="UTF-8"?>
<svg id="Layer_2" data-name="Layer 2" xmlns="http://www.w3.org/2000/svg" viewBox="0 0 37.04 53.09">
  <g id="Layer_1-2" data-name="Layer 1">
    <g>
      <g>
        <path d="m9.32,24.67c-.94-6.49,1.66-12.8,2.58-19.14.26-1.77.39-3.56.29-5.35,0-.19-.24-.25-.35-.09-2.89,4.3-4.96,9.07-6.67,13.94-.44,1.25-.86,2.5-1.26,3.76-.4,1.24-.81,2.47-1.14,3.73-.56,2.14-.84,4.39-.6,6.59.21,1.94.85,3.85,2.05,5.41,1.34,1.76,3.33,3.12,5.51,3.56,2.46.5,4.93-.23,7.14-1.29,2.2-1.06,4.27-2.42,6.3-3.77,1.81-1.2,3.59-2.43,5.44-3.56,2.05-1.25,4.18-2.35,6.4-3.26.62-.26,1.25-.5,1.89-.72.14-.05.18-.2.08-.31-.57-.64-1.28-1.15-2.12-1.34-.81-.18-1.66-.08-2.46.08-1.09.22-2.13.64-3.16,1.04-3.18,1.25-6.33,2.59-9.58,3.63-1.89.61-3.82,1.14-5.79,1.39.06.08.12.16.18.24.49-1.78,1.26-3.46,2.17-5.06.92-1.62,1.99-3.16,3.22-4.56,2.34-2.69,4.97-5.13,6.94-8.12,1.02-1.54,1.82-3.22,2.35-4.99.05-.17-.19-.33-.31-.18-1.13,1.41-2.47,2.6-3.93,3.66-1.47,1.06-3.02,2.03-4.48,3.1-1.35.99-2.5,2.16-3.55,3.46-1.04,1.28-1.99,2.64-3.03,3.92-1.27,1.57-2.69,3.01-4.38,4.14-.2.13,0,.46.19.32,1.49-1,2.79-2.22,3.95-3.58,1.09-1.28,2.06-2.65,3.09-3.97,1.01-1.29,2.09-2.54,3.38-3.55,1.47-1.16,3.07-2.14,4.6-3.21,1.64-1.15,3.16-2.44,4.42-4.01-.1-.06-.21-.12-.31-.18-.98,3.29-2.95,6.04-5.2,8.58-1.25,1.42-2.58,2.76-3.83,4.18-1.2,1.36-2.27,2.84-3.19,4.4-1.04,1.75-1.92,3.61-2.46,5.57-.03.11.06.25.18.24,3.46-.44,6.8-1.64,10.04-2.88,1.53-.59,3.05-1.2,4.57-1.81,1.08-.43,2.16-.88,3.27-1.2.78-.22,1.62-.39,2.43-.34,1.03.06,1.86.57,2.54,1.32.03-.1.06-.21.08-.31-2.3.83-4.54,1.84-6.68,3.03-1.85,1.03-3.61,2.19-5.36,3.37-1.89,1.27-3.77,2.53-5.73,3.69-2.14,1.26-4.48,2.47-7,2.66-2.46.18-4.81-.81-6.57-2.51-1.4-1.35-2.3-3.12-2.71-5.02-.45-2.09-.33-4.27.08-6.35.24-1.2.59-2.36.95-3.52.39-1.25.79-2.5,1.21-3.75,1.62-4.81,3.52-9.55,6.18-13.88.32-.52.65-1.04,1-1.55-.12-.03-.23-.06-.35-.09.37,6.57-2.34,12.8-2.95,19.27-.17,1.77-.17,3.55.09,5.31.04.2.4.1.36-.14Z"/>
        <path d="m22.88,25.45c-.36.2-.77.33-1.15.48-.72.28-1.45.54-2.18.8-.76.26-1.53.52-2.3.75-.56.16-1.14.36-1.72.4-.07.01-.15-.01-.22,0-.06.01.03,0,.01.03,0,0,0-.12.01-.16.02-.12.06-.23.1-.34.25-.73.64-1.43,1.02-2.1,1.02-1.79,2.19-3.57,3.62-5.06.23-.24.46-.49.83-.46.37.02.68.27.93.52.52.53.93,1.16,1.22,1.84.3.69.52,1.48.49,2.23-.02.53-.2.8-.66,1.07-.21.12-.02.44.19.32.35-.2.65-.44.77-.85.17-.6.06-1.29-.09-1.88-.17-.67-.44-1.32-.8-1.91-.34-.56-.79-1.19-1.37-1.52-.54-.31-1.13-.27-1.58.17-.38.36-.72.76-1.05,1.17-.75.92-1.43,1.9-2.07,2.9-.55.87-1.08,1.77-1.51,2.71-.14.31-.28.62-.37.95-.05.17-.1.41,0,.58.21.33.91.1,1.2.04.79-.18,1.57-.42,2.34-.68.97-.32,1.94-.66,2.9-1.02.54-.2,1.13-.38,1.63-.67.21-.11.02-.43-.19-.31Z"/>
        <path d="m24.7,23.54c.42.68,1.2,1.07,2,.94.47-.08.92-.33,1.35-.52.52-.23,1.04-.45,1.57-.65,1.28-.47,2.26-1.47,2.15-2.91-.05-.63-.28-1.24-.59-1.79-.28-.5-.7-1.23-1.26-1.42-.72-.25-1.39.35-1.8.87-.3.38-.54.79-.89,1.13-.33.32-.71.59-1.13.8-.47.24-.96.39-1.47.49-.32.06-.6.18-.72.51-.13.36-.02.77.1,1.11.16.49.42.97.69,1.44.12.21.45.02.32-.19-.22-.37-.42-.75-.58-1.15-.12-.3-.27-.69-.21-1.02.06-.3.32-.33.58-.38.39-.08.77-.19,1.13-.35.67-.29,1.28-.71,1.77-1.25.49-.55.83-1.38,1.57-1.65.63-.23,1.02.41,1.32.86.31.46.56.96.69,1.5.28,1.14-.15,2.18-1.18,2.76-.43.24-.9.37-1.35.56-.43.18-.85.37-1.27.56-.46.2-.91.41-1.42.31-.45-.09-.83-.36-1.07-.75-.11-.21-.43-.02-.3.19Z"/>
        <path d="m24.09,20.12c.77-.22,1.54-.49,2.23-.93.65-.41,1.16-.97,1.63-1.57.26-.33.56-.76.42-1.21-.1-.32-.4-.6-.61-.85-.31-.38-.62-.77-.93-1.14-.32-.37-.84-.58-1.32-.44-.36.1-.59.38-.83.65-.3.33-.6.67-.89,1-.54.61-1.13,1.2-1.66,1.82-.23.26-.45.57-.44.93.01.37.26.7.52.95.45.43,1.22.93,1.88.79.24-.05.14-.41-.1-.36-.51.11-1.18-.37-1.52-.69-.21-.2-.45-.48-.4-.79.05-.35.39-.64.63-.88.45-.47.89-.96,1.32-1.45.23-.26.46-.53.7-.79.22-.25.45-.6.75-.75.43-.22.86.02,1.14.35.26.31.52.63.77.94.19.23.41.46.57.72.19.32-.05.64-.23.9-.43.59-.94,1.14-1.55,1.54-.67.43-1.42.7-2.17.91-.24.05-.14.41.09.35Z"/>
        <path d="m23.07,9.52c-.16-1.13-1.54-1.63-2.53-1.6-1.55.04-3.08.99-4.19,2-.54.49-1.24,1.11-1.22,1.91.01.35.21.62.42.89.25.33.54.62.87.89.54.44,1.2.65,1.84.26.36-.23.69-.51,1.04-.76.38-.27.76-.55,1.13-.82.65-.48,1.32-.96,1.91-1.51.31-.29.78-.72.74-1.19-.02-.24-.39-.24-.38,0,.02.32-.32.63-.53.83-.42.41-.89.77-1.37,1.13-.56.42-1.14.83-1.71,1.25-.52.38-1.15,1.07-1.86.9-.33-.08-.61-.36-.86-.59-.26-.25-.5-.52-.71-.82-.48-.7.22-1.39.71-1.86.97-.93,2.19-1.75,3.52-2.03.96-.2,2.62.03,2.8,1.25.05.2.41.1.38-.13Z"/>
        <path d="m12.37,12.4c-1.19-.08-1.55,1.01-1.8,1.98-.27,1.06-.48,2.15-.65,3.23-.18,1.1-.33,2.21-.41,3.32-.05.64-.18,1.44.03,2.07.16.49.59.24.87.01.58-.47,1.07-1.06,1.56-1.62,1.21-1.4,2.35-2.85,3.47-4.32.5-.66,1.66-1.87.81-2.64-1.05-.94-2.41-2.05-3.88-2.03-.24,0-.24.38,0,.38,1.26-.02,2.41.9,3.33,1.68.19.16.47.33.47.6,0,.32-.19.64-.36.89-.18.28-.39.53-.59.8-.98,1.29-1.98,2.56-3.02,3.8-.5.6-1.02,1.2-1.57,1.75-.17.17-.35.35-.54.49-.05.04-.16.1-.18.11-.11.08.06-.03.03.05,0-.01-.05-.12-.06-.16-.02-.12-.03-.23-.04-.35-.02-.34,0-.67,0-1.01.05-.97.17-1.93.31-2.89.16-1.14.36-2.27.61-3.39.11-.49.22-1,.4-1.47.21-.58.56-.95,1.2-.91.24.02.24-.36,0-.37Z"/>
        <path d="m13.65,11.63c.88.05,1.16-.93,1.59-1.52.44-.61,1-1.11,1.63-1.53s1.5-.74,1.8-1.49c.24-.59-.04-1.2-.43-1.65-.92-1.09-2.64-1.94-4.04-1.32-1.44.64-1.96,2.52-2.26,3.92-.1.45-.17.9-.23,1.36-.04.35-.15.79-.04,1.13.24.74,1.31,1.02,1.98,1.1.24.03.24-.34,0-.38-.49-.06-1.57-.31-1.64-.93-.03-.28.04-.61.08-.88.05-.37.11-.75.18-1.12.14-.69.33-1.38.6-2.04.25-.6.58-1.22,1.12-1.6,1.19-.86,2.78-.16,3.72.74.39.37.84.92.64,1.49-.23.66-1.09.97-1.63,1.33-.55.37-1.07.79-1.5,1.3-.23.27-.43.56-.62.86-.24.39-.41.89-.96.86-.23,0-.23.36.01.37Z"/>
      </g>
      <g>
        <path d="m5.81,35.75c-2.18,5.42-2.53,11.37-2.34,17.15,0,.25-.36.25-.38.01-.11-3.11-.05-6.23.35-9.32.35-2.67.96-5.32,1.96-7.83.09-.24.19-.47.29-.7.1.1.2.18.31.26-.07.14-.13.28-.19.43Z"/>
        <path d="m3.89,33.05c-.51.95-.97,1.93-1.37,2.93-1.03,2.57-1.71,5.26-2.16,7.98-.04.24-.4.14-.36-.1.53-3.22,1.39-6.39,2.75-9.37.28-.61.58-1.22.91-1.81.06.13.14.25.23.37Z"/>
      </g>
    </g>
  </g>
</svg>