<?xml version="1.0" encoding="UTF-8"?>
<svg id="Layer_2" data-name="Layer 2" xmlns="http://www.w3.org/2000/svg" viewBox="0 0 47.48 42.95">
  <g id="Layer_1-2" data-name="Layer 1">
    <g>
      <path d="m17.08,20.36c.16,1.74,1.81,3.01,3.47,3.19,1.77.19,3.37-1.1,3.79-2.79.36-1.45-.24-3.08-1.53-3.86-1.08-.66-2.47-.62-3.6-.1-1.39.64-2.24,2.03-2.13,3.56.02.24.39.24.38,0-.08-1.21.45-2.32,1.47-2.98.91-.59,2.1-.78,3.13-.42,1.19.41,1.99,1.6,2.02,2.84.03,1.59-1.15,3.13-2.75,3.36-1.69.24-3.71-1.04-3.88-2.81-.02-.22-.39-.23-.37.01Z"/>
      <path d="m19.43,17.12c1.31-.59,2.9-.4,3.88.7.06.07.15.06.23.03.78-.35,1.51-.78,2.23-1.24.4-.26.79-.52,1.19-.78.16-.11.33-.22.49-.33.2-.13.47-.24.63-.41.21-.21.35-.56.49-.82.14-.28.26-.56.37-.85.21-.58.34-1.19.4-1.8.26-2.72-.94-5.4-2.48-7.57-1.06-1.49-2.33-2.81-3.73-3.99-.06-.05-.16-.08-.23-.03-1.62,1.1-3.22,2.25-4.65,3.6-.97.91-1.89,1.94-2.47,3.15-.45.94-.67,1.97-.57,3.01.11,1.12.55,2.18,1.09,3.16.81,1.48,1.86,2.83,2.92,4.15.15.19.42-.08.27-.27-.93-1.15-1.84-2.33-2.59-3.6-.57-.95-1.06-1.97-1.25-3.07-.41-2.32.92-4.32,2.49-5.89,1.49-1.49,3.22-2.74,4.96-3.91-.08-.01-.15-.02-.23-.03,2.27,1.92,4.33,4.29,5.43,7.09.9,2.31,1.03,4.91-.27,7.1-.1.18-.18.29-.35.41-.23.15-.46.3-.69.45-.39.26-.78.53-1.18.78-.78.51-1.58.99-2.43,1.37.08.01.15.02.23.03-1.09-1.24-2.87-1.42-4.33-.76-.26.09-.07.42.15.32Z"/>
      <path d="m23.96,19.04c.15.52.15,1.05.03,1.57-.01.06,0,.14.05.18,1.71,1.52,3.55,3,5.63,3.99,1.31.62,2.73,1.02,4.19.98,2.59-.08,4.96-1.4,7.47-1.94,1.95-.42,3.95-.42,5.91-.09.16.03.29-.12.21-.28-1.55-3.08-3.66-6.01-6.62-7.87-1.54-.96-3.27-1.59-5.06-1.85-.99-.14-1.98-.18-2.98-.13-.98.05-1.89.32-2.78.73-2.22,1.03-4.06,2.72-6.28,3.75-.09.04-.11.17-.07.26.13.23.22.46.3.7.07.23.43.13.36-.1-.09-.27-.19-.54-.33-.79-.02.09-.04.17-.07.26,1.9-.88,3.52-2.23,5.34-3.26.87-.5,1.8-.92,2.8-1.1.97-.17,2.01-.13,2.99-.04,3.54.33,6.64,2.14,8.95,4.81,1.26,1.45,2.27,3.1,3.14,4.82.07-.09.14-.18.21-.28-1.75-.29-3.53-.34-5.28-.06-1.37.22-2.69.64-4,1.09-1.14.39-2.3.8-3.51.94-1.37.16-2.71-.07-3.99-.57-2.35-.92-4.39-2.58-6.25-4.23.02.06.03.12.05.18.13-.59.13-1.19-.03-1.77-.09-.23-.45-.13-.38.1Z"/>
      <path d="m19.2,33.25c.31,1.46.87,2.84,1.24,4.29.44,1.71.49,3.44.11,5.17-.03.12.09.29.23.23,2.75-1.12,5.35-2.69,7.36-4.9,1.84-2.02,3.09-4.52,3.52-7.22.26-1.63.23-3.29-.01-4.92-.01-.06-.07-.12-.13-.13-2.84-.74-5.28-2.65-7.45-4.56-.08-.07-.24-.08-.29.04-.41.89-1.27,1.78-2.3,1.9-.08.01-.16.05-.18.14-.46,1.65-1.2,3.21-1.72,4.84-.53,1.66-.73,3.38-.38,5.12.05.24.41.14.36-.1-.35-1.74-.11-3.45.44-5.12.51-1.57,1.21-3.07,1.66-4.66-.06.05-.12.09-.18.14,1.16-.13,2.15-1.06,2.63-2.08-.1.01-.2.03-.29.04,2.22,1.95,4.71,3.9,7.62,4.65l-.13-.13c.4,2.74.14,5.59-1,8.13-1.11,2.47-2.97,4.51-5.17,6.06-1.38.97-2.88,1.76-4.44,2.39l.23.23c.38-1.74.36-3.48-.07-5.21-.37-1.5-.96-2.94-1.28-4.45-.07-.23-.43-.13-.38.11Z"/>
      <path d="m.24,22.25c2.42-.54,4.87.16,7.18.84,2.29.67,4.67,1.41,7.09,1.14,1.47-.17,2.84-.73,4.05-1.57.09-.06.14-.21.04-.29-.91-.76-1.35-1.83-1.08-3.01.22-.97.9-1.73,1.77-2.17.08-.04.13-.18.07-.26-.96-1.25-2.18-2.29-3.63-2.93-1.33-.59-2.79-.84-4.24-.76-3.14.17-6.1,1.75-8.28,3.96C1.84,18.59.76,20.23.01,22.03c-.09.22.27.32.36.1,1.25-2.98,3.49-5.56,6.34-7.11,2.51-1.36,5.55-1.9,8.29-.91,1.61.58,2.99,1.66,4.03,3.01.02-.09.04-.17.07-.26-.98.5-1.74,1.39-1.96,2.48-.26,1.28.2,2.46,1.19,3.29.01-.1.03-.2.04-.29-1.09.77-2.32,1.3-3.65,1.5-1.21.18-2.45.07-3.65-.16-2.39-.46-4.67-1.41-7.08-1.81-1.28-.21-2.58-.25-3.86.04-.23.03-.13.4.11.34Z"/>
      <path d="m.23,27.56c.31,1.15.98,2.08,1.95,2.77.94.66,2.02,1.06,3.03,1.59,1.05.55,1.98,1.25,2.65,2.23.6.89,1.04,1.87,1.56,2.8.48.86,1.06,1.73,1.89,2.29.95.64,2.07.65,3.16.45,1.24-.23,2.41-.74,3.35-1.6.46-.42.84-.91,1.16-1.44.17-.28.32-.57.45-.87.07-.17.11-.24.06-.42-.06-.23-.14-.46-.21-.69-.29-1.01-.53-2.02-.55-3.07-.02-.94.11-1.86.35-2.77.47-1.85,1.35-3.56,1.87-5.4.03-.12-.06-.23-.18-.24-.58-.03-1.11-.21-1.61-.49-.05-.03-.14-.04-.19,0-1.13.82-2.38,1.43-3.76,1.7-1.7.33-3.45.11-5.12-.29-1.71-.4-3.36-1-5.07-1.39-.17-.04-.25-.07-.41-.02-.16.05-.32.12-.47.18-.32.12-.63.26-.93.4-.57.27-1.13.59-1.63.98-1.06.82-1.68,1.97-1.35,3.3.06.23.42.13.36-.1-.31-1.25.35-2.28,1.33-3,.5-.37,1.06-.67,1.63-.92.29-.13.59-.25.89-.37.18-.07.28-.11.47-.07.23.04.46.11.68.17,3.13.81,6.27,2.11,9.56,1.54,1.47-.26,2.8-.9,4-1.76h-.19c.56.31,1.16.5,1.8.54-.06-.08-.12-.16-.18-.24-.44,1.57-1.16,3.05-1.64,4.61-.47,1.52-.71,3.11-.5,4.7.11.85.34,1.68.59,2.51.06.2.11.33.04.53-.06.17-.15.33-.24.48-.15.29-.33.57-.52.83-.74,1.01-1.79,1.72-2.98,2.1-1.08.34-2.36.56-3.42.05-.89-.43-1.5-1.26-1.99-2.09-.52-.89-.95-1.83-1.48-2.71-.56-.92-1.28-1.67-2.18-2.26-1.04-.67-2.21-1.09-3.28-1.71-1.17-.67-2.01-1.6-2.37-2.92-.08-.24-.45-.14-.38.09Z"/>
      <path d="m16.27,12.91c.83,1.49,1.87,2.85,2.94,4.18.06.07.16.06.23.03,1.31-.59,2.9-.4,3.88.7.06.07.15.06.23.03,1.28-.57,2.45-1.38,3.61-2.16.29-.19.63-.35.89-.58.23-.2.38-.57.52-.84.3-.59.52-1.23.65-1.88.04-.23.14-.55.07-.78-.04-.14-.16-.28-.23-.41-.1-.18-.2-.37-.31-.55-.22-.41-.42-1.03-.98-1.01-.27.01-.44.17-.6.36-.2.24-.41.49-.61.73-.24.28-.47.56-.71.85-.13.15-.3.45-.52.47-.2.02-.45-.17-.62-.26-.33-.16-.66-.32-.99-.49-.44-.22-1-.64-1.5-.36-.44.25-.85.54-1.28.81-.67.42-1.33.84-2,1.27-.14.09-.28.21-.44.27-.25.09-.63-.13-.86-.22-.38-.14-.76-.29-1.14-.45-.22-.09-.32.27-.1.36.55.22,1.1.45,1.67.64.28.09.51.07.75-.08.45-.28.9-.57,1.35-.86.59-.37,1.18-.74,1.77-1.12.15-.09.3-.21.45-.29.22-.11.34-.04.53.05.59.29,1.18.58,1.77.87.17.09.36.2.56.22.29.02.49-.13.67-.33.41-.5.83-.99,1.24-1.49.13-.15.24-.33.39-.46.22-.21.43-.13.58.12.17.29.32.58.48.87.09.17.21.34.29.51.08.19.02.4-.02.59-.07.37-.17.73-.29,1.09-.13.36-.29.71-.48,1.05-.09.16-.18.36-.33.47-.15.12-.33.21-.5.32-1.27.83-2.51,1.73-3.91,2.35.08.01.15.02.23.03-1.09-1.24-2.87-1.42-4.33-.76.08.01.15.02.23.03-1.05-1.3-2.07-2.64-2.88-4.1-.14-.19-.47,0-.35.21Z"/>
      <path d="m23.96,19.04c.15.52.15,1.05.03,1.57-.01.06,0,.14.05.18,1.82,1.61,3.78,3.17,6.01,4.17.1.04.19.02.26-.07.37-.53.67-1.1,1.15-1.54.34-.32.77-.51,1.22-.65.5-.16,1.01-.25,1.52-.34.27-.04.54-.08.8-.11.2-.02.45-.01.63-.1.33-.16.3-.59.02-.77-.11-.08-.25-.13-.37-.2-.6-.32-1.21-.65-1.81-.97-.22-.12-.45-.24-.67-.36-.12-.07-.21-.12-.06-.21.2-.13.52-.18.74-.26.33-.12.66-.23.99-.35.35-.12,1.22-.27,1.03-.82-.06-.16-.21-.25-.34-.34-.22-.15-.43-.31-.65-.46-.61-.43-1.22-.86-1.84-1.29-.06-.04-.18-.1-.22-.16-.08-.1.01-.22.07-.33.29-.6.61-1.19.96-1.76.07-.12-.02-.28-.16-.28-.88.01-1.73.12-2.56.43-.82.3-1.59.73-2.33,1.19-1.56.96-3.02,2.1-4.69,2.88-.09.04-.11.17-.07.26.12.22.21.45.29.69.07.23.43.13.36-.1-.09-.27-.19-.54-.33-.79-.02.09-.04.17-.07.26,1.61-.75,3.03-1.83,4.52-2.77.73-.46,1.48-.89,2.28-1.2.84-.33,1.69-.46,2.59-.47-.05-.09-.11-.19-.16-.28-.32.53-.62,1.07-.89,1.63-.16.31-.39.67-.04.94.35.28.74.52,1.11.78.53.37,1.05.74,1.58,1.11.1.07.32.15.18.27-.12.11-.43.15-.59.2-.6.21-1.2.42-1.8.63-.19.07-.39.14-.44.36-.06.25.1.41.3.52.5.28,1.02.55,1.52.82.3.16.6.32.9.48.09.05.42.16.47.25.09.17-.36.17-.45.18-.27.03-.54.07-.82.11-.58.09-1.17.2-1.73.39-.46.16-.9.37-1.26.71-.49.47-.81,1.07-1.2,1.62.09-.02.17-.04.26-.07-2.21-.99-4.14-2.52-5.94-4.11.02.06.03.12.05.18.13-.59.13-1.19-.03-1.77-.08-.21-.44-.11-.37.12Z"/>
      <path d="m20.01,27.01c.13.44.28.88.43,1.32.12.36.22.78.39,1.12.12.24.42.33.64.15.11-.09.18-.23.25-.35.27-.41.54-.83.82-1.24.08-.12.12-.16.19-.03.09.19.14.42.2.61.15.46.3.92.46,1.38.13.39.57.54.82.14.24-.39.44-.82.66-1.22.11-.19.21-.39.32-.58.05-.09.07-.19.17-.11.11.09.18.35.25.47.14.27.28.54.43.81.2.38.4.75.6,1.13.08.15.3.1.34-.04.15-.5.29-1,.44-1.5.08-.26.13-.55.23-.8.09-.21.14-.09.25.06.34.48.65.99,1.01,1.46.46.58.88-.22,1.11-.56.11-.16.22-.32.33-.47.02-.03.13-.24.18-.25.12-.02.35.62.39.72.16.35.33.7.49,1.05.09.19.33.07.35-.09.16-1.43.11-2.86-.1-4.28-.01-.06-.07-.12-.13-.13-2.84-.77-5.27-2.64-7.45-4.56-.08-.07-.24-.08-.29.04-.41.89-1.27,1.78-2.3,1.9-.08.01-.16.05-.18.14-.35,1.24-.84,2.43-1.29,3.63-.08.23.28.32.36.1.45-1.2.94-2.39,1.29-3.63-.06.05-.12.09-.18.14,1.16-.13,2.15-1.06,2.63-2.08-.1.01-.2.03-.29.04,2.23,1.96,4.71,3.86,7.62,4.65l-.13-.13c.2,1.39.24,2.79.09,4.18.12-.03.23-.06.35-.09-.15-.32-.3-.64-.45-.95-.12-.26-.23-.61-.4-.84-.22-.29-.54-.15-.72.08-.2.27-.38.54-.57.81-.08.11-.16.28-.26.37-.08.07-.07.06-.14-.01-.22-.22-.38-.54-.55-.79-.18-.26-.35-.52-.54-.77-.18-.25-.54-.34-.74-.03-.1.16-.13.39-.18.57-.19.65-.38,1.31-.57,1.96.11-.01.23-.03.34-.04-.39-.74-.78-1.49-1.18-2.23-.05-.09-.09-.21-.17-.29-.2-.21-.51-.13-.66.09-.21.3-.36.66-.53.98-.13.23-.25.46-.38.7-.04.07-.13.35-.25.28-.06-.04-.11-.32-.13-.39-.09-.26-.17-.52-.26-.78-.11-.34-.19-.72-.35-1.04-.12-.25-.42-.33-.65-.15-.11.09-.18.23-.26.35-.16.24-.31.48-.47.71-.08.12-.16.25-.24.37-.04.06-.09.19-.15.23-.01.01-.02.05-.03.05-.09.01-.13-.19-.15-.25-.07-.21-.15-.43-.22-.64-.17-.5-.34-1-.5-1.51-.1-.27-.46-.18-.39.06Z"/>
      <path d="m12.38,22.26c.38.39.76.79,1.13,1.2.21.22.4.48.63.69.18.16.48.06.71.03,1.35-.19,2.6-.74,3.71-1.52.09-.06.14-.21.04-.29-.91-.76-1.35-1.83-1.08-3.01.22-.97.9-1.73,1.77-2.17.12-.06.11-.21.04-.29-.32-.4-.65-.79-1.02-1.14-.18-.17-.36-.33-.55-.48-.13-.1-.24-.22-.4-.24-.18-.02-.42.06-.62.07-.21.01-.42.01-.63,0-.22-.01-.44-.03-.66-.06-.13-.02-.2.13-.18.24.05.29.11.57.16.86.03.16.08.32.09.48.01.12-.01.16-.11.22-.52.3-1.16.38-1.69.66-.31.16-.29.45-.21.74.09.34.19.68.28,1.02.08.29.22.61.25.9.02.22-.24.34-.4.46-.33.26-.66.51-.99.77-.28.21-.58.49-.3.85.14.19.47,0,.32-.19-.17-.22.42-.54.53-.63.29-.22.58-.45.87-.67.22-.17.4-.33.34-.64-.05-.24-.13-.48-.2-.72-.1-.36-.2-.73-.3-1.09-.03-.09-.08-.21-.08-.3-.01-.15.05-.14.15-.2.53-.29,1.19-.35,1.7-.67.35-.22.21-.61.15-.94-.06-.33-.13-.67-.19-1-.06.08-.12.16-.18.24.56.07,1.15.1,1.71.02.08-.01.15-.03.22,0,.09.04.2.16.27.23.16.14.32.28.47.42.34.33.65.69.95,1.07.01-.1.03-.2.04-.29-.98.5-1.74,1.39-1.96,2.48-.26,1.28.2,2.46,1.19,3.29.01-.1.03-.2.04-.29-1.03.73-2.18,1.24-3.43,1.45-.15.02-.3.05-.44.06s-.15-.03-.25-.13c-.19-.21-.38-.42-.57-.62-.34-.37-.68-.73-1.03-1.09-.19-.22-.46.05-.29.22Z"/>
    </g>
  </g>
</svg>