<?xml version="1.0" encoding="UTF-8"?>
<svg id="Layer_2" data-name="Layer 2" xmlns="http://www.w3.org/2000/svg" viewBox="0 0 33.2 41.3">
  <g id="Layer_1-2" data-name="Layer 1">
    <g>
      <path d="m3.43,10.43c1.2-1.51,2.57-2.94,4.16-4.03,1.49-1.02,3.11-1.97,4.9-2.32.92-.18,1.88-.19,2.79.08.8.23,1.48.79,1.98,1.44.26.33.47.69.62,1.08.13.36.14.71.18,1.09.04.42.26.85.69.97.42.12.84-.11,1.1-.44.42-.54.44-1.26.43-1.91-.02-1.43-.4-2.87-1.29-4.01-1.03-1.32-2.64-2.05-4.27-2.29-1.92-.28-3.88.16-5.66.88C5.81,2.28,3.05,4.59.82,7.26c-.27.32-.52.64-.78.97-.15.19.18.38.32.19C2.42,5.74,4.97,3.36,8.01,1.85c1.65-.82,3.45-1.4,5.3-1.46,1.73-.06,3.63.47,4.91,1.69,1.03.99,1.55,2.38,1.66,3.79.05.67.12,1.5-.25,2.1-.2.31-.63.61-.97.31-.17-.16-.23-.4-.23-.63-.01-.34-.04-.65-.15-.97-.23-.7-.67-1.32-1.2-1.83-1.17-1.13-2.76-1.4-4.33-1.17-1.69.26-3.26,1.07-4.68,1.98-1.5.97-2.83,2.14-4.01,3.47-.31.34-.6.7-.89,1.06-.16.16.11.43.26.24h0Z"/>
      <g>
        <path d="m6.88,35.61c2.21,3.25,5.93,5.42,9.86,5.67,1.99.13,4-.39,5.8-1.21,1.82-.82,3.46-2,4.81-3.48,2.51-2.76,4.02-6.28,4.63-9.94.6-3.63.38-7.4-.52-10.97-.22-.87-.48-1.73-.78-2.57-.05-.15-.09-.4-.21-.51-.14-.14-.47-.2-.65-.26-.52-.18-1.05-.31-1.58-.41-2.25-.41-4.55-.25-6.82-.12-.61.04-1.21.07-1.82.1-.06,0-.13.03-.16.09-1.78,3.65-2.92,7.54-3.03,11.61-.03,1.35.04,2.69.19,4.03.12-.02.25-.03.37-.05-.68-2.03-1.2-4.12-1.48-6.24-.28-2.15-.33-4.38.15-6.51.25-1.14.67-2.24,1.27-3.24.06-.11,0-.24-.11-.28-1.06-.32-2.22-.33-3.32-.31-1.12.02-2.25.1-3.37.22-.35.04-.7.08-1.04.12-.29.04-.39.09-.64.28-.91.69-1.69,1.51-2.35,2.44-2.81,3.99-3.08,9.4-2.15,14.05.51,2.67,1.46,5.26,2.95,7.49.13.2.46.01.32-.19-1.28-1.92-2.15-4.11-2.69-6.35-.58-2.36-.8-4.82-.61-7.24.19-2.32.77-4.64,1.95-6.66.57-.98,1.28-1.87,2.12-2.63.21-.19.42-.37.65-.54.1-.08.19-.17.31-.21.19-.06.46-.06.67-.08,1.13-.13,2.27-.23,3.41-.27,1.22-.04,2.52-.07,3.7.28-.04-.09-.07-.18-.11-.28-2.28,3.78-1.9,8.64-.97,12.77.27,1.19.6,2.36.99,3.51.06.19.39.17.37-.05-.48-4.24-.02-8.47,1.49-12.47.38-1.02.82-2.01,1.3-2.98-.05.03-.11.06-.16.09,3.52-.18,7.34-.76,10.7.62l-.13-.13c1.04,2.75,1.63,5.67,1.75,8.61.12,3.01-.25,6.06-1.26,8.9-1.02,2.85-2.73,5.55-5.09,7.47-2.51,2.04-5.93,3.43-9.21,3.1-3.24-.33-6.32-1.96-8.41-4.45-.27-.32-.52-.66-.76-1-.14-.21-.47-.02-.33.18Z"/>
        <path d="m8.95,11.75c1.21-1.42,2.74-2.36,4.59-2.65.14-.02.18-.22.08-.31-.85-.82-2.06-1.13-3.16-1.44v.36c1.22-.47,2.56-.79,3.86-.55.86.15,1.64.54,2.34,1.05.52.38.99.86,1.55,1.19.68.4,1.45.18,2.06-.28,1.09-.82,1.64-2.16,2.35-3.28-.11-.01-.23-.03-.34-.04.3.85.3,1.64.14,2.52-.03.15.13.31.28.21.87-.56,1.69-1.2,2.39-1.98.75-.84,1.36-1.79,1.9-2.77-.11-.01-.23-.03-.34-.04.38,1.09.59,2.31.33,3.45-.32,1.43-1.4,2.38-2.74,2.87-.23.08-.14.4.1.36,1.31-.22,2.68-.3,3.98.02,1.23.31,2.31,1,3.14,1.95.58.67,1.03,1.43,1.41,2.23.1-.08.2-.15.29-.23-1.3-1.24-2.91-2.02-4.66-2.38-1.8-.37-3.66-.34-5.5-.26-1.14.05-2.28.14-3.42.19-.06,0-.13.03-.16.09-1.78,3.65-2.92,7.54-3.03,11.61-.03,1.35.04,2.7.19,4.04.12-.02.25-.03.37-.05-.67-2.03-1.2-4.12-1.48-6.24-.28-2.15-.33-4.38.15-6.5.26-1.14.67-2.24,1.28-3.24.06-.11,0-.24-.11-.28-1.2-.36-2.52-.34-3.76-.3-1.18.04-2.35.14-3.52.28-.25.03-.5.06-.75.1-.24.03-.14.4.1.36,1.93-.28,3.93-.45,5.88-.36.66.03,1.32.09,1.95.28-.04-.09-.07-.18-.11-.28-2.29,3.77-1.91,8.63-.97,12.76.27,1.19.6,2.36.98,3.51.06.19.39.17.37-.05-.48-4.24-.02-8.47,1.49-12.47.38-1.02.82-2.01,1.3-2.99-.05.03-.11.06-.16.09,1.89-.1,3.78-.26,5.67-.24,1.74.02,3.53.21,5.14.92.93.41,1.76.97,2.49,1.67.16.15.39-.04.29-.23-.65-1.35-1.53-2.62-2.78-3.47-1.09-.74-2.38-1.07-3.69-1.11-.83-.02-1.67.06-2.49.2.03.12.07.24.1.36,1.42-.51,2.59-1.5,2.98-3,.32-1.24.11-2.58-.3-3.78-.05-.15-.26-.19-.34-.04-.53.95-1.11,1.88-1.85,2.7-.68.75-1.47,1.37-2.32,1.92.09.07.18.14.28.21.17-.95.18-1.8-.14-2.72-.05-.15-.25-.18-.34-.04-.65,1.01-1.13,2.17-2.03,2.99-.37.34-.88.64-1.4.61-.21-.01-.41-.12-.58-.24-.54-.35-1-.81-1.52-1.18-.7-.5-1.5-.88-2.35-1.03-1.38-.25-2.77.05-4.06.55-.16.06-.19.31,0,.36,1.04.29,2.2.57,3,1.35.03-.1.06-.21.08-.31-1.91.3-3.51,1.28-4.76,2.74-.14.18.13.45.28.26Z"/>
        <g>
          <path d="m6.93,18.63c-.02-.9.31-1.86.89-2.55.35-.42,1.09-.98,1.56-.38.2.25.22.6.2.91-.02.4-.14.79-.28,1.16-.25.62-.62,1.24-1.22,1.57-.22.12-.53.25-.78.15-.31-.14-.35-.57-.37-.86-.01-.24-.38-.24-.38,0,.01.39.09.84.42,1.09.25.19.59.2.89.11.75-.23,1.27-.86,1.6-1.54.37-.74.71-1.78.35-2.58-.15-.34-.47-.59-.84-.64-.4-.05-.77.14-1.06.38-.89.74-1.38,2.04-1.36,3.18,0,.24.39.24.38,0Z"/>
          <path d="m8.15,23.89c-.23-.71-.21-1.5.03-2.2.14-.4.48-1.06,1.01-.87.52.19.59.97.59,1.43,0,.59-.09,1.26-.44,1.75-.14.2-.36.44-.62.48-.32.04-.49-.35-.57-.59-.08-.23-.44-.13-.36.1.12.35.31.74.7.85.31.08.61-.07.84-.26.57-.48.76-1.23.82-1.94.05-.66,0-1.57-.56-2.02-.24-.19-.58-.26-.87-.15-.31.11-.53.38-.69.66-.47.84-.52,1.96-.23,2.86.06.22.42.13.35-.1Z"/>
          <path d="m28.87,25.77c-.23-.71-.21-1.5.03-2.2.14-.4.48-1.06,1.01-.87.52.19.59.97.59,1.43,0,.59-.09,1.26-.44,1.75-.14.2-.36.44-.62.48-.32.05-.49-.34-.57-.59-.08-.23-.44-.13-.36.1.12.35.31.74.7.85.31.08.61-.07.84-.26.57-.48.76-1.23.82-1.94.05-.66,0-1.57-.56-2.02-.24-.19-.58-.26-.87-.15-.31.11-.53.38-.69.66-.47.84-.52,1.96-.23,2.86.06.23.42.13.35-.1Z"/>
          <path d="m27.27,18.83c-.34-.6-.49-1.31-.45-1.99.03-.4.15-1.12.64-1.22.54-.1.84.55.98.96.19.58.28,1.29.11,1.89-.08.29-.24.62-.51.78-.34.2-.62-.16-.77-.42-.12-.21-.45-.02-.32.19.2.33.51.7.94.67.34-.03.6-.3.78-.57.41-.66.39-1.51.24-2.24-.13-.61-.44-1.48-1.15-1.61-.69-.13-1.1.49-1.24,1.08-.2.89-.03,1.9.43,2.68.11.19.44.01.32-.2Z"/>
          <path d="m15.45,33.52c-.34-.72-.39-1.59-.21-2.37.12-.51.43-1.26,1.07-1.25.65.01.89.8.97,1.32.11.69.07,1.52-.28,2.14-.16.29-.41.61-.73.73-.41.15-.67-.25-.82-.57-.11-.22-.43-.03-.32.19.19.38.49.78.95.79.38.01.71-.24.95-.51.57-.66.72-1.55.67-2.4-.04-.72-.26-1.72-1.03-2s-1.38.37-1.64,1.02c-.39.97-.34,2.15.1,3.1.1.22.42.03.32-.19Z"/>
          <path d="m12.33,26.83c-.39-.65-.57-1.43-.54-2.19.02-.46.13-1.26.67-1.41.6-.17.99.54,1.15,1.01.23.64.35,1.45.18,2.12-.08.34-.25.72-.55.92-.39.26-.72-.15-.91-.45-.13-.2-.45-.02-.32.19.23.37.58.77,1.06.72.38-.04.66-.35.84-.67.43-.75.39-1.7.19-2.51-.16-.67-.53-1.59-1.3-1.72-.75-.12-1.18.56-1.31,1.21-.2.99.01,2.1.52,2.97.12.2.44.02.32-.19Z"/>
          <path d="m21.07,32.15c-.34-.56-.5-1.24-.47-1.9.02-.39.11-1.07.57-1.2.51-.15.83.47.97.86.2.56.3,1.25.16,1.83-.07.29-.22.62-.47.79-.32.22-.6-.13-.76-.38-.13-.2-.45-.02-.32.19.21.33.51.68.94.64.34-.04.59-.31.75-.59.38-.66.34-1.49.17-2.2-.14-.59-.46-1.4-1.15-1.51-.67-.11-1.05.49-1.17,1.07-.18.87,0,1.84.46,2.6.12.2.45.01.32-.2Z"/>
          <path d="m25,25.53c-.39-.65-.57-1.43-.54-2.19.02-.46.13-1.26.67-1.41.6-.17.99.54,1.15,1.01.23.64.35,1.45.18,2.12-.08.34-.25.72-.55.92-.38.26-.71-.14-.91-.45-.13-.2-.45-.02-.32.19.23.37.58.77,1.06.72.38-.04.66-.35.84-.67.43-.75.39-1.7.19-2.51-.16-.67-.53-1.59-1.3-1.72-.75-.12-1.18.56-1.31,1.21-.2.99.01,2.1.52,2.97.12.21.45.02.32-.19Z"/>
          <path d="m19.61,26.4c-.42-.65-.59-1.45-.55-2.21.03-.52.19-1.31.76-1.51.64-.22,1.07.44,1.25.96.24.66.34,1.48.15,2.16-.1.36-.3.76-.61.98-.41.28-.77-.04-1-.38-.13-.2-.46-.01-.32.19.25.37.62.74,1.1.67.4-.06.7-.39.9-.72.47-.77.46-1.75.26-2.6-.16-.7-.56-1.6-1.38-1.68-.8-.08-1.26.67-1.41,1.35-.22.99-.03,2.13.52,2.98.13.2.46,0,.33-.19Z"/>
          <path d="m10.48,34.11c-.37-.76-.49-1.68-.35-2.52.09-.51.32-1.34.96-1.35.68-.01.96.84,1.08,1.37.16.72.2,1.61-.1,2.3-.14.31-.36.68-.69.82-.43.18-.73-.3-.9-.62-.11-.21-.43-.03-.32.19.2.4.53.84,1.02.85.39,0,.71-.28.94-.57.55-.72.61-1.7.51-2.58-.09-.75-.35-1.79-1.16-2.08-.79-.28-1.36.41-1.58,1.09-.34,1.05-.21,2.3.27,3.29.11.21.43.02.32-.19Z"/>
          <path d="m11.45,19.08c-.07-.78.14-1.6.57-2.25.25-.37.8-.89,1.23-.44.17.18.22.46.23.7.01.34-.05.67-.14.99-.16.54-.41,1.12-.87,1.46-.17.13-.42.26-.63.22-.29-.05-.37-.43-.39-.68-.03-.24-.4-.24-.38,0,.04.35.13.75.45.96.25.16.56.12.81.01.63-.27,1-.88,1.24-1.5.25-.65.45-1.56.09-2.21-.16-.28-.45-.48-.77-.49-.34-.02-.65.18-.88.41-.71.7-1.03,1.85-.94,2.83.02.23.4.23.38-.01Z"/>
          <path d="m24.98,32.63c-.34-.77-.41-1.68-.23-2.49.11-.49.4-1.3,1.04-1.21.63.09.85.94.93,1.45.11.7.1,1.55-.23,2.18-.15.28-.38.61-.7.71-.41.13-.67-.34-.81-.64-.1-.22-.43-.03-.32.19.18.39.47.82.94.85.37.02.69-.22.92-.49.56-.67.67-1.58.62-2.43-.05-.73-.25-1.76-.99-2.11-.76-.35-1.36.27-1.62.94-.39,1.01-.3,2.25.14,3.24.08.22.41.03.31-.19Z"/>
          <path d="m22.55,19.02c-.51-.48-.82-1.14-.93-1.83-.08-.48-.08-1.2.38-1.51.61-.41,1.17.29,1.42.77.32.59.53,1.32.37,1.99-.06.28-.18.6-.41.78-.29.21-.61,0-.83-.2-.18-.16-.45.1-.27.27.28.25.64.47,1.03.37.32-.08.55-.37.68-.65.35-.75.24-1.58-.06-2.32-.27-.66-.83-1.59-1.67-1.48-.77.09-1.06.87-1.06,1.55,0,.93.4,1.9,1.08,2.54.18.15.44-.11.27-.28Z"/>
          <path d="m15.46,38.45c-.35-.42-.48-1.02-.4-1.56.07-.47.32-.97.81-1.09.56-.14,1,.41,1.18.87.21.56.17,1.21-.2,1.7-.16.21-.39.39-.66.42-.3.04-.55-.13-.73-.34-.16-.18-.42.08-.27.27.22.26.52.44.87.46.31.02.61-.12.85-.32.57-.48.75-1.31.58-2.02-.15-.66-.64-1.37-1.37-1.43-.68-.06-1.19.51-1.37,1.11-.22.74-.06,1.6.44,2.19.15.19.42-.08.27-.26Z"/>
          <path d="m7.31,29.95c-.54-.55-.9-1.27-1.05-2.02-.09-.45-.16-1.26.33-1.53.64-.34,1.23.47,1.49.94.34.6.62,1.38.52,2.08-.04.28-.14.64-.38.83-.31.24-.68-.08-.91-.3-.17-.17-.44.1-.27.27.29.28.68.57,1.1.48.33-.07.55-.36.67-.65.34-.8.13-1.7-.21-2.47-.3-.68-.9-1.67-1.77-1.62-.79.05-1.04.85-1.01,1.53.04,1,.51,2.02,1.21,2.73.19.17.45-.1.28-.27Z"/>
          <path d="m20.77,37.66c-.47-.48-.71-1.15-.7-1.82,0-.49.14-1.13.62-1.37.59-.3,1.08.34,1.32.79.17.33.29.69.36,1.05.06.3.08.58-.03.88-.1.3-.31.6-.6.74-.36.17-.7-.02-.97-.27-.17-.17-.44.1-.27.27.3.29.69.51,1.13.42.36-.07.65-.33.85-.62.46-.69.32-1.53.03-2.26-.25-.64-.77-1.52-1.58-1.46-.72.06-1.1.76-1.2,1.4-.14.9.14,1.86.78,2.51.17.18.43-.09.26-.26Z"/>
        </g>
      </g>
    </g>
  </g>
</svg>