<?xml version="1.0" encoding="UTF-8"?>
<svg id="Layer_2" data-name="Layer 2" xmlns="http://www.w3.org/2000/svg" viewBox="0 0 40.66 36.4">
  <g id="Layer_1-2" data-name="Layer 1">
    <g>
      <path d="m38.5,27.7c-2.6,2.72-5.12,5.74-8.38,7.71-.38.23-.78.49-1.23.57-.44.08-.88-.01-1.29-.18-.88-.36-1.6-1.06-2.2-1.78-.62-.74-1.2-1.52-1.82-2.26-.55-.66-1.16-1.3-1.99-1.59-.37-.13-.74-.15-1.12-.11-.4.05-.78-.06-1.19.04-.84.2-1.5.81-2.05,1.45-.63.74-1.21,1.52-1.82,2.27-.6.73-1.28,1.43-2.12,1.86-.39.2-.82.33-1.26.32-.48-.02-.88-.24-1.29-.48-.81-.47-1.57-1.01-2.3-1.6-1.5-1.21-2.85-2.59-4.18-3.99-.65-.68-1.29-1.37-1.94-2.05-.56-.59-1.02-1.23-1.35-1.98-.65-1.51-.78-3.26-.39-4.85.1-.4.23-.79.39-1.17-.11-.01-.23-.03-.34-.04.39,1.53,2.18,1.96,3.53,2.19.94.16,1.88.24,2.81.45,1.2.27,2.37.65,3.53,1.04.18.06.32-.19.18-.31-1.16-1.1-2.07-2.49-2.66-3.98-.58-1.46-.9-3.09-.64-4.65.14-.86.46-1.67.97-2.38-.05.03-.11.06-.16.09,1.75.06,3.26,1.41,4.36,2.65.13.14.36-.01.31-.18-.66-2.36-.29-4.96.99-7.05,1.18-1.92,3.12-3.1,4.7-4.64.83-.81,1.55-1.74,1.93-2.85h-.36c.69,2.05,2.49,3.37,4.07,4.72.85.72,1.68,1.48,2.31,2.4.68,1,1.15,2.13,1.39,3.31.27,1.36.22,2.77-.15,4.11-.05.17.19.33.31.18,1.1-1.24,2.61-2.59,4.36-2.65-.05-.03-.11-.06-.16-.09,1.89,2.69.98,6.37-.65,8.95-.48.75-1.04,1.45-1.68,2.06-.13.13,0,.37.18.31,1.17-.39,2.33-.77,3.53-1.04.93-.21,1.87-.29,2.81-.45,1.35-.23,3.14-.66,3.53-2.19-.11.01-.23.03-.34.04,1.14,2.51.77,5.79-1.13,7.82-.17.18.1.44.27.27,2.03-2.16,2.4-5.61,1.22-8.27-.07-.15-.31-.1-.34.04-.38,1.48-2.31,1.79-3.59,1.98-.91.14-1.82.24-2.73.46-1.12.27-2.21.62-3.3.99.06.1.12.21.18.31,1.69-1.61,2.91-3.82,3.34-6.11.21-1.13.23-2.3-.05-3.41-.14-.53-.34-1.04-.61-1.51-.1-.18-.22-.48-.44-.52-.26-.05-.65.07-.9.13-1.48.4-2.73,1.5-3.73,2.63.1.06.21.12.31.18.65-2.32.34-4.85-.81-6.96-1.11-2.04-3.03-3.29-4.69-4.83-.9-.83-1.71-1.78-2.11-2.95-.06-.18-.3-.18-.36,0-.73,2.14-2.74,3.45-4.36,4.87-.84.73-1.62,1.53-2.21,2.48-.64,1.04-1.08,2.21-1.27,3.41-.21,1.32-.15,2.68.21,3.97.1-.06.21-.12.31-.18-.9-1.02-1.98-1.97-3.26-2.47-.29-.11-.59-.2-.89-.25-.26-.04-.52-.12-.69.12-.31.45-.55.95-.73,1.47-.73,2.22-.18,4.7.83,6.73.59,1.18,1.38,2.28,2.34,3.19.06-.1.12-.21.18-.31-1.09-.36-2.18-.72-3.3-.99-.9-.21-1.81-.32-2.73-.46-1.28-.19-3.21-.5-3.59-1.98-.04-.14-.28-.2-.34-.04C0,21.19-.16,22.87.15,24.47c.15.81.43,1.59.84,2.3.43.75,1.02,1.34,1.61,1.96,1.37,1.46,2.74,2.93,4.21,4.28.71.65,1.45,1.28,2.23,1.85.7.51,1.48,1.1,2.3,1.4,1.77.64,3.43-1.05,4.44-2.29.64-.79,1.24-1.62,1.92-2.38.62-.7,1.5-1.31,2.48-1.14.21.04.41-.03.62-.03.23,0,.46.04.68.12.46.16.87.46,1.21.8.7.69,1.28,1.52,1.89,2.29,1.01,1.27,2.51,3.04,4.35,2.72.43-.07.82-.3,1.19-.52.4-.24.8-.49,1.18-.76.77-.54,1.5-1.14,2.2-1.77,1.49-1.34,2.86-2.81,4.24-4.26.34-.36.67-.71,1.01-1.07.18-.17-.08-.44-.25-.26Z"/>
      <path d="m32.14,28.04c-.46,1.49-2.1,2.23-3.54,2.4-.66.08-1.36.06-1.99-.16-.65-.23-1.22-.74-1.77-1.14-.67-.49-1.36-.95-2.13-1.26-.94-.38-1.98-.51-2.99-.42-.91.08-1.78.37-2.58.81-.71.39-1.34.9-1.99,1.37-.55.39-1.06.7-1.73.8-.72.1-1.46.03-2.16-.15-.72-.19-1.43-.52-1.98-1.04-.26-.25-.48-.54-.63-.87-.07-.14-.2-.39-.11-.55.08-.13.3-.17.44-.13.21.07.39.32.56.46.21.17.42.32.64.46.41.26.87.47,1.34.58.96.23,1.97.05,2.8-.46.79-.49,1.46-1.26,1.71-2.17.04-.16.13-.42.09-.58-.05-.18-.32-.36-.45-.49-.35-.36-.69-.74-.99-1.15-.59-.79-1.03-1.71-1.06-2.71-.01-.26.01-.52.05-.78.03-.19.02-.49.23-.56.49-.17.46.51.51.81.28,1.65,1.12,3.22,2.64,4.02.39.21.8.36,1.22.46.09.02.21-.03.23-.13.28-1.22.36-2.44-.12-3.62-.5-1.24-1.31-2.32-1.67-3.62-.31-1.13-.29-2.31.11-3.42.36-.98.97-1.84,1.63-2.64.68-.82,1.43-1.58,2.05-2.45h-.32c1.15,1.61,2.73,2.9,3.54,4.74.46,1.05.59,2.21.35,3.34-.28,1.35-1.05,2.47-1.62,3.7-.25.54-.43,1.09-.49,1.69-.08.76.05,1.54.22,2.28.02.1.14.16.23.13,1.43-.36,2.6-1.27,3.26-2.6.33-.67.53-1.41.64-2.15.02-.16,0-.41.15-.52.1-.07.26-.07.36-.01.14.08.14.29.17.44.05.26.07.52.07.79-.02,1.78-1.24,3.09-2.4,4.29-.24.25-.04.74.08,1.03.15.37.36.71.62,1.02.54.64,1.28,1.11,2.09,1.31.93.22,1.88.06,2.72-.38.44-.23.84-.53,1.21-.85.16-.14.27-.3.5-.27.17.02.3.15.26.35-.05.24.31.34.36.1.13-.59-.5-1.03-1.04-.75-.16.08-.28.23-.41.34-.2.18-.41.34-.63.49-.41.27-.85.49-1.33.61-.97.24-1.99.01-2.8-.57-.39-.28-.73-.64-.98-1.05-.12-.19-.22-.4-.29-.61-.04-.11-.07-.23-.09-.35-.03-.15,0-.16.1-.27,1.19-1.2,2.34-2.62,2.38-4.39,0-.57.03-1.67-.76-1.69-.82-.02-.73,1.01-.86,1.57-.2.87-.57,1.72-1.17,2.39-.62.7-1.44,1.14-2.34,1.37.08.04.15.09.23.13-.16-.71-.28-1.45-.2-2.18.06-.55.24-1.07.47-1.56.58-1.22,1.33-2.34,1.62-3.68.24-1.1.17-2.24-.23-3.3-.37-.97-.96-1.83-1.62-2.63-.68-.83-1.45-1.6-2.08-2.48-.09-.12-.24-.12-.32,0-1.16,1.63-2.74,2.91-3.56,4.78-.44,1-.6,2.09-.45,3.17.2,1.39.9,2.57,1.53,3.8.28.54.52,1.1.61,1.7.13.8,0,1.61-.18,2.39.08-.04.15-.09.23-.13-.91-.23-1.74-.69-2.36-1.4-.61-.7-.98-1.58-1.17-2.48-.05-.24-.09-.48-.12-.72-.02-.19-.05-.37-.19-.52-.2-.22-.55-.26-.82-.13-.37.17-.39.63-.43.99-.06.52-.04,1.04.08,1.55.23.96.78,1.81,1.42,2.56.15.18.31.36.48.53.14.15.46.38.49.56.03.21-.13.54-.22.73-.12.26-.28.51-.47.73-.72.87-1.84,1.39-2.98,1.29-.56-.05-1.1-.26-1.58-.54-.24-.14-.47-.3-.69-.48-.19-.15-.37-.37-.58-.49-.26-.15-.63-.11-.87.08-.3.25-.23.6-.1.92.28.7.82,1.25,1.45,1.64,1.22.75,2.91,1.06,4.3.66.69-.2,1.26-.68,1.83-1.1.72-.53,1.46-1.06,2.3-1.39,1.04-.4,2.2-.51,3.29-.31.95.17,1.82.59,2.61,1.13.67.46,1.3,1.01,2,1.41.56.32,1.22.42,1.85.42,1.48.01,3.16-.52,4.1-1.73.23-.3.4-.63.51-.99.11-.25-.25-.35-.32-.12Z"/>
    </g>
  </g>
</svg>