<?xml version="1.0" encoding="UTF-8"?>
<svg id="Layer_2" data-name="Layer 2" xmlns="http://www.w3.org/2000/svg" viewBox="0 0 51.75 36.72">
  <g id="Layer_1-2" data-name="Layer 1">
    <g>
      <g>
        <path d="m25.88,36.34c-3.75-.49-7.78-2.22-9.39-5.89-1.34-3.05-.38-6.76,2.31-8.75,1.8-1.33,4.08-1.61,6.22-1.09.15.04.3.08.46.12.12.04.28.12.41.12.12,0,.25-.07.36-.1.18-.05.37-.1.56-.15.6-.14,1.21-.23,1.83-.24,1.07-.02,2.15.17,3.12.62,3.13,1.44,4.79,5.12,3.9,8.42-.99,3.65-4.5,5.8-7.99,6.61-.6.15-1.2.26-1.79.33-.24.03-.24.41,0,.38,3.91-.51,8.11-2.31,9.76-6.16,1.38-3.2.37-7.02-2.42-9.13-1.83-1.38-4.17-1.7-6.37-1.22-.17.04-.34.08-.5.12-.15.04-.31.12-.46.12s-.32-.08-.46-.12c-.2-.05-.4-.1-.6-.15-.58-.12-1.17-.19-1.77-.2-1.11-.01-2.21.21-3.22.67-3.27,1.5-5,5.37-4.08,8.81,1.02,3.81,4.66,6.08,8.3,6.92.6.14,1.21.24,1.83.32.22.05.22-.33-.01-.36Z"/>
        <path d="m15.93,15.62c.32-3.22-1.86-6.66-4.68-8.11-2.74-1.41-6.06-.59-8.35,1.3-1.13.93-2.02,2.14-2.54,3.51-.24.63-.75,2.09.14,2.47.56.23,1.25-.14,1.73-.39.78-.41,1.56-.86,2.38-1.17,1.54-.58,3.53-.66,4.95.29,1.09.73,1.69,1.95,2.68,2.79.82.7,2.47,1.31,3.31.3.24-.29.33-.63.38-.99.03-.24-.34-.24-.38,0-.21,1.62-2.12,1.18-3.02.43-.91-.76-1.49-1.83-2.4-2.58-1.13-.92-2.71-1.18-4.12-1-1.56.21-2.85,1.07-4.24,1.73-.31.15-1.06.51-1.3.07-.19-.35-.05-.87.04-1.22.33-1.24,1.03-2.38,1.92-3.3,1.94-2.01,4.98-3.16,7.72-2.29,1.47.47,2.71,1.52,3.64,2.73.95,1.25,1.65,2.77,1.77,4.36.03.36.02.72-.01,1.08-.02.23.35.23.38-.01Z"/>
        <path d="m13.9,21.31c-.8,1.83-1.32,3.75-1.32,5.75-.01,2.09.49,4.15,1.05,6.15.09-.07.18-.14.28-.21-2.1-1.45-4.01-3.14-5.83-4.92-.9-.89-1.78-1.8-2.66-2.71-.44-.46-.88-.92-1.31-1.38-.42-.44-.86-.86-1.22-1.35-1.08-1.47-1.36-3.55.02-4.93,1.47-1.47,3.92-1.59,5.76-.85,2.19.88,3.89,2.77,5.25,4.64.14.19.47.01.32-.19-1.28-1.76-2.82-3.48-4.78-4.49-1.9-.98-4.33-1.12-6.18.11-1.58,1.05-2.07,2.99-1.38,4.72.45,1.11,1.28,1.92,2.1,2.78.94.99,1.88,1.97,2.83,2.94,2.14,2.17,4.38,4.24,6.89,5.96.14.09.32-.06.28-.21-.55-1.94-1.03-3.93-1.04-5.96-.01-1.97.49-3.86,1.27-5.65.09-.23-.23-.42-.33-.2Z"/>
        <g>
          <path d="m15.51,19.8c-.21-.16-.34-.4-.34-.66s.11-.51.32-.67c.43-.33,1.08-.16,1.29.34.11.28.06.59-.12.83-.06.08.02.19.11.19h.01c-.03-.07-.06-.14-.09-.21-.3.38-.8.45-1.2.17-.13-.09-.26.12-.13.22.48.35,1.13.25,1.5-.21.07-.08.03-.21-.09-.21h-.01c.04.06.07.13.11.19.2-.26.27-.62.18-.94-.09-.33-.34-.59-.66-.72-.66-.26-1.39.21-1.46.9-.04.37.12.74.41.97.05.04.12.05.18,0,.04-.05.05-.14,0-.19Z"/>
          <path d="m17.04,17.86c-.22-.25-.27-.62-.12-.92.15-.3.48-.48.82-.45.33.02.63.27.72.59.1.32-.02.68-.28.89-.34.28-.85.22-1.14-.11-.11-.12-.28.06-.18.18.33.37.88.47,1.32.23.39-.21.62-.66.56-1.1-.06-.43-.39-.81-.82-.91s-.88.07-1.14.43c-.29.41-.24.97.09,1.34.1.13.27-.05.17-.17Z"/>
          <path d="m18.95,16.31c-.13-.3-.07-.67.16-.91.24-.25.61-.32.92-.19s.51.44.51.78-.21.64-.53.77c-.41.16-.87-.07-1.06-.45-.07-.14-.29-.02-.22.13.21.43.68.68,1.15.61.45-.07.82-.45.89-.9.07-.44-.14-.88-.52-1.11-.38-.22-.87-.19-1.21.08-.4.31-.51.86-.31,1.32.07.14.28.01.22-.13Z"/>
          <path d="m21.24,15.39c-.05-.34.14-.69.44-.85s.7-.11.95.12c.26.24.34.62.21.94-.14.34-.48.53-.84.5-.4-.02-.7-.33-.76-.71-.03-.16-.27-.09-.24.07.08.43.41.79.85.88.45.09.92-.1,1.15-.5.23-.39.19-.91-.11-1.26-.28-.34-.78-.47-1.19-.32-.5.19-.77.68-.7,1.2.01.07.09.1.15.09.07-.02.1-.09.09-.16Z"/>
          <path d="m23.69,15.11c.01-.54.54-.96,1.07-.81.51.15.76.77.48,1.23-.15.25-.42.4-.71.41-.07,0-.12.06-.12.12h0s.08-.07.12-.11c-.46-.01-.84-.38-.84-.84,0-.16-.25-.16-.25,0,.01.59.49,1.08,1.09,1.09.07,0,.12-.06.12-.12h0s-.08.07-.12.11c.7-.01,1.23-.69,1.04-1.37s-.99-1.01-1.6-.63c-.32.2-.52.55-.53.93-.01.15.24.15.25,0Z"/>
        </g>
        <path d="m17.36,13.23c-.12-1.51-.7-2.95-1.51-4.22-.76-1.19-1.74-2.27-2.94-3.03.03.07.06.14.09.21.28-1.73,1.13-3.42,2.47-4.57,1.42-1.22,3.4-1.5,5.18-1,.9.25,1.68.76,2.17,1.56.46.77.67,1.67.72,2.56.11,1.83-.45,3.65-1.48,5.15-1.13,1.64-2.89,2.89-4.89,3.16-.24.03-.24.41,0,.38,3.88-.51,6.71-4.29,6.76-8.1.03-1.87-.58-3.93-2.4-4.78-1.71-.8-3.99-.74-5.6.27-1.8,1.13-2.96,3.21-3.3,5.27-.01.09.01.16.09.21,1.14.72,2.08,1.76,2.8,2.9.77,1.21,1.34,2.59,1.46,4.03.02.24.4.24.38,0Z"/>
        <path d="m14.05,14.91c-.3-.11-.53-.35-.74-.58-.28-.3-.53-.63-.79-.94-.48-.57-.99-1.11-1.59-1.55-1.49-1.08-3.54-1.37-5.33-1.09-1.03.16-2,.54-2.93,1,.09.09.17.17.26.26,1.09-1.68,3.02-2.94,5.05-3.05,2.17-.11,3.94,1.35,4.98,3.14.52.91.88,1.94.87,3,0,.24.37.24.38,0,.02-2.03-1.17-4.08-2.73-5.33-.9-.72-1.95-1.17-3.11-1.19-1.06-.02-2.11.28-3.04.77-1.1.58-2.04,1.43-2.71,2.47-.11.17.1.33.26.26.81-.4,1.65-.74,2.53-.91,1-.19,2.02-.17,3.02.03.88.17,1.69.49,2.41,1.03.58.43,1.06.97,1.51,1.52.46.55.92,1.28,1.63,1.54.19.06.29-.3.07-.38Z"/>
        <path d="m11.21,28.6c-2.18-1.96-4.17-4.1-6.19-6.22-.75-.79-1.77-1.98-1.09-3.12.36-.61,1.1-.88,1.75-1,.76-.15,1.53-.05,2.24.23,1.62.63,2.91,1.99,3.98,3.32-.02-.06-.03-.12-.05-.18-.86,2.29-1.21,4.67-.96,7.11.02.24.4.24.38,0-.23-2.34.07-4.63.89-6.84.1-.26.06-.3-.11-.51-.17-.21-.35-.42-.54-.63-.38-.42-.77-.82-1.19-1.18-.75-.65-1.6-1.23-2.56-1.54-1.5-.49-4.22-.16-4.4,1.83-.13,1.47,1.17,2.55,2.09,3.51,1.79,1.88,3.58,3.76,5.51,5.5.17.14.43-.12.25-.28Z"/>
        <path d="m18.71,10.92c-.69-2.17-2.02-4.16-3.75-5.64.02.06.03.12.05.18.36-1.05.99-2.08,1.91-2.72.97-.67,2.32-.74,3.42-.37.46.16.81.42,1.04.85.26.49.36,1.06.4,1.61.08,1.19-.22,2.37-.78,3.42-.59,1.08-1.46,1.99-2.55,2.56-.21.11-.02.44.19.32,2.23-1.17,3.67-3.75,3.53-6.25-.06-1.02-.34-2.24-1.35-2.72-1.08-.52-2.6-.53-3.67.01-1.23.63-2.05,1.92-2.49,3.19-.02.06,0,.14.05.18,1.69,1.44,2.98,3.36,3.66,5.48.05.23.41.13.34-.1Z"/>
      </g>
      <g>
        <path d="m36.21,15.62c-.3-3.07,1.74-6.32,4.42-7.75,2.56-1.36,5.73-.61,7.9,1.15,1.08.87,1.97,2.01,2.48,3.31.17.43.81,2.11-.1,2.14-.7.02-1.42-.53-2.01-.84-.67-.35-1.35-.69-2.06-.92-1.41-.44-3.15-.43-4.48.26-1.08.57-1.74,1.6-2.53,2.49-.38.43-.81.82-1.34,1.05-.52.22-1.27.36-1.77.03-.33-.2-.47-.56-.51-.92-.03-.24-.41-.24-.38,0,.09.68.42,1.26,1.12,1.44.6.15,1.27,0,1.81-.26,1.15-.56,1.8-1.74,2.66-2.63.49-.5,1.06-.92,1.75-1.12.91-.26,1.9-.34,2.83-.16.82.16,1.58.49,2.32.87.72.36,1.45.89,2.25,1.05.41.08.86.01,1.06-.4.19-.4.1-.91,0-1.32-.31-1.3-1.03-2.51-1.93-3.48-2.01-2.17-5.25-3.43-8.16-2.52-1.54.48-2.85,1.55-3.83,2.82-1.01,1.3-1.72,2.86-1.88,4.51-.04.4-.04.81,0,1.21.02.23.4.23.38,0Z"/>
        <path d="m37.53,21.5c.78,1.79,1.28,3.69,1.27,5.65-.01,2.03-.49,4.02-1.04,5.96-.04.15.14.31.28.21,2.23-1.54,4.26-3.35,6.19-5.25.97-.96,1.91-1.94,2.84-2.92.86-.9,1.85-1.76,2.48-2.85.92-1.6.88-3.65-.53-4.96-1.58-1.46-4.09-1.61-6.01-.84-2.29.92-4.05,2.85-5.47,4.81-.14.2.18.38.32.19,1.22-1.68,2.68-3.3,4.53-4.3,1.83-.98,4.21-1.14,5.98.09,1.58,1.1,1.79,3.12.9,4.74-.56,1.02-1.47,1.81-2.27,2.65-.87.92-1.75,1.83-2.64,2.73-2.02,2.03-4.14,3.96-6.5,5.59.09.07.18.14.28.21.56-2,1.06-4.06,1.05-6.15-.01-2-.53-3.92-1.32-5.75-.11-.22-.43-.03-.34.19Z"/>
        <g>
          <path d="m35.75,19.97c-.27,0-.51-.14-.68-.35-.03.07-.06.14-.09.21h.01c.09,0,.17-.11.11-.19-.18-.23-.23-.53-.13-.81s.36-.48.64-.53.57.06.76.27.25.51.17.79c-.09.36-.42.6-.79.61-.16,0-.16.25,0,.25.42-.01.81-.25.98-.63.15-.33.14-.74-.07-1.05-.2-.31-.57-.51-.94-.5s-.72.22-.91.55c-.21.37-.18.84.07,1.18.04-.06.07-.13.11-.19h-.01c-.12,0-.15.13-.09.21.21.26.52.42.85.42.17.01.17-.24.01-.24Z"/>
          <path d="m34.1,18.15c-.37,0-.71-.25-.81-.62-.09-.32.03-.67.29-.87.26-.21.63-.23.92-.07.3.16.47.5.42.84-.06.4-.41.71-.82.72-.16,0-.16.25,0,.25.48-.01.9-.33,1.03-.79.12-.41-.02-.88-.36-1.14-.35-.27-.83-.31-1.21-.09s-.6.66-.53,1.09c.07.53.54.93,1.07.93.16,0,.16-.25,0-.25Z"/>
          <path d="m32.04,16.8c-.37,0-.7-.25-.8-.61-.09-.32.03-.69.3-.89.27-.2.64-.22.93-.05.28.17.44.5.4.83-.05.41-.42.72-.83.72-.16,0-.16.25,0,.25.47-.01.89-.31,1.04-.76.13-.41,0-.89-.34-1.16-.34-.28-.83-.32-1.22-.11-.39.21-.6.66-.55,1.09.07.53.53.93,1.07.94.16,0,.16-.25,0-.25Z"/>
          <path d="m29.69,16.11c-.36,0-.68-.23-.79-.57-.11-.33,0-.71.28-.92.28-.22.67-.23.97-.04.29.19.44.55.36.89-.1.38-.44.64-.82.64-.16,0-.16.25,0,.25.45-.01.85-.27,1.01-.69.17-.41.04-.91-.29-1.2-.35-.3-.85-.36-1.25-.13-.4.22-.6.68-.53,1.12.08.52.54.9,1.07.9.15,0,.15-.25-.01-.25Z"/>
          <path d="m27.36,16.07h0c0-.08-.06-.13-.12-.13-.34,0-.67-.22-.78-.55-.11-.33-.01-.69.25-.92.27-.23.66-.26.96-.07.29.18.46.53.39.87-.08.39-.42.68-.82.69-.16,0-.16.25,0,.25.46-.01.86-.29,1.02-.72.16-.42.02-.92-.33-1.21-.35-.29-.86-.34-1.25-.09-.39.24-.59.7-.5,1.15.1.5.55.85,1.05.86-.04-.04-.08-.08-.12-.12h0c0,.15.25.15.25,0Z"/>
        </g>
        <path d="m34.77,13.23c.12-1.44.68-2.82,1.46-4.03.72-1.13,1.66-2.18,2.8-2.9.08-.05.1-.13.09-.21-.3-1.85-1.26-3.69-2.73-4.87C34.87,0,32.77-.27,30.92.28c-.91.28-1.71.8-2.23,1.6-.51.79-.75,1.74-.83,2.67-.16,1.96.43,3.95,1.55,5.56,1.22,1.75,3.06,3.02,5.19,3.3.24.03.24-.34,0-.38-3.64-.48-6.29-4.08-6.38-7.63-.04-1.77.48-3.74,2.21-4.55,1.63-.76,3.82-.65,5.33.34,1.66,1.1,2.7,3.05,3.02,4.98.03-.07.06-.14.09-.21-1.2.76-2.18,1.84-2.94,3.03-.81,1.27-1.38,2.71-1.51,4.22-.04.26.33.26.35.02Z"/>
        <path d="m37.81,15.27c.63-.23,1.06-.84,1.47-1.34.44-.53.88-1.06,1.41-1.51,1.44-1.22,3.49-1.59,5.32-1.32,1.02.15,1.98.52,2.9.97.16.08.37-.09.26-.26-1.16-1.79-3.18-3.1-5.33-3.23-2.3-.14-4.21,1.38-5.32,3.28-.57.97-.95,2.09-.94,3.23,0,.24.38.24.38,0-.02-1.9,1.09-3.78,2.51-4.98.84-.7,1.84-1.15,2.95-1.17,1.01-.02,2.01.27,2.9.74,1.02.55,1.91,1.34,2.54,2.32.09-.09.17-.17.26-.26-.81-.4-1.64-.74-2.52-.93-.96-.2-1.95-.21-2.92-.06-.91.14-1.79.4-2.57.91-.63.41-1.16.93-1.65,1.49-.29.34-.57.7-.86,1.03-.24.28-.51.59-.86.72-.25.09-.16.45.07.37Z"/>
        <path d="m40.81,28.86c1.83-1.65,3.54-3.43,5.23-5.21.87-.91,2.07-1.87,2.32-3.16.4-2.06-1.98-2.88-3.63-2.64-2.05.31-3.73,1.95-4.99,3.48-.23.28-.23.32-.1.67.12.32.22.64.32.96.19.63.34,1.27.44,1.92.2,1.27.21,2.56.08,3.84-.02.24.35.24.38,0,.24-2.44-.1-4.82-.96-7.11-.02.06-.03.12-.05.18.97-1.21,2.1-2.39,3.5-3.1.65-.33,1.37-.54,2.11-.52.7.02,1.52.22,2.06.7,1.11.99.21,2.46-.59,3.3-.73.77-1.46,1.53-2.19,2.3-1.36,1.41-2.74,2.81-4.19,4.12-.18.17.08.43.26.27Z"/>
        <path d="m33.41,11.02c.67-2.11,1.97-4.04,3.66-5.48.05-.04.07-.12.05-.18-.39-1.14-1.07-2.24-2.08-2.94-1.04-.73-2.52-.81-3.71-.41-.47.16-.88.41-1.15.83-.31.47-.45,1.05-.52,1.6-.17,1.28.09,2.59.66,3.74.61,1.24,1.59,2.31,2.82,2.96.21.11.4-.21.19-.32-1.99-1.04-3.33-3.28-3.35-5.52-.01-.93.15-2.25,1.06-2.75.53-.29,1.18-.37,1.78-.37s1.18.08,1.7.37c1.11.6,1.84,1.77,2.24,2.93.02-.06.03-.12.05-.18-1.73,1.48-3.06,3.47-3.75,5.64-.08.21.28.31.35.08Z"/>
        <path d="m31.34,30.62c-.42.18-.84-.15-1.14-.4-.49-.41-.93-.86-1.43-1.25-1.25-.96-2.83-1.38-4.35-.82-.66.24-1.25.64-1.78,1.1-.46.39-.87.84-1.36,1.18-.17.12-.36.23-.57.25-.26.02-.5-.14-.71-.27-.54-.33-.99-.78-1.28-1.34-1.24-2.36.46-5.38,2.75-6.32.68-.28,1.41-.4,2.13-.36,1.21.05,2.4.13,3.62.06.85-.05,1.65-.12,2.48.11.67.19,1.3.52,1.83.96,1.86,1.56,2.76,4.8.67,6.56-.25.21-.55.39-.86.54-.22.1-.03.43.19.32,1.23-.59,2.07-1.7,2.24-3.06.16-1.33-.3-2.7-1.11-3.76-.88-1.15-2.18-1.92-3.63-2.1-1.08-.13-2.19.08-3.27.07-1.06-.01-2.14-.2-3.19-.05-2.76.41-4.98,3.16-4.57,5.96.19,1.28,1.07,2.49,2.3,2.96.47.18.93-.04,1.3-.33.52-.39.97-.88,1.48-1.29.64-.52,1.38-.93,2.2-1.05.89-.14,1.79.05,2.57.49.64.36,1.17.86,1.71,1.36.37.34.79.76,1.31.87.23.05.44.01.65-.08.23-.08.04-.41-.18-.31Z"/>
      </g>
    </g>
  </g>
</svg>