<?xml version="1.0" encoding="UTF-8"?>
<svg id="Layer_2" data-name="Layer 2" xmlns="http://www.w3.org/2000/svg" viewBox="0 0 80.72 97.36">
  <g id="Layer_1-2" data-name="Layer 1">
    <g>
      <path d="m32.47,28.14c.24.57-.2,1.11-.66,1.4-.48.31-1.06.38-1.62.4-1,.04-2.04-.13-3.03.09-1.27.29-2.7,1.52-2.08,2.94.34.77,1.11,1.3,1.69,1.88.69.69,1.34,1.43,1.84,2.28.88,1.49.91,3.2,1.54,4.76.54,1.33,1.59,2.1,3.02,2.2,1.5.11,3.48-.56,4.77.48.76.61.96,1.63.99,2.56.03.98-.07,1.97-.19,2.95-.23,2.02-.58,4.07-.3,6.1.28,2.01,1.34,3.54,2.46,5.17,1.12,1.63,2.14,3.53,2.49,5.49.18.97,0,2.14-1.07,2.48-1.19.38-1.45-.89-1.39-1.79.12-1.66.38-3.37-.18-4.98-.53-1.55-1.77-2.6-3.27-3.19-1.68-.65-3.8-1.03-4.73-2.78-.79-1.49-.54-3.14-.65-4.75-.12-1.76-.87-3.3-2.31-4.34-1.52-1.09-3.41-1.44-5.24-1.51-1.04-.04-2.15-.07-3.18.07-.76.11-1.37.5-1.81,1.13-.99,1.43-1.09,3.5-.65,5.13.12.44.29.86.48,1.27.19.4.63,1.21.1,1.54-.38.24-.98.03-1.39-.02-.51-.06-1.02-.09-1.53-.06-1.64.09-3.28.79-4.09,2.29-.75,1.37-.52,2.95.67,3.99,1.47,1.29,3.49,1.34,5.19,2.14.83.39,1.62,1,1.98,1.87.34.84.1,1.87-.68,2.38-1.76,1.16-2.7-1.9-3.36-2.93-.9-1.41-2.28-2.55-3.98-2.76-.81-.1-1.64.03-2.35.42-.8.44-1.38,1.16-2.02,1.78-1.17,1.14-3.07,1.8-3.46,3.56-.13.59-.08,1.26.32,1.74.23.28.55.4.8.64.62.6-.37.84-.83.65-.73-.3-1.31-.76-2.1-.32-.73.4-1.29,1.22-1.74,1.91-.91,1.38-1.41,3.31-.2,4.69.57.65,1.41,1.08,2.17,1.46.85.42,1.74.76,2.65,1.01.49.13.98.24,1.48.33.32.05.51.09.62.46.06.21.03.5.05.72.1.8.34,1.58.71,2.29.73,1.41,1.98,2.55,3.53,2.96,1.48.4,3.16.17,4.39-.77.68-.52,1.18-1.23,1.65-1.94.53-.8,1.07-1.56,1.77-2.22,1.27-1.19,3.54-2.33,5.18-1.13.78.57,1.04,1.59.35,2.34-.58.62-1.49.86-2.31.91-1.68.1-3.56-.09-4.59,1.54-.86,1.37-.61,3.07.21,4.39.83,1.33,2.28,2.67,3.95,2.57-.03-.12-.06-.23-.09-.35-1.75.98-1.45,3.63-.03,4.76,2.01,1.6,5,.89,7.09-.16,1.37-.69,2.57-1.66,3.55-2.83-.1-.01-.2-.03-.29-.04.71,1.63,2.33,2.73,4.08,2.96,1.75.23,3.42-.5,4.45-1.93,1-1.4,1.33-3.33.65-4.94-.82-1.93-2.79-3.02-3.77-4.84-.61-1.14-.68-3.08,1.01-3.22,1.44-.12,2.39,1.14,3.13,2.18.09-.09.17-.17.26-.26-.93-.46-1.94.19-2.29,1.08-.41,1.02.2,2.05,1.02,2.65,1.16.84,2.61.87,3.97,1,.92.09,1.84.17,2.35,1.05.42.72.79,1.48,1.18,2.22.06.12.26.12.32,0,2.06-3.83,4.44-7.51,7.23-10.86.05-.06.08-.16.03-.23-1.83-2.6-3.61-5.24-5.07-8.07-1.5-2.91-2.56-5.98-3.09-9.22-.28-1.73-.44-3.48-.54-5.23-.1-1.66-.19-3.34-.09-5.01.1-1.64.37-3.37,1.1-4.86.62-1.25,1.79-2.38,3.3-2.01,1.81.44,1.35,2.5.85,3.77-.45,1.16-.88,2.4-.29,3.6.48.98,1.48,1.3,2.51,1.12,1.1-.19,2.2-.92,3.34-.79,1.31.15,1.61,1.74,2.77,2.15,1,.36,2.14-.22,2.66-1.09.69-1.16.43-2.6-.07-3.78-.31-.72-.73-1.4-1.11-2.09-.34-.63-.79-1.76.03-2.23.63-.36,1.46.04,1.87.55.49.62.65,1.42.91,2.15.37,1.05,1.09,2.17,2.34,2.14.76-.02,1.51-.38,2.22-.63.74-.26,1.5-.5,2.22-.82,1.05-.46,1.69-1.4,1.5-2.57-.09-.51-.34-.97-.73-1.31-.06.1-.12.21-.18.31,2.86.77,5.65-.77,7.84-2.49.06-.05.07-.16.03-.23-.72-1.12-1.19-2.33-1.61-3.59-.33-.99-.69-1.96-1.29-2.82-.65-.91-1.51-1.67-2.62-1.93-.43-.1-.87-.12-1.3-.05-.49.08-.85.31-1.28.53-.33.16-.96.45-1.23.05-.37-.55.32-.77.71-.86.83-.19,1.67-.25,2.32-.87,1.37-1.33.86-3.57-.53-4.65-.43-.33-.92-.58-1.45-.72-.2-.05-.41-.09-.61-.12-.26-.03-.66.03-.84-.1-.13-.1-.23-.29-.35-.41-.13-.13-.28-.25-.43-.36-.36-.26-.76-.47-1.18-.63-1.51-.59-3.45-.7-4.94.04-.9.45-1.5,1.36-2.04,2.17-.62.91-1.1,1.89-1.91,2.65-.74.69-1.65,1.26-2.63,1.53-.75.2-1.66.22-2.21-.42-1.12-1.3.46-2.81,1.4-3.64,1.87-1.66,4.07-2.96,6.22-4.22,1.28-.75,2.57-1.48,3.86-2.2.97-.54,1.78-1.1,2.53-1.92,1.35-1.47,2.67-3.33,2.04-5.42-.3-.99-.98-1.84-1.97-2.21-.87-.32-1.92-.26-2.66.34-.73.58-1,1.77-1.85,2.19-.62.3-1.16-.25-1.2-.86-.05-.77.63-1.4,1.21-1.8,1.99-1.38,4.84-1.4,6.38-3.45.57-.75.82-1.8.56-2.71-.27-.95-1.06-1.43-1.95-1.72-.92-.3-2.16-.46-2.48-1.54-.31-1.06.3-2.27-.36-3.26-.54-.79-1.45-.73-2.24-.39-.54.23-1.02.56-1.52.86-.52.31-1.08.52-1.64.74-.91.36-1.77.81-2.62,1.29-.81.46-1.65.97-2.31,1.64-1.33,1.35-1.07,3.59-1.11,5.32-.03,1.26-.31,2.45-.8,3.6.07-.03.14-.06.21-.09-1.66-.44-.51-2.95-.7-4.07-.18-1.03-1.11-1.8-2.12-1.96-1.15-.18-1.99.52-2.64,1.39-.41.55-.78,1.15-1.32,1.58-.59.47-1.33.71-1.98,1.07-2.16,1.19-2.95,3.93-1.98,6.14.88,2.01,2.93,3.49,3.4,5.68.14.63.07,1.28-.17,1.88-.21.52-.62.8-1.1,1.05-1.09.56-2.01,1.07-2.52,2.26.1-.01.2-.03.29-.04-1.3-1.27-.05-2.7.78-3.79.77-1.01,1.13-2.51,0-3.42-.49-.4-1.14-.54-1.64-.93-.69-.54-.58-1.41-.69-2.18-.17-1.24-1.12-2.04-2.33-2.23-1.67-.26-3.15.78-4.43,1.7.09.04.18.07.28.11-.39-1.89-1.99-3.46-3.91-3.76-1.91-.29-3.85.67-4.84,2.32.1-.01.2-.03.29-.04-.97-.98-2.57-.98-3.68-.23-.6.4-1,.99-1.13,1.69-.09.52-.06,1.06-.18,1.57-.14.63-.56,1.1-.95,1.6-1.15,1.47-1.44,3.45-.62,5.15.81,1.67,2.6,2.7,4.44,2.67,1.23-.02,2.41-.43,3.58-.79.9-.19,2.73-.93,3.36.12.12.21.45.02.32-.19-.84-1.4-3.11-.41-4.25-.06-1.95.6-4.01,1.05-5.78-.28-1.56-1.17-2.13-3.24-1.46-5.06.34-.93,1.11-1.54,1.54-2.41.41-.85.16-1.83.54-2.68.65-1.48,2.9-1.92,4.03-.77.09.09.23.07.29-.04.92-1.54,2.77-2.45,4.55-2.12,1.75.32,3.16,1.75,3.51,3.47.02.11.18.18.28.11,1.17-.84,2.54-1.85,4.07-1.67.67.08,1.35.38,1.76.93.44.59.38,1.32.47,2.02.08.57.27,1.06.74,1.42.48.37,1.09.52,1.57.88.68.5.78,1.35.49,2.1-.26.66-.77,1.14-1.18,1.7-.76,1.08-1.1,2.41-.06,3.43.08.08.25.08.29-.04.48-1.11,1.32-1.58,2.35-2.1.82-.41,1.31-.97,1.5-1.89.44-2.09-1.18-3.84-2.31-5.39-.62-.85-1.22-1.75-1.43-2.8-.27-1.36.11-2.78,1.03-3.81.95-1.07,2.46-1.26,3.45-2.26.83-.84,1.35-2.28,2.6-2.58.68-.17,1.43.09,1.94.55.67.6.7,1.42.57,2.26-.18,1.1-.41,2.81,1.02,3.19.07.02.18-.01.21-.09.45-1.06.76-2.15.83-3.3.06-.94-.02-1.88.05-2.81.08-1,.3-2.09,1.04-2.81.71-.69,1.59-1.2,2.45-1.67.9-.5,1.82-.91,2.77-1.29,1.05-.42,1.94-1.23,3.03-1.55.66-.2,1.29,0,1.55.68.2.54.1,1.16.08,1.72-.04.94.16,1.8,1.02,2.3.82.47,1.81.51,2.63.99,1.08.64,1.16,2.06.63,3.09-1.2,2.31-4.41,2.38-6.39,3.67-.79.51-1.67,1.34-1.5,2.38.13.78.88,1.39,1.66,1.05.82-.36,1.16-1.37,1.72-2,.79-.89,2.17-.89,3.12-.25,1.09.73,1.51,2.21,1.26,3.46-.21,1.04-.9,1.96-1.57,2.76-.64.77-1.36,1.52-2.24,2.01-1.28.72-2.56,1.43-3.83,2.16-2.14,1.24-4.29,2.51-6.23,4.05-1.02.81-2.53,1.98-2.66,3.4-.13,1.45,1.31,2.2,2.57,2.03,1.73-.24,3.4-1.5,4.33-2.95.67-1.05,1.27-2.17,2.16-3.05.6-.59,1.46-.83,2.27-.9.92-.09,1.87.02,2.75.31.4.13.79.3,1.14.53.19.12.37.25.54.41.18.17.3.4.48.57.14.13.27.08.46.08.28,0,.55.02.82.08.68.13,1.31.44,1.82.91.78.7,1.15,1.8.88,2.82-.28,1.06-1.11,1.53-2.12,1.72-.55.11-1.54.17-1.69.85-.15.68.43,1.14,1.06,1.05.34-.05.67-.2.97-.37.52-.29,1.02-.47,1.63-.42,2.58.18,3.59,2.93,4.29,5,.38,1.14.85,2.22,1.5,3.23,0-.08.02-.15.03-.23-2.08,1.63-4.75,3.13-7.47,2.39-.17-.05-.33.19-.18.31.48.42.72,1.05.64,1.69-.1.85-.69,1.33-1.44,1.64-.78.32-1.58.58-2.37.86-.78.28-1.73.75-2.53.32-1.29-.69-1.29-2.49-1.96-3.63-.48-.82-1.58-1.5-2.53-1.01-1.19.61-.58,2.12-.1,2.98.76,1.37,1.75,2.92,1.35,4.56-.35,1.45-2.08,2.35-3.22,1.13-.4-.43-.7-.95-1.18-1.29-.41-.29-.9-.4-1.39-.37-1.14.07-2.16.73-3.29.84-1.49.14-2.26-1.23-2.06-2.58.21-1.41,1.19-2.63,1.01-4.11-.13-1.1-.98-1.83-2.06-1.9-2.95-.2-3.95,3.6-4.25,5.85-.21,1.57-.2,3.16-.14,4.75.07,1.7.18,3.4.38,5.09.37,3.19,1.11,6.27,2.41,9.21,1.27,2.88,2.93,5.57,4.7,8.17.45.66.9,1.31,1.36,1.96,0-.08.02-.15.03-.23-2.81,3.38-5.21,7.08-7.29,10.94h.32c-.33-.63-.66-1.25-.99-1.88-.25-.46-.5-.91-.98-1.17-.46-.25-1.02-.31-1.54-.37-.71-.09-1.43-.11-2.14-.22-1.11-.18-2.41-.69-2.85-1.83-.39-1,.57-2.61,1.75-2.02.15.08.37-.09.26-.26-.58-.82-1.22-1.71-2.16-2.13-.76-.34-1.73-.37-2.4.18-1.65,1.33-.17,3.7.88,4.87,1.39,1.54,3.07,2.92,2.97,5.19-.09,1.96-1.4,3.87-3.35,4.37-2.17.55-4.6-.64-5.49-2.69-.05-.11-.22-.12-.29-.04-1.83,2.19-4.74,3.92-7.67,3.8-1.37-.06-2.82-.66-3.32-2.02-.39-1.05-.21-2.38.83-2.96.16-.09.09-.36-.09-.35-1.94.12-3.72-1.91-4.2-3.65-.25-.9-.16-1.88.32-2.69.54-.91,1.48-1.27,2.49-1.35,1.5-.12,3.29.14,4.41-1.13.99-1.12.29-2.63-.96-3.16-1.53-.65-3.31.02-4.55.97-.65.5-1.21,1.1-1.7,1.76-.59.78-1.04,1.66-1.72,2.38-1.22,1.3-3.13,1.67-4.81,1.15-1.79-.56-3.06-2.13-3.57-3.89-.12-.4-.2-.81-.23-1.23-.03-.32.04-.73-.2-.99-.22-.24-.59-.24-.89-.29-.5-.09-.99-.2-1.48-.34-1.01-.29-1.99-.69-2.92-1.2-.87-.48-1.77-1.02-2.07-2.02s0-2.05.5-2.92c.26-.46.57-.88.91-1.29.31-.38.68-.84,1.17-.99.85-.26,1.49.71,2.37.54.5-.1.9-.52.67-1.04-.11-.25-.36-.41-.58-.57-.38-.26-.65-.54-.72-1.01-.15-.94.39-1.77,1.07-2.36s1.49-1.02,2.15-1.64c.69-.64,1.28-1.43,2.12-1.88,1.88-1.02,4.08-.01,5.33,1.51.56.68.91,1.45,1.31,2.23.3.59.68,1.22,1.27,1.56,1.25.73,2.58-.35,2.79-1.63.26-1.6-1.21-2.85-2.52-3.41-1.74-.74-3.92-.81-5.24-2.32-1.33-1.52-.44-3.73,1.16-4.65.88-.5,1.9-.67,2.91-.66.49.01.97.07,1.46.14.32.05.67.09.97-.04.71-.3.58-1.11.34-1.69-.39-.95-.77-1.8-.85-2.85-.07-.99.07-2.01.46-2.92.45-1.06,1.21-1.61,2.36-1.67,2.05-.12,4.24-.14,6.18.6,1.86.71,3.24,2.14,3.58,4.13.28,1.61-.05,3.24.45,4.83.52,1.63,1.83,2.51,3.37,3.1,1.73.66,3.55,1.06,4.56,2.79.89,1.53.75,3.41.59,5.1-.07.71-.2,1.55.21,2.19.32.51.91.7,1.49.57,1.74-.42,1.65-2.41,1.25-3.77-.56-1.89-1.5-3.6-2.62-5.21-.57-.82-1.16-1.64-1.56-2.56-.43-.98-.61-2.04-.65-3.1-.08-2.06.33-4.1.51-6.14.13-1.52.3-3.55-1.03-4.64-1.18-.97-2.84-.62-4.24-.58-.8.02-1.64-.03-2.33-.48-.68-.44-1.06-1.18-1.29-1.94-.5-1.56-.63-3.15-1.53-4.57-.47-.74-1.05-1.42-1.67-2.04-.63-.64-1.79-1.36-1.84-2.34-.06-.95.88-1.64,1.69-1.9.99-.32,2.08-.12,3.1-.15.8-.02,1.6-.15,2.22-.7.49-.44.74-1.04.47-1.67-.13-.26-.46-.07-.36.15Z"/>
      <path d="m44.37,50.62c-.08.11-.04-.23-.03-.27.02-.1.03-.21.04-.31.03-.24.05-.49.06-.74.02-.5,0-1.01-.06-1.51-.11-.96-.34-1.89-.63-2.81-.62-1.92-1.51-3.74-2.23-5.62-.38-1-.69-2-.89-3.05-.19-.98-.32-1.96-.54-2.93-.38-1.63-1.05-3.17-2.45-4.16-.49-.34-1.03-.6-1.58-.82-.42-.17-.87-.29-1.26-.51-.35-.19-.39-.48,0-.74.79-.51,1.42.42,2.14.59.79.19,1.32-.53,1.06-1.26-.14-.39-.48-.66-.82-.86-.46-.27-.96-.48-1.44-.72-1.05-.52-2.1-1.03-3.15-1.55-.48-.24-.97-.46-1.45-.72-.36-.19-.77-.44-.96-.81-.5-.95.74-1.74,1.51-1.92.87-.2,1.82-.02,2.6.4,1.76.95,2.76,2.93,3.78,4.55.3.48.6.95.9,1.43.04.07.13.11.21.09.77-.23.49-1.2.19-1.71-.27-.45-.61-.84-.85-1.31-.28-.54-.46-1.14-.38-1.75.07-.55.34-1.07.83-1.35.44-.24.98-.21,1.37.11.73.61.6,1.94.61,2.78.04,2.43-.05,4.84.35,7.25.33,2.02.4,4.07.68,6.1.29,2.17.8,4.39,2.14,6.17.11.14.34.1.35-.09.13-2.84.72-5.62,1.74-8.27.9-2.31,2.1-4.49,3.32-6.64.61-1.07,1.32-2.13,1.7-3.31.43-1.33.47-2.81-.21-4.07-.63-1.17-1.8-2.12-1.92-3.52-.05-.58.07-1.23.57-1.6.58-.43,1.41-.28,1.95.13.64.47.96,1.26,1.16,2.01.22.84.31,1.71.27,2.57-.04.92-.26,1.79-.52,2.66-.25.85-.38,1.73-.18,2.6.03.13.17.16.28.11.79-.36,1.25-1.37,1.54-2.13.17-.44.25-.88.31-1.34.09-.62.21-1.24.36-1.85.57-2.33,1.63-4.47,2.9-6.49.59-.94,1.17-1.98,2.04-2.69.86-.7,2.48-1.02,3.05.23.29.64-.05,1.27-.43,1.79-.37.51-.81.98-1.25,1.43-.9.9-1.9,1.7-2.81,2.59-.81.8-1.56,1.67-2.08,2.69-.56,1.1-.83,2.29-.95,3.51-.02.16.22.25.32.13.6-.72,1.3-1.34,2.04-1.91.72-.55,1.51-1.14,2.35-1.48.81-.33,1.85-.36,2.39.46.47.72-.03,1.36-.71,1.61-.64.24-1.32.33-1.97.56-.69.24-1.37.51-2.03.83-1.25.59-2.44,1.32-3.53,2.17-2.01,1.56-3.69,3.52-5.01,5.69-1.17,1.94-2.07,4.05-2.68,6.24-.48,1.71-.81,3.5-.84,5.29v.5c0,.19.25.25.35.09,1.33-1.94,3.32-3.41,5.45-4.38,1.06-.49,2.19-.85,3.35-1.04,1.13-.19,2.28-.22,3.42-.36,1.06-.14,2.14-.35,3.1-.84,1.05-.53,1.73-1.37,2.33-2.36.59-.97,1.23-2.05,2.43-2.29.51-.1,1.03.01,1.38.41.47.53.45,1.29.15,1.9-.56,1.14-1.89,1.76-2.99,2.25-1.3.57-2.68.95-3.95,1.59-.15.08-.1.3.04.34,1.57.5,3.13.69,4.77.45.63-.09,1.25-.21,1.88-.24.79-.04,1.59.04,2.35.24.82.22,1.62.61,2.17,1.27.56.67.81,1.64.33,2.43-.58.96-1.73.87-2.59.38-.77-.44-1.24-1.13-1.85-1.75-.73-.74-1.73-1.14-2.74-1.37-.92-.2-1.86-.25-2.75-.56-.18-.06-.31.19-.18.31.51.52,1.17.85,1.82,1.16.64.31,1.3.6,1.79,1.13.46.51.7,1.36.31,1.98-.45.71-1.21.26-1.67-.16-.51-.46-.81-1.11-1.22-1.64-.38-.5-.81-.96-1.28-1.37-.93-.81-2.05-1.4-3.25-1.69-1.41-.34-2.86-.26-4.28.02-1.36.26-2.72.66-3.95,1.33-1.75.95-2.95,2.45-3.69,4.28-.88,2.01-1.26,4.15-2.31,6.04-.12.21.21.4.32.19.95-1.72,1.37-3.63,2.03-5.46.32-.88.71-1.75,1.26-2.51.61-.86,1.41-1.55,2.32-2.08,1.24-.72,2.65-1.13,4.05-1.4,1.45-.28,2.95-.34,4.39.06,1.26.36,2.38,1.06,3.29,2,.48.49.91,1.04,1.28,1.63.36.56.76,1.06,1.37,1.38.54.29,1.2.19,1.57-.34.39-.57.35-1.42.03-2.01-.82-1.5-2.81-1.63-3.96-2.78-.06.1-.12.21-.18.31.85.3,1.74.36,2.62.54,1.05.21,2.06.61,2.8,1.39.64.68,1.16,1.38,2.01,1.81.83.42,1.82.5,2.56-.15.62-.55.81-1.44.6-2.22-.22-.84-.88-1.52-1.61-1.95-1.39-.81-3.13-.92-4.69-.7-.78.11-1.54.26-2.33.28-1.13.02-2.24-.22-3.32-.56,0,.11.03.23.04.34,1.23-.61,2.55-.99,3.81-1.53,1.06-.45,2.24-1.01,2.95-1.94.69-.89.87-2.27-.11-3.05-.82-.65-1.96-.32-2.72.25-1.03.78-1.43,2.1-2.27,3.05-.8.91-1.92,1.39-3.09,1.65-1.22.27-2.47.33-3.71.46-1.22.12-2.39.38-3.54.82-2.56.97-4.96,2.63-6.52,4.91.12.03.23.06.35.09-.04-1.77.26-3.54.7-5.25.59-2.28,1.5-4.48,2.71-6.5,1.37-2.28,3.14-4.33,5.29-5.92,1.17-.86,2.43-1.59,3.76-2.17.7-.3,1.43-.58,2.17-.77.61-.15,1.3-.26,1.81-.66s.65-1.09.36-1.67c-.34-.69-1.12-1.06-1.87-1.02-.9.05-1.69.53-2.42,1.01-.79.52-1.54,1.09-2.24,1.73-.33.31-.65.64-.94.98.11.04.21.09.32.13.12-1.19.4-2.37.96-3.43.51-.96,1.22-1.79,2-2.54.95-.93,1.99-1.76,2.92-2.7.43-.44.84-.9,1.19-1.39.34-.47.63-1.03.55-1.63-.15-1.15-1.33-1.69-2.38-1.49-1.06.2-1.83,1-2.44,1.84-1.42,1.96-2.66,4.15-3.47,6.43-.23.66-.43,1.33-.59,2.01-.16.69-.25,1.4-.37,2.1-.1.55-.31,1.08-.58,1.57-.24.45-.56.96-1.04,1.18.09.04.18.07.28.11-.2-.89,0-1.77.25-2.63.24-.79.41-1.6.46-2.42.08-1.41-.1-3.1-.92-4.3-.68-.99-2.16-1.64-3.18-.72-.88.79-.68,2.24-.17,3.17.35.64.83,1.2,1.23,1.8.45.68.75,1.4.79,2.22.04.8-.12,1.59-.39,2.34-.24.65-.6,1.24-.94,1.84-1.26,2.22-2.55,4.43-3.56,6.78-1.29,3-2.05,6.17-2.19,9.44.12-.03.23-.06.35-.09-1.25-1.65-1.76-3.7-2.05-5.72-.3-2.09-.38-4.2-.7-6.28-.2-1.27-.32-2.53-.35-3.81-.02-1.25,0-2.5-.02-3.76-.02-.86.03-1.95-.56-2.65-.57-.68-1.57-.7-2.25-.16-.93.74-.91,2.08-.48,3.09.25.58.63,1.06.97,1.59.17.27.57,1.07.07,1.22.07.03.14.06.21.09-.62-.99-1.23-1.98-1.86-2.97-.55-.85-1.13-1.7-1.88-2.38-1.26-1.14-3.28-1.82-4.84-.85-.7.44-1.29,1.28-.85,2.11.44.81,1.55,1.17,2.33,1.55,1.11.54,2.21,1.09,3.32,1.63.51.25,1.05.48,1.54.77.39.23.96.82.54,1.29-.4.44-1.12-.15-1.47-.39-.29-.19-.61-.27-.96-.22-.49.06-1.13.49-1,1.06.08.34.44.5.72.63.49.21,1,.37,1.49.59.63.29,1.23.65,1.73,1.14.68.67,1.09,1.54,1.38,2.44.33,1.01.48,2.06.66,3.1.19,1.13.44,2.23.83,3.31.74,2.03,1.71,3.96,2.39,6.01.33,1.01.6,2.06.69,3.12.05.52.05,1.04,0,1.57-.02.27-.05.53-.1.8-.03.17-.05.32.07.46.2.24.51.16.68-.06.2-.19-.13-.38-.27-.18Z"/>
      <path d="m46.65,78.83c-1.92-1.05-3.98-2.03-6.17-2.29-1.8-.21-3.55.21-5.06,1.22-1.67,1.12-3.13,2.92-2.81,5.05.16,1.08.78,1.8,1.62,2.45.45.35.92.69,1.18,1.22.24.48.24,1.1-.25,1.42-.4.26-.95.25-1.37.05-.52-.25-.84-.8-1-1.33-.16-.52-.14-1.08-.34-1.59-.15-.38-.42-.67-.85-.6-.06.01-.11.07-.13.13-.68,2.32-1.72,4.89-3.88,6.22-.5.31-1.13.64-1.74.57-.85-.1-.79-1.03-.47-1.61.64-1.18,1.92-1.78,2.96-2.54,1.1-.8,2.16-1.99,1.93-3.45-.02-.15-.22-.17-.31-.08-.65.63-1.3,1.27-1.95,1.9-.25.24-.55.65-.93.68-.33.03-.49-.3-.5-.59-.04-.74.79-1.07,1.33-1.35.55-.3,1.06-.67,1.5-1.11.94-.93,1.63-2.08,2.37-3.16.81-1.18,1.72-2.26,2.91-3.08,1.37-.94,2.96-1.54,4.61-1.7.2-.02.27-.31.05-.37-3.58-.91-7.27-1.43-10.97-1.19-1.95.12-3.91.43-5.78.97-.95.27-1.78.89-2.55,1.5-.94.76-1.82,1.59-2.72,2.39-.71.63-1.48,1.36-2.38,1.71-.26.1-.57.18-.84.05-.4-.19-.65-.77-.64-1.19.01-.63.58-1.09,1.06-1.41.61-.41,1.3-.71,1.97-1,.36-.16.71-.33,1.08-.49.33-.14.68-.27.96-.49.39-.3.48-.84.05-1.16-.47-.35-1.17-.07-1.68.01-.73.11-1.54.02-2.27-.07-.72-.09-1.44-.24-2.12-.47-.56-.19-1.15-.45-1.58-.88-.77-.78-.23-1.93.77-2.13,1.13-.24,2.4.23,3.44.63.61.24,1.21.53,1.81.79.83.35,1.66.67,2.51.94.44.14.88.28,1.33.4.38.11.79.24,1.2.17.66-.11.93-.74.69-1.33-.28-.69-.96-.91-1.65-.94-.73-.03-1.77.19-2.31-.47-.55-.67.23-1.38.86-1.57.71-.22,1.34.11,1.89.53.63.48,1.24.91,1.96,1.23.81.36,1.64.67,2.5.9,1.39.37,2.82.51,4.25.54,1.36.02,2.72-.01,4.08.15.76.09,1.51.24,2.25.44.2.05.29-.17.18-.31-.8-1.02-1.55-2.08-2.16-3.22-.39-.71-.7-1.45-1.02-2.2-.29-.67-.59-1.33-.99-1.95-.52-.8-1.14-1.65-1.94-2.18-.96-.63-2.14-.83-3.27-.87-.64-.02-1.29.01-1.93.06-.59.05-1.18.16-1.77.14-1.13-.03-2.39-.3-3.37-.88-.51-.3-1.02-.76-1.18-1.35-.16-.62.22-1.29.76-1.6.61-.35,1.39-.1,1.99.16.71.31,1.33.76,1.97,1.18,1.29.85,2.75,1.53,4.27,1.83.19.04.31-.17.18-.31-1.15-1.32-2.31-2.69-3.08-4.27-.37-.77-.55-1.56-.65-2.41-.09-.78-.06-1.62.26-2.35.29-.66,1.01-1.46,1.81-1.38.87.08,1.37,1.01,1.5,1.78.26,1.56-.09,3.14-.11,4.7-.02,1.51.39,2.88,1.62,3.83,1.41,1.09,2.67,2.33,3.62,3.85.69,1.1,1.18,2.29,1.77,3.44.64,1.23,1.44,2.35,2.49,3.26,1.36,1.19,2.96,2,4.57,2.77,1.6.77,3.31,1.54,4.61,2.77.17.16.36.36.43.59.08.31-.15.46-.43.3-.21-.12-.4.21-.19.32.29.16.64.19.87-.08.24-.29.13-.68-.05-.96-.24-.39-.63-.68-.99-.95-.38-.29-.78-.56-1.18-.81-1.66-1.01-3.48-1.71-5.16-2.67-1.56-.89-2.97-2.02-3.96-3.52-.75-1.14-1.26-2.42-1.89-3.63-.8-1.52-1.83-2.86-3.11-4.01-.72-.65-1.63-1.16-2.13-2.01-.41-.69-.52-1.5-.53-2.29,0-1.67.38-3.34.1-5.01-.13-.77-.57-1.56-1.3-1.91-.75-.35-1.51-.01-2.07.53-1.2,1.16-1.08,3.11-.74,4.6.4,1.8,1.64,3.37,2.79,4.76.28.34.57.68.86,1.01.06-.1.12-.21.18-.31-1.47-.29-2.86-.94-4.11-1.75-1.06-.68-2.23-1.63-3.57-1.6-1.1.02-2.06,1.15-1.77,2.25.29,1.11,1.46,1.72,2.47,2.06.6.2,1.22.33,1.85.4.61.07,1.18.02,1.79-.04,1.31-.13,2.67-.23,3.97.05.59.13,1.16.34,1.66.67.48.33.86.79,1.22,1.24.52.66.94,1.38,1.29,2.14.37.82.7,1.66,1.11,2.47.66,1.29,1.5,2.47,2.39,3.61.06-.1.12-.21.18-.31-1.45-.39-2.93-.55-4.43-.58-1.38-.03-2.76.01-4.13-.15-1.73-.21-3.48-.73-5.02-1.54-1.17-.62-2.19-2.02-3.67-1.48-.55.2-1.1.64-1.19,1.26-.1.67.44,1.18,1.03,1.37.81.26,1.69-.05,2.48.23.36.12.65.43.69.82.06.55-.49.66-.92.58-.94-.17-1.88-.53-2.77-.85-.85-.31-1.69-.65-2.51-1.03-1.08-.49-2.22-.93-3.4-1.07-.98-.11-2.09.07-2.49,1.09-.42,1.07.37,1.87,1.27,2.33,1.3.65,2.84.88,4.27.93.35.01.71.02,1.06-.02.33-.04.66-.15,1-.17.24-.01.69.06.59.42-.07.28-.54.44-.77.54-.73.33-1.48.65-2.21.99-.63.3-1.27.63-1.78,1.11-.39.36-.69.85-.64,1.4.04.47.3,1.02.7,1.3.6.43,1.37.06,1.92-.27.93-.57,1.74-1.34,2.54-2.07.91-.82,1.8-1.66,2.81-2.36.42-.29.86-.57,1.33-.75.83-.31,1.75-.47,2.61-.63,3.82-.71,7.72-.58,11.53.15.91.17,1.81.38,2.71.61.02-.12.03-.25.05-.37-1.59.16-3.12.68-4.47,1.53-1.34.85-2.37,1.98-3.26,3.28-.86,1.25-1.64,2.62-2.82,3.61-.58.49-1.3.74-1.91,1.2-.49.37-.78.95-.55,1.56.27.71,1,.66,1.51.24.42-.35.8-.76,1.19-1.14.41-.4.83-.81,1.24-1.21-.1-.03-.21-.06-.31-.08.25,1.6-1.3,2.73-2.46,3.5-1.04.69-2.39,1.54-2.64,2.87-.11.58.09,1.19.67,1.41s1.23.01,1.76-.24c1.18-.56,2.11-1.51,2.81-2.6.82-1.26,1.36-2.7,1.78-4.14-.04.04-.09.09-.13.13.45-.08.51.82.55,1.09.07.48.18.95.41,1.39.39.75,1.12,1.28,1.99,1.18.8-.08,1.4-.72,1.29-1.55-.15-1.08-1.13-1.63-1.88-2.27-.86-.73-1.22-1.79-1.08-2.9.14-1.1.79-2.07,1.59-2.82,1.35-1.28,3.13-2.07,5-2.06,2.45.01,4.8,1.15,6.91,2.29.19.13.38-.19.17-.31Z"/>
    </g>
  </g>
</svg>