<?xml version="1.0" encoding="UTF-8"?>
<svg id="Layer_2" data-name="Layer 2" xmlns="http://www.w3.org/2000/svg" xmlns:xlink="http://www.w3.org/1999/xlink" viewBox="0 0 46.64 55.21">
  <defs>
    <style>
      .cls-1 {
        clip-path: url(#clippath-20);
      }

      .cls-2 {
        clip-path: url(#clippath-11);
      }

      .cls-3 {
        clip-path: url(#clippath-16);
      }

      .cls-4 {
        clip-path: url(#clippath-33);
      }

      .cls-5 {
        clip-path: url(#clippath-32);
      }

      .cls-6 {
        clip-path: url(#clippath-2);
      }

      .cls-7 {
        clip-path: url(#clippath-13);
      }

      .cls-8 {
        clip-path: url(#clippath-37);
      }

      .cls-9 {
        clip-path: url(#clippath-25);
      }

      .cls-10 {
        clip-path: url(#clippath-15);
      }

      .cls-11 {
        clip-path: url(#clippath-6);
      }

      .cls-12 {
        clip-path: url(#clippath-26);
      }

      .cls-13 {
        clip-path: url(#clippath-7);
      }

      .cls-14 {
        clip-path: url(#clippath-21);
      }

      .cls-15 {
        clip-path: url(#clippath-34);
      }

      .cls-16 {
        clip-path: url(#clippath-1);
      }

      .cls-17 {
        clip-path: url(#clippath-4);
      }

      .cls-18 {
        clip-path: url(#clippath-38);
      }

      .cls-19 {
        clip-path: url(#clippath-36);
      }

      .cls-20 {
        clip-path: url(#clippath-27);
      }

      .cls-21 {
        clip-path: url(#clippath-12);
      }

      .cls-22 {
        clip-path: url(#clippath-24);
      }

      .cls-23 {
        clip-path: url(#clippath-30);
      }

      .cls-24 {
        clip-path: url(#clippath-22);
      }

      .cls-25 {
        clip-path: url(#clippath-9);
      }

      .cls-26 {
        clip-path: url(#clippath);
      }

      .cls-27 {
        clip-path: url(#clippath-39);
      }

      .cls-28, .cls-29 {
        fill: none;
      }

      .cls-30 {
        clip-path: url(#clippath-19);
      }

      .cls-31 {
        clip-path: url(#clippath-31);
      }

      .cls-32 {
        clip-path: url(#clippath-3);
      }

      .cls-33 {
        clip-path: url(#clippath-8);
      }

      .cls-34 {
        clip-path: url(#clippath-29);
      }

      .cls-35 {
        clip-path: url(#clippath-18);
      }

      .cls-36 {
        clip-path: url(#clippath-14);
      }

      .cls-37 {
        clip-path: url(#clippath-17);
      }

      .cls-38 {
        clip-path: url(#clippath-5);
      }

      .cls-39 {
        clip-path: url(#clippath-10);
      }

      .cls-40 {
        clip-path: url(#clippath-23);
      }

      .cls-41 {
        clip-path: url(#clippath-28);
      }

      .cls-29 {
        stroke: #000;
        stroke-miterlimit: 10;
        stroke-width: .5px;
      }

      .cls-42 {
        clip-path: url(#clippath-35);
      }
    </style>
    <clipPath id="clippath">
      <path class="cls-28" d="m23.32,29.39c-1.02,0-1.94-.43-2.64-1.39h0c-8.82,0-14.69,5.27-11.07,14.9,4.35.29,8.93-.11,13.71-.74"/>
    </clipPath>
    <clipPath id="clippath-1">
      <rect class="cls-28" x="3.19" y="20.29" width="12.46" height="12.46"/>
    </clipPath>
    <clipPath id="clippath-2">
      <rect class="cls-28" x="3.19" y="20.29" width="12.46" height="12.46"/>
    </clipPath>
    <clipPath id="clippath-3">
      <rect class="cls-28" x="3.19" y="20.29" width="12.46" height="12.46"/>
    </clipPath>
    <clipPath id="clippath-4">
      <rect class="cls-28" x="3.19" y="20.29" width="12.46" height="12.46"/>
    </clipPath>
    <clipPath id="clippath-5">
      <path class="cls-28" d="m23.32,29.39c-1.02,0-1.94-.43-2.64-1.39h0c-8.82,0-14.69,5.27-11.07,14.9,4.35.29,8.93-.11,13.71-.74"/>
    </clipPath>
    <clipPath id="clippath-6">
      <rect class="cls-28" x="3.19" y="32.75" width="12.46" height="12.46"/>
    </clipPath>
    <clipPath id="clippath-7">
      <rect class="cls-28" x="3.19" y="32.75" width="12.46" height="12.46"/>
    </clipPath>
    <clipPath id="clippath-8">
      <rect class="cls-28" x="3.19" y="32.75" width="12.46" height="12.46"/>
    </clipPath>
    <clipPath id="clippath-9">
      <rect class="cls-28" x="3.19" y="32.75" width="12.46" height="12.46"/>
    </clipPath>
    <clipPath id="clippath-10">
      <path class="cls-28" d="m23.32,29.39c-1.02,0-1.94-.43-2.64-1.39h0c-8.82,0-14.69,5.27-11.07,14.9,4.35.29,8.93-.11,13.71-.74"/>
    </clipPath>
    <clipPath id="clippath-11">
      <rect class="cls-28" x="15.65" y="20.29" width="12.46" height="12.46"/>
    </clipPath>
    <clipPath id="clippath-12">
      <rect class="cls-28" x="15.65" y="20.29" width="12.46" height="12.46"/>
    </clipPath>
    <clipPath id="clippath-13">
      <rect class="cls-28" x="15.65" y="20.29" width="12.46" height="12.46"/>
    </clipPath>
    <clipPath id="clippath-14">
      <rect class="cls-28" x="15.65" y="20.29" width="12.46" height="12.46"/>
    </clipPath>
    <clipPath id="clippath-15">
      <path class="cls-28" d="m23.32,29.39c-1.02,0-1.94-.43-2.64-1.39h0c-8.82,0-14.69,5.27-11.07,14.9,4.35.29,8.93-.11,13.71-.74"/>
    </clipPath>
    <clipPath id="clippath-16">
      <rect class="cls-28" x="15.65" y="32.75" width="12.46" height="12.46"/>
    </clipPath>
    <clipPath id="clippath-17">
      <rect class="cls-28" x="15.65" y="32.75" width="12.46" height="12.46"/>
    </clipPath>
    <clipPath id="clippath-18">
      <rect class="cls-28" x="15.65" y="32.75" width="12.46" height="12.46"/>
    </clipPath>
    <clipPath id="clippath-19">
      <rect class="cls-28" x="15.65" y="32.75" width="12.46" height="12.46"/>
    </clipPath>
    <clipPath id="clippath-20">
      <path class="cls-28" d="m23.32,29.39c1.02,0,1.94-.43,2.64-1.39h0c8.82,0,14.69,5.27,11.07,14.9-4.35.29-8.93-.11-13.71-.74"/>
    </clipPath>
    <clipPath id="clippath-21">
      <rect class="cls-28" x="31.35" y="20.29" width="12.46" height="12.46"/>
    </clipPath>
    <clipPath id="clippath-22">
      <rect class="cls-28" x="31.35" y="20.29" width="12.46" height="12.46"/>
    </clipPath>
    <clipPath id="clippath-23">
      <rect class="cls-28" x="31.35" y="20.29" width="12.46" height="12.46"/>
    </clipPath>
    <clipPath id="clippath-24">
      <rect class="cls-28" x="31.35" y="20.29" width="12.46" height="12.46"/>
    </clipPath>
    <clipPath id="clippath-25">
      <path class="cls-28" d="m23.32,29.39c1.02,0,1.94-.43,2.64-1.39h0c8.82,0,14.69,5.27,11.07,14.9-4.35.29-8.93-.11-13.71-.74"/>
    </clipPath>
    <clipPath id="clippath-26">
      <rect class="cls-28" x="31.35" y="32.75" width="12.46" height="12.46"/>
    </clipPath>
    <clipPath id="clippath-27">
      <rect class="cls-28" x="31.35" y="32.75" width="12.46" height="12.46"/>
    </clipPath>
    <clipPath id="clippath-28">
      <rect class="cls-28" x="31.35" y="32.75" width="12.46" height="12.46"/>
    </clipPath>
    <clipPath id="clippath-29">
      <rect class="cls-28" x="31.35" y="32.75" width="12.46" height="12.46"/>
    </clipPath>
    <clipPath id="clippath-30">
      <path class="cls-28" d="m23.32,29.39c1.02,0,1.94-.43,2.64-1.39h0c8.82,0,14.69,5.27,11.07,14.9-4.35.29-8.93-.11-13.71-.74"/>
    </clipPath>
    <clipPath id="clippath-31">
      <rect class="cls-28" x="18.89" y="20.29" width="12.46" height="12.46"/>
    </clipPath>
    <clipPath id="clippath-32">
      <rect class="cls-28" x="18.89" y="20.29" width="12.46" height="12.46"/>
    </clipPath>
    <clipPath id="clippath-33">
      <rect class="cls-28" x="18.89" y="20.29" width="12.46" height="12.46"/>
    </clipPath>
    <clipPath id="clippath-34">
      <rect class="cls-28" x="18.89" y="20.29" width="12.46" height="12.46"/>
    </clipPath>
    <clipPath id="clippath-35">
      <path class="cls-28" d="m23.32,29.39c1.02,0,1.94-.43,2.64-1.39h0c8.82,0,14.69,5.27,11.07,14.9-4.35.29-8.93-.11-13.71-.74"/>
    </clipPath>
    <clipPath id="clippath-36">
      <rect class="cls-28" x="18.89" y="32.75" width="12.46" height="12.46"/>
    </clipPath>
    <clipPath id="clippath-37">
      <rect class="cls-28" x="18.89" y="32.75" width="12.46" height="12.46"/>
    </clipPath>
    <clipPath id="clippath-38">
      <rect class="cls-28" x="18.89" y="32.75" width="12.46" height="12.46"/>
    </clipPath>
    <clipPath id="clippath-39">
      <rect class="cls-28" x="18.89" y="32.75" width="12.46" height="12.46"/>
    </clipPath>
  </defs>
  <g id="Layer_1-2" data-name="Layer 1">
    <g>
      <path d="m37.93,37.53c-.01,1.83-.45,3.61-1.08,5.32.06-.05.12-.09.18-.14-3.55.23-7.12.01-10.65-.37-.9-.1-1.8-.21-2.69-.33-.46-.06-.9.02-1.36.08-.49.06-.98.12-1.47.18-1.79.21-3.59.37-5.39.46-1.95.1-3.91.11-5.86-.02.06.05.12.09.18.14-1.1-2.97-1.67-6.44-.17-9.39,1.2-2.35,3.49-3.84,5.96-4.59,1.65-.5,3.38-.69,5.1-.69-.05-.03-.11-.06-.16-.09.67.92,1.64,1.49,2.8,1.49s2.12-.58,2.8-1.49c-.05.03-.11.06-.16.09,4.33.01,9.4,1.4,11.27,5.74.49,1.14.7,2.37.7,3.61,0,.24.38.24.38,0-.01-2.8-1.15-5.41-3.39-7.14-2.42-1.87-5.59-2.54-8.59-2.59-.15,0-.38-.05-.5.05-.18.15-.32.4-.49.56-.33.31-.72.54-1.15.66-.84.25-1.8.12-2.52-.37-.19-.13-.37-.29-.53-.46-.12-.13-.23-.38-.4-.44-.16-.06-.44,0-.61,0-.23.01-.46.02-.68.03-.82.05-1.63.14-2.44.3-2.75.53-5.46,1.81-7.11,4.15-1.87,2.66-1.84,6.06-.99,9.08.15.54.33,1.07.52,1.59.03.08.09.13.18.14,3.55.23,7.11.01,10.65-.37.9-.1,1.8-.21,2.69-.33.46-.06.9.02,1.36.08.49.06.98.12,1.47.18,1.79.21,3.59.37,5.39.46,1.95.1,3.91.11,5.87-.02.09-.01.15-.06.18-.14.64-1.74,1.09-3.56,1.1-5.42-.01-.24-.39-.24-.39,0Z"/>
      <path d="m40.69,3.85c-2.92.5-5.66,1.72-7.99,3.56-1.34,1.06-2.51,2.3-3.54,3.66-1.12,1.47-2.09,3.06-2.68,4.82-1.19,3.53-1.05,7.35-.79,11.01.01.21.03.42.05.63.01.1.05.26.03.36-.02.13-.14.24-.23.33-.29.32-.64.58-1.03.75-.75.33-1.68.32-2.42-.02-.38-.17-.71-.43-.99-.74-.21-.23-.22-.35-.2-.64.02-.24.04-.49.05-.73.07-.93.12-1.87.15-2.8.11-3.61-.19-7.4-2.03-10.59-1.71-2.96-4.09-5.6-7.04-7.36-1.26-.75-2.61-1.35-4.02-1.76-.68-.2-1.37-.35-2.07-.48-.56-.1-1.11-.32-1.51-.74-.63-.66-.64-1.69.11-2.27.46-.36,1.07-.46,1.64-.46.79.01,1.61.17,2.38.34,3,.64,5.83,1.99,8.19,3.96,2.34,1.95,4.19,4.45,5.49,7.2.34.71.63,1.44.9,2.18.06.18.3.18.36,0,1.42-3.96,3.87-7.57,7.28-10.07,1.67-1.22,3.53-2.17,5.5-2.79,1.02-.32,2.08-.56,3.14-.71.87-.12,1.85-.23,2.62.3.55.38.78,1.06.56,1.7-.29.81-1.12,1.21-1.91,1.36-.24.04-.14.4.1.36.77-.14,1.54-.51,1.96-1.2.34-.54.4-1.21.13-1.79-.85-1.79-3.46-1.17-4.94-.85-4.39.94-8.32,3.41-11.12,6.92-1.6,2-2.82,4.26-3.68,6.67h.36c-1.06-2.96-2.67-5.73-4.85-8.01-2.13-2.23-4.78-3.95-7.7-4.95-.75-.26-1.52-.47-2.3-.63C7.87.2,7.05.05,6.25.02c-1.03-.03-2.21.34-2.58,1.4-.31.9.18,1.83.94,2.33.55.36,1.18.44,1.81.57.71.14,1.42.33,2.11.56,3.15,1.06,5.88,3.06,8.01,5.6,1.25,1.5,2.39,3.18,3.08,5.02.67,1.78.97,3.68,1.07,5.57.1,1.92.01,3.85-.12,5.77-.02.24-.04.49-.05.73-.02.21-.07.41.06.59.23.33.53.61.85.84.65.45,1.46.63,2.24.55.79-.08,1.51-.44,2.06-1.01.12-.13.32-.3.39-.47s0-.43-.01-.61c-.04-.47-.07-.94-.1-1.42-.12-1.94-.18-3.88-.01-5.82.16-1.9.56-3.8,1.35-5.54.8-1.75,1.98-3.39,3.27-4.82,2.18-2.41,4.94-4.25,8.06-5.18.69-.21,1.4-.37,2.11-.49.24-.02.14-.38-.1-.34Z"/>
      <path d="m6.46,54.73c1.53.03,3.05-.23,4.43-.88,1.32-.63,2.45-1.59,3.39-2.7.06-.07.07-.15.03-.23-.83-1.47-1.37-3.1-1.54-4.79-.02-.16-.19-.24-.32-.13-2.34,2.02-5.93,3.59-8.62,1.27-.89-.77-1.53-1.79-2.02-2.85-.05-.1-.22-.13-.29-.04-1.15,1.46-1.72,3.31-1.46,5.16.25,1.81,1.33,3.41,2.92,4.31,1.06.59,2.27.85,3.48.88.24.01.24-.37,0-.38-1.9-.05-3.8-.74-4.98-2.3-1-1.33-1.32-3.08-.98-4.7.21-.99.65-1.92,1.28-2.72-.1-.01-.2-.03-.29-.04.82,1.75,2.09,3.44,4.02,4.01,1.59.47,3.27.07,4.71-.66.9-.45,1.73-1.04,2.49-1.7-.11-.04-.21-.09-.32-.13.18,1.75.73,3.44,1.6,4.97.01-.08.02-.15.03-.23-.91,1.07-1.97,1.99-3.24,2.61-1.35.65-2.83.89-4.32.87-.24.02-.24.4,0,.4Z"/>
      <path d="m23.32,54.82c-4.45-.02-7.94-3.85-8.74-8.03-.24-1.25-.24-2.54.01-3.79-.06.05-.12.09-.18.14,2.32-.08,4.64-.28,6.94-.56.59-.07,1.19-.16,1.78-.23.54-.06,1.13.1,1.66.17,1.18.15,2.36.27,3.54.38,1.3.11,2.6.2,3.9.24-.06-.05-.12-.09-.18-.14.86,4.27-1.33,9.03-5.27,10.99-1.07.54-2.26.83-3.46.83-.24,0-.24.38,0,.38,4.64-.03,8.31-4.02,9.12-8.39.24-1.29.23-2.61-.03-3.9-.02-.08-.1-.14-.18-.14-2.3-.08-4.59-.28-6.88-.55-.6-.07-1.19-.15-1.78-.22-.57-.08-1.21.09-1.79.17-1.16.14-2.31.27-3.47.37-1.3.11-2.6.2-3.9.24-.08,0-.16.06-.18.14-.89,4.45,1.38,9.44,5.51,11.45,1.12.54,2.34.83,3.58.84.24-.01.24-.39,0-.39Z"/>
      <g>
        <g class="cls-26">
          <g>
            <g class="cls-16">
              <g>
                <path class="cls-29" d="m3.19,33.68c-.52,0-.93-.42-.93-.93s.42-.93.93-.93.93.42.93.93-.41.93-.93.93Z"/>
                <path class="cls-29" d="m9.42,33.68c-.52,0-.93-.42-.93-.93s.42-.93.93-.93.93.42.93.93c0,.52-.41.93-.93.93Z"/>
                <path class="cls-29" d="m3.19,27.45c-.52,0-.93-.42-.93-.93s.42-.93.93-.93.93.42.93.93-.41.93-.93.93Z"/>
                <path class="cls-29" d="m9.42,27.45c-.52,0-.93-.42-.93-.93s.42-.93.93-.93.93.42.93.93c0,.51-.41.93-.93.93Z"/>
                <path class="cls-29" d="m12.54,30.57c-.52,0-.93-.42-.93-.93s.42-.93.93-.93.93.42.93.93-.42.93-.93.93Z"/>
                <path class="cls-29" d="m6.3,30.57c-.52,0-.93-.42-.93-.93s.42-.93.93-.93.93.42.93.93c.01.51-.41.93-.93.93Z"/>
                <path class="cls-29" d="m12.54,24.34c-.52,0-.93-.42-.93-.93s.42-.93.93-.93.93.42.93.93-.42.93-.93.93Z"/>
                <path class="cls-29" d="m6.3,24.34c-.52,0-.93-.42-.93-.93s.42-.93.93-.93.93.42.93.93c.01.51-.41.93-.93.93Z"/>
              </g>
            </g>
            <g class="cls-6">
              <g>
                <path class="cls-29" d="m15.65,33.68c-.52,0-.93-.42-.93-.93s.42-.93.93-.93.93.42.93.93c.01.52-.41.93-.93.93Z"/>
                <path class="cls-29" d="m15.65,27.45c-.52,0-.93-.42-.93-.93s.42-.93.93-.93.93.42.93.93c.01.51-.41.93-.93.93Z"/>
              </g>
            </g>
            <g class="cls-32">
              <g>
                <path class="cls-29" d="m3.19,21.22c-.52,0-.93-.42-.93-.94s.42-.93.93-.93.93.42.93.93-.41.94-.93.94Z"/>
                <path class="cls-29" d="m9.42,21.22c-.52,0-.93-.42-.93-.94s.42-.93.93-.93.93.42.93.93c0,.52-.41.94-.93.94Z"/>
              </g>
            </g>
            <g class="cls-17">
              <path class="cls-29" d="m15.65,21.22c-.52,0-.93-.42-.93-.94s.42-.93.93-.93.93.42.93.93c.01.52-.41.94-.93.94Z"/>
            </g>
          </g>
        </g>
        <g class="cls-38">
          <g>
            <g class="cls-11">
              <g>
                <path class="cls-29" d="m3.19,46.15c-.52,0-.93-.42-.93-.93s.42-.93.93-.93.93.42.93.93-.41.93-.93.93Z"/>
                <path class="cls-29" d="m9.42,46.15c-.52,0-.93-.42-.93-.93s.42-.93.93-.93.93.42.93.93-.41.93-.93.93Z"/>
                <path class="cls-29" d="m3.19,39.91c-.52,0-.93-.42-.93-.93s.42-.93.93-.93.93.42.93.93-.41.93-.93.93Z"/>
                <path class="cls-29" d="m9.42,39.91c-.52,0-.93-.42-.93-.93s.42-.93.93-.93.93.42.93.93c0,.52-.41.93-.93.93Z"/>
                <path class="cls-29" d="m12.54,43.03c-.52,0-.93-.42-.93-.93s.42-.93.93-.93.93.42.93.93-.42.93-.93.93Z"/>
                <path class="cls-29" d="m6.3,43.03c-.52,0-.93-.42-.93-.93s.42-.93.93-.93.93.42.93.93c.01.51-.41.93-.93.93Z"/>
                <path class="cls-29" d="m12.54,36.8c-.52,0-.93-.42-.93-.93s.42-.93.93-.93.93.42.93.93-.42.93-.93.93Z"/>
                <path class="cls-29" d="m6.3,36.8c-.52,0-.93-.42-.93-.93s.42-.93.93-.93.93.42.93.93c.01.51-.41.93-.93.93Z"/>
              </g>
            </g>
            <g class="cls-13">
              <g>
                <path class="cls-29" d="m15.65,46.15c-.52,0-.93-.42-.93-.93s.42-.93.93-.93.93.42.93.93-.41.93-.93.93Z"/>
                <path class="cls-29" d="m15.65,39.91c-.52,0-.93-.42-.93-.93s.42-.93.93-.93.93.42.93.93c.01.52-.41.93-.93.93Z"/>
              </g>
            </g>
            <g class="cls-33">
              <g>
                <path class="cls-29" d="m3.19,33.68c-.52,0-.93-.42-.93-.94s.42-.93.93-.93.93.42.93.93-.41.94-.93.94Z"/>
                <path class="cls-29" d="m9.42,33.68c-.52,0-.93-.42-.93-.94s.42-.93.93-.93.93.42.93.93c0,.53-.41.94-.93.94Z"/>
              </g>
            </g>
            <g class="cls-25">
              <path class="cls-29" d="m15.65,33.68c-.52,0-.93-.42-.93-.94s.42-.93.93-.93.93.42.93.93c.01.53-.41.94-.93.94Z"/>
            </g>
          </g>
        </g>
        <g class="cls-39">
          <g>
            <g class="cls-2">
              <g>
                <path class="cls-29" d="m15.65,33.68c-.52,0-.93-.42-.93-.93s.42-.93.93-.93.93.42.93.93c.01.52-.41.93-.93.93Z"/>
                <path class="cls-29" d="m21.88,33.68c-.52,0-.93-.42-.93-.93s.42-.93.93-.93.93.42.93.93c.01.52-.41.93-.93.93Z"/>
                <path class="cls-29" d="m15.65,27.45c-.52,0-.93-.42-.93-.93s.42-.93.93-.93.93.42.93.93c.01.51-.41.93-.93.93Z"/>
                <path class="cls-29" d="m21.88,27.45c-.52,0-.93-.42-.93-.93s.42-.93.93-.93.93.42.93.93c.01.51-.41.93-.93.93Z"/>
                <path class="cls-29" d="m25,30.57c-.52,0-.93-.42-.93-.93s.42-.93.93-.93.93.42.93.93-.42.93-.93.93Z"/>
                <path class="cls-29" d="m18.77,30.57c-.52,0-.93-.42-.93-.93s.42-.93.93-.93.93.42.93.93-.42.93-.93.93Z"/>
                <path class="cls-29" d="m25,24.34c-.52,0-.93-.42-.93-.93s.42-.93.93-.93.93.42.93.93-.42.93-.93.93Z"/>
                <path class="cls-29" d="m18.77,24.34c-.52,0-.93-.42-.93-.93s.42-.93.93-.93.93.42.93.93-.42.93-.93.93Z"/>
              </g>
            </g>
            <g class="cls-21">
              <g>
                <path class="cls-29" d="m28.11,33.68c-.52,0-.93-.42-.93-.93s.42-.93.93-.93.93.42.93.93c.01.52-.41.93-.93.93Z"/>
                <path class="cls-29" d="m28.11,27.45c-.52,0-.93-.42-.93-.93s.42-.93.93-.93.93.42.93.93c.01.51-.41.93-.93.93Z"/>
              </g>
            </g>
            <g class="cls-7">
              <g>
                <path class="cls-29" d="m15.65,21.22c-.52,0-.93-.42-.93-.94s.42-.93.93-.93.93.42.93.93c.01.52-.41.94-.93.94Z"/>
                <path class="cls-29" d="m21.88,21.22c-.52,0-.93-.42-.93-.94s.42-.93.93-.93.93.42.93.93c.01.52-.41.94-.93.94Z"/>
              </g>
            </g>
            <g class="cls-36">
              <path class="cls-29" d="m28.11,21.22c-.52,0-.93-.42-.93-.94s.42-.93.93-.93.93.42.93.93c.01.52-.41.94-.93.94Z"/>
            </g>
          </g>
        </g>
        <g class="cls-10">
          <g>
            <g class="cls-3">
              <g>
                <path class="cls-29" d="m15.65,46.15c-.52,0-.93-.42-.93-.93s.42-.93.93-.93.93.42.93.93-.41.93-.93.93Z"/>
                <path class="cls-29" d="m21.88,46.15c-.52,0-.93-.42-.93-.93s.42-.93.93-.93.93.42.93.93-.41.93-.93.93Z"/>
                <path class="cls-29" d="m15.65,39.91c-.52,0-.93-.42-.93-.93s.42-.93.93-.93.93.42.93.93c.01.52-.41.93-.93.93Z"/>
                <path class="cls-29" d="m21.88,39.91c-.52,0-.93-.42-.93-.93s.42-.93.93-.93.93.42.93.93c.01.52-.41.93-.93.93Z"/>
                <path class="cls-29" d="m25,43.03c-.52,0-.93-.42-.93-.93s.42-.93.93-.93.93.42.93.93-.42.93-.93.93Z"/>
                <path class="cls-29" d="m18.77,43.03c-.52,0-.93-.42-.93-.93s.42-.93.93-.93.93.42.93.93-.42.93-.93.93Z"/>
                <path class="cls-29" d="m25,36.8c-.52,0-.93-.42-.93-.93s.42-.93.93-.93.93.42.93.93-.42.93-.93.93Z"/>
                <path class="cls-29" d="m18.77,36.8c-.52,0-.93-.42-.93-.93s.42-.93.93-.93.93.42.93.93-.42.93-.93.93Z"/>
              </g>
            </g>
            <g class="cls-37">
              <g>
                <path class="cls-29" d="m28.11,46.15c-.52,0-.93-.42-.93-.93s.42-.93.93-.93.93.42.93.93-.41.93-.93.93Z"/>
                <path class="cls-29" d="m28.11,39.91c-.52,0-.93-.42-.93-.93s.42-.93.93-.93.93.42.93.93c.01.52-.41.93-.93.93Z"/>
              </g>
            </g>
            <g class="cls-35">
              <g>
                <path class="cls-29" d="m15.65,33.68c-.52,0-.93-.42-.93-.94s.42-.93.93-.93.93.42.93.93c.01.53-.41.94-.93.94Z"/>
                <path class="cls-29" d="m21.88,33.68c-.52,0-.93-.42-.93-.94s.42-.93.93-.93.93.42.93.93c.01.53-.41.94-.93.94Z"/>
              </g>
            </g>
            <g class="cls-30">
              <path class="cls-29" d="m28.11,33.68c-.52,0-.93-.42-.93-.94s.42-.93.93-.93.93.42.93.93c.01.53-.41.94-.93.94Z"/>
            </g>
          </g>
        </g>
      </g>
      <path d="m40.18,54.36c-1.49.02-2.98-.22-4.32-.87-1.27-.61-2.33-1.54-3.24-2.61.01.08.02.15.03.23.87-1.54,1.41-3.22,1.6-4.97-.11.04-.21.09-.32.13,1.3,1.12,2.83,2.08,4.53,2.43,1.64.33,3.27-.03,4.56-1.11.94-.8,1.62-1.87,2.14-2.98-.1.01-.2.03-.29.04,1.07,1.36,1.61,3.13,1.35,4.86-.25,1.68-1.23,3.16-2.71,4-1.02.57-2.18.82-3.33.85-.24.01-.24.38,0,.38,2.02-.05,4.01-.79,5.26-2.43,1.09-1.43,1.43-3.32,1.05-5.07-.23-1.05-.71-2.01-1.37-2.85-.07-.09-.25-.06-.29.04-.78,1.68-1.99,3.33-3.86,3.86-1.49.42-3.08.02-4.42-.67-.85-.43-1.63-.99-2.35-1.61-.13-.11-.3-.03-.32.13-.18,1.68-.71,3.31-1.54,4.79-.04.08-.03.16.03.23.94,1.11,2.07,2.08,3.39,2.7,1.39.66,2.91.91,4.43.88.23-.01.23-.39,0-.38Z"/>
      <g>
        <g class="cls-1">
          <g>
            <g class="cls-14">
              <g>
                <path class="cls-29" d="m43.81,33.68c.52,0,.93-.42.93-.93s-.42-.93-.93-.93-.93.42-.93.93.41.93.93.93Z"/>
                <path class="cls-29" d="m37.58,33.68c.52,0,.93-.42.93-.93s-.42-.93-.93-.93-.93.42-.93.93.41.93.93.93Z"/>
                <path class="cls-29" d="m43.81,27.45c.52,0,.93-.42.93-.93s-.42-.93-.93-.93-.93.42-.93.93.41.93.93.93Z"/>
                <path class="cls-29" d="m37.58,27.45c.52,0,.93-.42.93-.93s-.42-.93-.93-.93-.93.42-.93.93.41.93.93.93Z"/>
                <path class="cls-29" d="m34.46,30.57c.52,0,.93-.42.93-.93s-.42-.93-.93-.93-.93.42-.93.93.42.93.93.93Z"/>
                <path class="cls-29" d="m40.7,30.57c.52,0,.93-.42.93-.93s-.42-.93-.93-.93-.93.42-.93.93c0,.51.41.93.93.93Z"/>
                <path class="cls-29" d="m34.46,24.34c.52,0,.93-.42.93-.93s-.42-.93-.93-.93-.93.42-.93.93.42.93.93.93Z"/>
                <path class="cls-29" d="m40.7,24.34c.52,0,.93-.42.93-.93s-.42-.93-.93-.93-.93.42-.93.93c0,.51.41.93.93.93Z"/>
              </g>
            </g>
            <g class="cls-24">
              <g>
                <path class="cls-29" d="m31.35,33.68c.52,0,.93-.42.93-.93s-.42-.93-.93-.93-.93.42-.93.93c-.01.52.41.93.93.93Z"/>
                <path class="cls-29" d="m31.35,27.45c.52,0,.93-.42.93-.93s-.42-.93-.93-.93-.93.42-.93.93c-.01.51.41.93.93.93Z"/>
              </g>
            </g>
            <g class="cls-40">
              <g>
                <path class="cls-29" d="m43.81,21.22c.52,0,.93-.42.93-.94s-.42-.93-.93-.93-.93.42-.93.93.41.94.93.94Z"/>
                <path class="cls-29" d="m37.58,21.22c.52,0,.93-.42.93-.94s-.42-.93-.93-.93-.93.42-.93.93.41.94.93.94Z"/>
              </g>
            </g>
            <g class="cls-22">
              <path class="cls-29" d="m31.35,21.22c.52,0,.93-.42.93-.94s-.42-.93-.93-.93-.93.42-.93.93c-.01.52.41.94.93.94Z"/>
            </g>
          </g>
        </g>
        <g class="cls-9">
          <g>
            <g class="cls-12">
              <g>
                <path class="cls-29" d="m43.81,46.15c.52,0,.93-.42.93-.93s-.42-.93-.93-.93-.93.42-.93.93.41.93.93.93Z"/>
                <path class="cls-29" d="m37.58,46.15c.52,0,.93-.42.93-.93s-.42-.93-.93-.93-.93.42-.93.93.41.93.93.93Z"/>
                <path class="cls-29" d="m43.81,39.91c.52,0,.93-.42.93-.93s-.42-.93-.93-.93-.93.42-.93.93.41.93.93.93Z"/>
                <path class="cls-29" d="m37.58,39.91c.52,0,.93-.42.93-.93s-.42-.93-.93-.93-.93.42-.93.93.41.93.93.93Z"/>
                <path class="cls-29" d="m34.46,43.03c.52,0,.93-.42.93-.93s-.42-.93-.93-.93-.93.42-.93.93.42.93.93.93Z"/>
                <path class="cls-29" d="m40.7,43.03c.52,0,.93-.42.93-.93s-.42-.93-.93-.93-.93.42-.93.93c0,.51.41.93.93.93Z"/>
                <path class="cls-29" d="m34.46,36.8c.52,0,.93-.42.93-.93s-.42-.93-.93-.93-.93.42-.93.93.42.93.93.93Z"/>
                <path class="cls-29" d="m40.7,36.8c.52,0,.93-.42.93-.93s-.42-.93-.93-.93-.93.42-.93.93c0,.51.41.93.93.93Z"/>
              </g>
            </g>
            <g class="cls-20">
              <g>
                <path class="cls-29" d="m31.35,46.15c.52,0,.93-.42.93-.93s-.42-.93-.93-.93-.93.42-.93.93.41.93.93.93Z"/>
                <path class="cls-29" d="m31.35,39.91c.52,0,.93-.42.93-.93s-.42-.93-.93-.93-.93.42-.93.93c-.01.52.41.93.93.93Z"/>
              </g>
            </g>
            <g class="cls-41">
              <g>
                <path class="cls-29" d="m43.81,33.68c.52,0,.93-.42.93-.94s-.42-.93-.93-.93-.93.42-.93.93.41.94.93.94Z"/>
                <path class="cls-29" d="m37.58,33.68c.52,0,.93-.42.93-.94s-.42-.93-.93-.93-.93.42-.93.93.41.94.93.94Z"/>
              </g>
            </g>
            <g class="cls-34">
              <path class="cls-29" d="m31.35,33.68c.52,0,.93-.42.93-.94s-.42-.93-.93-.93-.93.42-.93.93c-.01.53.41.94.93.94Z"/>
            </g>
          </g>
        </g>
        <g class="cls-23">
          <g>
            <g class="cls-31">
              <g>
                <path class="cls-29" d="m31.35,33.68c.52,0,.93-.42.93-.93s-.42-.93-.93-.93-.93.42-.93.93c-.01.52.41.93.93.93Z"/>
                <path class="cls-29" d="m25.12,33.68c.52,0,.93-.42.93-.93s-.42-.93-.93-.93-.93.42-.93.93c-.01.52.41.93.93.93Z"/>
                <path class="cls-29" d="m31.35,27.45c.52,0,.93-.42.93-.93s-.42-.93-.93-.93-.93.42-.93.93c-.01.51.41.93.93.93Z"/>
                <path class="cls-29" d="m25.12,27.45c.52,0,.93-.42.93-.93s-.42-.93-.93-.93-.93.42-.93.93c-.01.51.41.93.93.93Z"/>
                <path class="cls-29" d="m22,30.57c.52,0,.93-.42.93-.93s-.42-.93-.93-.93-.93.42-.93.93.42.93.93.93Z"/>
                <path class="cls-29" d="m28.23,30.57c.52,0,.93-.42.93-.93s-.42-.93-.93-.93-.93.42-.93.93.42.93.93.93Z"/>
                <path class="cls-29" d="m22,24.34c.52,0,.93-.42.93-.93s-.42-.93-.93-.93-.93.42-.93.93.42.93.93.93Z"/>
                <path class="cls-29" d="m28.23,24.34c.52,0,.93-.42.93-.93s-.42-.93-.93-.93-.93.42-.93.93.42.93.93.93Z"/>
              </g>
            </g>
            <g class="cls-5">
              <g>
                <path class="cls-29" d="m18.89,33.68c.52,0,.93-.42.93-.93s-.42-.93-.93-.93-.93.42-.93.93c-.01.52.41.93.93.93Z"/>
                <path class="cls-29" d="m18.89,27.45c.52,0,.93-.42.93-.93s-.42-.93-.93-.93-.93.42-.93.93c-.01.51.41.93.93.93Z"/>
              </g>
            </g>
            <g class="cls-4">
              <g>
                <path class="cls-29" d="m31.35,21.22c.52,0,.93-.42.93-.94s-.42-.93-.93-.93-.93.42-.93.93c-.01.52.41.94.93.94Z"/>
                <path class="cls-29" d="m25.12,21.22c.52,0,.93-.42.93-.94s-.42-.93-.93-.93-.93.42-.93.93c-.01.52.41.94.93.94Z"/>
              </g>
            </g>
            <g class="cls-15">
              <path class="cls-29" d="m18.89,21.22c.52,0,.93-.42.93-.94s-.42-.93-.93-.93-.93.42-.93.93c-.01.52.41.94.93.94Z"/>
            </g>
          </g>
        </g>
        <g class="cls-42">
          <g>
            <g class="cls-19">
              <g>
                <path class="cls-29" d="m31.35,46.15c.52,0,.93-.42.93-.93s-.42-.93-.93-.93-.93.42-.93.93.41.93.93.93Z"/>
                <path class="cls-29" d="m25.12,46.15c.52,0,.93-.42.93-.93s-.42-.93-.93-.93-.93.42-.93.93.41.93.93.93Z"/>
                <path class="cls-29" d="m31.35,39.91c.52,0,.93-.42.93-.93s-.42-.93-.93-.93-.93.42-.93.93c-.01.52.41.93.93.93Z"/>
                <path class="cls-29" d="m25.12,39.91c.52,0,.93-.42.93-.93s-.42-.93-.93-.93-.93.42-.93.93c-.01.52.41.93.93.93Z"/>
                <path class="cls-29" d="m22,43.03c.52,0,.93-.42.93-.93s-.42-.93-.93-.93-.93.42-.93.93.42.93.93.93Z"/>
                <path class="cls-29" d="m28.23,43.03c.52,0,.93-.42.93-.93s-.42-.93-.93-.93-.93.42-.93.93.42.93.93.93Z"/>
                <path class="cls-29" d="m22,36.8c.52,0,.93-.42.93-.93s-.42-.93-.93-.93-.93.42-.93.93.42.93.93.93Z"/>
                <path class="cls-29" d="m28.23,36.8c.52,0,.93-.42.93-.93s-.42-.93-.93-.93-.93.42-.93.93.42.93.93.93Z"/>
              </g>
            </g>
            <g class="cls-8">
              <g>
                <path class="cls-29" d="m18.89,46.15c.52,0,.93-.42.93-.93s-.42-.93-.93-.93-.93.42-.93.93.41.93.93.93Z"/>
                <path class="cls-29" d="m18.89,39.91c.52,0,.93-.42.93-.93s-.42-.93-.93-.93-.93.42-.93.93c-.01.52.41.93.93.93Z"/>
              </g>
            </g>
            <g class="cls-18">
              <g>
                <path class="cls-29" d="m31.35,33.68c.52,0,.93-.42.93-.94s-.42-.93-.93-.93-.93.42-.93.93c-.01.53.41.94.93.94Z"/>
                <path class="cls-29" d="m25.12,33.68c.52,0,.93-.42.93-.94s-.42-.93-.93-.93-.93.42-.93.93c-.01.53.41.94.93.94Z"/>
              </g>
            </g>
            <g class="cls-27">
              <path class="cls-29" d="m18.89,33.68c.52,0,.93-.42.93-.94s-.42-.93-.93-.93-.93.42-.93.93c-.01.53.41.94.93.94Z"/>
            </g>
          </g>
        </g>
      </g>
    </g>
  </g>
</svg>