<?xml version="1.0" encoding="UTF-8"?>
<svg id="Layer_2" data-name="Layer 2" xmlns="http://www.w3.org/2000/svg" xmlns:xlink="http://www.w3.org/1999/xlink" viewBox="0 0 62.52 58.71">
  <defs>
    <style>
      .cls-1 {
        clip-path: url(#clippath-20);
      }

      .cls-2 {
        clip-path: url(#clippath-11);
      }

      .cls-3 {
        clip-path: url(#clippath-16);
      }

      .cls-4 {
        clip-path: url(#clippath-2);
      }

      .cls-5 {
        clip-path: url(#clippath-13);
      }

      .cls-6 {
        clip-path: url(#clippath-25);
      }

      .cls-7 {
        clip-path: url(#clippath-15);
      }

      .cls-8 {
        clip-path: url(#clippath-6);
      }

      .cls-9 {
        clip-path: url(#clippath-26);
      }

      .cls-10 {
        clip-path: url(#clippath-7);
      }

      .cls-11 {
        clip-path: url(#clippath-21);
      }

      .cls-12 {
        clip-path: url(#clippath-1);
      }

      .cls-13 {
        clip-path: url(#clippath-4);
      }

      .cls-14 {
        clip-path: url(#clippath-27);
      }

      .cls-15 {
        clip-path: url(#clippath-12);
      }

      .cls-16 {
        clip-path: url(#clippath-24);
      }

      .cls-17 {
        clip-path: url(#clippath-22);
      }

      .cls-18 {
        clip-path: url(#clippath-9);
      }

      .cls-19 {
        clip-path: url(#clippath);
      }

      .cls-20, .cls-21 {
        fill: none;
      }

      .cls-22 {
        clip-path: url(#clippath-19);
      }

      .cls-23 {
        clip-path: url(#clippath-3);
      }

      .cls-24 {
        clip-path: url(#clippath-8);
      }

      .cls-25 {
        clip-path: url(#clippath-29);
      }

      .cls-26 {
        clip-path: url(#clippath-18);
      }

      .cls-27 {
        clip-path: url(#clippath-14);
      }

      .cls-28 {
        clip-path: url(#clippath-17);
      }

      .cls-29 {
        clip-path: url(#clippath-5);
      }

      .cls-30 {
        clip-path: url(#clippath-10);
      }

      .cls-31 {
        clip-path: url(#clippath-23);
      }

      .cls-32 {
        clip-path: url(#clippath-28);
      }

      .cls-21 {
        stroke: #000;
        stroke-miterlimit: 10;
        stroke-width: .5px;
      }
    </style>
    <clipPath id="clippath">
      <path class="cls-20" d="m17.66,31.84c4.47.34,8.12,2.14,10.37,5.17,1.23,1.67,1.98,3.63,2.21,5.67,1.2-2.18,3.01-4.05,5.18-5.28.7-.44,1.75-.83,2.86-1.09-1.61-2.96-1.78-6.76-.49-10.39-.56.05-1.12.08-1.68.08,0,0-.32,0-.47,0-3.81,0-7.32-1.33-9.75-3.62-1.22,3.33-3.29,6.15-5.92,8.09-.71.51-1.49.98-2.31,1.36Z"/>
    </clipPath>
    <clipPath id="clippath-1">
      <rect class="cls-20" x="11.5" y="21.08" width="11.06" height="11.06"/>
    </clipPath>
    <clipPath id="clippath-2">
      <rect class="cls-20" x="11.5" y="21.08" width="11.06" height="11.06"/>
    </clipPath>
    <clipPath id="clippath-3">
      <rect class="cls-20" x="11.5" y="21.08" width="11.06" height="11.06"/>
    </clipPath>
    <clipPath id="clippath-4">
      <rect class="cls-20" x="11.5" y="21.08" width="11.06" height="11.06"/>
    </clipPath>
    <clipPath id="clippath-5">
      <path class="cls-20" d="m17.66,31.84c4.47.34,8.12,2.14,10.37,5.17,1.23,1.67,1.98,3.63,2.21,5.67,1.2-2.18,3.01-4.05,5.18-5.28.7-.44,1.75-.83,2.86-1.09-1.61-2.96-1.78-6.76-.49-10.39-.56.05-1.12.08-1.68.08,0,0-.32,0-.47,0-3.81,0-7.32-1.33-9.75-3.62-1.22,3.33-3.29,6.15-5.92,8.09-.71.51-1.49.98-2.31,1.36Z"/>
    </clipPath>
    <clipPath id="clippath-6">
      <rect class="cls-20" x="11.5" y="32.14" width="11.06" height="11.06"/>
    </clipPath>
    <clipPath id="clippath-7">
      <rect class="cls-20" x="11.5" y="32.14" width="11.06" height="11.06"/>
    </clipPath>
    <clipPath id="clippath-8">
      <rect class="cls-20" x="11.5" y="32.14" width="11.06" height="11.06"/>
    </clipPath>
    <clipPath id="clippath-9">
      <rect class="cls-20" x="11.5" y="32.14" width="11.06" height="11.06"/>
    </clipPath>
    <clipPath id="clippath-10">
      <path class="cls-20" d="m17.66,31.84c4.47.34,8.12,2.14,10.37,5.17,1.23,1.67,1.98,3.63,2.21,5.67,1.2-2.18,3.01-4.05,5.18-5.28.7-.44,1.75-.83,2.86-1.09-1.61-2.96-1.78-6.76-.49-10.39-.56.05-1.12.08-1.68.08,0,0-.32,0-.47,0-3.81,0-7.32-1.33-9.75-3.62-1.22,3.33-3.29,6.15-5.92,8.09-.71.51-1.49.98-2.31,1.36Z"/>
    </clipPath>
    <clipPath id="clippath-11">
      <rect class="cls-20" x="22.57" y="21.08" width="11.06" height="11.06"/>
    </clipPath>
    <clipPath id="clippath-12">
      <rect class="cls-20" x="22.57" y="21.08" width="11.06" height="11.06"/>
    </clipPath>
    <clipPath id="clippath-13">
      <rect class="cls-20" x="22.57" y="21.08" width="11.06" height="11.06"/>
    </clipPath>
    <clipPath id="clippath-14">
      <rect class="cls-20" x="22.57" y="21.08" width="11.06" height="11.06"/>
    </clipPath>
    <clipPath id="clippath-15">
      <path class="cls-20" d="m17.66,31.84c4.47.34,8.12,2.14,10.37,5.17,1.23,1.67,1.98,3.63,2.21,5.67,1.2-2.18,3.01-4.05,5.18-5.28.7-.44,1.75-.83,2.86-1.09-1.61-2.96-1.78-6.76-.49-10.39-.56.05-1.12.08-1.68.08,0,0-.32,0-.47,0-3.81,0-7.32-1.33-9.75-3.62-1.22,3.33-3.29,6.15-5.92,8.09-.71.51-1.49.98-2.31,1.36Z"/>
    </clipPath>
    <clipPath id="clippath-16">
      <rect class="cls-20" x="22.57" y="32.14" width="11.06" height="11.06"/>
    </clipPath>
    <clipPath id="clippath-17">
      <rect class="cls-20" x="22.57" y="32.14" width="11.06" height="11.06"/>
    </clipPath>
    <clipPath id="clippath-18">
      <rect class="cls-20" x="22.57" y="32.14" width="11.06" height="11.06"/>
    </clipPath>
    <clipPath id="clippath-19">
      <rect class="cls-20" x="22.57" y="32.14" width="11.06" height="11.06"/>
    </clipPath>
    <clipPath id="clippath-20">
      <path class="cls-20" d="m17.66,31.84c4.47.34,8.12,2.14,10.37,5.17,1.23,1.67,1.98,3.63,2.21,5.67,1.2-2.18,3.01-4.05,5.18-5.28.7-.44,1.75-.83,2.86-1.09-1.61-2.96-1.78-6.76-.49-10.39-.56.05-1.12.08-1.68.08,0,0-.32,0-.47,0-3.81,0-7.32-1.33-9.75-3.62-1.22,3.33-3.29,6.15-5.92,8.09-.71.51-1.49.98-2.31,1.36Z"/>
    </clipPath>
    <clipPath id="clippath-21">
      <rect class="cls-20" x="33.63" y="21.08" width="11.06" height="11.06"/>
    </clipPath>
    <clipPath id="clippath-22">
      <rect class="cls-20" x="33.63" y="21.08" width="11.06" height="11.06"/>
    </clipPath>
    <clipPath id="clippath-23">
      <rect class="cls-20" x="33.63" y="21.08" width="11.06" height="11.06"/>
    </clipPath>
    <clipPath id="clippath-24">
      <rect class="cls-20" x="33.63" y="21.08" width="11.06" height="11.06"/>
    </clipPath>
    <clipPath id="clippath-25">
      <path class="cls-20" d="m17.66,31.84c4.47.34,8.12,2.14,10.37,5.17,1.23,1.67,1.98,3.63,2.21,5.67,1.2-2.18,3.01-4.05,5.18-5.28.7-.44,1.75-.83,2.86-1.09-1.61-2.96-1.78-6.76-.49-10.39-.56.05-1.12.08-1.68.08,0,0-.32,0-.47,0-3.81,0-7.32-1.33-9.75-3.62-1.22,3.33-3.29,6.15-5.92,8.09-.71.51-1.49.98-2.31,1.36Z"/>
    </clipPath>
    <clipPath id="clippath-26">
      <rect class="cls-20" x="33.63" y="32.14" width="11.06" height="11.06"/>
    </clipPath>
    <clipPath id="clippath-27">
      <rect class="cls-20" x="33.63" y="32.14" width="11.06" height="11.06"/>
    </clipPath>
    <clipPath id="clippath-28">
      <rect class="cls-20" x="33.63" y="32.14" width="11.06" height="11.06"/>
    </clipPath>
    <clipPath id="clippath-29">
      <rect class="cls-20" x="33.63" y="32.14" width="11.06" height="11.06"/>
    </clipPath>
  </defs>
  <g id="Layer_1-2" data-name="Layer 1">
    <g>
      <path d="m25.29,20.36c1.49,1.99,3.63,3.37,5.99,4.1,2.73.84,5.71.81,8.5.27,2.66-.52,5.22-1.65,7.27-3.45,2.14-1.89,3.56-4.55,3.95-7.38.39-2.77-.29-5.52-2.07-7.7-.88-1.07-1.94-1.96-3.06-2.76-1.16-.84-2.33-1.66-3.64-2.25-2.55-1.15-5.42-1.51-8.14-.82-2.44.62-4.85,1.56-6.82,3.16-.94.75-1.77,1.66-2.36,2.71-.7,1.24-1.12,2.68-1.35,4.07-.13.76-.2,1.53-.23,2.3-.03.78-.06,1.57,0,2.36.1,1.32.43,2.61,1,3.81.26.55.58,1.08.96,1.58.14.19.47,0,.32-.19-.75-1.01-1.3-2.15-1.61-3.36-.36-1.37-.36-2.75-.31-4.15.09-2.7.74-5.64,2.59-7.71,1.6-1.78,3.81-2.95,6.06-3.69,1.25-.42,2.55-.77,3.87-.86s2.65.06,3.93.42c1.33.37,2.59.95,3.75,1.7,1.14.73,2.27,1.53,3.28,2.42.98.86,1.87,1.85,2.5,3.01.66,1.2,1,2.57,1.06,3.94.12,2.76-.85,5.57-2.58,7.72-1.66,2.07-4.05,3.49-6.56,4.28-1.36.43-2.77.69-4.19.79-1.38.1-2.78.09-4.14-.14-2.39-.39-4.71-1.39-6.48-3.06-.42-.4-.81-.84-1.16-1.31-.15-.19-.48,0-.33.19Z"/>
      <path d="m.2,23.48c.87,4.31,4.25,7.82,8.58,8.69,4.35.88,8.99-.64,12.17-3.69,1.86-1.78,3.22-4.02,4.12-6.42.02-.06-.01-.14-.05-.18-1.45-1.54-2.37-3.57-2.74-5.64-.19-1.09-.17-2.17-.16-3.27.02-1.19.16-2.36.38-3.53.01-.08-.01-.17-.09-.21-3.9-2.05-8.58-2.44-12.74-.92-3.79,1.39-7.07,4.24-8.66,7.99C.07,18.56-.25,21.06.2,23.48c.04.24.41.14.36-.1-.78-4.14.85-8.41,3.82-11.32,2.84-2.78,6.77-4.36,10.74-4.31,2.47.03,4.92.65,7.11,1.8l-.09-.21c-.22,1.2-.37,2.41-.4,3.63-.02,1.14-.03,2.24.17,3.37.38,2.13,1.34,4.22,2.83,5.81-.02-.06-.03-.12-.05-.18-1.54,4.12-4.58,7.7-8.78,9.23-3.97,1.45-8.69,1.1-11.93-1.79-1.76-1.57-2.97-3.71-3.44-6.02-.02-.24-.38-.14-.34.09Z"/>
      <path d="m39.94,37.23c1.15,1.43,2.73,2.56,4.38,3.33,1.64.77,3.43,1.21,5.24,1.26,1.83.05,3.78-.26,5.44-1.06,1.55-.75,2.89-1.92,4-3.23,2.12-2.51,3.48-5.75,3.51-9.06.02-2.58-.99-4.97-2.85-6.76-1.99-1.91-4.63-3.05-7.26-3.8-.36-.1-.73-.2-1.1-.29-.07-.02-.18,0-.21.09-1.6,3.72-5.04,6.34-8.81,7.58-1.12.37-2.28.64-3.45.79-.09,0-.15.05-.18.14-1.27,3.63-1.15,7.88,1.29,11.01.15.19.41-.08.27-.27-2.36-3.01-2.42-7.16-1.2-10.65-.06.05-.12.09-.18.14,3.98-.53,7.95-2.27,10.58-5.38.81-.95,1.51-2.03,2.01-3.18-.07.03-.14.06-.21.09,2.62.64,5.27,1.61,7.4,3.31,1.91,1.52,3.23,3.63,3.48,6.08.32,3.07-.75,6.26-2.48,8.76-.98,1.41-2.19,2.69-3.63,3.64-1.5.99-3.24,1.49-5.02,1.64-3.56.29-7.18-.98-9.79-3.42-.34-.32-.66-.66-.96-1.03-.15-.19-.42.08-.27.27Z"/>
      <path d="m16.02,32.67c-2.6.15-5.22.84-7.31,2.44-1.76,1.34-3,3.24-3.52,5.39-.58,2.37-.32,4.87.44,7.17.47,1.41,1.11,2.7,2.11,3.81,1.06,1.17,2.4,2.15,3.91,2.64.8.26,1.65.41,2.48.54.77.12,1.54.21,2.32.25,1.37.07,2.76,0,4.1-.28,2.22-.45,4.31-1.49,5.9-3.13,2.79-2.89,3.69-7.3,2.38-11.08-.69-1.97-1.94-3.71-3.6-4.99-1.99-1.54-4.43-2.35-6.91-2.64-.76-.09-1.53-.12-2.3-.12-.24,0-.24.37,0,.38,2.63,0,5.3.48,7.61,1.78,1.8,1.01,3.3,2.51,4.25,4.35,1.78,3.43,1.48,7.74-.74,10.9-1.19,1.7-2.92,2.96-4.85,3.68-2.52.93-5.28.98-7.91.57-1.58-.24-3.11-.58-4.46-1.46-1.32-.86-2.47-2.06-3.2-3.46-.6-1.15-.99-2.46-1.24-3.73-.22-1.14-.3-2.31-.2-3.46.18-2.14,1.02-4.2,2.5-5.76,1.63-1.73,3.86-2.72,6.16-3.15.68-.13,1.38-.2,2.07-.24.25-.04.26-.42.01-.4Z"/>
      <g>
        <g class="cls-19">
          <g>
            <g class="cls-12">
              <g>
                <path class="cls-21" d="m11.5,33.52c-.76,0-1.38-.62-1.38-1.38s.62-1.38,1.38-1.38,1.38.62,1.38,1.38c0,.76-.61,1.38-1.38,1.38Z"/>
                <path class="cls-21" d="m17.04,33.52c-.76,0-1.38-.62-1.38-1.38s.62-1.38,1.38-1.38,1.38.62,1.38,1.38-.62,1.38-1.38,1.38Z"/>
                <circle class="cls-21" cx="11.5" cy="26.61" r="1.38"/>
                <path class="cls-21" d="m17.04,27.99c-.76,0-1.38-.62-1.38-1.38s.62-1.38,1.38-1.38,1.38.62,1.38,1.38-.62,1.38-1.38,1.38Z"/>
                <path class="cls-21" d="m19.8,30.76c-.76,0-1.38-.62-1.38-1.38s.62-1.38,1.38-1.38,1.38.62,1.38,1.38-.62,1.38-1.38,1.38Z"/>
                <path class="cls-21" d="m14.27,30.76c-.76,0-1.38-.62-1.38-1.38s.62-1.38,1.38-1.38,1.38.62,1.38,1.38-.62,1.38-1.38,1.38Z"/>
                <path class="cls-21" d="m19.8,25.22c-.76,0-1.38-.62-1.38-1.38s.62-1.38,1.38-1.38,1.38.62,1.38,1.38-.62,1.38-1.38,1.38Z"/>
                <path class="cls-21" d="m14.27,25.22c-.76,0-1.38-.62-1.38-1.38s.62-1.38,1.38-1.38,1.38.62,1.38,1.38-.62,1.38-1.38,1.38Z"/>
              </g>
            </g>
            <g class="cls-4">
              <g>
                <path class="cls-21" d="m22.57,33.52c-.76,0-1.38-.62-1.38-1.38s.62-1.38,1.38-1.38,1.38.62,1.38,1.38-.62,1.38-1.38,1.38Z"/>
                <circle class="cls-21" cx="22.57" cy="26.61" r="1.38"/>
              </g>
            </g>
            <g class="cls-23">
              <g>
                <path class="cls-21" d="m11.5,22.46c-.76,0-1.38-.62-1.38-1.38s.62-1.38,1.38-1.38,1.38.62,1.38,1.38c0,.76-.61,1.38-1.38,1.38Z"/>
                <path class="cls-21" d="m17.04,22.46c-.76,0-1.38-.62-1.38-1.38s.62-1.38,1.38-1.38,1.38.62,1.38,1.38-.62,1.38-1.38,1.38Z"/>
              </g>
            </g>
            <g class="cls-13">
              <path class="cls-21" d="m22.57,22.46c-.76,0-1.38-.62-1.38-1.38s.62-1.38,1.38-1.38,1.38.62,1.38,1.38-.62,1.38-1.38,1.38Z"/>
            </g>
          </g>
        </g>
        <g class="cls-29">
          <g>
            <g class="cls-8">
              <g>
                <path class="cls-21" d="m11.5,44.58c-.76,0-1.38-.62-1.38-1.38s.62-1.38,1.38-1.38,1.38.62,1.38,1.38c0,.76-.61,1.38-1.38,1.38Z"/>
                <path class="cls-21" d="m17.04,44.58c-.76,0-1.38-.62-1.38-1.38s.62-1.38,1.38-1.38,1.38.62,1.38,1.38-.62,1.38-1.38,1.38Z"/>
                <circle class="cls-21" cx="11.5" cy="37.67" r="1.38"/>
                <path class="cls-21" d="m17.04,39.05c-.76,0-1.38-.62-1.38-1.38s.62-1.38,1.38-1.38,1.38.62,1.38,1.38-.62,1.38-1.38,1.38Z"/>
                <path class="cls-21" d="m19.8,41.82c-.76,0-1.38-.62-1.38-1.38s.62-1.38,1.38-1.38,1.38.62,1.38,1.38-.62,1.38-1.38,1.38Z"/>
                <path class="cls-21" d="m14.27,41.82c-.76,0-1.38-.62-1.38-1.38s.62-1.38,1.38-1.38,1.38.62,1.38,1.38-.62,1.38-1.38,1.38Z"/>
                <path class="cls-21" d="m19.8,36.29c-.76,0-1.38-.62-1.38-1.38s.62-1.38,1.38-1.38,1.38.62,1.38,1.38-.62,1.38-1.38,1.38Z"/>
                <path class="cls-21" d="m14.27,36.29c-.76,0-1.38-.62-1.38-1.38s.62-1.38,1.38-1.38,1.38.62,1.38,1.38-.62,1.38-1.38,1.38Z"/>
              </g>
            </g>
            <g class="cls-10">
              <g>
                <path class="cls-21" d="m22.57,44.58c-.76,0-1.38-.62-1.38-1.38s.62-1.38,1.38-1.38,1.38.62,1.38,1.38-.62,1.38-1.38,1.38Z"/>
                <circle class="cls-21" cx="22.57" cy="37.67" r="1.38"/>
              </g>
            </g>
            <g class="cls-24">
              <g>
                <path class="cls-21" d="m11.5,33.52c-.76,0-1.38-.62-1.38-1.38s.62-1.38,1.38-1.38,1.38.62,1.38,1.38c0,.76-.61,1.38-1.38,1.38Z"/>
                <path class="cls-21" d="m17.04,33.52c-.76,0-1.38-.62-1.38-1.38s.62-1.38,1.38-1.38,1.38.62,1.38,1.38-.62,1.38-1.38,1.38Z"/>
              </g>
            </g>
            <g class="cls-18">
              <path class="cls-21" d="m22.57,33.52c-.76,0-1.38-.62-1.38-1.38s.62-1.38,1.38-1.38,1.38.62,1.38,1.38-.62,1.38-1.38,1.38Z"/>
            </g>
          </g>
        </g>
        <g class="cls-30">
          <g>
            <g class="cls-2">
              <g>
                <path class="cls-21" d="m22.57,33.52c-.76,0-1.38-.62-1.38-1.38s.62-1.38,1.38-1.38,1.38.62,1.38,1.38-.62,1.38-1.38,1.38Z"/>
                <path class="cls-21" d="m28.1,33.52c-.76,0-1.38-.62-1.38-1.38s.62-1.38,1.38-1.38,1.38.62,1.38,1.38-.62,1.38-1.38,1.38Z"/>
                <circle class="cls-21" cx="22.57" cy="26.61" r="1.38"/>
                <path class="cls-21" d="m28.1,27.99c-.76,0-1.38-.62-1.38-1.38s.62-1.38,1.38-1.38,1.38.62,1.38,1.38-.62,1.38-1.38,1.38Z"/>
                <path class="cls-21" d="m30.86,30.76c-.76,0-1.38-.62-1.38-1.38s.62-1.38,1.38-1.38,1.38.62,1.38,1.38c.01.76-.61,1.38-1.38,1.38Z"/>
                <path class="cls-21" d="m25.33,30.76c-.76,0-1.38-.62-1.38-1.38s.62-1.38,1.38-1.38,1.38.62,1.38,1.38-.62,1.38-1.38,1.38Z"/>
                <path class="cls-21" d="m30.86,25.22c-.76,0-1.38-.62-1.38-1.38s.62-1.38,1.38-1.38,1.38.62,1.38,1.38c.01.76-.61,1.38-1.38,1.38Z"/>
                <path class="cls-21" d="m25.33,25.22c-.76,0-1.38-.62-1.38-1.38s.62-1.38,1.38-1.38,1.38.62,1.38,1.38-.62,1.38-1.38,1.38Z"/>
              </g>
            </g>
            <g class="cls-15">
              <g>
                <path class="cls-21" d="m33.63,33.52c-.76,0-1.38-.62-1.38-1.38s.62-1.38,1.38-1.38,1.38.62,1.38,1.38-.62,1.38-1.38,1.38Z"/>
                <circle class="cls-21" cx="33.63" cy="26.61" r="1.38"/>
              </g>
            </g>
            <g class="cls-5">
              <g>
                <path class="cls-21" d="m22.57,22.46c-.76,0-1.38-.62-1.38-1.38s.62-1.38,1.38-1.38,1.38.62,1.38,1.38-.62,1.38-1.38,1.38Z"/>
                <path class="cls-21" d="m28.1,22.46c-.76,0-1.38-.62-1.38-1.38s.62-1.38,1.38-1.38,1.38.62,1.38,1.38-.62,1.38-1.38,1.38Z"/>
              </g>
            </g>
            <g class="cls-27">
              <path class="cls-21" d="m33.63,22.46c-.76,0-1.38-.62-1.38-1.38s.62-1.38,1.38-1.38,1.38.62,1.38,1.38-.62,1.38-1.38,1.38Z"/>
            </g>
          </g>
        </g>
        <g class="cls-7">
          <g>
            <g class="cls-3">
              <g>
                <path class="cls-21" d="m22.57,44.58c-.76,0-1.38-.62-1.38-1.38s.62-1.38,1.38-1.38,1.38.62,1.38,1.38-.62,1.38-1.38,1.38Z"/>
                <path class="cls-21" d="m28.1,44.58c-.76,0-1.38-.62-1.38-1.38s.62-1.38,1.38-1.38,1.38.62,1.38,1.38-.62,1.38-1.38,1.38Z"/>
                <circle class="cls-21" cx="22.57" cy="37.67" r="1.38"/>
                <path class="cls-21" d="m28.1,39.05c-.76,0-1.38-.62-1.38-1.38s.62-1.38,1.38-1.38,1.38.62,1.38,1.38-.62,1.38-1.38,1.38Z"/>
                <path class="cls-21" d="m30.86,41.82c-.76,0-1.38-.62-1.38-1.38s.62-1.38,1.38-1.38,1.38.62,1.38,1.38c.01.76-.61,1.38-1.38,1.38Z"/>
                <path class="cls-21" d="m25.33,41.82c-.76,0-1.38-.62-1.38-1.38s.62-1.38,1.38-1.38,1.38.62,1.38,1.38-.62,1.38-1.38,1.38Z"/>
                <path class="cls-21" d="m30.86,36.29c-.76,0-1.38-.62-1.38-1.38s.62-1.38,1.38-1.38,1.38.62,1.38,1.38c.01.76-.61,1.38-1.38,1.38Z"/>
                <path class="cls-21" d="m25.33,36.29c-.76,0-1.38-.62-1.38-1.38s.62-1.38,1.38-1.38,1.38.62,1.38,1.38-.62,1.38-1.38,1.38Z"/>
              </g>
            </g>
            <g class="cls-28">
              <g>
                <path class="cls-21" d="m33.63,44.58c-.76,0-1.38-.62-1.38-1.38s.62-1.38,1.38-1.38,1.38.62,1.38,1.38-.62,1.38-1.38,1.38Z"/>
                <circle class="cls-21" cx="33.63" cy="37.67" r="1.38"/>
              </g>
            </g>
            <g class="cls-26">
              <g>
                <path class="cls-21" d="m22.57,33.52c-.76,0-1.38-.62-1.38-1.38s.62-1.38,1.38-1.38,1.38.62,1.38,1.38-.62,1.38-1.38,1.38Z"/>
                <path class="cls-21" d="m28.1,33.52c-.76,0-1.38-.62-1.38-1.38s.62-1.38,1.38-1.38,1.38.62,1.38,1.38-.62,1.38-1.38,1.38Z"/>
              </g>
            </g>
            <g class="cls-22">
              <path class="cls-21" d="m33.63,33.52c-.76,0-1.38-.62-1.38-1.38s.62-1.38,1.38-1.38,1.38.62,1.38,1.38-.62,1.38-1.38,1.38Z"/>
            </g>
          </g>
        </g>
        <g class="cls-1">
          <g>
            <g class="cls-11">
              <g>
                <path class="cls-21" d="m33.63,33.52c-.76,0-1.38-.62-1.38-1.38s.62-1.38,1.38-1.38,1.38.62,1.38,1.38-.62,1.38-1.38,1.38Z"/>
                <path class="cls-21" d="m39.16,33.52c-.76,0-1.38-.62-1.38-1.38s.62-1.38,1.38-1.38,1.38.62,1.38,1.38-.62,1.38-1.38,1.38Z"/>
                <circle class="cls-21" cx="33.63" cy="26.61" r="1.38"/>
                <path class="cls-21" d="m39.16,27.99c-.76,0-1.38-.62-1.38-1.38s.62-1.38,1.38-1.38,1.38.62,1.38,1.38-.62,1.38-1.38,1.38Z"/>
                <path class="cls-21" d="m41.92,30.76c-.76,0-1.38-.62-1.38-1.38s.62-1.38,1.38-1.38,1.38.62,1.38,1.38c.01.76-.61,1.38-1.38,1.38Z"/>
                <path class="cls-21" d="m36.39,30.76c-.76,0-1.38-.62-1.38-1.38s.62-1.38,1.38-1.38,1.38.62,1.38,1.38c.01.76-.61,1.38-1.38,1.38Z"/>
                <path class="cls-21" d="m41.92,25.22c-.76,0-1.38-.62-1.38-1.38s.62-1.38,1.38-1.38,1.38.62,1.38,1.38c.01.76-.61,1.38-1.38,1.38Z"/>
                <path class="cls-21" d="m36.39,25.22c-.76,0-1.38-.62-1.38-1.38s.62-1.38,1.38-1.38,1.38.62,1.38,1.38c.01.76-.61,1.38-1.38,1.38Z"/>
              </g>
            </g>
            <g class="cls-17">
              <g>
                <path class="cls-21" d="m44.69,33.52c-.76,0-1.38-.62-1.38-1.38s.62-1.38,1.38-1.38,1.38.62,1.38,1.38c0,.76-.62,1.38-1.38,1.38Z"/>
                <circle class="cls-21" cx="44.69" cy="26.61" r="1.38"/>
              </g>
            </g>
            <g class="cls-31">
              <g>
                <path class="cls-21" d="m33.63,22.46c-.76,0-1.38-.62-1.38-1.38s.62-1.38,1.38-1.38,1.38.62,1.38,1.38-.62,1.38-1.38,1.38Z"/>
                <path class="cls-21" d="m39.16,22.46c-.76,0-1.38-.62-1.38-1.38s.62-1.38,1.38-1.38,1.38.62,1.38,1.38-.62,1.38-1.38,1.38Z"/>
              </g>
            </g>
            <g class="cls-16">
              <path class="cls-21" d="m44.69,22.46c-.76,0-1.38-.62-1.38-1.38s.62-1.38,1.38-1.38,1.38.62,1.38,1.38c0,.76-.62,1.38-1.38,1.38Z"/>
            </g>
          </g>
        </g>
        <g class="cls-6">
          <g>
            <g class="cls-9">
              <g>
                <path class="cls-21" d="m33.63,44.58c-.76,0-1.38-.62-1.38-1.38s.62-1.38,1.38-1.38,1.38.62,1.38,1.38-.62,1.38-1.38,1.38Z"/>
                <path class="cls-21" d="m39.16,44.58c-.76,0-1.38-.62-1.38-1.38s.62-1.38,1.38-1.38,1.38.62,1.38,1.38-.62,1.38-1.38,1.38Z"/>
                <circle class="cls-21" cx="33.63" cy="37.67" r="1.38"/>
                <path class="cls-21" d="m39.16,39.05c-.76,0-1.38-.62-1.38-1.38s.62-1.38,1.38-1.38,1.38.62,1.38,1.38-.62,1.38-1.38,1.38Z"/>
                <path class="cls-21" d="m41.92,41.82c-.76,0-1.38-.62-1.38-1.38s.62-1.38,1.38-1.38,1.38.62,1.38,1.38c.01.76-.61,1.38-1.38,1.38Z"/>
                <path class="cls-21" d="m36.39,41.82c-.76,0-1.38-.62-1.38-1.38s.62-1.38,1.38-1.38,1.38.62,1.38,1.38c.01.76-.61,1.38-1.38,1.38Z"/>
                <path class="cls-21" d="m41.92,36.29c-.76,0-1.38-.62-1.38-1.38s.62-1.38,1.38-1.38,1.38.62,1.38,1.38c.01.76-.61,1.38-1.38,1.38Z"/>
                <path class="cls-21" d="m36.39,36.29c-.76,0-1.38-.62-1.38-1.38s.62-1.38,1.38-1.38,1.38.62,1.38,1.38c.01.76-.61,1.38-1.38,1.38Z"/>
              </g>
            </g>
            <g class="cls-14">
              <g>
                <path class="cls-21" d="m44.69,44.58c-.76,0-1.38-.62-1.38-1.38s.62-1.38,1.38-1.38,1.38.62,1.38,1.38c0,.76-.62,1.38-1.38,1.38Z"/>
                <circle class="cls-21" cx="44.69" cy="37.67" r="1.38"/>
              </g>
            </g>
            <g class="cls-32">
              <g>
                <path class="cls-21" d="m33.63,33.52c-.76,0-1.38-.62-1.38-1.38s.62-1.38,1.38-1.38,1.38.62,1.38,1.38-.62,1.38-1.38,1.38Z"/>
                <path class="cls-21" d="m39.16,33.52c-.76,0-1.38-.62-1.38-1.38s.62-1.38,1.38-1.38,1.38.62,1.38,1.38-.62,1.38-1.38,1.38Z"/>
              </g>
            </g>
            <g class="cls-25">
              <path class="cls-21" d="m44.69,33.52c-.76,0-1.38-.62-1.38-1.38s.62-1.38,1.38-1.38,1.38.62,1.38,1.38c0,.76-.62,1.38-1.38,1.38Z"/>
            </g>
          </g>
        </g>
      </g>
      <path d="m31.04,53.6c1.21,1.88,2.87,3.44,4.95,4.31,1.86.78,3.91.96,5.89.67,4.41-.65,8.7-3.62,10.53-7.73,1.13-2.53,1.22-5.37.29-7.97-.03-.1-.13-.16-.23-.13-1.98.46-4.17.29-6.12-.21-1.91-.5-3.71-1.39-5.27-2.6-.96-.74-1.86-1.61-2.52-2.63-.05-.07-.13-.11-.21-.09-5.25,1.27-9.29,6.89-8.73,12.29.15,1.45.64,2.85,1.42,4.09.13.2.45.02.32-.19-1.36-2.16-1.73-4.76-1.15-7.23.59-2.49,2.04-4.73,3.97-6.39,1.25-1.07,2.65-1.83,4.25-2.21-.07-.03-.14-.06-.21-.09,1.14,1.79,2.96,3.17,4.81,4.15,1.8.95,3.79,1.53,5.83,1.68,1.22.09,2.5.06,3.7-.22-.08-.04-.15-.09-.23-.13.8,2.26.84,4.7.03,6.96-.82,2.29-2.43,4.23-4.37,5.66-3.14,2.31-7.36,3.49-11.16,2.23-2.31-.76-4.18-2.39-5.48-4.42-.11-.19-.44,0-.31.2Z"/>
      <path d="m24.71,6.66c0,2.07.52,4.03,1.41,5.9.05.11.22.12.29.04.71-.74,1.2-1.65,1.77-2.5.56-.83,1.24-1.61,2.26-1.82-.07-.09-.14-.18-.21-.28-.51.85-.97,1.75-1.19,2.71-.16.69-.19,1.4-.17,2.11,0,.15.15.22.28.16.96-.41,1.82-1,2.55-1.74-.1-.03-.21-.06-.31-.08.28.8.62,1.61.6,2.48,0,.11.12.22.24.18,1.14-.43,2.13-1.11,3.16-1.74,1.14-.7,2.33-1.23,3.66-1.42-.06-.1-.12-.21-.18-.31-.85.71-1.7,1.43-2.42,2.27-.73.85-1.31,1.8-1.72,2.84-.04.11.07.25.18.24,1.62-.17,3.14-.85,4.34-1.95-.11-.04-.21-.09-.32-.13-.1,1.76-1.28,3.39-2.92,4.03-.18.07-.18.29,0,.36,2.24.89,4.57-.34,6.24-1.8-.1-.06-.21-.12-.31-.18-.61,2.43-2.48,4.46-4.85,5.28-.16.05-.2.33,0,.36,3.45.47,7-.27,9.96-2.11-.09-.07-.18-.14-.28-.21-.16.77-.37,1.53-.66,2.26-.08.2.19.28.31.18,2.52-1.97,4.19-4.87,4.6-8.05.19-1.51.09-3.08-.4-4.53-.47-1.4-1.29-2.64-2.31-3.7-1.06-1.11-2.31-1.95-3.54-2.84-1.26-.91-2.66-1.63-4.14-2.1-1.46-.45-3-.65-4.53-.54-1.45.11-2.88.51-4.25.99-2.85,1.01-5.73,2.75-7.13,5.54-.11.21.22.41.32.19,1.22-2.41,3.58-4.02,6.02-5.03,1.25-.52,2.6-.95,3.94-1.18,1.46-.26,2.97-.21,4.42.1,1.44.31,2.82.88,4.09,1.64.64.39,1.25.83,1.86,1.26.6.42,1.19.87,1.74,1.35,1.1.96,2.09,2.08,2.73,3.41s.92,2.82.88,4.29c-.09,3.5-1.84,6.78-4.57,8.92.1.06.21.12.31.18.29-.73.51-1.49.66-2.26.03-.15-.13-.3-.28-.21-2.87,1.78-6.32,2.53-9.67,2.07v.36c2.5-.86,4.47-2.98,5.12-5.54.05-.19-.17-.3-.31-.18-1.58,1.38-3.77,2.54-5.88,1.7v.36c1.81-.71,3.08-2.45,3.2-4.39.01-.17-.21-.24-.32-.13-1.13,1.03-2.56,1.68-4.08,1.84.06.08.12.16.18.24.82-2.07,2.37-3.55,4.04-4.95.16-.14-.02-.34-.18-.31-1.3.18-2.48.69-3.6,1.36-1.05.63-2.06,1.35-3.22,1.79.08.06.16.12.24.18.02-.9-.32-1.74-.62-2.57-.05-.13-.21-.19-.31-.08-.71.72-1.54,1.29-2.48,1.68.09.05.19.11.28.16-.02-.68,0-1.35.16-2.01.22-.94.66-1.8,1.16-2.62.09-.15-.06-.31-.21-.28-2.18.44-2.83,2.98-4.2,4.41.1.01.2.03.29.04-.85-1.8-1.36-3.71-1.36-5.71.01-.22-.36-.22-.36.02Z"/>
      <path d="m.2,23.48c.42,2.11,1.46,4.08,2.95,5.63.75.78,1.62,1.46,2.58,1.97.27.14.41.17.71.15.28-.02.56-.05.84-.1.57-.1,1.14-.25,1.68-.46,1.18-.46,2.25-1.18,3.1-2.12.11-.13.03-.31-.13-.32-.75-.07-1.49-.24-2.19-.51-.23-.09-2.07-.89-1.87-1.18-.07.03-.14.06-.21.09,1.57.48,3.3.11,4.54-.97.13-.11.02-.32-.13-.32-1.85,0-3.59-1.05-4.49-2.66-.07.09-.14.18-.21.28,1.9.62,4.03.16,5.53-1.16.13-.11.02-.32-.13-.32-1.31-.03-2.56-.69-3.32-1.76-.05.09-.11.19-.16.28,1.36-.03,2.66-.6,3.58-1.6.13-.15,0-.34-.18-.31-1.53.24-3.13-.21-4.32-1.2-.06.1-.12.21-.18.31,1.71.35,3.55-.5,4.36-2.06.06-.12-.01-.29-.16-.28-1.4.08-2.75-.54-3.62-1.64-.06.1-.12.21-.18.31,2.37.91,5.11.64,7.26-.7.12-.08.12-.32-.04-.34-1.46-.23-2.7-1.31-3.09-2.74-.09.07-.18.14-.28.21,2.86,1.46,6.47,1.07,8.98-.93.09-.07.07-.25-.04-.29-3.94-1.68-8.44-1.78-12.4-.11-3.56,1.51-6.56,4.33-8.02,7.94C.05,18.74-.23,21.15.2,23.48c.04.24.41.14.36-.1-.74-3.96.71-8.06,3.46-10.94,2.59-2.72,6.21-4.42,9.96-4.65,2.45-.16,4.92.29,7.18,1.25-.01-.1-.03-.2-.04-.29-2.37,1.89-5.82,2.25-8.52.87-.14-.07-.32.05-.28.21.42,1.55,1.77,2.76,3.35,3-.01-.11-.03-.23-.04-.34-2.07,1.3-4.69,1.55-6.97.67-.2-.08-.28.19-.18.31.92,1.17,2.4,1.84,3.89,1.75-.05-.09-.11-.19-.16-.28-.73,1.4-2.38,2.2-3.93,1.88-.17-.03-.34.18-.18.31,1.3,1.09,3.01,1.56,4.69,1.3-.06-.1-.12-.21-.18-.31-.86.93-2.05,1.47-3.32,1.49-.13,0-.25.16-.16.28.84,1.18,2.19,1.91,3.64,1.94-.04-.11-.09-.21-.13-.32-1.39,1.23-3.4,1.64-5.16,1.06-.16-.05-.29.14-.21.28.96,1.73,2.83,2.84,4.81,2.85-.04-.11-.09-.21-.13-.32-1.13.99-2.74,1.31-4.17.88-.08-.03-.17.02-.21.09-.2.3.05.61.3.79.41.29.85.53,1.31.74.88.4,1.82.64,2.78.72-.04-.11-.09-.21-.13-.32-.73.81-1.62,1.44-2.61,1.89-.5.22-1.03.39-1.56.51-.24.05-.49.1-.74.13-.25.03-.59.11-.83.02-.46-.18-.92-.53-1.31-.82-.41-.3-.79-.63-1.15-.99-.73-.72-1.35-1.54-1.85-2.44-.56-1-.95-2.07-1.17-3.19-.09-.24-.45-.14-.41.09Z"/>
      <path d="m46.56,39.39c1.52.24,2.93.99,3.93,2.17.09.11.15.22.29.25.16.03.39-.03.56-.05.44-.05.87-.12,1.3-.21.76-.16,1.5-.37,2.2-.7,2.58-1.19,4.65-3.5,5.98-5.96,1.29-2.4,2-5.32,1.57-8.03-.36-2.33-1.68-4.34-3.5-5.81-.12-.1-.28-.26-.42-.32-.13-.06-.29,0-.43,0-.45.05-.89.12-1.33.2-.89.16-1.76.39-2.61.68-1.72.58-3.35,1.42-4.84,2.47-.1.07-.14.26,0,.32,2.16.96,4.45,1.57,6.8,1.82-.05-.09-.11-.19-.16-.28-.89,1.34-2.28,2.32-3.86,2.65-1.71.36-3.5-.04-4.92-1.04-.15-.11-.3.07-.28.21.24,1.48,1.65,2.32,2.97,2.73,1.51.47,3.39.64,4.41,2.02.07-.09.14-.18.21-.28-1.97-.71-4.08-.25-6.04.22-.21.05-.16.36.05.37,1.81.08,3.5.97,4.6,2.39.04-.11.09-.21.13-.32-2.29.19-4.54.65-6.72,1.37-.19.06-.17.39.05.37,2.51-.22,5.03.26,7.28,1.39.03-.12.06-.23.09-.35-2.52-.24-4.97.57-7.32,1.38-.23.08-.13.44.1.36,2.33-.8,4.73-1.6,7.22-1.36.18.02.26-.27.09-.35-2.31-1.15-4.9-1.66-7.47-1.44.02.12.03.25.05.37,2.15-.71,4.37-1.17,6.62-1.35.17,0,.23-.19.13-.32-1.16-1.5-2.97-2.42-4.87-2.5.02.12.03.25.05.37,1.9-.45,3.94-.91,5.84-.22.15.05.31-.15.21-.28-.92-1.24-2.46-1.61-3.87-1.98-1.43-.37-3.2-1.01-3.47-2.68-.09.07-.18.14-.28.21,1.5,1.07,3.41,1.47,5.21,1.08,1.67-.36,3.14-1.41,4.08-2.82.09-.13-.03-.27-.16-.28-2.28-.24-4.51-.84-6.61-1.77v.32c2.53-1.79,5.51-2.95,8.59-3.29.07,0,.26-.06.32-.03-.05-.02.08.1.09.11.11.08.22.17.33.26.23.19.46.39.67.61.39.38.76.8,1.08,1.24.64.89,1.1,1.89,1.36,2.95.62,2.57.06,5.43-1.05,7.78-1.16,2.47-3.06,4.76-5.45,6.13-.68.39-1.4.67-2.15.87-.46.12-.92.22-1.39.29-.24.04-.49.07-.74.09-.28.03-.27,0-.46-.22-1.03-1.15-2.47-1.91-4-2.15-.2-.07-.3.29-.06.33Z"/>
      <path d="m6.21,49.16c.83,1.88,2.42,3.48,4.23,4.43.97.51,2.02.76,3.09.96,1.09.21,2.2.34,3.31.38,1.88.06,3.79-.16,5.56-.82.43-.16.66-.74.89-1.12.29-.49.56-.99.81-1.51.5-1.03.91-2.09,1.23-3.19.51-1.76,1.25-4.53-.54-5.83-.09-.07-.26,0-.28.11-.41,3.01-1.99,5.79-4.38,7.68.1.08.2.15.29.23,1.06-1.9,1.13-4.25.21-6.22-.07-.15-.3-.1-.34.04-.41,1.34-1.3,2.5-2.49,3.24.09.07.18.14.28.21.42-1.4.2-2.92-.61-4.14-.07-.1-.26-.14-.32,0-.53,1.19-1.24,2.29-2.14,3.24-.45.47-.94.9-1.46,1.28-.53.38-1.3.92-1.96.54l.09.21c.38-2.68,2.1-5.09,4.52-6.31.2-.1.05-.38-.14-.34-2.85.53-5.18,2.36-7.4,4.12.1.06.21.12.31.18.48-2.94,2.59-5.52,5.41-6.52.18-.07.17-.4-.05-.37-2.69.33-5.04,1.76-7.3,3.16.09.07.18.14.28.21.83-2.84,2.77-5.92,6.03-6.11.24,0,.24-.37,0-.38-2.46-.05-4.91.63-6.99,1.94-.19.12-.47.24-.6.42-.15.2-.22.53-.3.76-.19.56-.33,1.13-.42,1.71-.18,1.16-.18,2.33-.03,3.49.18,1.51.61,2.95,1.21,4.32.1.22.42.03.32-.19-.96-2.21-1.48-4.64-1.22-7.05.06-.54.16-1.08.31-1.6.06-.23.14-.47.22-.69.04-.12.08-.24.14-.36.08-.17.2-.25.36-.35.97-.64,2.02-1.13,3.13-1.47,1.25-.38,2.54-.56,3.85-.53v-.38c-1.57.09-3.01.88-4.07,2.01-1.15,1.23-1.86,2.78-2.32,4.37-.05.15.14.3.28.21,2.2-1.36,4.49-2.79,7.11-3.11-.02-.12-.03-.25-.05-.37-2.93,1.04-5.17,3.7-5.67,6.78-.03.19.16.3.31.18,2.16-1.72,4.45-3.5,7.23-4.02-.05-.11-.1-.23-.14-.34-2.5,1.26-4.29,3.76-4.69,6.53-.01.08.01.17.09.21.62.36,1.31.12,1.88-.23.62-.38,1.2-.86,1.72-1.37,1.05-1.03,1.89-2.25,2.48-3.6h-.32c.75,1.14.96,2.54.57,3.85-.05.15.14.3.28.21,1.28-.8,2.22-2.03,2.67-3.46-.11,0-.23.03-.34.04.87,1.85.79,4.06-.21,5.84-.11.2.13.35.29.23,2.43-1.92,4.06-4.78,4.48-7.84-.09.04-.18.07-.28.11,1.53,1.11.87,3.59.46,5.09-.28,1.05-.66,2.08-1.11,3.07-.22.47-.45.93-.7,1.38-.13.23-.26.45-.39.67-.13.21-.27.53-.45.7-.11.1-.34.15-.48.2-.2.07-.4.13-.6.18-.4.11-.81.2-1.22.28-.89.16-1.8.23-2.71.22-1.05,0-2.1-.1-3.14-.26-1.04-.17-2.12-.35-3.09-.77-1.99-.87-3.75-2.56-4.63-4.56-.12-.22-.45-.03-.35.19Z"/>
      <path d="m32.83,55.79c1.75,1.69,4,2.71,6.42,2.89,2.4.18,4.81-.42,6.94-1.52,2.28-1.17,4.3-2.94,5.62-5.15.64-1.08,1.11-2.26,1.35-3.5.06-.29.1-.59.13-.88.01-.12.04-.21-.04-.32-.08-.12-.27-.21-.38-.3-.61-.44-1.27-.8-1.97-1.07-1.55-.62-3.24-.84-4.91-.87-1.8-.02-3.59.19-5.34.59-.19.04-.17.31,0,.36,1.69.56,3.6,1.21,4.55,2.84.07-.09.14-.18.21-.28-2.21-.74-4.56-.9-6.85-.51-.2.03-.16.31,0,.36,1.92.66,3.23,2.64,3.09,4.67.11-.04.21-.09.32-.13-1.71-1.39-3.71-2.38-5.85-2.91-.15-.04-.31.13-.21.28.62.91,1.04,1.92,1.29,2.99.09-.07.18-.14.28-.21-1.8-1.07-3.01-2.93-3.29-4.99-.03-.2-.3-.15-.36,0-.91,2.39-1.27,4.97-1.05,7.52.02.24.4.24.38,0-.22-2.52.14-5.05,1.04-7.42h-.36c.3,2.16,1.59,4.11,3.46,5.22.15.09.31-.06.28-.21-.25-1.1-.69-2.15-1.32-3.08-.07.09-.14.18-.21.28,2.08.51,4.02,1.46,5.69,2.81.13.1.31.04.32-.13.15-2.2-1.29-4.32-3.37-5.03v.36c2.22-.38,4.51-.2,6.65.51.16.05.29-.14.21-.28-1-1.72-2.98-2.42-4.77-3.01v.36c2.85-.65,5.97-.88,8.82-.12.69.18,1.36.42,1.99.75.29.15.57.32.85.5.11.07.44.24.49.36.05.1-.01.33-.03.44-.17,1.19-.56,2.35-1.13,3.41-2.19,4.11-6.96,6.96-11.62,6.97-2.64.01-5.13-.98-7.03-2.81-.2-.17-.47.09-.29.26Z"/>
    </g>
  </g>
</svg>