<?xml version="1.0" encoding="UTF-8"?>
<svg id="Layer_2" data-name="Layer 2" xmlns="http://www.w3.org/2000/svg" viewBox="0 0 156.75 81.16">
  <g id="Layer_1-2" data-name="Layer 1">
    <g>
      <path d="m91.25,13.91c2.46,5.35,2.87,11.3,1.96,17.06-.78,4.9-2.43,9.58-4.21,14.2-.71,1.84-1.48,3.67-1.99,5.58.12.03.24.07.36.1.72-4.18,1.22-8.41,1.38-12.65.14-3.61.03-7.24-.41-10.83-.38-3.16-1.02-6.29-1.92-9.34-.84-2.84-1.91-5.62-3.17-8.3-1.23-2.65-2.64-5.21-4.15-7.7-.19-.31-.38-.62-.57-.94-.07-.12-.25-.12-.32,0-1.53,2.49-2.98,5.03-4.25,7.66-1.29,2.65-2.41,5.39-3.3,8.2-.96,3.01-1.65,6.1-2.09,9.22-.49,3.51-.68,7.05-.61,10.59.08,4.15.5,8.3,1.15,12.4.09.57.18,1.13.28,1.7.12-.03.24-.07.36-.1-.44-1.66-1.09-3.26-1.71-4.86-.82-2.13-1.64-4.27-2.36-6.44-1.68-5.09-2.84-10.43-2.54-15.81.19-3.36.97-6.67,2.37-9.72.06-.13-.04-.33-.21-.28-3.35,1.16-6.24,3.27-8.17,6.26-1.87,2.91-2.76,6.34-3.14,9.74-.2,1.83-.26,3.68-.22,5.52.02.94.07,1.87.13,2.81.02.23,0,.37.18.52.19.17.38.33.57.5.36.31.71.62,1.07.94,2.83,2.48,5.65,5,8.05,7.91,2.61,3.17,4.62,6.78,5.9,10.68.18.54.34,1.09.5,1.64.03.12.17.17.28.11,2.12-1.15,4.31-2.22,6.59-3,.39-.13.79-.26,1.19-.37.34-.09.81.15,1.13.25,1.02.33,2.01.73,2.99,1.16,1.34.59,2.66,1.25,3.95,1.96.11.06.24.01.28-.11,1.14-4.05,2.97-7.84,5.51-11.19,2.29-3.01,5.06-5.61,7.88-8.11.72-.63,1.44-1.26,2.16-1.9.17-.15.34-.29.5-.44.21-.18.2-.32.22-.6.03-.46.06-.92.08-1.38.09-1.85.09-3.71-.05-5.57-.25-3.46-.97-6.96-2.64-10.03-1.67-3.06-4.28-5.44-7.49-6.82-.43-.18-.86-.35-1.31-.5-.23-.08-.33.28-.1.36,3.36,1.16,6.23,3.32,8.11,6.35,1.82,2.94,2.65,6.39,2.98,9.79.17,1.81.21,3.64.15,5.46,0,.46-.03.92-.06,1.38,0,.23-.03.46-.04.69,0,.12-.02.23-.02.35,0,.13,0,.15-.1.24-.33.34-.72.63-1.07.94-.35.31-.71.62-1.06.93-2.79,2.46-5.55,4.98-7.88,7.89-2.49,3.11-4.4,6.62-5.64,10.4-.18.54-.34,1.09-.5,1.64.09-.04.18-.07.28-.11-2.16-1.18-4.39-2.26-6.72-3.05-.42-.14-.85-.3-1.28-.39-.34-.07-.8.16-1.13.26-1.01.32-1.99.72-2.96,1.14-1.41.62-2.79,1.3-4.14,2.04.09.04.18.07.28.11-1.11-3.96-2.88-7.69-5.34-11-2.21-2.97-4.88-5.54-7.63-8-.7-.62-1.41-1.24-2.11-1.86-.35-.31-.76-.6-1.07-.94-.1-.1-.09-.09-.1-.24-.01-.12-.02-.23-.02-.35-.02-.23-.03-.46-.04-.69-.1-1.83-.12-3.66-.01-5.49.21-3.47.87-7,2.49-10.1,1.6-3.07,4.15-5.46,7.32-6.85.45-.2.91-.37,1.38-.54-.07-.09-.14-.18-.21-.28-2.45,5.32-2.91,11.21-2.06,16.96.75,5.01,2.43,9.8,4.24,14.51.72,1.86,1.5,3.72,2.01,5.65.06.24.4.13.36-.1-.72-4.18-1.22-8.41-1.37-12.65-.13-3.57-.02-7.14.41-10.69.38-3.15,1.02-6.27,1.92-9.32.84-2.84,1.91-5.6,3.16-8.28,1.22-2.61,2.61-5.14,4.1-7.6.19-.31.38-.62.57-.94h-.32c1.52,2.46,2.95,4.98,4.22,7.59,1.28,2.63,2.39,5.35,3.28,8.14.95,2.98,1.64,6.04,2.09,9.13.5,3.5.68,7.04.61,10.57-.08,4.14-.49,8.26-1.13,12.35-.09.57-.18,1.13-.28,1.7-.04.23.3.34.36.1.45-1.69,1.12-3.33,1.75-4.96.83-2.15,1.65-4.31,2.37-6.5,1.69-5.16,2.84-10.59,2.48-16.05-.22-3.32-1.01-6.58-2.41-9.61-.08-.2-.41,0-.31.2Z"/>
      <path d="m12.79,67.79c1.24,1.36,2.59,2.61,4.03,3.76.31.25.63.49.95.73.18.13.36.3.56.41.15.08.24.05.41.01.63-.12,1.27-.25,1.9-.39,2.69-.59,5.36-1.28,8.05-1.87,5.63-1.24,11.57-2.11,17.25-.68,3.43.87,6.55,2.59,9.18,4.96.11.1.27.06.31-.08.77-2.43,2.39-4.55,4.14-6.36,1.9-1.98,4.08-3.69,6.35-5.23,1.25-.84,2.54-1.63,3.85-2.37.07-.04.11-.13.09-.21-1.04-4.12-3.09-7.87-5.68-11.22-2.67-3.44-5.84-6.45-9.1-9.33-1.6-1.42-3.17-2.83-4.59-4.44-1.4-1.59-2.66-3.29-3.76-5.1-2.17-3.54-3.74-7.46-4.56-11.53-.83-4.14-.88-8.44-.06-12.59.1-.53.22-1.05.35-1.57.04-.18-.18-.32-.31-.18-3.65,3.66-7.21,7.76-9.22,12.59-1.33,3.2-1.74,6.65-1.03,10.05.7,3.35,2.29,6.44,3.93,9.41,1.14,2.06,2.3,4.09,3.66,6.01,1.64,2.33,3.47,4.52,5.4,6.61,3.78,4.09,7.95,7.8,12.18,11.4.47.4.94.8,1.42,1.2.08-.1.15-.2.23-.29-5.31-3.98-11.78-6.51-18.46-6.61-3.43-.05-6.85.56-10.07,1.75-2.97,1.1-5.7,2.71-8.29,4.51-3.04,2.1-5.94,4.39-9.06,6.36-.2.13-.02.45.19.32,5.36-3.39,10.12-7.82,16.01-10.34,3.14-1.34,6.51-2.11,9.92-2.22,3.3-.11,6.6.4,9.74,1.41,3.54,1.14,6.85,2.91,9.82,5.14.17.13.39-.16.23-.29-4.12-3.48-8.2-7.02-11.97-10.89-1.98-2.03-3.87-4.15-5.61-6.4-1.59-2.06-2.99-4.23-4.26-6.5-1.68-2.98-3.38-6.02-4.32-9.34-.92-3.24-.88-6.58.17-9.78,1.52-4.62,4.68-8.59,7.96-12.09.55-.59,1.12-1.17,1.69-1.75-.1-.06-.21-.12-.31-.18-1.01,4.09-1.2,8.34-.6,12.51.59,4.11,1.95,8.1,3.92,11.75,1.99,3.69,4.62,7.03,7.72,9.85,1.64,1.49,3.32,2.92,4.92,4.44,1.59,1.51,3.12,3.08,4.54,4.75,2.8,3.28,5.15,6.98,6.46,11.11.16.52.31,1.04.44,1.57l.09-.21c-2.43,1.37-4.77,2.91-6.95,4.65-2.08,1.67-4.05,3.54-5.59,5.73-.82,1.17-1.53,2.44-1.96,3.8.1-.03.21-.06.31-.08-2.31-2.08-5-3.7-7.97-4.66-2.74-.89-5.64-1.2-8.52-1.14-5.72.13-11.27,1.66-16.81,2.95-.72.17-1.44.33-2.17.48-.35.07-.7.15-1.06.21-.22.04-.32.09-.49-.05-.2-.15-.41-.3-.61-.45-1.69-1.28-3.28-2.7-4.7-4.27-.17-.19-.44.08-.28.26Z"/>
      <g>
        <path d="m68.93,69.44c.47-.86.65-1.85.5-2.82-.08.08-.15.15-.23.23.56.2.97.74,1.29,1.21.34.49.63,1.01.9,1.54.08.16.29.1.34-.04.21-.57.5-1.11.84-1.62.16-.23.17-.32.13-.6-.03-.22-.08-.44-.14-.66-.23-.78-.68-1.48-1.27-2.03-1.24-1.16-2.95-1.72-4.61-1.88-.14-.01-.2.13-.18.24.18,1.3-.16,2.6-.03,3.9.06.55.21,1.1.55,1.55.42.56,1.05.87,1.71,1.07.23.07.33-.29.1-.36-.63-.19-1.25-.51-1.61-1.08-.3-.47-.38-1.03-.4-1.58-.03-1.2.21-2.4.04-3.6-.06.08-.12.16-.18.24,1.55.15,3.16.67,4.32,1.74.56.52.99,1.16,1.2,1.89.06.19.1.38.13.57.03.18.02.24-.08.39-.06.1-.13.19-.19.29-.28.45-.51.92-.69,1.42.11-.01.23-.03.34-.04-.31-.61-.65-1.21-1.06-1.76-.36-.48-.78-.95-1.35-1.16-.15-.05-.25.1-.23.23.14.87-.04,1.77-.46,2.53-.12.22.2.41.32.19Z"/>
        <path d="m72.64,77.91c.06-1.55-.28-3.09-1.03-4.45-.71-1.28-1.76-2.36-2.94-3.22-.69-.5-1.43-.92-2.21-1.28-.12-.06-.29.01-.28.16.03.97-.17,1.9-.36,2.85-.17.87-.26,1.73-.2,2.62.1,1.49.62,2.96,1.89,3.84.75.52,1.51.28,2.27-.08.07-.03.11-.14.09-.21-.32-.85-.69-1.67-.99-2.52-.3-.86-.57-1.79-.46-2.71-.11.04-.21.09-.32.13.62.72,1.18,1.51,1.56,2.39s.56,1.83.66,2.78c0,.07.05.17.14.18.67.1,1.59.18,2.13-.34.17-.17-.09-.43-.27-.27-.42.4-1.24.31-1.76.24.05.06.09.12.14.18-.11-1-.3-1.99-.7-2.92s-.98-1.75-1.64-2.51c-.12-.14-.3-.01-.32.13-.11.92.15,1.86.44,2.72.3.89.7,1.74,1.02,2.62l.09-.21c-.42.2-.9.43-1.38.32-.42-.09-.79-.43-1.07-.74-.6-.64-.93-1.48-1.07-2.34-.17-1.01-.11-2.05.08-3.06.19-1.03.43-2.04.4-3.1-.09.05-.19.11-.28.16,1.64.77,3.18,1.84,4.3,3.28,1.19,1.53,1.77,3.4,1.69,5.34,0,.26.37.26.38.02Z"/>
        <path d="m66.32,78.74c-.04-1.42-.47-2.83-1.49-3.86-1-1.02-2.39-1.5-3.8-1.61-.11-.01-.22.13-.18.24.57,1.46-.66,2.79-.58,4.26.07,1.23.78,2.3,1.99,2.64.09.02.16-.02.21-.09.88-1.23.95-2.87.54-4.29-.09.07-.18.14-.28.21.47.22.89.52,1.12,1s.26,1.04.29,1.56c0,.08.06.16.14.18.64.17,1.26.04,1.9-.06.24-.04.14-.4-.1-.36-.57.09-1.13.21-1.71.06.05.06.09.12.14.18-.03-.59-.08-1.21-.34-1.75-.26-.53-.73-.89-1.25-1.14-.14-.07-.32.04-.28.21.39,1.33.32,2.84-.5,4,.07-.03.14-.06.21-.09-1.24-.35-1.82-1.58-1.71-2.81.06-.66.38-1.28.57-1.91.19-.64.23-1.28-.02-1.92-.06.08-.12.16-.18.24,1.31.1,2.6.55,3.53,1.5.94.96,1.34,2.27,1.38,3.6.03.25.4.26.4.01Z"/>
        <path d="m56.29,80.12c.6.73,1.39.94,2.3,1.03.08.01.16-.06.18-.14.24-.93.35-1.88.23-2.84-.12-.97-.45-1.9-.79-2.81-.04.08-.09.15-.13.23.7-.21,1.31.23,1.8.68.1.1.27.06.31-.08.2-.66.57-1.34.49-2.05-.04-.38-.23-.75-.38-1.1-.05-.11-.08-.24-.14-.35-.13-.23-.42-.4-.63-.53-.64-.41-1.33-.71-1.97-1.11-.15-.1-.3.06-.28.21.13.86-.6,1.56-.91,2.29-.22.51-.32,1.07-.39,1.62-.15,1.23-.12,2.51.02,3.74.05.38.08.81.25,1.17.1.22.43.03.32-.19-.13-.27-.16-.67-.19-.98-.07-.58-.1-1.16-.11-1.74-.02-1.15-.03-2.53.49-3.59.39-.79,1.03-1.49.88-2.43-.09.07-.18.14-.28.21.58.37,1.19.65,1.78,1,.11.07.23.14.34.21.08.06.16.12.24.18,0,0,.1.07.08.04.07.1.11.26.15.37.12.3.29.62.35.94.11.67-.28,1.36-.48,1.98.1-.03.21-.06.31-.08-.59-.55-1.33-1.02-2.16-.78-.09.03-.17.13-.13.23.33.86.64,1.75.77,2.67.13.94.02,1.87-.21,2.78.06-.05.12-.09.18-.14-.81-.08-1.5-.26-2.04-.92-.13-.17-.4.1-.25.28Z"/>
        <path d="m60.81,72.93c.69.05,1.35.15,2.02.34.09.03.21-.03.23-.13.12-.68.2-1.36.19-2.06s-.12-1.4-.24-2.09c-.09.07-.18.14-.28.21.42.28.83.61,1.1,1.05.26.42.38.9.48,1.38,0,.06.07.12.13.13.28.07.57.12.86.16.09.01.21-.02.23-.13.14-.76.32-1.52.33-2.29,0-.23,0-.49-.02-.72-.03-.24-.26-.43-.42-.61-.89-.99-2.04-1.61-3.31-1.98-.06-.02-.14,0-.18.05-1.45,1.86-1.39,4.27-1.31,6.5,0,.24.38.24.38,0-.07-2.11-.18-4.48,1.2-6.24-.06.02-.12.03-.18.05,1.18.35,2.25.91,3.08,1.82.09.1.18.21.27.31.02.03.13.17.09.06,0,.03,0,.07,0,.11,0,.21.02.43,0,.64,0,.75-.18,1.47-.32,2.2.08-.04.15-.09.23-.13-.29-.04-.58-.09-.86-.16.04.04.09.09.13.13-.11-.53-.26-1.07-.56-1.53s-.73-.82-1.19-1.12c-.15-.1-.3.06-.28.21.24,1.34.28,2.61.05,3.95.08-.04.15-.09.23-.13-.69-.2-1.4-.3-2.12-.35-.21-.02-.21.35.03.37Z"/>
      </g>
      <path d="m.61,68.2c2.27,4.66,7.96,5.47,12.61,5.22,1.33-.07,2.66-.23,3.98-.45.18-.03.16-.26.04-.34-1.7-1.27-3.29-2.69-4.73-4.25-.16-.17-.31-.34-.47-.51-.13-.14-.26-.33-.41-.44-.13-.09-.32-.1-.47-.15-.21-.07-.42-.15-.61-.26-.33-.18-.63-.4-.9-.67-.65-.66-1.02-1.51-1.25-2.4-.02-.06-.07-.12-.13-.13-.54-.11-1.01-.53-1.07-1.09-.07-.6-.05-1.21-.01-1.8.08-1.24.35-2.47.77-3.64.06-.16-.14-.29-.28-.21-1.7,1.06-3.4,2.14-4.88,3.49-1.31,1.2-2.52,2.71-2.76,4.53-.13,1.07.11,2.13.57,3.1.1.22.43.03.32-.19-.4-.84-.61-1.75-.53-2.69.07-.83.39-1.62.82-2.33.97-1.58,2.49-2.8,4-3.85.87-.61,1.76-1.17,2.66-1.73-.09-.07-.18-.14-.28-.21-.48,1.34-.76,2.76-.81,4.18-.02.57-.09,1.3.15,1.84.22.5.7.86,1.23.98l-.13-.13c.39,1.53,1.29,2.94,2.82,3.51.09.04.19.07.29.09.04.01.23.04.22.03.07.03.13.14.18.2.17.18.33.36.5.54.68.74,1.38,1.45,2.12,2.13.92.85,1.89,1.64,2.88,2.39.01-.11.03-.23.04-.34-2.32.38-4.69.58-7.04.42-2.3-.16-4.68-.68-6.59-2.03-1.09-.77-1.95-1.79-2.53-2.99-.1-.23-.43-.04-.32.18Z"/>
      <path d="m41.47,14.15c.44-.33,1.08-.49,1.59-.66,1.04-.34,2.1-.62,3.17-.82,1.23-.24,2.49-.39,3.75-.36,1.14.02,2.33.19,3.34.73,1.14.62,1.8,1.7,1.96,2.97.02.14.21.28.32.13,1.88-2.35,3.57-5.1,3.99-8.13.28-2.01-.09-4.13-1.44-5.7-1.39-1.61-3.53-2.3-5.61-2.31-2.92,0-5.74,1.19-8.14,2.78-.44.29-.86.6-1.28.92-.17.13-.34.27-.51.4-.17.14-.42.28-.52.48-.1.19-.12.51-.17.72-.06.28-.12.56-.18.84-.1.52-.19,1.04-.27,1.56-.3,2.08-.4,4.19-.29,6.29.01.24.39.24.38,0-.09-1.76-.04-3.53.16-5.28.11-.93.25-1.86.44-2.77.05-.22.09-.44.14-.66.04-.19.06-.44.19-.6.13-.15.32-.27.47-.39.22-.18.45-.35.67-.52,2.33-1.73,5.09-3.12,8.02-3.36,2.04-.17,4.23.26,5.77,1.69,1.42,1.31,1.97,3.22,1.86,5.11-.19,3.22-1.99,6.21-3.96,8.66.11.04.21.09.32.13-.14-1.18-.65-2.25-1.62-2.96-.94-.7-2.12-.97-3.27-1.08-2.47-.22-5.04.29-7.4,1.02-.46.14-.92.3-1.37.48-.24.1-.51.19-.72.35-.17.16.02.48.21.34Z"/>
      <path d="m8.13,62.78c2.63-2.3,5.43-4.73,8.82-5.8.95-.3,1.94-.47,2.94-.47.14,0,.23-.16.16-.28-1.19-2.1-3.68-2.4-5.86-2.05-1.1.18-2.18.52-3.2.96-.44.19-.86.4-1.27.64-.16.09-.31.19-.46.3-.28.2-.38.58-.51.89-.75,1.77-1.09,3.75-.93,5.67.02.24.39.24.38,0-.13-1.64.1-3.29.64-4.84.13-.38.28-.75.45-1.12.06-.14.09-.22.2-.3.07-.06.15-.1.22-.15.35-.22.71-.41,1.09-.59,1.85-.87,4.11-1.51,6.16-1.12,1.18.22,2.18.85,2.78,1.9.05-.09.11-.19.16-.28-3.7-.02-7,2.22-9.77,4.46-.77.62-1.51,1.27-2.26,1.92-.19.16.08.42.26.26Z"/>
      <path d="m143.72,67.52c-1.24,1.36-2.59,2.61-4.03,3.76-.39.31-.78.6-1.18.9-.17.12-.22.19-.42.15-.17-.03-.35-.07-.52-.1-.63-.13-1.25-.26-1.87-.4-2.72-.61-5.42-1.31-8.15-1.89-5.59-1.19-11.49-1.96-17.1-.46-3.38.9-6.45,2.64-9.05,4.98.1.03.21.06.31.08-.77-2.44-2.38-4.57-4.12-6.41-1.91-2.01-4.1-3.75-6.39-5.31-1.3-.88-2.63-1.7-4-2.47l.09.21c1.07-4.24,3.21-8.08,5.92-11.49,2.73-3.43,5.95-6.43,9.23-9.31,1.61-1.42,3.15-2.88,4.55-4.52,1.34-1.58,2.56-3.27,3.62-5.05,2.14-3.58,3.67-7.53,4.45-11.62.78-4.1.79-8.33,0-12.42-.1-.53-.22-1.05-.35-1.57-.1.06-.21.12-.31.18,3.63,3.64,7.2,7.72,9.17,12.54,1.3,3.18,1.68,6.6.94,9.96-.73,3.31-2.32,6.36-3.95,9.3-1.14,2.06-2.32,4.09-3.68,6.01-1.65,2.31-3.48,4.48-5.41,6.56-3.73,4-7.82,7.64-11.98,11.19-.47.4-.94.8-1.42,1.2-.16.14.06.42.23.29,5.29-3.96,11.73-6.49,18.39-6.56,3.4-.04,6.78.58,9.96,1.78,2.95,1.11,5.65,2.73,8.23,4.52,2.99,2.08,5.85,4.32,8.92,6.27.2.13.39-.19.19-.32-5.44-3.45-10.27-7.94-16.27-10.44-6.29-2.63-13.28-2.82-19.75-.73-3.55,1.15-6.87,2.93-9.86,5.16.08.1.15.2.23.29,4.19-3.55,8.35-7.15,12.18-11.1,1.98-2.04,3.86-4.17,5.59-6.43,1.58-2.06,2.96-4.24,4.23-6.5,1.69-3.01,3.4-6.1,4.32-9.45.89-3.28.82-6.68-.26-9.9-1.56-4.63-4.72-8.62-8.02-12.15-.55-.59-1.12-1.17-1.69-1.75-.13-.14-.36,0-.31.18,1.02,4.12,1.2,8.43.56,12.63-.63,4.13-2.04,8.12-4.07,11.76-2.06,3.68-4.75,7-7.92,9.79-3.27,2.87-6.5,5.79-9.29,9.13-2.7,3.23-4.96,6.86-6.24,10.9-.16.52-.31,1.04-.44,1.57-.02.08,0,.17.09.21,2.39,1.34,4.69,2.85,6.83,4.56,2.06,1.65,4.02,3.49,5.55,5.65.82,1.15,1.53,2.4,1.96,3.75.04.14.21.18.31.08,2.37-2.13,5.14-3.76,8.2-4.69,2.78-.84,5.69-1.1,8.58-.99,5.72.22,11.25,1.8,16.79,3.07.71.16,1.43.32,2.15.46.17.04.35.07.52.1.13.03.31.1.45.07.19-.05.4-.28.56-.39.2-.15.41-.3.61-.46,1.6-1.24,3.11-2.6,4.47-4.1.1-.17-.16-.44-.32-.26Z"/>
      <g>
        <path d="m82.62,77.84c-1.6-.27-3.44-1.08-4.05-2.71-.07-.18-.3-.18-.36,0-.61,1.63-2.45,2.44-4.05,2.71.08.04.15.09.23.13-.16-1.12-.33-2.33.1-3.41.32-.81.91-1.5,1.57-2.05.51-.43,1.07-.8,1.52-1.3.55-.62.84-1.38.99-2.19h-.36c.15.8.45,1.56.99,2.19.44.5,1.01.87,1.52,1.3.66.56,1.24,1.24,1.57,2.05.43,1.08.27,2.29.1,3.41-.03.24.33.34.36.1.16-1.09.32-2.23,0-3.31-.25-.86-.81-1.63-1.45-2.24-.51-.48-1.11-.86-1.61-1.34-.63-.62-.96-1.4-1.12-2.26-.03-.18-.33-.18-.36,0-.16.86-.49,1.64-1.12,2.26-.5.49-1.1.87-1.61,1.34-.65.61-1.2,1.38-1.45,2.24-.32,1.08-.16,2.22,0,3.31.02.11.14.15.23.13,1.75-.29,3.66-1.21,4.31-2.97h-.36c.65,1.76,2.57,2.68,4.31,2.97.23.04.34-.32.1-.36Z"/>
        <path d="m84.52,73.87c-.42-.4-.86-.77-1.3-1.14-.19-.16-.39-.33-.58-.49-.04-.04-.12-.08-.15-.13-.03-.05-.03-.21-.05-.32-.27-1.29-.91-2.29-1.92-3.11-.64-.52-1.33-.98-1.98-1.49-.09-.07-.18-.07-.27,0-1.03.81-2.25,1.5-3.04,2.57-.38.52-.63,1.12-.79,1.74-.05.19-.06.4-.13.58,0,.01.03,0,.02.03,0,.02-.04.03-.06.05-.14.16-.35.29-.51.43-.5.42-1.01.84-1.48,1.29.1.01.2.03.29.04-1.01-1.99-.46-4.14.78-5.89.98-1.38,2.34-2.48,3.59-3.61.55-.49,1.13-.98,1.6-1.55h-.27c.4.48.89.9,1.35,1.32.63.57,1.27,1.13,1.88,1.71,1.32,1.24,2.58,2.6,3.08,4.39.34,1.22.23,2.48-.35,3.61-.11.21.21.4.32.19,1-1.97.62-4.13-.55-5.93-.98-1.52-2.41-2.7-3.75-3.9-.59-.53-1.22-1.05-1.73-1.66-.06-.07-.2-.07-.27,0-.44.53-.97.98-1.47,1.43-.68.61-1.37,1.22-2.03,1.86-1.36,1.3-2.62,2.81-3.01,4.7-.25,1.2-.07,2.41.49,3.5.06.11.21.12.29.04.42-.4.86-.77,1.3-1.14.19-.16.39-.33.58-.49.11-.09.2-.14.24-.29.11-.36.15-.75.28-1.11.11-.32.25-.62.43-.9.31-.5.74-.9,1.19-1.27.64-.52,1.33-.98,1.98-1.49h-.27c1.02.8,2.28,1.49,3.04,2.57.4.56.62,1.21.77,1.87.04.21.04.39.2.53s.33.28.5.42c.5.42,1.01.84,1.48,1.29.18.18.45-.09.28-.25Z"/>
        <path d="m78.29,57.59c-1.21.81-2.56,1.4-3.72,2.29-1.18.9-2,2.11-2.15,3.61-.11,1.16.15,2.33.51,3.43.04.12.22.2.31.08.54-.63,1.14-1.21,1.74-1.77.2-.19.57-.41.66-.67.05-.12.06-.26.09-.39.22-.86.57-1.73,1.16-2.41.35-.41.79-.73,1.31-.88.46-.13,1.04.29,1.36.58.7.64,1.11,1.54,1.38,2.43.05.17.1.34.13.51.06.28.22.39.44.58.7.64,1.38,1.29,2,2.01.1.11.27.04.31-.08.56-1.71.85-3.67-.07-5.31-.71-1.26-1.96-2.07-3.18-2.77-.71-.41-1.43-.79-2.11-1.25-.2-.13-.39.19-.19.32,2.21,1.47,5.38,2.5,5.68,5.58.11,1.13-.14,2.26-.49,3.33.1-.03.21-.06.31-.08-.57-.66-1.19-1.26-1.83-1.85-.19-.18-.45-.32-.51-.58-.04-.17-.08-.34-.13-.51-.27-.92-.7-1.85-1.4-2.53-.37-.36-.83-.64-1.33-.77-.48-.12-1.07.23-1.44.52-.8.61-1.28,1.56-1.6,2.49-.07.2-.13.4-.18.61-.02.08-.03.18-.06.26-.05.12-.13.17-.24.27-.73.67-1.45,1.34-2.09,2.09.1.03.21.06.31.08-.54-1.65-.85-3.55.09-5.12.71-1.18,1.93-1.93,3.09-2.6.67-.39,1.36-.76,2-1.19.23-.11.05-.44-.16-.31Z"/>
        <path d="m88.18,69.25c-.42-.77-.6-1.66-.46-2.53.02-.13-.08-.28-.23-.23-.58.21-1,.68-1.35,1.16-.41.55-.75,1.15-1.06,1.76.11.01.23.03.34.04-.18-.48-.4-.93-.66-1.37-.07-.11-.15-.22-.22-.34-.09-.16-.1-.21-.08-.39.03-.19.07-.38.13-.57.22-.73.65-1.38,1.2-1.89,1.16-1.07,2.77-1.59,4.32-1.74-.06-.08-.12-.16-.18-.24-.16,1.2.08,2.4.04,3.6-.02.54-.1,1.09-.38,1.55-.36.59-.98.91-1.62,1.11-.23.07-.13.43.1.36.65-.2,1.28-.52,1.71-1.07.34-.45.49-1,.55-1.55.13-1.3-.21-2.6-.03-3.9,0-.11-.05-.25-.18-.24-1.66.16-3.37.71-4.61,1.88-.59.56-1.04,1.25-1.27,2.03-.06.21-.11.43-.14.66-.04.28-.03.36.13.6.34.51.63,1.05.84,1.62.05.14.26.2.34.04.27-.53.56-1.05.9-1.54.32-.47.73-1.01,1.29-1.21-.08-.08-.15-.15-.23-.23-.15.97.03,1.96.5,2.82.1.22.42.03.31-.19Z"/>
        <path d="m84.52,77.91c-.08-1.94.5-3.81,1.69-5.34,1.12-1.44,2.65-2.52,4.3-3.28-.09-.05-.19-.11-.28-.16-.03,1.06.21,2.07.4,3.1.19,1.01.25,2.04.08,3.06-.14.86-.46,1.7-1.07,2.34-.29.31-.65.64-1.07.74-.47.11-.96-.13-1.38-.32l.09.21c.33-.88.72-1.73,1.02-2.62.3-.86.55-1.8.44-2.72-.02-.14-.2-.27-.32-.13-.66.76-1.24,1.58-1.64,2.51s-.59,1.92-.7,2.92c.05-.06.09-.12.14-.18-.53.08-1.34.16-1.76-.24-.17-.17-.44.1-.27.27.54.51,1.46.43,2.13.34.09-.01.13-.11.14-.18.1-.95.29-1.89.66-2.78.38-.88.94-1.67,1.56-2.39-.11-.04-.21-.09-.32-.13.11.92-.16,1.85-.46,2.71-.3.85-.67,1.68-.99,2.52-.03.07.02.18.09.21.65.31,1.34.57,2.02.23.63-.32,1.15-.91,1.48-1.52.78-1.41.79-3.18.52-4.73-.19-1.07-.45-2.11-.42-3.2,0-.15-.16-.22-.28-.16-2.67,1.25-5.06,3.36-5.88,6.28-.24.87-.33,1.77-.3,2.67.01.21.39.21.38-.03Z"/>
        <path d="m90.83,78.74c.03-1.32.43-2.64,1.38-3.6.93-.95,2.23-1.4,3.53-1.5-.06-.08-.12-.16-.18-.24-.24.62-.21,1.24-.03,1.87.19.65.52,1.28.59,1.96.12,1.23-.46,2.45-1.71,2.81.07.03.14.06.21.09-.82-1.16-.89-2.67-.5-4,.05-.17-.13-.28-.28-.21-.52.25-.99.61-1.25,1.14-.26.54-.31,1.16-.34,1.75.05-.06.09-.12.14-.18-.57.15-1.13.03-1.71-.06-.24-.04-.34.32-.1.36.64.1,1.26.23,1.9.06.08-.02.13-.1.14-.18.02-.52.06-1.08.29-1.56.23-.48.65-.78,1.12-1-.09-.07-.18-.14-.28-.21-.42,1.41-.34,3.06.54,4.29.05.07.13.11.21.09,1.21-.35,1.91-1.41,1.99-2.64.09-1.47-1.15-2.8-.58-4.26.04-.11-.07-.25-.18-.24-1.4.11-2.79.59-3.8,1.61-1.01,1.03-1.45,2.44-1.49,3.86.01.23.39.23.39-.01Z"/>
        <path d="m100.22,79.86c-.54.66-1.22.84-2.04.92.06.05.12.09.18.14-.24-.91-.35-1.84-.21-2.78.13-.92.44-1.8.77-2.67.04-.1-.04-.2-.13-.23-.83-.25-1.57.23-2.16.78.1.03.21.06.31.08-.19-.61-.56-1.27-.48-1.93.04-.34.22-.68.35-1,.04-.11.08-.27.15-.37.1-.13.44-.31.62-.41.6-.36,1.23-.65,1.82-1.02-.09-.07-.18-.14-.28-.21-.13.83.35,1.5.75,2.19.28.49.42,1.03.51,1.59.19,1.24.16,2.53.03,3.77-.04.37-.06.86-.22,1.19-.1.22.22.41.32.19.14-.3.18-.65.22-.97.08-.56.12-1.13.13-1.7.04-1.2.03-2.53-.4-3.67-.3-.81-1.13-1.56-.99-2.48.02-.15-.12-.31-.28-.21-.64.41-1.34.71-1.97,1.11-.2.13-.5.3-.62.51-.07.11-.1.25-.15.37-.14.35-.34.72-.38,1.1-.07.71.29,1.39.49,2.05.04.14.21.18.31.08.49-.45,1.1-.89,1.8-.68-.04-.08-.09-.15-.13-.23-.34.91-.67,1.84-.79,2.81-.12.96,0,1.91.23,2.84.02.07.1.15.18.14.91-.09,1.7-.3,2.3-1.03.18-.19-.09-.46-.24-.27Z"/>
        <path d="m95.97,72.56c-.72.05-1.42.15-2.12.35.08.04.15.09.23.13-.23-1.34-.19-2.61.05-3.95.03-.15-.13-.31-.28-.21-.46.3-.89.66-1.19,1.12s-.45,1-.56,1.53c.04-.04.09-.09.13-.13-.28.07-.57.12-.86.16.08.04.15.09.23.13-.13-.71-.3-1.41-.32-2.14,0-.22,0-.45,0-.67,0-.03,0-.09,0-.12,0,.04.02-.01.06-.04.11-.09.2-.24.3-.35.84-.91,1.91-1.47,3.08-1.82-.06-.02-.12-.03-.18-.05,1.38,1.76,1.28,4.12,1.2,6.24,0,.24.37.24.38,0,.08-2.24.14-4.65-1.31-6.5-.04-.05-.12-.07-.18-.05-1.27.37-2.42.99-3.31,1.98-.15.17-.39.37-.42.61-.03.23-.02.49-.02.72,0,.78.19,1.53.33,2.29.02.11.14.14.23.13.29-.04.58-.09.86-.16.06-.01.12-.07.13-.13.1-.48.22-.96.48-1.38.27-.44.67-.77,1.1-1.05-.09-.07-.18-.14-.28-.21-.12.69-.23,1.39-.24,2.09,0,.69.07,1.38.19,2.06.02.1.14.16.23.13.66-.19,1.33-.29,2.02-.34.27-.02.27-.39.03-.37Z"/>
      </g>
      <path d="m155.84,68.01c-2.21,4.54-7.77,5.27-12.29,5.03-1.3-.07-2.6-.22-3.88-.43,0,.11.03.23.04.34,1.74-1.31,3.37-2.74,4.84-4.35.16-.18.33-.36.49-.54.09-.09.17-.2.26-.28.11-.1.1-.06.26-.11.75-.21,1.42-.63,1.94-1.21.61-.68.98-1.53,1.21-2.41-.04.04-.09.09-.13.13.52-.11,1-.47,1.23-.95.12-.26.13-.54.15-.82.02-.35.02-.69,0-1.04-.05-1.43-.33-2.84-.81-4.18-.09.07-.18.14-.28.21,1.61,1,3.23,2.02,4.65,3.29,1.28,1.14,2.5,2.56,2.79,4.31.19,1.03-.03,2.07-.48,3.01-.1.22.22.41.32.19.4-.85.65-1.78.59-2.73-.05-.86-.33-1.69-.75-2.44-.95-1.68-2.51-2.96-4.05-4.07-.93-.67-1.9-1.28-2.87-1.89-.13-.08-.33.06-.28.21.42,1.17.69,2.4.77,3.64.04.58.04,1.17,0,1.75-.05.59-.51,1.02-1.08,1.15-.06.01-.12.07-.13.13-.4,1.57-1.36,2.98-3.01,3.39-.37.09-.65.55-.91.83-.66.72-1.35,1.42-2.07,2.08-.91.84-1.86,1.63-2.85,2.37-.11.08-.13.31.04.34,2.41.39,4.87.61,7.3.42,2.36-.18,4.8-.74,6.74-2.15,1.09-.79,1.96-1.83,2.55-3.04.13-.21-.19-.4-.3-.18Z"/>
      <path d="m115.49,13.82c-.48-.36-1.17-.53-1.72-.71-1.1-.36-2.22-.65-3.35-.85-1.29-.24-2.6-.38-3.91-.32-1.17.05-2.39.26-3.41.87-1.17.7-1.81,1.87-1.98,3.2.11-.04.21-.09.32-.13-1.82-2.27-3.44-4.93-3.88-7.85-.29-1.93.05-4,1.37-5.5,1.35-1.53,3.39-2.17,5.39-2.15,2.81.02,5.51,1.17,7.82,2.7.39.26.76.52,1.13.8.37.28,1.01.63,1.12,1.1.23.97.42,1.95.56,2.94.28,2.01.36,4.04.26,6.07,0,.24.36.24.38,0,.09-1.88.03-3.77-.2-5.64-.12-.94-.28-1.88-.48-2.81-.08-.35-.09-.88-.37-1.12-.34-.31-.71-.59-1.08-.86-2.42-1.82-5.29-3.26-8.35-3.52-2.14-.18-4.42.31-6.04,1.8-1.47,1.37-2.08,3.37-1.98,5.34.18,3.34,2.03,6.42,4.07,8.96.11.14.3.01.32-.13.14-1.13.67-2.14,1.63-2.78.94-.62,2.1-.85,3.22-.91,2.37-.14,4.8.35,7.05,1.06.43.14.86.28,1.27.45.22.09.46.17.65.32.2.14.39-.18.19-.33Z"/>
      <path d="m148.91,62.52c-2.69-2.35-5.56-4.83-9.03-5.91-.97-.3-1.98-.47-2.99-.47.05.09.11.19.16.28,1.13-1.99,3.53-2.21,5.58-1.85,1.04.18,2.06.5,3.03.92.4.18.79.37,1.17.59.15.09.3.18.44.28.25.17.36.58.47.85.7,1.71,1.01,3.59.86,5.43-.02.24.36.24.38,0,.14-1.73-.12-3.51-.72-5.14-.14-.37-.29-.74-.47-1.1-.11-.23-.26-.33-.48-.47-.38-.24-.77-.45-1.18-.64-1.97-.92-4.35-1.57-6.53-1.11-1.22.26-2.25.96-2.87,2.04-.07.12.02.28.16.28,3.64-.02,6.9,2.23,9.61,4.44.73.59,1.44,1.21,2.15,1.83.18.17.45-.09.26-.25Z"/>
      <g>
        <g>
          <path d="m56.03,37.83c.13.87.3,1.73.54,2.58.28.24.56.49.83.73-.05-.19-.09-.38-.13-.58-.21-.94-.42-1.88-.57-2.84-.31-1.98-.47-3.98-.43-5.99,0-.19-.28-.18-.3,0-.24,2.03-.25,4.08.06,6.1Z"/>
          <path d="m58.08,30.29c.15,3.16.67,6.31,1.35,9.41.32,1.46.69,2.91,1.1,4.36.31.31.62.61.92.92-.1-.31-.19-.63-.29-.95-.42-1.49-.81-2.99-1.15-4.5-.71-3.07-1.23-6.18-1.76-9.27-.01-.1-.17-.07-.17.03Z"/>
          <path d="m61.26,36.13c.87,3.16,1.8,6.31,2.7,9.46.31,1.08.59,2.17.86,3.26.32.42.63.85.93,1.29-.32-1.56-.77-3.11-1.22-4.62-.94-3.17-1.95-6.32-2.97-9.47-.06-.19-.36-.12-.3.08Z"/>
          <path d="m67.01,47.49c.31,1.46.67,2.9.89,4.37.1.75.18,1.51.22,2.27v.06c.19.38.38.75.56,1.15.03-.4.04-.79.02-1.2-.04-.76-.12-1.51-.22-2.25-.21-1.54-.55-3.09-1.19-4.5-.08-.17-.31-.05-.28.1Z"/>
          <path d="m70.6,56.22c.1.8.28,1.58.51,2.35.1.33.22.65.34.97.13-.07.27-.14.4-.21-.1-.29-.2-.58-.29-.88-.24-.74-.44-1.51-.62-2.27-.05-.2-.36-.16-.34.04Z"/>
          <path d="m70.36,43.88c.08,2.92.35,5.83.76,8.71.2,1.44.45,2.87.74,4.3.15.72.32,1.46.51,2.18.2-.1.4-.19.59-.29-.14-.84-.29-1.68-.44-2.51-.99-5.72-1.56-11.54-1.71-17.35,0-.23-.34-.22-.35,0-.08,1.65-.15,3.31-.1,4.96Z"/>
          <path d="m72.78,41.96c.11,3.54.49,7.08.88,10.61.2,1.86.38,3.74.63,5.61.19-.09.38-.17.56-.25-.04-.31-.08-.61-.11-.91-.42-3.48-.77-6.97-1.11-10.46-.33-3.46-.52-6.91-.31-10.38,0-.12-.19-.15-.21-.03-.34,1.9-.39,3.87-.33,5.81Z"/>
          <path d="m76.32,33.01c-.23,8.16-.56,16.33-.39,24.49.16-.07.32-.13.47-.18,0-1.09,0-2.19,0-3.28,0-4.97.08-9.93.21-14.9.06-2.43.19-4.85.19-7.29,0-2.34-.13-4.66-.83-6.91-.03-.08-.15-.05-.13.04.47,2.64.54,5.35.47,8.03Z"/>
          <path d="m41.34,12.53c0,.22.01.42.01.64.38-.34.76-.7,1.14-1.03.65-.56,1.31-1.11,2-1.61s1.41-.94,2.17-1.33c.75-.38,1.56-.62,2.32-.97.13-.06.06-.26-.07-.25-.85.03-1.69.38-2.45.72-.79.36-1.54.82-2.25,1.32-.72.5-1.4,1.07-2.04,1.68-.28.28-.56.55-.83.83Z"/>
          <path d="m41.43,9.83c.77-.7,1.59-1.34,2.45-1.92.9-.6,1.83-1.12,2.8-1.58,1-.47,2.05-.81,3.08-1.2.1-.04.1-.22-.03-.2-2.16.27-4.33,1.34-6.13,2.52-.72.47-1.45,1.02-2.11,1.61-.01.26-.04.52-.06.77Z"/>
          <path d="m41.78,7.02c.97-1.03,2.14-1.91,3.38-2.56,1.89-1,3.92-1.43,6.05-1.5.1,0,.13-.16.03-.17-2.13-.3-4.38.23-6.27,1.21-1.18.61-2.2,1.38-3.06,2.32-.05.23-.09.47-.13.7Z"/>
          <path d="m55.99,46.24c1.38,1.03,2.7,2.18,3.98,3.33,2.23,1.99,4.26,4.21,6.06,6.6,1.12,1.5,2.11,3.08,3.07,4.67.19-.12.39-.23.58-.34-.29-.52-.58-1.03-.9-1.53-1.61-2.59-3.48-5.02-5.62-7.2-1.07-1.1-2.2-2.15-3.39-3.12-1.18-.95-2.41-1.77-3.7-2.57-.09-.06-.17.09-.08.16Z"/>
          <path d="m49.28,43.35c1.37,1.8,2.77,3.57,4.29,5.26,1.34,1.49,2.73,2.94,4.2,4.31,1.31,1.22,2.66,2.4,3.99,3.6,1.27,1.18,2.52,2.38,3.65,3.69.54.62,1.04,1.27,1.51,1.94l.51-.33c-.52-.8-1.13-1.55-1.76-2.27-2.36-2.69-5.17-4.92-7.77-7.38-2.99-2.82-5.7-5.93-8.48-8.95-.06-.07-.2.04-.14.13Z"/>
          <path d="m50.65,49.99c2.48,2.69,5.19,5.16,7.81,7.7,1.31,1.27,2.6,2.53,3.91,3.79.67.63,1.33,1.27,2,1.9.11.1.22.19.33.29.16-.11.31-.22.47-.33-.12-.13-.24-.26-.37-.38-.65-.66-1.3-1.31-1.96-1.95-1.29-1.27-2.59-2.53-3.89-3.8-2.61-2.55-5.17-5.19-7.93-7.59-.25-.22-.6.13-.37.37Z"/>
          <path d="m55.72,57.49c.49.92,1.18,1.71,1.9,2.48.7.74,1.41,1.47,2.16,2.16.76.72,1.55,1.4,2.37,2.04.3.24.61.49.92.72.16-.13.32-.26.49-.38-.38-.32-.76-.63-1.13-.94-.75-.65-1.49-1.31-2.2-2-.72-.69-1.41-1.4-2.08-2.13-.68-.75-1.34-1.53-2.11-2.19-.18-.15-.43.03-.32.24Z"/>
          <path d="m49.32,59.4c2.49.58,4.85,1.43,6.98,2.87,1.79,1.22,3.28,2.75,4.6,4.45.08-.08.17-.16.26-.24-1.15-1.83-2.79-3.37-4.57-4.58-2.13-1.46-4.65-2.58-7.23-2.83-.19,0-.22.29-.04.33Z"/>
          <path d="m42.05,59.93c1.54.35,3.1.65,4.62,1.11,2.68.8,5.25,1.98,7.63,3.45,1.81,1.12,3.41,2.45,4.97,3.85.1-.12.22-.23.33-.35-.61-.63-1.27-1.22-1.95-1.77-2.22-1.83-4.68-3.35-7.32-4.49-2.58-1.11-5.4-2.03-8.22-2.16-.22-.02-.27.31-.06.36Z"/>
          <path d="m39.15,63.76c1.68.29,3.39.3,5.08.49,2.91.35,5.83,1.02,8.46,2.36,1.86.95,3.46,2.22,4.88,3.71.08-.11.17-.22.26-.33-.58-.7-1.24-1.34-1.96-1.91-2.12-1.7-4.62-2.84-7.23-3.55-1.52-.41-3.07-.67-4.64-.84-1.59-.17-3.23-.31-4.82-.1-.1.02-.14.15-.03.17Z"/>
          <path d="m49.6,68.81c.72.37,1.51.59,2.25.94.7.33,1.38.72,2.02,1.17.76.53,1.5,1.14,2.16,1.82.06-.13.13-.24.19-.37-.06-.08-.13-.15-.21-.22-.58-.58-1.2-1.11-1.88-1.58-.68-.48-1.41-.9-2.18-1.25-.72-.33-1.51-.66-2.3-.71-.1-.01-.14.16-.05.2Z"/>
          <path d="m14.05,68.83c.1.11.22.22.33.33,2.09-.87,4.03-2.17,5.86-3.47,1.03-.72,2.04-1.49,2.99-2.31.96-.83,1.84-1.72,2.73-2.63.13-.13-.07-.31-.19-.19-1.84,1.68-3.83,3.25-5.87,4.68-1.89,1.31-3.91,2.38-5.85,3.59Z"/>
          <path d="m15.07,69.8c.14.13.28.25.42.38,1.57-.54,3.09-1.29,4.53-2.07,2.31-1.26,4.42-2.77,6.34-4.56.11-.1-.05-.26-.17-.16-1.99,1.61-4.16,3.07-6.42,4.3-1.52.81-3.1,1.47-4.7,2.11Z"/>
          <path d="m16.63,71.14c.2.17.4.33.61.49,1.24-.38,2.46-.88,3.6-1.4,2.32-1.06,4.43-2.45,6.31-4.18.11-.1-.05-.32-.17-.22-1.96,1.47-4.09,2.77-6.31,3.81-1.15.53-2.34.97-3.55,1.36-.17.04-.33.09-.49.14Z"/>
          <path d="m5.39,65.04c.18.58.4,1.13.74,1.63.33.49.72.95,1.15,1.35s.91.78,1.43,1.07c.26.15.54.27.82.39.24.1.56.19.83.21.13,0,.15-.16.06-.23-.22-.16-.51-.29-.76-.42-.24-.12-.47-.26-.69-.4-.48-.3-.92-.63-1.34-1.01-.81-.74-1.52-1.7-2.03-2.67-.06-.12-.25-.03-.21.08Z"/>
          <path d="m3.33,64.84c-.06,1.48.66,2.84,1.6,3.95.48.56,1.04,1.08,1.69,1.45.56.32,1.27.6,1.92.61.08,0,.13-.13.05-.17-.3-.13-.62-.22-.9-.4-.27-.17-.54-.34-.79-.52-.55-.4-1.06-.86-1.52-1.37-.87-1-1.52-2.28-1.79-3.59-.04-.14-.26-.1-.26.04Z"/>
          <path d="m8,60.84s.06-.07.09-.1c.42-.48.88-.92,1.36-1.34.49-.42,1.01-.8,1.55-1.14.55-.35,1.15-.6,1.7-.95.08-.06.06-.22-.06-.22-.66.04-1.31.33-1.9.63-.61.31-1.18.69-1.7,1.13-.31.26-.62.56-.9.88-.01.06-.02.11-.03.17-.03.15-.05.31-.07.47-.02.15-.03.31-.04.47Z"/>
        </g>
        <g>
          <path d="m100.75,37.83c-.13.87-.3,1.73-.54,2.58-.28.24-.56.49-.83.73.05-.19.09-.38.13-.58.21-.94.42-1.88.57-2.84.31-1.98.47-3.98.43-5.99,0-.19.28-.18.3,0,.24,2.03.24,4.08-.06,6.1Z"/>
          <path d="m98.7,30.29c-.15,3.16-.67,6.31-1.35,9.41-.32,1.46-.69,2.91-1.1,4.36-.31.31-.62.61-.92.92.1-.31.19-.63.29-.95.42-1.49.81-2.99,1.15-4.5.71-3.07,1.23-6.18,1.76-9.27.01-.1.17-.07.17.03Z"/>
          <path d="m95.52,36.13c-.87,3.16-1.8,6.31-2.7,9.46-.31,1.08-.59,2.17-.86,3.26-.32.42-.63.85-.93,1.29.32-1.56.77-3.11,1.22-4.62.94-3.17,1.95-6.32,2.97-9.47.05-.19.35-.12.3.08Z"/>
          <path d="m89.77,47.49c-.31,1.46-.67,2.9-.89,4.37-.1.75-.18,1.51-.22,2.27v.06c-.19.38-.38.75-.56,1.15-.03-.4-.04-.79-.02-1.2.04-.76.12-1.51.22-2.25.21-1.54.55-3.09,1.19-4.5.08-.17.3-.05.28.1Z"/>
          <path d="m86.18,56.22c-.1.8-.28,1.58-.51,2.35-.1.33-.22.65-.34.97-.13-.07-.27-.14-.4-.21.1-.29.2-.58.29-.88.24-.74.44-1.51.62-2.27.05-.2.36-.16.34.04Z"/>
          <path d="m86.42,43.88c-.08,2.92-.35,5.83-.76,8.71-.2,1.44-.45,2.87-.74,4.3-.15.72-.32,1.46-.51,2.18-.2-.1-.4-.19-.59-.29.14-.84.29-1.68.44-2.51.99-5.72,1.56-11.54,1.71-17.35,0-.23.34-.22.35,0,.07,1.65.15,3.31.1,4.96Z"/>
          <path d="m83.99,41.96c-.11,3.54-.49,7.08-.88,10.61-.2,1.86-.38,3.74-.63,5.61-.19-.09-.38-.17-.56-.25.04-.31.08-.61.11-.91.42-3.48.77-6.97,1.11-10.46.33-3.46.52-6.91.31-10.38,0-.12.19-.15.21-.03.35,1.9.4,3.87.33,5.81Z"/>
          <path d="m80.46,33.01c.23,8.16.56,16.33.39,24.49-.16-.07-.32-.13-.47-.18,0-1.09,0-2.19,0-3.28,0-4.97-.08-9.93-.21-14.9-.06-2.43-.19-4.85-.19-7.29,0-2.34.13-4.66.83-6.91.03-.08.15-.05.13.04-.48,2.64-.55,5.35-.47,8.03Z"/>
          <path d="m115.44,12.53c0,.22,0,.42,0,.64-.38-.34-.76-.7-1.14-1.03-.65-.56-1.31-1.11-2-1.61s-1.41-.94-2.17-1.33c-.75-.38-1.56-.62-2.32-.97-.13-.06-.06-.26.07-.25.85.03,1.69.38,2.45.72.79.36,1.54.82,2.25,1.32.72.5,1.4,1.07,2.04,1.68.28.28.56.55.83.83Z"/>
          <path d="m115.34,9.83c-.77-.7-1.59-1.34-2.45-1.92-.9-.6-1.83-1.12-2.8-1.58-1-.47-2.05-.81-3.08-1.2-.1-.04-.1-.22.03-.2,2.16.27,4.33,1.34,6.13,2.52.72.47,1.45,1.02,2.11,1.61.02.26.04.52.06.77Z"/>
          <path d="m115,7.02c-.97-1.03-2.14-1.91-3.38-2.56-1.89-1-3.92-1.43-6.05-1.5-.1,0-.13-.16-.03-.17,2.13-.3,4.38.23,6.27,1.21,1.18.61,2.2,1.38,3.06,2.32.05.23.09.47.13.7Z"/>
          <path d="m100.79,46.24c-1.38,1.03-2.7,2.18-3.98,3.33-2.23,1.99-4.26,4.21-6.06,6.6-1.12,1.5-2.11,3.08-3.07,4.67-.19-.12-.39-.23-.58-.34.29-.52.58-1.03.9-1.53,1.61-2.59,3.48-5.02,5.62-7.2,1.07-1.1,2.2-2.15,3.39-3.12,1.18-.95,2.41-1.77,3.7-2.57.09-.06.17.09.08.16Z"/>
          <path d="m107.49,43.35c-1.37,1.8-2.77,3.57-4.29,5.26-1.34,1.49-2.73,2.94-4.2,4.31-1.31,1.22-2.66,2.4-3.99,3.6-1.27,1.18-2.52,2.38-3.65,3.69-.54.62-1.04,1.27-1.51,1.94l-.51-.33c.52-.8,1.13-1.55,1.76-2.27,2.36-2.69,5.17-4.92,7.77-7.38,2.99-2.82,5.7-5.93,8.48-8.95.07-.07.21.04.14.13Z"/>
          <path d="m106.13,49.99c-2.48,2.69-5.19,5.16-7.81,7.7-1.31,1.27-2.6,2.53-3.91,3.79-.67.63-1.33,1.27-2,1.9-.11.1-.22.19-.33.29-.16-.11-.31-.22-.47-.33.12-.13.24-.26.37-.38.65-.66,1.3-1.31,1.96-1.95,1.29-1.27,2.59-2.53,3.89-3.8,2.61-2.55,5.17-5.19,7.93-7.59.25-.22.6.13.37.37Z"/>
          <path d="m101.06,57.49c-.49.92-1.18,1.71-1.9,2.48-.7.74-1.41,1.47-2.16,2.16-.76.72-1.55,1.4-2.37,2.04-.3.24-.61.49-.92.72-.16-.13-.32-.26-.49-.38.38-.32.76-.63,1.13-.94.75-.65,1.49-1.31,2.2-2,.72-.69,1.41-1.4,2.08-2.13.68-.75,1.34-1.53,2.11-2.19.18-.15.42.03.32.24Z"/>
          <path d="m107.46,59.4c-2.49.58-4.85,1.43-6.98,2.87-1.79,1.22-3.28,2.75-4.6,4.45-.08-.08-.17-.16-.26-.24,1.15-1.83,2.79-3.37,4.57-4.58,2.13-1.46,4.65-2.58,7.23-2.83.18,0,.22.29.04.33Z"/>
          <path d="m114.73,59.93c-1.54.35-3.1.65-4.62,1.11-2.68.8-5.25,1.98-7.63,3.45-1.81,1.12-3.41,2.45-4.97,3.85-.1-.12-.22-.23-.33-.35.61-.63,1.27-1.22,1.95-1.77,2.22-1.83,4.68-3.35,7.32-4.49,2.58-1.11,5.4-2.03,8.22-2.16.22-.02.26.31.06.36Z"/>
          <path d="m117.63,63.76c-1.68.29-3.39.3-5.08.49-2.91.35-5.83,1.02-8.46,2.36-1.86.95-3.46,2.22-4.88,3.71-.08-.11-.17-.22-.26-.33.58-.7,1.24-1.34,1.96-1.91,2.12-1.7,4.62-2.84,7.23-3.55,1.52-.41,3.07-.67,4.64-.84,1.59-.17,3.23-.31,4.82-.1.09.02.14.15.03.17Z"/>
          <path d="m107.17,68.81c-.72.37-1.51.59-2.25.94-.7.33-1.38.72-2.02,1.17-.76.53-1.5,1.14-2.16,1.82-.06-.13-.13-.24-.19-.37.06-.08.13-.15.21-.22.58-.58,1.2-1.11,1.88-1.58.68-.48,1.41-.9,2.18-1.25.72-.33,1.51-.66,2.3-.71.11-.01.15.16.05.2Z"/>
          <path d="m142.72,68.83c-.1.11-.22.22-.33.33-2.09-.87-4.03-2.17-5.86-3.47-1.03-.72-2.04-1.49-2.99-2.31-.96-.83-1.84-1.72-2.73-2.63-.13-.13.07-.31.19-.19,1.84,1.68,3.83,3.25,5.87,4.68,1.9,1.31,3.91,2.38,5.85,3.59Z"/>
          <path d="m141.71,69.8c-.14.13-.28.25-.42.38-1.57-.54-3.09-1.29-4.53-2.07-2.31-1.26-4.42-2.77-6.34-4.56-.11-.1.05-.26.17-.16,1.99,1.61,4.16,3.07,6.42,4.3,1.51.81,3.1,1.47,4.7,2.11Z"/>
          <path d="m140.15,71.14c-.2.17-.4.33-.61.49-1.24-.38-2.46-.88-3.6-1.4-2.32-1.06-4.43-2.45-6.31-4.18-.11-.1.05-.32.17-.22,1.96,1.47,4.09,2.77,6.31,3.81,1.15.53,2.34.97,3.55,1.36.16.04.32.09.49.14Z"/>
          <path d="m151.39,65.04c-.18.58-.4,1.13-.74,1.63-.33.49-.72.95-1.15,1.35s-.91.78-1.43,1.07c-.26.15-.54.27-.82.39-.24.1-.56.19-.83.21-.13,0-.15-.16-.06-.23.22-.16.51-.29.76-.42.24-.12.47-.26.69-.4.48-.3.92-.63,1.34-1.01.81-.74,1.52-1.7,2.03-2.67.06-.12.24-.03.21.08Z"/>
          <path d="m153.45,64.84c.06,1.48-.66,2.84-1.6,3.95-.48.56-1.04,1.08-1.69,1.45-.56.32-1.27.6-1.92.61-.08,0-.13-.13-.05-.17.3-.13.62-.22.9-.4.27-.17.54-.34.79-.52.55-.4,1.06-.86,1.52-1.37.87-1,1.52-2.28,1.79-3.59.03-.14.26-.1.26.04Z"/>
          <path d="m148.77,60.84s-.06-.07-.09-.1c-.42-.48-.88-.92-1.36-1.34-.49-.42-1.01-.8-1.55-1.14-.55-.35-1.15-.6-1.7-.95-.08-.06-.06-.22.06-.22.66.04,1.31.33,1.9.63.61.31,1.18.69,1.7,1.13.31.26.62.56.9.88,0,.06.02.11.03.17.03.15.05.31.07.47.02.15.04.31.04.47Z"/>
        </g>
      </g>
      <path d="m54.92,75.21c-.25.91-.38,1.84-.35,2.78.11-.04.21-.09.32-.13-1.12-1.03-2.31-2.03-3.69-2.67-1.45-.68-3.04-.9-4.64-.76-2.33.21-4.57,1.06-6.69,2.02-2.21,1-4.52,1.82-6.97,1.83-1.37.01-2.8-.23-4.01-.9-.05-.03-.14-.04-.19,0-.69.51-1.26,1.16-1.87,1.76-.6.58-1.28,1.15-2.13,1.3-1.05.19-2.13-.21-2.92-.89-.69-.6-1.12-1.42-1.45-2.27-.02.06-.03.12-.05.18.72-.85,1.29-1.84,2.17-2.54,1.04-.83,2.46-.91,3.59-.19,1.57,1,3.53,1.39,5.36,1.54,1.4.11,2.81.04,4.18-.22.81-.15,1.61-.37,2.39-.65.8-.29,1.57-.66,2.37-.97,2.47-.99,5.11-1.84,7.8-1.81,2.59.03,4.92,1.04,6.83,2.77.18.16.44-.1.27-.27-1.69-1.53-3.71-2.57-6-2.82-2.6-.28-5.23.38-7.66,1.25-1.57.56-3.06,1.33-4.66,1.79-1.52.44-3.1.63-4.67.59-1.22-.03-2.44-.2-3.62-.52-.74-.2-1.53-.44-2.17-.85-.64-.41-1.26-.68-2.04-.71-.67-.02-1.32.17-1.88.54-1.07.7-1.71,1.84-2.52,2.8-.04.05-.07.12-.05.18.53,1.41,1.39,2.66,2.84,3.23.77.3,1.71.35,2.5.05.66-.25,1.22-.71,1.73-1.2.61-.59,1.17-1.25,1.86-1.76h-.19c2.88,1.58,6.53.98,9.46-.12,1.34-.51,2.62-1.17,3.97-1.67,1.08-.4,2.19-.74,3.32-.95,1.66-.31,3.38-.29,4.98.31,1.61.6,2.95,1.71,4.2,2.86.11.11.33.04.32-.13-.03-.91.1-1.8.33-2.68.05-.23-.31-.33-.37-.1Z"/>
      <path d="m101.5,75.31c.24.88.36,1.77.33,2.68,0,.17.21.24.32.13,1.12-1.03,2.3-2.02,3.7-2.65,1.49-.68,3.13-.83,4.74-.63,2.53.32,4.81,1.39,7.13,2.38,2.05.87,4.27,1.48,6.51,1.43,1.32-.03,2.68-.3,3.85-.94h-.19c1.18.87,1.99,2.24,3.36,2.86,1.48.68,3.24.11,4.32-1.03.58-.61.95-1.37,1.25-2.15.02-.06,0-.13-.05-.18-.74-.87-1.32-1.88-2.23-2.59-.97-.76-2.24-.97-3.4-.5-.42.17-.77.46-1.17.65-.35.17-.72.31-1.1.44-1.09.37-2.24.59-3.39.68-1.47.12-2.95.05-4.39-.24-1.71-.34-3.24-1.08-4.85-1.71-2.49-.97-5.16-1.78-7.87-1.69-2.59.09-4.91,1.15-6.81,2.88-.18.16.09.43.27.27,1.68-1.53,3.72-2.54,6-2.74,2.59-.22,5.18.49,7.59,1.37,1.53.56,3,1.31,4.58,1.75,1.45.39,2.95.58,4.45.55,1.96-.04,4.08-.38,5.84-1.3.55-.28.99-.63,1.61-.74.73-.13,1.46.01,2.09.4,1.07.67,1.71,1.84,2.51,2.78-.02-.06-.03-.12-.05-.18-.32.85-.75,1.67-1.45,2.27-.79.69-1.87,1.08-2.92.89-.85-.15-1.53-.72-2.13-1.3-.62-.6-1.18-1.25-1.87-1.76-.05-.04-.14-.03-.19,0-3.05,1.67-6.97.8-9.98-.48-1.28-.54-2.52-1.14-3.84-1.59-1.04-.36-2.11-.65-3.2-.8-1.61-.23-3.26-.14-4.79.46-1.6.64-2.94,1.74-4.2,2.89.11.04.21.09.32.13.03-.94-.1-1.87-.35-2.78-.05-.24-.42-.14-.35.09Z"/>
    </g>
  </g>
</svg>