<?xml version="1.0" encoding="UTF-8"?>
<svg id="Layer_2" data-name="Layer 2" xmlns="http://www.w3.org/2000/svg" viewBox="0 0 156.08 185.59">
  <defs>
    <style>
      .cls-1 {
        fill: none;
        stroke: #000;
        stroke-miterlimit: 10;
        stroke-width: .75px;
      }
    </style>
  </defs>
  <g id="Layer_1-2" data-name="Layer 1">
    <g>
      <path class="cls-1" d="m63.72,75.09c.73.53,1.37,1.08,1.91,1.66,1.37,1.46,2.17,3.14,2.53,5.46.14.83.21,1.73.25,2.74,13.3-9.46,12.97-18.58,8.9-26.8-3.61,7.58-8.13,13.24-13.59,16.94Z"/>
      <path class="cls-1" d="m72.04,92.76c-.01,1.2-.11,2.4-.26,3.55,13.8-10.4,16.41-21.35,11.12-31.57-1.2,9.39-5.39,16.36-12.35,21.09.42.75.74,1.58.97,2.43.39,1.44.53,2.97.52,4.5Z"/>
      <path class="cls-1" d="m71.11,98.08c.58.75.95,1.58,1.17,2.48.22.92.29,1.9.29,2.9,0,.91-.06,1.83-.13,2.76,9.06-3.09,14.04-9.63,13.18-21.07-4.16,7.24-9.09,11.13-14.51,12.93Z"/>
      <path class="cls-1" d="m35.66,72.97l4.42-2.57,6.41-3.73,2.59-1.5c.8-15.23-2.67-22.77-8.92-25.27.94,11.59-.71,23.04-4.5,33.07Z"/>
      <path class="cls-1" d="m50.95,64.05l4.3-1.83,2.67-1.13,2.41-1.03c-.15-6.3-1.35-10.17-6.83-11.42,1.56,7.62.33,12.36-2.55,15.41Z"/>
      <path class="cls-1" d="m49.61,46.64c1.06.05,2.05.16,2.98.33,1.94.35,3.58.97,4.81,1.91.71.53,1.28,1.17,1.7,1.94,17.29-24,14.2-39.93,5.15-49.86-.09,17.94-4.82,32.84-14.64,45.68Z"/>
      <path class="cls-1" d="m61.48,52.8c.34.59.63,1.13.87,1.64.02.04.04.09.06.14.31.65.54,1.28.7,1.9.05.21.09.42.11.63.08.49.1,1,.08,1.53,14.54-8.43,22.06-32.03,12.4-38.75-1.77,15.68-6.14,27.9-14.22,32.91Z"/>
      <path class="cls-1" d="m70.53,56.03c1.47-.16,2.82-.23,4.02-.17,1.22.06,2.27.26,3.09.66.68.32,1.21.78,1.54,1.41,6.96-5.15,9.28-15.67,5.46-21.58-1.07,6.29-7.17,12.95-14.11,19.68Z"/>
      <path class="cls-1" d="m80.45,58.33c1.03.37,1.88.87,2.64,1.58.51.48.96,1.04,1.4,1.71.32.49.63,1.04.92,1.65,7.22-4.72,10.66-11.61,8.67-18.1-3.62,6.38-8.27,10.51-13.63,13.16Z"/>
      <path class="cls-1" d="m86.66,65.02c.42.85.81,1.68,1.15,2.51.62,1.48,1.09,2.98,1.36,4.57.17.95.25,1.93.26,2.97,16.21-12.25,26.71-23.42,20.98-39.28-5.26,16.67-17.19,24.63-23.75,29.23Z"/>
      <path class="cls-1" d="m89.31,87.55c15.52-8.04,23.7-18.11,22.43-30.22-8.11,12.72-15.77,17.74-21.78,19.71.14.86.19,1.78.2,2.73.02,1.53-.11,3.13-.33,4.72-.14,1.03-.32,2.06-.52,3.06Z"/>
      <path class="cls-1" d="m82.58,101.97c9.49-.62,22.91-11.86,24.94-21.81-4.15,4.47-14.32,9.27-18.43,8.73-.13,1.41-.44,2.75-.89,4.03-.78,2.27-2,4.35-3.38,6.24-.71.98-1.47,1.92-2.24,2.81Z"/>
      <path class="cls-1" d="m113.14,52.97c.37.72.68,1.47.92,2.25.34,1.09.55,2.23.67,3.4.07.7.11,1.41.12,2.13,15.92-2.32,34.66-19.84,39.63-32.85-14.56,11.56-27.46,20.58-41.34,25.07Z"/>
      <path class="cls-1" d="m109.06,76.96c24.77-3.44,39.43-16.42,46.12-38.53-10.59,12.9-26.1,21.94-40.85,25.86.34.88.51,1.72.54,2.55.09,2.51-1.13,4.86-2.99,7.14-.84,1-1.79,1.99-2.82,2.98Z"/>
      <path class="cls-1" d="m102.17,95.05c20.53-5.38,35.39-16.1,45.69-31.09-14.13,9.77-27.04,17.15-37.79,16.09-.24,1.16-.55,2.29-.92,3.39-.96,2.87-2.34,5.54-4.1,8.02-.87,1.23-1.83,2.43-2.88,3.59Z"/>
      <path class="cls-1" d="m65.63,76.75c1.37,1.46,2.16,3.14,2.53,5.46,6.31-4.5,9.1-10.72,8.02-15.37-2.57,4.27-6.74,7.57-10.55,9.91Z"/>
      <path class="cls-1" d="m71.52,88.26c.38,1.44.52,2.97.52,4.5,4.78-3.53,10.23-10.64,10.26-15.9-1.98,4.73-7.4,9.35-10.78,11.4Z"/>
      <path class="cls-1" d="m72.28,100.56c.22.92.29,1.9.29,2.91,3.82-1.47,6.51-3.9,8.15-7.39-2.6,2.04-5.5,3.55-8.44,4.48Z"/>
      <path class="cls-1" d="m40.08,70.4l6.41-3.73c.3-8.66-.93-14.79-3.67-18.31.12,7.52-.8,14.98-2.74,22.04Z"/>
      <path class="cls-1" d="m55.25,62.21l2.66-1.13c-.21-2.16-1.1-5.26-1.6-6.27.21,2.03-.64,5.56-1.06,7.4Z"/>
      <path class="cls-1" d="m52.59,46.98c1.94.35,3.58.97,4.81,1.91,5.6-8.83,10.06-17.44,6.03-27.55-2.91,14.25-6.6,18.29-10.84,25.64Z"/>
      <path class="cls-1" d="m62.35,54.44s.05.09.06.14c.31.65.54,1.28.69,1.9.05.21.09.42.12.63,7.26-5.98,13.04-15.96,13.22-23.99.03-1.01.01-2.36-.26-3.74-2.17,13.22-7.88,20.22-13.83,25.06Z"/>
      <path class="cls-1" d="m74.55,55.86c1.22.06,2.27.26,3.09.66,2.61-2.73,4.16-6.68,4.49-10.02-1.79,2.79-4.66,6.3-7.58,9.36Z"/>
      <path class="cls-1" d="m83.09,59.91c.51.48.96,1.04,1.4,1.71,2.07-1.81,4.55-4.74,5.47-6.67-1.6,1.69-4.79,3.6-6.87,4.96Z"/>
      <path class="cls-1" d="m87.81,67.53c.62,1.48,1.09,2.98,1.36,4.57,10.73-8.64,16.76-15.47,17.54-21.37-3.15,4.64-12.62,13.82-18.9,16.8Z"/>
      <path class="cls-1" d="m89.83,84.49c7.9-4.81,14.2-10.1,16.45-15.89-4.79,5.69-10.81,8.96-16.12,11.16.02,1.54-.11,3.14-.33,4.73Z"/>
      <path class="cls-1" d="m84.81,99.16c4.53-.97,10.99-5.45,14.07-9.24-3.03,1.54-7.89,2.56-10.69,3-.78,2.26-1.99,4.35-3.38,6.24Z"/>
      <path class="cls-1" d="m114.06,55.22c.33,1.09.55,2.23.67,3.4,9.73-2.57,20.64-10.9,27.81-19.5-9.75,7.12-18.95,12.59-28.48,16.1Z"/>
      <path class="cls-1" d="m111.87,73.98c14.81-3.52,26.95-10.24,33.69-22.6-8.61,7.37-19.64,12.11-30.69,15.46.09,2.51-1.13,4.86-3,7.14Z"/>
      <path class="cls-1" d="m105.04,91.45c9.86-3.49,19.89-8.82,27.01-15.25-7.74,4.3-15.87,7.22-22.9,7.23-.96,2.88-2.34,5.54-4.11,8.02Z"/>
      <path class="cls-1" d="m34.82,118.08s6.39,1.14,6.89-2.66-4.34-4.72-4.34-4.72c-3.68-6.12,2.32-12.82,8.68-20.47,6.43-7.75,10.27-15.04,15.4-14.57,3.08,1.24,5.28,4.83,3.53,8.16,5.41,2.83,6.89,6.92,2.17,12.99,5.53,3.51,3.77,7.68-1.02,12.05,0,0,51.65-14.53,71.02-26.06-3.33,7.67-13.22,15.45-23.88,16.57,5.42.66,10.62-.1,15.56-2.42-2.24,6.79-6.35,10.6-11.06,11.76,2.37,1.96,2.52,4.62,1.73,7.45-5.17-10.32-34.01,5.08-45.14,4.48-20.33-1.1-29.82,7.55-31.13,10.87-4.13,10.43,2.72,19.04,14.79,22.19,1.73-6.24,19.01-10.94,24.93-7.28,1.46.9,3.13,2.37,2.67,4.91-.21,1.18-1.04,2.22-3.58,2.01-5.02-.41-12.72.83-18.01,6.33,3.57-2.36,4.2-3.9,6.32-3.46,0,0,2.68,4.49,7.2,3.8s6.13-6.66,10.99-8.16c5.36-1.65,13.59-.66,15.8,3.43-4.06-.88-14.23-.74-15.3,9.71-1.04,10.18,12.92,8.96,12.92,8.96-4.55,5.92-10.47,6.64-22.29,4.34-11.03-2.15-19.59,2.27-22.47,6.27-.35-3.63,1.47-6.35,5.23-8.24-7.22-.44-14.99,2.83-14.96,6.27-3.24-.69-6.64-2.04-6.57-5.13.07-3.08,3.32-4.36,10.83-6.73-10.9.27-26.42-7.51-28.39,1.17-4.09-4.13-.59-7.34,6.98-8.46-8.78-1.53-17.17-12.51-22.24-9.83-1.02-2.54-.49-5.11,2.01-6.2,2.48-1.08,4.42.28,8.49,3.08-9.54-8.98-10.63-21.48-17.58-18.58,3.5-5.25,7.8-5.37,11.37-1.61-6.17-6.19-2.38-21.17-7.36-23.02,1.67-4.26,5.06-3.03,8.98,1.2-1-11.44,7.67-24.71,14.15-29.06,15.75-10.59,42.23-24.85,45.17-22.03,2.55,2.45-5.38,14.65-11.3,17.76-2.96-1.45-9.14,4.55-15.18,11.44-8.28,9.45-18.9,19.02-10.47,26.6.84,1.71-.62,3.51-1.54,4.89Z"/>
      <path class="cls-1" d="m69.84,144.46c-2.96.55-6.57,1.47-8.9,3.78-6.5-5.46-4.09-13.43,4.92-12.15-1.69,3.56.87,6.4,3.98,8.37Z"/>
      <path class="cls-1" d="m54.65,133.46c-4.69,6.35-.97,11.21,5.39,15.21-1.61,1.29-2.87,2.45-2.75,3.97-13.07-3.21-15.71-14.89-2.64-19.18Z"/>
      <path class="cls-1" d="m79.55,144.23c-2.01-.37-4.07-.16-6.15.47-2.23-4.03-.64-6.1,2.34-7.51-1.28,4.01,1.18,5.05,3.81,7.04Z"/>
      <path class="cls-1" d="m127.63,103.44c-2.11,3.72-5.78,4.59-6.07,6.79-.39,2.94,2.64,3.83,1.18,5.8-1.99,2.7-17.35-.95-21.23-.25-3.88.69-7.71,3.45-11.31,3.89-4.79.59-11.55.68-16.27,4.39,1.79.07,3.04.72,3.51,2.22,3.52-.12,4.7-3.62,12.95-5.2-6.98,5.71-12.61,5.87-13.31,7.67,2.3.16,4.02,1.2,4.93,3.47,2.73-1.46,1.42-3.11,3.92-5.13,2.33-1.88,5.83-2.69,8.34-5.97-2.18,6.51-11.39,7.52-9.9,12.91,1.25-.84,3.03-1.59,4.01-.71.43-3.15,6.7-3.72,9.7-11.98,3.85-.5,5.44,5.65,9.41,4.9.06-2.33,1.17-3.39,3.46-3.69-1.03-1.84-4.14-2.18-7.08-2.9,9.99-2.56,17.74,3.65,22.01.77,3.62-2.44,1.01-10.4,1.75-16.98Z"/>
      <path class="cls-1" d="m108.21,125.88c-.02-1.41.93-2.12,2.6-2.62,2.79,1.48,2.29,4.26-.2,5.41.66-2.02-.07-4.45-2.4-2.79Z"/>
      <path class="cls-1" d="m87.86,133.75c-.77-.31-1.65-.19-2.89.73.67,3.28,3,3.63,5.89,2.29-2-.38-2.87-1.55-3-3.02Z"/>
      <path class="cls-1" d="m81.12,131.94c-.34-1.37-2.03-2.23-3.85-2.6-3.36,2.25-3.16,5.11-.22,6.64.58-2.49,1.89-3.73,4.07-4.04Z"/>
      <path class="cls-1" d="m73.68,124.75c1.34-.26,2.19.47,2.82,1.51-2.72.33-3.61,2.17-3.6,4.42-2.43-1.52-2.26-5.4.78-5.93Z"/>
      <path class="cls-1" d="m66.84,122.13c1.33-.66,3.09-.68,5.13-.28-6.49,2.58-5.83,7.38-10.76,10.41-.4-1.75-1.19-3-2.92-3.05,1.63-3.38,5.81-2.05,8.55-7.08Z"/>
      <path class="cls-1" d="m58.17,129.75c1.44.33,2.33,1.13,2.32,2.53-1.91.09-2.72,2.04-1.38,4.15-4.31-.4-4.6-4.58-.94-6.68Z"/>
      <path class="cls-1" d="m51.35,128.01c1.17.42,1.77,1.45,1.94,2.92,3.69.65,4.66-5.84,12.86-9.35-1.39-.07-2.99.33-4.71.66-2.65,3.22-9.03,2.31-10.09,5.77Z"/>
      <path class="cls-1" d="m51.07,128.58c.93.4,1.27,1.09,1.35,1.89-1.43-.6-3.04.31-3.68,1.9-.48-1.96.17-3.29,2.33-3.79Z"/>
      <path class="cls-1" d="m55.57,153.22c-11.12,4.49-22.61,4.91-30.68,1.47,6.23,1.11,12.97,1.2,17.81-.48-13.33-3.72-26.22-13.95-29.29-21.69,5.81,8.93,17.86,15.37,29.01,18.11-17.21-9.03-26.15-22.74-27.83-39.84,2.31,7.07,4.25,13.46,9.32,17.69-8.17-16.33-4.44-38.31,5.97-49.06-14.06,22.54-9.1,59.04,19.2,70.7l6.49,3.1Z"/>
      <path class="cls-1" d="m44.97,83.97c-.92-1.41-1.82-2.19-3.88-2.73-.17-.04-.22-.26-.08-.37,1.3-.97,5.59-4.22,6.28-3.38.69.84-1.35,5.21-1.96,6.46-.07.15-.27.16-.36.02Z"/>
      <path class="cls-1" d="m51.04,74.08c-.71-1.45-1.47-2.3-3.36-3.05-.16-.06-.18-.27-.03-.36,1.35-.77,5.8-3.35,6.36-2.47s-1.9,4.79-2.62,5.9c-.09.14-.28.12-.35-.02Z"/>
      <path class="cls-1" d="m58.29,68.85c-.55-1.35-1.18-2.17-2.84-2.96-.14-.07-.14-.26-.01-.32,1.27-.61,5.45-2.66,5.9-1.83s-2.02,4.21-2.74,5.17c-.09.1-.26.07-.31-.06Z"/>
      <path class="cls-1" d="m65.1,65.1c-.53-1.3-1.14-2.09-2.74-2.86-.13-.06-.14-.25-.01-.31,1.22-.59,5.25-2.56,5.68-1.77.43.8-1.94,4.05-2.64,4.98-.08.12-.24.09-.29-.04Z"/>
      <path class="cls-1" d="m63.79,72.04c-.38-1.17-.87-1.9-2.22-2.67-.11-.06-.1-.23.02-.28,1.11-.44,4.76-1.92,5.09-1.19.33.73-1.96,3.43-2.62,4.2-.09.09-.23.06-.27-.06Z"/>
      <path class="cls-1" d="m55.76,73.35c.76.26,1.3.57,1.72.94.82-.42,1.75-.6,2.28-.68.54-1.1,1-2.27.74-2.64-.46-.65-3.78,1.48-4.78,2.11-.11.06-.09.22.04.27Z"/>
      <path class="cls-1" d="m43.76,76.59c-.75-1.42-1.54-2.25-3.45-2.94-.16-.06-.19-.27-.04-.36,1.32-.81,5.7-3.53,6.28-2.67s-1.75,4.85-2.44,5.98c-.09.14-.28.13-.35-.01Z"/>
      <path class="cls-1" d="m37.38,80.63c-.45-1.58-1.5-2.66-3.53-3.29-.15-.04-.17-.24-.04-.32,1.2-.73,5.13-3.18,5.66-2.41.53.78-1.16,5.01-1.78,6.03-.07.13-.27.13-.31,0Z"/>
      <path class="cls-1" d="m29.19,100.5c-1.43-.8-2.94-.83-4.83.16-.13.07-.29-.05-.25-.2.33-1.36,1.39-5.88,2.31-5.7s2.71,4.36,3,5.53c.03.13-.11.27-.23.21Z"/>
      <path class="cls-1" d="m29.97,114.92c-1.34-.54-2.66-.41-4.2.66-.11.08-.26-.02-.24-.15.14-1.22.59-5.28,1.41-5.23.82.06,2.84,3.52,3.21,4.51.04.12-.06.26-.18.21Z"/>
      <path class="cls-1" d="m28.89,121.08c-1.16.02-2.1.53-2.91,1.8-.06.09-.2.07-.23-.03-.28-.95-1.53-4.55-.9-4.76.63-.21,3.52,2.17,4.1,2.78.07.07.04.2-.06.21Z"/>
      <path class="cls-1" d="m33.93,119.7c-1.18-.4-2.32-.22-3.6.79-.09.07-.23,0-.22-.11.06-1.07.43-3.45,1.15-3.45.72,0,2.44,1.75,2.81,2.59.05.09-.04.22-.14.18Z"/>
      <path class="cls-1" d="m33.16,125.22c-1.05-.05-1.92.37-2.71,1.47-.06.08-.18.05-.2-.04-.2-.87-.46-2.88.12-3.04.58-.16,2.37.84,2.86,1.43.06.06.02.18-.07.18Z"/>
      <path class="cls-1" d="m33.16,131.5c-1.05,0-1.9.45-2.64,1.59-.05.08-.18.06-.2-.03-.24-.86-.58-2.86-.01-3.04.57-.19,2.4.74,2.92,1.3.05.05.02.18-.07.18Z"/>
      <path class="cls-1" d="m37.24,124.21c-.79-.1-1.47.15-2.14.94-.05.06-.14.03-.15-.04-.1-.67-.16-2.21.28-2.29.45-.09,1.74.79,2.08,1.26.03.05-.01.14-.07.13Z"/>
      <path class="cls-1" d="m26.83,126.62c.18.43.36.87.55,1.29.55-.49.93-.53,1.58-.45.07,0,.11-.08.07-.13-.34-.48-1.43-1.47-1.88-1.39-.19.04-.29.32-.32.68Z"/>
      <path class="cls-1" d="m36.85,129.51c-.79.02-1.43.39-1.97,1.27-.04.06-.13.05-.16-.02-.2-.65-.51-2.15-.08-2.31.43-.15,1.84.5,2.25.92.06.04.03.13-.04.14Z"/>
      <path class="cls-1" d="m39.31,127.6c-.53.02-.95.26-1.31.84-.03.04-.09.03-.1,0-.13-.43-.34-1.43-.05-1.53.28-.1,1.22.33,1.49.61.03.03.02.09-.03.09Z"/>
      <path class="cls-1" d="m42.66,129.92c-.52.09-.9.39-1.17,1.03-.02.04-.08.05-.1,0-.2-.4-.55-1.36-.28-1.51.27-.14,1.26.15,1.57.38.03.03.03.1-.02.1Z"/>
      <path class="cls-1" d="m40.55,136.61c-.51.13-.87.45-1.1,1.1-.02.05-.08.05-.1,0-.22-.39-.63-1.32-.38-1.48s1.27.07,1.59.28c.03,0,.03.08-.01.09Z"/>
      <path class="cls-1" d="m37.66,138.66c-.52.07-.92.35-1.22.96-.02.04-.08.04-.1,0-.17-.41-.47-1.39-.2-1.52s1.25.21,1.54.46c.04.03.03.09-.02.1Z"/>
      <path class="cls-1" d="m36.58,133.97c-.52.07-.92.35-1.21.97-.02.04-.09.04-.11,0-.17-.41-.48-1.39-.21-1.52.27-.13,1.25.21,1.55.45.03.03.02.09-.02.1Z"/>
      <path class="cls-1" d="m33.39,135.38c-.53.02-.94.27-1.29.86-.03.04-.09.03-.1,0-.14-.43-.36-1.42-.08-1.53.28-.11,1.23.31,1.5.58.03.03,0,.1-.03.1Z"/>
      <path class="cls-1" d="m40.86,141.29c-.52.07-.92.35-1.22.96-.02.04-.08.04-.1,0-.17-.41-.47-1.39-.2-1.52s1.25.21,1.54.46c.04.03.03.1-.02.1Z"/>
      <path class="cls-1" d="m40.04,131.58c-.6.11-1.05.46-1.36,1.19-.02.05-.1.05-.12,0-.23-.47-.64-1.59-.33-1.75.31-.17,1.46.17,1.82.44.05.03.05.11-.01.12Z"/>
      <path class="cls-1" d="m28.18,107.78c1.8-.37,3.11-.09,4.18.74-.22-1.25-.1-2.53.27-3.85-.23-1-.51-1.83-.85-2-.84-.43-3.11,3.62-3.79,4.84-.07.14.04.3.19.27Z"/>
      <path class="cls-1" d="m23.13,103.46c-.11,1.57-.14,3.15-.1,4.74,1.24-.27,2.31-.05,3.31.57.12.07.27-.06.24-.2-.23-1.17-1.85-5.43-2.76-5.65-.22-.06-.46.16-.69.54Z"/>
      <path class="cls-1" d="m38.62,87.43c-.64-.97-1.39-1.8-2.81-2.17-.12-.03-.15-.18-.05-.25.9-.67,3.99-2.63,4.47-2.05.48.58-.93,3.6-1.35,4.46-.06.1-.2.1-.26.01Z"/>
      <path class="cls-1" d="m34.08,92.95c-.84-.8-1.76-1.44-3.23-1.48-.12,0-.19-.14-.11-.23.72-.85,3.3-3.46,3.89-3s-.1,3.71-.32,4.65c-.02.1-.15.13-.23.06Z"/>
      <path class="cls-1" d="m32.94,85.55c-1-.76-2.08-1.33-3.66-1.19-.13.01-.22-.13-.15-.24.67-1.01,3.12-4.14,3.82-3.72s.35,4.01.24,5.04c-.01.13-.15.19-.25.11Z"/>
      <path class="cls-1" d="m28.99,92.82c-1.17-.47-2.35-.74-3.84-.19-.12.04-.25-.07-.2-.19.39-1.15,1.93-4.81,2.71-4.59.78.22,1.39,3.78,1.55,4.81.01.12-.11.21-.22.16Z"/>
      <path class="cls-1" d="m51.14,79.95c.01.11.15.15.22.07.67-.77,2.81-3.33,2.36-3.88-.45-.55-3.12,1.76-3.94,2.49-.09.08-.03.22.08.22.89.03,1.17.25,1.28,1.1Z"/>
      <path class="cls-1" d="m70,62.72c0,.1.11.14.18.08.65-.6,2.75-2.59,2.42-3.11-.33-.52-2.86,1.2-3.64,1.75-.08.06-.05.18.05.2.76.12.98.34.99,1.08Z"/>
      <path class="cls-1" d="m68.41,67.54c.01.08.12.11.17.05.49-.59,2.07-2.56,1.73-2.97-.35-.41-2.34,1.38-2.95,1.94-.06.06-.02.17.07.17.67,0,.88.17.98.81Z"/>
      <path class="cls-1" d="m42.02,89.64c.01.11.14.16.22.08.7-.74,2.96-3.2,2.54-3.77-.42-.57-3.2,1.61-4.05,2.3-.09.07-.04.21.07.22.88.08,1.15.31,1.22,1.17Z"/>
      <path class="cls-1" d="m37.78,94.69c.02.11.15.15.22.06.65-.78,2.75-3.38,2.29-3.93-.46-.54-3.09,1.82-3.9,2.56-.08.08-.03.22.09.22.89.02,1.18.23,1.3,1.09Z"/>
      <path class="cls-1" d="m33.96,100.32c.03.11.17.13.23.04.56-.85,2.02-3.92,1.5-4.41-.52-.49-3.22,1.63-3.91,2.62-.07.09,0,.22.11.21.89-.08,1.85.71,2.07,1.54Z"/>
      <path class="cls-1" d="m31.49,114.29c-.02.19.18.32.36.24,1.17-.54,2.31-.74,3.41-.55.2.04.35-.19.25-.37-.88-.81-1.57-1.68-2.08-2.58-.35-.33-.67-.5-.88-.4-.64.31-.95,2.65-1.06,3.66Z"/>
      <path class="cls-1" d="m46.84,86.59c-8.28,9.45-18.9,19.02-10.47,26.6.84,1.71-.62,3.51-1.54,4.88"/>
      <path class="cls-1" d="m60.4,91.94c5.84-3.48.22-11.9-5.63-8.36-.19.11-.17.39.03.5,3.08,1.67,4.87,4.17,5.18,7.63,0,.21.23.34.42.23Z"/>
      <path class="cls-1" d="m60.75,102.23c6.79.22,6.6-9.91-.24-10.08-.22-.01-.35.24-.25.43,1.7,3.06,1.86,6.14.25,9.22-.1.19.03.42.24.43Z"/>
      <path class="cls-1" d="m57.18,111.89c6.23,2.72,9.8-6.75,3.52-9.45-.2-.09-.42.09-.39.31.44,3.48-.55,6.39-3.19,8.65-.16.14-.13.4.06.49Z"/>
      <path class="cls-1" d="m54.06,94.84c4.54-2.71.17-9.26-4.38-6.51-.15.09-.13.31.02.39,2.4,1.3,3.79,3.24,4.03,5.94,0,.16.19.27.33.18Z"/>
      <path class="cls-1" d="m54.33,102.85c5.29.17,5.13-7.71-.18-7.84-.17-.01-.28.19-.19.34,1.32,2.38,1.45,4.77.19,7.17-.08.14.02.32.18.33Z"/>
      <path class="cls-1" d="m51.56,110.37c4.85,2.12,7.63-5.25,2.74-7.35-.16-.07-.33.07-.3.24.34,2.7-.43,4.97-2.48,6.73-.13.11-.11.31.04.38Z"/>
      <path class="cls-1" d="m48.7,97.94c3.72-1.63.71-6.69-3.02-5.03-.12.05-.12.21-.01.28,1.79,1.11,2.76,2.62,2.77,4.59.01.12.15.21.26.16Z"/>
      <path class="cls-1" d="m48.42,103.75c4.12.5,4.49-5.21.35-5.69-.13-.02-.23.12-.17.23.88,1.82.83,3.56-.3,5.21-.08.1-.01.24.12.25Z"/>
      <path class="cls-1" d="m45.78,108.99c3.65,1.88,6.28-3.25,2.6-5.12-.12-.06-.26.03-.25.15.1,1.98-.64,3.57-2.36,4.69-.11.08-.1.23.01.28Z"/>
      <path class="cls-1" d="m43.28,102.98c3.65-.58,2.18-5.73-1.49-5.13-.12.02-.16.16-.07.25,1.32,1.39,1.82,2.95,1.38,4.69-.03.1.07.21.18.19Z"/>
      <path class="cls-1" d="m41.68,108.04c3.51,1.4,5.16-3.55,1.63-4.93-.11-.05-.23.05-.2.16.35,1.81-.09,3.33-1.47,4.52-.09.07-.07.21.04.25Z"/>
      <path class="cls-1" d="m81.47,154.39c-3.17-.04-6.36.32-9.33,1.47,1.9-.26,2.39,3.43,5.25,3.1,3.11-.35,4.08-4.57,4.08-4.57Z"/>
    </g>
  </g>
</svg>