<?xml version="1.0" encoding="UTF-8"?>
<svg id="Layer_2" data-name="Layer 2" xmlns="http://www.w3.org/2000/svg" viewBox="0 0 107.86 55.08">
  <defs>
    <style>
      .cls-1 {
        fill: none;
        stroke: #000;
        stroke-miterlimit: 10;
        stroke-width: .75px;
      }
    </style>
  </defs>
  <g id="Layer_1-2" data-name="Layer 1">
    <g>
      <path class="cls-1" d="m71.47,29.6c4.12-7.84-16.9-17.33-19.43-25.4-3.82.09-5.48,3.48-6.94,7.17-3.65-4.89-7.87-1.96-12.39-10.92-7.06,2.23-7.24,6.18-5.85,10.52-9.9-3.06-18.35,2.99-25.85,14.96,7.26-3.54,12.27,5.27,21.58,6.68-5.58,1.42-8.51,4.73-7.47,10.84,14.18-8.46,20.52,8.54,33.36-1.73-3.4,4.43-2.29,8.51,2.04,12.68,3.94-11.08,14.72-4.1,20.05-17.33-8.43-2.73-14.05-2.11-13.21,6.15-6.92-2.17-6.83-5.19-7.29-8.13-11.07,6.54-14.77-2.31-21.63,1.75-1.14-3.4.48-5.9,2.62-8.24-9.32,3.73-13.42-6.31-22.95-6.02,6.25-7.33,12.35-9.45,23.46-6.67,1.87-3.8-2.13-5.42,1.67-8.74,4.29,7.24,8.65,5.69,15.13,11.25-.19-2.27,1.42-4.08,5.17-5.34,3.27,6.48,9.7,14.45,17.93,16.52Z"/>
      <path class="cls-1" d="m53.12,37.03c1.09-1.85.4-4.48,2.21-7.07-4.27,5.39-13.4,1.36-23.25,4.39,1.6-2.73,4.3-4.83,7.76-6.5-8.13,2.11-14.56-4.91-22.38-7.05,6.4-2.16,10.34-4.81,20.24-.7-2.61-3.25-3.05-5.8-2.47-8.03,6.12,6.16,12.51,11.32,19.6,13.8-1.16-2.03-1.46-3.82-.84-5.33,11.28,12.29,23.4,13.62,49.1,5.64l4.16,4.17c-21.47,12.78-47.65-4.34-54.13,6.68Z"/>
    </g>
  </g>
</svg>