<?xml version="1.0" encoding="UTF-8"?>
<svg id="Layer_2" data-name="Layer 2" xmlns="http://www.w3.org/2000/svg" viewBox="0 0 131.47 124.98">
  <defs>
    <style>
      .cls-1 {
        fill: none;
        stroke: #000;
        stroke-miterlimit: 10;
        stroke-width: .75px;
      }
    </style>
  </defs>
  <g id="Layer_1-2" data-name="Layer 1">
    <g>
      <path class="cls-1" d="m65.74,124.53c9.5-6.04,12.75-20.83,11.19-39.1-1.83,1.53-4.34,2.41-7.51,2.65,1.34,10.12-.15,20.03-3.68,23.56-3.53-3.54-5.03-13.44-3.68-23.56-3.17-.24-5.68-1.12-7.51-2.65-1.55,18.26,1.7,33.06,11.19,39.1Z"/>
      <path class="cls-1" d="m115.74,82.18c-3.06-4.22-8.25-7.36-11.08-7.6-6.23-.52-9.28,3.04-9.28,3.04,6.34,2.13,12.22,4.71,12.48,12.7-4.72-7-14.58-7.87-26.95-5.74,0,0,1.69,9.9,11.78,12.26,9.77,2.28,21.45-2.8,25.72.77,1.53-3.42.7-10.79-2.67-15.43Z"/>
      <path class="cls-1" d="m115.98,51.28c-4.3,1.87-9.61,6.72-13,13.64,6.62-5.04,12.08-7.82,18.24-8.28-6.33,6.77-12.28,6.81-18.46,14.62,7.73-1.69,10.97-.37,17.54-3.74,4.78-2.45,6.3-6.26,10.71-10.83-3.69-6.85-9.96-7.62-15.03-5.41Z"/>
      <path class="cls-1" d="m38.79,96.84c10.09-2.36,11.78-12.26,11.78-12.26-12.37-2.13-22.24-1.26-26.95,5.74.26-7.99,6.14-10.57,12.48-12.7,0,0-3.05-3.56-9.28-3.04-2.84.24-8.02,3.38-11.08,7.6-3.36,4.64-4.2,12-2.67,15.43,4.28-3.57,15.96,1.51,25.72-.77Z"/>
      <path class="cls-1" d="m11.18,67.51c6.57,3.37,9.81,2.04,17.54,3.74-6.19-7.8-12.13-7.84-18.46-14.62,6.16.47,11.62,3.24,18.24,8.28-3.39-6.92-8.7-11.77-13-13.64-5.07-2.21-11.34-1.44-15.04,5.41,4.42,4.57,5.94,8.38,10.72,10.83Z"/>
      <path class="cls-1" d="m86.34,63.16c-4.22.14-7.18,2.39-9.16,4.82,6.68-6.95,16.89-3.31,12.58,5.18,3.35-4.33,1.94-10.18-3.42-10Z"/>
      <path class="cls-1" d="m41.8,73.16c-4.31-8.48,5.9-12.13,12.58-5.18-1.97-2.42-4.94-4.68-9.15-4.82-5.37-.18-6.77,5.67-3.43,10Z"/>
      <path class="cls-1" d="m92.09,63.72c-5.47-6.63-16.29.39-18,4.76-.39-4.14-3.26-6.27-8.27-6.3h-.08c-5,.02-7.87,2.15-8.27,6.3-1.71-4.37-12.52-11.39-17.99-4.76-6.84,8.29,6.35,17.47,17.06,19.34-11.17-4.48-16.27-13.5-10.76-16.02,6.88-3.15,9.94,11.49,17.46,16.69-7.79-14.5.48-16.88,2.55-16.91,2.07.03,10.35,2.41,2.55,16.91,7.52-5.2,10.58-19.84,17.46-16.69,5.51,2.52.41,11.55-10.76,16.02,10.7-1.87,23.88-11.05,17.05-19.34Z"/>
      <path class="cls-1" d="m65.78,33.21c-6.56-10.06-1.19-18.79-8.12-32.26-4.56,13.21-23.09,14.68-31.25,29.44-6.4,11.57,3.3,29.51,8.32,37.04-.47-2.41.93-4.01,2.43-5.39-3.95-9.61-4.83-19-1.18-27.23,3.86-8.67,13.58-11.22,21.75-23.76-4.08,16.97-8.72,15.5-13.11,24.64-3.49,7.25-5.39,13.92-1.69,24.26,2.75-.59,6.37.08,8.77,1.33-2.91-7.16-1.85-13.97.69-20.12,2.54-6.16,6.64-9.41,6.52-17.27,3.48,10.01-.18,12.53-1.18,20.07-.54,4.1-.36,9.61,1.22,18.26,1.36-1.11,3.06-1.88,4.89-1.71-2.67-9.96-.93-19.1,1.94-27.1,2.87,7.99,4.61,17.14,1.94,27.1,1.83-.17,3.53.61,4.89,1.71,1.58-8.65,1.76-14.16,1.22-18.26-1-7.54-4.66-10.06-1.18-20.07-.12,7.86,3.98,11.11,6.52,17.27,2.54,6.15,3.6,12.97.69,20.12,2.4-1.25,6.02-1.91,8.77-1.33,3.71-10.34,1.8-17-1.69-24.26-4.4-9.15-9.03-7.67-13.11-24.64,8.17,12.54,17.89,15.08,21.75,23.76,3.66,8.22,2.77,17.62-1.18,27.23,1.5,1.38,2.9,2.98,2.43,5.39,5.03-7.53,14.73-25.46,8.32-37.04-8.17-14.76-26.7-16.23-31.25-29.44-6.93,13.47-1.56,22.2-8.12,32.26Z"/>
      <path class="cls-1" d="m51.72,61.28c-2.4-1.25-6.03-1.92-8.78-1.33-1.08-3.03-1.69-5.75-1.92-8.25v-.02l.02-3.1c1.77-7.43,7.81-13.56,13.95-19.71-3.29,8.08-5.71,14.8-4.73,19.78-.62,4.05-.32,8.28,1.46,12.63Z"/>
      <path class="cls-1" d="m63.84,60.51c-1.83-.17-3.54.61-4.89,1.72-.57-3.16-.96-5.89-1.2-8.29v-.06l.03-1.31c.23-5.03,1.98-9.48,4.14-14.23-.64,5.48-1.31,10.16.59,12.91l.02.05h0c.07,2.98.47,6.05,1.31,9.21Z"/>
      <path class="cls-1" d="m34.73,67.43c-2.9-4.35-7.37-12.17-9.38-20.23-.99-11.74,7.33-19.01,12.95-22.14-5.51,6.24-4.8,14.46-4.61,21.93.13,4.86,1.36,9.93,3.48,15.06-1.5,1.36-2.91,2.97-2.44,5.38Z"/>
      <path class="cls-1" d="m65.78,65.14c2.19,0,4.34.96,5.7,2.89-.9-2.53-3.28-3.79-5.7-3.79s-4.81,1.26-5.7,3.79c1.37-1.93,3.51-2.89,5.7-2.89Z"/>
      <path class="cls-1" d="m79.85,61.28c2.4-1.25,6.02-1.92,8.78-1.33,1.08-3.03,1.69-5.75,1.92-8.25v-.02l-.02-3.1c-1.77-7.43-7.81-13.56-13.95-19.71,3.29,8.08,5.71,14.8,4.73,19.78.61,4.05.32,8.28-1.46,12.63Z"/>
      <path class="cls-1" d="m67.72,60.51c1.83-.17,3.54.61,4.89,1.72.57-3.16.96-5.89,1.2-8.29v-.06l-.03-1.31c-.23-5.03-1.98-9.48-4.14-14.23.64,5.48,1.31,10.16-.59,12.91l-.02.05h0c-.06,2.98-.47,6.05-1.31,9.21Z"/>
      <path class="cls-1" d="m96.83,67.43c2.9-4.35,7.37-12.17,9.38-20.23.99-11.74-7.33-19.01-12.95-22.14,5.51,6.24,4.8,14.46,4.61,21.93-.13,4.86-1.36,9.93-3.48,15.06,1.51,1.36,2.91,2.97,2.44,5.38Z"/>
    </g>
  </g>
</svg>