<?xml version="1.0" encoding="UTF-8"?>
<svg id="Layer_2" data-name="Layer 2" xmlns="http://www.w3.org/2000/svg" viewBox="0 0 180.44 183.6">
  <defs>
    <style>
      .cls-1 {
        fill: none;
        stroke: #000;
        stroke-miterlimit: 10;
        stroke-width: .75px;
      }
    </style>
  </defs>
  <g id="Layer_1-2" data-name="Layer 1">
    <g>
      <path class="cls-1" d="m.38,69.97c-.07,19.73,12.43,30.12,25.1,33.6,19.57,5.38,31.78,1.85,34.48,18.42,10.73-3.85,11.82-9.73,6.07-16.9,7.02,2.44,15.12,4.89,15.72,7.26,4.61-3.04,5.66-6.21,1.89-9.98,1.5.05,2.33.68,2.9,1.82,2.23-1.39,5.37-2.65,8.54-2.25-.29-2.6-2.04-4.65-5.23-6.18,7.96,1.89,14.17-3.78,21.05,3.24.13-5.87-6.61-11.07-6.07-16.19-51.95-1.49-71.28,6.87-75.98-1.89-1.02-2.17,6.45-1.07,13.22,2.3,6.34,2.16,10.59-2.63,7.7-7.16,9.85.74,13.29-8.1,4.99-12.41,6.34-1.01,7.22-10.46-3.77-9.45,6.27-2.29,4.52-10.46-2.84-9.58-9.04.87-18.15,3.92-21.18,9.17-6,10.39,8.03,9.17,4.38,14.91-1.47,2.32-9.92,4.18-10.59-5.06-.68-9.33,7.4-16.5,19.1-20.04,11.8-3.58,21.44-6.26,23.85-11.88.05,4.28,1.4,10.19,4.15,7.34,2.29-2.39-1.67-2.73-2.03-11.99,2.63,10.32,11.23,15.79,13.36,10.25,1.37-3.55-10.98-4.54-12.95-13.22,2.99,4.84,10.18,10.47,16.74,10.8,5.28.27,8.28-7.5,3.31-9.24-2.89-1.01-3.19,4.05-5.57,3.99-2.43-.05-7.34-1.81-11.24-6.63,5.57,3.42,12.21,4.83,15.08-.1,3.54-6.07-4.06-14.23-9.35-8.13-3.05,3.53,1.55,7.68,4.39,3.77,1.82,5.77-6.17,5.37-12.55,1.42-5.4-4.73-11.62-8.2-18.82-10.12C43.85,7.02,39.93-.8,29.2.54c8.66,5.1,12.68,9.92,12.15,14.91-6.26,2.28-11.83-2.58-17.2-8.1-.05,6.22,4.21,11.94,10.46,16.13.34,8.17-5.66,12.52-10.05,13.56C3.48,42.03.4,63.49.38,69.97ZM49.66,17.55l-1.15-.15s.66-.21,1.27-.21c.62,0,5.79,3.24,6.21,3.71.42.47.6,1.78.6,1.78-.46-.77-.83-1.21-.83-1.21,0,0-2.73,2.32-4.88.65-2.15-1.65-1.22-4.57-1.22-4.57Z"/>
      <path class="cls-1" d="m19.68,84.34c-3.3,1.35-4.66-8.91-4.66-8.91,0,0,7.96,7.56,4.66,8.91Z"/>
      <path class="cls-1" d="m12.64,86.56c-3.39,1.12-4.05-9.2-4.05-9.2,0,0,7.44,8.08,4.05,9.2Z"/>
      <path class="cls-1" d="m5.97,87.13c-2.31.18-2.13-8.98-2.13-8.98,0,0,4.44,8.79,2.13,8.98Z"/>
      <path class="cls-1" d="m26.29,82.01c-3.28,1.4-4.8-8.83-4.8-8.83,0,0,8.08,7.43,4.8,8.83Z"/>
      <path class="cls-1" d="m3.45,75.85c-3.56-.18-.45-10.04-.45-10.04,0,0,4.01,10.22.45,10.04Z"/>
      <path class="cls-1" d="m18.11,72.85c-3.55.35-1.92-9.86-1.92-9.86,0,0,5.47,9.51,1.92,9.86Z"/>
      <path class="cls-1" d="m11,74.89c-3.98.06-1.22-11.14-1.22-11.14,0,0,5.2,11.08,1.22,11.14Z"/>
      <path class="cls-1" d="m5,64.32c-3.77-1.25,2.51-10.92,2.51-10.92,0,0,1.26,12.17-2.51,10.92Z"/>
      <path class="cls-1" d="m12,61.6c-3.6-1.69,3.77-10.55,3.77-10.55,0,0-.17,12.23-3.77,10.55Z"/>
      <path class="cls-1" d="m11.11,50.15c-2.66-2.95,7.57-8.26,7.57-8.26,0,0-4.91,11.21-7.57,8.26Z"/>
      <path class="cls-1" d="m18.55,52.91c-2.33-3.22,8.41-7.4,8.41-7.4,0,0-6.07,10.61-8.41,7.4Z"/>
      <path class="cls-1" d="m23.05,84.95c6.54,8.77,1.28,8.97-4.39,2.16,3.85,2.19,5.48,1.67,4.39-2.16Z"/>
      <path class="cls-1" d="m33.08,86.42c5.83,4.67,2.71,7.7-3.78,5.13,4.78-.44,5.48-2.36,3.78-5.13Z"/>
      <path class="cls-1" d="m44.11,98.01c6.49,3.69,3.89,7.17-2.92,5.66,4.65-1.19,5.03-3.19,2.92-5.66Z"/>
      <path class="cls-1" d="m50.5,101.61c5.28,3.51,2.87,6.3-2.81,4.62,4.01-.73,4.45-2.4,2.81-4.62Z"/>
      <path class="cls-1" d="m49.64,91.49c6.78.15,6.64,6.54-.03,6.36,2.96-1.57,2.79-4.65.03-6.36Z"/>
      <path class="cls-1" d="m57.4,87.03c6.76-.64,7.35,5.73.7,6.33,2.77-1.91,2.24-4.96-.7-6.33Z"/>
      <path class="cls-1" d="m58.44,95.44c6.67,1.24,5.49,7.53-1.07,6.27,3.19-1.07,3.52-4.14,1.07-6.27Z"/>
      <path class="cls-1" d="m66.94,84.42c6.22-.61,6.79,5.25.67,5.83,2.55-1.77,2.05-4.57-.67-5.83Z"/>
      <path class="cls-1" d="m66.44,92.21c6.22-.61,6.79,5.25.67,5.83,2.54-1.77,2.04-4.57-.67-5.83Z"/>
      <path class="cls-1" d="m75.03,89.08c6.21.74,5.51,6.59-.6,5.83,2.86-1.18,2.98-4.02.6-5.83Z"/>
      <path class="cls-1" d="m82.54,94.51c6.03,1.63,4.49,7.32-1.44,5.68,3.01-.74,3.54-3.54,1.44-5.68Z"/>
      <path class="cls-1" d="m98.56,88.56c5.26.56,4.73,5.52-.45,4.94,2.42-1.02,2.49-3.43.45-4.94Z"/>
      <path class="cls-1" d="m80.65,86.02c5.79-2.35,8,3.11,2.29,5.4,1.95-2.42.68-4.97-2.29-5.4Z"/>
      <path class="cls-1" d="m88.79,89.68c5.01-.6,5.57,4.12.64,4.69,2.02-1.47,1.57-3.73-.64-4.69Z"/>
      <path class="cls-1" d="m93.77,84.84c4.76-1.69,6.34,2.8,1.65,4.44,1.66-1.88.73-3.98-1.65-4.44Z"/>
      <path class="cls-1" d="m87.66,84.28c4.72-1.8,6.4,2.65,1.76,4.4,1.6-1.92.62-4-1.76-4.4Z"/>
      <path class="cls-1" d="m73.45,98.16c5.98-1.82,7.69,3.81,1.8,5.58,2.15-2.23,1.12-4.88-1.8-5.58Z"/>
      <path class="cls-1" d="m66.3,100.36c6.08-1.46,7.45,4.27,1.46,5.68,2.28-2.1,1.41-4.8-1.46-5.68Z"/>
      <path class="cls-1" d="m56.67,103.81c6.29,2.55,3.88,8.47-2.3,5.94,3.34-.42,4.28-3.36,2.3-5.94Z"/>
      <path class="cls-1" d="m28.99,94.05c4.66,5.53.94,7.29-6.21,4.12,4.35.24,6.59-1.01,6.21-4.12Z"/>
      <path class="cls-1" d="m14.35,89.46c8.61,7.42,3.89,10.92-3.58,3.61,3.45,1.01,4.89.06,3.58-3.61Z"/>
      <path class="cls-1" d="m41.2,87.24c7.13.15,7.14,6-.68,5.76,3.26-1.1,3.26-4.44.68-5.76Z"/>
      <path class="cls-1" d="m35.67,94.58c6.98,1.48,5.9,7.23-1.74,5.53,3.41-.47,4.03-3.76,1.74-5.53Z"/>
      <path class="cls-1" d="m24.13,7.35c-.05,6.22,4.21,11.94,10.46,16.13,2.39,10.04,22.03,18.55,29.11,8.23.05,4.28,1.4,10.19,4.15,7.34,2.29-2.39-1.67-2.73-2.03-11.99,2.63,10.32,11.23,15.79,13.36,10.25,1.37-3.55-10.98-4.54-12.95-13.22,2.99,4.84,10.18,10.47,16.74,10.8,5.28.27,8.28-7.5,3.31-9.24-2.89-1.01-3.19,4.05-5.57,3.99-2.43-.05-7.34-1.81-11.24-6.63,5.57,3.42,12.21,4.83,15.08-.1,3.54-6.07-4.06-14.23-9.35-8.13-3.05,3.53,1.55,7.68,4.39,3.77,1.82,5.77-6.17,5.37-12.55,1.42-5.4-4.73-11.62-8.2-18.82-10.12C43.84,7.01,39.92-.81,29.19.53c8.66,5.1,12.68,9.92,12.15,14.91-6.27,2.28-11.83-2.58-17.21-8.09Zm25.53,10.2l-1.15-.15s.66-.21,1.27-.21c.62,0,5.79,3.24,6.21,3.71.42.47.6,1.78.6,1.78-.46-.77-.83-1.21-.83-1.21,0,0-2.73,2.32-4.88.65-2.15-1.65-1.22-4.57-1.22-4.57Z"/>
      <path class="cls-1" d="m65.29,33.35c.25,2.26,1.13,3.44,1.68,3.96.65.62-.23,1.24-.72.95-.57-.32-1.04-2.12-.96-4.91Zm3.83-2.04c2.56,2.12,4.85,3.26,7.52,4.75,1,.56.38,1.84-.61,1.84h-.01c-1.9,0-4.73-2.41-6.9-6.59Zm14.46-12.96c.47,3.07-1.52,6.54-6.2,5.61,4.25-.09,4.88-5.42,2.38-7.65-.64,2.5-2.72,2.4-3.51,1.33-.69-.92-.11-2.03.7-2.68,2.74-2.18,6.15.3,6.63,3.39Zm3.6,11.71c.44-1.62-1.39-3.85-2.76-1.61-.72,1.18-1.63,2.8-4.07,2.77-3.02-.04-7.89-1.9-11.42-6.1,3.38,4.03,7.75,8.25,13.95,8.17,2.09-.02,4-1.48,4.3-3.23Z"/>
      <path class="cls-1" d="m62.08,70.78c-1.17,4.16-3.58,7.31-6.88,9.72,11.23.51,27.59-1.7,26.72-5.67-.64-2.93-14.67-4.93-19.84-4.05Z"/>
      <path class="cls-1" d="m58.33,77.69c8.17.2,14.63-.78,17-1.83-2.26-1.19-8.1-2.79-13.55-3.13-.12-.01-.24-.01-.36-.02-.75,1.88-1.81,3.52-3.09,4.98Z"/>
      <path class="cls-1" d="m61.78,60c-.05,1.34-.54,2.52-2.23,3.8.73,1.51,1.16,2.92.74,4.01,8.62-.09,16.13,1.16,22.74,4.59,0,0,4.39-4.08,2.83-6.95-2.48-4.6-14.73-6.09-24.08-5.45Z"/>
      <path class="cls-1" d="m59.56,63.8c.31.63.55,1.25.72,1.83,7.37-.36,13.56.43,19.16,2.48.84-1.27,1.33-2.57,1.05-3-1.31-2.01-8.09-3.7-18.08-2.89-.48.04-.94.08-1.4.13-.34.48-.8.95-1.45,1.45Z"/>
      <path class="cls-1" d="m61.58,58.43c.12-2.02-1.52-4.82-3.54-5.97,2.7-1.21,25.27-3.54,30.33,4.62,2.17,3.51-2.19,6.41-2.19,6.41-6.7-4.75-15.25-5.78-24.6-5.06Z"/>
      <path class="cls-1" d="m60.36,54.71c.41.62.74,1.28.96,1.94.78-.1,1.54-.18,2.28-.24,7.76-.68,14.18.29,19.57,2.96.44-.65.74-1.48.2-2.2-2.09-2.81-8.45-4.04-16.99-3.28-2.28.19-4.33.5-6.02.82Z"/>
      <path class="cls-1" d="m57.02,50.33c.43-2.77-.89-5.1-3.88-6.88,9.35-4.06,27.36-2.73,31.61.71,3.06,2.48,2.66,5.21,2.02,8.4-8.71-3.07-18.89-3.3-29.75-2.23Z"/>
      <path class="cls-1" d="m55.23,45.03c.97.98,1.57,2.06,1.78,3.25,2.89-.39,5.6-.65,8.2-.79,6.39-.35,11.99.03,17.02,1.16-.01-1.47-.45-2.4-1.77-3.35-1.68-1.21-7.51-2.28-15-1.87-3.77.2-7.31.76-10.23,1.6Z"/>
      <path class="cls-1" d="m85.06,41.53c3.85,2.53,5.61,6.74,4.15,11.13,22.97,3.44,43.28,11.84,51.31,19.13-7.69-10.73-27.6-24.23-55.46-30.26Z"/>
      <path class="cls-1" d="m88.45,44.97s.02.05.02.07c.01.01.01.02.02.02.9,1.56,1.33,3.32,1.21,5.18,10.31,1.59,19.78,4,29.98,8.25-9.01-6.13-18.82-10.12-31.23-13.52Z"/>
      <path class="cls-1" d="m86.75,72.67c-.07,3.58-2.77,5.36-5.74,6.61,7.08,2.38,19.48,2.53,27.6-1.89-11.14-1.62-14.58-2.56-21.86-4.72Z"/>
      <path class="cls-1" d="m84.01,77.65c2.01.67,4.8.86,6.62.86,2.06,0,4.03-.42,5.93-.7-3.66-.71-7.02-1.62-10.4-2.61-.49,1-1.24,1.8-2.15,2.45Z"/>
      <path class="cls-1" d="m89.38,71.45c.47-1.8.93-4.54.64-7.15,26.28,2.63,57.79,13.83,59.11,26.72-8.95-9.38-31.35-15.79-59.75-19.57Z"/>
      <path class="cls-1" d="m89.82,69.3c19.64,1.13,34.62,6.28,42.07,9.13-8.86-5.82-25.63-10.06-41.8-11.58-.05.85-.15,1.68-.27,2.45Z"/>
      <path class="cls-1" d="m91,62.61c1.38-2.97,1.69-5.74.24-8.43,18.97,3.89,50.79,14.03,55.87,28.44-7.8-9.11-36.18-18.86-56.11-20.01Z"/>
      <path class="cls-1" d="m91.89,60.14c10.19.94,28.91,6.25,32.68,7.37-9.76-5.31-21.15-8.09-32.43-10.46.11,1.01.02,2.04-.25,3.09Z"/>
      <path class="cls-1" d="m126.25,81.51s9.86,2.61,11.44,3.85c3.74,2.93,12.57,17.42,7.08,20.34-4.65,2.47-16.54-19.08-18.52-24.19Z"/>
      <path class="cls-1" d="m138.01,97.32c2.34,3.31,4.53,5.8,5.8,6.16.13-.13.26-.37.31-.91.15-1.7-.7-4.23-1.94-6.77.15,3.24-1.46,3.35-4.17,1.52Z"/>
      <path class="cls-1" d="m121.29,80.59h-7.89c9.31,14.98,15.23,34.56,21.1,32.89,4.32-1.22-2.39-19.19-13.21-32.89Z"/>
      <path class="cls-1" d="m127.67,102.79c2.16,4.11,4.38,7.82,5.79,8.35.24-1.54-.67-5.14-2.58-9.73.03,2.7-1.12,3.01-3.21,1.38Z"/>
      <path class="cls-1" d="m110.77,81.71s-3.26-.27-3.98.14c-.72.4-1.28,1.59-1.28,1.59,0,0,15.65,34.44,17,34.61s2.56-7.19,1.28-11.84c-.68-2.49-13.02-24.5-13.02-24.5Z"/>
      <path class="cls-1" d="m117.44,103.44c1.74,3.61,3.27,6.75,4.46,9.03.13-1.8.08-3.91-.4-5.64-.16-.51-.9-2.02-2.01-4.14.06,1.7-.54,2.12-2.05.75Z"/>
      <path class="cls-1" d="m126.05,110.96c.71,6.68-1.32,15.59,2.02,23.38,1.85,4.3,8.6,16.06,14.27,13.22,7.41-3.71-.91-19.7-.91-19.7-4.75-9.72-10.42-11.54-15.38-16.9Z"/>
      <path class="cls-1" d="m131.29,135.55c2.47,4.74,6.54,10.07,9.23,10.07.27,0,.51-.06.76-.19.72-.36,1.19-.93,1.47-1.78,1.01-3.12-.7-8.45-2.18-12.01-1.04,5.71-4.08,7.12-9.28,3.91Z"/>
      <path class="cls-1" d="m136.68,102.49c1.79,6.75,2.16,14.71,4.86,20.78,3.23,7.28,6.48,17.14,15.59,15.62,8.58-1.43-6.38-23.82-20.45-36.4Z"/>
      <path class="cls-1" d="m146.63,128.82c2.34,4.77,4.76,7.85,8.66,7.85h.02c1.28-.18,2.16-1.43,1.9-2.7-.27-1.29-.96-2.97-1.98-4.91-.55-1.03-1.18-2.13-1.9-3.29-.49,4.7-2.74,5.67-6.7,3.05Z"/>
      <path class="cls-1" d="m133.84,146.48s2.56,11.71,3.54,15.49,12.52,23.58,18.42,20.14c8.04-4.68-7.68-22.96-9.14-25.1-2.7-3.95-12.82-10.53-12.82-10.53Z"/>
      <path class="cls-1" d="m145.14,171.18c3.19,4.61,6.98,8.95,9.16,8.95.15,0,.24-.04.3-.08.6-.34.9-.78,1.03-1.44.43-2.19-.93-5.76-4.03-10.66.53,5.26-1.86,5.97-6.46,3.23Z"/>
      <path class="cls-1" d="m145.99,135.69c1.01,7.97,3.31,16.75,6.48,26.08,0,0,12.25,27.56,21.05,20.21,8.8-7.36-11.84-34.07-11.84-34.07-3.85-4.06-9.61-8.14-15.69-12.22Z"/>
      <path class="cls-1" d="m159.27,169.63c3.61,5.97,7.91,11.22,11.02,11.22.6,0,1.13-.22,1.71-.7,2.78-2.32,1-8.67-2.53-15.62-.14,7.81-4.01,8.61-10.2,5.1Z"/>
      <path class="cls-1" d="m159.89,130.42c.91,6.6,1.89,13.02,4.59,17.81.52.93,7.49,17.68,13.36,13.23,6.49-4.92-3.24-22.13-3.24-22.13-5.26-.93-10.16-3.93-14.71-8.91Z"/>
      <path class="cls-1" d="m169.15,152.27c3.92,7.14,6.13,7.56,6.59,7.56.13,0,.34-.03.66-.27,1.93-1.47,1.47-5.64.04-10.09-.77,4.71-3.31,5.4-7.29,2.8Z"/>
      <path class="cls-1" d="m97.2,97.5c2.19,1.52,3.34,3,3.85,6.27,1.76,16.7-.26,29.85-6.48,39.07,0,0-2.4.07-5.16-.56-2.77-.62-5.5-5.47-7.09-3.64-1.45,1.67,1.86,2.99,3.88,3.79-3.51-.47-9.81-.7-8.91,3.78.32.98.47,2.85,2.7,2.29,2.23-.56,2.5-3.59,4.18-4.05,1.69-.46,5.97,1.19,10.66.67-3.05,4.03-12.68,2.56-13.49,6.48-.2.95,1.28,4.28,6.21.4,2.35-1.85,4.02-1.75,6.88-3.24,2.87-1.49,7.24-2.23,9.14-2.24s10.3,1.89,10.96,4.67c.47-3.91-2.8-5.94-4.49-6.44-2.73-.71-6.71-.57-7.25-2.6-.54-2.02.18-7.81,0-12.21,2.97.47,6.48.67,8.91-.67-4.05-.68-7.73-.1-6.41-10.93.33-2.71.61-11.54,1.21-13.66.61-2.12,3.04-5.09,3.04-5.09-1.76-3.21-8.74-4.12-12.34-2.09Z"/>
      <path class="cls-1" d="m79.12,151.48c-.04,3.09,1.09,4,3.2,4.22-3.02.4-4.05-.24-4.25,3.85-1.16-3.16-.89-5.65,1.05-8.07Z"/>
      <path class="cls-1" d="m76.66,148.2c-1.92-1.8-1.86-3.24-.41-5.3-2.38,1.11-4.02,3.1-4.05,6.11,1.52-2.26,2.03-1.63,4.46-.81Z"/>
      <path class="cls-1" d="m80.43,140.01c.11-.87.52-1.65,1.21-2.33-1.61-.09-2.95.57-4.08,1.86,1.11.02,2.16.1,2.87.47Z"/>
      <path class="cls-1" d="m57.46,146.95c-5.06,1.85-10.86,6.41-13.39,9.45-7.14,8.57-10.22,1.55-10.22,1.55,6.65-2.15,12.59-6.26,17.95-12.01,0,0-10.89,3.31-15.38,6.88-7.89,6.27-7.96-2.83-7.96-2.83,20.84,1.19,38.6-17.8,58.2-41.29,1.5-1.59-.2-3.61,3.51-4.89,4.04-1.4,5.44,4.94,3.88,7.19-2.26,3.25-8.54,3.04-24.9,23.01-.57,1.5,2.4,3.21,4.62,4.56-3.14-.81-7.59-1.86-10.36.54-2.38,2.06-3.81,5.25-4.15,6.07,3.72.51,6.67.76,8,2.06,1.09,1.56.49,2.8-2.23,3.64-1.65-2.55-4.97-3.79-7.57-3.93Z"/>
      <path class="cls-1" d="m69.14,147.7s-.2,2.26-1.82,3.37c1.13,0,4.72.27,4.72.27l-2.9-3.64Z"/>
      <path class="cls-1" d="m32.76,158.78c.38,1.87,2.1,2.81,4.23,3.19-3.06.51-4.15,2.6-4.28,6.24-2.17-4.62-1.6-7.31.05-9.43Z"/>
      <path class="cls-1" d="m26.66,149.82c-.11,1.84.21,3.58,1.21,5.16-1.54-.78-2.96.01-4.35,1.11.44-2.12,1.48-4.21,3.14-6.27Z"/>
      <path class="cls-1" d="m33.98,147.66c-1.05-1.01-1.01-3.48,1.11-3.74,2.13-.27,3.16,1.65,6.11,1.42-1.8,1.83-6.16,3.35-7.22,2.32Z"/>
      <path class="cls-1" d="m32.5,144c-.56.68-.47,1.86-.28,3.14-1.04-1.09-1.91-1.58-3.08-1.72.81-.62,1.92-1.1,3.36-1.42Z"/>
      <path class="cls-1" d="m30.81,6.21c2.68,2.12,5.21,6.33,6.33,7.29.53.46,2.07,1.77,3.09,1.22,1.31-.74-2.64-8.92-9.42-8.51Z"/>
      <path class="cls-1" d="m52.64,21.94c.94,0,1.86-.53,2.31-.84-1.03-.72-3.43-2.2-4.64-2.83-.13.76-.19,2.28,1.05,3.24.38.28.79.43,1.28.43Z"/>
      <path class="cls-1" d="m105.5,83.43l11.14,15.86-5.87-17.56h-.01s-3.26-.28-3.98.12c-.71.39-1.28,1.58-1.28,1.58Z"/>
      <path class="cls-1" d="m113.4,80.6c5.6,7.94,11.17,15.81,14.85,19.15-.71-5.71-3.65-12.35-6.95-19.15h-7.9Z"/>
      <path class="cls-1" d="m126.26,81.51c.07.17.15.37.24.59,4.33,5.29,8.28,9.51,12.48,12.06-.07-3.09-.36-5.8-1.51-8.94-2.12-1.3-11.21-3.71-11.21-3.71Z"/>
      <path class="cls-1" d="m135.66,132.41c2.46-7.26-3.74-14.42-9.62-21.45,1.52,9.24,3.45,17.4,9.62,21.45Z"/>
      <path class="cls-1" d="m148.82,124.41c-6.63-2.29-9.44-11.87-12.15-21.92,6.46,7.57,13.02,15.14,12.15,21.92Z"/>
      <path class="cls-1" d="m148.82,100.06c9.64,2.37,26.71,27.71,22.81,36.17-9.31-.14-24.84-26.45-22.81-36.17Z"/>
      <path class="cls-1" d="m168.2,132.04c.59.31,1.3-.14,1.28-.81-.08-2.2-1.32-6.35-2.12-7.96-.1-.21-.21-.42-.33-.62-.33,2.12-3.47,4.15-5.53,3.56.13.19.27.38.41.56,1.1,1.43,4.35,4.26,6.29,5.27Z"/>
      <path class="cls-1" d="m148.82,100.06c7.78,7.87,13.16,15.19,13.33,21.02-5.18-2.68-9.6-10.6-13.33-21.02Z"/>
      <path class="cls-1" d="m159.89,130.42c3.4,7.87,6.9,15.48,12.01,18.72,1.66-3.08,2.48-6.37,2.7-9.82-5.26-.92-10.15-3.93-14.71-8.9Z"/>
      <path class="cls-1" d="m163.19,164.86c-9.72-4.32-13.36-16.67-17.21-29.18,10.21,9.3,18.95,18.66,17.21,29.18Z"/>
      <path class="cls-1" d="m146.86,167.09c-.41-8.77-6.61-14.37-13.02-20.61,3.44,9.08,5.67,18.25,13.02,20.61Z"/>
    </g>
  </g>
</svg>