<?xml version="1.0" encoding="UTF-8"?>
<svg id="Layer_2" data-name="Layer 2" xmlns="http://www.w3.org/2000/svg" viewBox="0 0 165.31 155.12">
  <defs>
    <style>
      .cls-1 {
        fill: none;
        stroke: #000;
        stroke-miterlimit: 10;
        stroke-width: .75px;
      }
    </style>
  </defs>
  <g id="Layer_1-2" data-name="Layer 1">
    <g>
      <path class="cls-1" d="m70.5,61.61c-4.5-9.54-11.91-17.04-19.07-24.29-8.96-9.07-17.43-17.64-17.58-28.46v-.95s.69.65.69.65c4.39,4.14,8.35,6.64,12.18,9.05,10.21,6.44,18.27,11.52,24.55,43.75l.62,3.18-1.39-2.93Zm.24,19.71c-10.8-14.81-21.92-16.78-33.7-18.85-4.63-.82-9.41-1.65-14.31-3.29-8-2.68-13.24-7.52-15.58-14.39-2.65-7.79-.57-15.62.74-17.57l.48-.7.25.81c3.09,9.97,11.43,16.52,28.79,22.59,9.25,3.23,25.97,11.56,34.03,31.02l1.3,3.14-2-2.76Zm9.83,43.02c-4.29-26.82-18.61-38.77-41.58-35.52-6.96.98-11.74,3.87-14.19,8.59-2.94,5.67-1.62,12.49-.1,15.45l.45.88-.94-.32c-5.97-1.99-10.05-9.45-9.51-17.36.63-9.19,7.03-15.8,17.12-17.69,13.2-2.48,24.27.08,32.92,7.57,13.92,12.88,16.44,30.22,16.44,42.33l-.61-3.93Z"/>
      <path class="cls-1" d="m45.85,18.98c-3.07-1.94-6.48-4.09-10.11-7.17,1.46,8.8,8.65,16.08,16.85,24.38,5.46,5.52,11.05,11.18,15.45,17.81-5.83-24.7-12.83-29.11-22.19-35.02Z"/>
      <path class="cls-1" d="m32.14,79.97c-9.33,1.75-15.24,7.81-15.81,16.22-.41,5.94,1.99,11.58,5.8,14.36-1.01-3.78-1.22-9.13,1.24-13.88,2.7-5.21,7.88-8.39,15.4-9.45,12.4-2.1,26.85,2.38,33.97,11.72-4.88-11.18-17.82-20.08-31.19-19.89-2.99,0-6.15.31-9.41.92Z"/>
      <path class="cls-1" d="m36.88,51.43c-16.13-5.64-24.74-11.76-28.67-20.62-.81,3.16-1.25,8.34.49,13.45,2.16,6.36,7.06,10.86,14.55,13.37,4.79,1.6,9.51,2.43,14.08,3.24,9.58,1.69,18.73,3.3,27.67,11.49-8.48-12.44-20.74-18.35-28.12-20.93Z"/>
      <path class="cls-1" d="m82.65,28.59c-2.26.01-4.55-2.34-6.83-5.22,1.49,13.81,1.78,27.86,1.03,42.11-2.48-16.2-4.38-29.54-12.39-40.98C54.22,9.86,34.94,8.7,32.05,1.28c-3.19,14.24,2.27,32.1,18.27,43.97,17.74,13.16,24.78,28.28,26.33,39.84-4.75-13.01-12.43-27.17-26.02-35.64-17.3-10.8-35.37-10.32-40.26-28.77-14.93,9.36-13.36,32.28,6.2,42.22,18.27,9.29,50.16,0,60.08,34.78-16.93-30.96-46.33-30.56-58.81-19.79-11.38,9.81-13.58,39.27,14.22,38.17-8.25-17.21,10.09-24.13,20.48-21.77,38.74,8.82,23.84,55.93,30.13,60.37,6.23-4.48-8.6-51.54,30.11-60.37,10.38-2.36,28.73,4.56,20.48,21.77,27.8,1.1,25.6-28.36,14.22-38.17-12.48-10.77-41.88-11.17-58.82,19.79,9.91-34.78,41.81-25.5,60.08-34.78,19.55-9.94,21.13-32.86,6.2-42.22-4.88,18.45-22.95,17.97-40.26,28.77-13.59,8.47-21.27,22.63-26.02,35.64,1.55-11.56,8.59-26.68,26.33-39.84,16-11.87,21.46-29.73,18.27-43.97-2.89,7.43-22.17,8.58-32.41,23.22-8.01,11.43-9.91,24.77-12.39,40.98-.75-14.26-.46-28.31,1.03-42.11-2.29,2.88-4.58,5.23-6.84,5.22Zm11.2,52.33c8.06-19.46,24.78-27.78,34.03-31.02,17.36-6.07,25.7-12.62,28.79-22.59l.25-.81.48.7c1.31,1.95,3.39,9.78.74,17.57-2.33,6.87-7.57,11.71-15.58,14.39-4.9,1.64-9.68,2.48-14.31,3.29-11.78,2.08-22.9,4.04-33.7,18.85l-2,2.75,1.3-3.13Zm.18-19.56c6.28-32.22,14.35-37.3,24.55-43.75,3.83-2.42,7.78-4.92,12.18-9.05l.7-.65-.02.95c-.15,10.82-8.61,19.39-17.58,28.46-7.17,7.25-14.57,14.75-19.07,24.29l-1.38,2.93.62-3.18Zm6.51,24.59c8.64-7.5,19.72-10.05,32.92-7.57,10.1,1.89,16.5,8.5,17.12,17.69.54,7.91-3.54,15.37-9.51,17.36l-.94.32.45-.88c1.52-2.97,2.84-9.79-.1-15.46-2.45-4.72-7.23-7.61-14.19-8.59-22.97-3.25-37.29,8.7-41.58,35.52l-.63,3.94c.01-12.1,2.54-29.45,16.46-42.33Z"/>
      <path class="cls-1" d="m129.56,11.81c-3.64,3.09-7.05,5.24-10.11,7.17-9.37,5.91-16.36,10.32-22.19,35.02,4.4-6.63,10-12.29,15.45-17.81,8.2-8.3,15.4-15.58,16.85-24.38Z"/>
      <path class="cls-1" d="m126.53,87.21c7.52,1.06,12.7,4.24,15.4,9.45,2.46,4.75,2.24,10.1,1.24,13.88,3.82-2.78,6.21-8.42,5.8-14.36-.58-8.41-6.49-14.47-15.81-16.21-3.26-.61-6.42-.92-9.4-.92-13.37-.2-26.31,8.7-31.19,19.89,7.11-9.35,21.56-13.83,33.96-11.73Z"/>
      <path class="cls-1" d="m142.04,57.64c7.49-2.51,12.39-7.01,14.55-13.37,1.74-5.11,1.3-10.29.49-13.45-3.93,8.86-12.54,14.98-28.67,20.62-7.38,2.58-19.63,8.48-28.12,20.93,8.94-8.19,18.1-9.81,27.67-11.49,4.57-.81,9.3-1.64,14.08-3.24Z"/>
    </g>
  </g>
</svg>