<?xml version="1.0" encoding="UTF-8"?>
<svg id="Layer_2" data-name="Layer 2" xmlns="http://www.w3.org/2000/svg" viewBox="0 0 100.95 133.47">
  <defs>
    <style>
      .cls-1 {
        fill: none;
        stroke: #000;
        stroke-miterlimit: 10;
        stroke-width: .75px;
      }
    </style>
  </defs>
  <g id="Layer_1-2" data-name="Layer 1">
    <g>
      <path class="cls-1" d="m18.19,77.97c-4.88,7.44-9.44,16.89-7.46,33.09,0,0-7.15-17.69-6.91-27.56,0-.35.03-.71.05-1.06h0c.93-13.24,12.8-22.42,6.92-26.68-3.48-2.53-6.69-.69-8.8,5.38-3.16-5.68-1.57-17.29,3.67-19.31,10.95-4.21,21.39,4.82,21.91,15.82.35,7.79-4.66,13.11-9.38,20.32Z"/>
      <path class="cls-1" d="m50.09,71.13c-.09.08-.17.16-.26.24-19.92,4.6-27.55,25.6-28.79,45.48l-7.61-2.83h0c-.13-12.07,3.76-21.12,8.15-28.82,0,0,0-.02.02-.04,5.68-9.96,12.2-17.68,11.9-26.81-.36-11.18-20.84-19.99-24.56-29.72C3.4,14.14,13.26-10.18,30.62,5.39c-16.21,10.32-5.14,20.13,6.85,29.57,8.45,6.66,16.86,12.51,17.37,23.02.37,7.54-.53,9.24-4.75,13.15Z"/>
      <path class="cls-1" d="m81.47,88.28c-16.99-1.69-29.22,1.17-37.09,8.64-6.2,5.9-9.7,14.65-10.69,26.29l-9.74-4.87c.14-8.67,1.98-16.62,4.93-23.35,5.71-13.07,15.55-21.54,25.02-21.7,6.23-.11,17.38.85,23.67-.32,10.27-1.73,13.35-3.82,15.93-13.52,12.63,11.99,8.18,24.94-12.03,28.83Z"/>
      <path class="cls-1" d="m90.73,115.16c-.74,7.47-11.82,17.2-22.24,7.51,13.79-4.11,1.31-23.81-11.54-18.44-2.64,1.1-4.46,3.13-5.77,5.45-.16.27-.3.55-.45.83-3.97,7.76-4.01,19.15-3.84,22.01,0,.06,0,.13,0,.18l-10.58-8.02c.54-11.79,5.23-19.12,10.62-25.5,6.71-7.93,16.1-11.84,27.19-9.21,11.97,2.83,17.53,15.74,16.6,25.19Z"/>
      <path class="cls-1" d="m76.11,99.75c-9.8-1.52-21.14,1.06-25.38,10.77-3.97,7.76-4.01,19.15-3.84,22.01,0,.06,0,.13,0,.18l-10.58-8.02c.54-11.79,5.23-19.12,10.62-25.5,9.34-6.91,22.19-5.81,29.17.56Z"/>
      <path class="cls-1" d="m50.09,71.13c-.09.08-.17.16-.26.24-19.92,4.6-27.55,25.6-28.79,45.48l-7.61-2.84c-.13-12.06,3.76-21.11,8.15-28.81,0,0,0-.02.02-.04,5.15-7.52,33.72-18.29,1.24-50.57,12.45,3.31,30.09,12.98,27.25,36.54Z"/>
      <path class="cls-1" d="m18.19,77.97c-4.88,7.44-9.44,16.89-7.46,33.09,0,0-7.15-17.69-6.91-27.56,0-.35.03-.71.05-1.06h0c2.17-8.45,15.13-8.07,10.59-32.56,6.71,5.55,7.48,16.69,3.73,28.09Z"/>
      <path class="cls-1" d="m82.74,80.59c-20.5,2.65-32.52,7.26-38.36,16.33-6.2,5.9-9.7,14.65-10.69,26.29l-9.74-4.87c.14-8.67,1.98-16.62,4.93-23.35,11.98-19.92,33.61-14.79,53.86-14.4Z"/>
    </g>
  </g>
</svg>