<?xml version="1.0" encoding="UTF-8"?>
<svg id="Layer_2" data-name="Layer 2" xmlns="http://www.w3.org/2000/svg" viewBox="0 0 36.9 59.67">
  <defs>
    <style>
      .cls-1 {
        fill: none;
        stroke: #000;
        stroke-miterlimit: 10;
        stroke-width: .75px;
      }
    </style>
  </defs>
  <g id="Layer_1-2" data-name="Layer 1">
    <g>
      <path class="cls-1" d="m18.44,56.77c.77-5.53,5.76-7.32,5.76-14.77,0-5.74-3.27-7.11-3.27-14.51,6.1,11.38,10.38,9.02,13.79,2.38-8.04-2-15.26-5.19-15.28-12.98,0,0,4.85,5.54,10.4,5.62,5.9.09,9.02-9.23,4.6-13.4.58,2.15.8,5.02.19,6.32-.47-3.51-1.65-6.42-3.38-8.87.94,3.79,1.18,6.95-1.02,7.92-.11-5.92-2.24-9.82-6.51-11.62,3.1,3.54,4.19,6.59,2.09,10.51-.28-3.85-1.13-6.57-2.85-7.96.28,2.36-.01,4.54-1.79,6.26.89-3.51-1.57-7.79-2.72-10.66-1.15,2.87-3.62,7.15-2.72,10.66-1.77-1.71-2.07-3.89-1.79-6.26-1.72,1.39-2.57,4.11-2.85,7.96-2.1-3.92-1.01-6.97,2.09-10.51-4.27,1.79-6.4,5.7-6.51,11.62-2.21-.97-1.96-4.13-1.02-7.92-1.74,2.45-2.91,5.36-3.38,8.87-.6-1.3-.39-4.17.19-6.32-4.43,4.17-1.3,13.49,4.6,13.4,5.55-.08,10.4-5.62,10.4-5.62-.02,7.79-7.25,10.98-15.28,12.98,3.4,6.64,7.68,9,13.79-2.38,0,7.4-3.27,8.77-3.27,14.51-.03,7.45,5.07,9.24,5.74,14.77Z"/>
      <path d="m32.58,15.21c-.13,1.36.22,3.82-2.71,5.3,1.35,0,2.42-.76,3.18-1.74,0,0-.45-3.4-.47-3.56"/>
      <path d="m27.29,18.29c-.11.29-.24.54-.37.77-.07-.03-.13-.07-.19-.1.17-.19.37-.41.56-.67m.86-5.24c-.31,4.9-2.76,5.99-2.76,5.99.66.39.89.6,1.79.93.94-1.1,1.94-4.04.97-6.92"/>
      <path d="m23.09,16.16c0,.19.01.39.01.59-.07-.05-.14-.11-.21-.16.07-.15.14-.29.2-.43m.54-4.34c-.62,2.05-.75,3.3-1.68,4.92.61.62,1.28,1.02,1.92,1.32-.02-1.8-.06-5.09-.24-6.24"/>
      <path d="m18.44,4.34s-1.51,8.73,0,11.94c1.51-3.21,0-11.94,0-11.94"/>
      <path d="m4.29,15.21c-.02.16-.47,3.56-.47,3.56.76.98,1.83,1.74,3.18,1.74-2.93-1.48-2.58-3.93-2.71-5.3"/>
      <path d="m9.58,18.29c.19.27.38.49.56.67-.06.03-.12.06-.19.1-.13-.23-.26-.49-.37-.77m-.86-5.24c-.97,2.88.03,5.82.97,6.92.89-.34,1.13-.54,1.79-.93-.01,0-2.45-1.09-2.76-5.99"/>
      <path d="m13.78,16.16c.06.14.13.28.2.43-.07.06-.14.11-.21.16,0-.21.01-.4.01-.59m-.54-4.34c-.17,1.15-.22,4.43-.23,6.24.64-.3,1.31-.7,1.92-1.32-.95-1.62-1.07-2.87-1.69-4.92"/>
    </g>
  </g>
</svg>