<?xml version="1.0" encoding="UTF-8"?>
<svg id="Layer_2" data-name="Layer 2" xmlns="http://www.w3.org/2000/svg" viewBox="0 0 55.56 71.21">
  <defs>
    <style>
      .cls-1 {
        fill: none;
        stroke: #000;
        stroke-miterlimit: 10;
        stroke-width: .75px;
      }
    </style>
  </defs>
  <g id="Layer_1-2" data-name="Layer 1">
    <g>
      <path class="cls-1" d="m11.41,25.71c.49,1.06,1.17,2.14,2.05,3.22-3.06,1.2-3.38,4.86-1.19,9.27-3.79-1.02-5.73-2.69-5.92-4.97-2.06,4.02-3.45,2.51-5.72,4.92-.31-2.13.51-4.96,1.98-7.73C.26,28.26.05,26.07.67,23.88c3.74,5.09,8.03.31,10.74,1.83Z"/>
      <path class="cls-1" d="m29.14,15.9c-4.27,1.27-1.95-3.65,2.12-4.76,1.05,3.72.31,8.12-2.12,4.76Z"/>
      <path class="cls-1" d="m28.69,17.2c2.14,3.39,1.34,5.93-1.59,8.21-2.56-3.62-1.72-6.13,1.59-8.21Z"/>
      <path class="cls-1" d="m17.36,14.87c4.33,1.06,1.77-3.74-2.35-4.65-.86,3.76.09,8.12,2.35,4.65Z"/>
      <path class="cls-1" d="m17.77,16.28c3,2.66,2.96,5.31.78,8.32-3.47-2.75-3.38-5.4-.78-8.32Z"/>
      <path class="cls-1" d="m44.24,27.06l-7.14,2.14c2.61.94,2.58,3.26,1.29,6.24,3.43-2.03,5.71-4.65,5.85-8.38Z"/>
      <path class="cls-1" d="m42.74,22.32l7.33-2.63c-2.73-2.29-5.97-2.52-9.7-.77,1.49.78,2.58,1.76,2.37,3.4Z"/>
      <path class="cls-1" d="m23.31,68.43c.41-4.71,1.25-13.76,3.39-20.8,5.02-5.43,6.34-12.16,2.06-16.46,5.89-3.45,19.7-5.66,24.55-7.12,2.73-.52,2.46-4.94-.73-4.28-5.12,2.29-12.7,5.61-19.89,6.93,4.21-5.1,6.53-18.32,13.79-17.61-3.11-2.42-6.01-2.48-8.68-.09-1.13-1.88-2.73-3.16-4.9-3.68-.83,2.02-.66,4.21.01,6.46.49,7.26-1.12,13.89-6.56,15.04-3.58-4.65-2.34-8.53.48-14.92,1.27-2.58,2.21-4.84,4.85-6.42-2.19-.67-4.19-.33-5.71.7,0,0-1.01-4.68-2.56-5.7-2.24,2.16-2.85,5.47-2.85,5.47-2.13-.33-3.89-.61-5.38.68,0,0,2.4.92,5.08,5.15,1.77,2.81,2.41,9.01-1.65,14.89-5.59-6.38-7.66-13.23-5.12-20.32-2.5.92-4.21,2.59-5.85,4.73-1.6-.57-3.38-.07-5.89.51,10.25,4.66,11.16,21.36,19.77,19.61-3.89,4.35-4.93,9.18.32,16.52.28,6.67-2.28,13.86-3.73,19.82-.35,1.46.56,2.92,2.03,3.23,1.54.34,3.03-.76,3.17-2.34Z"/>
    </g>
  </g>
</svg>