<?xml version="1.0" encoding="UTF-8"?>
<svg id="Layer_2" data-name="Layer 2" xmlns="http://www.w3.org/2000/svg" viewBox="0 0 43.06 40.96">
  <defs>
    <style>
      .cls-1 {
        stroke-miterlimit: 10;
        stroke-width: .75px;
      }

      .cls-1, .cls-2 {
        fill: none;
        stroke: #000;
      }

      .cls-2 {
        stroke-miterlimit: 10;
        stroke-width: .75px;
      }
    </style>
  </defs>
  <g id="Layer_1-2" data-name="Layer 1">
    <g>
      <circle class="cls-1" cx="33.58" cy="31.12" r="9.11" transform="translate(-2.45 2.88) rotate(-4.73)"/>
      <polygon class="cls-2" points="18.93 24.77 17.99 22.42 11.29 20.13 6.88 27.36 13.99 30.59 18.93 24.77"/>
      <path class="cls-2" d="m25.05,23.22l-5.59-2.25,2.9-12.08,7.36,4.41.09,6.66c-1.88.19-3.4,1.46-4.76,3.26Z"/>
      <path class="cls-2" d="m8.47,19.78l-5.91,10.67c-1.39-2.76-2.39-6.07-1.85-8.79,2.05-1.15,4.75-1.66,7.76-1.88Z"/>
      <polygon class="cls-2" points="8.29 7.69 8.47 17.35 17.99 20.39 19.99 8.96 8.29 7.69"/>
      <path class="cls-2" d="m18.82.73c-3.08.39-5.36,2.15-7.17,4.67l8.11.97-.94-5.64Z"/>
      <path class="cls-2" d="m21.34.46l.71,5.73,7.11,4.41.47-7.67C27.65,1.11,24.77.07,21.34.46Z"/>
      <path class="cls-2" d="m31.79,4.08l-.51,7,6.58,5.17c1.12-2.02.72-4.94.06-8.47-1.87-1.56-3.96-2.97-6.13-3.7Z"/>
      <path class="cls-2" d="m31.71,13.96l.22,5.82c1.82.01,3.61.13,5.51,1.15.23-.78.23-1.67.04-2.65l-5.77-4.32Z"/>
      <path class="cls-2" d="m6.53,29.48c3.02,2.35,9.17,4.17,9.17,4.17,0,0-2.76,3.16-3.82,4.94-3.29-1.79-5.68-5-5.35-9.11Z"/>
      <path class="cls-2" d="m18.17,33.93l-4,5.42c3.65,1.45,7.47,1.85,11.23-.04-1.68-1.02-2.66-2.52-3-4.45l-4.23-.93Z"/>
      <path class="cls-2" d="m20.7,23.42l.47,2.18-5.29,5.94,6.26.94c-.37-2.49-.31-5.22,1.85-7.67l-3.29-1.39Z"/>
      <path class="cls-2" d="m6,10.02v7.41l-5.53.59c.8-4.07,2.48-6.95,5.53-8Z"/>
    </g>
  </g>
</svg>