<?xml version="1.0" encoding="UTF-8"?>
<svg id="Layer_2" data-name="Layer 2" xmlns="http://www.w3.org/2000/svg" viewBox="0 0 105.13 80.55">
  <defs>
    <style>
      .cls-1 {
        fill: none;
        stroke: #000;
        stroke-miterlimit: 10;
        stroke-width: .75px;
      }
    </style>
  </defs>
  <g id="Layer_1-2" data-name="Layer 1">
    <g>
      <path class="cls-1" d="m68.96,47.77c5.44,4.07,2.94,10.12,8.84,18.04-1.99,1.47-3.36.86-5.32-3.08-.21,1.19-.62,2.28-1.29,3.23,4.66,4.97,7.9,3.7,9.62-1.28-5.01-1.86-5.38-16.69-11.85-16.91Z"/>
      <path class="cls-1" d="m70.01,67.21c-.54.93-.92,1.26-1.67,1.7.88,1.12.93,3.94-.58,6.28-.86-2.24-1.95-3.5-3.1-3.82-.45.8-1.18,1.44-2.21,1.92,2.16.84,3.12,3.34,1.43,6.7,7.42-1.87,7.89-9.98,6.13-12.78Z"/>
      <path class="cls-1" d="m34.31,54.94c-.28,4.07.48,6.47,2.69,7.21-4.22,1.68-8.73,2.57-8.42,16.27-6.79-5.27-9.61-14.23-9.08-25.73,3.14.9,6.96,1.5,9.86.56-3.85,4.01-4.56,8.65-2.58,13.51.93-4.38,3.48-8.45,7.53-11.82Z"/>
      <path class="cls-1" d="m18.59,55.8c-2.95.85-5.92.37-8.82-1.75,1.66-1.2,3.67-1.76,6.51-1-1.82-2.89-5.22-3.85-8.09-3.1-2.44.64-3.97,2.9-7.18,5.55,3.57.11,7.28,3.63,11.49,4.38,3.27.58,6.02-1.24,6.09-4.08Z"/>
      <path class="cls-1" d="m74.97,48.96c5.37,2.06,3.94,8.76,7.84,14.72-6.88-4.26-4.16-10.15-7.84-14.72Z"/>
      <path class="cls-1" d="m40.72,13.98c-1.62-1.15-3.38-1.73-5.28-1.85,1.51-6.81,5.49-10.95,12.09-11.68-3.14,6.75,2.91,11.94-1.1,20.61-1.26-4.69-3.38-8.35-3.28-14.11-1.45,1.11-2.39,3.19-2.43,7.03Z"/>
      <path class="cls-1" d="m31.46,9.75c-2.37.29-4.28-.15-5.52-1.63-.93,1.76-.5,3.37.42,4.93-1.55-.16-3.41,1.08-4.75,1.85-.42-4.93,1.24-9.7,5.45-11.74-1.07,1.96,1.42,4.26,4.4,6.59Z"/>
      <path class="cls-1" d="m80.71,38.07c4.33.08,6.63-4.21,10.04-7.64,3.61-3.63,7.36-6.45,10.84-5.75-3.9-7.82-12.29-6.03-15.43.21,3.49-1.86,6.67-2.42,9.54-1.65-10.68,3.7-8.37,10.39-14.99,14.83Z"/>
      <path class="cls-1" d="m84.53,18.12c3.13-2.72,3.88-8.74,3.35-10.45,5.17,2.75,5.51,9.49.23,12.71,1.15-2.04,1.76-3.91,1.12-5.46-1.05,2.59-2.95,3.16-4.7,3.2Z"/>
      <path class="cls-1" d="m48.8,10.41c.44-3.78,5.74-7.02,3.65-9.42,6.27-1.86,6.05,4.39,4.67,6.69-.02-2.11-.46-3.65-1.72-4.06-2.04,2.09-2.44,4.35-2.54,6.08-1.04-.14-2.84.18-4.06.71Z"/>
      <path class="cls-1" d="m104.67,72.03l-3.36,1.16c-4.63-16.89-17.92-27.85-36.11-30.55-.89-.26-1.75-.39-2.54-.33-.14,0-.28.03-.43.04-5.1.79-3.34,5.03-4.96,6.15-1.54,1.07-4.37-.83-3.98-3.44.38-2.61,1.48-4.08,5.05-4.71-.7-.71-1.6-1.65-5.43-1.74-3.83-.1-4.33,4-6.08,3.44-1.75-.54-1.86-2.62.03-4.11-2.6.34-6.41,1.52-6.88-1.5-.37-2.43,2.35-4.32,8.94-.41-3.91-2.67-5.71-9.16-2.6-9.49,5.35-.57-2.01,7.08,14.4,10.44-2.35-2.87-4.38-8.15-.66-7.81,4.5.4-.69,4.53,6.1,8.55,2.62,1.55,6.24,3.15,10.14,4.6,16.08,5.94,24.72,17.12,28.37,29.71Z"/>
      <path class="cls-1" d="m65.08,31.8c5.41.1,9.34-2.77,11.68-8.94.82,3.83.5,7.42-3.58,10.06.98.77,2.26,1.2,4.87,1.26-.12.54-5.65,2.49-10.87-.05,4.43,4.45,15.17,3.88,17.53-4.91,2.07-7.72-4.42-11.14-.26-15.97-6.94-2.88-13.09-1.34-15.8,4.1,2.39-7.8-2.01-13.89-7.32-15.47.48,9.58-9.13,4.31-11.9,13.45-2.76,9.12.78,15.27,6.86,15.81-7.33-6.49-4.82-12.1-4.82-12.1,1.72,3.24,2.58,5.97,5.01,7.51.57-3.28-2.85-9.07,2.71-14.53-1.98,6.04-.93,10.45.65,14.91.98-2.63,2.61-4.1,4.88-4.53-1.36,3.59-2.33,6.36-.71,7.71,1.84-1.92,3.28-4.12,4.22-6.66.94,2.82-.44,5.69-3.15,8.35Z"/>
      <path class="cls-1" d="m43.75,24.56c1.02-6.48-4.78-10.3-9.68-11.06-8.32-1.3-13.97,6.54-21.76,7.05.74,2.94,2.3,5.51,5.83,7.18-2.75,3.2-7.51.43-11.64,5.98,6.39,5.53,4.89,16.32,15.29,18.23,6.58,1.21,13.18-.97,16.09-7.9-6.22,5.44-11.38,4.2-14.22-.77,5.32,2.95,9.24,1.78,13.9-1.89-5.29,2.29-9.99,1.06-14.2-2.5,4.89-.8,9.75,3.2,14.13-.96-2.48-1.02-4.14-2.14-5.04-4.11,2.77.84,4.8.95,7.55-.12-1.29-2.32-2.82-3.21-6.08-3.17.51-1.82,2.7-2.26,5.51-2.21-1.38-2.86-5.2-3.96-10.19-4.21,4.3-2.43,8.72-1.88,13.32,3.25-.5-3.58-3.38-7.76-7.97-9.95,4.24-.47,7.62.25,9.16,7.16Z"/>
      <path class="cls-1" d="m45.37,44.06c-7.52-1.17-10.02,7.64-9.76,12.59.27,5.05,5.02,7.22,4.88,15.28,2.94-.74,7.12-2.23,8.79-5.75,3.16,2.53,2.35,6.83,7.4,10.6,5.53-6.4,12.6-6.47,14.73-14.92,1.31-5.22.64-11.46-5.38-14.41,5.44,6.22,4.89,10.65,2.21,15.27,1.41-6.27-1.66-13.74-6.56-14.87,3.41,4.16,5.53,11.56-.61,15.25,1.12-4.77,2.32-9.16-.98-12.67-.75,4.48-2.68,5.58-4.65,6.48.83-2.77,1.25-4.17-.05-6.6-1.85.72-2.61,1.7-4.08,4.83-1.13-.83-1.46-3.36-.86-5.59-2.86,1.38-5.47,4.28-5.72,9.27-2.43-4.3-2.89-10.38,4.54-13.12-3.7-1.14-9.75,2.74-10.13,12.45-1.14-3.91-.68-12.55,6.23-14.09Z"/>
      <g>
        <path d="m60.46,52.77c-.61,4.48-1.21,5.2-2.36,6.59,2.47-.05,3.15-2.81,2.36-6.59"/>
        <path d="m49.48,51.07c-2.28,3.11-2.22,5.79-.57,6.98.48-2.57-.73-2.65.57-6.98"/>
        <path d="m54.71,52.13c-1.38,2.26-2.76,3.91-1.84,5.59.19-1.86,2.24-3.07,1.84-5.59"/>
        <path d="m65.26,51.73c.94,4.12.65,6.17.7,9.21,2.05-3.54.32-7.75-.7-9.21"/>
        <path d="m44.1,48.04c-1.4,1.11-4.25,4.66-3.29,8.63.91-2.9,1.21-4.95,3.29-8.63"/>
        <path d="m71.74,24.05c-.33,1.78-.49,2.71-3.53,6.05,3.4-1.83,5.08-4.12,3.53-6.05"/>
        <path d="m61.84,18c-1.95.58-2.88,3.1-1.75,6.78.19-4.5,1.36-4.19,1.75-6.78"/>
        <path d="m67.22,22.19c-1.84.55-2.03,2.69-2.65,5.25,2.06-1.5,1.47-3.8,2.65-5.25"/>
        <path d="m79.69,25.29c-.61,2.93-1.24,6.19-4.91,7.82,2.17-.11,5.74-2.93,4.91-7.82"/>
        <path d="m54.2,14.87c-1.76,3.68.3,7.74,1.44,9.12-1.27-4.03-1.15-6.1-1.44-9.12"/>
        <path d="m30.48,35.66c.34,1.58,1.99,2.32,3.83,2.32.27,0,.55-.02.82-.05-2.48-.71-3.19-1.18-4.65-2.27"/>
        <path d="m34.43,26.63c-.95,0-1.79.33-2.34,1.1,1.13-.27,1.88-.44,2.94-.44.6,0,1.3.05,2.23.17-.91-.52-1.92-.83-2.83-.83"/>
        <path d="m32.47,31.87c1.6.58,2.9,1.37,4.28,1.37.31,0,.62-.04.94-.13-.94-1.1-3.09-1.16-5.22-1.24"/>
        <path d="m24.18,41.35c1.5,1.45,3.16,2.38,5.12,2.38.42,0,.85-.04,1.29-.13-2.22-.22-4.36-.99-6.41-2.25"/>
        <path d="m33.81,20.12c-.4,0-.79.03-1.18.1,2.85.5,3.57,1.86,7.12,2.88-1.33-1.87-3.66-2.98-5.94-2.98"/>
        <path d="m31.56,48.72c-2.27,0-3.48.5-5.14.5-.45,0-.93-.04-1.48-.13,1.07.61,2.32.91,3.57.91,1.46,0,2.92-.41,4.11-1.24-.38-.03-.73-.04-1.06-.04"/>
        <path d="m37.29,15.95c-.45,0-.91.07-1.37.22.15,0,.3,0,.44,0,2.48,0,3.36.97,5.14,2.1-1.28-1.5-2.72-2.31-4.21-2.31"/>
      </g>
    </g>
  </g>
</svg>