<?xml version="1.0" encoding="UTF-8"?>
<svg id="Layer_2" data-name="Layer 2" xmlns="http://www.w3.org/2000/svg" viewBox="0 0 110.27 85.13">
  <defs>
    <style>
      .cls-1 {
        fill: none;
        stroke: #000;
        stroke-miterlimit: 10;
        stroke-width: .75px;
      }
    </style>
  </defs>
  <g id="Layer_1-2" data-name="Layer 1">
    <g>
      <path class="cls-1" d="m55.13,84.73c-5.53-2.06,2.62-17.9-8.44-27.65-24.05,12.13-28.17-22.97-45.94-13.65,9.53-22.54,36.3-18.64,46.59,5.31.48-1.41,1.73-2.29,2.98-2.11-11.27-17.19-5.22-36.08,4.81-46.1,10.02,10.02,16.07,28.91,4.81,46.1,1.25-.18,2.5.71,2.98,2.11,10.29-23.95,37.06-27.85,46.59-5.31-17.77-9.32-21.89,25.79-45.94,13.65-11.06,9.75-2.92,25.59-8.44,27.65Z"/>
      <path class="cls-1" d="m99.9,39.22c-4.26-6.95-10.76-2.34-16.08-.47,1.32-.81,3-4.57,1.38-6.21-2.22-.15-4.04,3.22-4.8,7.13-1.74.5-3.35,1.31-5.6,2.73,2.72-1.82,3.96-3.99,2.89-6.2-1.48-.22-5.42,2.22-5.11,6.67-1.66,1.44-4.11,3.53-4.11,3.53.24-.64,2.44-4.27,1.16-5.39-3.6.56-3.6,7.56-3.6,7.56-3.77,2.94-10.49,10.71-10.49,15.48v-7.12c4.07-3.29,6.76-7.99,4.83-8.79-1.37-.57-4.83,3.68-4.83,6.08v-7.2c4.61-1.39,7.53-8.83,5.56-9.5-1.8-.61-4.81,3.54-5.56,6.8h0v-6.14s10.56-7.57,8.67-10.22c-2-2.8-8.67,7.5-8.67,7.5v-4.73c6.74-5.55,7.38-11.78,6.52-12.61-1.32-1.45-4.88,2.77-6.52,8.07,2.15-7.32,3.84-14.67-.42-18.28-4.26,3.61-2.57,10.97-.42,18.28-1.64-5.3-5.19-9.52-6.52-8.07-.86.83-.22,7.06,6.52,12.61v4.73s-6.66-10.3-8.67-7.5c-1.89,2.65,8.67,10.22,8.67,10.22v6.14h0c-.74-3.26-3.76-7.41-5.56-6.8-1.97.67.95,8.11,5.56,9.5v7.2c0-2.39-3.46-6.64-4.83-6.08-1.93.8.76,5.5,4.83,8.79v7.12c0-4.77-6.72-12.55-10.49-15.48,0,0,0-7-3.6-7.56-1.27,1.12.92,4.75,1.16,5.39,0,0-2.45-2.1-4.09-3.55.31-4.45-3.63-6.89-5.11-6.67-1.07,2.21.16,4.38,2.89,6.2-2.25-1.42-3.86-2.22-5.6-2.73-.76-3.91-2.58-7.28-4.8-7.13-1.62,1.65.05,5.41,1.38,6.21-5.32-1.87-11.82-6.48-16.08.47,4.54,3.31,8.99.48,15.39,1.42,0,0-5.42.63-5.46,3.69,3.66,2.3,9.27-1.99,9.27-1.99l7.04,2.71c-3.22-.06-8.24,2.51-8.51,5.04-.19,1.74,10.56,2.21,11.35-3.59l5.17,4.45c-3.02-.33-10.22,2.36-9.46,4.44.9,2.46,8.46,1.14,11.68-2.45,10.98,10.27,6.07,22.03,8.31,22.03s-2.67-11.77,8.31-22.03c3.22,3.59,10.78,4.91,11.68,2.45.76-2.08-6.43-4.77-9.46-4.44l5.17-4.45c.79,5.8,11.54,5.33,11.35,3.59-.27-2.53-5.3-5.1-8.51-5.04l7.04-2.71s5.61,4.29,9.27,1.99c-.03-3.06-5.46-3.69-5.46-3.69,6.38-.93,10.83,1.91,15.37-1.4Z"/>
    </g>
  </g>
</svg>