<?xml version="1.0" encoding="UTF-8"?>
<svg id="Layer_2" data-name="Layer 2" xmlns="http://www.w3.org/2000/svg" viewBox="0 0 157.48 239.42">
  <defs>
    <style>
      .cls-1 {
        fill: none;
        stroke: #000;
        stroke-miterlimit: 10;
        stroke-width: .75px;
      }
    </style>
  </defs>
  <g id="Layer_1-2" data-name="Layer 1">
    <g>
      <path class="cls-1" d="m78.72,16.62c3.78,0,4.61,20.12,2.67,27.89,1.48-5.09,7.46-8.88,9.25-5.51-6.51,4.44-2.03,14.25-2.52,18.54,2.31-3.31,7.67-5.31,8.88-.73-7.62,1.42-8.83,12.68-12.08,13.34-2.88.68-3.71-1.17-6.17-1.16h-.01c-2.46-.01-3.29,1.85-6.17,1.16-3.25-.66-4.46-11.92-12.08-13.34,1.21-4.57,6.57-2.57,8.88.73-.49-4.29,3.99-14.1-2.52-18.54,1.78-3.36,7.77.42,9.24,5.51-1.94-7.77-1.12-27.89,2.67-27.89m-.03,50.67c-2.69-3.35-6.31-5.4-6.31-10.49,0-3.8,1.42-6.04,2.67-7.68,1.12-1.53,2.77-3.34,3.64-5.86.87,2.52,2.52,4.33,3.64,5.86,1.25,1.64,2.67,3.89,2.67,7.68,0,5.09-3.62,7.14-6.31,10.49Z"/>
      <path class="cls-1" d="m20.64,132.9c5.88,4.2,8.67,1.68,10.82,8.61.07-8.63,3.41-14.12,9.14-17.33-6.62-14.65-21.12-14.02-31.36-3.62,8.51,1.1,5.85,8.37,11.4,12.34Z"/>
      <path class="cls-1" d="m52.58,122.37c-26.47,3.49-18.91,33.17-3.31,41.21-1.7-7.61-.44-13.25,3.62-17.02-5.56-7.6-5.47-15.2-.31-24.19Z"/>
      <path class="cls-1" d="m53.31,171.24c-13.55-17.44-35.3-17.02-41.08,2.84,11.82-.72,20.98,4.44,27.31,15.86-1.04-10.19,4.32-16.39,13.77-18.7Z"/>
      <path class="cls-1" d="m13.81,165.15c5.78-10.4,14.76-11.77,22.8-9.3-4.41-20.75-28.21-23.01-36.03-5.67,8.77.05,12.92,4.36,13.23,14.97Z"/>
      <path class="cls-1" d="m68.81,176.65c-6.15.83-15.35-3.08-15.13-3.47-10.19,3.29-15.35,11.48-5.67,27.26,5.04-13.55,30.88-8.35,20.8-23.79Z"/>
      <path class="cls-1" d="m65.18,194.67c-9.67,1.16-15.84,5.83-15.55,18.7,6.11-.99,7.98,4.41,6.93,13.24,7.31-9.03,11.14-20.28,8.62-31.94Z"/>
      <path class="cls-1" d="m78.73,161.13c-6.05,0-11.54,6.37-8.16,8.22,2.6,1.42,3.42-3.94,8.16-4.12"/>
      <path class="cls-1" d="m62.29,158.11c2.1.37,2.05-2.21,3.31-2.78,1.26-.57,3.41.63,4.26-.63.84-1.26-2.76-3.8-5.67-2.47-2.42,1.1-4,5.51-1.9,5.88Z"/>
      <path class="cls-1" d="m65,159.82c-1.65-.39-5.99.84-4.5,3.7,1.08,2.08,2.8.24,3.9.24s2.85,2.29,3.9.97c1.94-2.43-1.65-4.52-3.3-4.91Z"/>
      <path class="cls-1" d="m116.87,124.18c5.73,3.21,9.07,8.71,9.14,17.33,2.15-6.93,4.94-4.41,10.82-8.61,5.55-3.96,2.89-11.24,11.4-12.34-10.25-10.41-24.75-11.04-31.36,3.62Z"/>
      <path class="cls-1" d="m78.73,75.01h.75c0,6.78,16.11,17.18,16.11,32.46,10.56-10.87,22.53-5.51,28.68-12.92,4.26,29.62-18.2,20.25-23.24,30.41-4.02-6.7-13.34-10.97-22.3-14.5h0c-8.96,3.53-18.28,7.8-22.3,14.5-5.04-10.16-27.5-.79-23.24-30.41,6.15,7.41,18.12,2.05,28.68,12.92,0-15.28,16.11-25.68,16.11-32.46h.75Z"/>
      <path class="cls-1" d="m108.2,163.57c15.6-8.04,23.16-37.71-3.31-41.21,5.16,9,5.25,16.6-.32,24.19,4.07,3.77,5.34,9.41,3.63,17.02Z"/>
      <path class="cls-1" d="m117.92,189.94c6.33-11.42,15.5-16.58,27.31-15.86-5.78-19.85-27.52-20.27-41.08-2.84,9.46,2.31,14.82,8.51,13.77,18.7Z"/>
      <path class="cls-1" d="m120.86,155.85c8.04-2.47,17.02-1.1,22.8,9.3.32-10.61,4.47-14.92,13.24-14.97-7.83-17.34-31.63-15.08-36.04,5.67Z"/>
      <path class="cls-1" d="m109.46,200.45c9.68-15.78,4.52-23.97-5.67-27.26.22.39-8.98,4.29-15.13,3.47-10.08,15.43,15.76,10.23,20.8,23.79Z"/>
      <path class="cls-1" d="m78.73,215.68c3.48,10.61,8.4,18.53,15.13,23.11.58-3.04,2.15-5.37,4.62-7.04-7.76-12.11-10.97-26.01-9.04-41.92-4.69-1.52-8.23-4.9-10.72-9.98-2.49,5.08-6.03,8.46-10.72,9.98,1.94,15.91-1.27,29.8-9.04,41.92,2.48,1.67,4.04,4,4.62,7.04,6.75-4.58,11.68-12.5,15.15-23.11Z"/>
      <path class="cls-1" d="m107.83,213.37c.29-12.87-5.88-17.54-15.55-18.7-2.52,11.66,1.31,22.92,8.61,31.94-1.04-8.83.83-14.23,6.94-13.24Z"/>
      <path class="cls-1" d="m101.59,169.01c6.83-8,3.33-22.72-14.25-24.98-1.86-.52-2.86-2.23-3.11-4.28-.07-.55-.09-1.12-.05-1.7.65.68,1.28,1.24,1.88,1.7h0c6.02,4.61,9.83-.39,14.51,8.54.56-3.6-.2-6.44-1.79-8.54-2.84-3.77-8.34-5.21-13.66-4.53,5.51-5.69,13.43-3.15,16.56,4.53h0c.63,1.54,1.07,3.3,1.25,5.23.78-1.89,1.2-3.63,1.32-5.23h0c.86-10.84-11.85-14.84-19.45-9.89,3.52-8,10.3-6.62,13.87-1.58,1.15-8.93-11.44-13.55-15.44-2.83,1.49-6.31-.49-9.3-4.51-13.97h0c-4.02,4.67-5.99,7.66-4.5,13.97-4.01-10.72-16.6-6.1-15.44,2.83,3.57-5.04,10.34-6.42,13.87,1.58-7.6-4.95-20.31-.95-19.45,9.89h0c.12,1.6.54,3.34,1.32,5.23.18-1.94.62-3.69,1.25-5.23,3.13-7.68,11.05-10.22,16.56-4.53-5.32-.68-10.82.77-13.66,4.53-1.59,2.1-2.35,4.94-1.79,8.54,4.68-8.93,8.48-3.93,14.51-8.54h0c.6-.46,1.23-1.02,1.88-1.7.04.59.02,1.15-.05,1.7-.25,2.05-1.25,3.76-3.11,4.28-17.58,2.26-21.08,16.97-14.25,24.98,4.12,4.84,12.02,7.22,22.85,2.92,10.86,4.3,18.76,1.92,22.88-2.92Zm-22.86-41.84c4.26,4.39,4.45,8.57,1.83,12.58-.51.78-1.12,1.55-1.83,2.31-.71-.76-1.32-1.54-1.83-2.31-2.62-4.01-2.42-8.18,1.83-12.58Zm-15.37,41.84c-3.28-2.23-5.4-6.15-5.43-10.33-.06-9.11,14.18-14.73,20.8-13.47h0c6.62-1.26,20.85,4.36,20.8,13.47-.02,4.18-2.14,8.09-5.43,10.33-3.39,2.32-8.04,2.84-12.9,0-.82-.48-1.65-1.05-2.47-1.73-.83.68-1.65,1.25-2.48,1.73-4.85,2.84-9.49,2.32-12.89,0Z"/>
      <path class="cls-1" d="m78.73,149.76c4.73,0,5.64,3.36,8.04,2.41,2.82-1.12.18-5.4-8.04-5.4h0c-8.22,0-10.86,4.29-8.04,5.4,2.4.94,3.31-2.41,8.04-2.41h0Z"/>
      <path class="cls-1" d="m78.73,157.27c5.36,0,6.89,4.26,8.87,2.68,2.37-1.89-1.85-7.33-8.87-7.33h0c-7.02,0-11.24,5.44-8.87,7.33,1.98,1.58,3.51-2.68,8.87-2.68h0Z"/>
      <path class="cls-1" d="m78.73,165.23c4.73.18,5.56,5.54,8.16,4.12,3.38-1.85-2.11-8.22-8.16-8.22"/>
      <path class="cls-1" d="m87.61,154.7c.84,1.26,2.99.06,4.25.63s1.21,3.15,3.31,2.78.52-4.78-1.89-5.88c-2.91-1.33-6.51,1.2-5.67,2.47Z"/>
      <path class="cls-1" d="m92.47,159.82c-1.65.39-5.25,2.48-3.3,4.91,1.05,1.31,2.8-.97,3.9-.97s2.83,1.84,3.9-.24c1.49-2.87-2.85-4.1-4.5-3.7Z"/>
      <path class="cls-1" d="m78.73,75.01h.75v-4.25c11.58,10.04,12.02-13.24,21.32-12.76.23-5.91-3.7-8.59-10.88-6.15-.12-2.17.04-9.02,4.41-11.66-.27-3.02-2.84-8.5-8.55-4.68,8.57-6.4-6.8-20.59-7.05-35.49v-.02h0s0,.01,0,0v.02c-.24,14.89-15.62,29.08-7.05,35.49-5.71-3.82-8.29,1.65-8.55,4.68,4.38,2.64,4.53,9.5,4.41,11.66-7.17-2.44-11.11.24-10.88,6.15,9.3-.48,9.73,22.8,21.32,12.76v4.25h.75Zm-4.09-18.2c0-5.2,4.1-6.61,4.1-9.6,0,2.99,4.09,4.4,4.09,9.6s-4.1,6.07-4.1,8.12c0-2.05-4.09-2.92-4.09-8.12Z"/>
    </g>
  </g>
</svg>