<?xml version="1.0" encoding="UTF-8"?>
<svg id="Layer_2" data-name="Layer 2" xmlns="http://www.w3.org/2000/svg" viewBox="0 0 54.59 67.51">
  <g id="Layer_1-2" data-name="Layer 1">
    <g>
      <path d="m53.94,66.41c-.34.39-1.08.34-1.54.33-.94-.03-1.88-.21-2.8-.41-1-.23-2-.51-2.98-.83-.18-.06-.4-.09-.53-.23-.14-.15-.25-.49-.35-.68-.24-.44-.5-.86-.77-1.28-1.09-1.66-2.38-3.22-3.82-4.59-.29-.27-.58-.53-.89-.78-.34-.28-.46-.33-.89-.21-.72.19-1.44.35-2.18.46-6.43,1.02-13.16-.76-18.9-3.64-5.78-2.9-11.18-7.21-14.57-12.78-1.5-2.47-2.6-5.25-2.88-8.14-.36-3.77.32-7.73,1.43-11.32,2.35-7.56,7.2-14.08,12.72-19.65.68-.69,1.37-1.36,2.08-2.03-.21-.09-.43-.18-.64-.27.35,2.66,1.08,5.26,2.44,7.59,1.15,1.96,2.7,3.65,4.44,5.09,3.49,2.88,7.63,4.85,11.11,7.74,1.88,1.56,3.53,3.38,4.77,5.49,1.14,1.94,1.79,4.06,2.32,6.24,1.47,5.99,2.24,12.37,1.85,18.54-.05.74-.11,1.47-.21,2.2-.04.33-.12.6-.02.92.08.25.2.5.31.75.57,1.25,1.35,2.4,2.18,3.5,1.94,2.59,4.2,4.95,6.62,7.1.55.49,1.11.96,1.69,1.42.37.3.91-.23.53-.53-2.48-1.97-4.76-4.23-6.81-6.64-.99-1.16-1.93-2.37-2.72-3.67-.33-.54-.64-1.09-.89-1.67-.11-.26-.2-.46-.19-.74.02-.36.1-.73.14-1.09.66-6.1-.06-12.45-1.32-18.42-.46-2.21-1-4.46-1.91-6.53-.96-2.18-2.42-4.16-4.1-5.84-3.22-3.22-7.3-5.3-10.99-7.91-1.82-1.29-3.54-2.74-4.92-4.5-1.55-1.98-2.58-4.29-3.16-6.73-.18-.76-.31-1.52-.42-2.29-.04-.31-.38-.51-.64-.27C11.66,4.72,7.2,9.9,4.12,15.88c-1.54,2.98-2.72,6.16-3.4,9.44-.62,2.97-.96,6.14-.53,9.16.74,5.13,3.76,9.7,7.36,13.31,4.03,4.04,9.01,7.15,14.34,9.16,5.07,1.91,10.7,2.87,16.08,1.87.63-.12,1.26-.27,1.87-.44-.12-.03-.24-.06-.36-.1,1.36,1.08,2.56,2.37,3.63,3.73.57.73,1.1,1.49,1.58,2.28.24.39.46.79.66,1.19.22.45.29.48.77.64,1.67.56,3.38,1.03,5.13,1.26.92.12,2.5.38,3.21-.44.32-.36-.2-.89-.52-.53Z"/>
      <path d="m14.89,14.84c-1.01,11.91,2.65,25.14,14.6,30.08l-.03.07c-12.67-3.45-16.25-18.82-14.57-30.15h0Z"/>
    </g>
  </g>
</svg>