<?xml version="1.0" encoding="UTF-8"?>
<svg id="Layer_2" data-name="Layer 2" xmlns="http://www.w3.org/2000/svg" viewBox="0 0 39.55 52.31">
  <g id="Layer_1-2" data-name="Layer 1">
    <path d="m.26.75c7.98,2.86,15.15,7.76,21.07,13.79,6.22,6.34,11.14,14.01,14.18,22.37,1.76,4.84,2.86,9.89,3.29,15.03.19-.11.38-.22.56-.32-3.49-2.07-6.87-4.34-10.2-6.66-3.54-2.47-7.03-5.02-10.37-7.76-3.26-2.67-6.23-5.59-8.67-9.04-2.71-3.82-4.73-8.09-6.16-12.54C2.36,10.64,1.44,5.47.73.29.66-.19-.06.02.01.49c1.29,9.33,3.34,18.73,8.56,26.72,4.72,7.23,11.74,12.38,18.69,17.31,3.82,2.71,7.7,5.35,11.73,7.74.23.14.59-.03.56-.32-.76-9.22-3.71-18.11-8.48-26.04-4.56-7.58-10.69-14.23-17.94-19.29C9.21,3.88,4.96,1.64.47.03,0-.14-.2.59.26.75Z"/>
  </g>
</svg>