<?xml version="1.0" encoding="UTF-8"?>
<svg id="Layer_2" data-name="Layer 2" xmlns="http://www.w3.org/2000/svg" viewBox="0 0 45.87 49.77">
  <g id="Layer_1-2" data-name="Layer 1">
    <g>
      <g>
        <path d="m14.23,20.27c-1.84-.15-3.73-.16-5.53.28.14.06.28.11.42.17-1.9-2.61-3.69-5.45-4.48-8.62-.7-2.84-.42-6.14,1.83-8.23-.2-.03-.39-.05-.59-.08,3.58,5.17,6.23,10.92,7.99,16.95.14.46.86.27.72-.2-1.78-6.09-4.45-11.92-8.06-17.13-.14-.2-.4-.25-.59-.08-2.28,2.12-2.74,5.43-2.15,8.37.69,3.46,2.64,6.58,4.69,9.39.1.14.25.21.42.17,1.74-.42,3.56-.39,5.34-.25.48.05.47-.7-.01-.74Z"/>
        <path d="m21.42,19.43c-.01,1.15-.08,2.3-.21,3.45.19-.11.38-.22.56-.32-2.27-1.4-4.9-2.03-7.54-2.28.12.09.24.18.36.28-1.78-6.09-4.45-11.92-8.06-17.13-.02.15-.04.3-.06.45,2.49-2.19,6.23-2.08,9.23-1.19.39.11.77.24,1.15.39.19.07.43.13.57.27.17.17.25.45.35.67.43.92.82,1.85,1.18,2.79.71,1.88,1.3,3.82,1.72,5.79.48,2.24.74,4.53.75,6.83,0,.48.75.48.75,0-.02-4.46-.97-8.89-2.58-13.04-.37-.97-.78-1.92-1.22-2.86-.2-.42-.28-.75-.72-.94-.4-.17-.8-.33-1.22-.47-1.71-.57-3.55-.87-5.35-.76-1.89.12-3.71.71-5.15,1.98-.12.1-.15.33-.06.45,3.58,5.17,6.23,10.92,7.99,16.95.05.17.19.26.36.28,2.5.24,5,.85,7.16,2.18.27.16.53-.06.56-.32.14-1.15.21-2.29.21-3.45.02-.48-.73-.48-.73,0Z"/>
        <path d="m44.31,16.04c-1.41,2.82-3.51,5.27-5.78,7.43.12-.03.24-.06.36-.1-1.28-.54-2.62-.86-4.01-.92.11.19.22.38.32.56,2.65-3.77,4.64-8.03,5.83-12.48-.12.09-.24.18-.36.28,1.35-.06,2.74.37,3.53,1.53.76,1.14.67,2.52.11,3.7-.2.43.44.82.65.38.67-1.43.8-3.08-.1-4.44-.93-1.39-2.55-1.97-4.17-1.9-.16,0-.32.11-.36.28-1.18,4.39-3.14,8.57-5.75,12.3-.17.25.06.55.32.56,1.32.06,2.59.38,3.81.89.12.05.28,0,.36-.1,2.31-2.2,4.47-4.71,5.9-7.58.2-.44-.45-.82-.66-.39Z"/>
        <path d="m40.31,10.35c-1.18,4.39-3.14,8.57-5.75,12.3.11-.06.22-.12.32-.19-1.49-.05-3.09.15-4.47.72.14.18.28.37.42.55,2.46-5.08,4.25-10.54,4.85-16.17-.06.11-.12.22-.19.32,1-.43,2.14-.5,3.11.05.96.55,1.48,1.55,1.7,2.61.1.47.82.27.72-.2-.27-1.28-.98-2.51-2.18-3.13-1.2-.62-2.53-.5-3.74.02-.13.05-.17.2-.19.32-.58,5.49-2.35,10.84-4.75,15.79-.12.26.09.69.42.55.74-.31,1.56-.49,2.35-.6.41-.06.83-.09,1.25-.1.27,0,.67.1.9-.07.25-.18.43-.58.6-.84.21-.31.41-.62.61-.94.44-.7.85-1.41,1.25-2.14,1.48-2.74,2.66-5.65,3.47-8.67.15-.45-.57-.65-.7-.18Z"/>
        <path d="m34.94,7.56c-.39,3.76-1.38,7.44-2.69,10.97-.34.91-.7,1.8-1.08,2.69-.22.5-.45,1-.68,1.49-.08.16-.14.42-.27.53-.09.08-.33.13-.46.19-1.81.77-3.42,1.89-4.89,3.18.2.03.39.05.59.08-.59-1.3-1.46-2.41-2.55-3.32v.53c1.23-1.18,1.93-2.59,2.55-4.15.67-1.71,1.27-3.46,1.74-5.24.44-1.67.77-3.37.96-5.09.2-1.83.11-3.61.11-5.44-.06.11-.12.22-.19.32,2.69-1.32,6.35.36,6.86,3.36.08.47.8.27.72-.2-.61-3.51-4.88-5.33-7.97-3.81-.12.06-.19.2-.19.32,0,1.68.1,3.32-.07,5-.17,1.73-.49,3.44-.93,5.12-.43,1.67-.98,3.31-1.59,4.92-.62,1.64-1.27,3.13-2.56,4.36-.14.13-.15.4,0,.53,1.05.87,1.87,1.92,2.44,3.17.11.23.43.22.59.08.85-.74,1.74-1.43,2.71-2.02.42-.26.85-.49,1.29-.71.4-.2.93-.3,1.29-.55.3-.21.44-.77.59-1.09.21-.46.42-.92.62-1.38.38-.88.74-1.76,1.07-2.66,1.34-3.6,2.32-7.35,2.71-11.17.08-.49-.67-.48-.72,0Z"/>
        <path d="m24.3,20.64c-.46,1.04-1.1,1.95-1.92,2.73h.53c-.37-.29-.74-.57-1.14-.82.06.11.12.22.19.32.82-6.89-.9-13.87-3.91-20.05-.02.15-.04.3-.06.45,1.7-2.13,5.04-3.38,7.54-1.88.65.39,1.17.95,1.55,1.61.19.33.39.71.46,1.08.11.58.06,1.25.07,1.84.01,2.38-.27,4.75-.8,7.08-.6,2.64-1.5,5.21-2.53,7.71-.18.45.54.64.72.2,2.01-4.88,3.45-10.01,3.36-15.33-.01-.54.02-1.14-.08-1.67-.08-.43-.33-.91-.55-1.29-.39-.67-.91-1.26-1.55-1.7C24.94.05,23.38-.15,21.91.1c-1.73.3-3.35,1.26-4.45,2.64-.11.14-.14.29-.06.45,2.96,6.07,4.62,12.91,3.81,19.67-.02.13.08.26.19.32.34.22.67.45.99.7.16.13.37.15.53,0,.86-.82,1.55-1.79,2.03-2.88.19-.42-.46-.8-.65-.36Z"/>
      </g>
      <path d="m45.29,28.92c-3.77,1.84-7.79,3.92-9.89,7.75.23.03.46.06.69.09,0,0,0-.02-.01-.03-.06-.28-.44-.36-.63-.17-2.44,2.62-6.27,3.07-9.34,4.66-3.14,1.63-5.76,4.14-7.62,7.14.11-.06.22-.12.32-.19-.7,0-1.46.17-2.15.29-.84.15-1.67.33-2.49.56.14.18.28.37.42.55,2.44-3.19,4.54-6.62,6.28-10.25.14-.3-.09-.62-.42-.55-2.94.59-6.31-.61-8.52-2.56-1.16-1.02-1.77-2.39-2.73-3.57-1-1.22-2.22-2.25-3.53-3.13-1.62-1.1-3.37-1.98-5.12-2.83.03.2.05.39.08.59,2.68-3.45,6.17-6.15,10.67-6.33,3.15-.13,6.53.34,9.34,1.83,1.83.97,3.31,2.4,4.16,4.3.11.24.43.22.59.08,3.07-2.69,7.01-4.62,11.18-3.72,3.57.77,6.43,3.28,8.63,6.09.3.38.82-.15.53-.53-2.33-2.99-5.46-5.66-9.3-6.35-4.34-.79-8.37,1.18-11.57,3.98.2.03.39.05.59.08-1.58-3.53-5.2-5.35-8.83-6.08-3.31-.66-6.97-.74-10.09.68-2.6,1.19-4.7,3.22-6.43,5.45-.14.17-.16.47.08.59,3.14,1.53,6.4,3.19,8.61,5.99.52.65.89,1.39,1.37,2.06.43.59.93,1.12,1.5,1.58,1.19.98,2.58,1.7,4.04,2.17,1.59.51,3.31.7,4.96.37-.14-.18-.28-.37-.42-.55-1.73,3.62-3.84,7.06-6.28,10.25-.21.27.13.63.42.55.98-.27,1.96-.48,2.97-.64.47-.07,1.01-.06,1.47-.19.32-.09.41-.33.59-.6.91-1.41,2.02-2.7,3.27-3.82,1.28-1.14,2.71-2.11,4.25-2.85,1.48-.72,3.07-1.2,4.6-1.8,1.64-.65,3.23-1.45,4.45-2.76-.21-.06-.42-.11-.63-.17,0,0,0,.02.01.03.07.32.54.36.69.09,2.04-3.71,5.96-5.69,9.62-7.48.44-.21.06-.86-.38-.65Z"/>
    </g>
  </g>
</svg>