<?xml version="1.0" encoding="UTF-8"?>
<svg id="Layer_2" data-name="Layer 2" xmlns="http://www.w3.org/2000/svg" viewBox="0 0 34.61 51.06">
  <defs>
    <style>
      .cls-1 {
        fill: none;
        stroke: #000;
        stroke-miterlimit: 10;
        stroke-width: .75px;
      }
    </style>
  </defs>
  <g id="Layer_1-2" data-name="Layer 1">
    <g>
      <path d="m34.31,6.18c-1.81-.49-3.97.73-5.48,1.59-1.75,1.01-3.62,2.23-4.93,3.8.21.06.42.11.63.17-.6-1.58-1.42-3.11-2.2-4.61-1.03-1.97-2.09-3.98-3.44-5.76-.36-.47-.79-1.07-1.35-1.32-.57-.25-1.13.45-1.46.83-1.36,1.6-2.37,3.53-3.36,5.37-.95,1.78-1.94,3.59-2.65,5.48.21-.06.42-.11.63-.17-1.31-1.57-3.18-2.79-4.94-3.8-1.51-.86-3.68-2.09-5.49-1.59-.3.08-.33.41-.17.63,2.02,2.61,3.11,5.79,3.71,9.01.58,3.11.5,6.26.89,9.38.51,4.06,1.74,8.56,5.38,10.92,1.67,1.08,3.64,1.56,5.6,1.7,2.19.16,4.46-.04,6.51-.89,4.18-1.75,6.22-5.97,7.18-10.17.75-3.28.82-6.65,1.35-9.96.57-3.58,1.58-7.15,3.82-10.06.29-.38-.36-.76-.65-.38-1.9,2.46-2.95,5.42-3.57,8.44-.62,2.99-.74,6.02-1.17,9.03-.62,4.31-1.96,9.27-5.9,11.72-1.83,1.14-3.97,1.55-6.1,1.57-2.01.01-4.08-.26-5.88-1.18-3.83-1.96-5.19-6.34-5.75-10.32-.46-3.32-.35-6.68-.97-10-.63-3.35-1.81-6.62-3.91-9.34-.06.21-.11.42-.17.63.76-.21,1.59.04,2.3.29,1.01.35,1.97.85,2.89,1.39,1.61.95,3.31,2.07,4.51,3.52.2.24.54.07.63-.17.55-1.46,1.31-2.86,2.02-4.24.97-1.87,1.97-3.75,3.18-5.47.21-.3.43-.6.67-.87.17-.2.5-.39.64-.59.03-.05.21-.05-.02-.05s-.05-.01-.02.05c.04.07.2.14.26.2.25.22.47.49.68.75,1.25,1.6,2.23,3.45,3.18,5.24.86,1.62,1.77,3.27,2.42,4.99.09.24.43.4.63.17,1.21-1.45,2.89-2.57,4.5-3.52.91-.54,1.85-1.03,2.85-1.38.72-.25,1.57-.51,2.33-.3.46.12.66-.6.19-.73Z"/>
      <path class="cls-1" d="m24.17,11.84c-5.11,6-4,13.87-7.34,22.68"/>
      <path class="cls-1" d="m10.43,11.84c2.4,3.25,3.17,5.49,3.68,9.25"/>
      <path d="m14.81,37.71c1.88.33,3.76.13,5.56-.49-.16-.12-.32-.24-.47-.36-.15,4.7.47,9.4,1.82,13.91.18-.14.37-.28.55-.42-1.26-.64-2.5-1.31-3.72-2-.63-.35-1.25-.72-1.87-1.08-.31-.18-.63-.35-.92-.55-.33-.23-.34-.42-.43-.81-.62-2.77-.63-5.66-.05-8.44.1-.47-.62-.67-.72-.2-.61,2.92-.59,5.93.05,8.84.06.27.08.65.23.88.16.24.51.37.75.51.68.41,1.37.82,2.06,1.22,1.4.8,2.81,1.57,4.25,2.3.28.14.65-.09.55-.42-1.33-4.45-1.93-9.07-1.79-13.71,0-.23-.25-.44-.47-.36-1.67.58-3.42.8-5.16.49-.49-.11-.69.61-.22.69Z"/>
    </g>
  </g>
</svg>