<?xml version="1.0" encoding="UTF-8"?>
<svg id="Layer_2" data-name="Layer 2" xmlns="http://www.w3.org/2000/svg" viewBox="0 0 53.38 50.21">
  <defs>
    <style>
      .cls-1 {
        fill: none;
        stroke: #000;
        stroke-miterlimit: 10;
        stroke-width: .75px;
      }
    </style>
  </defs>
  <g id="Layer_1-2" data-name="Layer 1">
    <g>
      <path d="m34.37,28.61c-.86,2.25-3.32,3.8-5.69,3.86-1.21.03-2.54-.28-3.47-1.08-.88-.75-1.38-1.82-1.7-2.91-.67-2.27-.14-5.28,1.89-6.74,2.01-1.44,5-1.13,6.88.39,1.9,1.52,2.9,4.11,2.09,6.48-.16.46.57.65.72.2.83-2.43-.05-5.12-1.87-6.85-1.97-1.88-5.17-2.51-7.63-1.22s-3.56,4.6-3,7.21c.26,1.22.73,2.46,1.55,3.42.92,1.09,2.3,1.68,3.7,1.82,3.01.3,6.17-1.54,7.25-4.38.17-.46-.55-.65-.72-.2Z"/>
      <path d="m37.71,5.58c.09,3-.68,5.85-2.23,8.42-1.48,2.45-3.52,4.5-5.65,6.39.12-.03.24-.06.36-.1-1.77-.43-3.66-.25-5.18.8.15.02.3.04.45.06-2.9-2.78-5.9-5.46-8.84-8.19-.74-.69-1.49-1.39-2.22-2.09-.43-.42-.84-.92-1.1-1.53-.5-1.16-.29-2.46.52-3.42,2.33-2.79,6.02-1.02,9.02-1.01,3.74.01,6.59-2.74,10.01-3.84,1.12-.36,2.51-.54,3.48.29,1.16.98,1.32,2.8,1.38,4.22.02.48.77.48.75,0-.11-2.41-.79-5.39-3.68-5.57-1.61-.1-3.2.68-4.6,1.39-1.81.91-3.62,2.13-5.62,2.58-2.21.5-4.32-.26-6.51-.42-1.43-.11-2.91.27-4.05,1.16-.99.77-1.68,1.92-1.72,3.19-.05,1.36.7,2.61,1.6,3.49,3.6,3.52,7.43,6.8,11.06,10.29.11.11.32.15.45.06.87-.6,1.87-.9,2.93-.92.5-.01.99.05,1.48.15.5.1.64-.12,1.02-.46,1.44-1.3,2.8-2.68,3.98-4.21,2.4-3.11,3.79-6.76,3.66-10.72,0-.49-.76-.5-.75-.01Z"/>
      <path d="m51.24,31.34c-1.19.83-2.75.92-4.15.89-1.38-.03-2.76-.24-4.11-.54-2.84-.64-5.64-1.7-8.07-3.31.06.14.11.28.17.42,1.26-3.66-1.31-7.55-4.89-8.52.06.21.11.42.17.63,2.63-2.32,5.13-4.95,6.64-8.16.36-.76.66-1.56.89-2.37.1-.36.13-.84.27-1.18.18-.43.77-.91,1.13-1.21,1.15-.97,2.82-1.34,4.02-.25,1.46,1.33,1.32,3.58.59,5.23-.13.3.08.62.42.55,2.13-.44,3.93,1.04,4.78,2.89.95,2.06.74,4.54-.72,6.31-.15.19-.14.45.08.59,1.29.79,2.53,1.87,3.36,3.14.45.69.81,1.48.8,2.32-.01,1.08-.66,1.94-1.45,2.61-.37.31.17.84.53.53.84-.72,1.51-1.63,1.65-2.76.11-.95-.19-1.9-.65-2.72-.89-1.55-2.34-2.85-3.86-3.78.03.2.05.39.08.59,1.69-2.05,1.94-4.83.84-7.22-1.01-2.18-3.17-3.75-5.63-3.24.14.18.28.37.42.55.71-1.61.95-3.49.09-5.1-.68-1.28-2.03-2.1-3.5-1.92-.81.1-1.55.47-2.19.97-.4.31-.76.67-1.08,1.06-.33.4-.4.63-.52,1.14-.48,2.03-1.41,3.92-2.61,5.62-1.39,1.96-3.11,3.66-4.9,5.25-.21.19-.09.56.17.63,3.21.87,5.49,4.32,4.37,7.6-.06.16.04.34.17.42,2.58,1.71,5.6,2.83,8.62,3.46,1.4.29,2.83.49,4.26.49s3-.16,4.2-.99c.39-.24.01-.89-.39-.62Z"/>
      <path class="cls-1" d="m49.98,36.95c-.29,1.76-1.56,3.22-3.75,3.36.91,2.12.04,4.09-1.49,5.2-1.2.86-2.81,1.18-4.27.61-2.1,5.26-8.54,4.73-10.26-.31-.01-.01-.01-.02-.01-.04-1.4-4.17-1.87-8.59-1.97-12.93,1.96.09,4.02-.77,5.48-2.43.47-.52.8-1.1,1.02-1.7,3.85,2.59,10,4.24,13.93,3.85,1.13,1.27,1.57,2.94,1.32,4.39Z"/>
      <path class="cls-1" d="m30.2,45.77s0,.02.01.04c-1.06,3.12-7.66,5.46-12.57,1.43-1.94-1.59-4.36-2.37-6.86-2.19-6.44.46-10.11-5.01-8.89-9.93,1.03-4.16,8.04-4.14,8.04-4.14,4.29.07,9.02-1.21,13.02-3.14,0,.04.01.07.02.11.36,1.44.88,2.82,2.11,3.83.94.67,2.03,1.02,3.14,1.06.11,4.35.58,8.77,1.98,12.93Z"/>
      <path class="cls-1" d="m25.2,21.41c-.58.41-1.06.95-1.42,1.64-.8,1.46-1.19,3.19-.83,4.8-5.04,2.74-11.08,3.36-16.86,3.54-3.35.11-6.24-2.13-5.64-5.69.35-2.07,2.15-2.72,3.02-3.01-1.62-1.64-1.54-3.79-.52-5.38.8-1.24,2.18-2.13,3.74-2.14.18-5.17,4.44-6.01,7.3-4.18,3.7,3.55,7.33,6.69,11.21,10.42Z"/>
    </g>
  </g>
</svg>