<?xml version="1.0" encoding="UTF-8"?>
<svg id="Layer_2" data-name="Layer 2" xmlns="http://www.w3.org/2000/svg" viewBox="0 0 27.79 66.01">
  <g id="Layer_1-2" data-name="Layer 1">
    <path d="m26.37,41.73c.86,3.11.79,6.42.49,9.6-.31,3.3-.93,6.57-1.65,9.81-.33,1.46-.68,2.92-1.03,4.38.18-.07.37-.15.55-.22-3.17-2.31-6.21-4.83-9.11-7.48-3.39-3.09-6.55-6.42-9.23-10.15C.43,39.35.03,28.57,1.5,18.79,2.43,12.55,4.12,6.44,6.11.46h-.72c2.03,12.06,10,21.8,16.15,31.99,1.8,2.99,3.48,6.06,4.83,9.28.18.44.91.25.72-.2-4.72-11.21-13.1-20.39-18-31.51C7.71,6.9,6.67,3.63,6.1.27c-.07-.39-.62-.32-.72,0C1.93,10.63-.9,21.8.27,32.8c.51,4.83,1.88,9.59,4.45,13.74,1.21,1.95,2.66,3.79,4.15,5.53,1.54,1.79,3.2,3.48,4.92,5.1,3.32,3.14,6.85,6.09,10.55,8.79.19.14.5-.01.55-.22,1.48-6.2,3.04-12.55,2.89-18.96-.04-1.76-.23-3.53-.7-5.23-.11-.48-.83-.28-.71.18Z"/>
  </g>
</svg>