<?xml version="1.0" encoding="UTF-8"?>
<svg id="Layer_2" data-name="Layer 2" xmlns="http://www.w3.org/2000/svg" viewBox="0 0 31.15 55.36">
  <g id="Layer_1-2" data-name="Layer 1">
    <g>
      <path d="m20.18,5.82c2.69-1.13,5.86-.89,8.12,1.07,1.85,1.6,2.8,4.2,1.6,6.47-.89,1.7-2.6,2.76-4.31,3.49-.21.09-.25.45-.08.59,1.26.99,2.24,2.27,2.58,3.86.29,1.33.08,2.74-.46,3.97-.98,2.25-3.23,4.39-5.84,4.29-1.64-.07-2.94-1.15-3.82-2.47-.17-.25-.61-.25-.69.09-.51,2.39-2.13,4.33-4.58,4.83-2.07.43-4.36-.31-5.65-2.02-.87-1.16-1.16-2.59-1.1-4.02,0-.12-.07-.27-.19-.32-1.65-.8-3.57-2.17-3.46-4.24.1-1.78,1.67-3.1,3.13-3.88.3-.16.21-.59-.09-.69-2.19-.69-4.19-2.27-4.55-4.66-.29-1.97.7-3.91,2.43-4.85,1.26-.68,2.72-.78,4.11-.61.2.03.37-.19.38-.38.04-2.52,1.43-4.61,3.9-5.31,2.11-.6,4.63-.19,6.33,1.22.97.81,1.61,1.93,1.74,3.19.05.48.8.48.75,0C19.87.03,12.08-1.76,8.56,1.98c-1.11,1.18-1.58,2.75-1.6,4.35.12-.12.25-.25.38-.38-2.54-.32-5.29.45-6.63,2.79-1.14,1.99-.86,4.49.53,6.27.98,1.26,2.39,2.06,3.9,2.54-.03-.23-.06-.46-.09-.69-1.71.92-3.39,2.47-3.5,4.53-.13,2.34,1.93,3.96,3.83,4.88-.06-.11-.12-.22-.19-.32-.11,2.7,1.14,5.26,3.69,6.36,2.24.97,4.94.61,6.82-.96,1.22-1.02,1.96-2.46,2.29-4l-.69.09c.88,1.31,2.12,2.45,3.71,2.75,1.38.26,2.79-.09,3.97-.81,2.53-1.53,4.23-4.61,3.91-7.58-.21-2-1.33-3.7-2.89-4.92-.03.2-.05.39-.08.59,2.91-1.25,5.71-3.73,5.16-7.2-.45-2.84-2.94-5.01-5.64-5.68-1.84-.46-3.77-.25-5.51.48-.39.21-.2.94.25.75Z"/>
      <path d="m27.45,11.67c-.07,2.8-3.69,3.78-5.82,4.68-.31.13-.36.48-.09.69.68.53,1.37,1.05,2.05,1.58,1.38,1.09,2.16,2.63,1.72,4.39-.42,1.66-1.81,3.48-3.61,3.71-1.46.19-2.29-1.04-3-2.11-.56-.85-1.12-1.71-1.69-2.56-.16-.25-.62-.25-.69.09-.15.72-.29,1.45-.44,2.17-.16.78-.26,1.62-.55,2.37-.93,2.44-4.36,3.32-6.11,1.18-.88-1.08-.77-2.44-.7-3.73,0-.12-.07-.27-.19-.32-1.45-.69-4.2-1.86-2.68-3.79.91-1.15,2.22-1.97,3.39-2.84.21-.15.27-.51,0-.65-.7-.36-1.41-.71-2.11-1.08-1.2-.64-2.8-1.57-3.13-3.02-.43-1.91,1.35-3.2,3.06-3.26.93-.03,1.89.17,2.82.29.2.03.37-.19.38-.38,0-1.86-.15-4,1.88-4.88,1.9-.83,5.05-.26,5.69,1.97.24.82.21,1.76.29,2.61.03.3.29.44.56.32,1.23-.53,2.48-1.21,3.84-1.31,2.28-.16,5.06,1.36,5.13,3.88,0,.48.76.48.75,0-.08-2.62-2.62-4.45-5.07-4.62-1.81-.13-3.42.72-5.03,1.41.19.11.38.22.56.32-.08-.89-.07-1.86-.29-2.73-.37-1.45-1.7-2.39-3.09-2.75-2.08-.54-4.72.02-5.62,2.18-.47,1.12-.35,2.42-.35,3.61.12-.12.25-.25.38-.38-1.21-.16-2.46-.43-3.68-.2-1.74.33-3.14,1.83-2.99,3.66.22,2.7,3.58,3.93,5.66,5v-.65c-1.38,1.02-3.26,2.09-4.02,3.67-1.06,2.19,1.74,3.5,3.31,4.24-.06-.11-.12-.22-.19-.32-.06,1.25-.14,2.5.49,3.64.63,1.15,1.82,1.86,3.11,2.02,1.35.17,2.76-.3,3.7-1.29.83-.87,1.12-1.97,1.35-3.11.21-1.02.41-2.04.62-3.05l-.69.09c.6.91,1.19,1.82,1.79,2.72.79,1.2,1.77,2.4,3.35,2.34,1.93-.07,3.53-1.75,4.24-3.42.77-1.82.51-3.82-.85-5.29-.85-.91-1.98-1.63-2.96-2.39-.03.23-.06.46-.09.69,2.48-1.04,6.29-2.15,6.37-5.4,0-.47-.75-.47-.76,0Z"/>
      <path d="m16.88,11.58c1.1.96,1.5,2.66.95,4.01-.59,1.48-2.2,2.44-3.78,2.22-1.51-.21-2.88-1.39-3.26-2.87-.37-1.47.34-3.21,1.69-3.95,1.33-.74,3.26-.36,4.4.59.37.31.9-.22.53-.53-1.24-1.03-3.16-1.5-4.71-.97-1.75.6-2.91,2.55-2.75,4.37.17,1.87,1.59,3.45,3.37,3.97,1.83.54,3.74-.24,4.81-1.8,1.15-1.69.83-4.22-.72-5.57-.36-.32-.89.21-.53.53Z"/>
      <path d="m12.05,32.44c-.47,7.85.54,15.95,4.8,22.72.11-.19.22-.38.32-.56h-5.21c.11.06.22.12.32.19-3.5-6.86-3.35-14.98-1.96-22.37-.15.09-.31.17-.46.26.84.2,1.69.25,2.55.14.47-.06.48-.81,0-.75-.8.1-1.57.07-2.35-.11-.18-.04-.42.06-.46.26-1.43,7.6-1.57,15.9,2.03,22.95.06.12.2.19.32.19h5.21c.28,0,.48-.32.32-.56-4.19-6.67-5.16-14.62-4.7-22.34.05-.5-.7-.5-.73-.02Z"/>
    </g>
  </g>
</svg>