<?xml version="1.0" encoding="UTF-8"?>
<svg id="Layer_2" data-name="Layer 2" xmlns="http://www.w3.org/2000/svg" viewBox="0 0 189.55 142.76">
  <defs>
    <style>
      .cls-1 {
        fill: none;
        stroke: #000;
        stroke-miterlimit: 10;
        stroke-width: .75px;
      }
    </style>
  </defs>
  <g id="Layer_1-2" data-name="Layer 1">
    <g>
      <path d="m189.19,122.25c-6.97.87-13.2,4.18-18.82,8.26.17.04.34.09.51.13-4.3-7.69-9.56-14.78-14-22.38-.1-.16-.35-.25-.51-.13-4.62,3.31-10.46,3.56-15.81,4.89-5.06,1.26-9.72,3.64-14.33,6-4.96,2.54-9.98,4.98-15.4,6.38-.59.15-1.2.38-1.81.33-.38-.03-.76-.12-1.14-.18-.79-.12-1.57-.25-2.36-.38-1.62-.27-3.23-.55-4.85-.84-7.59-1.37-15.13-3-22.6-4.92-8.3-2.13-16.51-4.62-24.53-7.63-7.86-2.95-15.57-6.41-22.77-10.74-6.41-3.86-12.53-8.46-17.3-14.27-2.14-2.61-3.99-5.48-5.36-8.57-2.01-4.52-2.97-9.55-3.93-14.38-1.27-6.35-2.11-12.78-2.63-19.23-.49-6.16-.86-12.42-.79-18.6.06-5.35.91-10.89,4.32-15.2,2.33-2.95,5.45-5.25,8.78-6.95,6.61-3.37,15.6-4.89,21.92-.08,1.63,1.24,2.93,2.83,3.95,4.6.04-.17.09-.34.13-.51-2.2,1.67-3.12,4.3-4.83,6.39-.14.17-.14.36,0,.53,1.18,1.37,2.85,1.79,4.56,2.13,1.94.38,3.79.83,4.57,2.86.06-.14.11-.28.17-.42-4.36,3.06-5.07,9.53-3.06,14.17,2.31,5.35,7.42,8.6,12.97,9.75,5.54,1.15,11.1.39,16.68.68,5.36.28,10.66,1.33,15.83,2.75,12.21,3.34,23.88,8.68,34.84,14.95,11.11,6.35,21.73,13.81,31,22.64,5.31,5.06,10.17,10.61,15.21,15.93,5.7,6.02,11.4,12.03,16.99,18.15,1.38,1.51,2.74,3.02,4.1,4.54.32.36.85-.17.53-.53-5.42-6.06-10.98-11.99-16.56-17.89-5.42-5.73-10.77-11.53-16.22-17.22-8.44-8.82-18.35-16.25-28.68-22.69-10.67-6.65-22.04-12.34-33.94-16.42-5.23-1.79-10.59-3.27-16.05-4.17-2.4-.39-4.82-.68-7.25-.79-2.61-.12-5.21.06-7.81.07-5.75.02-12.07-.59-16.66-4.42-4.5-3.75-6.86-10.23-4.14-15.73.61-1.24,1.48-2.31,2.62-3.11.13-.09.23-.26.17-.42-.69-1.8-2.07-2.71-3.9-3.14-1.94-.46-4.04-.56-5.42-2.18v.53c1.64-2.02,2.56-4.67,4.68-6.27.16-.12.25-.32.13-.51-1.94-3.37-4.93-5.94-8.65-7.15-3.64-1.18-7.6-1.05-11.3-.2C13.11,2.35,5.4,7.07,2.2,14.12-.24,19.51-.11,25.58.11,31.37c.26,6.56.55,13.1,1.3,19.62.74,6.45,1.84,12.87,3.39,19.18.96,3.94,2.09,7.73,4.08,11.28,3.57,6.37,8.96,11.54,14.79,15.83,6.75,4.96,14.25,8.85,21.92,12.15,8.09,3.48,16.44,6.32,24.91,8.75,8,2.29,16.11,4.22,24.27,5.84,3.5.7,7.01,1.34,10.53,1.92,1.58.26,3.34.81,4.91.43,2.83-.68,5.57-1.63,8.25-2.76,5-2.12,9.7-4.87,14.65-7.1,2.51-1.13,5.1-2.1,7.78-2.76,2.82-.69,5.7-1.09,8.52-1.79,2.6-.64,5.12-1.58,7.32-3.14-.17-.04-.34-.09-.51-.13,4.44,7.6,9.71,14.69,14,22.38.09.16.35.25.51.13,5.49-4,11.61-7.3,18.44-8.16.5-.1.5-.85.02-.79Z"/>
      <line class="cls-1" x1="184.69" y1="123.54" x2="164.7" y2="99.97"/>
      <line class="cls-1" x1="180.95" y1="124.83" x2="162.53" y2="102.49"/>
      <line class="cls-1" x1="177.33" y1="126.55" x2="160.22" y2="104.97"/>
      <line class="cls-1" x1="173.74" y1="128.65" x2="157.78" y2="107.39"/>
      <path d="m61.13,9.56c-2.59-.65-5.07-.05-7.23,1.47-2.21,1.55-3.96,3.64-5.89,5.5-1.11,1.07-2.29,2.07-3.64,2.81.18.07.37.15.55.22-.7-1.89-2.2-2.76-4.09-3.19-1.87-.42-3.91-.57-5.23-2.13v.53c1.45-1.76,2.29-4.02,3.92-5.62,1.41-1.39,3.32-2.39,5.17-3.03,3.54-1.23,7.58-1.31,11.08.14,1.96.82,3.69,2.14,4.95,3.86.28.39.93.01.65-.38-4.89-6.7-15.07-6.66-21.33-1.99-2.28,1.7-3.2,4.35-4.96,6.49-.14.17-.14.36,0,.53,1.21,1.44,3,1.82,4.76,2.16,1.87.36,3.64.87,4.37,2.82.09.23.32.35.55.22,2.27-1.24,4.06-3.16,5.85-4.99,1.74-1.77,3.6-3.7,5.99-4.55,1.42-.51,2.9-.53,4.36-.16.43.13.63-.59.17-.71Z"/>
      <g>
        <path d="m24.47,16.02c-1.29.32-2.54.02-3.41-1.02-.81-.97-1.04-2.16-.71-3.38.29-1.12,1.31-2.31,2.54-2.32.73-.01,1.45.37,2.02.81.64.49,1.01,1.15,1.15,1.94.24,1.36-.13,3.39-1.59,3.97-.44.18-.25.9.2.72,1.56-.62,2.25-2.41,2.21-3.99-.03-.94-.25-1.88-.87-2.62-.57-.69-1.46-1.25-2.32-1.48-1.65-.43-3.04.64-3.78,2.04-.36.67-.48,1.51-.45,2.26.03.76.29,1.44.7,2.07.45.69,1.06,1.26,1.82,1.59.86.36,1.79.35,2.69.13.47-.12.27-.84-.2-.72Z"/>
        <path d="m24.37,11.58c-.2-.36-.56-.66-.96-.74-.36-.07-.73.03-1.02.26-.49.38-.68,1.02-.68,1.61,0,.55.14,1.25.58,1.62.52.44,1.27.37,1.76-.09.31-.29.46-.7.53-1.11.09-.53,0-1.04-.21-1.55-.08-.19-.35-.23-.51-.13-.19.11-.22.33-.13.51.13.31.17.6.13.93.01-.06-.01.08-.01.07-.01.04-.02.09-.03.13-.02.07-.04.14-.06.22-.01.04-.02.07-.04.11-.04.1.04-.05-.02.04-.03.06-.06.11-.1.17.05-.07-.01.01-.02.02-.02.02-.04.04-.06.07-.02.02-.04.04-.07.06.01-.01.06-.04.01-.01s-.1.06-.15.08c.08-.04.01,0-.01,0-.03.01-.05.02-.08.02-.03.01-.05.01-.08.02.1-.02.02,0-.01,0h-.13c.1,0,.02,0,0,0-.03-.01-.05-.01-.08-.02-.02-.01-.1-.04-.01,0-.02-.01-.05-.02-.07-.04-.02-.01-.04-.03-.07-.04.08.05.01,0-.01-.01-.02-.02-.1-.13-.05-.05-.03-.05-.06-.09-.09-.14-.01-.02-.02-.04-.03-.06-.04-.09.02.05-.01-.02-.04-.1-.07-.19-.09-.29-.01-.06-.02-.11-.03-.17-.02-.09,0,.06,0,0,0-.03-.01-.07-.01-.1-.01-.11-.01-.22,0-.33,0-.03,0-.06.01-.09,0-.02.02-.12,0-.02.01-.06.02-.12.03-.17.01-.06.03-.11.05-.17.01-.02.06-.16.02-.07.02-.05.05-.1.07-.15.01-.02.02-.03.03-.05s.08-.11.02-.03c.04-.04.08-.09.12-.13.02-.02.03-.03.05-.04-.08.07.01-.01.03-.02.02-.01.05-.03.07-.04.02-.01.09-.03.01-.01.03-.01.05-.02.08-.03.02,0,.14-.02.07-.02h.11c-.07-.01.03.01.05.01,0,0,.12.04.05.01.05.02.09.05.13.07.03.02.08.06.13.12.06.06.07.08.12.17.1.18.34.24.51.13.21-.1.26-.33.16-.51Z"/>
      </g>
      <g>
        <path d="m165.34,98.49c-1.83,2.63-4.13,4.99-6.39,7.25-1.06,1.06-2.13,2.15-3.4,2.96-1.74,1.1-3.69,1.81-5.67,2.34-2,.53-4.04.89-6.07,1.29s-4.02,1-6.08,1.25c-3.99.5-7.99.82-12.01,1.01-8.17.39-16.49.35-24.6-.88-8.35-1.27-16.59-3.97-24.32-7.33-8.15-3.54-15.88-8.02-23.1-13.19-.89-.64-1.77-1.29-2.65-1.95-.06.23-.13.47-.19.7,1.76-.09,3.58-.73,4.54-2.31,1-1.63.67-3.61-.07-5.27-.14.18-.28.37-.42.55,4.46.96,8.21-4.08,5.96-8.06-.11.19-.22.38-.32.56,4.32.2,6.8-5.15,4.11-8.42-.09.21-.18.43-.27.64,2.29.2,4.49-.9,5.65-2.9,1.17-2.02,1.05-4.49-.19-6.45-.11.19-.22.38-.32.56,4.91.22,9.81-2.79,12.7-6.61-.14.06-.28.11-.42.17,5.94,1.37,11.38,4.32,16.45,7.62,5.1,3.32,9.9,7.07,14.9,10.54,10.42,7.22,21.34,13.81,32.86,19.12,6.33,2.92,12.85,5.44,19.55,7.36.46.13.66-.59.2-.72-12.22-3.5-23.81-8.97-34.79-15.31-5.45-3.14-10.76-6.52-15.95-10.07-5.03-3.44-9.86-7.18-14.91-10.59-5.55-3.74-11.53-7.15-18.11-8.68-.18-.04-.32.03-.42.17-2.72,3.61-7.42,6.45-12.05,6.24-.28-.01-.47.33-.32.56,1.1,1.73,1.23,3.9.19,5.69s-2.96,2.7-5,2.53c-.36-.03-.45.42-.27.64,2.31,2.8.03,7.31-3.58,7.14-.29-.01-.46.33-.32.56,1.91,3.4-1.29,7.79-5.12,6.96-.34-.07-.56.25-.42.55.63,1.41.93,3.12.07,4.51-.82,1.34-2.4,1.86-3.9,1.94-.39.02-.48.48-.19.7,7.23,5.44,14.98,10.19,23.2,14,7.95,3.68,16.39,6.6,25.01,8.21,7.99,1.48,16.26,1.62,24.36,1.35,4.16-.14,8.31-.42,12.44-.87.99-.11,1.97-.23,2.96-.36.98-.13,1.91-.42,2.87-.64,2.06-.47,4.14-.82,6.2-1.25,3.7-.78,7.36-1.93,10.2-4.54,2.49-2.28,4.83-4.79,6.95-7.42.39-.49.78-.98,1.13-1.49.26-.38-.39-.75-.66-.36Z"/>
        <path d="m69.26,60.73c.9.92,2.23,1.38,3.44,1.74,1.79.52,3.65.8,5.51.98,4.36.42,8.85.31,13.16-.47,2.01-.36,4.04-.89,5.85-1.84.43-.23.05-.87-.38-.65-3.37,1.78-7.5,2.19-11.24,2.38-3.95.19-8.06.05-11.91-.9-1.33-.33-2.9-.75-3.9-1.76-.34-.35-.87.18-.53.52h0Z"/>
        <path d="m64.2,69.57c2.8,2,5.89,3.65,9.27,4.42,3.4.78,6.93.59,10.27-.37,2.28-.65,4.46-1.64,6.53-2.78-.15-.02-.3-.04-.45-.06,4.84,5.75,12.76,6.38,19.69,4.98,2.05-.41,4.07-1.01,6.03-1.73.45-.17.25-.89-.2-.72-6.31,2.33-14.09,3.72-20.38.59-1.78-.89-3.32-2.13-4.6-3.64-.11-.13-.32-.13-.45-.06-3.38,1.87-7.07,3.29-10.95,3.51-3.25.19-6.46-.5-9.41-1.85-1.75-.8-3.39-1.81-4.95-2.93-.42-.29-.79.36-.4.64h0Z"/>
        <path d="m60.28,77.3c5.99,4.87,14.58,5.81,21.88,3.88,2.12-.56,4.18-1.38,6.09-2.47-.15-.02-.3-.04-.45-.06,4.11,3.53,9.39,5.51,14.66,6.51,5.66,1.07,11.58,1.08,17.21-.16,2.9-.64,5.74-1.63,8.32-3.12.42-.24.04-.89-.38-.65-4.65,2.67-10.13,3.76-15.45,3.93-5.55.17-11.21-.65-16.39-2.69-2.68-1.06-5.25-2.48-7.44-4.36-.13-.11-.3-.15-.45-.06-6.46,3.67-14.78,4.35-21.75,1.72-1.91-.72-3.72-1.73-5.31-3.02-.38-.28-.92.24-.54.55h0Z"/>
        <path d="m140.21,88.22c-6.61,3.01-13.7,5-20.92,5.76-7.13.75-14.41.3-21.32-1.65-3.91-1.1-7.67-2.68-11.19-4.71-.12-.07-.26-.07-.38,0-3.61,2.18-7.96,2.86-12.13,2.84-1.05-.01-2.29-.03-3.23-.13-.19-.02-.74-.12-1.07-.16-.67-.08-1.33-.19-1.99-.31-2.2-.4-4.37-1-6.44-1.83-2.26-.9-4.46-2.11-6.27-3.75-.36-.32-.89.21-.53.53,3.33,3.02,7.79,4.68,12.13,5.6,1.17.25,2.38.49,3.57.57.27.02,0-.05.13-.03.04,0,.08.06.13.07.26.03.51.05.77.08.6.05,1.19.09,1.79.11,2.29.08,4.6-.06,6.86-.49,2.33-.44,4.62-1.21,6.65-2.44h-.38c6.32,3.66,13.39,5.8,20.64,6.52,7.31.73,14.74.03,21.85-1.78,4.01-1.03,7.92-2.42,11.69-4.14.45-.21.07-.86-.36-.66h0Z"/>
        <path d="m150.3,92.93c-9.81,4.14-20.38,6.56-30.97,7.47-10.85.93-21.99.28-32.48-2.8-2.84-.84-5.64-1.85-8.33-3.09-1.29-.59-2.55-1.22-3.79-1.91-.61-.34-1.22-.69-1.82-1.06-.57-.35-1.38-.7-1.85-1.17-.34-.34-.87.19-.53.53.37.37.96.64,1.4.92.59.37,1.2.73,1.8,1.08,1.12.64,2.27,1.24,3.44,1.8,2.34,1.12,4.76,2.09,7.22,2.91,5.17,1.72,10.55,2.79,15.97,3.38,11.13,1.2,22.49.37,33.4-2.06,5.78-1.29,11.46-3.05,16.92-5.36.44-.18.06-.82-.38-.64h0Z"/>
        <path d="m60.38,88.33c4.94,5.38,10.87,9.78,17.42,13.02,6.43,3.19,13.38,5.27,20.45,6.43,7.11,1.16,14.35,1.41,21.53.93,7.05-.47,14.06-1.64,20.89-3.46,6.28-1.67,12.44-3.9,18.27-6.77.66-.33,1.32-.66,1.97-1.01.43-.22.05-.87-.38-.65-5.61,2.95-11.56,5.25-17.64,7.03-6.68,1.95-13.54,3.26-20.47,3.9-7.07.65-14.23.61-21.28-.3-7.1-.92-14.12-2.74-20.66-5.66s-12.57-6.95-17.66-12c-.65-.65-1.29-1.32-1.91-1.99-.33-.36-.86.17-.53.53h0Z"/>
        <path d="m69.2,60.66c1.1,1.73,1.23,3.9.19,5.69s-2.96,2.7-5,2.53c-.36-.03-.45.42-.27.64,2.31,2.8.03,7.31-3.58,7.14-.29-.01-.46.33-.32.56,1.91,3.4-1.29,7.79-5.12,6.96-.34-.07-.56.25-.42.55.55,1.22.85,2.66.35,3.95-.44,1.16-1.48,1.92-2.65,2.26-.33.1-.67.16-1.01.2-.49.06-.72-.2-1.09-.49-.86-.66-1.71-1.32-2.56-2-1.39-1.12-2.82-2.22-4.11-3.47-3.98-3.84-6.96-9.38-7.57-14.91-.29-2.61,0-5.35,1.37-7.64,1.15-1.92,2.97-3.27,4.93-4.3,5.01-2.64,10.93-3.6,16.51-4.19,3.69-.39,7.4-.57,11.11-.58,3.94-.02,7.97-.03,11.83.84-.07-.18-.15-.37-.22-.55-2.72,3.61-7.42,6.45-12.05,6.24-.48-.02-.48.73,0,.75,4.91.22,9.81-2.79,12.7-6.61.14-.19-.01-.5-.22-.55-3.65-.82-7.41-.86-11.13-.87-3.58-.01-7.17.13-10.74.46-6.02.56-12.38,1.5-17.84,4.26-2.12,1.07-4.11,2.51-5.39,4.54-1.47,2.33-1.88,5.18-1.63,7.89.54,5.86,3.65,11.77,7.88,15.82,1.39,1.33,2.93,2.52,4.43,3.71.8.64,1.61,1.27,2.43,1.89.33.25.6.56,1.03.55.37-.01.74-.07,1.1-.15,2.57-.54,4.21-2.67,3.85-5.3-.1-.74-.34-1.44-.65-2.12-.14.18-.28.37-.42.55,4.46.96,8.21-4.08,5.96-8.06-.11.19-.22.38-.32.56,4.32.2,6.8-5.15,4.11-8.42-.09.21-.18.43-.27.64,2.29.2,4.49-.9,5.65-2.9,1.17-2.02,1.05-4.49-.19-6.45-.27-.41-.92-.03-.66.38Z"/>
      </g>
      <path class="cls-1" d="m35.32,14.5c11.8-2.74,16.3-10.27,25.71-4.58"/>
      <path class="cls-1" d="m108.71,126.06c-4.93,5.78-10.36,11.1-15.9,16.32h-9.37c6.14-5.55,12.07-11.36,17.5-17.62,2.77.5,5.37.93,7.77,1.3Z"/>
    </g>
  </g>
</svg>