<?xml version="1.0" encoding="UTF-8"?>
<svg id="Layer_2" data-name="Layer 2" xmlns="http://www.w3.org/2000/svg" viewBox="0 0 62.09 70.42">
  <g id="Layer_1-2" data-name="Layer 1">
    <g>
      <path d="m61.18,69.83c-1.48-3.11-3.37-6.14-5.66-8.72-1.61-1.81-3.55-2.99-5.76-3.92-5.16-2.17-10.71-3.36-16.03-5.07-5.94-1.91-12-4.31-16.75-8.48-2.59-2.28-4.7-5.11-6.49-8.05-1.94-3.19-3.5-6.6-4.77-10.11C3.19,18.45,1.78,11.04,1,3.63c-.09-.87-.17-1.73-.25-2.6-.09.12-.18.24-.28.36,8.51-1.57,17.38-.28,25.21,3.35,6.97,3.23,13.24,8.33,17.63,14.66,3.55,5.12,5.9,11.06,7.87,16.93,1.83,5.45,3.31,11.03,4.43,16.68.19.98.37,1.97.53,2.95.06.38.09.77.17,1.14.15.68.66,1.36,1.03,1.94.99,1.54,2.18,3.01,3.58,4.21.14.12.23.17.28.33.07.19.04.49.06.7.03.47.06.94.07,1.41.02.87,0,1.75-.12,2.61-.06.41-.14,1.19-.55,1.42-.43.23-.05.88.38.65,1-.54.99-2.37,1.03-3.32.04-.92,0-1.84-.05-2.76-.02-.32.03-.9-.14-1.18-.21-.34-.71-.62-1-.9-1.4-1.34-2.61-2.92-3.53-4.62-.45-.84-.48-1.85-.64-2.78-.97-5.52-2.37-10.99-4.04-16.34-1.94-6.17-4.26-12.39-7.69-17.9-3.96-6.37-9.83-11.66-16.42-15.21C21,1.28,12.25-.67,3.68.2c-1.14.12-2.27.28-3.4.49C.13.72,0,.9,0,1.05c.63,7.38,1.83,14.76,4.05,21.84,2.18,6.95,5.4,13.75,10.29,19.22,4.16,4.65,9.95,7.47,15.73,9.58,5.58,2.04,11.39,3.35,17,5.3,2.09.73,4.26,1.55,6.05,2.89,1.28.96,2.33,2.26,3.28,3.54,1.11,1.48,2.11,3.05,3.01,4.66.39.7.77,1.42,1.11,2.15.22.42.87.04.66-.4Z"/>
      <path d="m12.28,13.71c7.25,2.9,11.69,9.8,16.25,15.75,4.58,6.04,9.36,12.1,16.03,15.92l-.03.07c-7.1-3.13-12.13-9.45-16.48-15.64-4.39-6.08-8.85-12.9-15.77-16.1h0Z"/>
    </g>
  </g>
</svg>