<?xml version="1.0" encoding="UTF-8"?>
<svg id="Layer_2" data-name="Layer 2" xmlns="http://www.w3.org/2000/svg" viewBox="0 0 19.6 60.78">
  <defs>
    <style>
      .cls-1 {
        fill: none;
        stroke: #000;
        stroke-miterlimit: 10;
        stroke-width: .75px;
      }
    </style>
  </defs>
  <g id="Layer_1-2" data-name="Layer 1">
    <g>
      <path class="cls-1" d="m9.78,39.05C-.62,39.05-.39,28.02,1.18,23.43c2.04-5.95,5.52-9.49-.38-17.24C2.28,3.86,6.54.91,9.78.38c3.24.52,7.5,3.48,8.98,5.81-5.9,7.75-2.42,11.28-.38,17.24,1.57,4.59,2.07,15.62-8.6,15.62Z"/>
      <path d="m11.84,33.8c6.13-5.88-1.95-18.56.81-25.4.29-.53.73-.97,1.26-1.22-.49.33-.85.79-1.09,1.31-1.07,3.96.7,8.05,1.26,12,.66,4.33,1.84,10.28-2.24,13.31h0Z"/>
      <path d="m8.48,34.11c-4.23-2.84-3.34-8.83-2.89-13.19.37-3.97,1.94-8.15.67-12.04-.26-.51-.64-.95-1.15-1.26.54.23,1.01.64,1.32,1.16,3.09,6.69-4.36,19.76,2.05,25.33h0Z"/>
      <path d="m17.84,59.63c-1.73.13-3.46.26-5.19.4.11.06.22.12.32.19-3.85-6.3-4.44-14-3.77-21.2-.12.12-.25.25-.38.38.86.06,1.73.04,2.59-.06-.12-.12-.25-.25-.38-.38.24,7.51,1.94,15.1,6.48,21.24.28.38.94.01.65-.38-4.46-6.03-6.14-13.47-6.37-20.86-.01-.18-.17-.4-.38-.38-.86.1-1.72.12-2.59.06-.22,0-.36.18-.38.38-.69,7.32-.04,15.17,3.87,21.57.07.11.19.2.32.19,1.73-.13,3.46-.26,5.19-.4.5-.04.5-.79.02-.75Z"/>
    </g>
  </g>
</svg>