<?xml version="1.0" encoding="UTF-8"?>
<svg id="Layer_2" data-name="Layer 2" xmlns="http://www.w3.org/2000/svg" viewBox="0 0 32.26 58.06">
  <g id="Layer_1-2" data-name="Layer 1">
    <g>
      <path d="m1.02,30.92C3.16,21.86,6.48,12.7,5.36,3.26c-.19.11-.38.22-.56.32,1.99,1.12,3.8,2.55,5.4,4.18-.02-.15-.04-.3-.06-.45-1.24,2.93.19,6.1-.08,9.14-.26,2.96-1.5,5.71-2.4,8.51-1.47,4.58-1.64,10.07,1.55,14,1.51,1.86,3.69,2.95,6.08,3.05-.06-.23-.13-.47-.19-.7-2.58,1.71-5.75,2.11-8.62.87-2.55-1.1-4.54-3.34-5.34-6-.52-1.71-.52-3.52-.12-5.26.11-.47-.62-.67-.72-.2-.72,3.18-.14,6.51,1.9,9.09,1.84,2.33,4.69,3.82,7.67,3.87,2.01.03,3.94-.61,5.61-1.71.31-.21.19-.68-.19-.7-4.58-.2-7.28-4.3-7.81-8.51-.31-2.51.08-5,.83-7.4.82-2.61,1.95-5.15,2.36-7.87.23-1.52.19-3.01-.02-4.53-.24-1.74-.59-3.59.12-5.27.07-.16.07-.32-.06-.45-1.64-1.67-3.51-3.14-5.55-4.29-.22-.13-.6.03-.56.32C5.72,12.65,2.42,21.74.29,30.73c-.11.46.62.66.73.19Z"/>
      <path d="m3.17,54.51c2.64-1.61,4.89-3.86,6.77-6.3.99-1.28,1.88-2.63,2.64-4.06.14-.26.28-.78.51-.97.24-.21.77-.3,1.06-.44.38-.18.75-.49,1.14-.64.41-.15.96-.09,1.4-.14l-.38-.38c0,.87,0,1.74,0,2.6,0,.14.04.35,0,.48-.06.21-.37.57-.52.8-.56.9-1.14,1.79-1.75,2.65-2.4,3.41-5.2,6.53-8.31,9.31h.53c-1.01-1.17-2.03-2.34-3.04-3.51-.32-.37-.85.17-.53.53,1.01,1.17,2.03,2.34,3.04,3.51.14.16.39.13.53,0,3.19-2.84,6.04-6.05,8.49-9.55.63-.9,1.23-1.82,1.8-2.75.28-.46.5-.77.5-1.3,0-.93,0-1.86,0-2.78,0-.19-.17-.4-.38-.38-.44.05-.98-.03-1.41.07-.34.08-.63.34-.94.52-.4.23-.82.43-1.26.59-.36.13-.52.14-.7.49-.77,1.45-1.55,2.86-2.51,4.19-1.92,2.64-4.28,5.1-7.08,6.81-.39.25,0,.9.4.65Z"/>
      <path d="m31.95,30.72c-2.13-9-5.43-18.08-4.31-27.46.04-.3-.34-.45-.56-.32-2.04,1.15-3.91,2.62-5.55,4.29-.13.13-.13.3-.06.45.63,1.5.42,3.14.2,4.71-.19,1.39-.35,2.76-.22,4.16.26,2.72,1.28,5.25,2.16,7.82.83,2.44,1.41,4.92,1.24,7.51-.14,2.19-.78,4.41-2.07,6.21-1.38,1.9-3.46,3.07-5.81,3.18-.38.02-.5.49-.19.7,2.77,1.84,6.21,2.23,9.28.91,2.77-1.19,4.91-3.61,5.78-6.49.55-1.85.53-3.8.11-5.67-.11-.47-.83-.27-.72.2.67,2.96.12,6.09-1.8,8.48-1.71,2.12-4.31,3.48-7.04,3.53-1.88.03-3.67-.57-5.23-1.61-.06.23-.13.47-.19.7,4.61-.2,7.61-4.01,8.41-8.3.48-2.59.24-5.23-.48-7.75-.8-2.8-2.06-5.48-2.55-8.36-.32-1.85-.14-3.61.11-5.45.22-1.65.32-3.27-.34-4.84-.02.15-.04.3-.06.45,1.59-1.63,3.41-3.06,5.4-4.18-.19-.11-.38-.22-.56-.32-1.12,9.45,2.19,18.61,4.34,27.66.1.46.82.26.71-.21Z"/>
      <path d="m16.96,41.27c-1.35.04-2.7.02-3.99-.44-1.21-.44-2.27-1.23-3.1-2.21-1.86-2.18-2.56-5.18-2.51-7.99.06-3.48,1.49-6.63,2.52-9.89.51-1.63.9-3.31.96-5.02.06-1.91-.52-3.74-.55-5.64-.03-2.07,1.21-3.93,2.46-5.5,1.23-1.56,2.73-2.89,4.46-3.88-.15-.02-.3-.04-.45-.06,1.18,1.38,2.33,2.8,3.3,4.34.96,1.53,1.81,3.16,1.82,5.01,0,1.74-.46,3.45-.48,5.19-.02,1.58.27,3.15.69,4.66.88,3.11,2.34,6.07,2.69,9.31.29,2.65-.04,5.46-1.31,7.84-1.33,2.46-3.66,4.15-6.51,4.28-.48.02-.48.77,0,.75,5.66-.24,8.58-5.72,8.66-10.85.06-3.39-1.15-6.49-2.22-9.65-.57-1.68-1.08-3.4-1.22-5.17-.15-1.89.29-3.71.41-5.58.28-4.15-2.78-7.69-5.31-10.66-.11-.13-.32-.14-.45-.06-1.55.88-2.93,2.03-4.1,3.38-1.14,1.31-2.28,2.86-2.87,4.51-.67,1.87-.11,3.86.13,5.75.26,2.02-.01,4.02-.56,5.96-.98,3.49-2.61,6.77-2.8,10.44-.16,2.96.48,6.11,2.27,8.53.87,1.18,2.01,2.16,3.36,2.75,1.49.66,3.08.72,4.69.67.49-.04.49-.79,0-.77Z"/>
    </g>
  </g>
</svg>