<?xml version="1.0" encoding="UTF-8"?>
<svg id="Layer_2" data-name="Layer 2" xmlns="http://www.w3.org/2000/svg" viewBox="0 0 49.68 45.2">
  <defs>
    <style>
      .cls-1 {
        fill: none;
        stroke: #000;
        stroke-miterlimit: 10;
        stroke-width: .75px;
      }
    </style>
  </defs>
  <g id="Layer_1-2" data-name="Layer 1">
    <g>
      <path d="m29.68,25.18c-1.25,2.6-4.18,4.63-7.12,4.46-3.1-.18-5.2-2.96-5.91-5.76-.82-3.25.71-6.45,3.63-8.04,2.42-1.32,5.78-1.67,7.91.38,2.32,2.25,2.81,6.1,1.49,8.96-.2.44.45.82.65.38,1.34-2.92,1.02-6.53-.95-9.11-2-2.62-5.37-2.9-8.3-1.78-3.23,1.23-5.64,4.3-5.41,7.84.22,3.25,2.26,6.74,5.54,7.67,3.58,1.01,7.57-1.4,9.12-4.61.21-.44-.44-.82-.65-.39Z"/>
      <path d="m44.43,13.07c-4.32,1.41-8.65,2.83-12.9,4.46-.24.09-.48.18-.72.28-.13.05-.27.11-.4.16-.27.04-.27.12,0,.26.05-.03-.44-.92-.48-.98-.39-.67-.88-1.29-1.46-1.79-1.24-1.06-2.8-1.5-4.42-1.41.12.09.24.18.36.28-.49-3.53-.82-7.11-.89-10.68-.03-1.33.77-2.55,2.12-2.83.6-.12,1.28-.04,1.89-.02.68.03,1.36.07,2.04.13,4.95.43,10.27,1.76,13.96,5.28.97.92,2.04,2.09,2.53,3.35.56,1.41-.2,3-1.62,3.51-.45.16-.26.89.2.72,1.2-.43,2.1-1.4,2.31-2.68.24-1.41-.5-2.59-1.31-3.68-1.68-2.23-3.98-3.88-6.52-5-2.69-1.18-5.57-1.83-8.48-2.16C29.17.1,27.68,0,26.2,0c-1.29.01-2.5.71-3.08,1.88-.4.8-.37,1.61-.34,2.48.04,1.13.1,2.27.18,3.4.16,2.26.4,4.51.71,6.75.02.15.21.28.36.28,1.71-.09,3.29.46,4.45,1.74.3.33.56.7.79,1.1.18.32.29.77.51,1.05.19.24.36.19.63.09.52-.18,1.02-.4,1.53-.6,4.18-1.6,8.44-2.99,12.69-4.39.45-.14.26-.86-.2-.71Z"/>
      <path d="m47.44,32.16c-.35.84-.72,1.81-1.51,2.33-.59.39-1.34.53-2.03.38-.86-.18-1.5-.83-2.18-1.36-.74-.57-1.48-1.14-2.22-1.7-3.06-2.31-6.2-4.52-9.3-6.76.04.17.09.34.13.51,1.05-2.28,1.11-4.95.1-7.26-.07.18-.15.37-.22.55,2.34-.94,4.72-1.8,7.1-2.62,2.43-.84,4.88-1.72,7.35-2.45,1-.3,2.08-.06,2.8.72.74.81.82,2.01.99,3.04.38,2.38.54,4.8.43,7.21-.11,2.53-.51,5.06-1.44,7.41-.18.45.55.64.72.2,1.82-4.55,1.79-9.81,1.07-14.59-.16-1.1-.25-2.39-.88-3.33-.51-.76-1.3-1.31-2.2-1.48-1.12-.21-2.16.25-3.2.6-1.36.45-2.71.89-4.07,1.35-2.98,1.01-5.95,2.05-8.87,3.22-.24.1-.33.31-.22.55.89,2.04.82,4.49-.1,6.5-.09.2-.04.38.13.51,3.53,2.55,7.09,5.06,10.55,7.71,1.36,1.05,2.67,2.49,4.54,2.24,1.83-.25,2.61-1.73,3.25-3.29.18-.44-.54-.63-.72-.19Z"/>
      <path class="cls-1" d="m24.04,14.42s-.09,0-.13,0c-2.06.17-4.1.94-5.57,2.4-.45.43-.84.89-1.17,1.38-2.75-1.31-5.58-2.61-8.3-3.98l-1.41-.7c-1.91-.95-2.27-3.43-.69-4.96,3.56-3.44,7.72-6.12,12.62-7.53,1.86-.53,3.69.93,3.75,2.86.11,3.51.41,7.02.9,10.52Z"/>
      <path class="cls-1" d="m23.74,44.82c-4.07-.07-10.19-1.63-14.71-3.73-1.83-.85-2.31-3.25-.96-4.76l.8-.9c2.95-2.88,5.63-6.06,8.25-9.28,1.42,2.76,3.98,4.28,6.84,3.8.92,3.7,1.84,7.4,2.76,11.1.47,1.92-.99,3.8-2.98,3.77Z"/>
      <path d="m42.12,38.98c-2.92,2.27-6.39,3.72-9.97,4.56-.81.19-1.72.49-2.55.39-.82-.1-1.57-.59-1.99-1.3-.47-.8-.58-1.88-.8-2.77-.25-1.01-.5-2.01-.75-3.02-.58-2.33-1.16-4.67-1.74-7-.09.15-.17.31-.26.46,2.65-.47,5.1-2.32,6.27-4.74-.17.04-.34.09-.51.13,2.89,2.1,5.81,4.15,8.67,6.29.68.51,1.36,1.02,2.04,1.54.69.53,1.55,1.04,2.08,1.74.88,1.19.61,2.8-.49,3.72-.37.31.16.84.53.53,1.07-.89,1.51-2.34,1.08-3.67-.24-.74-.7-1.29-1.29-1.76-.77-.61-1.55-1.21-2.33-1.8-3.25-2.47-6.6-4.83-9.91-7.22-.16-.11-.43-.04-.51.13-1.09,2.27-3.34,3.96-5.82,4.4-.2.04-.31.28-.26.46.57,2.29,1.14,4.58,1.71,6.88.28,1.13.56,2.25.84,3.38.23.94.36,2.02.9,2.85.9,1.36,2.41,1.7,3.93,1.41,2.01-.39,3.98-.95,5.87-1.73,2.07-.85,4.02-1.95,5.79-3.32.38-.31-.16-.84-.53-.54Z"/>
      <path class="cls-1" d="m16.72,25.3c.12.29.25.57.39.84-2.65,3.44-5.81,6.65-8.76,9.94-1.39,1.55-3.92,1.28-4.92-.55C.2,29.62-.59,22.51,1.66,14.49c.54-1.92,2.71-2.83,4.44-1.85,3.6,2.03,7.62,4.01,11.06,5.56-1.3,1.99-1.52,4.43-.44,7.1Z"/>
    </g>
  </g>
</svg>