<?xml version="1.0" encoding="UTF-8"?>
<svg id="Layer_2" data-name="Layer 2" xmlns="http://www.w3.org/2000/svg" viewBox="0 0 263.39 197.91">
  <defs>
    <style>
      .cls-1 {
        fill: none;
        stroke: #000;
        stroke-miterlimit: 10;
        stroke-width: .75px;
      }
    </style>
  </defs>
  <g id="Layer_1-2" data-name="Layer 1">
    <g>
      <path d="m263.1,68.03c-2.12-.36-4.31-.14-6.41.27-2.55.5-5.03,1.33-7.41,2.35-2.4,1.03-4.73,2.29-6.85,3.83-1.71,1.24-3.35,2.69-4.49,4.49-.55.88-.86,1.82-1.16,2.81-.38,1.27-.76,2.54-1.14,3.81-.78,2.63-1.58,5.27-2.45,7.87-1.67,4.98-3.65,9.94-6.65,14.28-3.32,4.8-7.95,8.35-13.67,9.73.12.03.24.06.36.1-4.44-4.1-9.92-6.92-15.63-8.78-5.97-1.95-12.29-2.91-18.57-2.91-3.29,0-6.58.29-9.81.91.15.15.31.31.46.46,1.41-3.71,2.21-7.63,2.19-11.61-.02-4.32-.98-8.64-2.66-12.61-.93-2.2-2.2-4.22-3.68-6.09.02.15.04.3.06.45,4.05-6.2,8.54-12.19,13.97-17.27,5-4.69,10.82-8.47,17.29-10.77,7.51-2.66,15.56-3.28,23.47-2.7,7.8.57,15.12,3.26,21.89,7.11,6.58,3.75,12.58,8.43,18.45,13.19.69.56,1.39,1.13,2.08,1.69.37.3.9-.23.53-.53-5.92-4.83-11.88-9.65-18.4-13.65-6.58-4.03-13.79-7.22-21.48-8.26-7.99-1.08-16.46-.66-24.22,1.61-6.69,1.96-12.8,5.42-18.09,9.94-5.62,4.8-10.29,10.64-14.44,16.73-.57.84-1.13,1.68-1.69,2.53-.1.15-.04.33.06.45,5.1,6.45,7.09,15.35,5.68,23.42-.37,2.11-.96,4.17-1.72,6.16-.11.29.21.51.46.46,8.68-1.67,17.92-.98,26.38,1.51,4.33,1.27,8.52,3.06,12.31,5.53.9.59,1.78,1.21,2.62,1.88.41.32.81.65,1.2.99.32.28.68.81,1.13.78.43-.02.95-.24,1.37-.37.49-.15.98-.31,1.46-.5.89-.34,1.75-.73,2.59-1.17,6.83-3.64,10.84-10.61,13.63-17.56,1.53-3.82,2.74-7.75,3.92-11.69.59-1.96,1.14-3.93,1.76-5.87.45-1.41,1.37-2.61,2.39-3.66,2.62-2.69,6.06-4.62,9.48-6.09,3.45-1.48,7.26-2.65,11.04-2.7.74-.01,1.47.03,2.2.15.47.1.67-.62.19-.7Z"/>
      <path d="m212.7,118.11c4.72,4.4,7.78,10.21,8.24,16.69.46,6.65-1.55,13.41-4.53,19.29-2.66,5.26-6.25,9.97-10.02,14.48-3.55,4.24-7.29,8.33-10.52,12.82-3.07,4.24-5.64,8.91-6.79,14.06-.15.66-.27,1.32-.37,1.98.21-.06.42-.11.63-.17-5.64-5.08-12.24-8.75-18.8-12.48-6.1-3.47-12.2-7.2-16.64-12.75-5.14-6.42-7.61-14.67-7.75-22.82-.07-4.18.45-8.36,1.47-12.42.53-2.09,1.18-4.16,1.96-6.17.4-1.04.84-2.07,1.31-3.08.25-.53.47-.6.98-.84.41-.19.82-.39,1.23-.6,6.71-3.42,12-9.04,15.26-15.8.49-1,.93-2.03,1.33-3.07-.09.09-.17.17-.26.26,5.77-1.11,11.74-1.13,17.56-.36,6.08.81,12.13,2.51,17.59,5.33,2.92,1.55,5.69,3.41,8.12,5.65.35.33.89-.2.53-.53-7.54-6.96-17.96-10.34-28.01-11.37-4.97-.51-10.02-.44-14.95.4-.44.07-1.08.04-1.32.45-.22.37-.34.85-.5,1.24-.19.44-.39.88-.59,1.32-.64,1.36-1.36,2.68-2.15,3.95-1.5,2.38-3.28,4.57-5.32,6.5-1.91,1.8-4.03,3.37-6.31,4.67-.53.3-1.07.59-1.61.86-.3.15-.6.29-.9.43-.28.13-.73.23-.95.44-.21.19-.31.55-.43.81-.17.37-.34.74-.5,1.12-.31.71-.6,1.42-.88,2.14-2.18,5.68-3.41,11.75-3.43,17.84-.01,5.82,1.11,11.64,3.53,16.94,2.27,4.97,5.66,9.24,9.88,12.7,3.94,3.23,8.38,5.75,12.8,8.24,4.78,2.7,9.56,5.42,13.91,8.79,1.13.88,2.23,1.8,3.29,2.76.19.17.58.13.63-.17.83-5.35,3.19-10.22,6.24-14.65,3.2-4.65,7.02-8.84,10.65-13.15,3.78-4.49,7.43-9.14,10.21-14.33,3.08-5.75,5.25-12.32,5.23-18.89-.02-6.49-2.48-12.62-6.87-17.38-.53-.57-1.08-1.12-1.65-1.65-.35-.34-.88.19-.53.52Z"/>
      <path d="m150.51,126.57c-4.48,9.45-6.4,20.3-4.25,30.63.58,2.8,1.47,5.52,2.65,8.12.02-.15.04-.3.06-.45-3.96,4.11-8.93,7.03-14.29,8.96-5.38,1.93-11.05,2.94-16.71,3.6-5.53.65-11.09.95-16.63,1.46-4.67.43-9.45.93-13.92,2.42-3.55,1.18-6.94,3.12-8.93,6.39-.24.4-.46.81-.65,1.23h.65c-4.23-5.69-9.01-11-12.78-17.03-1.84-2.94-3.4-6.06-4.42-9.38-1.09-3.54-1.54-7.24-1.38-10.93.18-4.03,1.08-7.98,2.12-11.87.92-3.43,2.03-6.81,3.39-10.1,2.61-6.29,6.22-12.29,11.25-16.94,2.46-2.27,5.25-4.18,8.28-5.61.37-.18.75-.35,1.13-.51.4-.17.91-.47,1.35-.5.49-.04,1.13.2,1.62.29.54.09,1.08.17,1.63.24,2.25.29,4.52.38,6.78.23,1.12-.07,2.23-.21,3.34-.39-.15-.09-.31-.17-.46-.26,2.31,7.05,7.45,12.65,13.52,16.75,7.03,4.75,15.31,7.37,23.82,7.1,4.59-.14,9.12-1.13,13.34-2.93.44-.19.06-.83-.38-.65-7.41,3.15-15.8,3.63-23.58,1.67-7.79-1.96-15.21-6.45-20.48-12.53-2.44-2.82-4.36-6.07-5.52-9.61-.07-.21-.25-.3-.46-.26-2.38.38-4.79.51-7.2.38-1.19-.06-2.39-.19-3.57-.37-.55-.09-1.1-.18-1.64-.29-.23-.05-.56-.18-.8-.16-.21,0-.42.13-.61.2-3.16,1.23-6.11,2.94-8.76,5.06-5.36,4.29-9.31,10.12-12.19,16.31-1.5,3.23-2.74,6.59-3.77,10-1.11,3.69-2.1,7.49-2.61,11.31-.52,3.91-.45,7.89.37,11.76.73,3.42,2.03,6.7,3.7,9.77,3.43,6.31,8.24,11.73,12.6,17.39.57.74,1.14,1.49,1.7,2.25.15.2.52.28.65,0,1.61-3.47,4.74-5.66,8.25-6.97,4.37-1.62,9.09-2.17,13.7-2.62,5.46-.53,10.94-.82,16.39-1.41,5.64-.62,11.29-1.52,16.7-3.29,5.28-1.73,10.3-4.33,14.42-8.1.54-.49,1.05-1,1.56-1.52.13-.13.13-.3.06-.45-4.2-9.27-4.3-19.92-1.56-29.61.81-2.88,1.88-5.68,3.16-8.38.22-.45-.43-.84-.64-.4Z"/>
      <path class="cls-1" d="m183.84,13.94l22.26-6.16c-4.2,11.85-8.77,28.01-8.47,40.92-13.67,4.54-23.36,14.72-32.36,28.51-7.39-9.27-21.3-15.13-33.32-14.57,1.77-8.51,5.79-16.18,11.25-22.88,10.26-12.54,24.77-20.72,40.64-25.82Z"/>
      <path class="cls-1" d="m87.4,105.63c-15.79,5.82-23.46,22.46-27.03,39.43-.44,2.1-.7,4.09-.81,6-8.65,2.07-17.05-.61-26.52-5.33-9.2-4.59-15.7-10.32-31.47-12.01,8.12-3.17,26.72-27.03,36.6-34.23,8.94-6.51,16.56-7.66,25.77-6.6,6.75,6.05,14.86,10.85,23.46,12.74Z"/>
      <path class="cls-1" d="m116.39,68.03c-11.75,8.01-20.38,23.66-15.68,38.02-4.49.74-8.96.53-13.31-.43-8.6-1.89-16.7-6.69-23.45-12.75-3.79-3.41-7.15-7.2-9.92-11.1-7.47-10.53-13.51-33.81-16.46-41.17,14.15,4.67,31.65.81,41.1,3.65,2.71.76,5.4,1.74,8.07,2.97,10.55,4.86,22.22,10.78,29.65,20.81Z"/>
      <path class="cls-1" d="m88.41,1.06c15.58,14.94,43.05,20.15,54.79,38.7h0c-5.46,6.71-9.48,14.38-11.25,22.89-3.12.15-6.12.73-8.84,1.8-2.31.9-4.56,2.12-6.72,3.59-7.43-10.04-19.09-15.96-29.65-20.8-2.67-1.22-5.36-2.21-8.07-2.97-1.24-7.14.85-15.38,3.25-21.73,2.93-7.02,7.76-13.99,6.49-21.48Z"/>
      <path d="m168.69,83.73c1.85,4.69,2.77,9.69,2.31,14.73-.41,4.59-1.93,9.04-4.12,13.09-3.51,6.5-9.05,11.7-15.8,14.71-6.46,2.88-13.79,3.67-20.76,2.53-7.51-1.23-14.54-4.72-20.26-9.73-4.99-4.37-8.74-10.08-9.9-16.68-1.02-5.82.03-11.85,2.4-17.22,2.4-5.42,6.07-10.26,10.54-14.13,4.48-3.87,9.84-6.82,15.74-7.7,7.07-1.06,14.49.36,21.02,3.13,6.48,2.75,12.65,7.06,16.57,13.01.9,1.34,1.66,2.76,2.26,4.26.18.44.9.25.72-.2-2.65-6.61-8.12-11.72-14.19-15.24-6.39-3.71-13.81-5.94-21.21-6.04-3.44-.04-6.93.4-10.19,1.54-2.73.95-5.31,2.34-7.69,3.97-5,3.43-9.23,8.01-12.28,13.25-3.04,5.22-4.93,11.22-4.82,17.3.12,6.47,2.61,12.58,6.77,17.5,2.58,3.05,5.7,5.61,9.05,7.76,3.21,2.06,6.66,3.7,10.31,4.8,6.95,2.09,14.51,2.26,21.51.28,7.06-2,13.36-6.2,17.83-12.03,5.49-7.16,8.37-16.45,7.01-25.45-.4-2.62-1.13-5.17-2.1-7.63-.17-.46-.9-.26-.72.19Z"/>
      <path d="m154.77,87.26c-4.17-5.52-10.44-9.25-17.12-10.9.09.12.18.24.28.36-.02-.27-.06-.52-.13-.78-.09.15-.17.31-.26.46,4.13-1.52,8.6-2.12,12.96-1.37.48.08.66-.55.2-.72-3.56-1.32-7.46-1.43-11.17-.72-.95.18-1.88.43-2.81.7-.38.11-.56-.07-.93-.17-.42-.12-.88-.15-1.32-.13-1.24.06-2.32.67-2.76,1.85.12-.09.24-.18.36-.28-5.01-.24-10.06.83-14.28,3.6-.33.22-.13.85.29.69,3.91-1.51,8.07-2.12,12.25-1.95-.06-.23-.13-.47-.19-.7-6.7,4.03-11.98,10.62-13.86,18.27-.53,2.16-.78,4.38-.73,6.6.01.4.67.53.74.1,1.16-7.7,5.21-14.74,11.11-19.8,1.68-1.44,3.5-2.7,5.43-3.79-.15-.02-.3-.04-.45-.06.55.5,1.22.75,1.95.79.41.02.82-.03,1.21-.12.45-.1.94-.43,1.38-.35,2.07.38,4.14,1.17,6.07,1.98,4.06,1.69,7.85,4.04,11.2,6.89.37.31.9-.22.53-.53-3.21-2.74-6.8-5.01-10.66-6.71-1.92-.84-3.89-1.55-5.92-2.09-.44-.12-.99-.35-1.44-.36s-.9.34-1.36.44c-.85.18-1.77.13-2.43-.48-.13-.11-.3-.14-.45-.06-6.88,3.87-12.35,10.1-15.17,17.49-.81,2.12-1.38,4.31-1.71,6.55.25.03.49.07.74.1-.17-7.74,3.46-15.09,9.05-20.33,1.58-1.48,3.32-2.78,5.17-3.9.33-.2.18-.68-.19-.7-4.24-.17-8.48.45-12.45,1.98.1.23.19.46.29.69,4.12-2.71,9.02-3.74,13.91-3.5.18.01.3-.12.36-.28.5-1.33,2.3-1.59,3.48-1.08.35.15.42.23.79.12.43-.12.85-.26,1.28-.37.79-.21,1.6-.38,2.41-.51,3.38-.55,6.88-.35,10.1.84.07-.24.13-.48.2-.72-4.49-.77-9.09-.21-13.35,1.37-.19.07-.32.25-.26.46.07.19.1.38.11.58.01.16.11.32.28.36,6.47,1.59,12.62,5.19,16.67,10.55.24.4.89.03.6-.36Z"/>
      <path d="m141.79,88.79c-.62,2.37-1.67,4.69-2.85,6.83-.69,1.26-1.47,2.5-2.45,3.56-.73.79-1.68,1.64-2.8,1.73-2.86.24-2.31-3.47-1.83-5.17.83-2.94,2.38-5.86,4.37-8.17.97-1.12,2.19-2.17,3.76-2.14,1.88.06,2.17,1.85,1.8,3.36-.11.47.61.67.72.2.34-1.41.3-3.18-1.15-3.96-1.25-.67-2.84-.28-3.97.45-1.3.84-2.29,2.2-3.14,3.47-1.01,1.5-1.86,3.12-2.52,4.8-.79,2-2.17,6.1.31,7.54,2.57,1.49,5.08-1.48,6.35-3.34,1.06-1.56,1.93-3.26,2.68-5,.56-1.29,1.09-2.61,1.44-3.97.13-.46-.6-.66-.72-.19Z"/>
      <path d="m105.12,94.25c1.82,9.17,7.87,17.07,16.21,21.27,8.31,4.19,18.23,4.38,26.61.29,5.73-2.79,10.12-7.8,12.96-13.43-.23-.1-.46-.19-.69-.29-1.74,5.94-5.61,11.26-10.89,14.53-4.14,2.57-8.92,3.98-13.79,4.12-9.33.26-18.73-4.07-24.38-11.55-3.28-4.35-5.13-9.6-5.31-15.04-.02-.48-.77-.48-.75,0,.16,5.02,1.69,9.92,4.47,14.1,2.67,4,6.36,7.28,10.59,9.55,8.65,4.65,19.36,5.02,28.07.32,6.17-3.33,10.73-9.11,12.69-15.82.12-.4-.49-.67-.69-.29-2.49,4.93-6.14,9.34-10.92,12.2-4.01,2.4-8.71,3.7-13.38,3.85-8.84.28-17.54-3.58-23.36-10.21-3.43-3.91-5.74-8.69-6.75-13.78-.06-.49-.78-.29-.69.18Z"/>
      <g>
        <path class="cls-1" d="m59.58,59.95c7.74-.71,15.85.29,23.32,2.36,2.76.84,6.06.74,8.68,2.18,2.71,1.62,4.4,4.13,5.75,7.16.87,2.14,1.51,4.56,1.47,7.75l-1.07,1.48c-4.34,1.57-9.08,2.08-13.3,1.08-2.72-.52-4.48-2.67-6.18-4.7-1.12-1.47-8.76-7.36-10.27-8.67-2.17-1.75-6.63-5.2-8.87-6.87-.01-.01.47-1.77.47-1.77h0Z"/>
        <path class="cls-1" d="m22.26,125.24c6.08-3,11.81-5.93,17.69-9.07l5.73-2.95c1.91-.97,3.66-2.37,5.44-3.59,5.64-4.01,14.62-2.37,20.69.33l.81,1.64c-1.88,7.34-8.06,14.53-15.62,15.16-4.7.1-9.19.77-13.83,1.15-6.89.38-13.82.3-20.66-.85,0,0-.25-1.82-.25-1.82h0Z"/>
        <path class="cls-1" d="m80.89,171.66c.2-10.18,3.52-20.44,8.71-29.22,1.34-2.24,2.48-4.72,3.9-7.03,2.9-4.84,8.16-7.36,13.69-8.25,3.04-.45,6.38-.24,9.33.86l.83,1.63c-.65,2.78-1.75,5.68-2.87,8.19-1.56,3.26-2.97,5.97-5.41,8.32-2.41,2.15-5.69,3.29-8.1,5.49-6.97,6.12-13.08,12.69-18.34,20.55.01,0-1.74-.54-1.74-.54h0Z"/>
        <path class="cls-1" d="m179.48,183.57c-.35-9.87-2.63-19.18-5.36-28.51l-1.2-3.85c-.86-2.53-2.16-4.93-3.39-7.28-1.93-3.49-2.52-7.17-2.81-11.04-.28-4.64-.26-8.71.02-13.54l1.37-1.22c.96.11,1.85.35,2.77.62,8.52,2.81,15.56,11.67,16.16,20.56.21,3.11.09,6.26.29,9.34.51,12.01-.93,24.43-6.07,35.34,0,0-1.78-.42-1.78-.42h0Z"/>
        <path class="cls-1" d="m175.42,92.21c2.2-6.67,5.41-11.55,10.04-16.18,4.22-4.42,10.51-5.69,15.93-8.09,11.05-4.78,24.03-9.16,36.2-6.05l-.09,1.83c-11.21,2.55-19.77,9.93-28.57,16.76-4.41,3.57-7.77,8.66-13.32,10.76-6.05,2.48-12.31,3.91-19.29,2.55.01,0-.9-1.58-.9-1.58h0Z"/>
        <path class="cls-1" d="m154.55,63.07c-3.16-4.24-3.68-10.05-2.17-14.81,1.16-4.48,5.64-6.55,8.86-9.2,4.68-3.91,10.24-7.26,15.85-9.63,1.9-.79,3.83-1.5,5.8-2.06l1.07,1.48c-1.09,1.7-2.17,3.33-3.19,4.97-2.94,4.75-5.75,9.8-8.29,14.6-.83,1.59-1.28,3.43-1.79,5.13-1.06,3.71-3.98,5.41-7.35,7.21-2.28,1.1-4.33,1.97-7.04,2.83,0,0-1.75-.52-1.75-.52h0Z"/>
        <path class="cls-1" d="m122,59.29c-6.56.41-12.6-1.44-16.74-6.18-2.04-2.68-2.62-6.28-4.01-9.25l-1.27-3.09-1.11-3.16c-1.91-6.33-2.85-13.09-2.24-19.67l1.78-.42c2.14,3.26,4.69,6.84,7.2,9.83,3.27,3.67,6.26,7.33,10.06,10.31,2.33,1.57,4.97,3.32,6.01,6.07,1.89,4.29,2.53,9.44,1.66,14.35,0-.03-1.34,1.21-1.34,1.21h0Z"/>
      </g>
      <g>
        <path d="m59.36,60.74c7.12,1.66,13.99,4.28,20.6,7.39,6.68,3.01,13.07,6.78,18.35,11.93l-.12.16c-6.5-3.34-12.62-7.08-18.95-10.66-6.39-3.41-13.01-6.43-19.93-8.63,0,0,.05-.19.05-.19h0Z"/>
        <path d="m22.37,126.05c16.96-2.88,33.59-9.75,49.8-15.37l.09.18c-7.37,4.84-15.73,7.85-24.19,10.11-8.42,2.38-16.98,4.3-25.68,5.27,0,0-.02-.19-.02-.19h0Z"/>
        <path d="m81.67,171.9c4.87-17.14,18.15-36.56,35.23-43.16l.09.18c-11.62,8.01-22.13,17.86-29.2,30.17-2.39,4.07-4.4,8.38-5.93,12.87,0,0-.19-.06-.19-.06h0Z"/>
        <path d="m180.27,183.75c3.6-19.6-1.77-48.36-12.92-64.95l.15-.13c.97,1.04,2.03,2.05,2.89,3.19.44.61,1.46,2.05,1.89,2.64,7.8,12.58,9.71,27.84,10.03,42.35-.03,5.7-.47,11.43-1.83,16.96-.01,0-.21-.06-.21-.06h0Z"/>
        <path d="m175.82,92.92c15.72-11.14,42.02-31.42,61.73-30.21v.2c-11.71.01-22.25,6.09-31.98,11.99-7.32,4.66-14.36,9.81-21.92,14.12-2.53,1.45-5.08,2.87-7.74,4.07.01,0-.09-.17-.09-.17h0Z"/>
        <path d="m155.33,63.3c2.26-13.93,16.89-27.51,28.04-35.28l.12.16c-5.94,4.7-11.3,10.14-16.01,16.06-4.54,6.06-8.66,12.25-11.96,19.11,0,0-.19-.05-.19-.05h0Z"/>
        <path d="m122.6,58.74c-12.4-10.48-21.81-25.03-25.16-41l.19-.05c2.14,7.79,5.78,15.09,10.39,21.68,4.75,6.55,10.09,12.55,14.72,19.23,0,0-.14.14-.14.14h0Z"/>
      </g>
    </g>
  </g>
</svg>