<?xml version="1.0" encoding="UTF-8"?>
<svg id="Layer_2" data-name="Layer 2" xmlns="http://www.w3.org/2000/svg" viewBox="0 0 32.45 70.59">
  <g id="Layer_1-2" data-name="Layer 1">
    <g>
      <path d="m20.36,13.52c1.12,1.34,1.35,3.09.16,4.48-1,1.16-2.75,2.07-4.3,1.56-1.38-.45-2.42-1.95-2.52-3.38-.1-1.56.71-3,2.05-3.79,1.71-1,3.35-.14,4.61,1.13.34.34.87-.19.53-.53-1.31-1.33-3.07-2.29-4.93-1.53-1.76.72-2.96,2.44-3.01,4.34-.04,1.75,1.02,3.54,2.62,4.3,1.77.85,3.84.04,5.17-1.24.75-.72,1.28-1.67,1.36-2.71.09-1.19-.46-2.27-1.2-3.16-.32-.37-.85.16-.54.53Z"/>
      <path d="m29.63,5.69c1.06,1.87.97,4.05-.45,5.71-1.84,2.17-4.88,2.95-7.6,3.18.12.09.24.18.36.28-.6-1.91-2.49-3.59-4.54-3.68.12.12.25.25.38.38-.09-3.07,1.09-6.56,3.51-8.56,1.05-.87,2.41-1.36,3.77-1.04,1.87.44,3.62,2.11,4.57,3.73.24.42.89.04.65-.38-1.4-2.39-4.33-4.82-7.27-4.06-2.53.66-4.22,3.13-5.12,5.42-.61,1.55-.92,3.22-.87,4.88.01.21.17.37.38.38,1.71.07,3.32,1.55,3.82,3.13.05.15.2.29.36.28,2.99-.26,6.34-1.13,8.29-3.59,1.51-1.9,1.58-4.34.4-6.43-.23-.43-.87-.05-.64.37Z"/>
      <path d="m30.17,25.3c-.94,1.13-2.09,2.2-3.56,2.54-1.13.26-2.26-.02-3.23-.63-2.47-1.55-3.89-4.7-4.23-7.51-.06.11-.12.22-.19.32,1.89-.84,3.37-2.61,3.07-4.76-.09.15-.17.31-.26.46,2.35-.91,5.02-1,7.18.42,1.79,1.18,2.87,3.24,2.75,5.38-.08,1.41-.67,2.71-1.53,3.78-.3.37.23.91.53.53,1.61-2.02,2.27-4.65,1.28-7.11-.92-2.29-3.06-3.92-5.49-4.32-1.67-.27-3.35,0-4.92.6-.21.08-.29.24-.26.46.26,1.82-1.19,3.23-2.72,3.92-.11.05-.2.21-.19.32.38,3.11,1.92,6.57,4.72,8.23,1.07.64,2.32.9,3.55.66,1.65-.33,2.99-1.51,4.03-2.77.31-.36-.22-.89-.53-.52Z"/>
      <path d="m18.4,19.71c.19,1.6.68,3.15,1.44,4.58.36.67.78,1.3,1.26,1.88.13.15.21.22.24.4.02.12-.06.44-.08.6-.08.54-.18,1.08-.3,1.62-.56,2.46-1.53,5.09-3.51,6.76-2.18,1.82-5.1,1.56-7.56.45-3.46-1.57-2.44-5.51-1-8.19.24-.44.44-.88.84-1.18.29-.21.59-.4.87-.62.75-.58,1.44-1.24,2.07-1.96,1.18-1.35,2.15-2.88,2.81-4.56-.18.07-.37.15-.55.22,1.16.88,2.63.89,3.94.36.44-.18.25-.91-.2-.72-1.15.47-2.34.49-3.36-.28-.21-.16-.47.03-.55.22-.68,1.74-1.76,3.34-3.04,4.69-.62.66-1.3,1.27-2.05,1.79-.24.16-.56.3-.76.51-.3.33-.52.84-.73,1.24-1.35,2.55-2.46,6.3.19,8.44,1.22.98,3,1.48,4.54,1.64,1.28.13,2.58-.07,3.73-.65,2.3-1.15,3.65-3.58,4.45-5.92.32-.93.56-1.89.74-2.85.1-.53.19-1.07.25-1.61.05-.48-.23-.64-.52-1-1.33-1.65-2.17-3.75-2.42-5.85-.05-.48-.8-.49-.74,0Z"/>
      <path d="m14.77,19.29c-1.09,2.78-3.21,5.44-5.81,6.94-1.47.85-3.15,1.16-4.72.43-.96-.44-1.84-1.08-2.47-1.95-2.46-3.4-.27-8.13,2.96-10.12.48-.3,1.19-.77,1.76-.83.28-.03.54.21.81.35.32.17.65.31.98.44,1.62.64,3.38.92,5.11.96-.12-.16-.24-.32-.36-.47-.29,1.81.41,3.48,1.85,4.61.38.3.91-.23.53-.53-1.21-.95-1.9-2.33-1.65-3.88.04-.24-.1-.47-.36-.47-1.79-.04-3.63-.35-5.28-1.09-.35-.16-.69-.34-1.01-.54-.35-.22-.49-.21-.88-.07-.56.19-1.11.44-1.62.74-1.98,1.14-3.52,3.01-4.23,5.18-.64,1.98-.52,4.26.68,6.01.65.96,1.57,1.71,2.6,2.22,1.48.73,3,.81,4.54.2,3.36-1.32,6.01-4.64,7.3-7.93.17-.45-.56-.64-.73-.2Z"/>
      <path d="m14.81,2.4c.99,1.16,1.39,2.66,1.59,4.14.23,1.67.26,3.36.19,5.04.09-.12.18-.24.28-.36-1.95.29-3.47,1.93-3.85,3.83.12-.09.24-.18.36-.28-3.47-.08-7.54-1.24-8.98-4.75-1.49-3.63,1.13-7.74,4.65-8.95,2.01-.7,4.3-.25,5.76,1.33.33.35.86-.18.53-.53C13.96.39,11.88-.24,9.9.08c-2.07.33-3.93,1.68-5.16,3.34-1.23,1.65-1.82,3.71-1.39,5.74.39,1.85,1.62,3.5,3.2,4.52,2,1.29,4.47,1.78,6.82,1.83.15,0,.33-.12.36-.28.33-1.67,1.61-3.05,3.32-3.31.17-.02.27-.21.28-.36.08-1.83.03-3.68-.25-5.49-.24-1.54-.72-3.02-1.75-4.22-.3-.35-.83.18-.52.55Z"/>
      <path d="m20.83,30.05c3.44,3.34,1.42,9.16-1.96,11.71-.51.38-1.06.71-1.64.98-.21.1-.36.15-.47.36-.23.42-.29,1.08-.4,1.55-.39,1.65-.69,3.33-.88,5.01-.38,3.33-.34,6.71.13,10.03.53,3.72,1.62,7.35,3.28,10.72.2-.15.39-.3.59-.45-1.57-1.52-3.14-3.03-4.72-4.55-.24-.23-.63-.49-.81-.78-.13-.2-.15-.54-.21-.81-.17-.69-.33-1.38-.46-2.08-.54-2.82-.72-5.69-.76-8.56-.05-3.29.1-6.59.27-9.88.01-.13-.08-.26-.19-.32-2.59-1.53-4.01-4.45-3.71-7.42-.21.09-.43.18-.64.27,1.3,1.08,3.17,1.64,4.84,1.78,1.36.11,2.75-.16,3.93-.86,2.44-1.44,3.72-4.24,4.44-6.87.13-.47-.59-.66-.72-.2-.65,2.35-1.74,4.9-3.87,6.28-1.03.67-2.23.97-3.46.92-1.55-.06-3.43-.57-4.63-1.58-.26-.22-.61-.07-.64.27-.32,3.23,1.29,6.42,4.08,8.07-.06-.11-.12-.22-.19-.32-.3,5.84-.6,11.78.33,17.58.11.66.23,1.33.37,1.98.07.35.16.69.24,1.03.08.32.13.82.31,1.11.13.21.37.38.54.54.95.91,1.9,1.83,2.85,2.74.75.73,1.51,1.45,2.26,2.18.32.3.77-.08.59-.45-3.08-6.29-4.09-13.44-3.3-20.37.21-1.85.56-3.68,1.02-5.48.09-.34.09-.6.36-.8.25-.18.59-.29.85-.46.52-.31,1.01-.68,1.47-1.08,1.74-1.53,2.95-3.7,3.3-5.99.35-2.28-.17-4.69-1.87-6.34-.34-.33-.87.2-.52.54Z"/>
    </g>
  </g>
</svg>