<?xml version="1.0" encoding="UTF-8"?>
<svg id="Layer_2" data-name="Layer 2" xmlns="http://www.w3.org/2000/svg" viewBox="0 0 119.75 149.97">
  <g id="Layer_1-2" data-name="Layer 1">
    <path d="m54.69,90.32c3.09-5.69,6.05-11.47,9.7-16.82,1.72-2.51,3.59-4.92,5.7-7.11,1.01-1.04,2.07-2.04,3.2-2.95.6-.49,1.31-.6,2.05-.79.77-.2,1.55-.38,2.33-.57,5.97-1.43,11.9-2.9,17.62-5.16,4.71-1.86,8.91-4.49,12.14-8.44,1.02-1.25,2.13-2.42,3.11-3.7.89-1.16,1.67-2.39,2.53-3.57,1.56-2.14,3.64-4.66,6.41-5.11.39-.06.32-.62,0-.72-11.25-3.81-24.02-1.41-33.96,4.8-4.81,3.01-9.07,6.97-12.11,11.79-1.57,2.49-2.79,5.21-3.56,8.05-.2.74-.74,1.08-1.28,1.6-.59.56-1.16,1.13-1.71,1.72-.94,1.01-1.82,2.07-2.66,3.16-4.02,5.23-6.95,11.17-9.77,17.1.23.1.46.19.69.29,1.34-5.86,2.96-11.66,3.93-17.6.48-2.9.81-5.82.86-8.76.03-1.53-.04-3.05-.14-4.58-.09-1.21-.06-2.42-.22-3.62-.03.12-.06.24-.1.36,9.34-10.36,13.89-24.85,12.46-38.7-.38-3.65-1.17-7.26-2.45-10.71-.09-.25-.42-.39-.63-.17-3.23,3.58-6.34,7.33-8.76,11.52-2.46,4.26-4.09,8.94-4.66,13.83-.32,2.74-.22,5.5-.17,8.26.05,2.79.08,5.58.15,8.36.14,5.75.58,11.51.24,17.27-.39,6.56-1.86,12.94-4.15,19.08.23-.03.46-.06.69-.09-2.49-5.26-5.7-10.13-9.06-14.87-1.71-2.41-3.47-4.8-5.21-7.2-.4-.55-.8-1.1-1.19-1.66-.46-.64-1.05-1.28-1.24-2.05-.33-1.29-.57-2.59-.91-3.88-1.19-4.53-2.82-9.16-5.84-12.81-2.86-3.45-6.71-5.97-10.75-7.84-5.53-2.56-11.5-4.05-17.48-5.13-.32-.06-.69.37-.36.63,5.37,4.24,8.7,10.29,11.9,16.21,1.7,3.14,3.38,6.29,5.39,9.24.85,1.26,1.71,2.6,2.9,3.57,1.06.86,2.23,1.57,3.45,2.2,2.67,1.37,5.54,2.34,8.41,3.19.37.11.62.17.89.46.28.31.52.65.78.98.61.76,1.23,1.52,1.84,2.28,1.15,1.42,2.29,2.83,3.41,4.27,2.33,2.97,4.58,6.02,6.59,9.22.92,1.46,1.78,2.95,2.58,4.49.42.81.82,1.63,1.2,2.46.43.96.92,1.87.93,2.94.07,8.28-.3,16.55-1.06,24.79.25-.03.49-.07.74-.1-.61-3.49-1.6-6.94-3.33-10.05-1.23-2.2-2.84-4.17-4.65-5.92-4.29-4.17-9.24-7.81-14.33-10.94-3.46-2.13-7.11-4.03-10.99-5.3-.28-.09-.53.2-.46.46,1.29,4.7,2.55,9.41,3.89,14.1.93,3.25,1.9,6.5,3.12,9.66.93,2.4,2.01,4.75,3.41,6.92,2.02,3.12,4.84,5.52,8.09,7.3,4.26,2.33,9.08,3.65,13.92,3.95l-.38-.38c.07,10.03.38,20.05.89,30.07.01.26.23.41.47.36.49-.09.94-.45,1.33-.75.65-.5,1.25-1.07,1.82-1.65.57-.59,1.12-1.2,1.62-1.85.37-.48.89-1.05.89-1.67.01-1.64-.09-3.29-.09-4.94.01-2.16.05-4.31.1-6.47.05-2.13.11-4.27.18-6.4l.09-2.64c.03-.71.27-1.38.47-2.06,1.29-4.37,3.32-8.5,5.95-12.22,1.31-1.86,2.78-3.61,4.37-5.24.8-.81,1.62-1.59,2.48-2.34.41-.36.84-.71,1.26-1.06.18-.14.42-.43.6-.52.14-.07.16-.06.36,0,1.79.49,3.48,1.29,5.2,1.97,1.94.76,3.95,1.35,6.03,1.5,2.63.2,5.26-.32,7.71-1.27,3.67-1.42,6.96-3.67,10-6.13,2.03-1.63,3.87-3.51,6.02-4.98,1.58-1.08,3.29-1.9,5.06-2.61.98-.39,1.97-.76,2.96-1.14.21-.08.37-.33.22-.55-2.58-3.85-6.48-6.42-10.96-7.52-4.92-1.21-10.16-.77-15.02.52-5.08,1.34-9.95,3.72-13.71,7.46-.87.86-1.67,1.8-2.38,2.8-.36.51-.7,1.03-1,1.58-.34.6-.57,1.36-1.01,1.88-1,1.21-2.26,2.26-3.36,3.39-1.1,1.14-2.19,2.29-3.25,3.47-4.5,5.01-8.38,10.56-10.42,17.04.25.03.49.07.74.1-.48-9.16-.17-18.34.73-27.47.05-.48-.7-.48-.75,0-.9,9.13-1.21,18.31-.73,27.47.02.42.61.51.74.1,1.76-5.62,4.96-10.57,8.75-15.03,1.97-2.31,4.06-4.5,6.2-6.66.49-.5.99-.99,1.49-1.49.21-.21.5-.43.66-.67.19-.29.3-.68.46-.99.54-1.09,1.2-2.12,1.96-3.07,3.15-4,7.73-6.81,12.51-8.41,4.79-1.61,10.01-2.45,15.04-1.71,5.11.74,9.77,3.25,12.68,7.6.07-.18.15-.37.22-.55-1.82.71-3.68,1.36-5.44,2.22-1.82.89-3.47,2.04-5.01,3.34-3.58,3.03-7.05,6.11-11.27,8.26-2.58,1.31-5.41,2.26-8.32,2.32-2.17.05-4.29-.41-6.33-1.14-1.78-.63-3.5-1.46-5.29-2.06-.39-.13-.82-.31-1.24-.37-.37-.05-.54.14-.83.36-.46.36-.92.73-1.37,1.11-1.7,1.44-3.3,3.02-4.76,4.71-2.91,3.37-5.31,7.19-7.06,11.29-.43,1-.82,2.02-1.17,3.06-.35,1.03-.79,2.14-.93,3.22-.21,1.54-.12,3.17-.16,4.71-.13,4.14-.24,8.28-.23,12.43,0,.84.01,1.68.03,2.53.01.34.02.69.04,1.03.02.36-.03.49-.23.8-.91,1.42-2.18,2.7-3.47,3.78-.39.33-.88.78-1.4.88.16.12.32.24.47.36-.51-10.01-.82-20.04-.89-30.07,0-.21-.17-.36-.38-.38-7.86-.48-16.64-3.78-21.16-10.56-3.15-4.73-4.8-10.32-6.37-15.73-1.46-5.01-2.79-10.05-4.18-15.08l-.46.46c6.7,2.19,12.81,6.19,18.37,10.44,3.9,2.98,7.97,6.23,10.6,10.45,2.04,3.28,3.14,7.02,3.8,10.79.08.44.7.29.74-.1.68-7.41,1.06-14.83,1.07-22.27,0-.93,0-1.87-.01-2.8-.01-.84-.36-1.52-.69-2.28-.73-1.67-1.55-3.3-2.44-4.89-1.8-3.22-3.9-6.26-6.1-9.21-2.2-2.94-4.52-5.79-6.83-8.65-.29-.36-.58-.72-.88-1.08-.26-.32-.54-.85-.87-1.08-.47-.33-1.24-.41-1.79-.58-1.46-.45-2.9-.93-4.32-1.49-2.8-1.1-5.93-2.48-7.79-4.94-2.15-2.83-3.91-5.93-5.61-9.05-3.63-6.64-7.11-13.7-13.17-18.49-.12.21-.24.42-.36.63,5.3.96,10.59,2.23,15.58,4.3,4.23,1.75,8.31,4.13,11.45,7.5,3.25,3.49,5.01,8.03,6.27,12.57.35,1.25.66,2.52.94,3.78.12.55.16,1.18.43,1.67.35.62.85,1.2,1.27,1.78,1.7,2.37,3.43,4.71,5.14,7.08,3.76,5.22,7.41,10.57,10.16,16.41.15.32.58.18.69-.09,1.96-5.28,3.35-10.73,3.93-16.34.59-5.65.31-11.32.1-16.98-.1-2.77-.13-5.55-.18-8.32-.06-2.89-.19-5.79-.1-8.68.16-5.03,1.47-9.96,3.75-14.43,2.49-4.9,5.99-9.18,9.66-13.24-.21-.06-.42-.11-.63-.17,3.54,9.59,3.43,20.34.52,30.08-1.53,5.13-3.87,10.02-6.97,14.39-.77,1.09-1.6,2.15-2.47,3.17-.3.35-.94.83-1.02,1.3-.04.24.07.64.09.9.03.41.04.83.05,1.24.11,3.27.29,6.46-.01,9.73-.7,7.61-2.86,14.97-4.55,22.39-.09.39.49.69.69.29,2.45-5.16,4.98-10.33,8.25-15.03,1.6-2.29,3.37-4.47,5.38-6.42.48-.47,1.21-.92,1.59-1.46.32-.44.38-1.25.54-1.77.45-1.47,1.03-2.9,1.72-4.28,5.12-10.28,15.81-17.24,26.81-19.72,6.57-1.48,13.5-1.36,19.9.81v-.72c-2.36.38-4.24,2.21-5.71,3.97-1.7,2.05-3.04,4.36-4.76,6.4-1.81,2.15-3.62,4.34-5.83,6.09-1.98,1.57-4.2,2.79-6.51,3.79-5.63,2.44-11.59,3.98-17.54,5.39-1.52.36-3.03.72-4.54,1.11-.69.18-1.07.34-1.62.79-.58.47-1.14.96-1.68,1.47-2.19,2.04-4.13,4.33-5.91,6.74-4.34,5.88-7.65,12.43-11.13,18.83-.19.38.45.76.68.34Z"/>
  </g>
</svg>