<?xml version="1.0" encoding="UTF-8"?>
<svg id="Layer_2" data-name="Layer 2" xmlns="http://www.w3.org/2000/svg" viewBox="0 0 36.56 60.5">
  <g id="Layer_1-2" data-name="Layer 1">
    <g>
      <path d="m12.12,49.8c-1.99,1.99-3.56,4.61-4.52,7.24-.14.39-.14.53-.52.72-.34.17-.68.33-1.03.49-.77.35-1.55.67-2.34.93-.59.2-1.19.38-1.81.48-.34.06-.97.18-1.27-.07v.53c1.79-1.9,3.41-3.99,4.85-6.18,1.29-1.96,2.63-4.12,3.18-6.44.08-.34.23-.81.11-1.15-.09-.25-.35-.51-.5-.74-.22-.33-.44-.67-.65-1-.76-1.21-1.46-2.45-2.09-3.72-1.34-2.7-2.41-5.58-2.95-8.56-.51-2.82-.49-5.8.47-8.52.89-2.52,2.28-4.91,3.82-7.09,3.18-4.51,7.38-8.3,12.12-11.1C24.17,2.56,30.12.65,36.17.73c-.12-.16-.24-.32-.36-.47-.88,2.57-1.68,5.16-1.92,7.88-.28,3.17.19,6.31.35,9.47.25,4.97-.03,10.12-1.81,14.82-1.21,3.19-3.19,6-5.79,8.2-2.21,1.87-4.77,3.26-7.33,4.59-2.51,1.32-5.15,2.58-7.19,4.58-.35.34.19.87.53.53,1.82-1.78,4.15-2.95,6.39-4.11,2.56-1.33,5.12-2.66,7.39-4.44,2.61-2.04,4.72-4.64,6.1-7.66,1.97-4.3,2.55-9.11,2.53-13.8-.01-3.62-.62-7.21-.5-10.83.1-3.13.97-6.07,1.98-9.02.08-.24-.13-.47-.36-.47C25.32-.16,14.75,5.83,7.96,14.08c-3.38,4.11-6.46,9.19-6.46,14.67,0,5.8,2.48,11.51,5.52,16.33.3.48,1.06,1.25,1.01,1.82-.05.51-.25,1.03-.42,1.5-.48,1.31-1.16,2.56-1.88,3.75-1.6,2.66-3.49,5.18-5.62,7.44-.13.14-.16.39,0,.53.74.65,2.01.3,2.85.07,1.59-.42,3.13-1.09,4.59-1.83.33-.17.47-.24.59-.59.14-.41.29-.82.46-1.22.34-.8.74-1.58,1.17-2.33.81-1.4,1.74-2.75,2.89-3.89.34-.34-.19-.87-.54-.53Z"/>
      <path d="m12.25,40.39c-4.34-11.85,10.19-21.76,15.73-30.77l.06.04c-5.66,9.65-18.18,18.41-15.79,30.73h0Z"/>
    </g>
  </g>
</svg>