<?xml version="1.0" encoding="UTF-8"?>
<svg id="Layer_2" data-name="Layer 2" xmlns="http://www.w3.org/2000/svg" viewBox="0 0 53.47 62.49">
  <g id="Layer_1-2" data-name="Layer 1">
    <g>
      <path d="m37.11,29.1c-.13-2.17-1.55-4.61-3.87-4.96.09.15.17.31.26.46.71-3.26,2.07-6.59,5.6-7.45,2.56-.62,5.26-.24,7.8-1.03,1.71-.53,3.17-1.54,4.34-2.88-.21-.09-.43-.18-.64-.27-.09,3.82.34,7.88-2.11,11.12-1.34,1.77-3.28,3.24-5.26,4.22-1.97.97-4.23,1.34-6.31.46-.44-.19-.82.46-.38.65,3.43,1.45,6.96,0,9.74-2.16,1.47-1.13,2.82-2.45,3.69-4.1.74-1.41,1.1-2.97,1.25-4.55.18-1.87.08-3.76.13-5.64.01-.31-.42-.51-.64-.27-1.09,1.25-2.42,2.19-4.01,2.69-1.32.41-2.69.52-4.06.6-2.63.16-5.37.36-7.25,2.45-1.47,1.64-2.16,3.84-2.62,5.94-.04.18.05.43.26.46,1.98.3,3.21,2.36,3.32,4.23.04.51.79.51.76.03Z"/>
      <path d="m36.54,30.69c.19,2.02.04,4.37-1.43,5.91-.15.16-.15.48.08.59,4.3,2.08,7.02,9.05,12.59,7.99,1.71-.33,3.42-1.76,5.22-1.49.3.04.51-.16.46-.46-.55-3.24-1.14-7.1-3.39-9.67-1.7-1.94-4.27-2.46-6.72-2.75-2.13-.25-4.28-.34-6.42-.5-.48-.04-.48.71,0,.75,1.84.14,3.69.24,5.53.41,1.35.13,2.73.29,4.03.7,2.41.75,3.84,2.55,4.7,4.86.77,2.06,1.19,4.24,1.56,6.4.15-.15.31-.31.46-.46-1.52-.23-2.93.55-4.3,1.08-1.3.5-2.58.65-3.9.17-2.47-.91-4.21-3.29-6.02-5.08-1.01-1-2.11-1.97-3.4-2.59.03.2.05.39.08.59,1.61-1.7,1.85-4.22,1.65-6.45-.07-.48-.83-.49-.78,0Z"/>
      <path d="m28.75,38.69c1.97.09,3.92-.18,5.81-.72-.14-.06-.28-.11-.42-.17,2.01,2.88,3.39,6.2,3.69,9.72.28,3.25-.36,6.54-1.79,9.47-.87,1.78-2,3.4-3.32,4.86h.53c-3.98-4.82-8.27-11.35-6.88-17.93.42-1.98,1.36-3.78,2.65-5.34.3-.37-.22-.9-.53-.53-2.28,2.77-3.41,6.16-3.04,9.75.36,3.5,1.88,6.8,3.74,9.75,1.07,1.69,2.27,3.29,3.54,4.83.12.15.4.14.53,0,2.36-2.61,4.14-5.74,4.92-9.19.76-3.34.58-6.85-.5-10.1-.67-2.03-1.67-3.93-2.89-5.67-.1-.14-.25-.22-.42-.17-1.84.53-3.7.78-5.61.69-.49-.02-.49.73-.01.75Z"/>
      <path d="m22.47,35.21c.21,1.78,2.25,2.86,3.85,3.13-.09-.12-.18-.24-.28-.36-.02,3.81-2.8,7.02-5.25,9.67-1.17,1.26-2.31,2.67-3.73,3.66-1.19.84-2.52,1.44-3.74,2.23-1.56,1.01-2.76,2.35-3.54,4.04.23.03.46.06.69.09-.63-2.3-1.12-4.65-1.41-7.02-.27-2.16-.56-4.36.16-6.46.64-1.86,1.89-3.59,3.43-4.81,1.37-1.09,3.09-1.77,4.73-2.35,1.81-.63,3.67-1.13,5.56-1.47.47-.08.27-.81-.2-.72-1.8.32-3.57.79-5.3,1.38-1.72.58-3.48,1.28-4.96,2.35-1.58,1.15-2.88,2.81-3.66,4.6-.93,2.12-.85,4.22-.62,6.48.29,2.78.81,5.52,1.55,8.21.08.29.55.39.69.09.74-1.61,1.85-2.86,3.34-3.81,1.27-.82,2.65-1.44,3.87-2.33,1.41-1.03,2.57-2.43,3.75-3.71,1.29-1.41,2.55-2.87,3.56-4.49,1.06-1.7,1.83-3.6,1.84-5.63,0-.15-.12-.33-.28-.36-1.2-.2-3.14-1.01-3.3-2.41-.05-.47-.81-.48-.75,0Z"/>
      <path d="m23.81,46.87c.47,4.15,1.77,8.33,4.22,11.76.07-.18.15-.37.22-.55-2.31.57-4.8.44-7.1-.11-2.14-.51-4.36-1.39-5.91-3.01-.03.2-.05.39-.08.59,3.8-1.97,6.84-5.07,9.35-8.49.29-.39-.37-.76-.65-.38-2.43,3.32-5.4,6.31-9.08,8.22-.22.11-.24.42-.08.59,1.64,1.71,3.98,2.66,6.24,3.2,2.44.58,5.05.71,7.5.11.22-.05.36-.35.22-.55-2.37-3.31-3.66-7.35-4.11-11.38-.04-.48-.79-.48-.74,0Z"/>
      <path d="m27.18,25.42c-2.88,1.88-4.22,4.85-4.92,8.1l.26-.26c-6.67,2.45-16.48.5-19.31-6.78-.91-2.34-.86-4.89-.25-7.3-.15.09-.31.17-.46.26,2.91.6,5.88.46,8.81.15.19-.02.39-.16.38-.38-.13-1.96.27-4.02,1.63-5.52,1.45-1.6,3.56-2.09,5.65-1.74-.09-.12-.18-.24-.28-.36-.17,4.8.5,10.1,4.9,12.9,1.14.72,2.4,1.23,3.69,1.61.46.14.66-.58.2-.72-2.59-.78-5-2.12-6.4-4.51-1.62-2.76-1.75-6.17-1.64-9.28,0-.15-.12-.34-.28-.36-2.29-.38-4.63.1-6.28,1.83-1.57,1.64-2.09,3.95-1.95,6.16.12-.12.25-.25.38-.38-2.86.3-5.78.46-8.61-.13-.19-.04-.41.06-.46.26-.73,2.89-.67,5.95.67,8.66,1.15,2.31,3.13,4.14,5.39,5.35,2.3,1.23,4.89,1.89,7.49,2.02,1.32.07,2.65,0,3.95-.23.6-.1,1.2-.23,1.78-.4.47-.13,1.3-.23,1.49-.74.23-.65.32-1.37.53-2.02.22-.68.48-1.35.81-1.98.76-1.46,1.85-2.67,3.23-3.57.38-.25,0-.9-.4-.64Z"/>
      <path d="m33.93,35.07c-1.15.78-2.51,1.1-3.88,1.16-1.16.05-2.47,0-3.5-.58-1.85-1.02-1.72-3.28-.83-4.92,1.14-2.09,3.6-4.2,6.13-3.95,1.85.18,2.6,1.93,2.88,3.56.16.94.18,1.94.02,2.88-.11.6-.28,1.47-.82,1.85-.39.28-.02.93.38.65,1.36-.96,1.38-3.33,1.24-4.8-.17-1.77-.83-4.03-2.7-4.68-2.83-.99-5.8,1.22-7.35,3.41-1.22,1.73-1.85,4.38-.16,6.04,1.05,1.04,2.59,1.26,4,1.3,1.72.04,3.51-.29,4.96-1.27.41-.27.04-.92-.37-.65Z"/>
      <path d="m31.73,24.05c-.87-.24-1.84-.14-2.71.03-.46.09-.73.25-1.17.08-.49-.19-.96-.41-1.41-.67-1.65-.95-2.98-2.36-3.91-4.02-1.89-3.4-2.09-7.72-.63-11.32,1.08-2.65,2.92-4.93,3.75-7.69-.23.03-.46.06-.69.09,2.51,3.53,5,7.22,6.41,11.35,1.4,4.09,1.43,8.35-.11,12.41-.17.45.55.65.72.2,1.56-4.1,1.55-8.46.18-12.61-1.42-4.28-3.96-8.08-6.55-11.72-.18-.26-.59-.24-.69.09-.79,2.62-2.51,4.8-3.58,7.29-.83,1.93-1.22,4.03-1.14,6.12.14,3.85,1.84,7.68,5.03,9.94.46.33.96.62,1.47.87.41.2,1.05.58,1.51.59.19,0,.41-.13.6-.18.29-.08.59-.13.89-.17.59-.07,1.23-.11,1.82.05.48.12.68-.61.21-.73Z"/>
      <path d="m34.47,17.74c.23-1.68.03-3.3-.13-4.97-.16-1.66-.04-3.21.8-4.68h-.65c.78,1.55,1.97,2.74,3.31,3.8,1.11.88,2.35,1.72,3.01,3.01.07-.18.15-.37.22-.55-1.07.4-2.25.54-3.34.88-1.4.43-2.86,1.04-3.86,2.15-.32.36.21.89.53.53.97-1.09,2.4-1.63,3.76-2.03,1.02-.3,2.11-.43,3.11-.81.23-.09.34-.32.22-.55-.66-1.28-1.83-2.14-2.94-3.01-1.37-1.07-2.6-2.23-3.39-3.8-.13-.25-.51-.23-.65,0-.83,1.45-1.07,3-.94,4.65.14,1.74.43,3.44.19,5.19-.04.47.68.67.75.19Z"/>
      <path d="m50.14,24.91c.34,1.21.42,2.48.4,3.73-.02,1.22-.13,2.48-.56,3.63.21-.06.42-.11.63-.17-1.55-1.58-3.84-2.11-5.84-2.9v.72c2.52-.9,4.23-2.96,6.01-4.84.33-.35-.2-.88-.53-.53-1.68,1.78-3.3,3.81-5.68,4.65-.36.13-.34.59,0,.72,1.87.74,4.05,1.23,5.51,2.71.21.22.53.09.63-.17.45-1.21.57-2.55.59-3.83.02-1.31-.07-2.66-.42-3.93-.15-.45-.87-.26-.74.21Z"/>
      <path d="m13.45,35.99c-2.4,1.45-4.79,3.53-5.81,6.21.18-.07.37-.15.55-.22-2.37-1.76-4.96-3.12-7.63-4.37.03.2.05.39.08.59,3.47-3.14,8.76-4.28,12.81-1.56.4.27.78-.38.38-.65-4.34-2.91-10.01-1.68-13.72,1.68-.17.15-.14.49.08.59,2.67,1.25,5.25,2.61,7.63,4.37.21.16.47-.02.55-.22.94-2.49,3.25-4.42,5.46-5.76.42-.26.04-.91-.38-.66Z"/>
      <path d="m38.35,42.26c.93,3.05,1.6,6.58.85,9.74-.06.25.18.57.46.46.76-.3,1.57-.56,2.39-.53.78.03,1.46.37,2.09.81.26.18.54-.07.56-.32.23-2.03-.16-4.05-1.17-5.83-1.11-1.96-2.81-3.49-4.64-4.75-.4-.27-.77.37-.38.65,1.73,1.19,3.33,2.64,4.37,4.48.95,1.67,1.28,3.55,1.07,5.45.19-.11.38-.22.56-.32-.7-.49-1.47-.84-2.34-.9-.94-.07-1.87.21-2.73.55.15.15.31.31.46.46.78-3.29.12-6.96-.85-10.14-.11-.47-.84-.27-.7.19Z"/>
    </g>
  </g>
</svg>