<?xml version="1.0" encoding="UTF-8"?>
<svg id="Layer_2" data-name="Layer 2" xmlns="http://www.w3.org/2000/svg" viewBox="0 0 45.98 53.14">
  <g id="Layer_1-2" data-name="Layer 1">
    <g>
      <path d="m28.55,29.65c1.27,3.59.12,7.48-2.59,10.09-2.24,2.16-5.85,3.58-8.72,1.76-1.97-1.24-2.91-3.56-3.42-5.73-.06-.24-.35-.34-.55-.22-1.85,1.05-4,1.81-6.16,1.5-1.66-.24-3.13-1.11-4.21-2.37-2.08-2.42-2.76-6.18-1.54-9.14.71-1.73,2.11-3.04,3.88-3.65.24-.08.34-.33.22-.55-1.77-3.46-2.03-7.59-.37-11.14,1.53-3.27,4.5-5.72,8.08-6.39,2.29-.43,4.63-.06,6.8.76.12.04.28,0,.36-.1C22.53,1.95,25.75.09,29.17.96c2.57.65,4.68,2.78,5.06,5.45.24,1.71-.28,3.38-1.19,4.82-.16.26.06.54.32.56,3.41.27,5.32,3.51,5.76,6.62.47,3.4-.6,7.29-3.49,9.35-1.96,1.39-4.37,1.7-6.71,1.43-.48-.05-.47.7,0,.75,2.25.26,4.6-.01,6.58-1.2,1.66-1,2.89-2.55,3.62-4.32,1.38-3.32,1.18-7.63-.96-10.6-1.15-1.59-2.82-2.62-4.79-2.78.11.19.22.38.32.56,1.72-2.7,1.85-6.11-.18-8.69C31.58.45,28.29-.52,25.29.27c-2.18.58-4.03,1.99-5.5,3.67.12-.03.24-.06.36-.1-3.91-1.49-8.35-1.29-11.81,1.22-3.12,2.27-4.99,5.96-5.13,9.8-.09,2.39.51,4.73,1.59,6.85.07-.18.15-.37.22-.55C1.4,22.41-.34,26.05.06,29.73c.38,3.55,2.63,7.09,6.27,7.94,2.53.59,5.1-.22,7.3-1.47-.18-.07-.37-.15-.55-.22.5,2.15,1.41,4.36,3.18,5.77,1.35,1.07,3.05,1.51,4.76,1.3,3.69-.45,6.83-3.41,8.14-6.79.85-2.18.88-4.59.1-6.79-.15-.47-.87-.28-.71.18Z"/>
      <path d="m26.47,26.58c3.19.13,6.24-1.4,7.58-4.39.95-2.11,1.07-5.14-.92-6.71-1.22-.96-2.84-.94-4.27-.55.16.12.32.24.47.36.26-2.45-.35-5.38-2.72-6.62-1.91-1-4.11-.33-5.35,1.38-.97,1.34-1.27,3.05-1.3,4.67.21-.09.43-.18.64-.27-2.24-1.9-5.34-2.85-7.89-.95-1.81,1.36-2.99,3.93-2.24,6.17.45,1.35,1.53,2.24,2.84,2.7v-.72c-2.8.98-5.14,3.33-5.1,6.45.03,2.43,1.68,4.66,4.23,4.74,1.93.07,3.71-1.01,5.16-2.17-.21-.06-.42-.11-.63-.17.43,2.28,1.66,5.24,4.4,5.31,2.36.06,4.1-2.11,4.88-4.11.68-1.74.8-3.66.58-5.51-.06-.47-.81-.48-.75,0,.31,2.58-.06,5.53-1.9,7.5-1.25,1.33-3.21,1.93-4.67.56-1.08-1.02-1.54-2.54-1.81-3.95-.06-.31-.43-.32-.63-.17-1.85,1.48-4.9,3.01-6.94.97-1.54-1.54-1.45-4.1-.38-5.87.84-1.4,2.24-2.33,3.76-2.86.35-.12.36-.6,0-.72-2.09-.73-2.92-2.74-2.29-4.8.61-1.98,2.4-3.61,4.52-3.67,1.63-.05,3.12.77,4.33,1.8.24.21.64.08.64-.27.03-2.11.67-4.85,2.94-5.61,1.76-.59,3.49.45,4.31,2,.68,1.28.76,2.77.62,4.19-.03.25.26.42.47.36,1.12-.31,2.37-.39,3.39.26.83.53,1.28,1.45,1.45,2.4.41,2.33-.77,4.84-2.65,6.21-1.39,1.01-3.08,1.38-4.77,1.31-.48-.02-.48.73,0,.75Z"/>
      <path d="m45.43,47.79c-2.24,1.46-4.41,3.03-6.49,4.71.21.06.42.11.63.17-1.45-3.85-3.36-7.52-5.35-11.12-1.08-1.96-2.2-3.89-3.34-5.81-.28-.47-.56-.93-.84-1.4-.18-.3-.24-.44-.23-.79,0-.25.04-.5.04-.76,0-1.14-.19-2.26-.57-3.33-.12.16-.24.32-.36.47.8.09,1.59.12,2.39.06-.11-.06-.22-.12-.32-.19,4.43,6.45,9.36,12.57,14.37,18.57.31.37.84-.16.53-.53-4.36-5.22-8.63-10.52-12.59-16.05-.3-.42-.61-.85-.91-1.28-.25-.35-.48-.83-.79-1.13-.26-.25-.68-.12-1.02-.11-.56.01-1.11-.03-1.67-.09-.24-.03-.44.26-.36.47.39,1.12.59,2.27.53,3.46,0,.26-.12.61-.08.86.03.21.16.37.27.56.26.43.52.87.78,1.3,1.14,1.92,2.27,3.85,3.35,5.8,2.01,3.63,3.97,7.34,5.44,11.24.11.28.4.35.63.17,2.03-1.65,4.15-3.17,6.34-4.6.4-.27.03-.92-.38-.65Z"/>
    </g>
  </g>
</svg>