<?xml version="1.0" encoding="UTF-8"?>
<svg id="Layer_2" data-name="Layer 2" xmlns="http://www.w3.org/2000/svg" viewBox="0 0 44.42 70.42">
  <defs>
    <style>
      .cls-1 {
        fill: none;
        stroke: #000;
        stroke-miterlimit: 10;
        stroke-width: .75px;
      }
    </style>
  </defs>
  <g id="Layer_1-2" data-name="Layer 1">
    <g>
      <path d="m12.28,37.82c-1.34,8.27-1.74,16.66-1.67,25.04.02,2.4.07,4.8.15,7.19.12-.12.25-.25.38-.38h-3.91c.12.12.25.25.38.38-.28-8.34-.28-16.71.54-25.02.24-2.44.56-4.86.96-7.28-.15.09-.31.17-.46.26,1.32.33,2.65.45,4,.28.47-.06.48-.81,0-.75-1.29.16-2.55.06-3.81-.26-.18-.05-.43.06-.46.26-1.38,8.36-1.76,16.84-1.69,25.3.02,2.4.08,4.8.16,7.2.01.2.17.38.38.38h3.91c.2,0,.38-.17.38-.38-.28-8.29-.26-16.61.56-24.87.24-2.39.55-4.78.93-7.16.07-.46-.66-.67-.73-.19Z"/>
      <path d="m25.16,24.47c-1.98,2.12-5.26,2.7-7.82,1.32-2.11-1.14-3.56-3.47-3.55-5.88.01-2.85,2.05-5.7,4.89-6.29,2.47-.51,5.28.46,6.69,2.59,1.53,2.3,1.68,6.1-.21,8.26-.32.36.21.89.53.53,1.89-2.17,1.99-5.69.84-8.23-1.21-2.67-4.1-4.2-6.98-4.01-3.28.21-5.87,2.79-6.42,6-.46,2.71.8,5.52,2.99,7.14,2.9,2.15,7.12,1.73,9.57-.9.33-.35-.2-.88-.53-.53Z"/>
      <path d="m37.13,13.94c-.31.89-.67,1.75-1.09,2.59.14-.06.28-.11.42-.17-3.29-.74-7.08-.35-10.14,1.08.18.07.37.15.55.22-1.05-3.22-4.14-5.16-7.5-4.88.12.09.24.18.36.28-.69-2.48-.97-5.25.14-7.66,1.1-2.39,3.39-3.89,5.92-4.41,4.34-.9,9.34.91,11.25,5.1,1.14,2.48.91,5.3.09,7.85-.15.46.58.66.72.2.8-2.49,1.05-5.22.13-7.71-.75-2.05-2.22-3.76-4.1-4.88-4.47-2.64-11.42-2.01-14.27,2.72-1.63,2.72-1.43,6.04-.61,8.98.04.15.2.29.36.28,3.02-.25,5.83,1.41,6.78,4.33.08.25.33.33.55.22,2.86-1.34,6.47-1.69,9.56-1,.15.03.35-.02.42-.17.45-.9.84-1.82,1.17-2.77.17-.46-.55-.66-.71-.2Z"/>
      <path d="m43.29,30.25c-.54,1.94-1.61,3.8-3.31,4.96-1.53,1.04-3.37,1.42-5.2,1.29-3.52-.24-6.94-2.15-9.23-4.78-1.3-1.5-2.23-3.3-2.53-5.28-.09.15-.17.31-.26.46,1.7-.62,3.18-1.76,3.89-3.46.76-1.81.79-3.91.22-5.78-.06.14-.11.28-.17.42,3.02-1.41,6.91-1.76,10.13-.86,3.3.92,5.58,3.76,6.44,6.99.54,1.97.55,4.06.02,6.04-.12.47.6.67.72.2.95-3.59.24-7.63-2.05-10.59-1.05-1.36-2.43-2.42-4.03-3.05-1.68-.66-3.57-.81-5.36-.76-2.15.06-4.3.48-6.26,1.4-.15.07-.22.28-.17.42.49,1.63.51,3.44-.09,5.05-.59,1.6-1.91,2.69-3.49,3.26-.21.08-.29.25-.26.46.58,3.83,3.44,7,6.74,8.84,3.28,1.83,7.64,2.64,11.01.58,2.03-1.24,3.34-3.35,3.96-5.61.14-.47-.59-.67-.72-.2Z"/>
      <path d="m33.46,36.77c-.26,2.35-1.12,4.69-2.96,6.26-1.49,1.26-3.45,1.81-5.38,1.72-4.05-.18-7.82-3.04-8.7-7.05-.84-3.85,1.03-7.66,3.29-10.66-.14.06-.28.11-.42.17,1.18.16,2.34.07,3.47-.31-.15-.09-.31-.17-.46-.26.83,5.47,6.17,9.65,11.42,10.49.47.08.68-.65.2-.72-5.03-.81-10.1-4.73-10.9-9.97-.03-.19-.29-.32-.46-.26-1,.33-2.03.45-3.08.31-.19-.03-.31.02-.42.17-2.23,2.95-4,6.59-3.52,10.38.29,2.26,1.4,4.34,3.11,5.84,3.15,2.78,8.23,3.66,11.79,1.12,2.36-1.69,3.45-4.43,3.75-7.24.07-.47-.68-.47-.73,0Z"/>
      <path d="m15.71,36.47c-4.52,2.63-10.64.43-13.42-3.75-1.27-1.91-1.82-4.25-1.39-6.52.41-2.16,1.72-3.96,3.58-5.12,2.6-1.61,5.88-1.97,8.86-1.44-.09-.12-.18-.24-.28-.36-.34,3.77,2.48,7.36,6.23,7.92-.07-.18-.15-.37-.22-.55-2.19,2.9-3.91,6.42-3.54,10.14.05.48.8.48.75,0-.36-3.6,1.33-6.96,3.44-9.76.14-.18,0-.52-.22-.55-3.44-.52-5.99-3.73-5.68-7.2.01-.15-.13-.33-.28-.36-5.04-.89-11.48.78-13.15,6.23-1.54,5.03,1.66,10.06,6.21,12.14,3.01,1.37,6.57,1.54,9.49-.16.42-.25.04-.9-.38-.66Z"/>
      <path class="cls-1" d="m19.37,13.15c-1.2.1-2.35.52-3.3,1.28-.65.53-1.2,1.19-1.63,1.92-.46.77-.79,1.63-.94,2.51-.02.13-.04.28-.05.42-2.35-.43-4.86-.28-7.04.49-2.83-2.15-4.11-4.74-4.28-7.27-.16-2.56.82-5.06,2.53-6.96C8.05,1.79,14.24.2,20.02,4.33c-1.3,2.08-1.74,4.99-.65,8.82Z"/>
    </g>
  </g>
</svg>