<?xml version="1.0" encoding="UTF-8"?>
<svg id="Layer_2" data-name="Layer 2" xmlns="http://www.w3.org/2000/svg" viewBox="0 0 175.88 224.91">
  <defs>
    <style>
      .cls-1 {
        fill: none;
        stroke: #000;
        stroke-miterlimit: 10;
        stroke-width: .75px;
      }
    </style>
  </defs>
  <g id="Layer_1-2" data-name="Layer 1">
    <g>
      <path d="m112.78,68.72c-.36-1.96-1.18-3.89-2.73-5.2-.74-.63-1.6-1.1-2.52-1.41-1.13-.39-2.38-.38-3.57-.45-5.06-.3-10.15-.01-15.15.81-10,1.64-19.57,5.45-28.19,10.74-4.89,3.01-9.49,6.49-13.75,10.34.2.15.39.3.59.45,1.5-2.41,2.07-5.45.74-8.07-1.15-2.27-3.56-3.6-6.09-3.48-1.83.09-3.53.85-5.02,1.88.15.2.3.39.45.59,2.86-3.27,5.96-6.48,9.54-8.97,2.81-1.95,5.89-3.49,9.05-4.78,6.26-2.54,12.85-4.12,19.29-6.12,5.5-1.71,11.33-3.76,15.59-7.81.95-.91,1.81-1.92,2.54-3.02.37-.55.7-1.13,1-1.73.16-.32.3-.64.44-.96.17-.4.25-.56.03-.95-1.2-2.13-2.26-4.29-3-6.62-.36-1.12-.65-2.26-.88-3.41-.1-.5-.27-1.08-.24-1.59.03-.47.2-.98.32-1.43.92-3.52,2.78-6.71,5.36-9.26,2.58-2.54,5.76-4.41,9.13-5.71.84-.32,1.69-.61,2.55-.88-.12-.21-.24-.42-.36-.63-2.57,3.05-4.48,6.6-5.35,10.51-.81,3.64-.74,7.41-.18,11.08,1.21,8.01,4.46,15.53,6.88,23.21,1.33,4.22,2.47,8.54,2.77,12.96.03.48.78.48.75,0-.54-7.81-3.48-15.23-5.98-22.58-2.44-7.19-4.94-14.93-3.86-22.62.63-4.48,2.59-8.59,5.49-12.04.23-.27.02-.74-.36-.63-6.77,2.06-13.16,6.15-16.25,12.74-.38.82-.72,1.66-.99,2.52s-.66,1.88-.69,2.78c-.03.97.33,2.1.56,3.04.27,1.11.6,2.21.99,3.29.4,1.09.85,2.17,1.36,3.21.27.55.55,1.09.85,1.63.13.22.32.46.41.7.08.23.04.28-.08.54-.55,1.26-1.27,2.47-2.13,3.55-3.66,4.59-9.43,6.93-14.84,8.73-6.44,2.14-13.08,3.67-19.44,6.04-3.17,1.19-6.28,2.57-9.18,4.33-3.37,2.05-6.29,4.66-9.02,7.49-.9.93-1.76,1.88-2.61,2.85-.26.3.08.85.45.59,2.68-1.86,6.45-2.71,9.01-.16,2.42,2.41,2.01,6.1.33,8.8-.23.37.28.73.59.45,7.3-6.59,15.61-12.11,24.68-15.95,9.02-3.82,18.77-5.93,28.58-5.84,1.38.01,2.75.07,4.12.17,1.35.1,2.57.24,3.76.92,2.05,1.17,3.09,3.29,3.5,5.54.13.5.85.29.76-.18Z"/>
      <path d="m102.32,93.96c-5.25,4.77-10.76,9.24-16.33,13.63-5.53,4.36-11.11,8.64-16.57,13.09-5.49,4.48-10.85,9.14-15.86,14.17-5.09,5.12-9.8,10.64-13.9,16.6-.51.75-1.02,1.5-1.51,2.26-.23.36-.45.86-.8,1.12-.42.32-1.05.49-1.55.67-.94.34-1.91.59-2.89.79-.47.1-.94.18-1.41.26-.46.08-.94.1-1.36.31-3.46,1.73-6.23,4.65-8.67,7.59-.67.81-1.32,1.63-1.96,2.46.15-.02.3-.04.45-.06-2.64-1.93-3.55-5.18-3.87-8.29-.32-3.15-.28-6.39-.21-9.56.14-6.14,1.07-12.24,2.64-18.17,1.62-6.11,3.91-12.04,6.75-17.68,2.89-5.74,6.35-11.21,10.29-16.28,3.92-5.05,8.33-9.74,13.15-13.94,4.82-4.21,10.07-7.93,15.66-11.02,5.51-3.05,11.35-5.47,17.43-7.12,6.12-1.66,12.45-2.52,18.79-2.46,1.61.01,3.21.08,4.81.21,1.65.13,3.16.63,4.39,1.8,2.17,2.08,2.56,5.33,2.41,8.19-.17,3.25-1.06,6.45-2.24,9.47-1.22,3.11-2.81,6.11-4.81,8.79-.83,1.11-1.77,2.2-2.83,3.17-.36.33.17.86.53.53,2.31-2.12,4.13-4.78,5.63-7.52,1.65-3.02,2.95-6.27,3.76-9.62,1.31-5.43,1.54-13.48-5.12-15.37-.79-.22-1.66-.22-2.48-.28s-1.63-.1-2.45-.12c-1.65-.05-3.31-.04-4.96.02-3.22.13-6.42.5-9.59,1.07-6.36,1.16-12.54,3.19-18.4,5.91-5.93,2.75-11.52,6.22-16.68,10.22-5.23,4.04-10.03,8.63-14.33,13.65-4.3,5-8.12,10.42-11.36,16.17-3.2,5.66-5.85,11.64-7.82,17.84-1.94,6.07-3.22,12.37-3.69,18.73-.24,3.17-.22,6.36-.17,9.54.05,3.16.21,6.52,1.62,9.41.66,1.34,1.61,2.48,2.82,3.36.12.09.36.06.45-.06,2.43-3.15,5.04-6.33,8.32-8.63.8-.56,1.72-1.25,2.69-1.43.98-.18,1.95-.33,2.92-.57s1.93-.54,2.85-.93c.34-.15.81-.29,1.1-.52.3-.24.49-.7.7-1.02,3.98-6.17,8.63-11.89,13.72-17.18,4.9-5.1,10.18-9.81,15.62-14.32,5.42-4.49,10.99-8.79,16.53-13.13,5.55-4.35,11.07-8.75,16.35-13.42.67-.59,1.33-1.19,1.99-1.79.34-.34-.19-.87-.55-.54Z"/>
      <path d="m23,224.45c-1.54-4.87-4.44-9.07-7.61-13.01-3.11-3.87-6.54-7.56-9.04-11.88-2.47-4.28-3.76-9.3-4.64-14.13-.94-5.16-1.26-10.48-.62-15.7.67-5.48,2.51-10.94,6.11-15.21-.21-.09-.43-.18-.64-.27.28,4.14.97,8.31,2.42,12.21,1,2.69,2.38,5.41,4.49,7.42,1.48,1.4,3.44,2.43,5.53,2.09,2.26-.37,3.95-2.19,5.09-4.06,2.37-3.85,3.27-8.56,3.85-12.98-.06.11-.12.22-.19.32.94-.7,1.93-1.33,2.98-1.85-.18-.07-.37-.15-.55-.22,1.64,8.83,1.91,17.88,1.25,26.82-.67,9-2.28,17.93-4.65,26.63-1.27,4.67-2.78,9.29-4.5,13.81-.17.45.55.65.72.2,3.16-8.28,5.57-16.86,7.2-25.57,1.67-8.93,2.53-18.05,2.27-27.14-.14-5.02-.64-10.02-1.56-14.96-.05-.25-.35-.32-.55-.22-.59.29-1.16.61-1.71.96-.43.28-1.22.64-1.45,1.11-.1.21-.08.6-.12.85-.04.31-.09.62-.14.92-.1.62-.21,1.24-.33,1.85-.4,2.03-.92,4.05-1.67,5.99-.92,2.39-2.31,5.08-4.68,6.32-4.69,2.44-8.5-3.66-10.02-7.17-1.82-4.19-2.62-8.8-2.93-13.34-.02-.29-.41-.53-.64-.27C.04,161.84-.79,173.03.54,182.83c.35,2.59.87,5.16,1.54,7.68.64,2.42,1.38,4.86,2.43,7.14,2.08,4.49,5.37,8.28,8.5,12.06,3.75,4.52,7.46,9.23,9.25,14.91.16.49.88.3.74-.17Z"/>
      <path d="m119.26,105.32c-7.71,11.02-20.32,16.03-31.88,21.89-5.79,2.93-11.46,6.22-16.28,10.59-2.55,2.32-4.75,4.93-6.79,7.7-2.17,2.95-4.27,5.98-7.02,8.44-2.9,2.61-6.41,4.5-10.36,4.76-3.42.23-6.96-.83-8.85-3.86v.38c7.31-11.54,16.87-21.33,27.24-30.16,10.05-8.56,20.77-16.29,30.88-24.78,2.46-2.07,5.01-4.12,7.28-6.4,1.98-1.98,3.58-4.34,4.93-6.78,2.73-4.96,4.91-10.92,4.58-16.66-.72-12.38-6.89-23.39-9.39-35.37-1.21-5.81-1.37-11.94,1.06-17.48.65-1.48,1.46-2.89,2.4-4.21.47-.66.96-1.56,1.74-1.85.89-.33,1.89-.5,2.82-.7,3.77-.79,7.65-1.06,11.49-.87,1.83.09,3.65.28,5.46.59-.09-.15-.17-.31-.26-.46-.58,3.1-.22,6.38,1.47,9.1,1.64,2.63,4.31,4.36,7.32,5.03-.07-.18-.15-.37-.22-.55-3.48,4.99-6.25,10.5-7.61,16.46-1.09,4.78-1.23,9.69-.91,14.56.32,4.78,1.01,9.53,1.33,14.31.35,5.22.2,10.46-.91,15.59-1.64,7.52-5.16,14.44-9.52,20.73-.28.4.37.77.65.38,3.93-5.68,7.21-11.87,9.01-18.57,1.38-5.1,1.83-10.38,1.63-15.65-.36-9.68-2.67-19.34-1-29.02,1.16-6.7,4.09-12.86,7.96-18.41.14-.19,0-.5-.22-.55-2.82-.63-5.33-2.21-6.87-4.69-1.58-2.54-1.94-5.61-1.39-8.52.03-.18-.05-.43-.26-.46-3.69-.63-7.45-.82-11.19-.56-1.8.12-3.6.35-5.38.69-.95.18-1.9.39-2.84.64-.39.1-.92.16-1.27.36-.33.18-.55.55-.78.84-3.79,4.79-5.55,10.59-5.32,16.68.23,6.15,2.13,12.12,4.09,17.91,2.02,5.96,4.3,11.9,5.42,18.12.26,1.45.39,2.91.55,4.37.15,1.34.25,2.64.15,3.99-.22,3.02-1.03,6-2.11,8.81-1.11,2.9-2.55,5.69-4.32,8.24-1.75,2.52-3.94,4.5-6.23,6.51-10.05,8.81-20.89,16.65-31.21,25.13-10.41,8.57-20.27,17.92-28.05,29-.99,1.4-1.94,2.83-2.85,4.28-.07.11-.07.27,0,.38,3.43,5.51,11.28,5.02,16.32,2.21,6.71-3.74,10-10.84,15.03-16.29,9.32-10.1,22.58-14.44,34.27-21.02,6.53-3.67,12.52-8.24,16.85-14.43.28-.39-.37-.76-.64-.37Z"/>
      <path d="m130.67,4.22c-1.11,1.82-1.95,3.78-2.37,5.88.15-.09.31-.17.46-.26-7.05-1.21-14.52-.87-21.34,1.33-5.21,1.68-10.14,4.57-13.47,9.01-1.94,2.58-3.2,5.6-3.79,8.77h.72c-.62-4.5-.24-9.21,1.51-13.43,1.45-3.49,3.9-6.45,6.87-8.75,5.66-4.41,13.13-6.54,20.26-5.92,4.02.35,7.93,1.63,11.28,3.89.4.27.78-.38.38-.65C124.96-.1,116.99-.89,109.81.9c-7.21,1.8-14.25,6.32-17.58,13.15-2.28,4.67-2.79,10-2.08,15.1.05.37.66.35.72,0,1.03-5.48,4.14-10.17,8.71-13.36,5.02-3.5,11.17-5.19,17.22-5.71,3.92-.33,7.88-.19,11.75.48.19.03.42-.05.46-.26.41-2.03,1.22-3.93,2.3-5.7.26-.42-.38-.79-.64-.38Z"/>
      <path d="m110.47,130.03c-1.89-.89-3.81-.26-5.43.9-1.95,1.39-3.54,3.24-5.18,4.98-.82.87-1.65,1.73-2.57,2.5-1.01.84-2.17,1.41-3.33,2.01-2.89,1.5-5.84,2.95-8.51,4.82-1.48,1.04-2.76,2.23-4.04,3.5-1.15,1.13-2.72,2.18-4.32,2.5-.12.02-.24.14-.26.26-.67,3.07-2.22,5.71-4.1,8.19-1.5,1.98-3.25,3.92-4.09,6.31-.45,1.28-.52,2.63-.29,3.96.23-.1.46-.19.69-.29-.93-1.26-1.57-2.7-1.41-4.3.14-1.38.82-2.65,1.53-3.81,1.69-2.77,3.7-5.33,4.39-8.57.07-.33-.25-.57-.55-.42-2.31,1.15-3.63,3.09-4.71,5.35-.43.9-.84,1.85-1.49,2.62-.73.86-1.71,1.3-2.82,1.42-.21.02-.37.15-.38.38-.06,1.94-.13,3.89-.19,5.83.21-.09.43-.18.64-.27-.96-1.15-1.83-2.5-1.99-4.02-.13-1.21.24-2.37.86-3.4,1.48-2.45,3.92-4.27,6.01-6.18,1.32-1.21,2.61-2.46,3.73-3.86.26-.33-.06-.79-.45-.59-5.73,2.92-11.9,4.89-18.1,6.54.1.23.19.46.29.69,1.8-1.13,3.44-2.48,4.91-4.02.3-.31.61-.82.99-1.02.44-.24,1.07-.32,1.56-.46,1.01-.3,2.03-.61,3.04-.92,3.93-1.21,7.86-2.45,11.72-3.86,3.63-1.33,6.86-3.8,9.53-6.56,1.37-1.42,2.62-2.95,3.72-4.58,1.01-1.49,1.75-3.11,2.67-4.65,1.35-2.25,5.46-6.76,7.65-2.96.11-.19.22-.38.32-.56-1.79-.21-3.21.95-4.13,2.38-.47.73-.75,1.56-1.2,2.3-.45.75-1,1.42-1.61,2.05-2.38,2.48-5.51,4.33-7.02,7.54-.15.31.17.74.51.51,3.56-2.33,7.37-4.3,10.42-7.32.83-.82,1.61-1.71,2.32-2.64.52-.68,1.03-1.33,1.68-1.89,1.2-1.04,2.68-1.88,4.24-2.18,1.88-.36,3.47.43,4.18,2.23.17.44.9.25.72-.2-.59-1.51-1.71-2.64-3.37-2.84-1.62-.19-3.27.43-4.64,1.24-.74.44-1.45.97-2.07,1.58-.72.7-1.27,1.53-1.9,2.3-1.58,1.9-3.42,3.53-5.45,4.94-2.12,1.47-4.37,2.72-6.53,4.13.17.17.34.34.51.51,1.43-3.03,4.37-4.84,6.66-7.14,1.14-1.14,1.96-2.37,2.65-3.82.75-1.59,2.06-3.17,4-2.94.29.03.45-.34.32-.56-.69-1.2-1.79-2.03-3.23-1.83s-2.7,1.19-3.7,2.19c-1.14,1.14-1.97,2.45-2.7,3.88-.92,1.81-2.03,3.53-3.28,5.13-2.59,3.31-5.81,6.22-9.55,8.16-1.76.91-3.69,1.49-5.56,2.12-2.08.7-4.17,1.37-6.27,2.03-1.2.37-2.4.74-3.6,1.11-.57.17-1.13.34-1.7.51-.46.14-1.14.21-1.52.5-.44.34-.79.89-1.18,1.29-.41.42-.84.84-1.28,1.23-1.01.91-2.1,1.72-3.26,2.45-.36.22-.13.8.29.69,6.26-1.66,12.49-3.66,18.28-6.62-.15-.2-.3-.39-.45-.59-2.1,2.64-4.79,4.69-7.2,7.03-1.84,1.79-3.84,4.06-3.63,6.82.13,1.78,1.1,3.34,2.22,4.68.22.26.63.03.64-.27.06-1.94.13-3.89.19-5.83l-.38.38c1.1-.12,2.13-.46,2.96-1.22.74-.68,1.23-1.59,1.67-2.49.5-1.03.96-2.08,1.6-3.03.81-1.2,1.88-2.11,3.17-2.75-.18-.14-.37-.28-.55-.42-.58,2.69-2.08,4.94-3.56,7.21-1.2,1.84-2.53,3.91-2.41,6.21.08,1.42.7,2.71,1.53,3.85.25.35.76.14.69-.29-.43-2.45.56-4.6,1.94-6.57,1.54-2.2,3.34-4.19,4.65-6.55.86-1.55,1.5-3.21,1.88-4.94-.09.09-.17.17-.26.26,1.36-.27,2.63-1.05,3.71-1.89,1.17-.9,2.12-2.06,3.27-3,2.49-2.05,5.37-3.57,8.22-5.05,1.34-.69,2.72-1.33,4.01-2.11.88-.53,1.66-1.23,2.4-1.94,1.77-1.7,3.33-3.61,5.15-5.26,1.6-1.45,3.82-3.08,6.06-2.03.47.16.85-.49.41-.69Z"/>
      <path d="m125.56,40.72c-1.5,2.16-3.59,4.04-6.09,4.93-2.17.78-5.59.86-6.43-1.84-.8-2.57,1.27-5.29,2.97-6.96,1.92-1.89,4.18-3.4,6-5.39,1.77-1.92,2.86-4.19,2.93-6.83-.09.12-.18.24-.28.36,2.18-.29,4.46-.89,5.68-2.89-.23-.03-.46-.06-.69-.09.55,1.47.94,2.93.98,4.51.05,1.95-.31,3.88-.88,5.73-.93,3.03-2.43,5.87-4.19,8.47-.27.4.38.78.65.38,1.84-2.71,3.38-5.67,4.33-8.81.56-1.86.91-3.81.85-5.75-.04-1.65-.44-3.18-1.01-4.71-.11-.3-.51-.38-.69-.09-1.11,1.82-3.26,2.28-5.23,2.54-.16.02-.27.21-.28.36-.08,2.77-1.39,5.01-3.32,6.92-2.17,2.15-4.82,3.82-6.72,6.23-1.47,1.87-2.8,4.66-1.53,6.97,1.25,2.26,4.25,2.43,6.47,1.79,2.94-.85,5.39-2.98,7.11-5.46.29-.39-.36-.76-.63-.37Z"/>
      <path d="m124.42,39.95c-1.46,2.11-3.58,3.96-6.11,4.62-1.36.36-3.7.4-4.03-1.4-.18-.98.24-2.02.71-2.86.75-1.33,1.84-2.42,2.98-3.42,1.83-1.6,3.8-3.07,5.39-4.92,1.86-2.15,2.92-4.7,2.94-7.56-.09.12-.18.24-.28.36,1.17-.25,2.28-.65,3.23-1.4-.21-.06-.42-.11-.63-.17,2.07,5.69-1.04,12.1-4.2,16.75-.27.4.38.78.65.38,3.26-4.81,6.4-11.45,4.29-17.32-.1-.28-.4-.35-.63-.17-.84.67-1.86.99-2.9,1.21-.16.03-.27.2-.28.36-.02,2.94-1.22,5.46-3.21,7.58-1.94,2.07-4.35,3.63-6.3,5.69-1.39,1.48-3.23,3.98-2.36,6.15.67,1.69,2.81,1.87,4.35,1.57,2.92-.57,5.37-2.69,7.02-5.07.3-.4-.35-.77-.63-.38Z"/>
      <g>
        <path d="m30.24,194.44c-.21,1.4-.45,2.8-.71,4.2.23-.03.46-.06.69-.09-4.88-7-8.18-15.03-9.65-23.43-.06.14-.11.28-.17.42.43-.2.82-.45,1.2-.73-.18-.07-.37-.15-.55-.22,1.83,7.23,4.59,14.35,9.29,20.22.3.38.83-.16.53-.53-4.61-5.77-7.3-12.79-9.1-19.89-.05-.21-.36-.37-.55-.22-.38.29-.77.53-1.2.73-.16.07-.2.27-.17.42,1.48,8.46,4.81,16.57,9.73,23.61.17.24.62.25.69-.09.26-1.4.49-2.79.71-4.2.05-.47-.67-.68-.74-.2Z"/>
        <path d="m22.25,186.99c-.07,1.19-.13,2.38-.19,3.57.16-.12.32-.24.47-.36-3.14-.74-5.96-2.41-8.09-4.83-.17-.19-.46-.11-.59.08-2.47,3.7-5.07,7.33-7.78,10.86h.65c-.62-1.39-1.09-2.84-1.53-4.29-.03.12-.06.24-.1.36,3.28-3.47,5.97-7.39,8.54-11.4-.2.03-.39.05-.59.08,2.78,2.57,5.94,4.7,9.39,6.26.44.2.82-.45.38-.65-3.39-1.54-6.5-3.62-9.24-6.15-.18-.17-.46-.13-.59.08-2.54,3.96-5.18,7.83-8.43,11.25-.09.1-.14.24-.1.36.46,1.52.96,3.03,1.61,4.47.13.29.5.2.65,0,2.71-3.53,5.31-7.15,7.78-10.86-.2.03-.39.05-.59.08,2.21,2.51,5.17,4.25,8.42,5.02.25.06.46-.11.47-.36.06-1.19.12-2.38.19-3.57.04-.48-.71-.48-.73,0Z"/>
        <path d="m21.78,197.44c-.04,1.28-.08,2.57-.1,3.85.19-.11.38-.22.56-.32-2.51-1.46-4.7-3.41-6.55-5.64-.15-.18-.49-.13-.59.08-1.29,2.65-3.07,5.02-5.1,7.15.2.03.39.05.59.08-.58-.77-1.14-1.56-1.67-2.36-.02.15-.04.3-.06.45,2.47-3.02,4.59-6.29,6.41-9.73h-.65c1.8,2.91,4.62,4.83,7.34,6.78.39.28.77-.37.38-.65-2.62-1.88-5.35-3.72-7.07-6.51-.14-.23-.51-.26-.65,0-1.79,3.38-3.87,6.61-6.29,9.58-.1.12-.16.31-.06.45.53.81,1.09,1.59,1.67,2.36.14.19.41.27.59.08,2.08-2.17,3.91-4.59,5.22-7.3-.2.03-.39.05-.59.08,1.89,2.28,4.13,4.27,6.7,5.76.25.14.56-.04.56-.32.03-1.28.06-2.57.1-3.85.02-.51-.73-.51-.74-.02Z"/>
        <path d="m22.27,209.22c-1.95-1.61-3.73-3.41-5.42-5.3-.18-.2-.58-.11-.63.17-.24,1.55-.84,3-1.57,4.38.2-.03.39-.05.59-.08-.81-.98-1.62-1.96-2.43-2.94.02.15.04.3.06.45,1.42-1.93,2.42-4.11,3.48-6.25-.2.03-.39.05-.59.08,1.81,2.2,3.69,4.35,6.04,5.99-.06-.11-.12-.22-.19-.32-.01,1.36-.01,2.73.01,4.09,0,.48.75.48.75,0-.01-1.17-.01-2.34-.01-3.51,0-.21.06-.53-.03-.73-.08-.18-.29-.27-.44-.38-.47-.34-.92-.7-1.36-1.08-1.57-1.38-2.92-2.98-4.25-4.58-.15-.18-.49-.13-.59.08-1.06,2.14-2.07,4.32-3.48,6.25-.1.14-.04.33.06.45.8.98,1.62,1.96,2.43,2.94.15.18.48.12.59-.08.76-1.44,1.4-2.94,1.65-4.56-.21.06-.42.11-.63.17,1.69,1.88,3.47,3.69,5.42,5.3.38.3.91-.23.54-.54Z"/>
        <path d="m11.71,171.44c-2.46,4.31-5.35,8.4-9.12,11.66.21.06.42.11.63.17-.12-.82-.23-1.63-.31-2.45-.04-.37-.07-.73-.1-1.1-.02-.3-.15-.83-.03-1.1.1-.23.53-.49.72-.68.26-.26.52-.52.78-.78.49-.5.96-1.02,1.41-1.55,1.82-2.11,3.43-4.4,4.98-6.71h-.65c.49,1.02,1.05,1.99,1.69,2.92.27.39.92.02.65-.38-.65-.93-1.2-1.9-1.69-2.92-.13-.27-.5-.21-.65,0-1.68,2.5-3.43,4.98-5.45,7.22-.49.55-1,1.08-1.53,1.59-.38.37-1.04.73-1.06,1.29-.04.79.12,1.65.2,2.44.09.81.19,1.61.31,2.41.05.3.44.33.63.17,3.82-3.3,6.75-7.45,9.24-11.81.24-.44-.41-.81-.65-.39Z"/>
        <path d="m31.69,179.17c-.06,1.9-.18,3.8-.32,5.7.21-.09.43-.18.64-.27-3.78-3.33-6.18-7.85-8.44-12.27v.38c.35-.5.67-1.02.97-1.56-.2.03-.39.05-.59.08,2.47,2.87,4.87,5.85,7.86,8.21.38.3.91-.23.53-.53-2.99-2.36-5.39-5.33-7.86-8.21-.16-.18-.48-.12-.59.08-.29.54-.61,1.06-.97,1.56-.08.11-.06.27,0,.38,2.29,4.48,4.74,9.05,8.56,12.42.25.22.61.06.64-.27.15-1.9.26-3.8.32-5.7.02-.48-.73-.48-.75,0Z"/>
        <path d="m27.87,206.39c-.29,1.22-.6,2.44-.93,3.65.23-.03.46-.06.69-.09-1.35-2.12-2.56-4.33-3.62-6.6v.38c.39-.93.79-1.87,1.18-2.8-.23.03-.46.06-.69.09.99,1.98,2.12,3.87,3.41,5.66.28.39.93,0,.65-.38-1.29-1.79-2.42-3.69-3.41-5.66-.16-.32-.57-.18-.69.09-.31.73-.62,1.46-.92,2.18-.16.38-.29.58-.11.97.21.44.43.89.64,1.32.88,1.76,1.85,3.47,2.9,5.13.17.27.6.23.69-.09.33-1.21.64-2.43.93-3.65.12-.47-.6-.67-.72-.2Z"/>
      </g>
      <g>
        <path class="cls-1" d="m16.54,138.35c1.91.08,3.59-2,5.11-5.48l2.56,1.13c6.64,2.91,14.9-4.79,25.26-23.51l1.4-2.89c5.99-1.2,10.24-5.12,12.7-11.83,7.13-.15,12.16-3.73,15.45-10.19,7.99,2.23,16.58-1.89,25.31-7.56"/>
        <path class="cls-1" d="m15.57,147.65c2.92-4.43,6.31-4.16,7.17-10.31,10.16,4.44,20.08-7.31,29.91-25.09,3.3,3.26,7.04,3.49,11.28.33,1.73,3.17,4.83,4.21,8.89,3.8"/>
        <path class="cls-1" d="m18.47,129.65c10.85,3.67,27.03-14.76,25.31-27.04,6.43-.15,12.3-3.35,14.9-11.06,7.48,1.24,12.44-2.28,16.87-10.63"/>
        <path class="cls-1" d="m39.07,99.76c2,11.35-9.52,26.24-18.78,24.13"/>
      </g>
      <g>
        <path class="cls-1" d="m27.93,158.68c-.12.08-.24.17-.36.26-1.42,1.07-2.77,2.36-4.06,3.77-.35-7.2-1.02-14.37-1.98-21.51.56-.95.98-2.16,1.22-3.85.54.24,1.07.42,1.62.57,1.66,6.82,2.85,13.77,3.56,20.76Z"/>
        <path class="cls-1" d="m37.92,154.77c-.06.08-.11.17-.17.26-1.42.76-2.95,1.22-4.51,1.56-1.72-6.23-3.82-12.36-6.31-18.33,1.02.03,2.04-.11,3.06-.39,2.95,5.5,5.43,11.21,7.93,16.9Z"/>
        <path class="cls-1" d="m44.42,145.67c-1.07,1.35-2.12,2.72-3.13,4.13-2.3-4.64-4.66-9.26-7.09-13.84.95-.61,1.9-1.33,2.85-2.15,2.8,3.72,5.27,7.7,7.37,11.86Z"/>
        <path class="cls-1" d="m50.24,138.87c-.86.93-1.7,1.87-2.53,2.83-1.63-4.45-3.56-8.8-5.78-12.99.56-.68,1.11-1.38,1.67-2.12,2.46,3.95,4.69,8.05,6.64,12.28Z"/>
        <path class="cls-1" d="m56.11,132.87c-.93.9-1.85,1.82-2.76,2.74-2.28-4.43-4.51-8.89-6.69-13.37.62-.95,1.26-1.92,1.88-2.94,2.82,4.36,5.35,8.88,7.57,13.57Z"/>
        <path class="cls-1" d="m63.34,126.27c-1.02.89-2.04,1.79-3.05,2.7-2.61-4.96-5.41-9.85-9.22-13.92.53-.91,1.06-1.85,1.59-2.81,1.15,1.14,2.36,1.91,3.62,2.29,2.81,3.42,5.32,7.67,7.06,11.74Z"/>
        <path class="cls-1" d="m70.07,120.63c-.93.75-1.84,1.51-2.76,2.27-1.51-3.22-3.13-6.42-5.38-9.06.66-.33,1.33-.75,2.01-1.26.73,1.35,1.73,2.32,2.93,2.95,1.18,1.63,2.25,3.33,3.2,5.1Z"/>
      </g>
      <path class="cls-1" d="m47.15,83.82c-.23.21-.46.42-.68.62-18.93,17.47-31.24,42.72-30.95,67.03.06,5.63-.3,12.41,4.28,15.69,2.45-3.17,4.96-6.1,7.77-8.23-3.44,26.49-19.08,18.97-20.62-4.67-3.09-23.33,12.55-59.04,29.91-79.1.14-.17.29-.34.44-.5,7.58-5.36,14.35,2.05,9.85,9.16Z"/>
      <path d="m130.35,19.8c-.25,1.47-.93,2.73-2.26,3.48-1.32.74-2.9.94-4.38,1.09-3.61.38-7.34.43-10.67,2.06-2.16,1.06-3.88,2.75-5.11,4.8.23.06.47.13.7.19-.14-4.28.61-8.61,2.57-12.45,1.83-3.61,4.66-6.63,8.15-8.68.26-.15.52-.33.82-.38.39-.06.83-.01,1.21,0,.8.01,1.6.04,2.4.09,1.6.1,3.2.29,4.78.56-.09-.15-.17-.31-.26-.46-.65,3.49-.09,7.13,2.09,9.99.29.38.94,0,.65-.38-2.06-2.7-2.63-6.11-2.02-9.41.03-.18-.05-.42-.26-.46-1.41-.24-2.84-.42-4.26-.53-.72-.06-1.43-.09-2.15-.12-.36-.01-.72-.02-1.09-.02-.4,0-.94-.08-1.34.01-.44.1-.87.42-1.25.66-.47.28-.92.59-1.37.9-.83.6-1.63,1.25-2.37,1.96-3.1,2.96-5.23,6.83-6.26,10.97-.63,2.53-.87,5.15-.78,7.75.01.37.5.51.7.19,1.15-1.91,2.73-3.46,4.72-4.47,1.72-.87,3.63-1.3,5.53-1.55,1.78-.24,3.58-.31,5.36-.52,1.48-.17,3.02-.42,4.33-1.17,1.46-.84,2.28-2.27,2.56-3.9.07-.48-.66-.68-.74-.2Z"/>
      <path d="m125.97,16.73c-.5,1.34-2.51,2.12-3.85,1.86-1.42-.27-2.6-1.34-3.05-2.71-.46-1.42-.08-2.92.98-3.96,1.14-1.12,2.83-1.23,4.27-.62.77.32,1.44.86,1.79,1.63.57,1.23.28,2.56-.14,3.8-.16.46.57.65.72.2.41-1.21.69-2.51.3-3.77-.29-.94-.88-1.7-1.72-2.21-1.47-.9-3.66-1.13-5.12-.09-1.52,1.09-2.32,2.93-1.93,4.77.36,1.68,1.65,3.09,3.29,3.59,1.86.56,4.46-.39,5.18-2.29.18-.46-.55-.65-.72-.2Z"/>
      <path d="m123.71,15.5c-.12.27-.29.49-.53.63-.22.13-.45.2-.72.17-.07,0-.23-.05-.32-.1-.16-.08-.29-.18-.41-.31-.22-.22-.34-.51-.4-.82-.11-.56.09-1.22.58-1.53.46-.29,1.08-.33,1.5.04.59.52.53,1.33.26,2.01-.08.19.08.41.26.46.21.06.39-.07.46-.26.35-.87.32-1.87-.32-2.6-.59-.67-1.56-.76-2.34-.4-1.75.83-1.45,3.65.37,4.2.9.27,1.88-.27,2.25-1.11.08-.19.06-.4-.13-.51-.16-.1-.43-.06-.51.13Z"/>
      <path d="m175.5,8.16c-2.43-.23-4.9-.1-7.32.13-3.12.3-6.22.8-9.28,1.5-6.03,1.37-12.39,3.4-17.31,7.27-2.18,1.72-4.08,3.95-4.75,6.7.15-.09.31-.17.46-.26-2.85-.63-5.38-2.25-6.92-4.76-1.56-2.55-1.91-5.66-1.32-8.56.41-1.99,1.22-3.85,2.27-5.58-.14.06-.28.11-.42.17,6.38.95,12.7-.81,19.08-.95,2.96-.07,5.94.22,8.91.24,2.76.02,5.55.04,8.27.55,3.09.58,5.93,1.86,8.08,4.19.33.36.86-.18.53-.53-3.9-4.21-9.63-4.84-15.06-4.94-1.39-.02-2.78-.02-4.17-.05-1.47-.03-2.93-.15-4.39-.2-3.43-.12-6.84.3-10.23.7-3.59.43-7.21.79-10.81.26-.17-.03-.33.02-.42.17-1.85,3.03-2.99,6.59-2.56,10.17.36,3,1.82,5.79,4.21,7.65,1.4,1.09,3.03,1.81,4.75,2.19.19.04.41-.06.46-.26,1.28-5.23,6.85-8.31,11.41-10.26,5.8-2.47,12.12-3.9,18.38-4.57,2.7-.29,5.45-.47,8.16-.22.47.04.46-.71-.01-.75Z"/>
      <path d="m129.17,16.92c5.5-3.23,11.53-5.57,17.65-7.32,6.32-1.8,13-3.06,19.6-2.73,3.04.15,6.13.66,8.89,1.99.43.21.81-.44.38-.65-5.31-2.56-11.68-2.44-17.4-1.74-6.86.83-13.62,2.7-20.04,5.25-3.25,1.29-6.44,2.77-9.46,4.55-.42.24-.04.89.38.65h0Z"/>
    </g>
  </g>
</svg>