<?xml version="1.0" encoding="UTF-8"?>
<svg version="1.1" xmlns="http://www.w3.org/2000/svg" width="80" height="101">
<path d="M0 0 C1.45599609 0.39638672 1.45599609 0.39638672 2.94140625 0.80078125 C5.4375 1.6875 5.4375 1.6875 7.4375 3.6875 C8.2625 3.955625 9.0875 4.22375 9.9375 4.5 C12.4375 5.6875 12.4375 5.6875 13.75 8.3125 C14.0903125 9.488125 14.0903125 9.488125 14.4375 10.6875 C15.7575 10.6875 17.0775 10.6875 18.4375 10.6875 C18.4375 11.3475 18.4375 12.0075 18.4375 12.6875 C19.0975 12.6875 19.7575 12.6875 20.4375 12.6875 C21.29852555 16.80128875 21.28912776 19.6186118 20.4375 23.6875 C19.99596392 29.35749501 19.99596392 29.35749501 21.4375 34.6875 C23.9690866 35.32551836 26.43589502 35.85437368 29 36.3125 C29.71091797 36.4465625 30.42183594 36.580625 31.15429688 36.71875 C32.91392553 37.04941847 34.67554548 37.36945767 36.4375 37.6875 C38.33995341 62.53646842 38.33995341 62.53646842 31.75 70.8125 C30.00955849 72.79789253 28.23889707 74.75724387 26.4375 76.6875 C25.98080933 77.57217201 25.98080933 77.57217201 25.51489258 78.47471619 C24.36085103 80.66169638 23.33293308 82.0834805 21.4375 83.6875 C17.33863485 84.68200839 13.33305535 84.50231442 9.13671875 84.37109375 C7.94520706 84.36118912 6.75369537 84.35128448 5.52607727 84.34107971 C1.72446052 84.30192826 -2.0742576 84.21409303 -5.875 84.125 C-8.45373432 84.08988766 -11.03251393 84.05794855 -13.61132812 84.02929688 C-19.92937259 83.95216313 -26.24572924 83.83506197 -32.5625 83.6875 C-32.83323642 80.82327455 -33.07338882 77.96172975 -33.296875 75.09375 C-33.41554932 73.8876709 -33.41554932 73.8876709 -33.53662109 72.65722656 C-34.05153949 65.53539753 -32.30936443 62.09751466 -27.640625 56.65625 C-25.5625 54.6875 -25.5625 54.6875 -22.5625 52.6875 C-21.31658645 49.69414377 -21.31658645 49.69414377 -20.375 46.25 C-19.85873047 44.51943359 -19.85873047 44.51943359 -19.33203125 42.75390625 C-18.44079615 39.72945314 -18.44079615 39.72945314 -18.5625 36.6875 C-18.5625 36.0275 -18.5625 35.3675 -18.5625 34.6875 C-19.18125 34.605 -19.8 34.5225 -20.4375 34.4375 C-22.5625 33.6875 -22.5625 33.6875 -23.75 31.9375 C-24.61723337 29.53593068 -25.14310956 27.20384262 -25.5625 24.6875 C-24.9025 24.6875 -24.2425 24.6875 -23.5625 24.6875 C-23.65789063 24.07261719 -23.75328125 23.45773438 -23.8515625 22.82421875 C-23.96242188 22.01597656 -24.07328125 21.20773438 -24.1875 20.375 C-24.30351562 19.57449219 -24.41953125 18.77398438 -24.5390625 17.94921875 C-24.5625 15.6875 -24.5625 15.6875 -22.5625 12.6875 C-21.5725 12.6875 -20.5825 12.6875 -19.5625 12.6875 C-19.789375 12.15125 -20.01625 11.615 -20.25 11.0625 C-20.70208145 7.62668099 -19.23428015 5.62983306 -17.5625 2.6875 C-16.9025 3.0175 -16.2425 3.3475 -15.5625 3.6875 C-14.12289114 3.78064224 -14.12289114 3.78064224 -11.6875 1.75 C-7.09486512 -1.28113902 -5.16790637 -1.45196837 0 0 Z " fill="#44433F" transform="translate(38.5625,10.3125)"/>
<path d="M0 0 C0.66 0.33 1.32 0.66 2 1 C1.154375 1.70125 0.30875 2.4025 -0.5625 3.125 C-3.36843212 5.777805 -3.36843212 5.777805 -2.875 9.1875 C-2.10883205 11.91676968 -2.10883205 11.91676968 -1 14 C-2.32 14 -3.64 14 -5 14 C-5 14.66 -5 15.32 -5 16 C0.35978411 15.57962478 3.00158692 14.55414496 7 11 C7.99 10.67 8.98 10.34 10 10 C11.1500831 8.03327085 11.1500831 8.03327085 12 6 C13 5 13 5 15.5625 4.9375 C16.7690625 4.9684375 16.7690625 4.9684375 18 5 C18.495 5.99 18.495 5.99 19 7 C17.68 7.33 16.36 7.66 15 8 C15.639375 8.12375 16.27875 8.2475 16.9375 8.375 C17.618125 8.58125 18.29875 8.7875 19 9 C19.495 9.99 19.495 9.99 20 11 C18.02 11 16.04 11 14 11 C14.31453125 11.556875 14.6290625 12.11375 14.953125 12.6875 C15.85222387 14.29071244 16.73946283 15.9006116 17.6171875 17.515625 C18.44995516 19.01178385 19.32012631 20.4891371 20.2578125 21.921875 C24.03290155 28.09929345 22.97448967 34.05146499 22 41 C22.93972656 41.28101563 23.87945312 41.56203125 24.84765625 41.8515625 C28.6159929 43.22441377 29.96285129 44.57759016 32 48 C31.75 50.3125 31.75 50.3125 31 52 C30.34 50.35 29.68 48.7 29 47 C29.2784375 47.8971875 29.2784375 47.8971875 29.5625 48.8125 C30 51 30 51 29 54 C28.01 52.02 27.02 50.04 26 48 C26.46090175 50.58104981 26.94672804 51.93443451 28.625 54 C30 56 30 56 29.6875 58.25 C29.460625 58.8275 29.23375 59.405 29 60 C28.67 59.67 28.34 59.34 28 59 C28 62.3 28 65.6 28 69 C25.03 67.02 22.06 65.04 19 63 C19 63.66 19 64.32 19 65 C20.65 65.66 22.3 66.32 24 67 C23.34 69.64 22.68 72.28 22 75 C21.01 74.34 20.02 73.68 19 73 C19 72.34 19 71.68 19 71 C18.34 71 17.68 71 17 71 C17 70.34 17 69.68 17 69 C16.34 69 15.68 69 15 69 C14.67 70.32 14.34 71.64 14 73 C13.67 72.01 13.34 71.02 13 70 C12.01 70.495 12.01 70.495 11 71 C8 70.625 8 70.625 5 69 C4.14890793 66.65949682 3.75331275 64.46214843 3.421875 61.99609375 C3.28265625 61.33738281 3.1434375 60.67867187 3 60 C2.34 59.67 1.68 59.34 1 59 C0.375 55.9375 0.375 55.9375 0 53 C1.65 52.34 3.3 51.68 5 51 C4.6390625 50.44570313 4.278125 49.89140625 3.90625 49.3203125 C3.4421875 48.59585938 2.978125 47.87140625 2.5 47.125 C2.0359375 46.40570313 1.571875 45.68640625 1.09375 44.9453125 C0 43 0 43 0 41 C-0.61875 40.731875 -1.2375 40.46375 -1.875 40.1875 C-4 39 -4 39 -6 36 C-6.32829471 33.11957072 -6.55565118 30.32618788 -6.6875 27.4375 C-6.73455078 26.65697266 -6.78160156 25.87644531 -6.83007812 25.07226562 C-7.13541667 19.27083333 -7.13541667 19.27083333 -6 17 C-11.28199593 15.80011955 -11.28199593 15.80011955 -16 18 C-15.34 16.68 -14.68 15.36 -14 14 C-12.02 14 -10.04 14 -8 14 C-8.33 11.69 -8.66 9.38 -9 7 C-8.34 7 -7.68 7 -7 7 C-6.67 7.99 -6.34 8.98 -6 10 C-5.7525 8.906875 -5.505 7.81375 -5.25 6.6875 C-3.97997149 2.94091591 -3.34243648 1.89404734 0 0 Z " fill="#787876" transform="translate(31,11)"/>
<path d="M0 0 C0.33 0.99 0.66 1.98 1 3 C1.99 3 2.98 3 4 3 C2.25 5 2.25 5 0 7 C-1.32 7 -2.64 7 -4 7 C-3.95875 8.11375 -3.9175 9.2275 -3.875 10.375 C-4 14 -4 14 -6 16 C-9.625 16.125 -9.625 16.125 -13 16 C-13 15.34 -13 14.68 -13 14 C-12.01 13.67 -11.02 13.34 -10 13 C-10.66 12.01 -11.32 11.02 -12 10 C-11.79409746 6.70555942 -11.57408028 4.68889633 -9.4375 2.125 C-8.963125 1.75375 -8.48875 1.3825 -8 1 C-8.639375 1.53625 -9.27875 2.0725 -9.9375 2.625 C-12.38529404 5.44367193 -12.66714612 7.33860732 -13 11 C-13.66 10.67 -14.32 10.34 -15 10 C-15 9.01 -15 8.02 -15 7 C-15.66 7 -16.32 7 -17 7 C-16.67 7.94875 -16.34 8.8975 -16 9.875 C-15 13 -15 13 -15 15 C-17.31 15 -19.62 15 -22 15 C-19.1956906 15 -16.48252123 15.75873938 -14 17 C-14.020625 18.27875 -14.04125 19.5575 -14.0625 20.875 C-14.05172128 22.58342636 -14.0302335 24.29180717 -14 26 C-13.98453125 26.87398437 -13.9690625 27.74796875 -13.953125 28.6484375 C-13.70985835 33.14887049 -13.59195892 35.31697047 -10.5625 38.8125 C-9.716875 39.534375 -8.87125 40.25625 -8 41 C-5.9520282 44.72358509 -5.83723158 46.93031053 -7 51 C-7.33 50.01 -7.66 49.02 -8 48 C-8.38091797 48.92232422 -8.38091797 48.92232422 -8.76953125 49.86328125 C-9.11371094 50.67152344 -9.45789063 51.47976562 -9.8125 52.3125 C-10.14894531 53.11300781 -10.48539063 53.91351563 -10.83203125 54.73828125 C-11.99676033 56.99372653 -13.1237718 58.32075114 -15 60 C-15.66 60.66 -16.32 61.32 -17 62 C-19.31 60.02 -21.62 58.04 -24 56 C-23.67 57.65 -23.34 59.3 -23 61 C-23.433125 60.505 -23.86625 60.01 -24.3125 59.5 C-25.99740483 57.66781808 -25.99740483 57.66781808 -29 58 C-25.25 53.125 -25.25 53.125 -23 52 C-22.20907523 49.90433802 -21.51473015 47.77165005 -20.875 45.625 C-20.52179687 44.46226563 -20.16859375 43.29953125 -19.8046875 42.1015625 C-18.87443431 39.050065 -18.87443431 39.050065 -19 36 C-19 35.34 -19 34.68 -19 34 C-19.61875 33.9175 -20.2375 33.835 -20.875 33.75 C-23 33 -23 33 -24.1875 31.25 C-25.05473337 28.84843068 -25.58060956 26.51634262 -26 24 C-25.34 24 -24.68 24 -24 24 C-24.09539063 23.38511719 -24.19078125 22.77023438 -24.2890625 22.13671875 C-24.39992188 21.32847656 -24.51078125 20.52023438 -24.625 19.6875 C-24.74101562 18.88699219 -24.85703125 18.08648438 -24.9765625 17.26171875 C-25 15 -25 15 -23 12 C-22.01 12 -21.02 12 -20 12 C-20.226875 11.46375 -20.45375 10.9275 -20.6875 10.375 C-21.13958145 6.93918099 -19.67178015 4.94233306 -18 2 C-17.34 2.33 -16.68 2.66 -16 3 C-14.56039114 3.09314224 -14.56039114 3.09314224 -12.125 1.0625 C-7.30343502 -2.11973289 -5.26375391 -2.28858866 0 0 Z " fill="#3D3C38" transform="translate(39,11)"/>
<path d="M0 0 C0.66 0.33 1.32 0.66 2 1 C1.154375 1.70125 0.30875 2.4025 -0.5625 3.125 C-3.36843212 5.777805 -3.36843212 5.777805 -2.875 9.1875 C-2.10883205 11.91676968 -2.10883205 11.91676968 -1 14 C-2.32 14 -3.64 14 -5 14 C-5 14.66 -5 15.32 -5 16 C0.35978411 15.57962478 3.00158692 14.55414496 7 11 C7.99 10.67 8.98 10.34 10 10 C11.1500831 8.03327085 11.1500831 8.03327085 12 6 C13 5 13 5 15.5625 4.9375 C16.7690625 4.9684375 16.7690625 4.9684375 18 5 C18.495 5.99 18.495 5.99 19 7 C17.68 7.33 16.36 7.66 15 8 C15.639375 8.12375 16.27875 8.2475 16.9375 8.375 C17.618125 8.58125 18.29875 8.7875 19 9 C19.495 9.99 19.495 9.99 20 11 C18.02 11 16.04 11 14 11 C14.31453125 11.556875 14.6290625 12.11375 14.953125 12.6875 C15.85222387 14.29071244 16.73946283 15.9006116 17.6171875 17.515625 C18.44995516 19.01178385 19.32012631 20.4891371 20.2578125 21.921875 C24.03290155 28.09929345 22.97448967 34.05146499 22 41 C18.535 41.495 18.535 41.495 15 42 C14.505 39.525 14.505 39.525 14 37 C13.34 38.32 12.68 39.64 12 41 C10.68 40.67 9.36 40.34 8 40 C7.87625 38.906875 7.7525 37.81375 7.625 36.6875 C7.24535199 32.92618198 7.24535199 32.92618198 5 30 C1.58461856 29.41630557 1.58461856 29.41630557 -2 30 C-4.21792634 31.95176671 -4.21792634 31.95176671 -6 34 C-6.19436491 31.54203147 -6.3807742 29.08390706 -6.5625 26.625 C-6.61857422 25.92632812 -6.67464844 25.22765625 -6.73242188 24.5078125 C-7.11328125 19.2265625 -7.11328125 19.2265625 -6 17 C-11.28199593 15.80011955 -11.28199593 15.80011955 -16 18 C-15.34 16.68 -14.68 15.36 -14 14 C-12.02 14 -10.04 14 -8 14 C-8.33 11.69 -8.66 9.38 -9 7 C-8.34 7 -7.68 7 -7 7 C-6.67 7.99 -6.34 8.98 -6 10 C-5.7525 8.906875 -5.505 7.81375 -5.25 6.6875 C-3.97997149 2.94091591 -3.34243648 1.89404734 0 0 Z " fill="#ECECEC" transform="translate(31,11)"/>
<path d="M0 0 C3.4375 0.5625 3.4375 0.5625 5.3125 2.25 C6.52357734 4.73943676 7.14778742 6.8102305 7.4375 9.5625 C7.1075 10.2225 6.7775 10.8825 6.4375 11.5625 C7.7575 11.8925 9.0775 12.2225 10.4375 12.5625 C10.7675 10.9125 11.0975 9.2625 11.4375 7.5625 C12.0975 7.8925 12.7575 8.2225 13.4375 8.5625 C13.4375 9.8825 13.4375 11.2025 13.4375 12.5625 C14.01757812 12.51609375 14.59765625 12.4696875 15.1953125 12.421875 C20.84980827 12.16061117 23.96641958 12.74572403 28.4375 16.5625 C30.4375 19.5625 30.4375 19.5625 30.0625 21.75 C29.85625 22.348125 29.65 22.94625 29.4375 23.5625 C28.7775 21.9125 28.1175 20.2625 27.4375 18.5625 C27.623125 19.160625 27.80875 19.75875 28 20.375 C28.4375 22.5625 28.4375 22.5625 27.4375 25.5625 C26.4475 23.5825 25.4575 21.6025 24.4375 19.5625 C24.89840175 22.14354981 25.38422804 23.49693451 27.0625 25.5625 C28.4375 27.5625 28.4375 27.5625 28.125 29.8125 C27.898125 30.39 27.67125 30.9675 27.4375 31.5625 C27.1075 31.2325 26.7775 30.9025 26.4375 30.5625 C26.4375 31.8825 26.4375 33.2025 26.4375 34.5625 C23.96949953 33.41076645 22.38966435 32.51466435 20.4375 30.5625 C20.03702556 28.23974823 19.6977896 25.90510643 19.4375 23.5625 C17.48533565 25.51466435 16.58923355 27.09449953 15.4375 29.5625 C15.38339313 27.79200311 15.34465881 26.02103151 15.3125 24.25 C15.28929688 23.26386719 15.26609375 22.27773438 15.2421875 21.26171875 C15.4375 18.5625 15.4375 18.5625 17.4375 15.5625 C11.75703056 16.50305703 7.71325688 17.42467076 3.4375 21.5625 C2.7775 20.5725 2.1175 19.5825 1.4375 18.5625 C0.90125 17.881875 0.365 17.20125 -0.1875 16.5 C-1.5625 14.5625 -1.5625 14.5625 -1.5625 12.5625 C-2.18125 12.335625 -2.8 12.10875 -3.4375 11.875 C-6.17660209 10.18320165 -6.61274472 8.57005839 -7.5625 5.5625 C-5.27578583 1.90375732 -4.36044633 0.68849153 0 0 Z " fill="#565652" transform="translate(32.5625,39.4375)"/>
<path d="M0 0 C2 1 2 1 4 3 C4.66 3.309375 5.32 3.61875 6 3.9375 C8 5 8 5 10 8 C9.625 10.6875 9.625 10.6875 9 13 C8.67 12.01 8.34 11.02 8 10 C7.74605469 10.61488281 7.49210937 11.22976562 7.23046875 11.86328125 C6.88628906 12.67152344 6.54210938 13.47976562 6.1875 14.3125 C5.85105469 15.11300781 5.51460937 15.91351563 5.16796875 16.73828125 C4.00323967 18.99372653 2.8762282 20.32075114 1 22 C0.34 22.66 -0.32 23.32 -1 24 C-3.5 21.75 -3.5 21.75 -6 19 C-6 14.79200227 -4.99989417 11.68118898 -3.5625 7.8125 C-3.33240234 7.17119141 -3.10230469 6.52988281 -2.86523438 5.86914062 C-1.14372664 1.14372664 -1.14372664 1.14372664 0 0 Z " fill="#F2F1F1" transform="translate(23,49)"/>
<path d="M0 0 C3.4375 0.5625 3.4375 0.5625 5.3125 2.25 C6.52357734 4.73943676 7.14778742 6.8102305 7.4375 9.5625 C7.1075 10.2225 6.7775 10.8825 6.4375 11.5625 C7.0975 11.8925 7.7575 12.2225 8.4375 12.5625 C7.4475 13.5525 6.4575 14.5425 5.4375 15.5625 C5.7675 16.2225 6.0975 16.8825 6.4375 17.5625 C5.7775 17.5625 5.1175 17.5625 4.4375 17.5625 C4.1075 18.8825 3.7775 20.2025 3.4375 21.5625 C2.7775 20.5725 2.1175 19.5825 1.4375 18.5625 C0.90125 17.881875 0.365 17.20125 -0.1875 16.5 C-1.5625 14.5625 -1.5625 14.5625 -1.5625 12.5625 C-2.18125 12.335625 -2.8 12.10875 -3.4375 11.875 C-6.17660209 10.18320165 -6.61274472 8.57005839 -7.5625 5.5625 C-5.27578583 1.90375732 -4.36044633 0.68849153 0 0 Z " fill="#D8D8D7" transform="translate(32.5625,39.4375)"/>
<path d="M0 0 C1.67667436 0.64108137 3.34089996 1.31471955 5 2 C6.051875 2.433125 7.10375 2.86625 8.1875 3.3125 C11.40455807 5.24273484 12.03949065 6.44611541 13 10 C14.32 10 15.64 10 17 10 C17 10.66 17 11.32 17 12 C17.66 12 18.32 12 19 12 C19.84098656 16.01804691 20.05404945 19.01803543 19 23 C17.68 23.33 16.36 23.66 15 24 C15.66 23.34 16.32 22.68 17 22 C15.68 21.67 14.36 21.34 13 21 C13 20.34 13 19.68 13 19 C12.34 19 11.68 19 11 19 C11.33 18.34 11.66 17.68 12 17 C13.32 17.33 14.64 17.66 16 18 C16 17.67 16 17.34 16 17 C15.01 16.67 14.02 16.34 13 16 C12.175 15.484375 11.35 14.96875 10.5 14.4375 C8.04718318 12.75076444 8.04718318 12.75076444 5 13 C5 12.01 5 11.02 5 10 C6.65 10 8.3 10 10 10 C9.401875 9.855625 8.80375 9.71125 8.1875 9.5625 C6.43849596 9.1127561 4.71322977 8.57107659 3 8 C4.98 7.34 6.96 6.68 9 6 C6.62625139 5.66574265 6.62625139 5.66574265 4 6 C2.15684329 7.9004467 2.15684329 7.9004467 1 10 C1.66 10.33 2.32 10.66 3 11 C0.36 11.66 -2.28 12.32 -5 13 C-5 11.02 -5 9.04 -5 7 C-3.35 6.34 -1.7 5.68 0 5 C0.05270463 3.63106761 0.05270463 3.63106761 -1 1 C-0.67 0.67 -0.34 0.34 0 0 Z " fill="#5B5A57" transform="translate(40,11)"/>
<path d="M0 0 C0.99 0 1.98 0 3 0 C3.08636719 1.09699219 3.17273437 2.19398437 3.26171875 3.32421875 C3.40248072 4.77875906 3.54447295 6.23318067 3.6875 7.6875 C3.74099609 8.40873047 3.79449219 9.12996094 3.84960938 9.87304688 C4.40192949 15.13209492 5.76310985 17.52972002 10 21 C9.67 21.66 9.34 22.32 9 23 C7.68 23 6.36 23 5 23 C4.67 22.34 4.34 21.68 4 21 C3.34 20.34 2.68 19.68 2 19 C1.67386719 19.96421875 1.34773438 20.9284375 1.01171875 21.921875 C0.5706888 23.19804677 0.12926154 24.47408129 -0.3125 25.75 C-0.52583984 26.38421875 -0.73917969 27.0184375 -0.95898438 27.671875 C-2.21739082 31.27805467 -3.66868935 34.00260059 -6 37 C-5.78282648 39.20800528 -5.78282648 39.20800528 -5 41 C-5.433125 40.505 -5.86625 40.01 -6.3125 39.5 C-7.99740483 37.66781808 -7.99740483 37.66781808 -11 38 C-7.25 33.125 -7.25 33.125 -5 32 C-4.20907523 29.90433802 -3.51473015 27.77165005 -2.875 25.625 C-2.52179687 24.46226563 -2.16859375 23.29953125 -1.8046875 22.1015625 C-0.87443431 19.050065 -0.87443431 19.050065 -1 16 C-1 15.34 -1 14.68 -1 14 C-1.61875 13.9175 -2.2375 13.835 -2.875 13.75 C-5 13 -5 13 -6.25 10.9375 C-6.62125 9.9784375 -6.62125 9.9784375 -7 9 C-4.03 9.495 -4.03 9.495 -1 10 C-1 8.35 -1 6.7 -1 5 C-1.99 5 -2.98 5 -4 5 C-2.1875 2.5 -2.1875 2.5 0 0 Z " fill="#393834" transform="translate(21,31)"/>
<path d="M0 0 C0.33 0.99 0.66 1.98 1 3 C1.99 3 2.98 3 4 3 C2.25 5 2.25 5 0 7 C-1.32 7 -2.64 7 -4 7 C-3.95875 8.11375 -3.9175 9.2275 -3.875 10.375 C-4 14 -4 14 -6 16 C-9.625 16.125 -9.625 16.125 -13 16 C-13 15.34 -13 14.68 -13 14 C-12.01 13.67 -11.02 13.34 -10 13 C-10.66 12.01 -11.32 11.02 -12 10 C-11.79409746 6.70555942 -11.57408028 4.68889633 -9.4375 2.125 C-8.963125 1.75375 -8.48875 1.3825 -8 1 C-8.33 0.34 -8.66 -0.32 -9 -1 C-5.19881294 -2.26706235 -3.6149628 -1.57172296 0 0 Z " fill="#5A5A56" transform="translate(39,11)"/>
<path d="M0 0 C3.65111665 6.54158399 3.29887594 12.63879629 3 20 C0.69 19.34 -1.62 18.68 -4 18 C-4.12117188 17.36191406 -4.24234375 16.72382812 -4.3671875 16.06640625 C-4.53476562 15.24011719 -4.70234375 14.41382812 -4.875 13.5625 C-5.03742187 12.73878906 -5.19984375 11.91507813 -5.3671875 11.06640625 C-5.68042969 10.04353516 -5.68042969 10.04353516 -6 9 C-6.66 8.67 -7.32 8.34 -8 8 C-8.625 4.9375 -8.625 4.9375 -9 2 C-5.62902617 0.50178941 -3.79557881 0 0 0 Z " fill="#555551" transform="translate(40,62)"/>
<path d="M0 0 C1.27259511 0.45341868 2.54301243 0.91295227 3.8125 1.375 C4.52019531 1.63023438 5.22789063 1.88546875 5.95703125 2.1484375 C8 3 8 3 11 5 C7.125 7 7.125 7 6 7 C6 7.66 6 8.32 6 9 C7.65 9 9.3 9 11 9 C11 9.99 11 10.98 11 12 C11.28389616 13.65100775 11.59947444 15.29671899 11.9375 16.9375 C12.11152344 17.79214844 12.28554688 18.64679687 12.46484375 19.52734375 C12.79847056 21.06884575 13.16089312 22.60473619 13.56640625 24.12890625 C14.1743486 26.75236917 14 29.31343064 14 32 C12.2925002 30.71937515 10.62626404 29.38232443 9 28 C9 27.34 9 26.68 9 26 C8.68197057 24.33034549 8.35015049 22.66321482 8 21 C8.66 20.67 9.32 20.34 10 20 C10 19.34 10 18.68 10 18 C9.34 18 8.68 18 8 18 C8 16.35 8 14.7 8 13 C7.01 13 6.02 13 5 13 C4.15615325 11.58957044 3.32530504 10.17135868 2.5 8.75 C2.0359375 7.96109375 1.571875 7.1721875 1.09375 6.359375 C0 4 0 4 0 0 Z " fill="#6B6B68" transform="translate(47,23)"/>
<path d="M0 0 C2 2 2 2 2 6 C2.33 4.35 2.66 2.7 3 1 C3.99 1 4.98 1 6 1 C6.03867187 2.01320312 6.03867187 2.01320312 6.078125 3.046875 C6.25950969 8.62937969 6.25950969 8.62937969 9 13.25 C9.66 13.8275 10.32 14.405 11 15 C11.75 18.25 11.75 18.25 12 21 C10.49460339 20.05016642 8.99579653 19.08988109 7.5 18.125 C6.6646875 17.59132813 5.829375 17.05765625 4.96875 16.5078125 C4.3190625 16.01023437 3.669375 15.51265625 3 15 C3 14.34 3 13.68 3 13 C2.01 12.67 1.02 12.34 0 12 C-1.421875 10.22265625 -1.421875 10.22265625 -2.75 8.0625 C-3.19859375 7.35222656 -3.6471875 6.64195313 -4.109375 5.91015625 C-4.40328125 5.27980469 -4.6971875 4.64945313 -5 4 C-3.74458443 1.48916886 -2.49936512 1.12874554 0 0 Z " fill="#B3B3B1" transform="translate(47,59)"/>
<path d="M0 0 C3.64939813 0.91234953 5.71592813 1.72321202 8.4375 4.375 C10 7 10 7 9.75 9.3125 C9.5025 9.869375 9.255 10.42625 9 11 C8.34 9.35 7.68 7.7 7 6 C7.185625 6.598125 7.37125 7.19625 7.5625 7.8125 C8 10 8 10 7 13 C6.01 11.02 5.02 9.04 4 7 C4.46090175 9.58104981 4.94672804 10.93443451 6.625 13 C8 15 8 15 7.6875 17.25 C7.460625 17.8275 7.23375 18.405 7 19 C6.67 18.67 6.34 18.34 6 18 C5.67 19.32 5.34 20.64 5 22 C0.31677836 17.76999336 0.39366643 13.39430621 0.078125 7.44921875 C0.05234375 6.64097656 0.0265625 5.83273438 0 5 C0.66 4.67 1.32 4.34 2 4 C1.34 2.68 0.68 1.36 0 0 Z " fill="#EAEAEA" transform="translate(53,52)"/>
<path d="M0 0 C1.67667436 0.64108137 3.34089996 1.31471955 5 2 C6.03125 2.4125 7.0625 2.825 8.125 3.25 C11.59483742 5.36207495 12.51345904 7.2836476 14 11 C12.66666667 10.66666667 11.33333333 10.33333333 10 10 C9.319375 9.835 8.63875 9.67 7.9375 9.5 C6.2719596 9.07018312 4.63183658 8.54394553 3 8 C4.98 7.34 6.96 6.68 9 6 C6.62625139 5.66574265 6.62625139 5.66574265 4 6 C2.15684329 7.9004467 2.15684329 7.9004467 1 10 C1.66 10.33 2.32 10.66 3 11 C0.36 11.66 -2.28 12.32 -5 13 C-5 11.02 -5 9.04 -5 7 C-3.35 6.34 -1.7 5.68 0 5 C0.05270463 3.63106761 0.05270463 3.63106761 -1 1 C-0.67 0.67 -0.34 0.34 0 0 Z " fill="#32312D" transform="translate(40,11)"/>
<path d="M0 0 C-0.33 0.99 -0.66 1.98 -1 3 C-1.66 3 -2.32 3 -3 3 C-3 2.34 -3 1.68 -3 1 C-4.65 1.33 -6.3 1.66 -8 2 C-8.42057604 8.20349659 -8.06512385 10.17266543 -4 15 C-3.75 18.3125 -3.75 18.3125 -4 21 C-4.66 20.67 -5.32 20.34 -6 20 C-5.855625 20.556875 -5.71125 21.11375 -5.5625 21.6875 C-4.97230872 24.11384195 -4.476571 26.54906345 -4 29 C-6.4642606 26.68975569 -7.92198073 24.97992201 -8.1953125 21.546875 C-8.14929207 19.79809864 -8.06731195 18.04981007 -7.9453125 16.3046875 C-7.80112682 13.71893651 -7.80112682 13.71893651 -10 11 C-10.99 11.495 -10.99 11.495 -12 12 C-12.75 8.75 -12.75 8.75 -13 5 C-9.41354149 0.13266345 -5.75891409 -0.12797587 0 0 Z " fill="#E4E4E3" transform="translate(50,55)"/>
<path d="M0 0 C0.66 0.33 1.32 0.66 2 1 C1.154375 1.70125 0.30875 2.4025 -0.5625 3.125 C-3.36843212 5.777805 -3.36843212 5.777805 -2.875 9.1875 C-2.10883205 11.91676968 -2.10883205 11.91676968 -1 14 C-2.32 14 -3.64 14 -5 14 C-4.67 14.99 -4.34 15.98 -4 17 C-4.66 17.33 -5.32 17.66 -6 18 C-6.61875 17.67 -7.2375 17.34 -7.875 17 C-9.93664551 15.79062528 -9.93664551 15.79062528 -12.125 16.3125 C-14.0521932 16.97944346 -14.0521932 16.97944346 -16 18 C-15.34 16.68 -14.68 15.36 -14 14 C-12.02 14 -10.04 14 -8 14 C-8.33 11.69 -8.66 9.38 -9 7 C-8.34 7 -7.68 7 -7 7 C-6.67 7.99 -6.34 8.98 -6 10 C-5.7525 8.906875 -5.505 7.81375 -5.25 6.6875 C-3.97997149 2.94091591 -3.34243648 1.89404734 0 0 Z " fill="#A3A2A0" transform="translate(31,11)"/>
<path d="M0 0 C1.65 0.33 3.3 0.66 5 1 C4.01 1.495 4.01 1.495 3 2 C3.33 2.66 3.66 3.32 4 4 C4.23417307 6.52820185 4.38156896 9.05487703 4.5234375 11.58984375 C5.06782515 14.34301736 5.85348932 15.26098199 8 17 C7.67 17.66 7.34 18.32 7 19 C3.87729874 16.48169253 3.05476902 15.2738451 2.25 11.25 C2.12625 9.64125 2.12625 9.64125 2 8 C0.04783565 9.95216435 -0.84826645 11.53199953 -2 14 C-2.05410687 12.22950311 -2.09284119 10.45853151 -2.125 8.6875 C-2.14820313 7.70136719 -2.17140625 6.71523438 -2.1953125 5.69921875 C-2 3 -2 3 0 0 Z " fill="#696965" transform="translate(50,55)"/>
<path d="M0 0 C0.66 0 1.32 0 2 0 C1.67 0.99 1.34 1.98 1 3 C0.01 3.33 -0.98 3.66 -2 4 C-3.20882096 6.00016466 -3.20882096 6.00016466 -4 8 C-3.34 7.67 -2.68 7.34 -2 7 C-2 8.98 -2 10.96 -2 13 C-6.26826873 13 -6.93882432 12.62386487 -10 10 C-9.67 9.01 -9.34 8.02 -9 7 C-8.01 7 -7.02 7 -6 7 C-5.67 6.01 -5.34 5.02 -5 4 C-4.67 3.34 -4.34 2.68 -4 2 C-2.68 2 -1.36 2 0 2 C0 1.34 0 0.68 0 0 Z " fill="#373632" transform="translate(23,28)"/>
<path d="M0 0 C0.99 0 1.98 0 3 0 C3.02578125 0.67546875 3.0515625 1.3509375 3.078125 2.046875 C3.25950969 7.62937969 3.25950969 7.62937969 6 12.25 C6.66 12.8275 7.32 13.405 8 14 C8.75 17.25 8.75 17.25 9 20 C6.69 18.35 4.38 16.7 2 15 C2.99 14.67 3.98 14.34 5 14 C4.360625 13.54625 3.72125 13.0925 3.0625 12.625 C0.01774843 8.74986164 0.18350135 4.8077353 0 0 Z " fill="#E2E2E2" transform="translate(50,60)"/>
<path d="M0 0 C0.99 0 1.98 0 3 0 C3.33 3.96 3.66 7.92 4 12 C3.34 11.34 2.68 10.68 2 10 C0.02 10.99 0.02 10.99 -2 12 C-1.67 9.69 -1.34 7.38 -1 5 C-1.99 5 -2.98 5 -4 5 C-2.1875 2.5 -2.1875 2.5 0 0 Z " fill="#7A7A77" transform="translate(21,31)"/>
<path d="M0 0 C0.91457003 5.56157448 1.32086397 9.675665 -1 15 C-1.33 15 -1.66 15 -2 15 C-2.28875 13.9275 -2.5775 12.855 -2.875 11.75 C-3.81727334 8.17093705 -3.81727334 8.17093705 -5.1875 5.75 C-6 4 -6 4 -5 1 C-3.28960011 0.41205004 -1.81522119 0 0 0 Z " fill="#A8A8A6" transform="translate(37,62)"/>
<path d="M0 0 C0 1.32 0 2.64 0 4 C-2.31 4.33 -4.62 4.66 -7 5 C-7 6.98 -7 8.96 -7 11 C-7.66 10.67 -8.32 10.34 -9 10 C-8.835 9.071875 -8.67 8.14375 -8.5 7.1875 C-7.7728109 2.96152185 -7.7728109 2.96152185 -9 -1 C-5.23375329 -2.25541557 -3.62811066 -1.37061958 0 0 Z " fill="#6F6E6B" transform="translate(39,11)"/>
<path d="M0 0 C3.3125 -0.25 3.3125 -0.25 7 0 C9 1.75 9 1.75 10 4 C9.6875 6.25 9.6875 6.25 9 8 C8.34 6.68 7.68 5.36 7 4 C5.8553125 4.5259375 5.8553125 4.5259375 4.6875 5.0625 C2 6 2 6 -1 5 C-0.01 4.34 0.98 3.68 2 3 C0.68 3.33 -0.64 3.66 -2 4 C-1.34 2.68 -0.68 1.36 0 0 Z " fill="#3C3B37" transform="translate(29,40)"/>
<path d="M0 0 C0.763125 0.20625 1.52625 0.4125 2.3125 0.625 C2.3125 1.615 2.3125 2.605 2.3125 3.625 C0.9925 3.625 -0.3275 3.625 -1.6875 3.625 C-2.0175 4.615 -2.3475 5.605 -2.6875 6.625 C-3.3475 7.285 -4.0075 7.945 -4.6875 8.625 C-5.75 6.8125 -5.75 6.8125 -6.6875 4.625 C-5.39900677 0.7595203 -4.17039106 -0.58191503 0 0 Z " fill="#555551" transform="translate(20.6875,26.375)"/>
<path d="M0 0 C2.08901197 3.39464446 2.34361606 6.04841529 2 10 C1.34 10.66 0.68 11.32 0 12 C-0.99 11.67 -1.98 11.34 -3 11 C-2.34 10.67 -1.68 10.34 -1 10 C-2.32 9.67 -3.64 9.34 -5 9 C-5 8.34 -5 7.68 -5 7 C-5.66 7 -6.32 7 -7 7 C-6.67 6.34 -6.34 5.68 -6 5 C-4.02 5.495 -4.02 5.495 -2 6 C-2 5.01 -2 4.02 -2 3 C-1.34 3 -0.68 3 0 3 C0 2.01 0 1.02 0 0 Z " fill="#383834" transform="translate(58,23)"/>
<path d="M0 0 C2.475 0.99 2.475 0.99 5 2 C4.34 4.64 3.68 7.28 3 10 C0.9375 8.375 0.9375 8.375 -1 6 C-0.75 2.75 -0.75 2.75 0 0 Z " fill="#F5F5F5" transform="translate(50,76)"/>
<path d="M0 0 C2.66735273 2.48952921 4.55746343 4.63408134 6 8 C2.535 9.485 2.535 9.485 -1 11 C-1 9.02 -1 7.04 -1 5 C-0.34 4.67 0.32 4.34 1 4 C1.05270463 2.63106761 1.05270463 2.63106761 0 0 Z " fill="#3B3B36" transform="translate(31,54)"/>
<path d="M0 0 C1.11375 0.350625 2.2275 0.70125 3.375 1.0625 C6.80264476 2.37239331 6.80264476 2.37239331 9 1 C9 2.98 9 4.96 9 7 C8.01 7 7.02 7 6 7 C6 6.34 6 5.68 6 5 C5.38125 4.9175 4.7625 4.835 4.125 4.75 C2 4 2 4 0.75 1.9375 C0.5025 1.298125 0.255 0.65875 0 0 Z " fill="#4B4B47" transform="translate(14,40)"/>
<path d="M0 0 C1.5625 1.4375 1.5625 1.4375 3 4 C2.96846324 7.05380927 2.53266629 9.99653222 2 13 C-0.125 11.5625 -0.125 11.5625 -2 9 C-1.75232831 5.87179891 -0.94396421 2.98496791 0 0 Z " fill="#D0D0CF" transform="translate(39,67)"/>
<path d="M0 0 C0.33 0.66 0.66 1.32 1 2 C0.34 2 -0.32 2 -1 2 C-0.67 2.99 -0.34 3.98 0 5 C-1.98 6.32 -3.96 7.64 -6 9 C-5.7525 8.1028125 -5.7525 8.1028125 -5.5 7.1875 C-4.8885876 4.88655664 -4.8885876 4.88655664 -5 2 C-3.35 1.34 -1.7 0.68 0 0 Z " fill="#3F3E3A" transform="translate(43,51)"/>
<path d="M0 0 C1.98 0.99 3.96 1.98 6 3 C5.67 3.66 5.34 4.32 5 5 C5.89363605 7.60931266 5.89363605 7.60931266 7 10 C5.02 9.01 3.04 8.02 1 7 C1 6.01 1 5.02 1 4 C0.6937566 2.66018514 0.36548445 1.32488113 0 0 Z " fill="#DADAD9" transform="translate(55,45)"/>
<path d="M0 0 C0.33 0.99 0.66 1.98 1 3 C1.66 3 2.32 3 3 3 C3.66666667 6.33333333 4.33333333 9.66666667 5 13 C0.17970402 9.14376321 0.17970402 9.14376321 -0.33203125 5.88671875 C-0.3145776 3.92143786 -0.16596091 1.95833873 0 0 Z " fill="#D1D0CF" transform="translate(54,61)"/>
<path d="M0 0 C0.66 0.33 1.32 0.66 2 1 C1.2884375 1.804375 1.2884375 1.804375 0.5625 2.625 C-1.28186076 5.42842836 -1.62456847 7.69620258 -2 11 C-2.66 10.67 -3.32 10.34 -4 10 C-4 8.68 -4 7.36 -4 6 C-4.66 5.67 -5.32 5.34 -6 5 C-4.02 3.35 -2.04 1.7 0 0 Z " fill="#2E2D29" transform="translate(28,11)"/>
<path d="M0 0 C1.27259511 0.45341868 2.54301243 0.91295227 3.8125 1.375 C4.52019531 1.63023438 5.22789063 1.88546875 5.95703125 2.1484375 C8 3 8 3 11 5 C9.3125 6.1875 9.3125 6.1875 7 7 C4.25 5.75 4.25 5.75 2 4 C2 3.34 2 2.68 2 2 C1.34 2 0.68 2 0 2 C0 1.34 0 0.68 0 0 Z " fill="#ACACAA" transform="translate(47,23)"/>
<path d="M0 0 C4.21912747 0.4794463 6.79663178 1.16625119 10 4 C8.906875 3.835 7.81375 3.67 6.6875 3.5 C3.12474127 2.93281816 3.12474127 2.93281816 0 3 C0 2.01 0 1.02 0 0 Z " fill="#282723" transform="translate(45,21)"/>
<path d="M0 0 C1.65 0 3.3 0 5 0 C5.33 0.99 5.66 1.98 6 3 C1.375 5.125 1.375 5.125 -2 4 C-1.01 3.34 -0.02 2.68 1 2 C0.67 1.34 0.34 0.68 0 0 Z " fill="#71716E" transform="translate(30,41)"/>
<path d="M0 0 C-0.99 0.33 -1.98 0.66 -3 1 C-2.67 2.65 -2.34 4.3 -2 6 C-3.32 5.67 -4.64 5.34 -6 5 C-6.33 3.68 -6.66 2.36 -7 1 C-4.53721199 -0.231394 -2.7204945 -0.07159196 0 0 Z " fill="#71716E" transform="translate(49,38)"/>
<path d="M0 0 C3.96 1.98 3.96 1.98 8 4 C7.67 4.99 7.34 5.98 7 7 C4.13302508 5.71480435 2.02392288 4.42870746 0 2 C0 1.34 0 0.68 0 0 Z " fill="#EAEAE9" transform="translate(17,71)"/>
<path d="M0 0 C1.231394 3.69418201 0.64432764 6.2056261 0 10 C-0.33 10 -0.66 10 -1 10 C-1.33 8.02 -1.66 6.04 -2 4 C-2.99 3.67 -3.98 3.34 -5 3 C-5 2.34 -5 1.68 -5 1 C-2 0 -2 0 0 0 Z " fill="#6B6B68" transform="translate(47,56)"/>
<path d="M0 0 C0 3.90838866 -1.50567876 5.11594107 -4 8 C-4.33 6.02 -4.66 4.04 -5 2 C-3.35 1.34 -1.7 0.68 0 0 Z " fill="#D6D6D5" transform="translate(36,62)"/>
<path d="M0 0 C0.66 0 1.32 0 2 0 C2.33 2.64 2.66 5.28 3 8 C1.35 6.35 -0.3 4.7 -2 3 C-1 1 -1 1 0 0 Z " fill="#E6E6E5" transform="translate(44,60)"/>
<path d="M0 0 C0.33 0 0.66 0 1 0 C1 2.31 1 4.62 1 7 C-0.98 7.99 -0.98 7.99 -3 9 C-2.69181644 7.68647977 -2.37832335 6.37420428 -2.0625 5.0625 C-1.88847656 4.33160156 -1.71445312 3.60070313 -1.53515625 2.84765625 C-1 1 -1 1 0 0 Z " fill="#979794" transform="translate(22,34)"/>
<path d="M0 0 C0.33 0.99 0.66 1.98 1 3 C3.00016466 4.20882096 3.00016466 4.20882096 5 5 C4.01 5.495 4.01 5.495 3 6 C2.67 6.66 2.34 7.32 2 8 C1.34 7.67 0.68 7.34 0 7 C0 4.69 0 2.38 0 0 Z " fill="#757572" transform="translate(53,45)"/>
<path d="M0 0 C2.125 0.375 2.125 0.375 4 1 C3.54625 1.433125 3.0925 1.86625 2.625 2.3125 C0.79975666 4.10798342 0.79975666 4.10798342 -1 7 C-1.625 4.625 -1.625 4.625 -2 2 C-1.34 1.34 -0.68 0.68 0 0 Z " fill="#292823" transform="translate(30,13)"/>
</svg>
