<?xml version="1.0" encoding="UTF-8"?>
<svg id="Layer_2" data-name="Layer 2" xmlns="http://www.w3.org/2000/svg" viewBox="0 0 84.88 86.66">
  <defs>
    <style>
      .cls-1 {
        fill: #303030;
      }

      .cls-2 {
        fill: #dbdbdb;
        stroke-width: .5px;
      }

      .cls-2, .cls-3 {
        stroke: #303030;
        stroke-miterlimit: 10;
      }

      .cls-3 {
        fill: none;
        stroke-width: .75px;
      }
    </style>
  </defs>
  <g id="Layer_1-2" data-name="Layer 1">
    <g>
      <path class="cls-3" d="m55.84,46.02c-.03.1-.08.2-.12.3-1.77,4.05-5.04,6.7-8.86,7.84-3.53,1.06-7.53.81-11.26-.82-1.55-.68-2.94-1.58-4.13-2.66-2.62-2.37-4.32-5.57-4.86-9-.44-2.82-.11-5.79,1.12-8.6.53-1.21,1.19-2.32,1.97-3.32h0c3.03-3.9,7.74-6.08,12.59-5.93,1.9.06,3.81.48,5.65,1.28,1.85.81,3.46,2,4.78,3.45,1.79,1.95,3.06,4.36,3.75,6.95.89,3.43.75,7.16-.64,10.51Z"/>
      <path class="cls-3" d="m42.3,23.83c-4.85-.15-9.56,2.03-12.59,5.93h0c-4.27-1.71-6.62-5.69-7.02-11.16,0-.04,0-.08,0-.12-.33-5.01,2.56-8.07.69-17.95,7.32,2.13,13.62.51,17.83,6.61.99,1.43,1.76,2.96,2.27,4.6,1.13,3.61.94,7.7-1.16,12.09Z"/>
      <path class="cls-3" d="m66.17,3.09c-2.17,1.36-2.92,11.07-3.97,13.57-4.86,2.26-8.19,6.18-9.47,11.9-1.32-1.45-2.93-2.64-4.78-3.45-1.84-.8-3.75-1.22-5.65-1.28,2.1-4.39,2.29-8.48,1.16-12.09C48.13,2.57,55.54-.6,66.17,3.09Z"/>
      <path class="cls-3" d="m81.4,14.75c-1.76.41-3.66,4.17-4.9,9.82-.94,4.27-3.18,8.22-5.73,9.35h0c-4.06-.81-8.81-.31-14.28,1.59-.69-2.59-1.96-5-3.75-6.95,1.28-5.72,4.61-9.64,9.47-11.9,4.98-2.33,11.56-2.91,19.2-1.91Z"/>
      <path class="cls-3" d="m84.3,45.9c-4.09-.09-10.13,8.17-15.92,7.74-1.83-.13-3.88-1.06-5.82-2.27-2.76-1.72-5.31-4-6.72-5.35,1.39-3.35,1.53-7.08.64-10.51,5.47-1.9,10.22-2.4,14.28-1.59h0c6.02,1.2,10.51,5.29,13.53,11.98Z"/>
      <path class="cls-3" d="m62.34,74.75c-4.96-2.71-12.38.08-17.03-8.14h0c1.42-3.51,2.2-7.54,1.55-12.45,3.82-1.14,7.09-3.79,8.86-7.84.04-.1.09-.2.12-.3,1.41,1.35,3.96,3.63,6.72,5.35,3.29,5.81.44,14.57-.22,23.38Z"/>
      <path class="cls-3" d="m45.31,66.6h0c-3.06,7.6-9.12,12.75-10.29,19.21-4.08-4.85-9.06-10.11-9.62-15.4-.45-4.33.69-9.04,2.9-13.86.89-1.95,1.96-3.91,3.17-5.87,1.19,1.08,2.58,1.98,4.13,2.66,3.73,1.63,7.73,1.88,11.26.82.65,4.91-.13,8.94-1.55,12.44Z"/>
      <path class="cls-3" d="m31.47,50.68c-1.21,1.96-2.28,3.92-3.17,5.87-7.01,5.84-16.29.45-21.53,7.81-8.16-12.51-2.68-22.6,10.67-23.81,2.8.83,5.87,1.24,9.17,1.13.54,3.43,2.24,6.63,4.86,9Z"/>
      <path class="cls-3" d="m27.73,33.08c-1.23,2.81-1.56,5.78-1.12,8.6-3.3.11-6.37-.3-9.17-1.13C6.92,37.47.25,28.51.38,18.75c6.67,3.87,15.67-3.34,22.3-.15.4,5.47,2.75,9.45,7.02,11.16-.78,1-1.44,2.11-1.97,3.32Z"/>
      <path class="cls-2" d="m42.69,22.94c-.11.29-.25.59-.39.89-4.85-.15-9.56,2.03-12.59,5.93h0c-.36-.15-.72-.31-1.05-.5-5.32-6.68-.86-10.29-1.67-17.58.96.16,3.02,0,3.89.11,4.73.66,7.3,1.14,9.39,4.17.85,1.23,1.49,2.52,1.9,3.84.32,1.03.5,2.07.53,3.14Z"/>
      <path class="cls-2" d="m72.06,20.07c-.97,2.12-1.66,4.59-2.15,6.82-.58,2.61-2.48,5.19-3.89,6.68-2.89.1-6.07.73-9.54,1.94-.68-2.54-1.91-4.9-3.64-6.83,1.39-2.9,3.64-5.08,6.73-6.52,3-1.4,6.76-2.11,11.19-2.11.43,0,.86,0,1.3.02Z"/>
      <path class="cls-2" d="m58.05,60.89c-.18,1.26-.36,2.54-.53,3.84-.94-.21-1.89-.34-2.82-.48-3.13-.46-5.73-.83-7.86-3.22.31-2.09.35-4.36.02-6.87,3.82-1.14,7.09-3.79,8.86-7.84.04-.1.09-.2.12-.3.66.63,1.56,1.46,2.62,2.35.92,3.31.27,7.8-.41,12.52Z"/>
      <path class="cls-2" d="m31.47,50.68c-.63,1.03-1.23,2.05-1.78,3.08-1.53.38-3.16.5-4.84.62-3.3.25-6.42.58-12.62.71-2.22-5.38,3.01-11.78,9.03-13.7,1.7.25,3.49.35,5.35.29.54,3.43,2.24,6.63,4.86,9Z"/>
      <path class="cls-2" d="m58.98,11.99c-.56,1.74-1,3.93-1.49,6.59-.06.33-.16.88-.27,1.52-2.18,2.18-3.71,4.99-4.49,8.46-1.32-1.45-2.93-2.64-4.78-3.45-1.84-.8-3.75-1.22-5.65-1.28.89-1.87,1.44-3.7,1.68-5.45,2.83-4.58,6.5-6.82,11.17-6.82,1.2,0,2.48.15,3.83.43Z"/>
      <path class="cls-2" d="m74.14,43.15c-1.36.74-2.71,1.73-4.11,2.76-2.43,1.79-5.19,3.82-7.31,3.82-.08,0-.16,0-.24,0-.81-.05-2.24-.42-4.53-1.84-.07-.05-.15-.09-.22-.14-.74-.65-1.39-1.24-1.89-1.72,1.36-3.29,1.52-6.94.68-10.32,1.48-.27,2.89-.41,4.21-.41,1.18,0,2.31.11,3.37.32l.25.05c4.07.88,7.29,3.34,9.79,7.49Z"/>
      <path class="cls-2" d="m46.71,54.2c-1.05,4.54-4.02,8.59-6.68,12.38-1.38,2.07-2.73,4.07-3.77,6.17-2.8-3.36-5.45-6.93-5.8-10.08-.34-3.18-.42-7.68,1.08-11.93,1.17,1.05,2.54,1.93,4.06,2.6,3.68,1.61,7.62,1.87,11.11.86Z"/>
      <path class="cls-2" d="m27.73,33.08c-1.23,2.81-1.56,5.78-1.12,8.6-.46.02-.91.02-1.36,0t-.02,0c-.44-.11-.87-.22-1.3-.35-7.73-2.26-13.24-8.1-14.67-15.15.5.05,1.02.08,1.55.08,2.53,0,5.04-.59,7.46-1.16,2.05-.49,3.97-.94,5.7-.99,1.16,2.63,3.07,4.58,5.73,5.64-.78,1-1.44,2.11-1.97,3.32Z"/>
      <path class="cls-1" d="m56.96,41.49c-.57-.05-1.12-.04-1.64.02l.41-.37c-.27-1-.97-1.86-2.03-2.36-.56-.25-1.12-.34-1.65-.32,1.08-1.58,2.82-1.85,4.71-1.67-.08-.43-.17-.86-.28-1.28-.07-.25-.14-.5-.23-.75-.17.05-.35.11-.53.16-.5-1.72-2.16-3.07-3.99-3.11.76-.67,1.61-1.2,2.43-1.42-.4-.6-.84-1.18-1.33-1.72-.74.9-1.15,1.9-1.41,2.88-.46-1.48-1.86-2.52-3.4-2.68.9-.94,2.09-1.5,3.25-1.71-.5-.41-1.02-.79-1.57-1.12-.92.74-1.65,1.72-2.09,2.8-.06,0-.11,0-.17,0-.57-2.05-2.6-3.66-4.8-3.55.77-.47,1.66-.76,2.5-.98l-.08-.15c-.73-.16-1.47-.26-2.21-.31-.41.47-.78.99-1.06,1.55-.07,0-.15.02-.23.04-.99-.52-2.05-.94-3.15-1.24-1.27.29-2.5.75-3.66,1.36v.05c1.98-.39,4.08-.4,6.14.04-1.57.58-2.85,1.76-3.57,3.2-.17,0-.33.04-.49.08-.77-.98-1.73-1.89-3.05-2.46-.11-.05-.23-.1-.35-.15-1.27.84-2.43,1.86-3.42,3.06l.07.28c2.18-1.36,4.16-1.64,6.4-.64-1.94.61-3.21,2.66-3.29,4.64t-.02,0c-.28-.69-.8-1.29-1.58-1.67-1.3-.58-2.59-.27-3.59.5-.1.19-.19.38-.27.57-.59,1.34-.97,2.72-1.16,4.1l.12.04c1.52-1.28,2.38-3.2,4.39-3.4.39-.03.84.06,1.35.21-1.03.61-1.82,1.68-1.99,3.14-1.51-.29-3.25.35-4.01,1.85,0,.57,0,1.14.06,1.71,2.2-1.65,3.82-1.57,5.99-.35-.9.11-1.79.53-2.56,1.38-.69.71-1.15,1.54-1.43,2.43l-1.58-2.43-.24.28c.14.77.34,1.53.6,2.27l1.14.51.26.12.06-.15c2.22-1.5,3.99-3.09,6.59-1.5.52.27,1.06.58,1.63.9-2.1.17-4.12,1.25-4.98,3.23-.95-.06-1.94.09-2.91.47.42.64.9,1.24,1.43,1.81,2.54.31,4.09,1.09,5.72,3.89.53.21,1.05.39,1.58.54.93-.93,1.88-1.88,2.81-2.6,3.39-2.95,6.83-1.13,10.27.71.13-.08.25-.17.37-.27-.45-1.02-1.27-1.97-2.17-2.76l5.76-1.18c.06-.08.11-.17.16-.26-1.7-.91-4.93-.51-6.54.95-1.45-1.08-2.98-1.47-4.44-1.35,2.49-2.1,5.62-2.23,8.42-.16l.59-.33c-.07-.84-.45-1.65-1.04-2.31l4.9-2.4c.03-.23.06-.46.08-.68Zm-1.89-6.33c-1.14.45-2.24,1.12-2.79,2.2-.2.35-.32.73-.42,1.1-.09,0-.18.03-.27.04-.65-1.63-2.23-2.69-3.95-2.96,2.89-1.52,4.14-1.86,7.43-.38Zm-4.18-3.28c-2.01.36-3.47,1.82-4.2,3.59-.6-1.68-1.94-2.64-3.42-2.9,1.39-.53,2.61-1.19,3.98-1.3,1.29-.09,2.33.25,3.64.61Zm-5.36,3.73c-.78.19-1.5.56-2.1,1.14-.73.68-1.21,1.54-1.39,2.46-.37-1.66-1.96-2.84-3.66-3.09,1.29-.71,2.46-1.34,3.85-1.32,1.16,0,2.19.4,3.3.81Zm-.69-7.6c.59.2,1.2.55,1.85.93-1.76.36-3.12,1.66-3.69,3.29-.97-1.7-2.53-3.06-4.53-3.33,2.14-.74,4.14-1.72,6.37-.89Zm-2.34,4.49c-1.98-.03-3.97,1.13-4.57,3.39-.74-1.79-2.28-2.53-3.78-2.4,3.06-2.88,4.14-2.4,8.35-.99Zm-9.55,6.99c-.27-1.12-1.03-1.84-1.94-2.17,1.53-1.03,2.82-2,4.71-1.52.39.07.85.19,1.33.32-1.89.23-3.54,1.61-4.1,3.37Zm.41.88c.72-.47,1.35-.89,1.99-1.17,2.2-.95,3.88-.88,6.25.31-.9.28-1.75.86-2.43,1.77-.62.78-1.02,1.67-1.24,2.58-.87-1.86-2.68-3.31-4.57-3.49Zm4.07,11.77c-.4-2.1-1.77-3.59-3.53-4.29,2.62-1.18,5.42-1.12,8.15,0-1.9.77-3.56,2.35-4.62,4.28Zm5.51-4.59c-.72-1.93-2.46-3.02-4.38-3.31,3.01-2.94,4.83-3.6,7.97-.88-1.82.68-3.33,2.25-3.59,4.19Zm4.46-4.74c-.63-2.33-2.73-3.64-4.83-3.47,2.73-1.96,5.36-1.87,8.43-.7-1.75.56-3.14,2.33-3.6,4.17Zm4.02,1.23c-.09-.08-.19-.15-.29-.22-.76-.53-1.61-.77-2.48-.81.28-.25.54-.5.82-.71,1.7-1.57,3.09-1.31,5.06-.65-1.31.34-2.39,1.13-3.11,2.39Z"/>
      <g>
        <path class="cls-3" d="m42.3,23.83c-4.85-.15-9.56,2.03-12.59,5.93h0c-4.27-1.71-6.62-5.69-7.02-11.16,0-.04,0-.08,0-.12-.33-5.01,2.56-8.07.69-17.95,7.32,2.13,13.62.51,17.83,6.61.99,1.43,1.76,2.96,2.27,4.6,1.13,3.61.94,7.7-1.16,12.09Z"/>
        <path class="cls-3" d="m66.17,3.09c-2.17,1.36-2.92,11.07-3.97,13.57-4.86,2.26-8.19,6.18-9.47,11.9-1.32-1.45-2.93-2.64-4.78-3.45-1.84-.8-3.75-1.22-5.65-1.28,2.1-4.39,2.29-8.48,1.16-12.09C48.13,2.57,55.54-.6,66.17,3.09Z"/>
        <path class="cls-3" d="m81.4,14.75c-1.76.41-3.66,4.17-4.9,9.82-.94,4.27-3.18,8.22-5.73,9.35h0c-4.06-.81-8.81-.31-14.28,1.59-.69-2.59-1.96-5-3.75-6.95,1.28-5.72,4.61-9.64,9.47-11.9,4.98-2.33,11.56-2.91,19.2-1.91Z"/>
        <path class="cls-3" d="m84.3,45.9c-4.09-.09-10.13,8.17-15.92,7.74-1.83-.13-3.88-1.06-5.82-2.27-2.76-1.72-5.31-4-6.72-5.35,1.39-3.35,1.53-7.08.64-10.51,5.47-1.9,10.22-2.4,14.28-1.59h0c6.02,1.2,10.51,5.29,13.53,11.98Z"/>
        <path class="cls-3" d="m62.34,74.75c-4.96-2.71-12.38.08-17.03-8.14h0c1.42-3.51,2.2-7.54,1.55-12.45,3.82-1.14,7.09-3.79,8.86-7.84.04-.1.09-.2.12-.3,1.41,1.35,3.96,3.63,6.72,5.35,3.29,5.81.44,14.57-.22,23.38Z"/>
        <path class="cls-3" d="m45.31,66.6h0c-3.06,7.6-9.12,12.75-10.29,19.21-4.08-4.85-9.06-10.11-9.62-15.4-.45-4.33.69-9.04,2.9-13.86.89-1.95,1.96-3.91,3.17-5.87,1.19,1.08,2.58,1.98,4.13,2.66,3.73,1.63,7.73,1.88,11.26.82.65,4.91-.13,8.94-1.55,12.44Z"/>
        <path class="cls-3" d="m31.47,50.68c-1.21,1.96-2.28,3.92-3.17,5.87-7.01,5.84-16.29.45-21.53,7.81-8.16-12.51-2.68-22.6,10.67-23.81,2.8.83,5.87,1.24,9.17,1.13.54,3.43,2.24,6.63,4.86,9Z"/>
        <path class="cls-3" d="m27.73,33.08c-1.23,2.81-1.56,5.78-1.12,8.6-3.3.11-6.37-.3-9.17-1.13C6.92,37.47.25,28.51.38,18.75c6.67,3.87,15.67-3.34,22.3-.15.4,5.47,2.75,9.45,7.02,11.16-.78,1-1.44,2.11-1.97,3.32Z"/>
      </g>
    </g>
  </g>
</svg>