<?xml version="1.0" encoding="UTF-8"?>
<svg id="Layer_2" data-name="Layer 2" xmlns="http://www.w3.org/2000/svg" viewBox="0 0 174.26 166.6">
  <defs>
    <style>
      .cls-1 {
        stroke-linecap: round;
        stroke-linejoin: round;
        stroke-width: .75px;
      }

      .cls-1, .cls-2, .cls-3, .cls-4 {
        fill: none;
      }

      .cls-1, .cls-2, .cls-3, .cls-4, .cls-5 {
        stroke: #303030;
      }

      .cls-2, .cls-3, .cls-4, .cls-5 {
        stroke-miterlimit: 10;
      }

      .cls-2, .cls-5 {
        stroke-width: .2px;
      }

      .cls-3 {
        stroke-width: .3px;
      }

      .cls-4 {
        stroke-width: .4px;
      }

      .cls-5 {
        fill: #dbdbdb;
      }
    </style>
  </defs>
  <g id="Layer_1-2" data-name="Layer 1">
    <g>
      <path class="cls-1" d="m33.37,147.96c27.78,27.06,63.18,19.1,77,7.66,12.49-10.34,27.76-47.44,3.71-56.99-15.71-15.44-30.91,5.19-27.57,11.66-1.26-.58-2.35.16-3.93.82,3.12.79,4.1,5.21,6.85,7.89,2.15,2.1,5.21,2.43,7.43.95,3.34,5.92,14.09,8.14,14.57,1.29.11-1.6-4.41-5.03-2.15-6.13,1.72-.83,1.44,4.55,4.6,4.7,2.42.11,2.79-2.59,3.24-3.06.44-.48,2.79-.51,2.86-1.3.02-.3-.26-.44-.56-.62-.31-.19-.4-.56-.28-.9.48-1.41-.01-2.95-.72-3.68-.79-.81-4.7-1.89-3.32-3.78,2.04-2.8,13.04,7.76,8.29,23.83-3.05,10.3-13.4,22.87-16.05,20.9-.8-.59.98-2.59,1.94-4.03,1.65-.58,2.81-1.29,2.88-2.54.07-1.22-2.77-4.15-6.25-2.98-1.42.48-3.21,1.52-4.93,1.46-2.49-.1-3.55-1.79-6.74-.69-4.73,1.63-4.09,5.12-7.41,7.32-2.59,1.72-5.37,1.17-5.89.37-1.33-2.01,2.21-3.54,3.57-6.26.48-.97-.09-2.06.15-2.77s.73-.58.66-1.97c-.09-2.12-6.52-6.67-11.8-5.57-1.7.36-2.93,3.41-3.91,3.57-1.51.26-2.61-1.4-4.75-.2-2.53,1.4-1.71,4.09-2.43,7.28-.64,2.85-2.41,6.19-4.26,6.17-1.8-.02-1.11-3.21-5.31-2.62,1.16,2.67-2.37,5.65-5.96,4.63"/>
      <g>
        <path class="cls-3" d="m107.44,153.51c-3.19,4.16-8.96,6.94-14.98,8.34-5.86,1.37-11.94,1.42-17.36,1.14-5.94-.3-10.66-.74-12.05-1.17-4.29-1.33-10.12-3.55-11.92-4.09-1.71-.51-6.7-1.79-9.72-3.01-2.74-1.96-5.43-4.2-8.05-6.76.85.84,2.96,1.9,5.54,2.77,6.72,5.23,18.32,7.36,23.46-.29-1.29,3.69-3.94,5.65-7.7,6.2,3.87.6,7.47.13,10.55-1.49.1.19.22.39.38.59s.33.37.5.51c-2.38.97-5.2,1.58-8.23,2.02,10.97,2.85,17.41,2.06,19.88,1.22,3.64-1.22,4.2-3.74,5.95-4.81s3.63,0,6.85-2.75c-.98,2.36-5.13,2.64-6.39,3.72-1.92,1.64-2.2,4.93-6.75,5.54,14.34,1.3,15.22-7.7,20.61-10.48.32.09.66.16,1,.2-2.53,1.58-2.95,3.33-4.64,5.33-1.96,2.34-4.12,4.12-6.42,4.89,7.1-.32,12.02-3.56,15.66-8.51-.95,2.81-2.56,4.79-4.7,6.13,3.1-1.07,6.92-3.83,8.53-5.24Z"/>
        <g>
          <path class="cls-3" d="m65.6,155.74c-1.74-2.21.24-4.12.79-4.34,3.5-1.38,4.26-3.96,4.26-4.62.94.67,1.08,1.57.82,2.58.77-1.05,2.28-1.01,2.76-1.66.12,1.25-.32,2.17-1.05,2.91.98-.38,1.87-.43,2.63-.03-4.24,1.46-4.01,4.65-6.43,5.8-.89.42-2.53.94-3.78-.64Z"/>
          <path class="cls-3" d="m78.78,145.63c-.2.94-3.08,2.07-4.57,3.06.05-.3.06-.64.03-.99-.48.65-1.99.61-2.76,1.66.06-.23.1-.45.11-.66,1.72-2.44,1.34-5.93,3.59-6.85,1.66-.68,2.09.84,2.68,1.64.59.79,1.18.96.92,2.14Z"/>
          <path class="cls-3" d="m71.59,148.7c.05-.66-.15-1.26-.71-1.75.12-1.65-.51-3.98.53-4.88.96-.82,1.72,0,2.99.29-1.41,1.33-1.33,4.23-2.81,6.34Z"/>
          <path class="cls-3" d="m79.7,148.62c.09,2.24-2.83,1.45-4.35,1.78-.65-.18-1.38-.1-2.16.21.52-.53.9-1.15,1.02-1.92.44-.29.99-.59,1.56-.89,1.49-.45,3.84-1.42,3.93.82Z"/>
          <path class="cls-5" d="m74.21,148.69c.05-.3.06-.64.03-.99-.48.65-1.99.61-2.76,1.66.06-.23.1-.45.11-.66.14-.19.26-.4.37-.6.56-1.09.82-1.21,1.37-1.89.56-.68,1.4-1.1,1.74-1.58l.29,2.96c.01.14.02.28.02.42-.43.22-.83.46-1.17.68Z"/>
          <path class="cls-5" d="m71.92,148.12s.02,0,.04-.02c-.11.2-.24.41-.37.6.05-.66-.15-1.26-.71-1.75.04-.52,0-1.1-.03-1.69.6.49.84,1.22,1.07,2.86Z"/>
          <path class="cls-5" d="m77.66,150.27c-.8.05-1.68,0-2.31.13-.65-.18-1.38-.1-2.16.21.52-.53.9-1.15,1.02-1.92.34-.22.75-.46,1.18-.69.01.42-.04.83-.13,1.22.38.06.75.18,1.09.36l1.31.69Z"/>
          <path class="cls-3" d="m78.78,145.63c-.2.94-3.08,2.07-4.57,3.06.05-.3.06-.64.03-.99-.48.65-1.99.61-2.76,1.66.06-.23.1-.45.11-.66,1.72-2.44,1.34-5.93,3.59-6.85,1.66-.68,2.09.84,2.68,1.64.59.79,1.18.96.92,2.14Z"/>
          <path class="cls-3" d="m71.59,148.7c.05-.66-.15-1.26-.71-1.75.12-1.65-.51-3.98.53-4.88.96-.82,1.72,0,2.99.29-1.41,1.33-1.33,4.23-2.81,6.34Z"/>
          <path class="cls-3" d="m79.7,148.62c.09,2.24-2.83,1.45-4.35,1.78-.65-.18-1.38-.1-2.16.21.52-.53.9-1.15,1.02-1.92.44-.29.99-.59,1.56-.89,1.49-.45,3.84-1.42,3.93.82Z"/>
        </g>
      </g>
      <path class="cls-4" d="m113.32,97.92c-7.3-.59-13.88,3.19-14.73,9.88-.65-.1-1.28-.12-1.89-.05,1.4-7.29,6.42-11.4,13.84-12.01.92.6,1.85,1.33,2.78,2.18Z"/>
      <path class="cls-1" d="m100.97,143.1c1.72.07,3.51-.98,4.93-1.46,3.47-1.17,6.32,1.76,6.24,2.98-.1,1.74-2.31,2.43-5.04,3.2-2.97.84-5.24,2.99-7.26,3.12-1.48.09-2.8-.59-4.08-.9-1.87-.46-2.56-1.11-2.77-1.55,4.24.42,4.43-4.62,2.07-6.32,2.57-.56,3.65.84,5.91.93Z"/>
      <path class="cls-1" d="m111.43,121.24c-.48,6.84-11.24,4.63-14.57-1.29-2.22,1.48-5.28,1.16-7.43-.95-2.75-2.68-3.73-7.1-6.85-7.89,1.58-.66,2.67-1.4,3.93-.82,1.22.56,1.63,1.79,2.21,2.64.08.11.24.1.31-.02.94-1.77,5.75-7.02,11.42-4.58,3.68,1.58,5.96,5.35,2.57,9.11,2.79-.39,5.4,1.69,4.02,4.71-.43-.95-1.63-.89-2.16-.2-.69.89.29,3,2.74,2.59.85-.14,3.19-.87,3.81-3.3Z"/>
      <path class="cls-4" d="m96.55,120.13c-.44.25-.9.44-1.38.55-1.92-7.12.67-10.3,4.34-11.57-3.83,2.29-4.64,5.82-2.96,11.02Z"/>
      <path class="cls-1" d="m96.85,119.95c-2.22,1.48-5.28,1.16-7.43-.95"/>
      <path class="cls-1" d="m169.13,96.93c-.31-5.74-2.38-11.01-3.88-13.55-6.43-10.93-13.38-8.51-15.93-10.04-1.6-.96-.1-4.26-5.45-7.25-4.45-2.49-8.46,1.79-11.23-1.09-2.52-2.62.91-2.63,1.12-4.26.23-1.75-.72-3.18-3.37-2.69-1.98.37-3.78,4.46-7.25,4.73-1.84.14-2.52-1.36-4.56-1.43-2.52-.08-5.91,1.98-8.2,1.63-2.45-.37-2.59-1.65-3.13-2.11-.65-.54-1.6-.64-2.01-1.36-.75-1.33.41-3.95-1.12-5.82-.51-.63-1.62-1-1.63-1.84-.03-1.63,2.73-4.34,3.96-4.66,1.55-.4,4.1.28,4.08-2.19-.02-1.51-3.62-2.26-6.3-.49-3.19,2.11-4.53,7.27-6.23,8.9s-4.66,1.06-7.01,1.63c-2.35.58-3.64,3.74-6.16,4.32s-4.33-.58-6.43-.78c-2.86-.27-6.81,1.84-8.65.54-2.47-1.74-1.35-5.35-2.55-6.84-.99-1.23-7.46-1.63-6.67-5.31.31-1.46,2.11-3.76,4.46-4.29,3-.68,4.63-2.52,3.78-3.81-.82-1.25-2.38.22-4.32,1.4-1.61.97-2.86,1.09-3.85,2.38-.38.5-.48,1.52-1.43,1.7-1.06.2-1.06-1.69-2.55-1.7-1.32-.02-4.31,4.09-6.26,5.11-1.95,1.01-3.17.72-4.97,1.57-1.6.75-1.7,2.54-3.18,3.93-1.23,1.16-2.86,1.33-3.88,2.01-.18.12-.42.01-.44-.2-.13-1.5.84-4.45.08-4.48-6.33-.26-23.03,20.37-18.59,37.38-.68-.06-1.7.44-2.71-.23-1.6-1.07-2.41-3.25-3.98-3.55-1.33-.26-5.26,3.68-5.26,3.68,13.17-24,19.49-36.67,27.37-45.34,14.25-15.68,22.88-10.11,23.18-14.5.77-2.81-6.98,1.16-7.08-3.71-.03-1.67,1.08-2.89,1.67-4.32.41-1.01.39-1.99.92-2.66,1.46-1.84,3.19-.05,6.88-2.42,1.8-1.16,3.52-3.94,5.45-4.7,6.77-2.67,13.16,6.62,15.1,3.56s-5-2.8-4.49-5.82c.66-3.93,8.67-2.83,11.29-4.9,1.23-.97,2.16-2.4,3.6-2.63,3.55-.56,7.17,3.46,9.17,3.4,15.78-.51,12.46,12.71,15.63,12.61,2.23-.07-.75-8.64,2.3-8.94,2.43-.24,4.7,5.12,9.55,9.55,2.96,2.71,8.94,5.82,11.08,9.19,3.69,5.8.78,12.83,4.89,13.77,2.52.58-.09-5.38,3.8-5.24,3.88.14,3.69,5.63,6,8.2.97,1.08,3.99,1.97,5.62,4.9,1.29,2.31,1.39,5.36,1.61,8.17.14,1.8,1.11,4.06.2,4.01-1.76-.1-1.91-1.63-5.17,1.62,6.19,5.9,11.72,16.25,14.52,25.91,2.06,7.1,1.86,13.79,3.37,18.18"/>
      <path class="cls-1" d="m7.39,87.88c-.94,1.39-2.34,4.86-3.1,6.54-.82,1.8-3.4,2.79-3.64,4.42-.24,1.64.61,1.98.48,4.19-.14,2.21-.92,3.13-.72,5s2.01,3.13,2.15,4.42c.14,1.3-.87,3.03,1.16,4.02,1.31.64,2.86-.64,3.61-2.28.94-2.07,2.06-3.64,3.58-2.55,3.05,2.19-3.68,5.96-3.61,11.71.04,4.02,4.02,6.43,4.97,7.69.95,1.26,4.42,10.55,7.86,10.66,4.61.14,2.76-5.95,4.7-5.99,1.46-.03,2.69,6.5,8.55,12.26,1.66,1.64,8.1,4.12,13.55,4.39-4.87-1.98-9.53-12.12-7.83-14.3.57-.72,2.41-.12,4.32-.61,1.52-.39,2.14-1.63,3.43-2.34.25-.14.4-.4.38-.68-.22-2.68-3.24-5.96-4.04-7.43-.85-1.56.14-2.52-.65-5.92-.78-3.4-12.39-9.8-8.58-11.68,1.9-.93,2.41,1.9,4.26,4.29,1.54,1.98,4.02,3.35,4.77,3.2,5.48-4.24,5.05-11.65.48-17.02-1.36-1.6-.38-5-1.8-6.43-1.43-1.43-4.02-1.57-5.28-2.69s-2.06-3.17-3.47-4.84c-1.74-2.04-4.14-2.2-6.13-4.36-1.34-1.45-1.86-3.48-.63-3.88,1.89-.61,2.47,2.04,4.5,2.91,2.96,1.28,6.43.2,6.89-3.12-10.28.6-7.54-23.3.38-26.85.01,0,.01,0,0,0-6.35-.19-22.99,20.4-18.56,37.38-.68-.06-1.7.44-2.71-.23-1.6-1.07-2.41-3.25-3.98-3.55-1.36-.25-5.29,3.68-5.29,3.68Z"/>
      <path class="cls-3" d="m44.71,152.13c-1.56-.22-3.14-.59-4.62-1.02-5.02-4.35-7.98-9.3-11.83-14.9-2.9-4.21-5.55-9.44-7.65-17.03.1-2.41-.88-6.41-1.21-6.93,1.46,4.78,1.6,9.77-.6,14.79-.85,1.94-2.73,3.58-3.28,5.84-.14-3.05,1.44-5.04,1.87-7.68.78-4.78.96-9.38.86-13.77-.11-4.31-1.67-8.01-1.19-14.95.95-2.21.78-3.44.78-3.44-.27,2.73-1.62,5.18-3.85,8.04-1.91,2.44-4.76,3.06-7.46,6.74,1.8-4.12,6.45-6.71,8.17-10.72,1.24-2.9,1.56-6.24,1.38-9.78.17.16.35.3.54.43,1,.67,2.03.17,2.7.23-3.2-12.25,4.57-26.38,11.54-33.23-5.34,8.04-7.92,16.62-7.71,24.62.26,10.42,2.75,16,14.97,25.87,0,0-19.17-8.22-17.52-24.3.04-.38-.3-1.53-.54-2.06-.09-.21-.16-.36-.18-.39.18.71.65,1.8.56,2.46-.62,4.66-.03,9.67.25,13.88.36,5.52.71,10.21,2.52,14.96,3.13,8.22,9.45,14.96,18.58,20.17-2.72-1.58-5.7-2.9-8.63-4.53-1.22-.68-2.39-1.67-3.52-2.55-.98-.77-2.05-1.36-2.93-2.37-1.24-1.42-2.34-3.04-3.25-5.13-.07-.27-.76-2.86-1.28-3.67.19.53.88,2.45,1.23,3.69,4.05,14.46,10.31,27.24,21.3,36.73Z"/>
      <path class="cls-1" d="m33.37,147.96c1.66,1.64,8.1,4.12,13.55,4.39"/>
      <g>
        <path class="cls-3" d="m83.95,27.79c.93-5.81-2.61-8.96-8.27-9.4,4.27,1.67.77,8.87,8.27,9.4Z"/>
        <path class="cls-3" d="m61.67,14.37c1.43,4.37,9.09,2.32,12.59,13.79-1.03.53-5.43.64-9.29-3.5-3.56-3.8-4.65-7.02-3.3-10.29Z"/>
        <path class="cls-3" d="m69.31,31.09c-3.06.37-6.39,5.79-10.45,7.25-4.73,1.7-8.17-.58-12.87,2.35,1.63-5.41,4.86-6.32,7.8-7.69,4.83-2.26,7.76-2.76,15.52-1.91Z"/>
        <path class="cls-3" d="m123.81,15.78c-.26,8.83,9.1,7.79,6.94,22.43-1.49.13-7.08-1.96-9.69-8.79-2.38-6.28-.45-10.39,2.75-13.64Z"/>
        <path class="cls-3" d="m137.06,43.11c-6.67-4.39-6.25-14.16,1.16-16.77-2.31,3.93.03,5.55.07,8.56.02,2.75-1.3,6.51-1.23,8.21Z"/>
        <path class="cls-3" d="m129.74,48.93c-3.95-2.28-5.15-5.02-7.93-6.47-2.92-1.52-6.6-1.74-8.1-3.2.68,4.03,2.31,6.81,5.66,8.25,2.72,1.19,5.26.2,10.37,1.42Z"/>
        <path class="cls-3" d="m122.59,60.1c-.42-8.25,4.85-9.14,11.77-7.35-2.2.23-3.91,3.45-5.69,5.18-1.31,1.27-4.27.84-6.08,2.17Z"/>
        <path class="cls-3" d="m125.52,50.43c-2.72.55-4.02,5.1-6.5,6.89-2.55,1.83-11.91,2.83-12.36,2.94,3-1.65,3.14-7.12,7.42-9.17,4.38-2.11,11.44-.66,11.44-.66Z"/>
        <path class="cls-3" d="m163.53,79.28c-3.79-9.24-14.5-21.54-23.99-15.2,2.6-3.18,6.23-3.94,10.62-2.96-5.24-2.6-7.11-5.5-10.47-6.79-2.37-.91-4.66-1.31-6.9-1.11-2.9.26-6.56,3.14-8.42,3.97,3.22-2.52,6.35-4.22,9.4-4.6,1.68-.21,4.48.52,4.98.49-5.24-1.29-7.98-2.54-11.79-2.5-5.16.06-8.07,2.22-14.63,5.54,1.62-1.29,3.4-2.08,4.98-3.01,2.92-1.72,5.61-3.11,8.4-3.48,3.03-.4,7.71,1.28,8.83,1.38-6.76-2.2-12.71-4.8-17.26-8.07,2.52,1.1,5.76,3.11,9.03,4.39,3.54,1.39,6.94,1.97,11.54,3.84-4.19-2.89-7.51-5.22-11.01-7.47-3.01-1.93-5.87-3.39-9.14-4.75-9.32-3.86-17.02-6.51-22.17.44-.15-.09-.31-.17-.47-.24-.21-.09-.42-.16-.64-.21,1.42-2.07,3.01-3.46,4.83-4.2,1.16-.47,2.43-.41,3.8-.64-6.18-.42-12.73,1.17-20.36,8.72-.17-.24-.36-.46-.59-.67-.21-.19-.44-.34-.7-.45,1.57-1.65,3.36-3.24,5.26-4.34,3.13-1.8,4.1-1.74,5.72-2.34-3.72.43-7.33.88-9.56,1.57.04-.26.06-.54.03-.84-.02-.22-.06-.43-.12-.62,6.18-.74,11.78-1.8,15.37-2.2,1.58-.18,2.19-.22,4.08-.1-6.17-1.79-13.8-2.2-20.97-2.14-3.38.02-6.7.09-9.77.41-10.28,1.06-18.79,5.79-21.45,6.59,6.77-3.63,13.5-6.08,18.79-7.24,3.04-.66,4.76-.75,8.07-.58-2.35-.64-3.32-2.05-5.14-3.47-3.03-2.36-5.65-4.66-8.65-8.1,1.46,1.05,3.98,3.63,7.52,6.33,3.1,2.36,5.48,4.02,7.59,4.53,1.87.45,8.42.41,8.42.41-1.46-.39-2.58-1.24-3.64-2.68-.61-.83-1.14-1.67-1.69-2.56-.69-1.1-.97-1.46-1.99-2.84,2.74,2.43,3.23,5.72,7.39,7.22,4.26,1.53,11.9,1.48,19.07,3.68,2.28.7,4.77,1.38,7.38,2.29,1.65.57,3.09,1.26,5.08,2.05-5.88-4.1-11.82-8.48-17.37-10.11.1-.17.18-.34.25-.53.13-.37.2-.74.22-1.1,1.91.9,4.22,2.74,7.67,4.03-2.52-1.62-5.5-5.52-8.57-9.82.42-.08.81-.26,1.16-.54.16-.12.3-.26.42-.4,1.93,3.9,5.02,7.81,9.34,11.58-.9-1.21-1.72-2.36-2.21-3.6-.42-1.05-.67-2.13-.8-3.24.17.02.36.04.54.04.23,0,.45,0,.66-.04.15,1.78,1.09,3.16,2.09,5.12.68,1.31,1.48,2.55,2.82,3.78-1.56-2.22-.94-4.46-.24-5.02.62-.48,2.72-.94,3.05.71-1.12.02-1.8.28-2.08.74-1.05,1.66,1.17,4.06,2.62,5.22,1.78,1.42,18.99,13.55,22.18,16.2-5.77-6.02-10.78-12.54-14.15-19.9-1.18-2.59-2.51-5.22-2.9-8.08,2.09,5.73,8.72,17.8,15.16,23.69-2.98-4.21-3.54-10.26-2.31-14.35-.6,7.17.65,10.32,3.56,14.6,3.32,4.89,8.16,8.7,11.98,13.22-2.54-4.5-2.3-9.19-.26-13.99-.44,2.28-.72,4.65-.48,6.65.47,4.08,3.46,8.98,6.36,11.74"/>
        <g>
          <path class="cls-3" d="m82.08,42.16c2.32,2.11,1.48,6.2,1.06,7.39-1.8,5.11-7.35,5.11-9.46,7.22-2.96-5.34-1.82-9.46.31-12.09,1.45-1.81,5.88-4.53,8.09-2.52Z"/>
          <path class="cls-5" d="m83.63,45.88c-.69,2.75-4.73,2.42-6.79,3.6-.54-2.05-.24-4.02,1.02-5.87-.91-.58-2.5-.05-3.62.78,1.67-1.78,5.74-4.12,7.84-2.22,1.07.96,1.47,2.37,1.55,3.71Z"/>
          <g>
            <path class="cls-2" d="m82.08,42.16c2.32,2.11,1.48,6.2,1.06,7.39-1.8,5.11-7.35,5.11-9.46,7.22-2.96-5.34-1.82-9.46.31-12.09,1.45-1.81,5.88-4.53,8.09-2.52Z"/>
            <path class="cls-2" d="m79.11,46.78c-.74-.65.41-2.31.89-1.83,1.13,1.11-5.69,4.82-6.33,11.81"/>
          </g>
        </g>
        <g>
          <path class="cls-3" d="m82.83,35.76c.2,2.69-2.31,3.63-3.68,3.91-6.3,1.33-7.11-2.14-9.6-1.94,1.87-5.48,8.1-5.17,8.89-5.17.68,0,4.18.51,4.39,3.2Z"/>
          <path class="cls-5" d="m81.44,38.72c-1.08.14-1.91-.12-2.3-1.04-1.57.44-2.99-.34-4.41-.9,2.12-.12,4.15-.69,6.14-1.5-1.58-.23-2.68-1.31-3.6-2.71.58-.03,1-.02,1.16-.02.68,0,4.19.51,4.39,3.2.12,1.43-.54,2.37-1.38,2.97Z"/>
          <g>
            <path class="cls-2" d="m82.83,35.76c.2,2.69-2.31,3.63-3.68,3.91-6.3,1.33-7.11-2.14-9.6-1.94,1.87-5.48,8.1-5.17,8.89-5.17.68,0,4.18.51,4.39,3.2Z"/>
            <path class="cls-2" d="m81.43,35.69c-4.46,2.69-8.68-.44-11.88,2.04"/>
          </g>
        </g>
        <g>
          <path class="cls-3" d="m95.05,39.16c2.37,1.03,3.43,4.23,2.89,6.91-1.19,5.99-6.94,5.92-8.54,9.43.41-3.27-3.64-7.93-.75-13.17,1.4-2.54,4.12-4.15,6.4-3.17Z"/>
          <path class="cls-5" d="m97.78,42.57c-.88,4.02-5.5,2.28-6.39,7.98-1.38-3.78-1.51-7.27-.76-10.56,1.35-1.04,2.97-1.45,4.42-.83,1.36.59,2.29,1.89,2.73,3.41Z"/>
          <g>
            <path class="cls-2" d="m95.05,39.16c2.37,1.03,3.43,4.23,2.89,6.91-1.19,5.99-6.94,5.92-8.54,9.43.41-3.27-3.64-7.93-.75-13.17,1.4-2.54,4.12-4.15,6.4-3.17Z"/>
            <path class="cls-2" d="m94.1,39.47c-2.55,5.65-1.16,9.63-4.7,16.03"/>
          </g>
        </g>
        <g>
          <path class="cls-3" d="m101.55,18.63c2.45-1.96,1.32-5.93.97-7.15-1.48-5.21-6.36-5.52-8.34-7.76-3.29,5.15-2.2,9.29-.24,12.05,1.35,1.9,5.28,4.73,7.61,2.86Z"/>
          <path class="cls-5" d="m103.06,15.52c-.1,1.16-.5,2.31-1.5,3.12-1.71,1.36-4.26.22-6.04-1.24-.66-1.17-1.08-2.52-1.21-4.08,1.06,2.62,2.76,4.29,5.16,4.9-1.6-2.05-2.57-4.16-2.25-6.38.75.74,1.54,1.37,2.56,1.48.44-1.23-1.1-3.47-2.76-5.77,2.84,2.38,5.05,4.56,6.04,7.97Z"/>
          <g>
            <path class="cls-2" d="m101.55,18.63c2.45-1.96,1.32-5.93.97-7.15-1.48-5.21-6.36-5.52-8.34-7.76-3.29,5.15-2.2,9.29-.24,12.05,1.35,1.9,5.28,4.73,7.61,2.86Z"/>
            <path class="cls-2" d="m98.99,14.03c-.78.6.26,2.33.78,1.88,1.19-1.03-5.37-5.16-5.58-12.18"/>
          </g>
        </g>
        <g>
          <path class="cls-3" d="m101.07,26.07c-1.07,2.91-4.95,3.23-6.52,2.88-7.22-1.63-4.6-5.41-7.76-6.64,4.58-4.83,9.86-3.42,11.49-2.6.7.35,3.87,3.45,2.79,6.36Z"/>
          <path class="cls-5" d="m101.07,26.07c-.61,1.66-2.13,2.47-3.61,2.81,1.16-.67,2.2-1.38,1.98-2.65-2.36-.7-4.48-1.65-6.37-2.83,2.63.76,5.08,1.06,7.12.28-.25-1.13-.84-2.56-1.64-3.79,1.01.77,3.49,3.55,2.52,6.18Z"/>
          <g>
            <path class="cls-2" d="m101.07,26.07c-1.07,2.91-4.95,3.23-6.52,2.88-7.22-1.63-4.6-5.41-7.76-6.64,4.58-4.83,9.86-3.42,11.49-2.6.7.35,3.87,3.45,2.79,6.36Z"/>
            <path class="cls-2" d="m99.65,25.33c-5.24-.06-8.32-4.08-12.85-3.02"/>
          </g>
        </g>
        <g>
          <path class="cls-3" d="m108.36,20.12c1.36-.05-.43-2.57,2.55-7.95.54-.98.14-2.72.14-2.72.31.67.91,1.32,1.48,2.6.52,1.16,1.05,2.8.83,5.94-.12,1.77-1.6,5.11-4.53,5.04-4.98-.13-4.86-6.61-3.99-9.04,1.91-5.35,3.96-4.75,3.93-6.84,1.71,1.53.94,6.26-.01,8.29-.38.82-1.9,4.73-.4,4.68Z"/>
          <path class="cls-5" d="m112.33,20.95c-.32.51-.73.97-1.21,1.34-.05.04-.1.08-.16.11-.05.04-.11.08-.17.11-.05.03-.1.06-.16.09-.02,0-.04.02-.06.03-.05.03-.1.05-.15.08-.02,0-.04.02-.06.03-.06.03-.12.05-.17.07-.09.04-.19.07-.29.1-.06.02-.13.04-.19.05-.07.02-.14.03-.21.04-.09.02-.18.03-.27.03-.1,0-.19,0-.28,0h-.1c-.13,0-.26,0-.38-.02-.11,0-.22-.02-.32-.04-.03,0-.06,0-.08-.02-.08,0-.16-.03-.24-.05-.02,0-.05,0-.08-.02-.08-.02-.15-.04-.23-.07-.08-.02-.15-.05-.22-.08-.13-.05-.26-.1-.38-.17-.06-.03-.12-.06-.18-.1-.06-.03-.12-.07-.18-.11s-.12-.08-.18-.12c-.01,0-.02,0-.02-.02-1.27-1.83-1.08-4.34.31-5.76-.19,1.45.24,2.4,1.06,2.67-.02.6.15,1.02.65,1,.78-.03.53-.86.72-2.56.55-1,1.2-1.92,1.91-2.8-1.05,2.4-1.12,4.75-.06,7.04.7-.72,1.03-2.23,1.14-3.94.31.97.38,2.01.24,3.08Z"/>
          <path class="cls-2" d="m108.36,20.12c1.36-.05-.43-2.57,2.55-7.95.54-.98.14-2.72.14-2.72.31.67.91,1.32,1.48,2.6.52,1.16,1.05,2.8.83,5.94-.12,1.77-1.6,5.11-4.53,5.04-4.98-.13-4.86-6.61-3.99-9.04,1.91-5.35,3.96-4.75,3.93-6.84,1.71,1.53.94,6.26-.01,8.29-.38.82-1.9,4.73-.4,4.68Z"/>
        </g>
      </g>
    </g>
  </g>
</svg>