<?xml version="1.0" encoding="UTF-8"?>
<svg id="Layer_2" data-name="Layer 2" xmlns="http://www.w3.org/2000/svg" viewBox="0 0 44.02 66.95">
  <defs>
    <style>
      .cls-1 {
        fill: #303030;
      }

      .cls-2 {
        fill: #dbdbdb;
        stroke-width: .5px;
      }

      .cls-2, .cls-3 {
        stroke: #303030;
        stroke-miterlimit: 10;
      }

      .cls-3 {
        fill: none;
        stroke-width: .75px;
      }
    </style>
  </defs>
  <g id="Layer_1-2" data-name="Layer 1">
    <g>
      <path class="cls-3" d="m21.93,46.49c-.61,3.61-.51,7.63.24,12.07-.75-4.44-.84-8.46-.24-12.07,1.51-8.98,7.36-15.38,18.33-19.22-3.55,3.62-5.22,8.25-6.21,13.08-1.38,6.72-1.44,13.8-3.43,19-3.05,7.95-12.67,9.68-16.06,3.48-5.54-10.12.05-17.05-10.27-35.24,9.46,4.49,15.58,10.57,17.64,18.9Z"/>
      <path class="cls-2" d="m32.64,49.9c-.45,3.45-.96,6.7-2.01,9.44-3.06,7.95-12.67,9.68-16.07,3.48-2.66-4.86-2.76-9-3.28-13.99,4.87,13.99,15.08,13.93,21.36,1.07Z"/>
      <path class="cls-3" d="m5.64,30.08c-.42-.81-.87-1.64-1.36-2.5,9.46,4.5,15.59,10.58,17.65,18.91,1.45-8.65,6.95-14.91,17.14-18.79,4.89-2.98,6.65-11.26,1.26-18.62-4.9,9.66-24.78,10.27-20.12,27.56-1.75-6.48-.04-10.62,3.03-13.77.25-4.72-1.33-8.88-4.82-11.57-3.73-2.88-10.63-2.25-16.68-5.21,2.79,5.3-1.2,9.65-1.35,13.16-.21,4.91,1.35,7.71,5.25,10.83Z"/>
      <path class="cls-3" d="m33.33,15.79c-3.45,2.23-7.32,4.25-10.09,7.09.26-4.72-1.33-8.88-4.82-11.57-.76-.59-1.65-1.03-2.66-1.4C17.39,1.55,29.44,5.28,33.28.69c2.2,4.72,1.78,10.82.05,15.1Z"/>
      <path class="cls-2" d="m39.07,27.71c-10.19,3.88-15.68,10.14-17.14,18.78-.32-1.3-.74-2.54-1.25-3.72,2.15-11.3,9.95-15.36,10.02-22.31,3.02,2.49,3.05,4.66,3.4,6.2,2.3-1.7,3.85-3.99,5.37-6.24.72,2.95.67,5.44-.4,7.29Z"/>
      <path class="cls-2" d="m18.62,39.01c-2.45-3.67-5.99-6.77-10.48-9.4.35-2.99-.37-6.21-1.77-9.57,2.61,1.69,4.55,4.36,5.65,8.3,1.98-2.73,2.62-6.32,2.42-10.44,3.07,7.75,4.71,14.89,4.18,21.11Z"/>
      <path class="cls-2" d="m31.79,6.7c.67,4.02.23,7.55-1.06,10.71-2.69,1.65-5.41,3.33-7.49,5.47.23-4.09-.94-7.76-3.52-10.41.73-1.62.66-3.52-.41-5.77,3.26,1.65,4.59,4.05,4.36,7.08,2.16-3.02,4.85-5.41,8.12-7.08Z"/>
      <path class="cls-1" d="m22.31,46.48c-.75,4.01-.63,8.05-.05,12.07l-.17.03c-2.94-15.43,3.11-26.5,18.05-31.66l1.61-.62c-3.23,2.93-5.44,6.79-6.57,11.02-2.19,7.34-1.61,15.24-4.36,22.49-1.98,5.47-9.37,9.44-14.5,5.61-4.47-3.94-4.78-10.69-5.38-16.18-.59-7.62-3.21-14.86-6.98-21.46l-.57-1.03,1.06.51c8.09,3.74,15.8,10.15,17.86,19.22h0Zm-.75.02c-2.11-8.78-9.53-14.91-17.43-18.58l.49-.52c3.81,6.66,6.49,14.07,7.07,21.76.38,3.8.64,7.63,2.09,11.11,2.8,8.96,13.31,6.89,16.35-.75,3.84-10.57,1.32-23.84,9.87-32.51-.01,0,.41.62.38.62-14.83,4.89-20.78,15.7-18.12,30.92l-.17.03c-.76-3.94-1.11-8.09-.53-12.08h0Z"/>
      <path class="cls-1" d="m5.62,30.05l-1.4-2.43-.12-.22.23.1c8.12,3.58,15.76,9.94,17.9,18.91l-.57.02c.36-2.22,1.02-4.41,2.01-6.45,2.93-6.15,9.26-10.3,15.29-12.51,6.16-3.96,5.41-13.07,1.3-18.31-.03-.02.22-.02.22-.02-3.04,5.62-9.49,7.82-14.31,11.5-5.97,4.27-7.25,8.99-5.92,15.99-.63-1.75-1.12-5.02-.68-7.37.39-2.5,1.69-4.82,3.42-6.67l-.11.25c.32-4.87-1.87-10.3-6.54-12.3-4.7-1.81-10.1-1.83-14.69-4.2l.38-.39c1.04,2.01,1.24,4.4.64,6.57-.52,2.16-1.65,4.11-2.01,6.22-.21,2.13-.04,4.37.86,6.34.84,2.01,2.52,3.58,4.1,4.97h0Zm.04.06C1.88,27.59-.33,23.26.27,18.71c.35-2.23,1.45-4.18,1.91-6.29.65-2.37.16-4.85-1.08-6.94l.76.36c4.65,2.3,9.91,2.14,14.74,4,5.02,2.12,7.43,7.88,7.03,13.05-.01.16.01.14-.11.25-1.74,1.68-3.07,3.8-3.58,6.19-.56,2.38-.22,4.95.26,7.3-1.15-2.89-1.19-6.25-.16-9.19,2.27-6.07,8.64-8.79,13.65-12.14,2.61-1.7,5.21-3.67,6.63-6.49,1.03,1.51,1.95,3.09,2.57,4.81,1.87,4.87.95,11.35-3.73,14.3-8.36,3.03-15.58,9.48-16.94,18.6l-.24,1.43-.33-1.41c-1.99-8.88-9.53-15.09-17.4-18.91l.1-.11,1.31,2.59h0Z"/>
      <path class="cls-3" d="m33.33,15.79c-3.45,2.23-7.32,4.25-10.09,7.09.26-4.72-1.33-8.88-4.82-11.57-.76-.59-1.65-1.03-2.66-1.4C17.39,1.55,29.44,5.28,33.28.69c2.2,4.72,1.78,10.82.05,15.1Z"/>
    </g>
  </g>
</svg>