<?xml version="1.0" encoding="UTF-8"?>
<svg id="Layer_2" data-name="Layer 2" xmlns="http://www.w3.org/2000/svg" viewBox="0 0 82.92 83.07">
  <defs>
    <style>
      .cls-1 {
        fill: #303030;
      }

      .cls-2 {
        fill: none;
        stroke-width: .57px;
      }

      .cls-2, .cls-3 {
        stroke: #303030;
        stroke-miterlimit: 10;
      }

      .cls-3 {
        fill: #dbdbdb;
        stroke-width: .38px;
      }
    </style>
  </defs>
  <g id="Layer_1-2" data-name="Layer 1">
    <g>
      <path class="cls-3" d="m64.76,69.71c-2.95,4.63-7.5,6.48-12.2,5.94-5.52-.63-8.91-6.19-14.85-11.26-2.23,1.32-2.01,4.27-1.69,7.31-1.78-3.49-2.37-8.3-3.72-12.92-2.37-8.06-6.57-14.78-6.58-16.94-1.49.74-2.39,2.33-3.13,4.17.79-6.91-3.26-13.56-.52-15.9-2.55.39-4.77,1.06-6.63,2.04,2.06-2.1,5.52-3.98,10.83-5-.83-1.56-1.32-2.47-2.9-3,1.14-.76,2.47-1.23,3.94-1.5-1.72,6.96-.94,12.82,2.97,17.37-2.05-1.04-4.2-.88-6-.52,5.54,3.85,4.89,16.56,17.86,20.87-2.77-.15-5.14.8-6.56,2.9,6.26-.13,12.76,7.02,22.59,7.66,2.3.14,4.62-.28,6.59-1.22Z"/>
      <path class="cls-3" d="m70.26,62.93c.62-2.54.46-5.3-.08-7.92-1-4.91-3.02-9.45-1.17-12.13-2.28.05-4.06.98-5.09,3.26.52-4.37-5.02-15.32-2.47-18.91-4.6-.9-7.06,1.7-7.43,7.7-.39-1.9-1.5-3.78-3.47-5.46-2.73-2.33-5.03-5.26-4.36-7.97-3.53,3.21-4.43,6.26-2.34,9.97-1.43-1.34-3.18-2.92-4.96-3.72-3.86-1.72-7.36-1.77-10.06-5.32,1.99-.18,4.18-.05,6.47.24-1.53-.75-5.38-5.91-11.46-7.39,2.81-.15,5.46-.11,6.96,1.37.44-2.01-1.13-3.28-3.23-4.35,2.73.42,5.16.9,6.79,1.57-.64,1.72-.81,3.85-.44,6.45,4.36-4.05,9.5-5,15.26-3.52-2.13,1.96-2.14,4.74-1.37,7.82,6.26-3.86,11.42-1.07,18.09,5.87-1.59-.41-3.04.41-4.4,2.05,13.22,12.43,13.47,21.91,8.76,30.39Z"/>
      <path class="cls-3" d="m50.85,8.1c-2.77-.23-5.26-.24-7.42.03-.61-.97-1.64-1.74-2.94-2.37,2.6-.03,5.05-.18,6.83-.8.65,1.53,1.84,2.53,3.53,3.14Z"/>
      <path class="cls-2" d="m69.27,65.57c.44-.84.77-1.72.99-2.64.62-2.53.45-5.3-.08-7.92-1-4.91-3.02-9.45-1.17-12.13-2.28.05-4.06.98-5.09,3.26.52-4.37-5.02-15.32-2.48-18.91-4.6-.9-7.06,1.7-7.43,7.69-.39-1.89-1.5-3.78-3.47-5.46-2.74-2.33-5.02-5.26-4.35-7.97-3.53,3.21-4.43,6.26-2.35,9.97-1.44-1.34-3.18-2.92-4.95-3.72-4.36-1.94-8.28-1.76-11.08-6.91-2.32,7.73-1.76,14.23,2.48,19.17-2.05-1.04-4.19-.88-6-.52,5.54,3.85,4.89,16.56,17.86,20.86-2.76-.15-5.13.8-6.55,2.9,6.26-.13,12.76,7.01,22.59,7.66,4.51.32,9.1-1.59,11.08-5.33Z"/>
      <path class="cls-2" d="m70.26,62.93c4.7-8.48,4.45-17.96-8.75-30.38,1.36-1.65,2.81-2.46,4.4-2.05-6.67-6.94-11.83-9.73-18.09-5.87-.77-3.08-.76-5.86,1.37-7.82-5.76-1.48-10.9-.53-15.26,3.52-1.47-10.17,5.33-13.2,16.92-12.22-2.98-1.08-4.39-3.37-4.11-7.63,2.69,1.52,13.79,2.1,21.92,8.42,6.56,5.1,10.65,12.71,11.72,23.36,7.83,17.6-6.99,38.4-10.12,30.67Z"/>
      <path class="cls-2" d="m44.16,82.78c-10.36,0-22.89-4.77-29.79-12.32C4.3,59.44,3.17,43.84.58,41.93c3.31-1.36,6.09-.17,8.31,3.68-.6-9.45,4.31-14.16,13.17-15.51-2.73,2.34,1.31,8.99.52,15.9.74-1.84,1.65-3.42,3.13-4.17,0,2.16,4.21,8.89,6.59,16.94,1.35,4.61,1.94,9.43,3.72,12.92-.32-3.03-.54-5.99,1.69-7.31,5.95,5.07,9.33,10.63,14.85,11.26,4.7.54,9.25-1.32,12.2-5.94.76-.35,1.47-.79,2.11-1.3.14-.11.28-.22.41-.34.62-.54,1.15-1.15,1.59-1.84.14-.21.27-.43.38-.65.82.77.83,17.21-25.09,17.21Z"/>
      <path class="cls-2" d="m35.3,22.68c-2.29-.28-4.48-.41-6.47-.24-.36-.47-.7-1-1.03-1.59-.18.61-.34,1.2-.49,1.79-1.47.27-2.8.74-3.94,1.5,1.58.53,2.07,1.44,2.9,3-5.31,1.02-8.77,2.9-10.83,5-4.6,2.42-6.97,6.75-6.54,13.47-.78-1.36-1.62-2.37-2.54-3.07-1.73-2.97-3.71-21.54,8.22-26.43,11.52-4.72,18.52,5.49,20.72,6.57Z"/>
      <path class="cls-2" d="m43.43,8.13c-4.61.57-7.78,2.34-9.06,5.75-1.64-.67-4.06-1.15-6.79-1.57,2.1,1.07,3.68,2.34,3.23,4.35-1.5-1.49-4.16-1.52-6.97-1.37-2.66-.66-5.75-.61-9.26.83-.06.02-.11.05-.17.08C15.19,5.7,33.87-2.16,46.72,1.17c-.04,1.52.17,2.77.61,3.79-1.78.62-4.23.77-6.83.8,1.29.63,2.32,1.4,2.93,2.37Z"/>
      <path class="cls-3" d="m70.63,60.25c-.04.91-.15,1.81-.37,2.68-.23.91-.55,1.8-1,2.64-.64,1.2-1.54,2.21-2.63,3.02-3.05.9-7.14.52-10.22-.54-5.91-2.05-8.87-8.92-18.29-15.16,5.62,2.08,12.26,6.06,19.07,10.36-8.34-5.69-13.65-12.54-15.45-20.73,6.4,5.96,12.57,11.19,18.87,12.33-.48-1.96-1.85-6.17-.78-9.68,1.79,6.6,8.99,9.9,10.8,15.08Z"/>
      <path class="cls-3" d="m44.16,82.78c-9.14,0-19.96-3.71-27.12-9.77-2.7-4.09-4.67-8.07-5.61-11.9,1.67,1.82,3.72,3.49,6.46,4.89-5.69-10.27-4.96-19.07.78-26.7,0,37.03,40.17,49.13,50.6,26.28.8.84.75,17.2-25.11,17.2Z"/>
      <path class="cls-3" d="m70.26,62.93c.14-.25.28-.51.41-.76.31-.2.67-.43.67-.44,3.52-3.52,4.81-8.69,3.55-13.5-1.04-4-2.94-8.37-5.46-13.05,4.01,4.62,7.23,9.27,8.82,13.97,1.25-8.94-4.24-19.83-20.46-33.83,6.91-1.46,12.9,1.75,18.19,8.51-.25-3.51-2.31-8.07-5.14-13.08,5.29,5.03,8.6,12.07,9.54,21.5,7.83,17.61-6.99,38.4-10.12,30.68Z"/>
      <path class="cls-1" d="m25.65,21.7c-9.35-1.42-16.04,4.96-20.6,12.88-.02-1.74.11-3.62.45-5.51,6.56-7.96,13.27-9.22,20.15-7.37Z"/>
      <path class="cls-1" d="m35.3,7.88c-4.12-1.24-9.25-1.42-14.88-1.09,1.36-1.03,2.89-1.97,4.54-2.78,3.24.8,7.68,2.27,10.34,3.87Z"/>
      <path class="cls-1" d="m82.25,48.04c-1.47-8.35-4.65-15.55-9.34-21.33-5.68-6.99-15.63-12.13-23.33-14.21,11.05.42,21.4,6.44,30.8,19.76,2.34,5.26,2.65,10.8,1.87,15.78Z"/>
      <path class="cls-1" d="m46.89,82.72c-.87.04-1.78.06-2.73.06-3.53,0-7.32-.56-11.05-1.59-11.89-8.02-16.77-18.92-17.44-34.14,3.04,20.92,13.08,30.91,31.22,35.67Z"/>
      <path class="cls-1" d="m69.78,64.43c-.41,1.12-1.05,2.19-1.88,3.05-14.93-8.89-24.84-19.46-29.92-31.63,6.84,13.18,17.47,22.68,31.8,28.58Z"/>
      <g>
        <path class="cls-2" d="m70.26,62.93c-.23.91-.55,1.8-1,2.64.8.77.81,17.21-25.1,17.21-10.36,0-22.89-4.77-29.79-12.32C4.3,59.44,3.17,43.84.58,41.93c2.14-.88,4.08-.69,5.77.61-1.72-2.96-3.69-21.36,8.05-26.35C15.19,5.7,33.87-2.16,46.72,1.17c0-.22.02-.45.03-.69,2.69,1.52,13.79,2.1,21.92,8.42,6.56,5.09,10.65,12.71,11.71,23.36,7.83,17.6-6.99,38.39-10.12,30.67Z"/>
        <path class="cls-2" d="m58.19,70.92c4.52.3,9.1-1.61,11.08-5.35.44-.84.77-1.72.99-2.64.62-2.53.45-5.3-.08-7.92"/>
      </g>
    </g>
  </g>
</svg>