<?xml version="1.0" encoding="UTF-8"?>
<svg id="Layer_2" data-name="Layer 2" xmlns="http://www.w3.org/2000/svg" viewBox="0 0 87.41 74">
  <defs>
    <style>
      .cls-1 {
        fill: #dbdbdb;
      }

      .cls-2, .cls-3, .cls-4, .cls-5 {
        fill: none;
        stroke-miterlimit: 10;
      }

      .cls-2, .cls-3, .cls-5 {
        stroke: #303030;
      }

      .cls-2, .cls-4 {
        stroke-width: .43px;
      }

      .cls-6 {
        fill: #303030;
      }

      .cls-3 {
        stroke-width: .64px;
      }

      .cls-4 {
        stroke: #0c0c0c;
      }

      .cls-5 {
        stroke-width: .85px;
      }
    </style>
  </defs>
  <g id="Layer_1-2" data-name="Layer 1">
    <g>
      <path class="cls-4" d="m71.65,57.04c-2.35.63-3.03,1.45-5,1.89,3.76-1.91,3.65-8.8,5.2-10.09-3.37-1.64-8.1-.8-9.8,1.05-.07-7.38-3.37-15.84-12.51-18.45.14,1.99-.67,6.19-2.52,8.52-2.2,2.79-3.28,6.49-2.41,10.15-2.14-3.32-4.62-3.96-8.39-3.03,4.19,3.9,5.47,17.6-2.32,20.11-6.09,1.96-15.69-2.32-18.3-9.55-2.03-5.64-2.52-10.9-.72-16.92,1.64-5.48,4.85-11.94,11.79-18.81,3.56-3.53,9.7-5.64,15.2-5.87,7.88-.31,14.97,1.73,19.38,6.44,8.81,9.41,10.71,25.1,10.82,26.21.06.65.04,5.62-.42,8.35Z"/>
      <path class="cls-3" d="m79.42,63.79c-.12-.13-.26-.24-.39-.35-1.33-1.03-3.56-.94-5.47-.35,1.02-.68,2.24-1.44,3.11-2.57.76-.98,1.2-2.82,2.24-3.99-2.24.44-4.16-.16-6.22.25-.38.08-.72.16-1.04.25.46-2.73.48-7.69.43-8.36-.11-1.11-2.01-16.8-10.82-26.21-3.71-3.96-9.3-6.03-15.67-6.41.57-3.94,2.27-7.59,8-8.17,7.6-.76,25.35,8.64,31.37,25.39,5.74,16.07-1.46,27.82-5.54,30.52Z"/>
      <path class="cls-3" d="m14.88,40.7c-1.8,6.03-1.31,11.28.72,16.92-6,2.24-11.86-9.33-12.08-19.75-.12-5.59.26-10.14,1.67-13.89C10.09,10.85,22.51,7.9,26.13,7.56c5.7-.55,10.16,3.37,12.01,6.2.09.89.16,1.78.24,2.65-4.45.77-8.89,2.68-11.71,5.47-6.94,6.88-10.15,13.34-11.79,18.82Z"/>
      <path class="cls-3" d="m38.15,13.75c-1.86-2.82-6.32-6.74-12.01-6.19-1.68.16-5.26.88-9.1,2.92,3.74-5.75,13.37-9.44,20.31-4.2.3,2.53.56,5.03.8,7.47Z"/>
      <path class="cls-3" d="m21.37,68.45c-4.22-.53-13.57-2.51-18.28-11.41-6-11.36-1.05-32.51,3.54-36.25-.54.99-1.02,2.06-1.44,3.2-1.4,3.75-1.78,8.3-1.67,13.89.22,10.41,6.08,21.99,12.08,19.75.64,4.2,2.68,7.99,5.77,10.82Z"/>
      <path class="cls-3" d="m65.47,11.3c-4.62-2.52-8.99-3.7-11.88-3.41-5.73.58-7.43,4.23-8,8.17-.53-3.74-1.07-7.47-1.62-11.15,7.27-4.82,14.66-3.3,21.5,6.39Z"/>
      <path class="cls-1" d="m38.39,16.42c-.24.04-.47.08-.71.13-5.51-2.43-12.52.5-19.61,7.95,2.59-8.52,6.19-15.65,11.09-16.81,4.23.74,7.48,3.77,8.99,6.08.08.89.16,1.77.24,2.65Z"/>
      <path class="cls-1" d="m69.5,24.49c-11.65-10.71-16.1-11.61-21.84-8.24-.68-.09-1.37-.15-2.07-.2.57-3.94,2.27-7.59,8-8.17.27-.03.58-.04.88-.04,6.06,2.26,15.01,7.27,15.03,16.65Z"/>
      <path class="cls-3" d="m65.47,11.3c-4.62-2.52-8.99-3.7-11.88-3.41-5.73.58-7.43,4.23-8,8.17"/>
      <path class="cls-3" d="m5.19,23.99C10.09,10.86,22.51,7.91,26.13,7.57c5.7-.55,10.16,3.37,12.01,6.2.09.89.16,1.78.24,2.65"/>
      <path class="cls-1" d="m68.89,48.02c-2.75-.3-5.6.52-6.84,1.86-.07-7.38-3.37-15.84-12.51-18.45.14,1.99-.67,6.19-2.52,8.52-1.7,2.15-2.73,4.85-2.71,7.65-1.89-5.38-4.28-9-6.93-11.82-2.87,6.02-3.56,15.59-3.62,26.19-.9-7.59-.5-16.72.15-27.71-2.89,10.98-5.64,21.77-4.92,27.85-1.69-1.95-3.08-5.49-4.34-9.7-.49,5.13-.43,9.97.75,14.26-1.52-.55-3.01-1.32-4.36-2.27-1.3-6.18-1.75-11.89-1.02-16.91-1.26,2.52-3.44,3.51-6.02,3.8-.47-3.42-.23-6.86.88-10.6,1.64-5.48,4.84-11.94,11.79-18.81,3.56-3.53,9.7-5.64,15.2-5.87,7.88-.31,14.97,1.73,19.38,6.44,3.66,3.9,6.12,8.9,7.77,13.48.83,4.36,1.12,9.08-.13,12.09Z"/>
      <path class="cls-3" d="m14,51.3c-.47-3.42-.23-6.86.88-10.6,1.64-5.48,4.84-11.94,11.79-18.81,3.56-3.53,9.7-5.64,15.2-5.87,7.88-.31,14.97,1.73,19.38,6.44,3.66,3.9,6.12,8.9,7.77,13.48"/>
      <g>
        <path class="cls-2" d="m21.04,64.41c-2.44-1.72-4.44-4.04-5.43-6.78-.77-2.14-1.32-4.23-1.61-6.32,2.58-.29,4.76-1.28,6.02-3.8-.73,5-.28,10.72,1.02,16.9Z"/>
        <path class="cls-2" d="m44.31,47.6c.01.83.11,1.66.31,2.5-2.14-3.32-4.62-3.96-8.39-3.03,4.19,3.9,5.47,17.6-2.32,20.11-2.49.8-5.57.56-8.51-.5-1.18-4.29-1.24-9.14-.75-14.26,1.27,4.21,2.65,7.75,4.34,9.7-.72-6.09,2.03-16.87,4.92-27.85-.65,10.99-1.05,20.12-.15,27.71.06-10.6.75-20.17,3.62-26.19,2.65,2.81,5.04,6.43,6.93,11.81Z"/>
        <path class="cls-2" d="m71.65,57.04c-2.35.63-3.03,1.45-5,1.89,3.76-1.91,3.65-8.8,5.2-10.09-.92-.45-1.93-.71-2.96-.82,1.25-3.01.96-7.73.13-12.07,2.31,6.44,2.98,12.08,3.05,12.72.06.67.04,5.64-.42,8.37Z"/>
      </g>
      <path class="cls-5" d="m81.95,66.96c-4.42-.72-7.51,2.47-11.29,2.97-4.97.65-9.41-2.39-13.6-1.96-7.46.77-12.37,4.85-19.75,5.5-11.73,1.04-20.26-6.37-21.7-15.84,2.61,7.23,12.21,11.51,18.3,9.55,7.79-2.51,6.51-16.21,2.32-20.11,3.77-.93,6.25-.28,8.39,3.03-.88-3.66.2-7.36,2.41-10.15,1.84-2.33,2.66-6.53,2.52-8.52,9.15,2.61,12.44,11.07,12.51,18.45,1.7-1.84,6.43-2.69,9.8-1.05-1.56,1.29-1.45,8.18-5.2,10.09,2.24-.5,2.81-1.48,6.03-2.13,2.06-.42,3.98.19,6.22-.25-1.05,1.16-1.48,3.01-2.24,3.99-.88,1.13-2.09,1.89-3.11,2.57,1.91-.59,4.14-.68,5.47.35,1.18.91,1.69,2.21,2.92,3.51Z"/>
      <path class="cls-1" d="m71.96,65.15c-.74,1.8-1.52,3.53-2.51,4.86-4.49.09-8.54-2.44-12.39-2.04-7.46.77-12.37,4.85-19.75,5.5-5.58.49-10.45-.93-14.16-3.58,16.61,3.72,28.13-2.22,33.69-19.52,2.84,4.12,3.2,8.47,2.34,15.46,4.77.61,9.18.61,12.78-.68Z"/>
      <path class="cls-6" d="m52.3,68.93c-.97.29-1.9.61-2.83.96,4.29-5.39,8.73-13.24,5.09-27.39,3.95,8.16,2.86,18.75-2.26,26.43Z"/>
      <path class="cls-3" d="m45.59,16.06c-.53-3.74-1.07-7.47-1.62-11.15l-.67-4.56-6.51.76c.41,3.74,1.37,12.61,1.6,15.31"/>
    </g>
  </g>
</svg>