<?xml version="1.0" encoding="UTF-8"?>
<svg id="Layer_2" data-name="Layer 2" xmlns="http://www.w3.org/2000/svg" viewBox="0 0 37.26 65.27">
  <defs>
    <style>
      .cls-1 {
        fill: #303030;
      }

      .cls-2 {
        stroke-width: .8px;
      }

      .cls-2, .cls-3 {
        fill: none;
        stroke: #303030;
        stroke-miterlimit: 10;
      }

      .cls-3 {
        stroke-width: 1.07px;
      }
    </style>
  </defs>
  <g id="Layer_1-2" data-name="Layer 1">
    <g>
      <path class="cls-2" d="m23.51.67c6.62,1.77,6.45,9.14,6.03,12.36-1.69.05-3.2.34-4.54.84.43-3.28.6-7.9-1.61-8.35-2.76-.57-4.14,9.35-4.58,13.44-.18.29-.35.59-.51.89-1.26-3.48-4.17-6.01-6.44-7.55h-.01c1.06-4.17,4.3-13.59,11.66-11.63Z"/>
      <path class="cls-1" d="m23.39,5.52c2.21.45,2.04,5.07,1.61,8.35-2.73.98-4.79,2.82-6.19,5.08.45-4.08,1.83-14,4.58-13.43Z"/>
      <path class="cls-2" d="m8.76,10.54C12.79,23.62.73,27.86.41,42.42c-.24,11,8.75,22.16,16.59,22.44,8.99.32,18.74-8.12,19.8-19.96,1.08-12.3-12.08-20.07-5.47-31.82-6.56-.48-10.8,2.53-13.03,6.76-2.22-6.13-9.54-9.3-9.54-9.3Z"/>
      <path class="cls-2" d="m36.86,43.69c0,.41-.02.8-.06,1.21-1.06,11.83-10.81,20.27-19.8,19.96-4.38-.16-9.11-3.7-12.41-8.72,12.06-3.38,23.21-7.29,32.27-12.45Z"/>
      <path class="cls-2" d="m34.43,33.91c1.38,3.03,2.49,6.23,2.43,9.79-9.06,5.15-20.21,9.07-32.27,12.45C1.99,52.17.3,47.29.41,42.43c.01-.22.01-.43.03-.64,11.81-.67,23.33-3.14,33.99-7.88Z"/>
      <path class="cls-3" d="m.78,38.55c5.16-.32,10.27-.99,15.27-2.05,5.85-1.25,11.56-3.01,17.06-5.37"/>
      <path class="cls-2" d="m15.71,39.65c2.19-.65,5.43,4.5,2.64,5.59-1.85.72-3.28-1.59-2.96-4.39.24-2.14.71-4.86,1.53-8.36.43-1.76.95-3.72,1.57-5.9.73-2.54.54-4.8-.19-6.75-2.21-6.13-9.54-9.31-9.54-9.31C12.79,23.61.73,27.85.41,42.41c-.24,11,8.75,22.16,16.59,22.44,8.99.32,18.74-8.12,19.8-19.96,1.08-12.3-12.08-20.07-5.47-31.82-6.56-.48-10.8,2.53-13.03,6.76"/>
    </g>
  </g>
</svg>