<?xml version="1.0" encoding="UTF-8"?>
<svg id="Layer_2" data-name="Layer 2" xmlns="http://www.w3.org/2000/svg" viewBox="0 0 58.65 82.1">
  <defs>
    <style>
      .cls-1 {
        fill: #303030;
      }

      .cls-2 {
        stroke-width: 1.46px;
      }

      .cls-2, .cls-3, .cls-4 {
        stroke: #303030;
      }

      .cls-2, .cls-3, .cls-4, .cls-5 {
        stroke-miterlimit: 10;
      }

      .cls-2, .cls-3, .cls-5 {
        fill: none;
      }

      .cls-3 {
        stroke-width: .8px;
      }

      .cls-4 {
        fill: #dbdbdb;
        stroke-width: .5px;
      }

      .cls-5 {
        stroke: #0c0c0c;
        stroke-width: .73px;
      }
    </style>
  </defs>
  <g id="Layer_1-2" data-name="Layer 1">
    <g>
      <path class="cls-3" d="m17.26,48.74c-1.24,4.62-2.46,14.9-1.84,19.1.74,5,5.73,14.48,17.82,13.81,10.57-.59,14.48-9.05,15.25-15.14.7-5.48-3.63-17.26-5.88-21.8"/>
      <path class="cls-3" d="m29.29,33.6c-6.33-.37-8.01-12.85-.28-12.94,8.29-.09,6.61,13.32.28,12.94Z"/>
      <path class="cls-1" d="m29.27,29.75c-2.56-.15-3.24-5.2-.11-5.23,3.35-.04,2.67,5.38.11,5.23Z"/>
      <path class="cls-5" d="m39.9,21.78h0c-.22.1-.44.17-.66.26.23-.08.44-.17.66-.26Z"/>
      <g>
        <path class="cls-2" d="m28.25,8.75h0c9.21-.1,14.47,4.71,16.52,10.82"/>
        <path class="cls-2" d="m44.86,19.85c2.54,7.95-.31,17.99-6.96,22.35"/>
        <path class="cls-2" d="m23.21,42.72c-6.15-2.96-9.54-9.51-9.51-16.18"/>
        <path class="cls-2" d="m13.7,26.54c.01-2.77.61-5.54,1.85-8.11,1.72-3.57,3.98-7.26,8.15-8.85"/>
      </g>
      <g>
        <path class="cls-4" d="m39.9,21.78c-1.85.74-4.09,1.37-5.93,1.81-.82-1.72-2.42-2.96-4.96-2.93-.2,0-.41,0-.6.04-.32-1.2-.87-3.63-.9-6.44.31-.03.64-.04.98-.04,6.31-.08,9.96,3.26,11.41,7.56Z"/>
        <path class="cls-4" d="m28.24,20.72c-3.18.41-4.49,3.13-4.37,5.98-2.01.29-3.78.43-6.46.29-.47-5.83,2.22-11.58,9.01-12.61h0c1.02,2.55,1.56,5.04,1.81,6.34Z"/>
        <path class="cls-5" d="m23.86,26.7h0c-.13.04-.29.05-.45.07.16-.03.32-.06.45-.07Z"/>
        <path class="cls-4" d="m34.9,38.71c-1.57-2.09-2.9-4.21-3.65-5.47,3.02-1.41,4.27-6.4,2.71-9.65,1.85-.43,4.07-1.09,5.93-1.79,2,5.9-.1,13.62-4.99,16.91Z"/>
        <path class="cls-4" d="m28.95,33.57c-.58,1.18-1.79,3.41-3.44,5.93-4.77-2-7.71-7.29-8.11-12.51,2.68.14,4.45-.02,6.46-.28.14,3.17,2.02,6.46,5.09,6.86Z"/>
        <path class="cls-5" d="m23.86,26.71c-.13.03-.29.04-.45.06.16-.03.32-.06.45-.07h0Z"/>
      </g>
      <path class="cls-3" d="m48.49,66.52c-.77,6.08-4.68,14.55-15.25,15.14-12.08.67-17.07-8.81-17.82-13.81-.63-4.2.6-14.48,1.84-19.1h0c1.15-.84,2.25-1.83,3.28-2.91-.98,4.7-2.71,16.92-1.95,21.37,1.02,5.96,5.03,11.99,13.22,11.48,21.22-1.33,13.56-23.32,7.96-34.97.51.32.99.57,1.47.71.41.12.86.22,1.37.29,2.25,4.53,6.58,16.32,5.88,21.8Z"/>
      <path class="cls-3" d="m33.4,36.61c5.27,13.88,19.06,36.22-1.04,38.65-18.69-1.24-8.09-21.97-8.78-33.03"/>
      <g>
        <path class="cls-3" d="m46.42,18.53c-4.14,2.84-9.68,4.4-12.45,5.06-.82-1.72-2.42-2.96-4.96-2.93-.2,0-.41,0-.6.04-.74-2.73-2.67-11.85,3.12-17.35,2.42-2.32,12-5.67,16.84.85,4.85,6.5-.36,13.22-1.95,14.33Z"/>
        <path class="cls-3" d="m28.24,20.72c-3.18.41-4.49,3.15-4.37,5.99-2.58.38-7.74.77-13.09-.89C7.67,24.86-.07,17.68,5.33,9.37c5.39-8.31,14-3.43,16.43-1.68,4.29,3.1,6,10.43,6.48,13.03Z"/>
        <path class="cls-3" d="m58.17,35.62c-.79,8.5-12.35,10.19-16.93,8.81-3.7-1.11-8.33-8.38-9.99-11.18,3.02-1.41,4.27-6.4,2.71-9.65,2.11-.5,5.83-1.53,9.33-3.25,8.25-3.36,15.83,5.15,14.88,15.27Z"/>
        <path class="cls-3" d="m28.95,33.57c-1.52,3.02-7.1,13.22-14.2,16.7-2.38,1.17-7.36,1.46-9.19-.36-1.84-1.84-5.07-5.72-5.15-8.57C.03,28.87,12.51,26.31,12.51,26.31c4.71,1.11,9.05.76,11.34.41h0c.15,3.16,2.03,6.45,5.1,6.85Z"/>
      </g>
    </g>
  </g>
</svg>