<?xml version="1.0" encoding="UTF-8"?>
<svg id="Layer_2" data-name="Layer 2" xmlns="http://www.w3.org/2000/svg" viewBox="0 0 65.6 84.76">
  <defs>
    <style>
      .cls-1 {
        fill: #dbdbdb;
        stroke-width: .5px;
      }

      .cls-1, .cls-2 {
        stroke: #303030;
        stroke-miterlimit: 10;
      }

      .cls-2 {
        fill: none;
        stroke-width: .75px;
      }
    </style>
  </defs>
  <g id="Layer_1-2" data-name="Layer 1">
    <g>
      <path class="cls-2" d="m32.87,84.39c-6.65-.07-9.56-5.53-9.98-9.17-1.39-12,8.62-23-1.36-33.53,6.39-2.45,8.67.84,9.46,6.19.54-6.17-1.47-11.44,6.09-15.16-.63,5.36,2.54,10.04,2.42,13.27,2.11-3.84,4.87-5.91,8.84-4.7-9.08,10.66-.54,24.26-5.1,36.35-.76,2-4.16,6.82-10.37,6.75Z"/>
      <path class="cls-2" d="m61.78,43.51c-3.46-8.4-10.65-7.39-15.56-2.57-2.88-.02-5.02,1.94-6.73,5.05.12-3.23-3.05-7.9-2.42-13.27-7.56,3.72-5.55,9-6.09,15.17-.8-5.34-3.07-8.64-9.46-6.2-.3-.24-.62-.47-.93-.68-3.14-2.13-6.73-2.93-9.61-1.47-1.96.97-3.59,2.99-4.54,6.33-3.81-3.56-3.89-9.66,2.88-12.26-4.73,0-7.67-3.46-8.85-10.33,2.55.74,6.74-.81,10.44-.85-1.96-3.31-.81-6.77-1.71-10.12,3.73-.29,6.75,1.17,9.43,3.81-2.67-6.53-.91-11.49,4.5-14.9,1.6,4.66,6.07,6.57,7.82,11.98.64-9.22,4.21-14.36,14.39-12.41-4.31,3.37-5.98,6.91-6.22,11.25,1.71-4.41,5.53-7.23,11.66-6.93-5.74,4.81-3.86,8.57-5.9,15.21,3.19-4.6,7.42-7.36,6.62-12.13,5.68.36,6.47,6.49,3.6,11.86,3.83-.65,7.46,1.45,10.09.35-.41,6.96-2.94,10.73-7.64,11.26,7.03,1.83,7.62,7.89,4.23,11.85Z"/>
      <path class="cls-1" d="m32.87,84.4c-4.55-.05-7.35-2.62-8.79-5.41.03-7.51,7.71-17.07,9.91-25.44,3.1,9.87,10.27,18.43,7.83,26.49-1.67,2.09-4.63,4.41-8.95,4.36Z"/>
      <path class="cls-1" d="m21.53,41.69c-.5-.42-1.03-.77-1.6-1.06-1.56-4.47-3.75-8.55-6.69-12.19,3.89-.29,7.36,1.07,10.35,4.31-1.68-9.29,2.23-13.55,11.18-13.31,3.9.1,6.96,3.27,6.97,7.09,0,.22,0,.45-.03.68,1.89-2.18,3.99-3.65,6.37-4.11-1.28,2.16-1.55,4.41-.49,6.77,2.73-.56,5.37-.12,7.92,1.64-2.7,2.23-4.65,4.43-5.18,6.57-1.45.63-2.85,1.61-4.09,2.84-2.88-.02-5.03,1.93-6.73,5.05.11-3.23-3.05-7.9-2.42-13.26-7.56,3.72-5.55,8.99-6.08,15.17-.82-5.34-3.09-8.63-9.48-6.19Z"/>
    </g>
  </g>
</svg>