<?xml version="1.0" encoding="UTF-8"?>
<svg id="Layer_2" data-name="Layer 2" xmlns="http://www.w3.org/2000/svg" viewBox="0 0 197.62 159.22">
  <defs>
    <style>
      .cls-1 {
        fill: #303030;
      }

      .cls-2 {
        stroke-linecap: round;
        stroke-linejoin: round;
        stroke-width: .75px;
      }

      .cls-2, .cls-3 {
        fill: none;
      }

      .cls-2, .cls-3, .cls-4 {
        stroke: #303030;
      }

      .cls-3 {
        stroke-width: .3px;
      }

      .cls-3, .cls-4 {
        stroke-miterlimit: 10;
      }

      .cls-4 {
        fill: #dbdbdb;
        stroke-width: .2px;
      }
    </style>
  </defs>
  <g id="Layer_1-2" data-name="Layer 1">
    <g>
      <g>
        <path class="cls-2" d="m109.02,42.06h0c-.85,2.22-1.05,5.36-1.96,6.93-.56-1.04-1.12-2.08-1.68-3.12.7-1.7,1.16-3.59-.64-4.97-.81-.62-1.62-.72-2.44-.52-2.74-4.62-5.78-9.24-9.79-12.56-5.55-4.6-11.64-9.97-17.5-11.85,0,0,5.22-1.41,11.88,2.42,2.96,1.7,7.55,3.79,11.47,7.9,3.96,4.12,7.69,9.54,10.66,15.77Z"/>
        <path class="cls-2" d="m86.9,18.39c-5.29-4.08-11.79-6.83-18.48-8.48-1.19-1.6-4.94-3.46-7.44-3.97-4.04-.81-6.45.61-7.88.34-1.42-.27-2.72-1.67-3.69-2.38s-3.32-.65-4.1-3.52c-.78.34-1.34,1.74-1.31,2.93.03,1.32.99,2.25.15,2.86-1.08.79-2.9-5.99-13.87-3.51-9.04,2.04-9.8,8.02-18.13,7.05-.12,3.01,1.68,4.85,3.47,5.41,1.92.6,3.95-.13,3.95,1.6s-5.45-.71-10.55,1.97S3.68,30.37.38,32.17c1.36,2.83,5.79,0,6.81,1.02s-1.27,3.32-1.54,4.65c-.27,1.33-.13,5.09-.03,7.06.38,6.98,2.58,14.69,2.58,14.69.91-3.07,3.71-6.83,5.11-8.15,4.36-4.1.64-9.47,3.41-10.41,3.17-1.07,2.22,5.88,3.45,6.1-.08-3.59,10.52-6.31,11.05-10.2.26-1.91-.72-4.77-.4-6.78.33-2.08,2.33-3.47,3.52-2.35,1.51,1.41-1.4,2.55-1.56,4.57-.15,2.02,2.12,4.47,1.97,6.26,2.88-1.31,3.65-3.1,4.5-3.83.85-.72,5.74-1.69,6.88-2.72s1.54-2.34,1.98-2.75c.43-.4,4.41-1.96,4.68-4.53.27-2.57,1.81-9.08,4.36-7.57,1.24.73-1.35,4.89.93,5.17.83.1,1.62-1.12,3.01-1.84,1.54-.79,3.8-.42,5.25-1.48,2.01-1.46,3.35-2.96,8.68-3.13.01.03,5.23-1.38,11.89,2.44Z"/>
        <path class="cls-4" d="m80.85,14.55c-8.77-1.31-17.58-1.6-24.72-.75-9.41,1.13-16.04,4.77-17.43,17.57-.55-7.44,1.32-13.01,5.72-16.65-19.23,4.87-23.62,15.18-22.81,27.4-1.02-7.12-.57-13.13,2.08-17.5-9.79,5.82-15.06,13.68-17.59,25.02-.22-1.55-.4-3.16-.49-4.74-.06-1.15-.14-2.91-.13-4.43,1.65-5.42,5.8-10.91,10.34-14.43-4.34,1.84-8.08,3-11.23,3.47,6.54-2.18,10.76-5.38,15.39-8.1,7.34-4.33,15.5-6.9,22.67-9.19-5.04.27-8.38-2.45-18.96-1.3,6.91-1.84,14.61-.66,20.63-.1,4.63.43,14.56-1.83,23.88-1.18.08.09.15.18.22.26,4.31,1.08,8.55,2.6,12.43,4.65Z"/>
        <path class="cls-2" d="m8.92,57.73c-.16,2.59,1.34,5.38,1.21,7.79-.22,4.46.69,5.92,1.38,6.46.35.27,2.06.71,3.84,2.24,1.64,1.4,2.66,3.53,3.85,3.61,1.53.1,1.16-4.36,2.82-4.31,1.3.04.88,3.78,2.93,5.09,1.99,1.27,4.6-.61,5.8-.76,1.16-.15,3.2-.05,4-1.12.57-.76-.34-1.55.05-2.06.42-.54,2.71.87,3.49-2.04.73-2.72-1.28-5.34-2.3-6.79-2.48,1.29-9.93.48-9.55-2.25.34-2.42,4.44-.18,5.05-3.06.53-2.5-3.8-3.28-5.05-3.39-1.85-.15-4.29-2.08-5.14-2.21-2.61-.41-6.03,2.9-8.16-3.32-1.14,1.13-3.08,3.7-4.22,6.12Z"/>
        <path class="cls-2" d="m37.57,74.01c.29-.29.55-.72.72-1.38.73-2.72-1.28-5.34-2.3-6.79,0,0-2.35-2.73-2.12-3.96.23-1.22,2.14-.93,2.27-2.12.14-1.19-1.38-2.67-1.38-4.64,0-2.27,1.57-3.63,2.64-5.29.84,1.4,4.05,1.51,5.72,3.37,1.44,1.6,1.06,3.61,1.9,4.15,1.07.68,1.47-2.28,2.93-1.36.6.37,1.34,1.79.75,3.7-.6,1.91-2.7,4.1-6.13,6.97-1.25,1.05-1.16,2.42-1.64,3.32-.46.91-1.9,3-3.36,4.03Z"/>
        <path class="cls-4" d="m42.61,66.62c.87-3.19-.53-7.58-3.29-12.66,3.02,2.98,4.52,6.83,4.74,11.42-.46.4-.94.81-1.45,1.24Z"/>
        <path class="cls-4" d="m16.71,67.45c1.62,2.11,1.42,4.27.27,6.47,1.17-5.08-4.76-9.04-7.9-16.52.4-.8.88-1.62,1.38-2.38,1.04,6.68,10.68,9.3,15.29,6.31-3.03,3.12-6.56,3.26-10.42,1.36,5.52,6.95,12.7,9.36,22.37,5.9.18.38.34.77.47,1.18-7.03,3.9-14.2,2.87-21.46-2.32Z"/>
        <g>
          <path class="cls-2" d="m86.9,18.39c-5.29-4.08-11.79-6.83-18.48-8.48-1.19-1.6-4.94-3.46-7.44-3.97"/>
          <path class="cls-2" d="m5.64,37.85c-.27,1.33-.13,5.09-.03,7.06.38,6.98,2.58,14.69,2.58,14.69.91-3.07,3.71-6.83,5.11-8.15"/>
          <path class="cls-2" d="m48.71,59.68c-.6,1.91-2.7,4.1-6.13,6.97-1.25,1.05-1.16,2.42-1.64,3.32-.48.92-1.91,3.01-3.38,4.04.29-.29.55-.72.72-1.38.73-2.72-1.28-5.34-2.3-6.79"/>
        </g>
      </g>
      <g>
        <path class="cls-2" d="m80.19,155.46h0c.8,1,1.68,2.17,2.7,3.39.09-3.66-4.6-12.73-5.68-19.49-1.02-6.38-.31-18.74-1.25-19.92,3.57-.84,3.8,5.53,5.03,5.46,1.29-.07.62-5.3,2.11-10.14,1.53-5,4.65-6.81,4.63-8.24-.04-2.76-4.9-2.35-4.09-4.87.49-1.51,2.42-1.21,4.19-.08,1.3.83,2.36,2.43,3.47,2.5,2.62.17,4.16-2.31,5.31-3.81,1-1.3.98-3.04,3.71-5.17,2.35-1.84,5.91-3,5.72-5.99-.24-3.78-5.82-.27-6.36-3.03-.38-1.9,2.98-2.22,6.6-.48,2.62,1.26,3.61,3.51,7.18,3.47,4.16-.04,9.86-9.15,10.82-10.28.97-1.13,3.14-1.26,4.65-2.38,1.14-.86,2.09-2.37,2.87-2.85.12-.07.13-.23.02-.31-.62-.47-1.48-1.19-2-2.23-.6-1.22-.2-2.58-1.48-3.29-1.5-.84-4.39.54-4.36-.2.03-1.19,5.68-3.93,6.57-7.18.95-3.47-1.33-6.2-1.06-8.1.51-2.76,1.94-2.35,2.49-3.06.54-.72-1.36-3.17,2.65-5.92,2.78-1.91,5.14-.48,6.5-.34s3.9-1.68,6.56-.9c3.16.93,2.78,4.26,3.76,4.67.97.41,4.08-2.3,14.91,2.45-3.09-1.35-5.59-3.8-8.66-5.23-3.54-1.66-6.48-1.15-8.96-2.32-1.98-.94-2.82-3.8-5.82-4.75-3-.96-6.27,3.29-8.14,2.35-2.12-1.06-1.23-3.09-1.43-4.6-2.3-.05-4.44-.6-6.61-.03-2.92.77-6.74,4.2-8.79,4.64-2.04.44-4.82-.5-7.22.65-3.4,1.63-1.89,11.36-5.79,9.97-2.59-.92,3.58-6.02-.2-8.92-2.7-2.07-5.55,1.7-7.8,2.89s-5.41,1.22-6.98,2.48c-1.56,1.26-1.77,3.34-2.79,4.66-1.02,1.33-2.97,2.12-3.82,4.05-.98,2.25,2.59,10.72-.68,11.92-2,.73-1.46-6.24-5.45-7.15-2.24-.51-4.63,4.36-4.9,5.11s-.1,3.61-.72,5.14c-.84,2.1-2.86,3.61-3.03,4.6-.17.99,1.5,3.64,1.56,7.15.07,3.51-.85,4.84-.71,7.46.14,2.62,6.03,8.61,3.71,11.3-1.06,1.22-1.7-3.39-3.47-2.96-3.13.75-1.33,7.9-1.22,10.69.1,2.79-.13,8.38.03,11.06.17,2.52,9.03,26.06,11.72,36.16h0Z"/>
        <path class="cls-2" d="m124,67.51s-.02,0-.02-.02c.1-1.2,5.68-3.93,6.57-7.16.95-3.47-1.33-6.2-1.06-8.1.51-2.76,1.94-2.35,2.49-3.06.54-.72-1.36-3.17,2.65-5.92,2.78-1.91,5.14-.48,6.5-.34s3.9-1.68,6.56-.9c3.16.93,2.78,4.26,3.76,4.67.97.41,4.08-2.3,14.91,2.45h0c-18.78-5.2-31.44,15.15-42.36,18.38Z"/>
        <path class="cls-2" d="m166.36,49.12c-3.92-1.09-7.58-1.06-11-.31h0c3.25.5,6.55,3.31,6.87,6.53.38,3.79-2.46,7.06-2.45,9.14.02,2.33,1.15,3.19,1.25,4.08.09.77-.3,2.34-.2,3.27.3,2.74,2.68,3.59,2.75,5.74.07,2.14.94,2.68,2.11,2.93,2.38.51,2.81-5.24,5.31-4.19,1.06.44,1.26,1.98.82,3.2-.44,1.23-1.59,2.05-1.63,3.3-.04,1.08.52,2.76-.01,4.62-.59,2.06-.68,4.38.59,4.88,2.78,1.09,3.83-3.88,5.46-3.2,1,.42-.08,3.22-.76,6.88-1,5.28-1.48,11.31-4.6,14.6,7.7-2.58,12.18-13.91,11.9-19.72,0-.04.05-.06.08-.03.3.37,1.33,1.47,2.46.71,1.35-.91,1.17-3.5,1.48-4.78.34-1.4,2.24-1.94,2.45-3.92.34-3.16-4.63-5.07-2.82-6.84,1.8-1.77,4.53,4.25,6.64,3.71s5.82-5.71,3.37-10.79c-.95-1.97-.61-3.2-1.46-4.39-.56-.79-2.48-1.46-3.95-2.21-1.46-.75-1.63-3.71-3.54-3.91-5.6-.6-19.25-8.51-21.12-9.3Z"/>
        <path class="cls-4" d="m182.4,80.75c.31,6.75-1.04,13.27-3.58,18.36,1.64-4.68,3.27-11.37,1.74-20.51-1.47-8.76-6.38-17.62-11.23-24.05,3.26,7.81,2.48,12.29-1.8,16.24,4.52-7.84,1.3-16.39-5.58-22.43,1.44.11,2.91.36,4.42.78.5.21,1.84.93,3.64,1.88,3.75,6.65,10.78,13.42,20.8,17.05-5.29-.75-10.49-3.44-14.94-7.23,4.2,6.02,6.22,13.08,6.53,19.91Z"/>
        <g>
          <path class="cls-2" d="m173.99,103.86c-.64,2.66-1.54,5.07-3.14,6.76-.64,1.33-4.8,6.87-6,6.92-1.05.05-.59-.94-1.66-.76-1.05.17-2.82,5.36-6.32,7.09-2.3-.71-4.66-1.23-7.06-1.51-2.22-2.45-1.24-6.23,2.19-8.31-18.32,2.17-31.79-12.19-35.3-26.4,1.46-1.12,2.93-2.75,4.18-4.32.23,1.68,2.44,8.06,6,13.02,3.58,4.99,8.82,8.34,10.15,7.12,1.12-1.03-1.55-3.08-.62-4.26.65-.82,2.32-.21,4.26-.41,2.04-.2,3.3-.88,4.26-.82,1.04.07,1.51,1.12,2.21,1.7.85.71,1.65,1.31,2.28,2.28,1.04,1.6,1.64,3.29,3.03,3.68,1.61.45,1.69-2.94,2.12-3.68.36-.64,2.01-2.01,3.27-2.58.31-.14.66.02.8.33.51,1.11,1.47,2.22,2.08,3.31,1.2,2.17,1.7,4.15,3.81,4.52,2.53.45,6.5-1.52,9.46-3.68Z"/>
          <path class="cls-4" d="m173.15,106.7c-.46,1.24-1.04,2.36-1.78,3.31-6.6,4.74-13.48,2.22-19.21,11.74.04-5.04,3.45-7.61,8.48-8.98-3.56.75-6.96,1.02-10.19.83-1.04-.55-1.61-1.53-1.94-2.7,7.57.98,15.8-.5,24.64-4.2Z"/>
          <path class="cls-4" d="m137.76,110.01c-7.62-4.08-14.06-11.56-19.4-22.17,5.55,9.44,11.91,15.88,19.01,19.56.44.73.72,1.99.39,2.61Z"/>
          <path class="cls-2" d="m152.01,114.04c-7.36.87-13.93-.92-19.39-4.3,1.98.96,4.41,1.42,5.1.35.44-.7,0-2.34-.57-2.99-.57-.65-.56-2.28.56-3.12,1.16-.86,3.93-.31,4.98-.41,2.03-.2,2.5-1.61,3.82-.87,2.75,1.53-.35,10.77,5.5,11.34Z"/>
          <path class="cls-4" d="m146.12,114.17c-.47-.03-.93-.08-1.39-.14-1.16-1.7-1.85-3.94-2.41-6.35,1.26,2.71,2.53,4.95,3.8,6.49Z"/>
          <g>
            <path class="cls-2" d="m152.01,114.04c-7.36.87-13.93-.92-19.39-4.3,1.98.96,4.41,1.42,5.1.35.44-.7,0-2.34-.57-2.99-.57-.65-.56-2.28.56-3.12,1.16-.86,3.93-.31,4.98-.41,2.03-.2,2.5-1.61,3.82-.87,2.75,1.53-.35,10.77,5.5,11.34Z"/>
            <path class="cls-2" d="m173.99,103.86c-.64,2.66-1.54,5.07-3.14,6.76"/>
          </g>
        </g>
        <path class="cls-4" d="m153.45,49.33c-12.04,3.64-21.24,15.75-29.45,18.18-.01,0-.02,0-.02,0,.1-1.19,5.54-3.86,6.53-7.04,3.31-2.86,6.56-5.86,7.74-14.32.58,4.1-.3,7.52-2.32,10.42,7.43-5.57,13.12-7.68,17.52-7.23Z"/>
        <path class="cls-2" d="m187.47,58.43c-5.59-.6-19.24-8.51-21.11-9.3-18.78-5.2-31.44,15.14-42.36,18.38-.01,0-.02,0-.02-.02.1-1.2,5.68-3.93,6.57-7.16.95-3.47-1.33-6.2-1.06-8.1"/>
        <g>
          <path class="cls-4" d="m100.93,66.57c4.22-.58,6.34-.14,7.56.75-5.56-.94-10.59,2.01-15.18,8.1,3.03-1.67,6.34-3.11,7.7-6.2.2,1.26-.55,2.5-1.77,3.74.21-.12,6.44-3.81,12.16-4.55.89.84,2.45.62,3.68.07,5.06,1.11,7.23,6.66,6.42,8.84-2.75-13.28-16.55-5.5-29.62.88,3.46-.75,6.73-1.37,9-1.26-.03.06-.06.13-.08.2-.18.49-.22.95-.15,1.36-3.2.22-6.35.98-9.45,2.14,5.42-.78,9.63-.67,10.01,2.25-1.79-2.16-6.34-2.12-8.77-1.02-4.44,2.03-7.67,8.35-11.18,15.38,4.21-3.01,8.28-5.13,11.91-4.7-10.28,1.56-12.48,9.54-16.48,19.74,2.42-3.3,4.67-4.76,6.81-5.04-3.68,2.25-6.09,6.08-6.72,12.11-.26-.02-.53-.01-.83.06.94,1.18.23,13.54,1.25,19.92.08.51.18,1.03.3,1.56-2.63-5.64-1.93-11.67-3.22-22.91-.75-6.58-2.42-13.71-4.75-16.73,3.32,2.98,4.93,7.85,5.79,13.55,1.06-8.89,3.98-17.41-2.52-23.9,3.37,1.64,4.73,4.76,5.04,8.65,1.38-4.22,3.25-8.58,1.72-12,.18,0,.37-.04.57-.08.32-.07.62-.18.88-.31.85,1.6.84,3.28.17,5.04,4.05-7.52,8.03-10.69,3-21.58,2.06,3.18,3.52,6.14,3.4,8.51,2.68-4.22,2.95-9.49.49-15.93,1.57,2.02,2.71,3.9,2.78,5.38l1.42-7.67c.1.06.21.11.32.16.27.12.53.2.77.23-.72,2.45-1.12,7.66-1.56,12.52,4.65-7.12,11.56-12.18,9.46-25.46,2.8,5.92,1.24,10.76-.68,15.52,4.72-3.9,12.08-7.84,13.72-10.42.03.31.1.63.22.95.18.5.43.88.74,1.14-1.41,1.11-3.53,2.42-6.04,3.83,7.26-3.45,12.75-1.85,16.07-1.29-9.15-.37-17.7,1.11-24.36,8.47Z"/>
          <g>
            <path class="cls-3" d="m105.67,80.74c-.44.21-1.06.4-1.78.36-1.82-.1-3.91-1.7-3.1-3.95.71-1.94,2.42-1.97,3.54-1.56,1.26.46,2.16,1.4,2.46,1.93-.81.13-1.55.58-1.72,1.46-.15.74.15,1.34.6,1.76Z"/>
            <path class="cls-3" d="m109.91,78.18c-.76-.31-1.48-.59-2.05-.67-.34-.05-.71-.05-1.07,0-.14-.24-.4-.58-.78-.91-.03-.52.02-1.38.53-2.04.9-1.16,2.38-1.23,3.17-.62,2.42,1.89.85,3.65.2,4.23Z"/>
            <path class="cls-3" d="m108.68,83.14c-.38,1.25-1.85,2.06-2.99,1.79-1.91-.45-2.03-2.71-1.84-3.83h.03c.72.04,1.34-.16,1.78-.36.38.37.88.61,1.28.69.42.08,1.09.03,1.82-.04.07.37.14,1.05-.08,1.75Z"/>
            <path class="cls-3" d="m116.17,80.88c-.18.94-3.89.41-5.13.35-1.24-.05-3.23.37-4.09.19-.87-.17-2.16-1.07-1.88-2.45.25-1.27,1.67-1.64,2.79-1.47,1.13.17,2.9,1.1,4.22,1.55,1.23.44,4.21,1.21,4.09,1.83Z"/>
            <g>
              <path class="cls-1" d="m112.08,79.06c-.29-.1-.6-.22-.92-.36l.7,2.59c.38.03.82.07,1.27.1l-.59-2.18c-.17-.05-.33-.11-.46-.15Z"/>
              <path class="cls-1" d="m108.27,77.59l1.01,3.74c.42-.04.83-.08,1.22-.1l-.85-3.17c-.5-.19-.97-.36-1.38-.47Z"/>
              <path class="cls-1" d="m105.76,77.91l.93,3.44c.09.03.18.05.26.07.25.05.61.05,1.01.03l-1.06-3.95c-.41.06-.81.19-1.14.41Z"/>
            </g>
          </g>
          <g>
            <path class="cls-3" d="m116.88,66.99c-.26.41-.7.9-1.34,1.26-1.63.89-4.24,1.33-4.77-1-.46-2.02.92-3.63,2.12-3.89,1.34-.29,2.65.02,3.19.31-.63.55-1.03,1.32-.69,2.16.28.7.87,1.04,1.49,1.16Z"/>
            <path class="cls-3" d="m119.15,62.55c-.83.14-1.61.3-2.15.53-.33.14-.65.34-.92.58-.25-.13-.67-.28-1.17-.35-.31-.43-.74-1.18-.66-2.01.14-1.46,1.38-2.32,2.41-2.22,3.12.31,2.73,2.63,2.49,3.47Z"/>
            <path class="cls-3" d="m120.81,67.4c.36,1.26-.47,2.73-1.61,3.11-1.9.64-3.25-1.2-3.7-2.25.01,0,.02,0,.03,0,.64-.36,1.08-.85,1.34-1.26.54.11,1.1.04,1.49-.1.41-.15.96-.56,1.55-1.01.27.27.71.82.9,1.52Z"/>
            <path class="cls-3" d="m126.06,61.48c.37.89-3.15,2.43-4.25,3.05-1.1.62-2.6,2.04-3.44,2.36-.85.32-2.46.25-2.98-1.06-.48-1.2.54-2.28,1.61-2.74,1.07-.47,3.12-.63,4.51-.95,1.31-.31,4.31-1.25,4.55-.66Z"/>
            <g>
              <path class="cls-1" d="m125.96,61.96l-.92-.63c-.48.06-1.06.19-1.64.33l1.63,1.12c.41-.29.75-.57.93-.82Z"/>
              <path class="cls-1" d="m123.78,63.5l-2.06-1.42c-.07.02-.15.04-.21.05-.43.1-.93.19-1.44.27l2.51,1.72c.36-.18.78-.39,1.2-.62Z"/>
              <path class="cls-1" d="m121.31,64.84l-3.08-2.12c-.48.1-.91.22-1.24.36-.07.03-.14.06-.21.1l3.5,2.41c.36-.26.7-.53,1.03-.75Z"/>
              <path class="cls-1" d="m118.37,66.88c.23-.09.51-.26.82-.47l-3.46-2.38c-.27.34-.45.72-.46,1.14l2.66,1.83c.16-.03.31-.07.44-.12Z"/>
            </g>
          </g>
          <g>
            <path class="cls-3" d="m80.96,79.62c.51.33,1.12.88,1.55,1.68,1.1,2.04.54,5.56-2.38,6.19-2.52.55-3.45-1.45-3.75-2.94-.35-1.68.06-3.3.43-3.98.67.79,1.64,1.29,2.68.89.88-.35,1.32-1.08,1.47-1.84Z"/>
            <path class="cls-3" d="m75.46,76.75c.17,1.03.35,2.01.64,2.68.17.41.41.81.72,1.15-.17.31-.35.83-.45,1.46-.54.38-1.48.91-2.51.8-1.82-.2-2.87-1.75-2.74-3.03.41-3.89,3.3-3.38,4.34-3.06Z"/>
            <path class="cls-3" d="m81.52,74.72c1.58-.43,3.4.62,3.86,2.04.78,2.38-1.53,4.04-2.85,4.59,0-.02-.01-.02-.02-.04-.44-.81-1.05-1.35-1.55-1.68.14-.67.07-1.37-.11-1.86-.18-.51-.69-1.21-1.24-1.95.35-.33,1.03-.86,1.91-1.1Z"/>
            <path class="cls-3" d="m74.2,68.12c1.11-.45,2.99,3.95,3.75,5.33s2.51,3.26,2.9,4.32c.39,1.07.29,3.07-1.35,3.7-1.5.58-2.83-.71-3.4-2.04-.57-1.34-.75-3.89-1.13-5.63-.37-1.64-1.51-5.39-.77-5.68Z"/>
            <g>
              <path class="cls-1" d="m76.04,69.8l-1.6,1.82c.12.5.24.98.35,1.42l1.88-2.13c-.21-.38-.42-.76-.63-1.11Z"/>
              <path class="cls-1" d="m77.3,72.15l-2.17,2.46c.09.49.16,1.01.24,1.54l2.51-2.84c-.16-.3-.36-.71-.58-1.16Z"/>
              <path class="cls-1" d="m78.6,74.46l-2.95,3.35c.1.52.22,1,.36,1.4l3.32-3.76c-.25-.34-.5-.67-.73-.99Z"/>
              <path class="cls-1" d="m80.12,76.52l-3.44,3.9c.25.32.55.61.88.82l3.22-3.65c-.15-.31-.38-.68-.66-1.07Z"/>
            </g>
          </g>
          <g>
            <path class="cls-3" d="m121.54,53.3c-.25.51-.68,1.14-1.37,1.64-1.75,1.26-4.7,2.12-5.64-.49-.81-2.27.56-4.32,1.9-4.78,1.51-.52,3.06-.34,3.72-.08-.65.72-1,1.67-.5,2.58.43.76,1.16,1.08,1.89,1.13Z"/>
            <path class="cls-3" d="m123.54,47.87c-.93.28-1.81.57-2.4.91-.36.21-.7.48-.98.8-.31-.12-.81-.22-1.4-.24-.42-.45-1.02-1.26-1.04-2.22-.04-1.71,1.27-2.86,2.47-2.89,3.64-.1,3.51,2.64,3.35,3.64Z"/>
            <path class="cls-3" d="m126.13,53.23c.59,1.41-.17,3.21-1.42,3.81-2.1,1.01-3.92-.93-4.58-2.08.01,0,.02,0,.03-.02.69-.5,1.12-1.13,1.37-1.64.63.05,1.27-.1,1.71-.33.45-.23,1.03-.78,1.65-1.38.34.28.92.85,1.24,1.64Z"/>
            <path class="cls-3" d="m131.36,45.67c.55.97-3.29,3.24-4.47,4.1s-2.71,2.71-3.64,3.2c-.94.49-2.8.63-3.58-.8-.72-1.32.31-2.7,1.47-3.38,1.17-.69,3.5-1.16,5.07-1.72,1.46-.54,4.78-2.05,5.15-1.4Z"/>
            <g>
              <path class="cls-1" d="m130.88,46.79l-1.4-.96c-.45.14-.92.32-1.39.5l1.87,1.29c.36-.29.68-.57.92-.83Z"/>
              <path class="cls-1" d="m128.85,48.43l-2.23-1.53c-.15.06-.29.11-.42.16-.31.11-.64.22-1,.32l2.58,1.77c.33-.22.7-.46,1.07-.72Z"/>
              <path class="cls-1" d="m126.65,49.95l-3.06-2.1c-.51.15-1,.3-1.44.47l3.57,2.46c.32-.31.64-.59.93-.83Z"/>
              <path class="cls-1" d="m124.78,51.7l-3.95-2.72c-.33.24-.64.53-.88.85l3.92,2.7c.28-.23.59-.52.91-.83Z"/>
            </g>
          </g>
          <g>
            <path class="cls-3" d="m96.36,55.72c.18.49.32,1.18.2,1.96-.3,1.97-1.63,4.49-3.97,3.42-2.02-.93-2.5-3.16-1.94-4.34.63-1.34,1.75-2.24,2.35-2.52.06.9.46,1.74,1.39,2,.79.21,1.47-.07,1.97-.52Z"/>
            <path class="cls-3" d="m93.11,53.07c-.09.36-.13.76-.1,1.15v.02c-.28.13-.67.39-1.07.77-.57,0-1.49-.14-2.14-.74-1.16-1.08-1.07-2.69-.32-3.5,2.06-2.22,4.07-.82,4.87.04-.56.81-1.08,1.61-1.24,2.26Z"/>
            <path class="cls-3" d="m99.28,52.62c1.31.52,2.02,2.18,1.61,3.4-.69,2.04-3.15,1.99-4.33,1.69.01,0,.01-.02.01-.03.12-.78-.02-1.47-.2-1.96.44-.39.76-.91.89-1.34.14-.45.15-1.19.15-1.99.39-.05,1.13-.06,1.87.23Z"/>
            <path class="cls-3" d="m98.27,44.95c1,.27-.61,3.61-.8,4.96-.19,1.34.05,3.55-.23,4.48-.28.94-1.39,2.26-2.85,1.86-1.34-.37-1.59-1.95-1.29-3.16.3-1.22,1.85-2.94,2.48-4.35.6-1.33,2.03-3.97,2.69-3.79Z"/>
            <g>
              <path class="cls-1" d="m98.59,45.72l-1.47.23c-.28.4-.56.87-.82,1.34l2.03-.31c.14-.47.24-.91.26-1.26Z"/>
              <path class="cls-1" d="m97.9,48.36l-2.31.36h0c-.19.43-.46.88-.76,1.34l2.7-.42c.07-.36.21-.81.37-1.28Z"/>
              <path class="cls-1" d="m97.4,50.97l-3.53.55c-.3.47-.55.92-.69,1.32l4.22-.65c0-.41,0-.82,0-1.22Z"/>
              <path class="cls-1" d="m97.24,54.38c.07-.23.1-.53.13-.87l-4.37.68c.02.42.12.82.3,1.17l3.78-.59c.07-.14.12-.27.16-.39Z"/>
            </g>
          </g>
          <path class="cls-2" d="m82.88,158.85c.09-3.66-4.6-12.73-5.68-19.49-1.02-6.38-.31-18.74-1.25-19.92,3.57-.84,3.8,5.53,5.03,5.46"/>
        </g>
      </g>
    </g>
  </g>
</svg>