<?xml version="1.0" encoding="UTF-8"?>
<svg id="Layer_2" data-name="Layer 2" xmlns="http://www.w3.org/2000/svg" viewBox="0 0 46.23 79.72">
  <defs>
    <style>
      .cls-1 {
        fill: #dbdbdb;
        stroke-width: .5px;
      }

      .cls-1, .cls-2 {
        stroke: #303030;
        stroke-miterlimit: 10;
      }

      .cls-2 {
        fill: none;
        stroke-width: .75px;
      }
    </style>
  </defs>
  <g id="Layer_1-2" data-name="Layer 1">
    <g>
      <path class="cls-2" d="m20.14,72.48c1.7-.45,2.98-1.19,3.54-1.96.14,1,.38,2.02.71,3.06-1.55,1.4-3.73.49-4.25-1.1Z"/>
      <path class="cls-2" d="m30.44,68.32c.06-.04.11-.08.17-.13,1.41,1.03,3.02,1.36,4.64,1.1-.49,1.6-2.27,2.69-4,2.53-.41-1.24-.7-2.41-.81-3.5Z"/>
      <path class="cls-1" d="m35.29,46.62c.27,1.59.45,3.13.54,4.61-.08.14-.18.26-.29.4-9.4-3.78-15.29-9.6-16.15-18.36-6.38,4.59-10.17,11.36-11.09,20.55-1.11-4.59-1.31-9.03-.83-11.71C11.36,20.6,21.31,10.4,19.58.55c0,0,6.73,2.08,5.3,15.49-.84,7.8,8.57,19.82,10.41,30.58Z"/>
      <path class="cls-1" d="m17.88,11.43c-2.77,7.46-7.87,16.67-10.41,30.68-.48,2.69-.28,7.15.83,11.75-.02.14-.03.28-.05.43-2.66-5.52-3.43-12.07-2.63-19.52-3.09,8.97-4.72,17.95-3.56,26.93-.38-1.03-.7-2.16-.97-3.37C-3.76,36.47,17.92,15.31,7.03,9.43c5.84-7.04,9.84-.98,10.85,2Z"/>
      <path class="cls-1" d="m45.24,57.37c.84-8.34-1.84-15.43-8.75-21.01,2.26,5.34,2.65,10.4-.66,14.87-.09-1.48-.27-3.02-.54-4.62-1.84-10.74-11.25-22.77-10.42-30.57.35-3.26.22-5.85-.18-7.9,1.91-2.31,4.38-3.71,8.39-2.34-3.22,3.09-6.21,6.28,7.29,28.4,5.4,8.84,6.28,16.97,4.87,23.17Z"/>
      <g>
        <path class="cls-2" d="m19.39,33.27c.86,8.76,6.76,14.58,16.15,18.36.11-.14.21-.27.29-.4.41,6.37-.82,11.61-3.36,15-.14.2-.3.39-.46.57-.12.15-.26.31-.4.45-.13.14-.26.28-.41.41-.19.19-.38.36-.59.53-1.49,1.22-3.26,1.99-5.28,2.22-.56.07-1.11.09-1.63.08-.14,0-.27,0-.41-.01-.15,0-.31-.01-.46-.02-.16-.01-.32-.02-.48-.04h-.01c-.21-.02-.43-.04-.64-.08-.46-.08-.91-.17-1.35-.31-.12-.02-.24-.06-.36-.11-5.23-1.67-8.63-6.78-10.59-12.35-.12-.34-.24-.68-.35-1.03-.29-.9-.54-1.81-.75-2.72.92-9.19,4.71-15.96,11.09-20.55Z"/>
        <path class="cls-2" d="m8.25,54.28c.02-.16.03-.31.05-.46.21.91.46,1.81.75,2.72.11.34.23.69.35,1.03,1.96,5.57,5.36,10.68,10.59,12.35.12.04.24.09.36.11.44.14.89.23,1.35.31.21.04.43.06.64.08h.01c.16.02.31.03.48.04.14.02.31.03.46.02.14.01.27.01.41.01-2.2,3.13-16.45,5.77-21.64-8.77-1.16-9,.47-17.98,3.56-26.95-.79,7.45-.02,14,2.63,19.51Z"/>
        <path class="cls-2" d="m36.49,36.36c6.91,5.58,9.59,12.67,8.75,21.01-2.14,9.45-9.61,14.46-14.63,10.83.21-.17.41-.34.59-.53.15-.13.28-.27.41-.41.14-.14.28-.3.4-.45.16-.18.31-.37.46-.57,2.54-3.39,3.78-8.63,3.36-15,3.31-4.49,2.93-9.54.66-14.88Z"/>
      </g>
      <path class="cls-2" d="m33.25,76.48l-6.23,2.76c-1.76-3.04-2.96-5.97-3.33-8.75.53.01,1.08-.02,1.65-.08,1.94-.22,3.66-.94,5.11-2.09.25,2.37,1.3,5.18,2.8,8.16Z"/>
      <g>
        <path class="cls-2" d="m25.33,70.41c-14.98,1.7-19.24-20.61-17.85-28.3C11.36,20.6,21.32,10.4,19.58.54c0,0,6.73,2.09,5.3,15.49-.83,7.8,8.58,19.83,10.42,30.58,2.26,13.23-1.8,22.87-9.97,23.8Z"/>
        <path class="cls-2" d="m7.03,9.42c5.84-7.03,9.84-.98,10.85,2.01-2.77,7.45-7.88,16.66-10.41,30.68-1.33,7.4,2.57,28.35,16.23,28.38-2.36,3.36-18.55,6.14-22.61-12.17C-3.76,36.47,17.93,15.3,7.03,9.42Z"/>
        <path class="cls-2" d="m24.7,8.14c1.91-2.32,4.38-3.71,8.39-2.35-3.23,3.09-6.21,6.28,7.29,28.41,13.6,22.29-1.45,40.01-9.76,34,4.51-3.71,6.39-11.63,4.69-21.58-1.84-10.74-11.25-22.77-10.42-30.58.34-3.26.2-5.85-.19-7.9Z"/>
      </g>
    </g>
  </g>
</svg>