<?xml version="1.0" encoding="UTF-8"?>
<svg id="Layer_2" data-name="Layer 2" xmlns="http://www.w3.org/2000/svg" viewBox="0 0 64.02 63.37">
  <defs>
    <style>
      .cls-1 {
        fill: #303030;
      }

      .cls-2 {
        fill: #dbdbdb;
        stroke-width: .62px;
      }

      .cls-2, .cls-3 {
        stroke: #303030;
        stroke-miterlimit: 10;
      }

      .cls-4, .cls-3 {
        fill: none;
      }

      .cls-3 {
        stroke-width: .75px;
      }
    </style>
  </defs>
  <g id="Layer_1-2" data-name="Layer 1">
    <g>
      <path class="cls-4" d="m33.97,22.33c8.07,1.27,11.07,7.54,10.76,12.65-.8,13.26-21.84,11.67-23.25-.16-.49-4.01,4.42-13.75,12.49-12.49Z"/>
      <path class="cls-1" d="m44.6,33.79c-.48-.97-.98-1.93-1.49-2.92.26-.37.52-.73.77-1.09-.1-.27-.21-.53-.33-.79-.26.38-.53.76-.81,1.14-.71-1.35-1.44-2.73-2.21-4.13.11-.19.22-.37.35-.56-.19-.17-.37-.33-.57-.48-.06.1-.12.2-.19.3-.12-.24-.26-.47-.4-.72-.4-.28-.82-.53-1.28-.77.42.74.84,1.47,1.24,2.21-.58.93-1.18,1.86-1.81,2.79-.74-1.38-1.51-2.76-2.32-4.19.36-.53.69-1.07,1.02-1.6-.24-.09-.48-.16-.73-.24-.22.37-.46.74-.69,1.13-.27-.48-.56-.98-.84-1.47-.11-.02-.22-.05-.35-.06-.2-.02-.38-.05-.58-.07.45.77.89,1.54,1.33,2.28-.79,1.19-1.62,2.38-2.49,3.58-.58-1-1.2-2.02-1.82-3.05.67-.94,1.31-1.9,1.93-2.84-.32,0-.62.02-.93.06-.45.69-.93,1.39-1.42,2.09-.29-.47-.59-.97-.9-1.45-.22.1-.46.21-.67.32.38.61.76,1.19,1.12,1.78-.88,1.21-1.82,2.47-2.79,3.73-.56-.92-1.13-1.85-1.71-2.79-.17.2-.33.4-.5.59.59.95,1.16,1.9,1.71,2.8-.68.89-1.43,1.78-2.18,2.69-.46-.79-.93-1.59-1.43-2.4-.12.27-.25.55-.36.82.43.73.87,1.45,1.29,2.18-.67.78-1.34,1.59-2.06,2.4.04.31.1.61.17.9.79-.89,1.55-1.76,2.28-2.61.58,1.02,1.14,2.01,1.67,3-.81.94-1.65,1.88-2.52,2.85.15.2.3.41.46.59.84-.93,1.65-1.83,2.43-2.75.74,1.41,1.46,2.8,2.11,4.16-.4.45-.79.89-1.2,1.34.21.12.43.24.67.35.3-.32.59-.64.88-.97.26.55.51,1.08.74,1.62.3.1.61.2.92.27-.35-.83-.73-1.66-1.14-2.5.81-.9,1.59-1.8,2.32-2.68.67,1.33,1.28,2.64,1.85,3.95-.43.52-.87,1.04-1.31,1.57.28.04.58.07.87.1.26-.31.52-.62.78-.93.14.32.27.66.41.98.25,0,.51-.01.76-.02-.2-.52-.42-1.05-.66-1.59,1.05-1.26,2.04-2.5,3.02-3.73.46,1.03.88,2.06,1.29,3.06-.53.66-1.08,1.33-1.64,2.01.41-.09.81-.19,1.19-.31.26-.31.51-.62.76-.92.07.19.15.38.22.57.22-.1.45-.19.66-.3-.11-.31-.22-.62-.35-.93,1-1.26,1.96-2.48,2.87-3.69.3.63.59,1.24.87,1.85.17-.24.33-.47.48-.72-.27-.59-.55-1.18-.84-1.78.67-.88,1.33-1.77,1.96-2.63.06.14.14.27.2.41.02-.21.04-.41.05-.62.02-.45.02-.89,0-1.36-.04.07-.09.13-.13.19Zm-4.49-7.07c.76,1.39,1.47,2.76,2.16,4.1-.61.86-1.25,1.73-1.91,2.61-.67-1.29-1.35-2.61-2.08-3.95.64-.91,1.24-1.83,1.83-2.76Zm-5.01-1.45c.82,1.42,1.59,2.81,2.33,4.18-.81,1.16-1.65,2.34-2.54,3.53-.72-1.35-1.47-2.74-2.28-4.15.88-1.21,1.71-2.4,2.49-3.56Zm-5.17.46c.62,1.03,1.23,2.04,1.81,3.05-.9,1.23-1.85,2.45-2.86,3.7-.55-.99-1.13-2.01-1.75-3.04.98-1.26,1.92-2.5,2.8-3.71Zm-5.47,7.02c.76-.9,1.5-1.8,2.21-2.68.59,1,1.16,2.02,1.72,3.01-.72.88-1.46,1.77-2.23,2.68-.54-.99-1.11-1.99-1.7-3.01Zm4.17,7.86c-.66-1.36-1.35-2.75-2.11-4.15.78-.9,1.51-1.81,2.24-2.69.78,1.41,1.5,2.79,2.17,4.14-.72.89-1.49,1.8-2.3,2.7Zm.65-7.45c1-1.24,1.96-2.47,2.86-3.68.81,1.39,1.55,2.78,2.26,4.14-.93,1.2-1.91,2.43-2.94,3.67-.68-1.35-1.42-2.71-2.18-4.13Zm4.38,8.8c-.58-1.29-1.19-2.6-1.85-3.93,1.03-1.26,2.02-2.5,2.95-3.7.68,1.31,1.3,2.61,1.9,3.92-.97,1.21-1.96,2.45-3,3.71Zm1.61-8.28c.88-1.18,1.75-2.34,2.54-3.49.72,1.33,1.4,2.63,2.06,3.9-.87,1.14-1.77,2.29-2.69,3.48-.59-1.26-1.24-2.56-1.91-3.89Zm3.56,7.71c-.42-1.02-.85-2.02-1.33-3.06.95-1.19,1.86-2.35,2.73-3.52.5.99.98,1.96,1.44,2.92-.92,1.19-1.85,2.41-2.84,3.66Zm3.33-4.31c-.46-.95-.94-1.93-1.42-2.91.64-.89,1.29-1.77,1.91-2.63.51.99,1,1.96,1.47,2.91-.63.87-1.28,1.74-1.96,2.63Z"/>
      <path class="cls-3" d="m61.49,45.43c-.59,3.85-.61,7.93-3.16,9.96-7.21,5.74-15.43-8.34-17.82-12.87,2.34-1.51,4-3.99,4.21-7.53.05-.85,0-1.76-.14-2.65,5.27.12,16.5.76,18.33,3.77,1.23,2.03-.79,5.18-1.42,9.32Z"/>
      <path class="cls-3" d="m26.03,42.01c-2.76,3.82-10.05,12.79-15.95,10.22-3.63-1.59-3.69-4.49-5.38-8.07-1.26-2.69-4.06-4.75-4.27-6.64-1.18-10.37,16.22-7.98,21.67-6.57-.52,1.47-.76,2.86-.63,3.88.37,3.15,2.14,5.58,4.56,7.18Z"/>
      <path class="cls-3" d="m38.06,23.57c-1.18-.57-2.54-1-4.09-1.24-2.13-.33-4.05.1-5.7,1-2.49-4.96-7.27-16.58-.63-22.2,2.06-1.73,5.48-.07,9.96.79,4.5.88,7.92.16,9.49,3.8,2.93,6.74-5.56,14.89-9.03,17.85Z"/>
      <path class="cls-3" d="m63.62,29.77c-.25,2.27-2.49,3.51-4.58,4.18h0c-4.26-1.19-10.78-1.52-14.44-1.61-.55-3.41-2.56-6.88-6.53-8.76,1.97-1.69,5.55-5.03,7.76-8.85,2.38-1.29,6.55-3.04,9.5-1.49,3.01,1.59,3.56,4.58,4.91,7.67,1.39,3.19,3.63,6.75,3.39,8.86Z"/>
      <path class="cls-3" d="m43.3,61.17c-1.96,1.07-4.58,0-8.86.16-4.27.16-7.05,2.7-11.23,1.19-5.64-2.06-5.46-8.31-4.65-12.48,3.18-2.44,5.97-5.98,7.46-8.03,4.21,2.83,10.4,3.15,14.48.51,1.14,2.16,3.58,6.47,6.63,9.78.46,2.67.27,6.65-3.83,8.87Z"/>
      <path class="cls-3" d="m28.27,23.34c-3.01,1.64-5.15,4.8-6.17,7.62-2.75-.71-8.54-1.67-13.46-1.12-2.5-.92-5.7-2.82-6.63-6.64-.93-3.84,2.13-5.14,4.35-8.07,2.22-2.92,2.14-7.98,7.67-8.77,4.03-.58,8.05,2.82,10.4,5.32.55,4.51,2.52,9.02,3.84,11.66Z"/>
      <path class="cls-2" d="m50.66,32.34c-.1.07-.24.16-.42.27-.32-.02-.63-.05-.94-.07-1.52-.31-3.17-.55-4.81-.73-.64-3.18-2.6-6.34-6.25-8.14.2-.25.4-.51.59-.78,0-.01,0-.02.02-.02.69-.63,1.5-1.39,2.34-2.24,1.04-.4,1.98-.62,2.71-.62.32,0,.58.05.74.12.9.48,1.31,1.38,2.18,3.59.26.67.52,1.35.82,2.04.41.93.89,1.91,1.36,2.87.57,1.1,1.43,2.84,1.66,3.71Z"/>
      <path class="cls-2" d="m43.33,47.88c.06,2.27-1.07,2.97-1.72,3.33-.06.01-.17.02-.36.02-.47,0-1.09-.06-1.8-.12-1.05-.1-2.37-.21-3.88-.21-.35,0-.69,0-1.07.01-2.18.09-4.01.62-5.48,1.05-1.13.33-2.11.61-2.92.61-.41,0-.81-.06-1.23-.22-1.88-.68-2.61-2.76-2.18-6.21.06-.09.14-.16.21-.25t.02-.02c1.28-1.13,2.48-2.37,3.54-3.59,3.93,2.4,9.34,2.75,13.26.68,1.05,1.64,2.27,3.35,3.61,4.92Z"/>
      <path class="cls-2" d="m28.27,23.34c-3.01,1.64-5.15,4.8-6.17,7.62-1.78-.46-4.84-1.02-8.12-1.2-.09-.2-.15-.4-.2-.59-.22-.76.69-1.19,1.34-1.98.71-.72,1.5-1.52,2.27-2.54.98-1.29,1.59-2.7,2.12-3.94,1.13-2.63,1.46-3.01,2.8-3.21.11-.01.21-.01.32-.01,1.02,0,2.34.59,3.78,1.69.64,1.62,1.32,3.04,1.86,4.16Z"/>
      <path class="cls-2" d="m50.28,33.76c-.12.52-.33,1.18-.5,1.72-.38,1.29-.88,2.91-1.15,4.72-.11.73-.21,1.46-.3,2.19-.26,2.01-.57,4.51-1.33,5.12-.55.43-.86.43-.99.43-.88,0-2.21-.79-3.75-2.34,0,0,0-.01,0-.01-.73-1.21-1.33-2.28-1.73-3.07,2.34-1.51,4-3.99,4.21-7.53.05-.78,0-1.6-.11-2.42,2.8.34,4.67.79,5.66,1.19Z"/>
      <path class="cls-2" d="m25.55,41.66c-2.87,3.02-5.29,4.44-6.62,4.44-.2,0-.36-.04-.52-.1-.97-.42-1.18-.74-2.07-3.11-.31-.87-.68-1.83-1.18-2.89-.79-1.7-1.93-3.09-2.84-4.2h0c-1.12-1.37-.42-3.49,1.3-3.84,1.14-.22,2.71-.26,4.82-.45,1.16,0,2.33.07,3.43.19-.36,1.2-.5,2.29-.4,3.13.36,2.94,1.92,5.25,4.09,6.83Z"/>
      <path class="cls-2" d="m41.44,20.38c-1.28,1.34-2.49,2.44-3.38,3.2-1.18-.57-2.54-1-4.09-1.24-2.13-.33-4.05.1-5.7,1-.38-.76-.82-1.67-1.26-2.7-.19-1.62-.12-3.11.27-4.36.42-1.34,1.86-2.08,3.22-1.76.4.1.81.2,1.21.31,1.04.26,2.22.56,3.51.81,1.24.25,2.39.38,3.4.5.95.11,2.56.3,2.85.55,0,0,.07.06.17.3.41.92.3,2.1-.2,3.39Z"/>
      <g>
        <path class="cls-3" d="m61.49,45.43c-.59,3.85-.61,7.93-3.16,9.96-7.21,5.74-15.43-8.34-17.82-12.87,2.34-1.51,4-3.99,4.21-7.53.05-.85,0-1.76-.14-2.65,5.27.12,16.5.76,18.33,3.77,1.23,2.03-.79,5.18-1.42,9.32Z"/>
        <path class="cls-3" d="m26.03,42.01c-2.76,3.82-10.05,12.79-15.95,10.22-3.63-1.59-3.69-4.49-5.38-8.07-1.26-2.69-4.06-4.75-4.27-6.64-1.18-10.37,16.22-7.98,21.67-6.57-.52,1.47-.76,2.86-.63,3.88.37,3.15,2.14,5.58,4.56,7.18Z"/>
        <path class="cls-3" d="m38.06,23.57c-1.18-.57-2.54-1-4.09-1.24-2.13-.33-4.05.1-5.7,1-2.49-4.96-7.27-16.58-.63-22.2,2.06-1.73,5.48-.07,9.96.79,4.5.88,7.92.16,9.49,3.8,2.93,6.74-5.56,14.89-9.03,17.85Z"/>
        <path class="cls-3" d="m63.62,29.77c-.25,2.27-2.49,3.51-4.58,4.18h0c-4.26-1.19-10.78-1.52-14.44-1.61-.55-3.41-2.56-6.88-6.53-8.76,1.97-1.69,5.55-5.03,7.76-8.85,2.38-1.29,6.55-3.04,9.5-1.49,3.01,1.59,3.56,4.58,4.91,7.67,1.39,3.19,3.63,6.75,3.39,8.86Z"/>
        <path class="cls-3" d="m43.3,61.17c-1.96,1.07-4.58,0-8.86.16-4.27.16-7.05,2.7-11.23,1.19-5.64-2.06-5.46-8.31-4.65-12.48,3.18-2.44,5.97-5.98,7.46-8.03,4.21,2.83,10.4,3.15,14.48.51,1.14,2.16,3.58,6.47,6.63,9.78.46,2.67.27,6.65-3.83,8.87Z"/>
        <path class="cls-3" d="m28.27,23.34c-3.01,1.64-5.15,4.8-6.17,7.62-2.75-.71-8.54-1.67-13.46-1.12-2.5-.92-5.7-2.82-6.63-6.64-.93-3.84,2.13-5.14,4.35-8.07,2.22-2.92,2.14-7.98,7.67-8.77,4.03-.58,8.05,2.82,10.4,5.32.55,4.51,2.52,9.02,3.84,11.66Z"/>
      </g>
    </g>
  </g>
</svg>