<?xml version="1.0" encoding="UTF-8"?>
<svg id="Layer_2" data-name="Layer 2" xmlns="http://www.w3.org/2000/svg" viewBox="0 0 129.23 103.33">
  <defs>
    <style>
      .cls-1 {
        stroke-linecap: round;
        stroke-linejoin: round;
        stroke-width: .75px;
      }

      .cls-1, .cls-2, .cls-3 {
        fill: none;
      }

      .cls-1, .cls-2, .cls-3, .cls-4 {
        stroke: #303030;
      }

      .cls-2, .cls-3, .cls-4 {
        stroke-miterlimit: 10;
      }

      .cls-2, .cls-4 {
        stroke-width: .2px;
      }

      .cls-3 {
        stroke-width: .3px;
      }

      .cls-4 {
        fill: #dbdbdb;
      }
    </style>
  </defs>
  <g id="Layer_1-2" data-name="Layer 1">
    <g>
      <g>
        <path class="cls-1" d="m102.39,65.41c-.79.11-1.59.34-2.26.04-1.46-.65-1.19-1.4-4.15-1.43-2.96-.04-8.07,8.14-10.62,9.94s-5.75.88-5.89,3.71,5.96.75,6.02,2.56c.06,1.5-1.5,2.1-2.02,2.25-3.67.17-9.18-.94-9.28,1.63-.1,2.62,3.95.61,6.47,2.01,1.77.99,3,3.81,3.3,4.9-1.33,4.25-5.79,4.53-6.81,5.34-1.02.82-1.4,3.61-3.88,4.8s-5.12-.75-8.32-1.48c-5.82-1.33-9.76,4.61-11.85,2.81-1.89-1.64,2.2-3.73-.25-5.92-2.45-2.2-4.38,3.27-5.77,4.39-4.27,5.34-23-.72-33.41-11.06-9.14-9.08-11.98-21.69-12.5-24.4.49-.37.98-.78,1.47-1.2.36-.32.81-.74,1.32-1.25.86,3.2,5.98,20.55,15.8,20.55,2.95,0,.46-3.73,2.6-4.29s3.73.82,6.18,1.02c2.45.2,3.57-.51,5.41.31,2.3,1.02,4.54,7.76,8.58,3.68,1.91-1.94.56-4.22-1.12-5.16-1.86-1.04-3.81.21-4.54-1.53-2.35-5.57,6.74-9.4,8.68-10.32,4.14-1.94,7.85-8.36,13.94-8.22,8.63.2,9.8,8.98,12.36,6.33,2.55-2.66-5.62-3.27-4.5-9.19,4.29.41,4.75-2.81,9.55-3.32,4.8-.51,5.48,1.07,7.03,1.31,1.97.3,5.75-1.02,7.66,1.36,1.9,2.38-.34,4.33,1.97,5.38,1.87.85,1.63-2.14,3.81-1.98,1.22.09,2.48,3.14,5.02,6.43Z"/>
        <g>
          <path class="cls-4" d="m89.3,69.72c-1.52,1.81-2.94,3.53-3.95,4.24-.47.33-.96.57-1.45.76-4.55-1.17-7.35,3.14-6.9,7.12-1.34-3.39.53-5.86,3.37-8.04-5.95,1.97-10.67,7.79-6.71,13.81-1.61-.92-2.72-2.8-2.43-7.3-1.4,2.92-1.62,5.72.01,8.3-.21.1-.4.25-.58.44-.14.14-.26.28-.36.43-.77-1.4-1.27-3.16-1.16-5.75-1.02,3.4-1.7,6.69-1.38,9.68-.14-.02-.28-.04-.44-.04s-.32.01-.46.03c-.15-4.03.74-5.7,1.24-8.48-.62,1.4-1.68,2.33-3,3-.1-.14-.21-.27-.32-.39-.1-.11-.2-.21-.32-.3,1.84-.69,3.31-3.26,4.82-5.67.69-1.1,1.44-2.02,1.92-2.84-2.39,2.6-4.78,3.37-7.15,2.48,5,.51,7.99-5.06,12.92-7.71-3.53,1.02-8.34,3.23-12.73,6.54-2.18,1.64-4.8,3.88-6.04,5.73-1.83,2.73-2.23,6.41-1.35,11.02-1.16-2.63-1.58-5.43-.97-8.48-2.61,6.12-7.57,9.29-13.27,11.53-.06-.17-.12-.36-.16-.56,7.86-3.05,11.3-8.52,14.25-14.08-4.75,4.85-11.01,7.89-12.82,11.85.48-2.3,2.33-4.43,4.34-6.38-3.09.83-5.72,1.08-7.96.83-1.12-1.04-2.62-1.24-4.12-1.25-2.23-1.21-3.84-3.2-4.97-5.81,6.32,9.06,15.41,7.94,26.81-1.64-4.91,1.32-9.2,1.54-12.66.36,14.2,1.42,18.14-6.28,24.72-8.63-4.62.36-9.07-.82-11.47.75-.16-.22-.35-.43-.58-.65-.17-.16-.35-.29-.56-.39.96-.42,2.01-.53,3.11-.48-3.99-1.81-8.3-2.16-13.19.14-.03-.25-.08-.52-.14-.81-.07-.32-.16-.6-.27-.84,2.54.14,5.44-.75,8.45-.65.88.03,1.72.18,2.23.38-.93-.62-1.53-1.3-1.79-2.07.23-.02.45-.08.65-.15.12-.04.24-.1.36-.17,3.18,5.18,6.57,4.05,12.64,4.09-.83-.19-1.99-.5-2.6-1.34.2-.08.4-.18.59-.32.12-.09.23-.18.33-.28,2.31,2.64,5.65,1.11,9.32.04,2.1-.62,4.46-.69,6.54-.66-5.79-1.43-8.96-4.55-9.5-9.4,2,6.02,6.56,7.59,11.34,8.78-4.85-2.77-6.88-7.61-5.87-10.13.47-1.18,1.92-2.55,3.88-2.21-1.94.38-2.55,2.23-2.62,3.3-.21,2.63,3.73,6.96,8.41,8.27Z"/>
          <path class="cls-2" d="m67.31,93.37c-3-.05-2.49,4.15-3.54,4.94.72.28,1.35.14,1.84-.71.41,1.06.8,1.57,1.75,2.13.74-.51,1.11-1.24,1.28-2.33.39,1.16,1.22,1.61,2.55,1.26-1.54-.93-.58-5.24-3.88-5.29Z"/>
          <path class="cls-2" d="m64.76,87.53c.67.74,1.22,1.78,1.2,2.63-.04,2.16-1.81,2.73-1.71,4.54-1.5-.83-1.48-1.97-1.2-3.65-.87,2.02-2.6,2.02-2.68,3.4-1.97-1.33-1.63-3.78-.51-4.77-1.14.45-2.07.33-2.68-.69.83.13,1.89-1.79,3.7-2.43,1.13-.4,2.99-.03,3.88.97Z"/>
          <path class="cls-2" d="m70.64,89.04c-1.32,1.37-1.02,2.82-.34,4.05.8,1.46,2.28,2.55,2.25,3.95,1.2-.78,1.91-1.81,1.33-3.51.71.73,1.7.96,3.2.27-.45-.49.17-1.63-1.26-3.13,1.22.43,2.25-.2,2.31-2.31-3.03,1.03-5.83-1.03-7.49.68Z"/>
          <path class="cls-2" d="m67.44,71.99c1.32-.99,1.49-2.13,1.53-3.13.1-2.31-.95-2.62-1.12-3.74-.38.5-.62,1.47-.82,2.59-.28-2.36-1.56-2.38-3.44-2.79,1.29.79.53,2.22,1.02,3.74-.85-.67-1.77-.87-2.76-.68.63.22.77,1.96,1.7,3.2s2.67,1.73,3.89.81Z"/>
          <path class="cls-2" d="m59.12,61.79c-.56,1.24.2,2.61-.17,4.57-.25,1.29-1.34,2.95-2.5,3.38s-2.98-.02-3.81-.54c-2.11-1.33-1.5-3.44-2.96-4.14,1.47-.21,2.98-.51,3.73.56-.6-1.77.56-2.93,1.07-4.39.81,1,2.25,1.43,2.5,2.86.58-1.34,1.25-2.29,2.14-2.3Z"/>
          <path class="cls-2" d="m57.94,74.61c1.16,1.09,1.39,2.17,1.36,3.06-.07,2.32-2.86,3.78-2.86,3.78-.39-.56.07-1.56.07-2.59-1.42,1.66-3.09,2.05-4.94,1.53,1.29-.81.88-2.21,1.5-3.13-1.07.59-2.11.79-3.1.44,1.58-.24,2.06-2.2,3.71-3.27,1.2-.76,3.17-.84,4.26.18Z"/>
          <path class="cls-2" d="m47.17,73.08c1.24,5.86-3.59,4.77-4.75,5.62-.03-1.1.19-2.09.75-2.93-1.77.75-2.72-.44-4.15-.37.85-.99.95-2.59,2.76-3.17-1.11.11-1.9-.25-2.18-1.23,1.53.62,6.65-2.25,7.57,2.08Z"/>
        </g>
        <path class="cls-1" d="m126.3,94.15c-5.04-1.03-8.82-13.88-11.69-19.13-1.57-2.97-3.06-5.01-4.41-4.8-3.16.48-1.4,4.53-3.34,5.1-3.27.98-.85-6.5-2.01-8.78-1.16-2.28-3.27-.44-4.73-1.09s-1.19-1.4-4.15-1.43c-2.96-.04-8.07,8.14-10.62,9.94s-5.75.88-5.89,3.71,5.96.75,6.02,2.56c.06,1.5-1.5,2.1-2.02,2.25.72-.03,1.36-.11,1.88-.28,2.02-.64,9.55-6.8,17.53-3.1,6.37,2.96,10.91,9.03,14.76,13.62,3.53,4.21,7.64,7.21,11.22,5.41"/>
        <path class="cls-4" d="m40.77,102.93c-7.61-.27-19.55-5.52-27.12-13.03-3.52-3.5-6.11-7.53-7.99-11.31,6.79,10.4,15.36,18.25,28.54,22.22-3.09-2.17-3.86-4.47-3.73-7.64.97,5.67,4.65,8.47,10.3,9.76Z"/>
        <path class="cls-1" d="m47.07,100.96c-4.27,5.34-23-.72-33.41-11.06-9.14-9.08-11.98-21.69-12.5-24.4"/>
        <path class="cls-1" d="m108.67,71.07c-1,1.35-.32,3.82-1.8,4.26-2.59.77-1.61-3.76-1.67-6.81,1,.92,2.15,1.79,3.47,2.55Z"/>
      </g>
      <g>
        <path class="cls-1" d="m74.18,25.69c-.41,1.87-3.37,2.01-4.5,3.03-1.68,1.52-.27,5.07-1.33,6.88-1.05,1.8-4.06,1.67-4.7,2.11-8.34,5.82-10.42,3.71-10.42,3.71,0,0-3.1-1.74-3.27-3.47-.17-1.74,3.82-5.86,1.74-6.64-1.36-.51-.96,2.66-3.06,3.88-2.11,1.23-4.87.95-6.23.72-.09-1-1.33-3.44-1.84-5.28-1.46-1.12-2.02-1.39-2.35-1.87-1.19-1.7,0-3.47-1.67-5.28-1.91-2.07-5.48-2.38-6.23-1.12-1.22,2.08,4.41,1.78,3.71,5.38-.44,2.28-3.24.99-4.9,1.23-1.67.24-3.3,2.55-5.65,2.59-2.35.03-3.64-3.41-9.02-.68-4.9,2.49-8.88,9.84-9.5,14.2,0,0-2.38,8.89-1.06,18.01.8,3.74,5.96,26.01,16.39,26.24,2.03.04,2.04-2.96,3.78-3.22s5.31,3.22,7.71,3.93c2.4.72,6.44-.77,8.68,1.68,2.25,2.45,1.28,6.91,2.3,8.53.87,1.38,2.96,1.79,4.29.72-4.27,5.34-23-.72-33.41-11.06-9.14-9.08-11.98-21.69-12.5-24.4-.94-6.93-.76-19.48-.74-20.28.54-7.39,5.18-17.08,5.45-17.38C12.7,20.14,23.74,4.38,42,2.62c1.77-.17,4.05-2.11,6.23-2.24,2.18-.14,2.89,1.26,4.87,1.7,1.97.44,3.6-.04,4.73,1.06,1.05,1.02,3.4,4.84,3.27,6.54-.14,1.7-3.64,2.9-2.66,4.9.99,2.01,3.23-1.74,6.33-1.06,3.1.68,3.23,5.24,5.1,6.36,1.89,1.11,4.93,2.97,4.31,5.81Z"/>
        <path class="cls-4" d="m51.58,18.95c3.34,2.1,6.55,4.07,8.73,9.9-.59.8-1.02,1.7-1.38,2.65-3.74-8.96-10.35-14.02-18.85-15.04,8.39,2.95,7.44,9.04,5.99,15.29.1-4.66.26-8.46-2.37-11.37-3.62-4-13.32-5.31-20.92-2.45-5.32,2-11.92,6.78-16,12.87-3.11,4.63-5.5,10.02-6.38,14.99-.26-.02.24-.04,0-.08v-.48c.49-6.44,4.07-14.63,5.15-16.82,7.4-7.97,14.94-13.67,22.8-14.48,9.56-.98,19.58-3.35,24.96-7.8-2.36,3.11-5.65,5.62-12.36,7.86,8.68-.54,15.32,6.54,25.94,5.92-4.01,1.25-9.97,1.05-15.31-.96Z"/>
        <g>
          <path class="cls-1" d="m69.69,28.72c-1.68,1.52-.27,5.07-1.33,6.88-1.05,1.8-4.06,1.67-4.7,2.11-8.34,5.82-10.42,3.71-10.42,3.71,0,0-.23-.13-.57-.35,6.17-.54,4.16-9.4,8.71-13.4,2.72-2.39,7.85-.64,9.92.21-.63.24-1.23.49-1.61.84Z"/>
          <path class="cls-3" d="m66.32,29.06c-2.48,3.81-1.37,5.97-3.49,9.22-2.25,1.5-4,2.4-5.36,2.9,2.67-2,4.19-4.28,5.31-6.35,1.32-2.47,2.02-4.83,3.54-5.77Z"/>
          <path class="cls-1" d="m68.36,35.6c-1.05,1.8-4.06,1.67-4.7,2.11-8.34,5.82-10.42,3.71-10.42,3.71"/>
        </g>
      </g>
      <path class="cls-1" d="m4.97,45.06c-.87,5.09-3.83,13.33-3.82,20.44"/>
      <path class="cls-1" d="m.41,45.22c.54-7.39,5.18-17.08,5.45-17.38"/>
    </g>
  </g>
</svg>