<?xml version="1.0" encoding="UTF-8"?>
<svg id="Layer_2" data-name="Layer 2" xmlns="http://www.w3.org/2000/svg" viewBox="0 0 30.17 62.52">
  <defs>
    <style>
      .cls-1 {
        fill: #303030;
      }

      .cls-2, .cls-3 {
        stroke-width: .5px;
      }

      .cls-2, .cls-3, .cls-4 {
        stroke: #303030;
        stroke-miterlimit: 10;
      }

      .cls-2, .cls-4 {
        fill: none;
      }

      .cls-3 {
        fill: #dbdbdb;
      }

      .cls-4 {
        stroke-width: .75px;
      }
    </style>
  </defs>
  <g id="Layer_1-2" data-name="Layer 1">
    <g>
      <path class="cls-4" d="m14.14,47.87c2.87-7.34,3.1-12.94,1.37-17.38,1.47-6.51,6.57-10.56,13.68-12.92-5.85,8.19-.84,17.17-1.11,27.02-.24,8.96-3.69,18.57-16.08,17.47C2.24,61.19-.15,53.49.46,47.86c.95-8.79,9.18-20.82,2.02-29.08,13.12,5.96,17.35,14.75,11.66,29.09Z"/>
      <path class="cls-4" d="m15.51,30.49h-.03c-1.48-3.74-4.42-6.85-8.73-9.46C4.82,13.99,9.82,5.16,3.64.63c16.1,2.68,23.83,8.63,22.6,18.08-5.55,2.44-9.47,6.21-10.73,11.78Z"/>
      <path class="cls-3" d="m12,62.05C2.24,61.19-.16,53.48.45,47.85c.23-2.07.84-4.3,1.58-6.64,8.74,9.76,17.42,11.37,26.05,2.67,0,.23.01.46-.01.7-.24,8.96-3.68,18.58-16.07,17.47Z"/>
      <path class="cls-2" d="m28.08,43.88c-8.63,8.7-17.31,7.09-26.05-2.67.7-2.2,1.49-4.49,2.12-6.77,7.71,8.67,15.47,10.03,23.3,2.35.35,2.32.64,4.67.63,7.09Z"/>
      <path class="cls-1" d="m17.41,25.84c-.87,1.39-1.51,2.94-1.9,4.65h-.03c-.03-.08-.07-.16-.1-.25-.1-.26-.22-.51-.34-.75-.03-.09-.08-.19-.14-.29-.06-.11-.11-.23-.19-.33-.16-.33-.35-.65-.55-.94-.06-.11-.11-.19-.17-.28-.25-.37-.5-.74-.79-1.09-.03-.06-.08-.1-.12-.15.1-.98.25-1.96.29-2.94.04-1.78.09-3.57.09-5.36.03-1.8-.06-3.6-.13-5.42l.43-.11c1.46,3.39,2.47,6.98,3.09,10.61.15.88.4,1.75.56,2.63.01-.01,0,.01,0,.02Z"/>
      <path class="cls-1" d="m20.62,22.12h0c-.17.16-.34.3-.49.45-.15.12-.28.25-.41.39-.11.12-.23.23-.34.35-.3-1.46-.43-2.94-.59-4.43-.37-2.43-1-4.85-2.17-7.05l.12-.09c1.55,2.02,2.55,4.43,3.19,6.9.35,1.17.6,2.32.69,3.48Z"/>
      <path class="cls-1" d="m23.25,20.24c-.1.06-.19.12-.29.18l-.29.18c-.1.08-.21.13-.31.21-.89-2.99-1.74-5.93-3.21-8.69-1.89-3.37-5.04-5.94-8.7-7.45l.04-.14c7.03,1.91,12.24,8.53,12.76,15.71Z"/>
      <path class="cls-4" d="m14.14,47.87c2.87-7.34,3.1-12.94,1.37-17.38,1.47-6.51,6.57-10.56,13.68-12.92-5.85,8.19-.84,17.17-1.11,27.02-.24,8.96-3.69,18.57-16.08,17.47C2.24,61.19-.15,53.49.46,47.86c.95-8.79,9.18-20.82,2.02-29.08,13.12,5.96,17.35,14.75,11.66,29.09Z"/>
    </g>
  </g>
</svg>