<?xml version="1.0" encoding="UTF-8"?>
<svg id="Layer_2" data-name="Layer 2" xmlns="http://www.w3.org/2000/svg" viewBox="0 0 42.81 56.34">
  <defs>
    <style>
      .cls-1 {
        fill: #303030;
      }

      .cls-2 {
        stroke-width: .89px;
      }

      .cls-2, .cls-3 {
        fill: none;
        stroke: #303030;
        stroke-miterlimit: 10;
      }

      .cls-3 {
        stroke-width: .75px;
      }
    </style>
  </defs>
  <g id="Layer_1-2" data-name="Layer 1">
    <g>
      <path class="cls-3" d="m30.14,35.58c2.67-.38,9.3-.51,11.55,5.51,2.75,7.35-3.49,14.37-8.12,14.77-7.52.65-12.94-7.13-11.12-13.28"/>
      <path class="cls-3" d="m20.98,42.22h0c-.61,3.03-3.11,8.94-8.95,9.84-7.76,1.21-12.32-6.13-11.49-10.71.66-3.7,2.52-6.78,6.01-8.43,3.46-1.63,7.45-1.9,10.28-.16"/>
      <path class="cls-3" d="m37.23,36.36c-2.6-1.14-5.52-1.01-7.09-.78.28-2.38-.94-7.11-1.51-11.02,3.34-2.55,9.14-2.4,11.97.47,2.28,2.3,1.88,6.88.14,8.97-.9,1.08-2.33,1.86-3.51,2.36Z"/>
      <path class="cls-3" d="m8.57,21.03c3.3-2.83,8.28-2.05,10.49,1.52-.92,3.48-1.9,7.29-2.23,10.12,0,.04,0,.06-.02.1-2.63-1.64-6.28-1.5-9.57-.14-3.69-2.71-2.12-8.64,1.33-11.6Z"/>
      <path class="cls-3" d="m30.15,35.59h.01c.48-.08,1.1-.15,1.8-.16.84-.01,1.8.03,2.79.2.11.01.2.03.29.06.19.03.39.08.58.13.31.07.6.16.9.26,2.21,3.93.77,10.73-1.66,13.26-1.93,1.98-6.93,3.06-10.77,1.85-1.77-2.55-2.48-5.75-1.63-8.6,4.7.52,7.35-4.03,7.69-7Z"/>
      <path class="cls-3" d="m11.31,31.62s.1-.01.15-.02c.14-.01.28-.02.42-.02.25-.01.49-.01.72,0,.18,0,.35.01.52.02.25.02.5.05.75.1.2.03.41.06.6.12.22.04.43.1.64.17.17.05.33.11.47.17.43.16.85.36,1.23.6-.04.3-.06.58-.08.85-.22,3.34,1.03,7.33,4.24,8.59h0c-.28,1.42-.98,3.47-2.24,5.33-2.04.82-5.17.44-8.08-.47-3.5-1.09-5.48-4.88-4.23-8.33,1.27-3.42,3.59-5.84,4.9-7.11Z"/>
      <path class="cls-3" d="m28.77,25.5h0s.08-.03.11-.05c4.77-1.64,9.45,2.72,8.43,7.66-.26,1.25-.45,2.31-.79,2.98-.3-.11-.59-.2-.9-.26-.19-.05-.38-.1-.58-.13-.09-.03-.18-.05-.29-.06-.99-.18-1.94-.22-2.79-.2-.7.01-1.32.08-1.8.15.03-.26.03-.56.03-.88v-.09s0-.03,0-.06c0-.17-.02-.35-.02-.54-.02-.19-.03-.4-.05-.61-.04-.32-.07-.64-.12-.98-.04-.34-.09-.69-.16-1.06-.03-.23-.08-.47-.13-.73-.04-.25-.09-.5-.13-.75-.13-.75-.27-1.51-.42-2.3-.02-.11-.04-.21-.05-.32-.12-.59-.23-1.18-.34-1.77Z"/>
      <path class="cls-3" d="m11.42,25.17c1.74-2.72,7.12-2.53,7.12-2.53.16.02.33.04.48.08-.92,3.43-1.86,7.17-2.19,9.95,0,.04,0,.06-.02.1-.38-.24-.8-.44-1.23-.6-.14-.06-.3-.12-.47-.17-.21-.06-.41-.12-.64-.17-.19-.05-.4-.08-.6-.12-.25-.05-.5-.08-.75-.1-.17-.01-.34-.02-.52-.02-.23-.01-.47-.01-.72,0-.14,0-.27.01-.42.02-.05.01-.1.01-.15.02-.64-1.83-1.12-4.53.11-6.46Z"/>
      <path class="cls-3" d="m26.42.38c3.21.33,1.78,17.36,1.94,21.52.16,4.16,2.12,10.73,1.78,13.69-.34,2.97-2.99,7.52-7.7,6.99-4.31-.49-5.96-5.15-5.71-8.96.02-.27.04-.55.08-.85,0-.04,0-.06.02-.1.32-2.82,1.3-6.64,2.23-10.12.34-1.31.69-2.56.98-3.7C21.12,14.58,24.28.17,26.42.38Z"/>
      <g>
        <path class="cls-1" d="m23.13,6.97l5.13-2.41c.13,1.14.21,2.45.25,3.82l-6.64,3.13c.39-1.52.82-3.09,1.26-4.54Z"/>
        <path class="cls-1" d="m19.61,20.52h0s8.86-4.6,8.86-4.6c-.05,1.53-.09,2.93-.11,4.07l-9.98,5.19c.23-.88.46-1.75.68-2.62.18-.71.36-1.38.54-2.04Z"/>
        <path class="cls-1" d="m16.9,32.27l11.9-6.67c.2,1.21.45,2.48.68,3.71l-12.59,7.04c-.16-.92-.2-1.85-.15-2.73.02-.27.04-.55.08-.85,0-.04,0-.06.02-.1,0-.13.03-.27.06-.4Z"/>
      </g>
      <g>
        <path class="cls-2" d="m30.14,35.58c2.67-.38,9.3-.51,11.55,5.51,2.75,7.35-3.49,14.37-8.12,14.77-7.52.65-12.94-7.13-11.12-13.28"/>
        <path class="cls-2" d="m20.98,42.22h0c-.61,3.03-3.11,8.94-8.95,9.84-7.76,1.21-12.32-6.13-11.49-10.71.66-3.7,2.52-6.78,6.01-8.43,3.46-1.63,7.45-1.9,10.28-.16"/>
        <path class="cls-2" d="m37.23,36.36c-2.6-1.14-5.52-1.01-7.09-.78.28-2.38-.94-7.11-1.51-11.02,3.34-2.55,9.14-2.4,11.97.47,2.28,2.3,1.88,6.88.14,8.97-.9,1.08-2.33,1.86-3.51,2.36Z"/>
        <path class="cls-2" d="m8.57,21.03c3.3-2.83,8.28-2.05,10.49,1.52-.92,3.48-1.9,7.29-2.23,10.12,0,.04,0,.06-.02.1-2.63-1.64-6.28-1.5-9.57-.14-3.69-2.71-2.12-8.64,1.33-11.6Z"/>
      </g>
    </g>
  </g>
</svg>