<?xml version="1.0" encoding="UTF-8"?>
<svg id="Layer_2" data-name="Layer 2" xmlns="http://www.w3.org/2000/svg" viewBox="0 0 27.65 58.77">
  <defs>
    <style>
      .cls-1 {
        fill: #303030;
      }

      .cls-2 {
        fill: #dbdbdb;
        stroke-width: .5px;
      }

      .cls-2, .cls-3 {
        stroke: #303030;
        stroke-miterlimit: 10;
      }

      .cls-3 {
        fill: none;
        stroke-width: .75px;
      }
    </style>
  </defs>
  <g id="Layer_1-2" data-name="Layer 1">
    <g>
      <path class="cls-3" d="m14.24,58.33c-5.3.84-12.71-6.3-13.72-16.49C-.76,29,9.65,16.82,1.13,9.02c6.26.81,9.58,3.42,10.59,7.45,1.1-1.43,1.4-3.49,1.43-5.76,2.59,1.19,4.16,2.76,4.76,4.72.37-4.38,3.29-6.05,7.47-6.38-7.99,14.68,1.69,18.64,1.9,31.79.15,10.44-7.7,16.64-13.04,17.49Z"/>
      <path class="cls-2" d="m.52,41.84c-.45-4.47.52-8.85,1.61-13.01-.11,6.29,2.69,14.19,8.01,21.67-3.31-11.58-2.16-21.23,5.71-27.97,1.37,8.66,5.33,15.75,11.17,21.72-1.35,8.38-8.05,13.33-12.78,14.08-5.3.84-12.71-6.3-13.72-16.49Z"/>
      <path class="cls-3" d="m5.64,10.1c.02-2.67,1.48-8.55,5.62-8.35,3.69.18,3.87,6.45,3.68,9.97-.53-.36-1.14-.69-1.8-1.01-.02,2.28-.32,4.33-1.42,5.76-.74-2.93-2.68-5.09-6.08-6.37Z"/>
      <path class="cls-3" d="m12.54,2.11c1.89-4.1,7.86-.76,8.09,8.3-1.54,1-2.53,2.59-2.73,5.01-.44-1.45-1.42-2.68-2.95-3.71.15-3.05.04-8.18-2.41-9.6Z"/>
      <path class="cls-2" d="m5.64,10.1c0-.15.01-.3.01-.47h0c2.82-4.19,6.64-4.36,9.32,1.33-.01.26-.01.51-.03.75-.53-.36-1.14-.69-1.8-1.01-.02,2.28-.32,4.33-1.42,5.76-.74-2.92-2.68-5.08-6.08-6.36Z"/>
      <path class="cls-2" d="m14.94,11.71c.06-1.18.09-2.65-.06-4.11.23-1.49.76-3.28,1.99-2.92,1.59.46,2.76,4.37,3.22,6.13-1.24,1.01-2.03,2.5-2.2,4.61-.43-1.45-1.41-2.69-2.95-3.71Z"/>
      <g>
        <path class="cls-1" d="m7.68,45.68c-3.68-9.67-2.09-20.9,3.62-29.5l.83.56c-5.88,8.27-7.77,19.26-4.45,28.94h0Z"/>
        <path class="cls-3" d="m14.24,58.33c-5.3.84-12.71-6.3-13.72-16.49C-.76,29,9.65,16.82,1.13,9.02c6.26.81,9.58,3.42,10.59,7.45,1.1-1.43,1.4-3.49,1.43-5.76,2.59,1.19,4.16,2.76,4.76,4.72.37-4.38,3.29-6.05,7.47-6.38-7.99,14.68,1.69,18.64,1.9,31.79.15,10.44-7.7,16.64-13.04,17.49Z"/>
        <path class="cls-3" d="m5.64,10.1c.02-2.67,1.48-8.55,5.62-8.35,3.69.18,3.87,6.45,3.68,9.97-.53-.36-1.14-.69-1.8-1.01-.02,2.28-.32,4.33-1.42,5.76-.74-2.93-2.68-5.09-6.08-6.37Z"/>
        <path class="cls-3" d="m12.54,2.11c1.89-4.1,7.86-.76,8.09,8.3-1.54,1-2.53,2.59-2.73,5.01-.44-1.45-1.42-2.68-2.95-3.71.15-3.05.04-8.18-2.41-9.6Z"/>
      </g>
    </g>
  </g>
</svg>