<?xml version="1.0" encoding="UTF-8"?>
<svg id="Layer_2" data-name="Layer 2" xmlns="http://www.w3.org/2000/svg" viewBox="0 0 87.23 82.64">
  <defs>
    <style>
      .cls-1 {
        fill: #dbdbdb;
        stroke-width: .5px;
      }

      .cls-1, .cls-2 {
        stroke: #303030;
        stroke-miterlimit: 10;
      }

      .cls-2 {
        fill: none;
        stroke-width: .75px;
      }
    </style>
  </defs>
  <g id="Layer_1-2" data-name="Layer 1">
    <g>
      <path class="cls-2" d="m44.09,45.76c-3.66,1.79-8.23-1.96-8.17-4.6.09-3.66,4.77-7.06,8.81-3.96,2.71,2.09,2.48,7.04-.64,8.56Z"/>
      <path class="cls-2" d="m7.59,47.93c-2.34-1.29-3.2-3.6-3.07-5.74,1.22.51,3.58.06,7.41.51-3.39-1.31-4.35-2.13-3.45-4.34,2.48,1.12,6.77.5,11.55.14,5.29-.4,11.19-.48,15.92,2.46-.02.07-.02.14-.02.21-.03,1.53,1.49,3.44,3.5,4.41.56,9.24-1.39,15.29-4.4,19.99-2.21,3.46-5,6.19-7.78,8.92-2.49-2.23-2.86-4.56-.77-7.03-3.89,1.73-8.68-.25-10.47,1.66-1.02-3.23-.24-5.28,1.41-6.76-5.43.45-7.92-1.92-11.11-2.17,1.34-.96,2.5-5.36,4.47-5.75-4.34-.89-7.15-2.68-9.83-5.74,2.17.32,3.51-1.6,6.64-.77Z"/>
      <path class="cls-2" d="m35.03,65.57c3.01-4.7,4.96-10.75,4.4-19.99,1.44.71,3.14.93,4.67.18.67-.33,1.21-.82,1.6-1.4,4.57,4.5,13.66,7.61,19.13,13.31h.01c2.51,2.62,4.26,5.78,4.47,9.86-1.08-1.1-2.31-1.94-4.09-1.79.73,2.49,1.4,4.7.77,6.38-1.85-2.23-5.74-1.27-7.15-2.23,1.85,4.66.32,7.92-3.76,9.4.19-3.31-1.34-5.05-3.58-6.14.53,2.83.05,5.55-1.34,8.17-1.85-3.83-5.17-3.64-5.74-6.64-.61,3.07-2.03,5.51-4.41,7.21.13-2.68-1.85-4.53-2.04-7.6-.77,1.14-1.8,1.69-3.13,1.54,1.79-4.59.3-6.72.19-10.26Z"/>
      <path class="cls-2" d="m45.92,38.6c8.33-2.59,12.57-8.58,19.48-12.21,3.37-1.77,7.37-2.98,12.78-2.97-2.36,2.68-1.98,6.75-3.83,7.79,4.54-1.29,7.32-.35,8.56,2.55-2.27.55-1.98,3.13-5.37,5.36,4.28-.57,7.14,1.34,9.28.17-.19,4.28-5.58,5.88-10.04,6.73,5.92.48,8.01,3.41,6.64,8.55-1.76-2-4.9-1.79-8.3-3.32,1.79,1.37,3,2.61,3.37,4.13.42,1.74-.22,3.73-2.1,6.15-1.14-2.15-2.25-2.15-3.44-2.49.3,2.02-.03,4.1-.9,6.25-1.72-4.17-4.08-6.39-7.21-7.61h-.01c-5.47-5.71-14.56-8.82-19.13-13.32,1.13-1.63,1.21-4.01.22-5.76Z"/>
      <path class="cls-1" d="m45.92,38.6c3.26-1.02,5.9-2.55,8.31-4.27,5.05-.78,10.48-2.42,16.16-4.65-3.48,3.62-7.99,6.72-13.53,9.27,5.49-.37,10.24.88,14.22,3.83-5.34-2.1-10.32-2.67-14.56-.08,5.35,1.88,9.9,5.02,13.53,9.62-8.37-5.63-13.82-3.66-18.97-4.02-2.07-1.26-3.95-2.53-5.38-3.94,1.13-1.63,1.21-4.01.22-5.76Z"/>
      <path class="cls-2" d="m11.76,22.27c-1.32-1.32-1.34-3.01-3.07-4.68,2.13-1.57,6.73-2.68,9.53-.42-2.46-3.83-.42-6.6.52-7.49.51,1.7,4.34,2.55,5.78,5.44.02-3.5.95-5.77,3.07-6.46-1.18,3.92,4.23,8.01,7.03,13.02h0c0,.12.02.22.03.34.69,5.92,4.41,9.72,6.06,14.02-2.54.33-4.6,2.54-4.76,4.92-4.73-2.94-10.63-2.86-15.92-2.46-4.89-2.21-9.34-3.36-12.95-.78-2.81-3.7-1.73-7.34,3.06-7.11-2.94-1.44-6.1-4.06-7.06-3.57.93-4.16,4.64-4.68,8.68-4.77Z"/>
      <path class="cls-1" d="m39.43,45.58c1.44.71,3.14.93,4.67.18.67-.33,1.21-.82,1.6-1.4,2.7,2.65,6.97,4.83,11.14,7.33l2.13,3.2-7.89-4.39c1.21,3.95,3.74,9.05,9.02,14.33-4.33-2.72-8.46-6.6-12.34-11.92-.53,4.33.31,9.52,2.89,15.83-3.48-1.99-6.67-4.78-8.77-10.3.29,5.52-.63,10.08-3.15,13.37.81-3.6-.92-7-1.5-10.45,1.69-4.04,2.61-9.07,2.2-15.78Z"/>
      <path class="cls-1" d="m24.94,33.84c-.37-.36-7.24-7.16-4.46-9.48,2.85-2.38,10.68,5.23,10.68,5.23-.15-4.08-2.08-7.53-5.7-10.38,4.22,1.81,7.72,4.36,10.5,7.64,1.43,3.42,3.6,6.18,4.75,9.19-2.54.33-4.6,2.54-4.76,4.92-4.23-2.63-9.39-2.84-14.22-2.57-3.56-1.97-5.43-6.63-7.34-6.24,2.72-2.08,6.64-.16,10.55,1.69Z"/>
      <path class="cls-2" d="m64.2,17.23c2.86-2.17,5.57-2.68,8.07-.57-4.39.11-4.73,4.97-6.87,9.73-6.91,3.63-11.15,9.62-19.48,12.21-.29-.54-.69-1.01-1.18-1.39-1.34-1.03-2.74-1.34-4.03-1.17-1.65-4.3-5.37-8.1-6.06-14.02-.01-.12-.03-.22-.03-.33h0c-.68-6.37.66-10.99-2.35-15.59,3.91-.93,6.66.18,7.66,4.43.02-3.64.34-6.38-.68-9.02,4.9-.38,7.02,2.76,6.97,7.23,1.13-3.45,3.43-4.28,4.35-7.4,2.75,1.51,3.61,3.97,3.4,6.98,1.66-3.69,9.59-6.76,11.57-7.68-.68,4.18.27,11.65-1.34,16.59Z"/>
      <path class="cls-1" d="m29.88,44.66c-5.32-.77-10.24-2.02-13.53-3.24,5.7,0,8.34-4.51,19.67.47.35,1.37,1.71,2.87,3.41,3.69.33,5.46-.21,9.8-1.34,13.41-2,2.69-5.23,4.92-7.36,7.79,2.37-5.9,4.69-11.23,3.07-17.19-5.08,4.04-11.28,6.48-17.87,8.34,6.27-3.73,12.15-7.64,13.95-13.27Z"/>
      <path class="cls-1" d="m38.91,14.7c2.08,2.84,3.51,7.67,3.23,12.85,4.69-4.6,7.6-10.05,7.32-17.02,2.22,6.5,2.16,12.77.68,18.89,3.64-4.21,6.24-9.36,7.06-14.89,1.99,6.41,2.15,12.16.49,17.18-3.43,2.7-6.9,5.38-11.77,6.89-.29-.54-.69-1.01-1.18-1.39-1.34-1.03-2.74-1.34-4.03-1.17-1.11-2.9-3.16-5.56-4.59-8.81.29-5.67,3.76-5.43,2.79-12.53Z"/>
      <g>
        <path class="cls-2" d="m7.59,47.93c-2.34-1.29-3.2-3.6-3.07-5.74,1.22.51,3.58.06,7.41.51-3.39-1.31-4.35-2.13-3.45-4.34,2.48,1.12,6.77.5,11.55.14,5.29-.4,11.19-.48,15.92,2.46-.02.07-.02.14-.02.21-.03,1.53,1.49,3.44,3.5,4.41.56,9.24-1.39,15.29-4.4,19.99-2.21,3.46-5,6.19-7.78,8.92-2.49-2.23-2.86-4.56-.77-7.03-3.89,1.73-8.68-.25-10.47,1.66-1.02-3.23-.24-5.28,1.41-6.76-5.43.45-7.92-1.92-11.11-2.17,1.34-.96,2.5-5.36,4.47-5.75-4.34-.89-7.15-2.68-9.83-5.74,2.17.32,3.51-1.6,6.64-.77Z"/>
        <path class="cls-2" d="m35.03,65.57c3.01-4.7,4.96-10.75,4.4-19.99,1.44.71,3.14.93,4.67.18.67-.33,1.21-.82,1.6-1.4,4.57,4.5,13.66,7.61,19.13,13.31h.01c2.51,2.62,4.26,5.78,4.47,9.86-1.08-1.1-2.31-1.94-4.09-1.79.73,2.49,1.4,4.7.77,6.38-1.85-2.23-5.74-1.27-7.15-2.23,1.85,4.66.32,7.92-3.76,9.4.19-3.31-1.34-5.05-3.58-6.14.53,2.83.05,5.55-1.34,8.17-1.85-3.83-5.17-3.64-5.74-6.64-.61,3.07-2.03,5.51-4.41,7.21.13-2.68-1.85-4.53-2.04-7.6-.77,1.14-1.8,1.69-3.13,1.54,1.79-4.59.3-6.72.19-10.26Z"/>
        <path class="cls-2" d="m45.92,38.6c8.33-2.59,12.57-8.58,19.48-12.21,3.37-1.77,7.37-2.98,12.78-2.97-2.36,2.68-1.98,6.75-3.83,7.79,4.54-1.29,7.32-.35,8.56,2.55-2.27.55-1.98,3.13-5.37,5.36,4.28-.57,7.14,1.34,9.28.17-.19,4.28-5.58,5.88-10.04,6.73,5.92.48,8.01,3.41,6.64,8.55-1.76-2-4.9-1.79-8.3-3.32,1.79,1.37,3,2.61,3.37,4.13.42,1.74-.22,3.73-2.1,6.15-1.14-2.15-2.25-2.15-3.44-2.49.3,2.02-.03,4.1-.9,6.25-1.72-4.17-4.08-6.39-7.21-7.61h-.01c-5.47-5.71-14.56-8.82-19.13-13.32,1.13-1.63,1.21-4.01.22-5.76Z"/>
        <path class="cls-2" d="m11.76,22.27c-1.32-1.32-1.34-3.01-3.07-4.68,2.13-1.57,6.73-2.68,9.53-.42-2.46-3.83-.42-6.6.52-7.49.51,1.7,4.34,2.55,5.78,5.44.02-3.5.95-5.77,3.07-6.46-1.18,3.92,4.23,8.01,7.03,13.02h0c0,.12.02.22.03.34.69,5.92,4.41,9.72,6.06,14.02-2.54.33-4.6,2.54-4.76,4.92-4.73-2.94-10.63-2.86-15.92-2.46-4.89-2.21-9.34-3.36-12.95-.78-2.81-3.7-1.73-7.34,3.06-7.11-2.94-1.44-6.1-4.06-7.06-3.57.93-4.16,4.64-4.68,8.68-4.77Z"/>
        <path class="cls-2" d="m32.27,6.1c3.91-.93,6.66.18,7.66,4.43.02-3.64.34-6.38-.68-9.02,4.9-.38,7.02,2.76,6.97,7.23,1.13-3.45,3.43-4.28,4.35-7.4,2.75,1.51,3.61,3.97,3.4,6.98,1.66-3.69,9.59-6.76,11.57-7.68-.68,4.18.27,11.66-1.34,16.59,2.86-2.17,5.57-2.68,8.07-.57-4.39.11-4.73,4.97-6.87,9.73-6.91,3.63-11.15,9.62-19.48,12.21-.29-.54-.69-1.01-1.18-1.39-1.34-1.03-2.74-1.34-4.03-1.17-1.65-4.3-5.37-8.1-6.06-14.02-.01-.12-.03-.22-.03-.33h0c-.68-6.37.66-10.99-2.35-15.59Z"/>
      </g>
      <path class="cls-2" d="m43.25,44.36c-2.56,1.25-5.76-1.37-5.72-3.22.06-2.56,3.34-4.95,6.17-2.77,1.89,1.46,1.73,4.93-.45,5.99Z"/>
    </g>
  </g>
</svg>