<?xml version="1.0" encoding="UTF-8"?>
<svg id="Layer_2" data-name="Layer 2" xmlns="http://www.w3.org/2000/svg" viewBox="0 0 103.48 117.37">
  <defs>
    <style>
      .cls-1 {
        fill: none;
        stroke: #303030;
        stroke-linejoin: round;
        stroke-width: 1.5px;
      }

      .cls-2 {
        fill: #dbdbdb;
      }
    </style>
  </defs>
  <g id="Layer_1-2" data-name="Layer 1">
    <g>
      <path class="cls-1" d="m8.76,99.06c-1.6-3.05-6.38-3.52-6.88-4.83-6.28-16.24,16.13-35.41,6.5-44.17,1.7-1.18,3.94-.79,5.4.43,1.23,1.03,1.41,3.25,2.18,2.84,1.27-.69-1-3.03.87-7.47,3.76-8.93,11.39-17.59,11.61-23.25,1.78,4.33,3.63,10.51,3.67,15.64.04,5.83-2.65,10.51-1.32,10.68.6.08.98-1.36,2.18-2.6,1.39-1.44,3.73-2.71,6.46-2.56-3.79,3.3-1.59,10.53-5.11,15.99-1.17,1.82-8.02,9.86-6.17,11.89,1.84,2.03,11.72-3.97,14.7-18.28,1.43-6.86,3.34-19.29,2.13-23.47-.33-1.15-2.75-2.39-2.75-2.39,3.35-1.08,6.42,1.7,7.76,4.88,1.03,2.45.13,5.26,1.26,5.04,1.52-.29,2.82-11.52,6-16.17,3.09-4.53,8.43-6.75,8.91-11.67,3.15,4.67-.69,9.59.84,9.55,1.67-.04,2.3-6.74,7.69-12.18,3.9-3.93,7.23-5.37,9.16-6.21-4.59,5.98-3.07,13.17-3.44,14.91-.43,1.98-2.01,7.12-1.12,7.33.98.23,2.37-3.33,7.08-2.79-4.09,3.19-2.9,11.62-4.2,16.41-2.28,8.42-8.91,13.7-7.39,16.4,1.76,3.11,8.36-3.62,12.94.35-8.28,2.68-11.23,12.18-16.28,15.92-12.28,9.09-27.91,13.11-25.23,18.11,2.11,3.94,7.8-3.61,15.12-6.62,5.61-2.3,10.77-.07,17.6-6.84.58,7.82-5.85,7.38-5.01,9.38.7,1.66,7.35-7.16,28.81.57-6.62-.12-10.97,4.22-15.85,7.57-8.25,5.67-11.11,4.99-11.15,6.56.56,2.32,7.58,1.36,6.71,8.33-5.43-7.06-15.59,9.12-36.28,5.94,2.3,1.83,3.04,3.32,1.6,4.34-8.64-5.48-25.95,4.54-37.94-11.81-.81-1.09.54-2.7-1.06-5.75Z"/>
      <path class="cls-2" d="m79.38,87.29c-11.96,4.37-20.8,14.04-31.79,16.18-11.92,2.32-29.17-6.74-38.05-2.05-.09-.67-.3-1.45-.78-2.36-.32-.6-.75-1.1-1.25-1.52,3.41-3.18,1.3-13.7,6.76-21.41,11.06-15.65,12.36-23.31,11.2-33.52,3.43,11.68-2.28,21.7-7.5,30.85-4.47,7.81-5.44,14.07-6.37,21.99,6.89-5.9,27.37-13.82,35.68-26.17,7.36-10.93,10.76-24.5,21.79-36.37-8.85,9.81-13.65,30.71-22.65,41.71-9.18,11.2-22.31,17.49-33.35,22.69,11.39-1.52,22.36,5.38,33.52,3.67,10.94-1.69,18.19-11.21,32.79-13.69Z"/>
      <path class="cls-1" d="m9.81,104.8c-.79-1.08.55-2.69-1.05-5.74s-6.38-3.52-6.88-4.83"/>
    </g>
  </g>
</svg>