<?xml version="1.0" encoding="UTF-8"?>
<svg id="Layer_2" data-name="Layer 2" xmlns="http://www.w3.org/2000/svg" viewBox="0 0 27.57 56.49">
  <defs>
    <style>
      .cls-1 {
        fill: #dbdbdb;
        stroke-width: .5px;
      }

      .cls-1, .cls-2 {
        stroke: #303030;
        stroke-miterlimit: 10;
      }

      .cls-2 {
        fill: none;
        stroke-width: .75px;
      }
    </style>
  </defs>
  <g id="Layer_1-2" data-name="Layer 1">
    <g>
      <path class="cls-2" d="m12.44,56.03c-6.2-.71-10.47-6.78-11.59-13.24-1.9-10.96,2.6-20.89,1.15-25.26,6.29,2.69,7.56,10.43,9.21,17.79,1.25-8.25,5.79-13.31,13.25-16.87-2.35,3.02,2.38,9.24,2.73,18.27.12,3.32-1.69,20.81-14.75,19.31Z"/>
      <path class="cls-1" d="m25.66.33c-6.82,6.12-4.09,12.57-3.79,19.5-5.92,3.46-9.56,8.26-10.67,15.5-1.34-6.02-2.43-12.28-6.22-15.85C7.43,8.21,15.31,1.4,25.66.33Z"/>
      <path class="cls-1" d="m22.77,31.11c2.29,4.35,3.25,8.94,3.2,13.73-1.67,5.76-5.43,12.11-13.53,11.19-5.5-.63-9.47-5.47-11.08-11.07.33-5.26,1.17-10.02,3.28-13.59,3.9,3.27,5.88,7.78,6.65,13.05,1.79-5.43,4.16-10.58,11.48-13.31Z"/>
    </g>
  </g>
</svg>