<?xml version="1.0" encoding="UTF-8"?>
<svg id="Layer_2" data-name="Layer 2" xmlns="http://www.w3.org/2000/svg" viewBox="0 0 63.86 71.19">
  <defs>
    <style>
      .cls-1, .cls-2, .cls-3 {
        stroke: #303030;
        stroke-miterlimit: 10;
      }

      .cls-1, .cls-3 {
        fill: none;
      }

      .cls-2 {
        fill: #dbdbdb;
        stroke-width: .5px;
      }

      .cls-3 {
        stroke-width: .75px;
      }
    </style>
  </defs>
  <g id="Layer_1-2" data-name="Layer 1">
    <g>
      <path class="cls-2" d="m63.08,36.2c-6.38.4-16.15,13.56-20.25,21.44-.98,1.87-2.04,3.53-3.2,4.98-.8-7.26.75-14.09,3.53-20.64-5.09,1.95-9.47,5.17-13.1,9.71,2.44-8.4,2.89-17.03-1.53-26.22-2.59,7.44-6.1,13.58-10.56,18.39-1.33-5.64-4.66-9.63-9.02-12.77-2.35,4.97-4.2,11.98-5.83,19.88-.11-1.59-.09-3.22.09-4.86,1.59-14.72,2.03-24.39-2.43-29.87,7.23-3.51,14.05-.13,16.34,7.28C18.36,11.52,33.59,1.05,47.76.54c-6.64,7.4,1.12,24.11-3.83,33.32,5.62-4.28,15.39-5.56,19.15,2.34Z"/>
      <path class="cls-3" d="m39.64,62.62c-5.28,6.62-12.59,8.94-23.02,7.79-6.75-.74-12.8-9.4-13.49-19.44,1.63-7.9,3.48-14.91,5.83-19.88,4.36,3.14,7.69,7.13,9.02,12.77,4.46-4.81,7.97-10.95,10.56-18.39,4.42,9.19,3.97,17.82,1.53,26.22,3.63-4.54,8.01-7.76,13.1-9.71-2.78,6.55-4.33,13.38-3.53,20.64Z"/>
      <path class="cls-1" d="m16.62,70.41c-7.83-.86-14.7-12.35-13.4-24.3,1.59-14.72,2.03-24.39-2.43-29.87,7.22-3.51,14.04-.13,16.34,7.28C18.37,11.52,33.6,1.05,47.77.54c-6.64,7.4,1.12,24.11-3.83,33.32,5.62-4.28,15.38-5.55,19.15,2.34-6.38.4-16.15,13.56-20.26,21.45-5.43,10.41-13.5,14.16-26.21,12.76Z"/>
    </g>
  </g>
</svg>