<?xml version="1.0" encoding="UTF-8"?>
<svg id="Layer_2" data-name="Layer 2" xmlns="http://www.w3.org/2000/svg" viewBox="0 0 86.46 92.96">
  <defs>
    <style>
      .cls-1 {
        fill: #dbdbdb;
      }

      .cls-2 {
        stroke: #303030;
        stroke-linecap: round;
        stroke-linejoin: round;
        stroke-width: 1.5px;
      }

      .cls-2, .cls-3 {
        fill: none;
      }
    </style>
  </defs>
  <g id="Layer_1-2" data-name="Layer 1">
    <g>
      <path class="cls-3" d="m80.23,43.56c-7.02,10.94-14.5,16.76-24.23,20.3-6.15,2.24-13.41,3.44-21.44,6.71l-4.3,3L0,92.94c.88-1.45,1.62-3.05,2.23-4.81l28.22-19.75c16.48-11.79,18.83-43.31.8-67.64,19.79-.07,18.16,15.63,19.94,16.66,2.03,1.18,6.26-7.34,8.74-6.22,1.52.69-1.56,7.2.94,9.05,2.51,1.86,5.46-5.34,6.77-3.78.52.62-1.86,3.49-3.57,8.15-2.57,7.05-5.1,16.84-5.79,18.55-1.13,2.84-7.64,9.06-5.57,11.02,2.08,1.97,7.98-8.68,9.88-8.73,2.13-.05,6.88-3.33,8.03-2.07,1.15,1.25-1.64,3.76-.06,4.8.8.52,4.59-1.84,7.16-5.28,2.88-3.84,6.53-5.56,7.63-4.55,1.78,1.68-3.77,3.11-5.13,5.22Z"/>
      <path class="cls-1" d="m66.58,51.37c-5.18,6.22-12.39,11.29-29.14,15.83l-9.04,7.57L0,92.96c.88-1.45,1.62-3.05,2.23-4.81l28.22-19.75c15.39-11,18.45-39.21,4.12-62.7,4.65,4.63,8.54,13.89,9.99,23.51,1.09,7.21.5,16.35-.87,22.56,2.47-.08,7.31-23.51,12.08-31.66-6.19,13.76-7.28,38.42-16.48,43.91,6.01.33,20.8-6.16,27.29-12.65Z"/>
      <path class="cls-2" d="m31.26.75c19.79-.07,18.16,15.63,19.94,16.66,2.03,1.18,6.26-7.34,8.74-6.22,1.52.69-1.56,7.2.94,9.05,2.51,1.86,5.46-5.34,6.77-3.78.52.62-1.86,3.49-3.57,8.15-2.57,7.05-5.1,16.84-5.79,18.55-1.13,2.84-7.64,9.06-5.57,11.02,2.08,1.97,7.98-8.68,9.88-8.73,2.13-.05,6.88-3.33,8.03-2.07,1.15,1.25-1.64,3.76-.06,4.8.8.52,4.59-1.84,7.16-5.28,2.88-3.84,6.53-5.56,7.63-4.55,1.78,1.65-3.77,3.08-5.13,5.19-7.02,10.94-14.5,16.76-24.23,20.3-6.15,2.24-13.41,3.44-21.44,6.71"/>
    </g>
  </g>
</svg>